  0
SECTION
  2
HEADER
  9
$ACADVER
  1
AC1009
  9
$DWGCODEPAGE
  3
ANSI_1252
  9
$EXTMIN
 10
1e+20
 20
1e+20
 30
1e+20
  9
$EXTMAX
 10
-1e+20
 20
-1e+20
 30
-1e+20
  9
$LIMMIN
 10
0.0
 20
0.0
  9
$LIMMAX
 10
420.0
 20
297.0
  9
$TDCREATE
 40
2459758.441712963
  9
$TDUPDATE
 40
2459758.441712963
  9
$PEXTMIN
 10
1e+20
 20
1e+20
 30
1e+20
  9
$PEXTMAX
 10
-1e+20
 20
-1e+20
 30
-1e+20
  9
$PLIMMIN
 10
0.0
 20
0.0
  9
$PLIMMAX
 10
420.0
 20
297.0
  0
ENDSEC
  0
SECTION
  2
TABLES
  0
TABLE
  2
VPORT
 70
1
  0
VPORT
  2
*Active
 70
0
 10
0.0
 20
0.0
 11
1.0
 21
1.0
 12
0.0
 22
0.0
 13
0.0
 23
0.0
 14
0.5
 24
0.5
 15
0.5
 25
0.5
 16
0.0
 26
0.0
 36
1.0
 17
0.0
 27
0.0
 37
0.0
 40
1000.0
 41
1.34
 42
50.0
 43
0.0
 44
0.0
 50
0.0
 51
0.0
 71
0
 72
1000
 73
1
 74
3
 75
0
 76
0
 77
0
 78
0
  0
ENDTAB
  0
TABLE
  2
LTYPE
 70
3
  0
LTYPE
  2
ByBlock
 70
0
  3

 72
65
 73
0
 40
0.0
  0
LTYPE
  2
ByLayer
 70
0
  3

 72
65
 73
0
 40
0.0
  0
LTYPE
  2
Continuous
 70
0
  3

 72
65
 73
0
 40
0.0
  0
ENDTAB
  0
TABLE
  2
LAYER
 70
2
  0
LAYER
  2
0
 70
0
 62
7
  6
Continuous
  0
LAYER
  2
Defpoints
 70
0
 62
7
  6
Continuous
  0
ENDTAB
  0
TABLE
  2
STYLE
 70
1
  0
STYLE
  2
Standard
 70
0
 40
0.0
 41
1.0
 50
0.0
 71
0
 42
2.5
  3
txt
  4

  0
ENDTAB
  0
TABLE
  2
VIEW
 70
0
  0
ENDTAB
  0
TABLE
  2
UCS
 70
0
  0
ENDTAB
  0
TABLE
  2
APPID
 70
3
  0
APPID
  2
ACAD
 70
0
  0
APPID
  2
HATCHBACKGROUNDCOLOR
 70
0
  0
APPID
  2
EZDXF
 70
0
  0
ENDTAB
  0
TABLE
  2
DIMSTYLE
 70
1
  0
DIMSTYLE
  2
Standard
 70
0
  3

  4

  5

  6

  7

 40
1.0
 41
2.5
 42
0.625
 43
3.75
 44
1.25
 45
0.0
 46
0.0
 47
0.0
 48
0.0
140
2.5
141
2.5
142
0.0
143
0.03937007874
144
1.0
145
0.0
146
1.0
147
0.625
 71
0
 72
0
 73
0
 74
0
 75
0
 76
0
 77
1
 78
8
170
0
171
3
172
1
173
0
174
0
175
0
176
0
177
0
178
0
  0
ENDTAB
  0
ENDSEC
  0
SECTION
  2
BLOCKS
  0
BLOCK
  8
0
  2
$Model_Space
 70
0
 10
0.0
 20
0.0
 30
0.0
  3
$Model_Space
  1

1001
EZDXF
1000
WRITTEN_BY_EZDXF
1000
0.17.2 @ 2022-06-27T08:36:04.726584+00:00
  0
ENDBLK
  8
0
  0
BLOCK
  8
0
  2
$Paper_Space
 70
0
 10
0.0
 20
0.0
 30
0.0
  3
$Paper_Space
  1

  0
ENDBLK
  8
0
  0
ENDSEC
  0
SECTION
  2
ENTITIES
  0
TEXT
  8
72
 62
5
 10
-1519.3275943633073
 20
2811.093131281079
 30
0.0
 40
50.0000007509247
  1
MARK_1
 50
68.0
 11
-1519.3275943633073
 21
2811.093131281079
 31
0.0
 73
1
  0
TEXT
  8
72
 62
5
 10
-1764.6775529120696
 20
2315.948296901919
 30
0.0
 40
50.0000007509247
  1
MARK_2
 50
68.0
 11
-1764.6775529120696
 21
2315.948296901919
 31
0.0
 73
1
  0
POLYLINE
  8
51
 62
5
 66
1
 10
0.0
 20
0.0
 30
0.0
 70
1
  0
VERTEX
  8
51
  6
CONTINUOUS
 62
7
 10
-2064.2854654579432
 20
1644.32182460605
 30
0.0
 70
0
  0
VERTEX
  8
51
  6
CONTINUOUS
 62
7
 10
-2065.18680847196
 20
1642.0909223616397
 30
0.0
 70
0
  0
VERTEX
  8
51
  6
CONTINUOUS
 62
7
 10
-2061.4780730536927
 20
1640.5924959879762
 30
0.0
 70
0
  0
VERTEX
  8
51
  6
CONTINUOUS
 62
7
 10
-2061.0590584257175
 20
1641.6295935850662
 30
0.0
 70
0
  0
VERTEX
  8
51
  6
CONTINUOUS
 62
7
 10
-721.1624585248974
 20
2489.145513437478
 30
0.0
 70
0
  0
VERTEX
  8
51
  6
CONTINUOUS
 62
7
 10
-720.6183818840744
 20
2489.489654630729
 30
0.0
 70
0
  0
VERTEX
  8
51
  6
CONTINUOUS
 62
7
 10
-719.7170388700558
 20
2491.720556875145
 30
0.0
 70
0
  0
VERTEX
  8
51
  6
CONTINUOUS
 62
7
 10
-723.4257742883228
 20
2493.218983248809
 30
0.0
 70
0
  0
VERTEX
  8
51
  6
CONTINUOUS
 62
7
 10
-723.8447889162983
 20
2492.181885651718
 30
0.0
 70
0
  0
VERTEX
  8
51
  6
CONTINUOUS
 62
7
 10
-2063.741388817121
 20
1644.6659657993007
 30
0.0
 70
0
  0
SEQEND
  8
0
  0
POLYLINE
  8
51
 62
5
 66
1
 10
0.0
 20
0.0
 30
0.0
 70
1
  0
VERTEX
  8
51
  6
CONTINUOUS
 62
7
 10
-1490.9553541670048
 20
2469.0333415764153
 30
0.0
 70
0
  0
VERTEX
  8
51
  6
CONTINUOUS
 62
7
 10
-1491.605851689892
 20
2467.4233037093377
 30
0.0
 70
0
  0
VERTEX
  8
51
  6
CONTINUOUS
 62
7
 10
-1491.6664540299312
 20
2465.6878797504437
 30
0.0
 70
0
  0
VERTEX
  8
51
  6
CONTINUOUS
 62
7
 10
-1491.1298516505158
 20
2464.0363874413188
 30
0.0
 70
0
  0
VERTEX
  8
51
  6
CONTINUOUS
 62
7
 10
-1490.0607667180216
 20
2462.668021127858
 30
0.0
 70
0
  0
VERTEX
  8
51
  6
CONTINUOUS
 62
7
 10
-1488.588146653305
 20
2461.7478259824106
 30
0.0
 70
0
  0
VERTEX
  8
51
  6
CONTINUOUS
 62
7
 10
-1486.8896111697368
 20
2461.3867911201482
 30
0.0
 70
0
  0
VERTEX
  8
51
  6
CONTINUOUS
 62
7
 10
-1485.1700287143512
 20
2461.6284626737747
 30
0.0
 70
0
  0
VERTEX
  8
51
  6
CONTINUOUS
 62
7
 10
-1483.6368063095993
 20
2462.443691487212
 30
0.0
 70
0
  0
VERTEX
  8
51
  6
CONTINUOUS
 62
7
 10
-1482.4748732054427
 20
2463.7341489340834
 30
0.0
 70
0
  0
VERTEX
  8
51
  6
CONTINUOUS
 62
7
 10
-1481.8243756825555
 20
2465.3441868011614
 30
0.0
 70
0
  0
VERTEX
  8
51
  6
CONTINUOUS
 62
7
 10
-1481.7637733425197
 20
2467.079610760046
 30
0.0
 70
0
  0
VERTEX
  8
51
  6
CONTINUOUS
 62
7
 10
-1482.3003757219312
 20
2468.73110306918
 30
0.0
 70
0
  0
VERTEX
  8
51
  6
CONTINUOUS
 62
7
 10
-1483.3694606544295
 20
2470.0994693826315
 30
0.0
 70
0
  0
VERTEX
  8
51
  6
CONTINUOUS
 62
7
 10
-1484.842080719146
 20
2471.0196645280785
 30
0.0
 70
0
  0
VERTEX
  8
51
  6
CONTINUOUS
 62
7
 10
-1486.5406162027143
 20
2471.3806993903413
 30
0.0
 70
0
  0
VERTEX
  8
51
  6
CONTINUOUS
 62
7
 10
-1488.2601986580958
 20
2471.1390278367244
 30
0.0
 70
0
  0
VERTEX
  8
51
  6
CONTINUOUS
 62
7
 10
-1489.7934210628516
 20
2470.3237990232774
 30
0.0
 70
0
  0
SEQEND
  8
0
  0
POLYLINE
  8
52
 62
5
 66
1
 10
0.0
 20
0.0
 30
0.0
 70
1
  0
VERTEX
  8
52
  6
CONTINUOUS
 62
7
 10
-1584.8052122019544
 20
3090.868657569829
 30
0.0
 70
0
  0
VERTEX
  8
52
  6
CONTINUOUS
 62
7
 10
-1585.4607737404322
 20
3089.246085824337
 30
0.0
 70
0
  0
VERTEX
  8
52
  6
CONTINUOUS
 62
7
 10
-1584.3833661586148
 20
3087.8670670055267
 30
0.0
 70
0
  0
VERTEX
  8
52
  6
CONTINUOUS
 62
7
 10
-1582.65039703831
 20
3088.110619932204
 30
0.0
 70
0
  0
VERTEX
  8
52
  6
CONTINUOUS
 62
7
 10
-1581.9948354998323
 20
3089.7331916776957
 30
0.0
 70
0
  0
VERTEX
  8
52
  6
CONTINUOUS
 62
7
 10
-1583.072243081659
 20
3091.11221049651
 30
0.0
 70
0
  0
SEQEND
  8
0
  0
POLYLINE
  8
52
 62
5
 66
1
 10
0.0
 20
0.0
 30
0.0
 70
1
  0
VERTEX
  8
52
  6
CONTINUOUS
 62
7
 10
-1822.4209144804333
 20
3188.5317282801893
 30
0.0
 70
0
  0
VERTEX
  8
52
  6
CONTINUOUS
 62
7
 10
-1820.8579899664744
 20
3184.849708866375
 30
0.0
 70
0
  0
VERTEX
  8
52
  6
CONTINUOUS
 62
7
 10
-1811.7454566937477
 20
3188.717749752527
 30
0.0
 70
0
  0
VERTEX
  8
52
  6
CONTINUOUS
 62
7
 10
-1813.3083812076975
 20
3192.399769166338
 30
0.0
 70
0
  0
SEQEND
  8
0
  0
POLYLINE
  8
52
 62
5
 66
1
 10
0.0
 20
0.0
 30
0.0
 70
1
  0
VERTEX
  8
52
  6
CONTINUOUS
 62
7
 10
-2041.8615811363989
 20
2425.775362375988
 30
0.0
 70
0
  0
VERTEX
  8
52
  6
CONTINUOUS
 62
7
 10
-2043.0919631011195
 20
2421.9692935089192
 30
0.0
 70
0
  0
VERTEX
  8
52
  6
CONTINUOUS
 62
7
 10
-2029.736782343196
 20
2417.6519849908154
 30
0.0
 70
0
  0
VERTEX
  8
52
  6
CONTINUOUS
 62
7
 10
-2028.5064003784717
 20
2421.458053857894
 30
0.0
 70
0
  0
SEQEND
  8
0
  0
POLYLINE
  8
52
 62
5
 66
1
 10
0.0
 20
0.0
 30
0.0
 70
1
  0
VERTEX
  8
52
  6
CONTINUOUS
 62
7
 10
-2014.7870211462719
 20
2418.0712624452644
 30
0.0
 70
0
  0
VERTEX
  8
52
  6
CONTINUOUS
 62
7
 10
-2015.9965868614565
 20
2414.2585271042417
 30
0.0
 70
0
  0
VERTEX
  8
52
  6
CONTINUOUS
 62
7
 10
-2003.5685899720224
 20
2410.31582518519
 30
0.0
 70
0
  0
VERTEX
  8
52
  6
CONTINUOUS
 62
7
 10
-2002.3590242568416
 20
2414.128560526203
 30
0.0
 70
0
  0
SEQEND
  8
0
  0
POLYLINE
  8
52
 62
5
 66
1
 10
0.0
 20
0.0
 30
0.0
 70
1
  0
VERTEX
  8
52
  6
CONTINUOUS
 62
7
 10
-1981.811136401384
 20
2446.0721059421367
 30
0.0
 70
0
  0
VERTEX
  8
52
  6
CONTINUOUS
 62
7
 10
-1968.6899220885457
 20
2427.828374138442
 30
0.0
 70
0
  0
VERTEX
  8
52
  6
CONTINUOUS
 62
7
 10
-1965.4425804973403
 20
2430.1639195972148
 30
0.0
 70
0
  0
VERTEX
  8
52
  6
CONTINUOUS
 62
7
 10
-1978.5637948101785
 20
2448.4076514009093
 30
0.0
 70
0
  0
SEQEND
  8
0
  0
POLYLINE
  8
52
 62
5
 66
1
 10
0.0
 20
0.0
 30
0.0
 70
1
  0
VERTEX
  8
52
  6
CONTINUOUS
 62
7
 10
-1984.4201297558516
 20
2404.7300608470055
 30
0.0
 70
0
  0
VERTEX
  8
52
  6
CONTINUOUS
 62
7
 10
-1985.9185561295153
 20
2401.0213254287382
 30
0.0
 70
0
  0
VERTEX
  8
52
  6
CONTINUOUS
 62
7
 10
-1970.1564303651603
 20
2394.6530132450266
 30
0.0
 70
0
  0
VERTEX
  8
52
  6
CONTINUOUS
 62
7
 10
-1968.6580039914966
 20
2398.361748663294
 30
0.0
 70
0
  0
SEQEND
  8
0
  0
POLYLINE
  8
52
 62
5
 66
1
 10
0.0
 20
0.0
 30
0.0
 70
1
  0
VERTEX
  8
52
  6
CONTINUOUS
 62
7
 10
-1985.213644225269
 20
2378.280638332467
 30
0.0
 70
0
  0
VERTEX
  8
52
  6
CONTINUOUS
 62
7
 10
-1976.8876546670722
 20
2369.524046400551
 30
0.0
 70
0
  0
VERTEX
  8
52
  6
CONTINUOUS
 62
7
 10
-1973.9888518918256
 20
2372.2803015538766
 30
0.0
 70
0
  0
VERTEX
  8
52
  6
CONTINUOUS
 62
7
 10
-1982.3148414500222
 20
2381.0368934857925
 30
0.0
 70
0
  0
SEQEND
  8
0
  0
POLYLINE
  8
52
 62
5
 66
1
 10
0.0
 20
0.0
 30
0.0
 70
1
  0
VERTEX
  8
52
  6
CONTINUOUS
 62
7
 10
-1876.8521957807175
 20
2309.6108197927815
 30
0.0
 70
0
  0
VERTEX
  8
52
  6
CONTINUOUS
 62
7
 10
-1862.6143873207357
 20
2297.4785121315163
 30
0.0
 70
0
  0
VERTEX
  8
52
  6
CONTINUOUS
 62
7
 10
-1858.7006815170298
 20
2291.7433698961686
 30
0.0
 70
0
  0
VERTEX
  8
52
  6
CONTINUOUS
 62
7
 10
-1855.39667914752
 20
2293.998046889058
 30
0.0
 70
0
  0
VERTEX
  8
52
  6
CONTINUOUS
 62
7
 10
-1859.6123269733855
 20
2300.175654790152
 30
0.0
 70
0
  0
VERTEX
  8
52
  6
CONTINUOUS
 62
7
 10
-1874.2578585905965
 20
2312.655391116293
 30
0.0
 70
0
  0
SEQEND
  8
0
  0
POLYLINE
  8
52
 62
5
 66
1
 10
0.0
 20
0.0
 30
0.0
 70
1
  0
VERTEX
  8
52
  6
CONTINUOUS
 62
7
 10
-1840.1088245060487
 20
2324.8754933694076
 30
0.0
 70
0
  0
VERTEX
  8
52
  6
CONTINUOUS
 62
7
 10
-1834.2738479674665
 20
2321.488978785742
 30
0.0
 70
0
  0
VERTEX
  8
52
  6
CONTINUOUS
 62
7
 10
-1825.8248426269988
 20
2311.9172395333344
 30
0.0
 70
0
  0
VERTEX
  8
52
  6
CONTINUOUS
 62
7
 10
-1824.2939246852286
 20
2308.310622878315
 30
0.0
 70
0
  0
VERTEX
  8
52
  6
CONTINUOUS
 62
7
 10
-1820.6119052714132
 20
2309.873547392274
 30
0.0
 70
0
  0
VERTEX
  8
52
  6
CONTINUOUS
 62
7
 10
-1822.3964509463322
 20
2314.077673542451
 30
0.0
 70
0
  0
VERTEX
  8
52
  6
CONTINUOUS
 62
7
 10
-1831.704579261168
 20
2324.622699088951
 30
0.0
 70
0
  0
VERTEX
  8
52
  6
CONTINUOUS
 62
7
 10
-1838.1009636833758
 20
2328.335044628855
 30
0.0
 70
0
  0
SEQEND
  8
0
  0
POLYLINE
  8
52
 62
5
 66
1
 10
0.0
 20
0.0
 30
0.0
 70
1
  0
VERTEX
  8
52
  6
CONTINUOUS
 62
7
 10
-1849.453238725192
 20
2287.6448812364038
 30
0.0
 70
0
  0
VERTEX
  8
52
  6
CONTINUOUS
 62
7
 10
-1850.9516650988555
 20
2283.936145818137
 30
0.0
 70
0
  0
VERTEX
  8
52
  6
CONTINUOUS
 62
7
 10
-1848.675073197602
 20
2283.0163429845065
 30
0.0
 70
0
  0
VERTEX
  8
52
  6
CONTINUOUS
 62
7
 10
-1836.9908147633605
 20
2267.808066050337
 30
0.0
 70
0
  0
VERTEX
  8
52
  6
CONTINUOUS
 62
7
 10
-1833.8188663018482
 20
2270.245019672688
 30
0.0
 70
0
  0
VERTEX
  8
52
  6
CONTINUOUS
 62
7
 10
-1846.1667274154865
 20
2286.317044475779
 30
0.0
 70
0
  0
SEQEND
  8
0
  0
POLYLINE
  8
52
 62
5
 66
1
 10
0.0
 20
0.0
 30
0.0
 70
1
  0
VERTEX
  8
52
  6
CONTINUOUS
 62
7
 10
-1763.0795260702857
 20
2242.385324675406
 30
0.0
 70
0
  0
VERTEX
  8
52
  6
CONTINUOUS
 62
7
 10
-1759.7366773770677
 20
2240.188653872966
 30
0.0
 70
0
  0
VERTEX
  8
52
  6
CONTINUOUS
 62
7
 10
-1751.4831137581255
 20
2252.748758157728
 30
0.0
 70
0
  0
VERTEX
  8
52
  6
CONTINUOUS
 62
7
 10
-1746.6547213547608
 20
2257.0107958215162
 30
0.0
 70
0
  0
VERTEX
  8
52
  6
CONTINUOUS
 62
7
 10
-1749.3017985109254
 20
2260.009626014994
 30
0.0
 70
0
  0
VERTEX
  8
52
  6
CONTINUOUS
 62
7
 10
-1754.5317885070317
 20
2255.393096851143
 30
0.0
 70
0
  0
SEQEND
  8
0
  0
POLYLINE
  8
52
 62
5
 66
1
 10
0.0
 20
0.0
 30
0.0
 70
1
  0
VERTEX
  8
52
  6
CONTINUOUS
 62
7
 10
-1871.3731947183599
 20
2352.7222682412926
 30
0.0
 70
0
  0
VERTEX
  8
52
  6
CONTINUOUS
 62
7
 10
-1852.4922412659319
 20
2335.387055047855
 30
0.0
 70
0
  0
VERTEX
  8
52
  6
CONTINUOUS
 62
7
 10
-1849.786996987831
 20
2338.33351960658
 30
0.0
 70
0
  0
VERTEX
  8
52
  6
CONTINUOUS
 62
7
 10
-1868.6679504402493
 20
2355.6687328000135
 30
0.0
 70
0
  0
SEQEND
  8
0
  0
POLYLINE
  8
52
 62
5
 66
1
 10
0.0
 20
0.0
 30
0.0
 70
1
  0
VERTEX
  8
52
  6
CONTINUOUS
 62
7
 10
-1389.0079074559899
 20
2853.351618808948
 30
0.0
 70
0
  0
VERTEX
  8
52
  6
CONTINUOUS
 62
7
 10
-1389.6164805001213
 20
2838.498011654854
 30
0.0
 70
0
  0
VERTEX
  8
52
  6
CONTINUOUS
 62
7
 10
-1383.734766464801
 20
2821.022158307463
 30
0.0
 70
0
  0
VERTEX
  8
52
  6
CONTINUOUS
 62
7
 10
-1377.0851739731825
 20
2810.7858052376037
 30
0.0
 70
0
  0
VERTEX
  8
52
  6
CONTINUOUS
 62
7
 10
-1363.9452944021216
 20
2797.92720597445
 30
0.0
 70
0
  0
VERTEX
  8
52
  6
CONTINUOUS
 62
7
 10
-1345.9728595599604
 20
2786.351731920605
 30
0.0
 70
0
  0
VERTEX
  8
52
  6
CONTINUOUS
 62
7
 10
-1336.345079534232
 20
2778.1477172581303
 30
0.0
 70
0
  0
VERTEX
  8
52
  6
CONTINUOUS
 62
7
 10
-1328.7683031741078
 20
2767.5367575892337
 30
0.0
 70
0
  0
VERTEX
  8
52
  6
CONTINUOUS
 62
7
 10
-1325.9867515686376
 20
2766.41293779211
 30
0.0
 70
0
  0
VERTEX
  8
52
  6
CONTINUOUS
 62
7
 10
-1326.005416826864
 20
2761.027805251559
 30
0.0
 70
0
  0
VERTEX
  8
52
  6
CONTINUOUS
 62
7
 10
-1323.2238652213937
 20
2759.9039854544353
 30
0.0
 70
0
  0
VERTEX
  8
52
  6
CONTINUOUS
 62
7
 10
-1315.469118190861
 20
2747.06405144951
 30
0.0
 70
0
  0
VERTEX
  8
52
  6
CONTINUOUS
 62
7
 10
-1305.2887608956826
 20
2737.5582463194996
 30
0.0
 70
0
  0
VERTEX
  8
52
  6
CONTINUOUS
 62
7
 10
-1292.3081867367978
 20
2732.313753932912
 30
0.0
 70
0
  0
VERTEX
  8
52
  6
CONTINUOUS
 62
7
 10
-1282.2871348538001
 20
2730.4220556794808
 30
0.0
 70
0
  0
VERTEX
  8
52
  6
CONTINUOUS
 62
7
 10
-1256.8412332890266
 20
2732.0051264549197
 30
0.0
 70
0
  0
VERTEX
  8
52
  6
CONTINUOUS
 62
7
 10
-1238.9907733425966
 20
2738.8140243587236
 30
0.0
 70
0
  0
VERTEX
  8
52
  6
CONTINUOUS
 62
7
 10
-1224.6524129415052
 20
2750.2775068632195
 30
0.0
 70
0
  0
VERTEX
  8
52
  6
CONTINUOUS
 62
7
 10
-1212.8989682172528
 20
2766.020967369352
 30
0.0
 70
0
  0
VERTEX
  8
52
  6
CONTINUOUS
 62
7
 10
-1207.2798692316228
 20
2779.9287253967295
 30
0.0
 70
0
  0
VERTEX
  8
52
  6
CONTINUOUS
 62
7
 10
-1203.8897445820119
 20
2793.6585127536955
 30
0.0
 70
0
  0
VERTEX
  8
52
  6
CONTINUOUS
 62
7
 10
-1203.6184476204776
 20
2818.3552011203783
 30
0.0
 70
0
  0
VERTEX
  8
52
  6
CONTINUOUS
 62
7
 10
-1206.9152459789498
 20
2831.551076466129
 30
0.0
 70
0
  0
VERTEX
  8
52
  6
CONTINUOUS
 62
7
 10
-1210.0527389252393
 20
2837.1328449353014
 30
0.0
 70
0
  0
VERTEX
  8
52
  6
CONTINUOUS
 62
7
 10
-1332.4883234289657
 20
2926.5058181286645
 30
0.0
 70
0
  0
VERTEX
  8
52
  6
CONTINUOUS
 62
7
 10
-1354.047518849362
 20
2921.1953466210175
 30
0.0
 70
0
  0
VERTEX
  8
52
  6
CONTINUOUS
 62
7
 10
-1359.825923247174
 20
2914.901695470219
 30
0.0
 70
0
  0
VERTEX
  8
52
  6
CONTINUOUS
 62
7
 10
-1364.7144742929459
 20
2897.4631726392768
 30
0.0
 70
0
  0
VERTEX
  8
52
  6
CONTINUOUS
 62
7
 10
-1366.0535952769264
 20
2886.140330288744
 30
0.0
 70
0
  0
VERTEX
  8
52
  6
CONTINUOUS
 62
7
 10
-1371.298087663514
 20
2873.159756129859
 30
0.0
 70
0
  0
VERTEX
  8
52
  6
CONTINUOUS
 62
7
 10
-1384.7092641961176
 20
2861.3216670263337
 30
0.0
 70
0
  0
SEQEND
  8
0
  0
POLYLINE
  8
52
 62
5
 66
1
 10
0.0
 20
0.0
 30
0.0
 70
1
  0
VERTEX
  8
52
  6
CONTINUOUS
 62
7
 10
-1173.4094469693487
 20
2884.669069316109
 30
0.0
 70
0
  0
VERTEX
  8
52
  6
CONTINUOUS
 62
7
 10
-1170.6122593246432
 20
2881.809743997036
 30
0.0
 70
0
  0
VERTEX
  8
52
  6
CONTINUOUS
 62
7
 10
-1158.1282666605325
 20
2894.0224396996036
 30
0.0
 70
0
  0
VERTEX
  8
52
  6
CONTINUOUS
 62
7
 10
-1160.9254543052339
 20
2896.8817650186857
 30
0.0
 70
0
  0
SEQEND
  8
0
  0
POLYLINE
  8
53
 62
5
 66
1
 10
0.0
 20
0.0
 30
0.0
 70
1
  0
VERTEX
  8
53
  6
CONTINUOUS
 62
7
 10
-2032.900785850684
 20
1935.2020041806586
 30
0.0
 70
0
  0
VERTEX
  8
53
  6
CONTINUOUS
 62
7
 10
-2035.5230320045955
 20
1928.711717198691
 30
0.0
 70
0
  0
VERTEX
  8
53
  6
CONTINUOUS
 62
7
 10
-2031.2134016773161
 20
1923.195641923444
 30
0.0
 70
0
  0
VERTEX
  8
53
  6
CONTINUOUS
 62
7
 10
-2024.2815251961263
 20
1924.169853630165
 30
0.0
 70
0
  0
VERTEX
  8
53
  6
CONTINUOUS
 62
7
 10
-2021.6592790422148
 20
1930.6601406121326
 30
0.0
 70
0
  0
VERTEX
  8
53
  6
CONTINUOUS
 62
7
 10
-2025.9689093694933
 20
1936.1762158873792
 30
0.0
 70
0
  0
SEQEND
  8
0
  0
POLYLINE
  8
53
 62
5
 66
1
 10
0.0
 20
0.0
 30
0.0
 70
1
  0
VERTEX
  8
53
  6
CONTINUOUS
 62
7
 10
-2074.8567249433813
 20
1831.3574109095882
 30
0.0
 70
0
  0
VERTEX
  8
53
  6
CONTINUOUS
 62
7
 10
-2077.4789710972927
 20
1824.8671239276207
 30
0.0
 70
0
  0
VERTEX
  8
53
  6
CONTINUOUS
 62
7
 10
-2073.1693407700136
 20
1819.3510486523737
 30
0.0
 70
0
  0
VERTEX
  8
53
  6
CONTINUOUS
 62
7
 10
-2066.2374642888235
 20
1820.3252603590947
 30
0.0
 70
0
  0
VERTEX
  8
53
  6
CONTINUOUS
 62
7
 10
-2063.615218134912
 20
1826.8155473410623
 30
0.0
 70
0
  0
VERTEX
  8
53
  6
CONTINUOUS
 62
7
 10
-2067.9248484621908
 20
1832.3316226163088
 30
0.0
 70
0
  0
SEQEND
  8
0
  0
POLYLINE
  8
54
 62
5
 66
1
 10
0.0
 20
0.0
 30
0.0
 70
1
  0
VERTEX
  8
54
  6
CONTINUOUS
 62
7
 10
-1731.3549294210457
 20
2286.3070617147787
 30
0.0
 70
0
  0
VERTEX
  8
54
  6
CONTINUOUS
 62
7
 10
-1731.5515653496764
 20
2283.1509035102663
 30
0.0
 70
0
  0
VERTEX
  8
54
  6
CONTINUOUS
 62
7
 10
-1727.8428298757135
 20
2281.6524771141003
 30
0.0
 70
0
  0
VERTEX
  8
54
  6
CONTINUOUS
 62
7
 10
-1722.0830907361333
 20
2282.5609957243614
 30
0.0
 70
0
  0
VERTEX
  8
54
  6
CONTINUOUS
 62
7
 10
-1709.5990980720185
 20
2294.773691426939
 30
0.0
 70
0
  0
VERTEX
  8
54
  6
CONTINUOUS
 62
7
 10
-1708.4752782748947
 20
2297.5552430324087
 30
0.0
 70
0
  0
VERTEX
  8
54
  6
CONTINUOUS
 62
7
 10
-1709.5804328137865
 20
2300.1588239674757
 30
0.0
 70
0
  0
VERTEX
  8
54
  6
CONTINUOUS
 62
7
 10
-1711.4348005507727
 20
2300.908037165561
 30
0.0
 70
0
  0
VERTEX
  8
54
  6
CONTINUOUS
 62
7
 10
-1715.3401719533758
 20
2299.250305357218
 30
0.0
 70
0
  0
VERTEX
  8
54
  6
CONTINUOUS
 62
7
 10
-1725.5765250232391
 20
2292.6007128655906
 30
0.0
 70
0
  0
SEQEND
  8
0
  0
POLYLINE
  8
54
 62
5
 66
1
 10
0.0
 20
0.0
 30
0.0
 70
1
  0
VERTEX
  8
54
  6
CONTINUOUS
 62
7
 10
-1240.4812262128864
 20
3474.0849583783684
 30
0.0
 70
0
  0
VERTEX
  8
54
  6
CONTINUOUS
 62
7
 10
-1244.5544155457053
 20
3460.146171181461
 30
0.0
 70
0
  0
VERTEX
  8
54
  6
CONTINUOUS
 62
7
 10
-1235.7571313844344
 20
3448.988919751496
 30
0.0
 70
0
  0
VERTEX
  8
54
  6
CONTINUOUS
 62
7
 10
-1224.3191319391833
 20
3444.3676680045264
 30
0.0
 70
0
  0
VERTEX
  8
54
  6
CONTINUOUS
 62
7
 10
-1212.567490215174
 20
3435.818237595065
 30
0.0
 70
0
  0
VERTEX
  8
54
  6
CONTINUOUS
 62
7
 10
-1205.4042059746557
 20
3425.321164986086
 30
0.0
 70
0
  0
VERTEX
  8
54
  6
CONTINUOUS
 62
7
 10
-1196.9205640921439
 20
3418.092092218614
 30
0.0
 70
0
  0
VERTEX
  8
54
  6
CONTINUOUS
 62
7
 10
-1195.49261495024
 20
3417.5151633161263
 30
0.0
 70
0
  0
VERTEX
  8
54
  6
CONTINUOUS
 62
7
 10
-1193.3773731296474
 20
3444.277216176172
 30
0.0
 70
0
  0
VERTEX
  8
54
  6
CONTINUOUS
 62
7
 10
-1193.1199402412458
 20
3444.4297978309924
 30
0.0
 70
0
  0
VERTEX
  8
54
  6
CONTINUOUS
 62
7
 10
-1195.427768662857
 20
3453.6412901039557
 30
0.0
 70
0
  0
VERTEX
  8
54
  6
CONTINUOUS
 62
7
 10
-1198.383843758704
 20
3452.9337313436063
 30
0.0
 70
0
  0
VERTEX
  8
54
  6
CONTINUOUS
 62
7
 10
-1206.082930773022
 20
3457.798368162788
 30
0.0
 70
0
  0
VERTEX
  8
54
  6
CONTINUOUS
 62
7
 10
-1213.8428000281688
 20
3466.110615334881
 30
0.0
 70
0
  0
VERTEX
  8
54
  6
CONTINUOUS
 62
7
 10
-1223.3298341975833
 20
3462.226146486361
 30
0.0
 70
0
  0
SEQEND
  8
0
  0
POLYLINE
  8
54
 62
5
 66
1
 10
0.0
 20
0.0
 30
0.0
 70
1
  0
VERTEX
  8
54
  6
CONTINUOUS
 62
7
 10
-1480.9531949798738
 20
3470.4688262776563
 30
0.0
 70
0
  0
VERTEX
  8
54
  6
CONTINUOUS
 62
7
 10
-1473.9569893642665
 20
3461.595812325926
 30
0.0
 70
0
  0
VERTEX
  8
54
  6
CONTINUOUS
 62
7
 10
-1460.917884261745
 20
3446.824024512228
 30
0.0
 70
0
  0
VERTEX
  8
54
  6
CONTINUOUS
 62
7
 10
-1450.1400636374929
 20
3440.5687728445
 30
0.0
 70
0
  0
VERTEX
  8
54
  6
CONTINUOUS
 62
7
 10
-1436.0942431717303
 20
3432.9931635347884
 30
0.0
 70
0
  0
VERTEX
  8
54
  6
CONTINUOUS
 62
7
 10
-1426.2902436472373
 20
3429.0320906088173
 30
0.0
 70
0
  0
VERTEX
  8
54
  6
CONTINUOUS
 62
7
 10
-1411.2377078182396
 20
3428.652659803105
 30
0.0
 70
0
  0
VERTEX
  8
54
  6
CONTINUOUS
 62
7
 10
-1388.9560992217828
 20
3436.756870879899
 30
0.0
 70
0
  0
VERTEX
  8
54
  6
CONTINUOUS
 62
7
 10
-1375.1910267713065
 20
3442.599797478427
 30
0.0
 70
0
  0
VERTEX
  8
54
  6
CONTINUOUS
 62
7
 10
-1356.5239545585837
 20
3446.462187613969
 30
0.0
 70
0
  0
VERTEX
  8
54
  6
CONTINUOUS
 62
7
 10
-1337.1967035248563
 20
3451.958577670257
 30
0.0
 70
0
  0
VERTEX
  8
54
  6
CONTINUOUS
 62
7
 10
-1323.7781676166205
 20
3452.239325685534
 30
0.0
 70
0
  0
VERTEX
  8
54
  6
CONTINUOUS
 62
7
 10
-1290.4050961171492
 20
3450.160106432117
 30
0.0
 70
0
  0
VERTEX
  8
54
  6
CONTINUOUS
 62
7
 10
-1279.5943812294117
 20
3453.3952120101426
 30
0.0
 70
0
  0
VERTEX
  8
54
  6
CONTINUOUS
 62
7
 10
-1266.4894875999307
 20
3457.6041386879215
 30
0.0
 70
0
  0
VERTEX
  8
54
  6
CONTINUOUS
 62
7
 10
-1250.7109844229876
 20
3477.839422294439
 30
0.0
 70
0
  0
VERTEX
  8
54
  6
CONTINUOUS
 62
7
 10
-1248.0302483144615
 20
3481.18561837724
 30
0.0
 70
0
  0
VERTEX
  8
54
  6
CONTINUOUS
 62
7
 10
-1257.710671841715
 20
3496.09672045827
 30
0.0
 70
0
  0
VERTEX
  8
54
  6
CONTINUOUS
 62
7
 10
-1282.4582723054216
 20
3507.960256685588
 30
0.0
 70
0
  0
VERTEX
  8
54
  6
CONTINUOUS
 62
7
 10
-1317.1132763993253
 20
3511.7902571852956
 30
0.0
 70
0
  0
VERTEX
  8
54
  6
CONTINUOUS
 62
7
 10
-1318.63888364966
 20
3492.3393421087408
 30
0.0
 70
0
  0
VERTEX
  8
54
  6
CONTINUOUS
 62
7
 10
-1323.527939353367
 20
3494.529889004065
 30
0.0
 70
0
  0
VERTEX
  8
54
  6
CONTINUOUS
 62
7
 10
-1326.9604921356427
 20
3516.2966391055306
 30
0.0
 70
0
  0
VERTEX
  8
54
  6
CONTINUOUS
 62
7
 10
-1332.101170989225
 20
3511.317403987495
 30
0.0
 70
0
  0
VERTEX
  8
54
  6
CONTINUOUS
 62
7
 10
-1337.5206773277876
 20
3513.2143512804746
 30
0.0
 70
0
  0
VERTEX
  8
54
  6
CONTINUOUS
 62
7
 10
-1351.8250804273075
 20
3493.631766789802
 30
0.0
 70
0
  0
VERTEX
  8
54
  6
CONTINUOUS
 62
7
 10
-1366.5027688545283
 20
3487.402902442745
 30
0.0
 70
0
  0
VERTEX
  8
54
  6
CONTINUOUS
 62
7
 10
-1393.576212605711
 20
3483.795890231381
 30
0.0
 70
0
  0
VERTEX
  8
54
  6
CONTINUOUS
 62
7
 10
-1390.505721668156
 20
3488.7964665736795
 30
0.0
 70
0
  0
VERTEX
  8
54
  6
CONTINUOUS
 62
7
 10
-1399.912389241847
 20
3492.802522903955
 30
0.0
 70
0
  0
VERTEX
  8
54
  6
CONTINUOUS
 62
7
 10
-1402.1781175511937
 20
3485.047637236937
 30
0.0
 70
0
  0
VERTEX
  8
54
  6
CONTINUOUS
 62
7
 10
-1420.4804517164491
 20
3488.3706698069946
 30
0.0
 70
0
  0
VERTEX
  8
54
  6
CONTINUOUS
 62
7
 10
-1425.257388842439
 20
3489.2646564423812
 30
0.0
 70
0
  0
VERTEX
  8
54
  6
CONTINUOUS
 62
7
 10
-1427.9420106892278
 20
3481.6770825984413
 30
0.0
 70
0
  0
VERTEX
  8
54
  6
CONTINUOUS
 62
7
 10
-1435.3098013904842
 20
3483.554764307041
 30
0.0
 70
0
  0
VERTEX
  8
54
  6
CONTINUOUS
 62
7
 10
-1432.4393121491262
 20
3490.6087276083254
 30
0.0
 70
0
  0
VERTEX
  8
54
  6
CONTINUOUS
 62
7
 10
-1425.257388842439
 20
3489.2646564423812
 30
0.0
 70
0
  0
VERTEX
  8
54
  6
CONTINUOUS
 62
7
 10
-1423.8819785557207
 20
3493.151992429241
 30
0.0
 70
0
  0
VERTEX
  8
54
  6
CONTINUOUS
 62
7
 10
-1448.0761432796116
 20
3502.8435444486613
 30
0.0
 70
0
  0
VERTEX
  8
54
  6
CONTINUOUS
 62
7
 10
-1454.5272306600946
 20
3486.6515524857796
 30
0.0
 70
0
  0
VERTEX
  8
54
  6
CONTINUOUS
 62
7
 10
-1458.956952432416
 20
3485.815101994153
 30
0.0
 70
0
  0
VERTEX
  8
54
  6
CONTINUOUS
 62
7
 10
-1475.3023312971623
 20
3482.354989828186
 30
0.0
 70
0
  0
VERTEX
  8
54
  6
CONTINUOUS
 62
7
 10
-1469.8999948646624
 20
3474.594682666585
 30
0.0
 70
0
  0
VERTEX
  8
54
  6
CONTINUOUS
 62
7
 10
-1458.9262450255846
 20
3470.4779501031508
 30
0.0
 70
0
  0
VERTEX
  8
54
  6
CONTINUOUS
 62
7
 10
-1448.2471974535492
 20
3473.390824741693
 30
0.0
 70
0
  0
VERTEX
  8
54
  6
CONTINUOUS
 62
7
 10
-1440.7301245327885
 20
3484.9361338425906
 30
0.0
 70
0
  0
VERTEX
  8
54
  6
CONTINUOUS
 62
7
 10
-1444.2124461479473
 20
3485.823603623606
 30
0.0
 70
0
  0
VERTEX
  8
54
  6
CONTINUOUS
 62
7
 10
-1444.1925771132205
 20
3488.4126808311657
 30
0.0
 70
0
  0
VERTEX
  8
54
  6
CONTINUOUS
 62
7
 10
-1439.2781454946983
 20
3487.16619692426
 30
0.0
 70
0
  0
VERTEX
  8
54
  6
CONTINUOUS
 62
7
 10
-1440.7301245327885
 20
3484.9361338425906
 30
0.0
 70
0
  0
VERTEX
  8
54
  6
CONTINUOUS
 62
7
 10
-1435.3098013904842
 20
3483.554764307041
 30
0.0
 70
0
  0
VERTEX
  8
54
  6
CONTINUOUS
 62
7
 10
-1440.2369000687227
 20
3471.4468724684834
 30
0.0
 70
0
  0
VERTEX
  8
54
  6
CONTINUOUS
 62
7
 10
-1459.6199462265643
 20
3463.238199536853
 30
0.0
 70
0
  0
VERTEX
  8
54
  6
CONTINUOUS
 62
7
 10
-1480.0952974551037
 20
3471.4768847980804
 30
0.0
 70
0
  0
SEQEND
  8
0
  0
POLYLINE
  8
54
 62
5
 66
1
 10
0.0
 20
0.0
 30
0.0
 70
1
  0
VERTEX
  8
54
  6
CONTINUOUS
 62
7
 10
-1965.250568920293
 20
3058.1476814722814
 30
0.0
 70
0
  0
VERTEX
  8
54
  6
CONTINUOUS
 62
7
 10
-1962.7334907499169
 20
3051.8102736757
 30
0.0
 70
0
  0
VERTEX
  8
54
  6
CONTINUOUS
 62
7
 10
-1974.659356054136
 20
3029.571776362518
 30
0.0
 70
0
  0
VERTEX
  8
54
  6
CONTINUOUS
 62
7
 10
-1972.8968809253315
 20
3026.436238443881
 30
0.0
 70
0
  0
VERTEX
  8
54
  6
CONTINUOUS
 62
7
 10
-1954.988670324039
 20
3000.193556921441
 30
0.0
 70
0
  0
VERTEX
  8
54
  6
CONTINUOUS
 62
7
 10
-1944.8710285207785
 20
2992.304305332974
 30
0.0
 70
0
  0
VERTEX
  8
54
  6
CONTINUOUS
 62
7
 10
-1926.5833871137645
 20
2981.1141596395278
 30
0.0
 70
0
  0
VERTEX
  8
54
  6
CONTINUOUS
 62
7
 10
-1913.5113877477645
 20
2975.8327290715633
 30
0.0
 70
0
  0
VERTEX
  8
54
  6
CONTINUOUS
 62
7
 10
-1897.4850308190262
 20
2973.1591195241017
 30
0.0
 70
0
  0
VERTEX
  8
54
  6
CONTINUOUS
 62
7
 10
-1887.681031294524
 20
2969.1980465981273
 30
0.0
 70
0
  0
VERTEX
  8
54
  6
CONTINUOUS
 62
7
 10
-1874.2953896497659
 20
2959.98843736767
 30
0.0
 70
0
  0
VERTEX
  8
54
  6
CONTINUOUS
 62
7
 10
-1865.8117477672577
 20
2952.759364600189
 30
0.0
 70
0
  0
VERTEX
  8
54
  6
CONTINUOUS
 62
7
 10
-1852.673959874295
 20
2966.4586485237114
 30
0.0
 70
0
  0
VERTEX
  8
54
  6
CONTINUOUS
 62
7
 10
-1844.1245294648334
 20
2978.210290247721
 30
0.0
 70
0
  0
VERTEX
  8
54
  6
CONTINUOUS
 62
7
 10
-1829.6992781933614
 20
2985.687216766997
 30
0.0
 70
0
  0
VERTEX
  8
54
  6
CONTINUOUS
 62
7
 10
-1824.1042053466385
 20
2994.8310374705047
 30
0.0
 70
0
  0
VERTEX
  8
54
  6
CONTINUOUS
 62
7
 10
-1815.2411326584083
 20
3002.6545005320177
 30
0.0
 70
0
  0
VERTEX
  8
54
  6
CONTINUOUS
 62
7
 10
-1811.280059732434
 20
3012.45850005652
 30
0.0
 70
0
  0
VERTEX
  8
54
  6
CONTINUOUS
 62
7
 10
-1808.2928079062228
 20
3024.5566783227696
 30
0.0
 70
0
  0
VERTEX
  8
54
  6
CONTINUOUS
 62
7
 10
-1804.3317349802487
 20
3034.3606778472713
 30
0.0
 70
0
  0
VERTEX
  8
54
  6
CONTINUOUS
 62
7
 10
-1801.3444831540278
 20
3046.4588561135174
 30
0.0
 70
0
  0
VERTEX
  8
54
  6
CONTINUOUS
 62
7
 10
-1802.9455888112952
 20
3056.6093921802562
 30
0.0
 70
0
  0
VERTEX
  8
54
  6
CONTINUOUS
 62
7
 10
-1807.8146943100737
 20
3068.0802858889792
 30
0.0
 70
0
  0
VERTEX
  8
54
  6
CONTINUOUS
 62
7
 10
-1857.3632936996562
 20
3124.2130795810663
 30
0.0
 70
0
  0
VERTEX
  8
54
  6
CONTINUOUS
 62
7
 10
-1869.0820411601937
 20
3142.2528672362755
 30
0.0
 70
0
  0
VERTEX
  8
54
  6
CONTINUOUS
 62
7
 10
-1880.1735040632043
 20
3152.436297566496
 30
0.0
 70
0
  0
VERTEX
  8
54
  6
CONTINUOUS
 62
7
 10
-1886.3629672039724
 20
3160.639191433721
 30
0.0
 70
0
  0
VERTEX
  8
54
  6
CONTINUOUS
 62
7
 10
-1894.186430265489
 20
3169.502264121942
 30
0.0
 70
0
  0
VERTEX
  8
54
  6
CONTINUOUS
 62
7
 10
-1894.3774062910893
 20
3169.7821202800988
 30
0.0
 70
0
  0
VERTEX
  8
54
  6
CONTINUOUS
 62
7
 10
-1924.9342515520298
 20
3120.5629409555145
 30
0.0
 70
0
  0
VERTEX
  8
54
  6
CONTINUOUS
 62
7
 10
-1947.8101265221624
 20
3085.277391034721
 30
0.0
 70
0
  0
VERTEX
  8
54
  6
CONTINUOUS
 62
7
 10
-1948.3430673198745
 20
3080.690801422293
 30
0.0
 70
0
  0
VERTEX
  8
54
  6
CONTINUOUS
 62
7
 10
-1951.4041735526396
 20
3079.278513643348
 30
0.0
 70
0
  0
VERTEX
  8
54
  6
CONTINUOUS
 62
7
 10
-1958.097353535215
 20
3062.10373232555
 30
0.0
 70
0
  0
SEQEND
  8
0
  0
POLYLINE
  8
54
 62
5
 66
1
 10
0.0
 20
0.0
 30
0.0
 70
1
  0
VERTEX
  8
54
  6
CONTINUOUS
 62
7
 10
-900.8439640983069
 20
2463.6946524037744
 30
0.0
 70
0
  0
VERTEX
  8
54
  6
CONTINUOUS
 62
7
 10
-899.955262073801
 20
2461.60100163683
 30
0.0
 70
0
  0
VERTEX
  8
54
  6
CONTINUOUS
 62
7
 10
-902.7347243049635
 20
2441.7329166834816
 30
0.0
 70
0
  0
VERTEX
  8
54
  6
CONTINUOUS
 62
7
 10
-898.7733006767946
 20
2441.178730037808
 30
0.0
 70
0
  0
VERTEX
  8
54
  6
CONTINUOUS
 62
7
 10
-895.8403376312044
 20
2462.144065814539
 30
0.0
 70
0
  0
VERTEX
  8
54
  6
CONTINUOUS
 62
7
 10
-897.161944684492
 20
2465.2575769177333
 30
0.0
 70
0
  0
SEQEND
  8
0
  0
POLYLINE
  8
54
 62
5
 66
1
 10
0.0
 20
0.0
 30
0.0
 70
1
  0
VERTEX
  8
54
  6
CONTINUOUS
 62
7
 10
-904.3714871760585
 20
2504.6929939264637
 30
0.0
 70
0
  0
VERTEX
  8
54
  6
CONTINUOUS
 62
7
 10
-906.9510712404584
 20
2495.491057569427
 30
0.0
 70
0
  0
VERTEX
  8
54
  6
CONTINUOUS
 62
7
 10
-903.0995459208751
 20
2494.4113572810825
 30
0.0
 70
0
  0
VERTEX
  8
54
  6
CONTINUOUS
 62
7
 10
-900.790578939511
 20
2502.6479437549697
 30
0.0
 70
0
  0
VERTEX
  8
54
  6
CONTINUOUS
 62
7
 10
-893.6827451913223
 20
2510.0595592712853
 30
0.0
 70
0
  0
VERTEX
  8
54
  6
CONTINUOUS
 62
7
 10
-896.56971799546
 20
2512.8282029876514
 30
0.0
 70
0
  0
SEQEND
  8
0
  0
POLYLINE
  8
54
 62
5
 66
1
 10
0.0
 20
0.0
 30
0.0
 70
1
  0
VERTEX
  8
54
  6
CONTINUOUS
 62
7
 10
-923.7955719182436
 20
2651.372682804292
 30
0.0
 70
0
  0
VERTEX
  8
54
  6
CONTINUOUS
 62
7
 10
-927.1670313096223
 20
2643.0280279878634
 30
0.0
 70
0
  0
VERTEX
  8
54
  6
CONTINUOUS
 62
7
 10
-927.5789684251192
 20
2631.3305790382915
 30
0.0
 70
0
  0
VERTEX
  8
54
  6
CONTINUOUS
 62
7
 10
-923.7295927971932
 20
2616.832913225014
 30
0.0
 70
0
  0
VERTEX
  8
54
  6
CONTINUOUS
 62
7
 10
-912.2847755509329
 20
2597.1094202833756
 30
0.0
 70
0
  0
VERTEX
  8
54
  6
CONTINUOUS
 62
7
 10
-913.249289935875
 20
2586.7137618013267
 30
0.0
 70
0
  0
VERTEX
  8
54
  6
CONTINUOUS
 62
7
 10
-918.6904182511026
 20
2570.577029437933
 30
0.0
 70
0
  0
VERTEX
  8
54
  6
CONTINUOUS
 62
7
 10
-918.9057194379595
 20
2562.03573869287
 30
0.0
 70
0
  0
VERTEX
  8
54
  6
CONTINUOUS
 62
7
 10
-915.2343144804416
 20
2549.7670472156215
 30
0.0
 70
0
  0
VERTEX
  8
54
  6
CONTINUOUS
 62
7
 10
-906.1777769823864
 20
2537.479690480141
 30
0.0
 70
0
  0
VERTEX
  8
54
  6
CONTINUOUS
 62
7
 10
-862.7515658664839
 20
2478.561660519996
 30
0.0
 70
0
  0
VERTEX
  8
54
  6
CONTINUOUS
 62
7
 10
-873.4813425583058
 20
2503.8839618834263
 30
0.0
 70
0
  0
VERTEX
  8
54
  6
CONTINUOUS
 62
7
 10
-880.9680474983221
 20
2631.915223986178
 30
0.0
 70
0
  0
VERTEX
  8
54
  6
CONTINUOUS
 62
7
 10
-897.5481910868879
 20
2665.5577855207007
 30
0.0
 70
0
  0
VERTEX
  8
54
  6
CONTINUOUS
 62
7
 10
-903.5378915115327
 20
2672.4961563873653
 30
0.0
 70
0
  0
VERTEX
  8
54
  6
CONTINUOUS
 62
7
 10
-916.3407704538628
 20
2659.1460950930377
 30
0.0
 70
0
  0
SEQEND
  8
0
  0
POLYLINE
  8
54
 62
5
 66
1
 10
0.0
 20
0.0
 30
0.0
 70
1
  0
VERTEX
  8
54
  6
CONTINUOUS
 62
7
 10
-2013.4640766684934
 20
2543.731678681188
 30
0.0
 70
0
  0
VERTEX
  8
54
  6
CONTINUOUS
 62
7
 10
-2015.337109663702
 20
2539.095759338732
 30
0.0
 70
0
  0
VERTEX
  8
54
  6
CONTINUOUS
 62
7
 10
-2014.981168322891
 20
2534.6378106666875
 30
0.0
 70
0
  0
VERTEX
  8
54
  6
CONTINUOUS
 62
7
 10
-2011.1131274367426
 20
2525.525277393952
 30
0.0
 70
0
  0
VERTEX
  8
54
  6
CONTINUOUS
 62
7
 10
-2003.1617444775788
 20
2515.8415015935384
 30
0.0
 70
0
  0
VERTEX
  8
54
  6
CONTINUOUS
 62
7
 10
-1998.9004317341655
 20
2513.0412847298367
 30
0.0
 70
0
  0
VERTEX
  8
54
  6
CONTINUOUS
 62
7
 10
-1989.9845343900638
 20
2513.7531674114634
 30
0.0
 70
0
  0
VERTEX
  8
54
  6
CONTINUOUS
 62
7
 10
-1988.486107993894
 20
2517.461902885436
 30
0.0
 70
0
  0
VERTEX
  8
54
  6
CONTINUOUS
 62
7
 10
-1992.5321195504544
 20
2528.803410494191
 30
0.0
 70
0
  0
VERTEX
  8
54
  6
CONTINUOUS
 62
7
 10
-2001.0360797790586
 20
2539.7889767621364
 30
0.0
 70
0
  0
SEQEND
  8
0
  0
POLYLINE
  8
54
 62
5
 66
1
 10
0.0
 20
0.0
 30
0.0
 70
1
  0
VERTEX
  8
54
  6
CONTINUOUS
 62
7
 10
-1902.8231717090189
 20
2748.1713807276865
 30
0.0
 70
0
  0
VERTEX
  8
54
  6
CONTINUOUS
 62
7
 10
-1904.143627434781
 20
2742.2336709176852
 30
0.0
 70
0
  0
VERTEX
  8
54
  6
CONTINUOUS
 62
7
 10
-1901.9333183569843
 20
2737.026509047556
 30
0.0
 70
0
  0
VERTEX
  8
54
  6
CONTINUOUS
 62
7
 10
-1897.2973990145279
 20
2735.1534760523473
 30
0.0
 70
0
  0
VERTEX
  8
54
  6
CONTINUOUS
 62
7
 10
-1889.4866562093275
 20
2738.4689396690455
 30
0.0
 70
0
  0
VERTEX
  8
54
  6
CONTINUOUS
 62
7
 10
-1888.1662004835598
 20
2744.406649479033
 30
0.0
 70
0
  0
VERTEX
  8
54
  6
CONTINUOUS
 62
7
 10
-1891.4816641002576
 20
2752.217392284234
 30
0.0
 70
0
  0
VERTEX
  8
54
  6
CONTINUOUS
 62
7
 10
-1895.1903995742305
 20
2753.715818680404
 30
0.0
 70
0
  0
SEQEND
  8
0
  0
POLYLINE
  8
54
 62
5
 66
1
 10
0.0
 20
0.0
 30
0.0
 70
1
  0
VERTEX
  8
54
  6
CONTINUOUS
 62
7
 10
-2032.8502935275474
 20
2522.4437802223333
 30
0.0
 70
0
  0
VERTEX
  8
54
  6
CONTINUOUS
 62
7
 10
-2034.3487199237134
 20
2518.73504474837
 30
0.0
 70
0
  0
VERTEX
  8
54
  6
CONTINUOUS
 62
7
 10
-2031.033256307015
 20
2510.9243019431697
 30
0.0
 70
0
  0
VERTEX
  8
54
  6
CONTINUOUS
 62
7
 10
-2012.723545382261
 20
2489.5057466767266
 30
0.0
 70
0
  0
VERTEX
  8
54
  6
CONTINUOUS
 62
7
 10
-1995.9122608536863
 20
2464.378455936315
 30
0.0
 70
0
  0
VERTEX
  8
54
  6
CONTINUOUS
 62
7
 10
-1991.27634151123
 20
2462.505422941106
 30
0.0
 70
0
  0
VERTEX
  8
54
  6
CONTINUOUS
 62
7
 10
-1989.2253378456096
 20
2464.9123679475433
 30
0.0
 70
0
  0
VERTEX
  8
54
  6
CONTINUOUS
 62
7
 10
-1992.166194863265
 20
2473.6502946212368
 30
0.0
 70
0
  0
VERTEX
  8
54
  6
CONTINUOUS
 62
7
 10
-2007.872324852948
 20
2496.1740044265807
 30
0.0
 70
0
  0
VERTEX
  8
54
  6
CONTINUOUS
 62
7
 10
-2018.230652818539
 20
2507.9087838926107
 30
0.0
 70
0
  0
VERTEX
  8
54
  6
CONTINUOUS
 62
7
 10
-2021.9207230342793
 20
2514.7923428293184
 30
0.0
 70
0
  0
VERTEX
  8
54
  6
CONTINUOUS
 62
7
 10
-2027.8397675860392
 20
2521.4979310956137
 30
0.0
 70
0
  0
SEQEND
  8
0
  0
POLYLINE
  8
54
 62
5
 66
1
 10
0.0
 20
0.0
 30
0.0
 70
1
  0
VERTEX
  8
54
  6
CONTINUOUS
 62
7
 10
-981.7688713476481
 20
2748.1357797755054
 30
0.0
 70
0
  0
VERTEX
  8
54
  6
CONTINUOUS
 62
7
 10
-983.2859630020408
 20
2739.041911760992
 30
0.0
 70
0
  0
VERTEX
  8
54
  6
CONTINUOUS
 62
7
 10
-980.3451059843854
 20
2730.3039850872983
 30
0.0
 70
0
  0
VERTEX
  8
54
  6
CONTINUOUS
 62
7
 10
-975.9058225705637
 20
2725.2747938875677
 30
0.0
 70
0
  0
VERTEX
  8
54
  6
CONTINUOUS
 62
7
 10
-972.5903589538657
 20
2717.4640510823674
 30
0.0
 70
0
  0
VERTEX
  8
54
  6
CONTINUOUS
 62
7
 10
-973.3955679266276
 20
2699.454285723761
 30
0.0
 70
0
  0
VERTEX
  8
54
  6
CONTINUOUS
 62
7
 10
-969.7054977108871
 20
2692.570726787054
 30
0.0
 70
0
  0
VERTEX
  8
54
  6
CONTINUOUS
 62
7
 10
-956.1723462825516
 20
2686.024443932931
 30
0.0
 70
0
  0
VERTEX
  8
54
  6
CONTINUOUS
 62
7
 10
-949.1108166754364
 20
2687.4855398126424
 30
0.0
 70
0
  0
VERTEX
  8
54
  6
CONTINUOUS
 62
7
 10
-947.0598130098158
 20
2689.8924848190795
 30
0.0
 70
0
  0
VERTEX
  8
54
  6
CONTINUOUS
 62
7
 10
-922.8754398243021
 20
2694.8964556272354
 30
0.0
 70
0
  0
VERTEX
  8
54
  6
CONTINUOUS
 62
7
 10
-934.7606292753958
 20
2708.6640644217837
 30
0.0
 70
0
  0
VERTEX
  8
54
  6
CONTINUOUS
 62
7
 10
-950.3504690240662
 20
2705.320980336741
 30
0.0
 70
0
  0
VERTEX
  8
54
  6
CONTINUOUS
 62
7
 10
-942.4767564380695
 20
2717.6683034986427
 30
0.0
 70
0
  0
VERTEX
  8
54
  6
CONTINUOUS
 62
7
 10
-947.6967158191813
 20
2731.2098801551347
 30
0.0
 70
0
  0
VERTEX
  8
54
  6
CONTINUOUS
 62
7
 10
-961.4690363355169
 20
2763.633599473762
 30
0.0
 70
0
  0
VERTEX
  8
54
  6
CONTINUOUS
 62
7
 10
-960.4667299651521
 20
2779.909587193317
 30
0.0
 70
0
  0
VERTEX
  8
54
  6
CONTINUOUS
 62
7
 10
-961.4482907069729
 20
2781.344953462778
 30
0.0
 70
0
  0
VERTEX
  8
54
  6
CONTINUOUS
 62
7
 10
-975.4192244221596
 20
2758.512772999319
 30
0.0
 70
0
  0
SEQEND
  8
0
  0
POLYLINE
  8
54
 62
5
 66
1
 10
0.0
 20
0.0
 30
0.0
 70
1
  0
VERTEX
  8
54
  6
CONTINUOUS
 62
7
 10
-1817.9207334031148
 20
3134.497124976212
 30
0.0
 70
0
  0
VERTEX
  8
54
  6
CONTINUOUS
 62
7
 10
-1819.7937663983237
 20
3129.861205633755
 30
0.0
 70
0
  0
VERTEX
  8
54
  6
CONTINUOUS
 62
7
 10
-1817.2275159797105
 20
3120.196095091569
 30
0.0
 70
0
  0
VERTEX
  8
54
  6
CONTINUOUS
 62
7
 10
-1817.105541083983
 20
3101.811723133911
 30
0.0
 70
0
  0
VERTEX
  8
54
  6
CONTINUOUS
 62
7
 10
-1813.6867678297863
 20
3070.2314758305247
 30
0.0
 70
0
  0
VERTEX
  8
54
  6
CONTINUOUS
 62
7
 10
-1809.2661496741869
 20
3059.8171520902533
 30
0.0
 70
0
  0
VERTEX
  8
54
  6
CONTINUOUS
 62
7
 10
-1804.8268662603653
 20
3054.7879608905223
 30
0.0
 70
0
  0
VERTEX
  8
54
  6
CONTINUOUS
 62
7
 10
-1798.336579180923
 20
3052.165714697229
 30
0.0
 70
0
  0
VERTEX
  8
54
  6
CONTINUOUS
 62
7
 10
-1787.5663140998313
 20
3052.12838418078
 30
0.0
 70
0
  0
VERTEX
  8
54
  6
CONTINUOUS
 62
7
 10
-1770.8396739505292
 20
3056.1557304791045
 30
0.0
 70
0
  0
VERTEX
  8
54
  6
CONTINUOUS
 62
7
 10
-1728.667132236459
 20
3061.766147552881
 30
0.0
 70
0
  0
VERTEX
  8
54
  6
CONTINUOUS
 62
7
 10
-1716.0238341601585
 20
3066.3647363788887
 30
0.0
 70
0
  0
VERTEX
  8
54
  6
CONTINUOUS
 62
7
 10
-1714.132135906727
 20
3076.385788261886
 30
0.0
 70
0
  0
VERTEX
  8
54
  6
CONTINUOUS
 62
7
 10
-1716.2491186933948
 20
3108.518612834736
 30
0.0
 70
0
  0
VERTEX
  8
54
  6
CONTINUOUS
 62
7
 10
-1722.6274142234793
 20
3143.451654271279
 30
0.0
 70
0
  0
VERTEX
  8
54
  6
CONTINUOUS
 62
7
 10
-1750.854867393722
 20
3142.9924032929634
 30
0.0
 70
0
  0
VERTEX
  8
54
  6
CONTINUOUS
 62
7
 10
-1777.0499821565804
 20
3139.5549647805383
 30
0.0
 70
0
  0
VERTEX
  8
54
  6
CONTINUOUS
 62
7
 10
-1802.1212771223056
 20
3138.8990778735792
 30
0.0
 70
0
  0
SEQEND
  8
0
  0
POLYLINE
  8
54
 62
5
 66
1
 10
0.0
 20
0.0
 30
0.0
 70
1
  0
VERTEX
  8
54
  6
CONTINUOUS
 62
7
 10
-1910.0913205911475
 20
2794.249293844363
 30
0.0
 70
0
  0
VERTEX
  8
54
  6
CONTINUOUS
 62
7
 10
-1905.6520371773163
 20
2789.220102644629
 30
0.0
 70
0
  0
VERTEX
  8
54
  6
CONTINUOUS
 62
7
 10
-1901.5686951043112
 20
2788.648860116956
 30
0.0
 70
0
  0
VERTEX
  8
54
  6
CONTINUOUS
 62
7
 10
-1887.2489999614454
 20
2794.7272100809014
 30
0.0
 70
0
  0
VERTEX
  8
54
  6
CONTINUOUS
 62
7
 10
-1870.5223598121395
 20
2798.754556379235
 30
0.0
 70
0
  0
VERTEX
  8
54
  6
CONTINUOUS
 62
7
 10
-1848.0173152650216
 20
2809.075553828368
 30
0.0
 70
0
  0
VERTEX
  8
54
  6
CONTINUOUS
 62
7
 10
-1823.479932310515
 20
2816.4183637434
 30
0.0
 70
0
  0
VERTEX
  8
54
  6
CONTINUOUS
 62
7
 10
-1813.9927924387496
 20
2821.213588498036
 30
0.0
 70
0
  0
VERTEX
  8
54
  6
CONTINUOUS
 62
7
 10
-1809.141571909427
 20
2827.8818462478866
 30
0.0
 70
0
  0
VERTEX
  8
54
  6
CONTINUOUS
 62
7
 10
-1812.6536714547556
 20
2832.5364308485746
 30
0.0
 70
0
  0
VERTEX
  8
54
  6
CONTINUOUS
 62
7
 10
-1820.0711424026913
 20
2835.5332836409107
 30
0.0
 70
0
  0
VERTEX
  8
54
  6
CONTINUOUS
 62
7
 10
-1831.590620681855
 20
2833.7162464203793
 30
0.0
 70
0
  0
VERTEX
  8
54
  6
CONTINUOUS
 62
7
 10
-1906.916497128403
 20
2799.43779045627
 30
0.0
 70
0
  0
SEQEND
  8
0
  0
POLYLINE
  8
54
 62
5
 66
1
 10
0.0
 20
0.0
 30
0.0
 70
1
  0
VERTEX
  8
54
  6
CONTINUOUS
 62
7
 10
-1969.2118826842104
 20
2506.4390061010363
 30
0.0
 70
0
  0
VERTEX
  8
54
  6
CONTINUOUS
 62
7
 10
-1969.979761140518
 20
2499.199505823509
 30
0.0
 70
0
  0
VERTEX
  8
54
  6
CONTINUOUS
 62
7
 10
-1967.7694520627215
 20
2493.9923439533795
 30
0.0
 70
0
  0
VERTEX
  8
54
  6
CONTINUOUS
 62
7
 10
-1954.648237749877
 20
2475.7486121496718
 30
0.0
 70
0
  0
VERTEX
  8
54
  6
CONTINUOUS
 62
7
 10
-1950.939502275914
 20
2474.2501857535053
 30
0.0
 70
0
  0
VERTEX
  8
54
  6
CONTINUOUS
 62
7
 10
-1948.5138920112508
 20
2477.584314628436
 30
0.0
 70
0
  0
VERTEX
  8
54
  6
CONTINUOUS
 62
7
 10
-1955.144819244647
 20
2493.2058002388367
 30
0.0
 70
0
  0
VERTEX
  8
54
  6
CONTINUOUS
 62
7
 10
-1965.1285406111951
 20
2505.8677635733593
 30
0.0
 70
0
  0
SEQEND
  8
0
  0
POLYLINE
  8
54
 62
5
 66
1
 10
0.0
 20
0.0
 30
0.0
 70
1
  0
VERTEX
  8
54
  6
CONTINUOUS
 62
7
 10
-1060.2109049276023
 20
2873.965134512829
 30
0.0
 70
0
  0
VERTEX
  8
54
  6
CONTINUOUS
 62
7
 10
-1060.452767253515
 20
2859.568723410911
 30
0.0
 70
0
  0
VERTEX
  8
54
  6
CONTINUOUS
 62
7
 10
-1053.0985076027005
 20
2844.1429595816107
 30
0.0
 70
0
  0
VERTEX
  8
54
  6
CONTINUOUS
 62
7
 10
-1047.4922592487028
 20
2838.4977127328075
 30
0.0
 70
0
  0
VERTEX
  8
54
  6
CONTINUOUS
 62
7
 10
-1044.6540456399205
 20
2841.31631939407
 30
0.0
 70
0
  0
VERTEX
  8
54
  6
CONTINUOUS
 62
7
 10
-1049.7807318505472
 20
2846.4786681428
 30
0.0
 70
0
  0
VERTEX
  8
54
  6
CONTINUOUS
 62
7
 10
-1056.4375398646152
 20
2860.441507797328
 30
0.0
 70
0
  0
VERTEX
  8
54
  6
CONTINUOUS
 62
7
 10
-1056.211469300354
 20
2873.8979432666024
 30
0.0
 70
0
  0
SEQEND
  8
0
  0
POLYLINE
  8
54
 62
5
 66
1
 10
0.0
 20
0.0
 30
0.0
 70
1
  0
VERTEX
  8
54
  6
CONTINUOUS
 62
7
 10
-1958.5635924988499
 20
2524.786047542236
 30
0.0
 70
0
  0
VERTEX
  8
54
  6
CONTINUOUS
 62
7
 10
-1959.6874122959775
 20
2522.004495936757
 30
0.0
 70
0
  0
VERTEX
  8
54
  6
CONTINUOUS
 62
7
 10
-1954.3396102718816
 20
2511.215565597452
 30
0.0
 70
0
  0
VERTEX
  8
54
  6
CONTINUOUS
 62
7
 10
-1943.0354331795743
 20
2504.4913120729207
 30
0.0
 70
0
  0
VERTEX
  8
54
  6
CONTINUOUS
 62
7
 10
-1933.7635944946624
 20
2500.745246082503
 30
0.0
 70
0
  0
VERTEX
  8
54
  6
CONTINUOUS
 62
7
 10
-1930.7854069605519
 20
2502.777584489888
 30
0.0
 70
0
  0
VERTEX
  8
54
  6
CONTINUOUS
 62
7
 10
-1933.3703226373973
 20
2507.0575624915373
 30
0.0
 70
0
  0
VERTEX
  8
54
  6
CONTINUOUS
 62
7
 10
-1944.299893130661
 20
2514.7089998845618
 30
0.0
 70
0
  0
VERTEX
  8
54
  6
CONTINUOUS
 62
7
 10
-1950.7715149518717
 20
2522.716378618393
 30
0.0
 70
0
  0
SEQEND
  8
0
  0
POLYLINE
  8
54
 62
5
 66
1
 10
0.0
 20
0.0
 30
0.0
 70
1
  0
VERTEX
  8
54
  6
CONTINUOUS
 62
7
 10
-1326.5701521819592
 20
2223.0671284667724
 30
0.0
 70
0
  0
VERTEX
  8
54
  6
CONTINUOUS
 62
7
 10
-1327.5160013086747
 20
2218.056602525274
 30
0.0
 70
0
  0
VERTEX
  8
54
  6
CONTINUOUS
 62
7
 10
-1322.7207765540425
 20
2208.5694626534987
 30
0.0
 70
0
  0
VERTEX
  8
54
  6
CONTINUOUS
 62
7
 10
-1319.9392249485632
 20
2207.4456428563717
 30
0.0
 70
0
  0
VERTEX
  8
54
  6
CONTINUOUS
 62
7
 10
-1317.3356440134921
 20
2208.5507973952726
 30
0.0
 70
0
  0
VERTEX
  8
54
  6
CONTINUOUS
 62
7
 10
-1316.9423721562268
 20
2214.8631138043065
 30
0.0
 70
0
  0
VERTEX
  8
54
  6
CONTINUOUS
 62
7
 10
-1319.7052585034744
 20
2221.372066141972
 30
0.0
 70
0
  0
VERTEX
  8
54
  6
CONTINUOUS
 62
7
 10
-1323.9665712468975
 20
2224.1722830056774
 30
0.0
 70
0
  0
SEQEND
  8
0
  0
POLYLINE
  8
54
 62
5
 66
1
 10
0.0
 20
0.0
 30
0.0
 70
1
  0
VERTEX
  8
54
  6
CONTINUOUS
 62
7
 10
-2047.931359954148
 20
1975.2485952690922
 30
0.0
 70
0
  0
VERTEX
  8
54
  6
CONTINUOUS
 62
7
 10
-2049.251815679906
 20
1969.3108854591005
 30
0.0
 70
0
  0
VERTEX
  8
54
  6
CONTINUOUS
 62
7
 10
-2042.3869220014249
 20
1967.6158231342906
 30
0.0
 70
0
  0
VERTEX
  8
54
  6
CONTINUOUS
 62
7
 10
-2041.2631022042972
 20
1970.39737473977
 30
0.0
 70
0
  0
VERTEX
  8
54
  6
CONTINUOUS
 62
7
 10
-2042.92083401264
 20
1974.302746142373
 30
0.0
 70
0
  0
SEQEND
  8
0
  0
POLYLINE
  8
54
 62
5
 66
1
 10
0.0
 20
0.0
 30
0.0
 70
1
  0
VERTEX
  8
54
  6
CONTINUOUS
 62
7
 10
-1658.948641864907
 20
2121.157643008418
 30
0.0
 70
0
  0
VERTEX
  8
54
  6
CONTINUOUS
 62
7
 10
-1660.0724616620307
 20
2118.376091402948
 30
0.0
 70
0
  0
VERTEX
  8
54
  6
CONTINUOUS
 62
7
 10
-1657.309575314774
 20
2111.8671390652794
 30
0.0
 70
0
  0
VERTEX
  8
54
  6
CONTINUOUS
 62
7
 10
-1644.5629676009821
 20
2092.696223393082
 30
0.0
 70
0
  0
VERTEX
  8
54
  6
CONTINUOUS
 62
7
 10
-1623.6496757411655
 20
2072.382822665544
 30
0.0
 70
0
  0
VERTEX
  8
54
  6
CONTINUOUS
 62
7
 10
-1613.8252597868027
 20
2067.3349662075907
 30
0.0
 70
0
  0
VERTEX
  8
54
  6
CONTINUOUS
 62
7
 10
-1607.887549976811
 20
2066.0145104818325
 30
0.0
 70
0
  0
VERTEX
  8
54
  6
CONTINUOUS
 62
7
 10
-1605.8365463111904
 20
2068.4214554882697
 30
0.0
 70
0
  0
VERTEX
  8
54
  6
CONTINUOUS
 62
7
 10
-1613.2166867426713
 20
2082.1885733616846
 30
0.0
 70
0
  0
VERTEX
  8
54
  6
CONTINUOUS
 62
7
 10
-1652.0837481864219
 20
2119.4625806836175
 30
0.0
 70
0
  0
SEQEND
  8
0
  0
POLYLINE
  8
54
 62
5
 66
1
 10
0.0
 20
0.0
 30
0.0
 70
1
  0
VERTEX
  8
54
  6
CONTINUOUS
 62
7
 10
-1587.5449536173974
 20
3226.9710997342054
 30
0.0
 70
0
  0
VERTEX
  8
54
  6
CONTINUOUS
 62
7
 10
-1583.1018677522898
 20
3216.5038453880034
 30
0.0
 70
0
  0
VERTEX
  8
54
  6
CONTINUOUS
 62
7
 10
-1576.4709405188937
 20
3200.8823597776022
 30
0.0
 70
0
  0
VERTEX
  8
54
  6
CONTINUOUS
 62
7
 10
-1568.697528230148
 20
3193.4275583132217
 30
0.0
 70
0
  0
VERTEX
  8
54
  6
CONTINUOUS
 62
7
 10
-1557.5713218082494
 20
3188.932279124719
 30
0.0
 70
0
  0
VERTEX
  8
54
  6
CONTINUOUS
 62
7
 10
-1554.611799532362
 20
3185.579484991563
 30
0.0
 70
0
  0
VERTEX
  8
54
  6
CONTINUOUS
 62
7
 10
-1543.166982286102
 20
3165.8559920499247
 30
0.0
 70
0
  0
VERTEX
  8
54
  6
CONTINUOUS
 62
7
 10
-1528.56600683532
 20
3145.9358631796513
 30
0.0
 70
0
  0
VERTEX
  8
54
  6
CONTINUOUS
 62
7
 10
-1524.6793006909488
 20
3142.2084624474564
 30
0.0
 70
0
  0
VERTEX
  8
54
  6
CONTINUOUS
 62
7
 10
-1514.4802781375338
 20
3138.0877898579924
 30
0.0
 70
0
  0
VERTEX
  8
54
  6
CONTINUOUS
 62
7
 10
-1511.8766972024719
 20
3139.1929443968975
 30
0.0
 70
0
  0
VERTEX
  8
54
  6
CONTINUOUS
 62
7
 10
-1506.4542341454762
 20
3149.944544219754
 30
0.0
 70
0
  0
VERTEX
  8
54
  6
CONTINUOUS
 62
7
 10
-1507.3254222392889
 20
3166.474548440425
 30
0.0
 70
0
  0
VERTEX
  8
54
  6
CONTINUOUS
 62
7
 10
-1523.8654098063298
 20
3216.2985275475194
 30
0.0
 70
0
  0
VERTEX
  8
54
  6
CONTINUOUS
 62
7
 10
-1529.3538519843758
 20
3240.0866973039415
 30
0.0
 70
0
  0
VERTEX
  8
54
  6
CONTINUOUS
 62
7
 10
-1528.782609456693
 20
3244.170039376943
 30
0.0
 70
0
  0
VERTEX
  8
54
  6
CONTINUOUS
 62
7
 10
-1533.7404681942926
 20
3265.6585385649905
 30
0.0
 70
0
  0
VERTEX
  8
54
  6
CONTINUOUS
 62
7
 10
-1548.1138211860118
 20
3247.590229864064
 30
0.0
 70
0
  0
VERTEX
  8
54
  6
CONTINUOUS
 62
7
 10
-1557.3603063235914
 20
3242.803311016923
 30
0.0
 70
0
  0
VERTEX
  8
54
  6
CONTINUOUS
 62
7
 10
-1567.4781759983643
 20
3230.3515548868827
 30
0.0
 70
0
  0
SEQEND
  8
0
  0
POLYLINE
  8
54
 62
5
 66
1
 10
0.0
 20
0.0
 30
0.0
 70
1
  0
VERTEX
  8
54
  6
CONTINUOUS
 62
7
 10
-1157.3296337520255
 20
2930.6611837387536
 30
0.0
 70
0
  0
VERTEX
  8
54
  6
CONTINUOUS
 62
7
 10
-1160.3213731791132
 20
2921.6558778684393
 30
0.0
 70
0
  0
VERTEX
  8
54
  6
CONTINUOUS
 62
7
 10
-1148.9745829292765
 20
2915.0316350958606
 30
0.0
 70
0
  0
VERTEX
  8
54
  6
CONTINUOUS
 62
7
 10
-1142.9323470785343
 20
2915.6512619386685
 30
0.0
 70
0
  0
VERTEX
  8
54
  6
CONTINUOUS
 62
7
 10
-1143.1907941916606
 20
2916.7299628525916
 30
0.0
 70
0
  0
VERTEX
  8
54
  6
CONTINUOUS
 62
7
 10
-1140.1774208622364
 20
2915.933777596065
 30
0.0
 70
0
  0
VERTEX
  8
54
  6
CONTINUOUS
 62
7
 10
-1142.9323470785343
 20
2915.6512619386685
 30
0.0
 70
0
  0
VERTEX
  8
54
  6
CONTINUOUS
 62
7
 10
-1141.5650140367516
 20
2909.9443171639673
 30
0.0
 70
0
  0
VERTEX
  8
54
  6
CONTINUOUS
 62
7
 10
-1126.387972532476
 20
2922.5888692398435
 30
0.0
 70
0
  0
VERTEX
  8
54
  6
CONTINUOUS
 62
7
 10
-1138.1048416093872
 20
2929.984542314982
 30
0.0
 70
0
  0
VERTEX
  8
54
  6
CONTINUOUS
 62
7
 10
-1140.4165888418065
 20
2924.1707173474365
 30
0.0
 70
0
  0
SEQEND
  8
0
  0
POLYLINE
  8
54
 62
5
 66
1
 10
0.0
 20
0.0
 30
0.0
 70
1
  0
VERTEX
  8
54
  6
CONTINUOUS
 62
7
 10
-1324.3589697994034
 20
2914.593067992226
 30
0.0
 70
0
  0
VERTEX
  8
54
  6
CONTINUOUS
 62
7
 10
-1331.1018885821609
 20
2897.903758359369
 30
0.0
 70
0
  0
VERTEX
  8
54
  6
CONTINUOUS
 62
7
 10
-1331.1578843568286
 20
2881.7483607377453
 30
0.0
 70
0
  0
VERTEX
  8
54
  6
CONTINUOUS
 62
7
 10
-1327.1118728002816
 20
2870.406853128985
 30
0.0
 70
0
  0
VERTEX
  8
54
  6
CONTINUOUS
 62
7
 10
-1326.399990118645
 20
2861.4909557848796
 30
0.0
 70
0
  0
VERTEX
  8
54
  6
CONTINUOUS
 62
7
 10
-1320.6962467537426
 20
2846.2440767735206
 30
0.0
 70
0
  0
VERTEX
  8
54
  6
CONTINUOUS
 62
7
 10
-1314.599231531565
 20
2837.309514171193
 30
0.0
 70
0
  0
VERTEX
  8
54
  6
CONTINUOUS
 62
7
 10
-1286.4517197676316
 20
2819.248117489101
 30
0.0
 70
0
  0
VERTEX
  8
54
  6
CONTINUOUS
 62
7
 10
-1238.523056955781
 20
2829.1650017409183
 30
0.0
 70
0
  0
VERTEX
  8
54
  6
CONTINUOUS
 62
7
 10
-1142.3739901616746
 20
2909.2703293688605
 30
0.0
 70
0
  0
VERTEX
  8
54
  6
CONTINUOUS
 62
7
 10
-1164.143094298013
 20
2911.2366451421567
 30
0.0
 70
0
  0
VERTEX
  8
54
  6
CONTINUOUS
 62
7
 10
-1190.5482945584029
 20
2905.91801639297
 30
0.0
 70
0
  0
VERTEX
  8
54
  6
CONTINUOUS
 62
7
 10
-1195.4939842280064
 20
2907.796879352557
 30
0.0
 70
0
  0
VERTEX
  8
54
  6
CONTINUOUS
 62
7
 10
-1194.4339891905893
 20
2910.1585098622777
 30
0.0
 70
0
  0
VERTEX
  8
54
  6
CONTINUOUS
 62
7
 10
-1183.7245090048414
 20
2912.8533323520624
 30
0.0
 70
0
  0
VERTEX
  8
54
  6
CONTINUOUS
 62
7
 10
-1184.228581170251
 20
2921.147677715802
 30
0.0
 70
0
  0
VERTEX
  8
54
  6
CONTINUOUS
 62
7
 10
-1175.297556399766
 20
2924.0098261608755
 30
0.0
 70
0
  0
VERTEX
  8
54
  6
CONTINUOUS
 62
7
 10
-1175.2276272548181
 20
2924.4984579297407
 30
0.0
 70
0
  0
VERTEX
  8
54
  6
CONTINUOUS
 62
7
 10
-1216.1683219655247
 20
2978.21158365552
 30
0.0
 70
0
  0
VERTEX
  8
54
  6
CONTINUOUS
 62
7
 10
-1235.2181343407754
 20
3023.0970380285908
 30
0.0
 70
0
  0
VERTEX
  8
54
  6
CONTINUOUS
 62
7
 10
-1244.5762799774304
 20
3056.0005211433518
 30
0.0
 70
0
  0
VERTEX
  8
54
  6
CONTINUOUS
 62
7
 10
-1243.2766260181036
 20
3065.2957490875797
 30
0.0
 70
0
  0
VERTEX
  8
54
  6
CONTINUOUS
 62
7
 10
-1251.2633691233998
 20
3055.469020228282
 30
0.0
 70
0
  0
VERTEX
  8
54
  6
CONTINUOUS
 62
7
 10
-1268.4206116464256
 20
3034.359092439835
 30
0.0
 70
0
  0
VERTEX
  8
54
  6
CONTINUOUS
 62
7
 10
-1274.4143172310983
 20
3019.524150543964
 30
0.0
 70
0
  0
VERTEX
  8
54
  6
CONTINUOUS
 62
7
 10
-1277.4485005398797
 20
3001.3364145149462
 30
0.0
 70
0
  0
VERTEX
  8
54
  6
CONTINUOUS
 62
7
 10
-1282.6929929264672
 20
2988.355840356062
 30
0.0
 70
0
  0
VERTEX
  8
54
  6
CONTINUOUS
 62
7
 10
-1303.2590253573262
 20
2948.1309926701074
 30
0.0
 70
0
  0
SEQEND
  8
0
  0
POLYLINE
  8
54
 62
5
 66
1
 10
0.0
 20
0.0
 30
0.0
 70
1
  0
VERTEX
  8
54
  6
CONTINUOUS
 62
7
 10
-1223.7590833878166
 20
3222.3148026827066
 30
0.0
 70
0
  0
VERTEX
  8
54
  6
CONTINUOUS
 62
7
 10
-1226.9002214564557
 20
3214.5402131442524
 30
0.0
 70
0
  0
VERTEX
  8
54
  6
CONTINUOUS
 62
7
 10
-1226.9216445831896
 20
3208.359405172137
 30
0.0
 70
0
  0
VERTEX
  8
54
  6
CONTINUOUS
 62
7
 10
-1223.4457798194542
 20
3200.1707809452246
 30
0.0
 70
0
  0
VERTEX
  8
54
  6
CONTINUOUS
 62
7
 10
-1219.7637604056433
 20
3201.733705459175
 30
0.0
 70
0
  0
VERTEX
  8
54
  6
CONTINUOUS
 62
7
 10
-1222.9188228753128
 20
3209.166566842667
 30
0.0
 70
0
  0
VERTEX
  8
54
  6
CONTINUOUS
 62
7
 10
-1222.9029154855798
 20
3213.7560239516356
 30
0.0
 70
0
  0
VERTEX
  8
54
  6
CONTINUOUS
 62
7
 10
-1220.0503479695499
 20
3220.8163763090433
 30
0.0
 70
0
  0
SEQEND
  8
0
  0
POLYLINE
  8
54
 62
5
 66
1
 10
0.0
 20
0.0
 30
0.0
 70
1
  0
VERTEX
  8
54
  6
CONTINUOUS
 62
7
 10
-1881.6707076660614
 20
2314.682535516326
 30
0.0
 70
0
  0
VERTEX
  8
54
  6
CONTINUOUS
 62
7
 10
-1882.0639795233265
 20
2308.3702191072916
 30
0.0
 70
0
  0
VERTEX
  8
54
  6
CONTINUOUS
 62
7
 10
-1876.3229056419693
 20
2303.8936051770115
 30
0.0
 70
0
  0
VERTEX
  8
54
  6
CONTINUOUS
 62
7
 10
-1874.6651738336136
 20
2299.988233774414
 30
0.0
 70
0
  0
VERTEX
  8
54
  6
CONTINUOUS
 62
7
 10
-1842.485035397949
 20
2262.180314441257
 30
0.0
 70
0
  0
VERTEX
  8
54
  6
CONTINUOUS
 62
7
 10
-1833.409832641671
 20
2255.278090246318
 30
0.0
 70
0
  0
VERTEX
  8
54
  6
CONTINUOUS
 62
7
 10
-1829.3451558268885
 20
2249.321715178103
 30
0.0
 70
0
  0
VERTEX
  8
54
  6
CONTINUOUS
 62
7
 10
-1825.636420352916
 20
2247.823288781933
 30
0.0
 70
0
  0
VERTEX
  8
54
  6
CONTINUOUS
 62
7
 10
-1823.0515046760763
 20
2243.543310780297
 30
0.0
 70
0
  0
VERTEX
  8
54
  6
CONTINUOUS
 62
7
 10
-1813.4237246503476
 20
2235.339296117822
 30
0.0
 70
0
  0
VERTEX
  8
54
  6
CONTINUOUS
 62
7
 10
-1809.7149891763756
 20
2233.840869721652
 30
0.0
 70
0
  0
VERTEX
  8
54
  6
CONTINUOUS
 62
7
 10
-1804.5078273062425
 20
2236.0511787994583
 30
0.0
 70
0
  0
SEQEND
  8
0
  0
POLYLINE
  8
54
 62
5
 66
1
 10
0.0
 20
0.0
 30
0.0
 70
1
  0
VERTEX
  8
54
  6
CONTINUOUS
 62
7
 10
-1238.2691093556768
 20
3341.896064630037
 30
0.0
 70
0
  0
VERTEX
  8
54
  6
CONTINUOUS
 62
7
 10
-1234.854909935142
 20
3335.822020481026
 30
0.0
 70
0
  0
VERTEX
  8
54
  6
CONTINUOUS
 62
7
 10
-1226.9621605882949
 20
3331.424457748376
 30
0.0
 70
0
  0
VERTEX
  8
54
  6
CONTINUOUS
 62
7
 10
-1211.5618912482155
 20
3329.790983807598
 30
0.0
 70
0
  0
VERTEX
  8
54
  6
CONTINUOUS
 62
7
 10
-1205.8776758448644
 20
3332.2037900962314
 30
0.0
 70
0
  0
VERTEX
  8
54
  6
CONTINUOUS
 62
7
 10
-1207.4406003588233
 20
3335.885809510046
 30
0.0
 70
0
  0
VERTEX
  8
54
  6
CONTINUOUS
 62
7
 10
-1212.1707086957342
 20
3333.877997643077
 30
0.0
 70
0
  0
VERTEX
  8
54
  6
CONTINUOUS
 62
7
 10
-1225.7284404657696
 20
3335.3160375275424
 30
0.0
 70
0
  0
VERTEX
  8
54
  6
CONTINUOUS
 62
7
 10
-1231.9214198166992
 20
3338.766548116547
 30
0.0
 70
0
  0
VERTEX
  8
54
  6
CONTINUOUS
 62
7
 10
-1234.7822062887535
 20
3343.856040905883
 30
0.0
 70
0
  0
SEQEND
  8
0
  0
POLYLINE
  8
54
 62
5
 66
1
 10
0.0
 20
0.0
 30
0.0
 70
1
  0
VERTEX
  8
54
  6
CONTINUOUS
 62
7
 10
-1238.6250807514757
 20
3383.060741040755
 30
0.0
 70
0
  0
VERTEX
  8
54
  6
CONTINUOUS
 62
7
 10
-1243.4188057446338
 20
3371.195855331296
 30
0.0
 70
0
  0
VERTEX
  8
54
  6
CONTINUOUS
 62
7
 10
-1244.028894944925
 20
3361.403453462832
 30
0.0
 70
0
  0
VERTEX
  8
54
  6
CONTINUOUS
 62
7
 10
-1240.0366355720425
 20
3361.154726504849
 30
0.0
 70
0
  0
VERTEX
  8
54
  6
CONTINUOUS
 62
7
 10
-1239.4669092005156
 20
3370.299273863489
 30
0.0
 70
0
  0
VERTEX
  8
54
  6
CONTINUOUS
 62
7
 10
-1235.2700758166725
 20
3380.686800997818
 30
0.0
 70
0
  0
VERTEX
  8
54
  6
CONTINUOUS
 62
7
 10
-1222.212863173393
 20
3392.2124450260862
 30
0.0
 70
0
  0
VERTEX
  8
54
  6
CONTINUOUS
 62
7
 10
-1224.859940329558
 20
3395.211275219564
 30
0.0
 70
0
  0
SEQEND
  8
0
  0
POLYLINE
  8
54
 62
5
 66
1
 10
0.0
 20
0.0
 30
0.0
 70
1
  0
VERTEX
  8
54
  6
CONTINUOUS
 62
7
 10
-884.3718105540025
 20
2424.0299568795313
 30
0.0
 70
0
  0
VERTEX
  8
54
  6
CONTINUOUS
 62
7
 10
-885.330682591124
 20
2420.146586640104
 30
0.0
 70
0
  0
VERTEX
  8
54
  6
CONTINUOUS
 62
7
 10
-877.7191949738184
 20
2418.2671772129515
 30
0.0
 70
0
  0
VERTEX
  8
54
  6
CONTINUOUS
 62
7
 10
-870.1578638172474
 20
2422.320580859053
 30
0.0
 70
0
  0
VERTEX
  8
54
  6
CONTINUOUS
 62
7
 10
-872.0477240974909
 20
2425.845978442471
 30
0.0
 70
0
  0
VERTEX
  8
54
  6
CONTINUOUS
 62
7
 10
-878.2535108143476
 20
2422.5192416570862
 30
0.0
 70
0
  0
SEQEND
  8
0
  0
POLYLINE
  8
11
 62
5
 66
1
 10
0.0
 20
0.0
 30
0.0
 70
1
  0
VERTEX
  8
11
  6
CONTINUOUS
 62
7
 10
-983.8763159629484
 20
1229.3317674139262
 30
0.0
 70
0
  0
VERTEX
  8
11
  6
CONTINUOUS
 62
7
 10
-979.0064301754029
 20
1241.3851577043188
 30
0.0
 70
0
  0
VERTEX
  8
11
  6
CONTINUOUS
 62
7
 10
-969.8938969026672
 20
1245.2531985904666
 30
0.0
 70
0
  0
VERTEX
  8
11
  6
CONTINUOUS
 62
7
 10
-957.8405066122755
 20
1240.3833128029214
 30
0.0
 70
0
  0
VERTEX
  8
11
  6
CONTINUOUS
 62
7
 10
-953.4198884566756
 20
1229.9689890626516
 30
0.0
 70
0
  0
VERTEX
  8
11
  6
CONTINUOUS
 62
7
 10
-957.915167645179
 20
1218.8427826407512
 30
0.0
 70
0
  0
VERTEX
  8
11
  6
CONTINUOUS
 62
7
 10
-967.0277009179146
 20
1214.9747417546034
 30
0.0
 70
0
  0
VERTEX
  8
11
  6
CONTINUOUS
 62
7
 10
-980.0082750767994
 20
1220.219234141191
 30
0.0
 70
0
  0
SEQEND
  8
0
  0
POLYLINE
  8
11
 62
5
 66
1
 10
0.0
 20
0.0
 30
0.0
 70
1
  0
VERTEX
  8
11
  6
CONTINUOUS
 62
7
 10
-1140.1774208622364
 20
2915.933777596065
 30
0.0
 70
0
  0
VERTEX
  8
11
  6
CONTINUOUS
 62
7
 10
-1136.920406563087
 20
2916.267782017112
 30
0.0
 70
0
  0
VERTEX
  8
11
  6
CONTINUOUS
 62
7
 10
-1136.9632761726207
 20
2922.1101286025573
 30
0.0
 70
0
  0
VERTEX
  8
11
  6
CONTINUOUS
 62
7
 10
-1134.8045798330952
 20
2921.955175434595
 30
0.0
 70
0
  0
VERTEX
  8
11
  6
CONTINUOUS
 62
7
 10
-1134.794402141537
 20
2919.1998681902437
 30
0.0
 70
0
  0
VERTEX
  8
11
  6
CONTINUOUS
 62
7
 10
-1129.4571578636005
 20
2914.639228590418
 30
0.0
 70
0
  0
VERTEX
  8
11
  6
CONTINUOUS
 62
7
 10
-1132.8151041280819
 20
2913.9885264118293
 30
0.0
 70
0
  0
SEQEND
  8
0
  0
POLYLINE
  8
11
 62
5
 66
1
 10
0.0
 20
0.0
 30
0.0
 70
1
  0
VERTEX
  8
11
  6
CONTINUOUS
 62
7
 10
-1143.2601488340208
 20
2917.0194337435487
 30
0.0
 70
0
  0
VERTEX
  8
11
  6
CONTINUOUS
 62
7
 10
-1143.1907941916606
 20
2916.7299628525916
 30
0.0
 70
0
  0
VERTEX
  8
11
  6
CONTINUOUS
 62
7
 10
-1143.3577142373897
 20
2916.7740660103773
 30
0.0
 70
0
  0
SEQEND
  8
0
  0
POLYLINE
  8
11
 62
5
 66
1
 10
0.0
 20
0.0
 30
0.0
 70
1
  0
VERTEX
  8
11
  6
CONTINUOUS
 62
7
 10
-1144.6113662321568
 20
2922.659115396971
 30
0.0
 70
0
  0
VERTEX
  8
11
  6
CONTINUOUS
 62
7
 10
-1141.117372327245
 20
2922.4083133668346
 30
0.0
 70
0
  0
VERTEX
  8
11
  6
CONTINUOUS
 62
7
 10
-1140.4165888418065
 20
2924.1707173474365
 30
0.0
 70
0
  0
VERTEX
  8
11
  6
CONTINUOUS
 62
7
 10
-1136.9686873078012
 20
2922.8475677226406
 30
0.0
 70
0
  0
VERTEX
  8
11
  6
CONTINUOUS
 62
7
 10
-1136.9632761726207
 20
2922.1101286025573
 30
0.0
 70
0
  0
VERTEX
  8
11
  6
CONTINUOUS
 62
7
 10
-1141.117372327245
 20
2922.4083133668346
 30
0.0
 70
0
  0
VERTEX
  8
11
  6
CONTINUOUS
 62
7
 10
-1143.2601488340208
 20
2917.0194337435487
 30
0.0
 70
0
  0
SEQEND
  8
0
  0
POLYLINE
  8
11
 62
5
 66
1
 10
0.0
 20
0.0
 30
0.0
 70
1
  0
VERTEX
  8
11
  6
CONTINUOUS
 62
7
 10
-1402.1781175511937
 20
3485.047637236937
 30
0.0
 70
0
  0
VERTEX
  8
11
  6
CONTINUOUS
 62
7
 10
-1400.3805010344015
 20
3484.7212560125636
 30
0.0
 70
0
  0
VERTEX
  8
11
  6
CONTINUOUS
 62
7
 10
-1401.747565661116
 20
3478.0314308250063
 30
0.0
 70
0
  0
VERTEX
  8
11
  6
CONTINUOUS
 62
7
 10
-1404.3121428900572
 20
3477.7435300123143
 30
0.0
 70
0
  0
SEQEND
  8
0
  0
POLYLINE
  8
11
 62
5
 66
1
 10
0.0
 20
0.0
 30
0.0
 70
1
  0
VERTEX
  8
11
  6
CONTINUOUS
 62
7
 10
-1454.5272306600946
 20
3486.6515524857796
 30
0.0
 70
0
  0
VERTEX
  8
11
  6
CONTINUOUS
 62
7
 10
-1454.0519131218302
 20
3486.7413052081874
 30
0.0
 70
0
  0
VERTEX
  8
11
  6
CONTINUOUS
 62
7
 10
-1454.822796972358
 20
3485.909691917095
 30
0.0
 70
0
  0
SEQEND
  8
0
  0
POLYLINE
  8
1
 62
5
 66
1
 10
0.0
 20
0.0
 30
0.0
 70
1
  0
VERTEX
  8
1
  6
CONTINUOUS
 62
7
 10
-2343.91893420633
 20
2249.0390063817067
 30
0.0
 70
0
  0
VERTEX
  8
1
  6
CONTINUOUS
 62
7
 10
-2347.1236099726866
 20
2233.116712066174
 30
0.0
 70
0
  0
VERTEX
  8
1
  6
CONTINUOUS
 62
7
 10
-2343.035924312456
 20
2219.0078102695325
 30
0.0
 70
0
  0
VERTEX
  8
1
  6
CONTINUOUS
 62
7
 10
-2323.1065542218685
 20
2196.4345415433654
 30
0.0
 70
0
  0
VERTEX
  8
1
  6
CONTINUOUS
 62
7
 10
-2315.7513804200175
 20
2186.323047899029
 30
0.0
 70
0
  0
VERTEX
  8
1
  6
CONTINUOUS
 62
7
 10
-2310.0161564977598
 20
2172.818452916338
 30
0.0
 70
0
  0
VERTEX
  8
1
  6
CONTINUOUS
 62
7
 10
-2302.015460015039
 20
2169.5635713731876
 30
0.0
 70
0
  0
VERTEX
  8
1
  6
CONTINUOUS
 62
7
 10
-2222.320963982819
 20
2054.5486058281676
 30
0.0
 70
0
  0
VERTEX
  8
1
  6
CONTINUOUS
 62
7
 10
-2171.361773110013
 20
1962.261170332461
 30
0.0
 70
0
  0
VERTEX
  8
1
  6
CONTINUOUS
 62
7
 10
-2163.474063376515
 20
1935.8656778551754
 30
0.0
 70
0
  0
VERTEX
  8
1
  6
CONTINUOUS
 62
7
 10
-2155.9155644059533
 20
1927.2839428209868
 30
0.0
 70
0
  0
VERTEX
  8
1
  6
CONTINUOUS
 62
7
 10
-2156.0994501906603
 20
1919.0326590259547
 30
0.0
 70
0
  0
VERTEX
  8
1
  6
CONTINUOUS
 62
7
 10
-2150.2778613470286
 20
1908.7198768562635
 30
0.0
 70
0
  0
VERTEX
  8
1
  6
CONTINUOUS
 62
7
 10
-2137.474538505841
 20
1881.3975075499895
 30
0.0
 70
0
  0
VERTEX
  8
1
  6
CONTINUOUS
 62
7
 10
-2133.90473229265
 20
1877.3658704877707
 30
0.0
 70
0
  0
VERTEX
  8
1
  6
CONTINUOUS
 62
7
 10
-2131.3026961560945
 20
1867.7562836247355
 30
0.0
 70
0
  0
VERTEX
  8
1
  6
CONTINUOUS
 62
7
 10
-2132.8091106936795
 20
1863.9462919364973
 30
0.0
 70
0
  0
VERTEX
  8
1
  6
CONTINUOUS
 62
7
 10
-2128.369408374134
 20
1853.449841824182
 30
0.0
 70
0
  0
VERTEX
  8
1
  6
CONTINUOUS
 62
7
 10
-2128.0338689530663
 20
1849.0725621124627
 30
0.0
 70
0
  0
VERTEX
  8
1
  6
CONTINUOUS
 62
7
 10
-2121.783312272275
 20
1834.3820548935591
 30
0.0
 70
0
  0
VERTEX
  8
1
  6
CONTINUOUS
 62
7
 10
-2121.838009492928
 20
1818.4670792810775
 30
0.0
 70
0
  0
VERTEX
  8
1
  6
CONTINUOUS
 62
7
 10
-2097.4241059602095
 20
1798.2983467339857
 30
0.0
 70
0
  0
VERTEX
  8
1
  6
CONTINUOUS
 62
7
 10
-2069.960751150685
 20
1751.5340664475473
 30
0.0
 70
0
  0
VERTEX
  8
1
  6
CONTINUOUS
 62
7
 10
-2047.629616455028
 20
1688.9317064766599
 30
0.0
 70
0
  0
VERTEX
  8
1
  6
CONTINUOUS
 62
7
 10
-2028.3471521243393
 20
1660.6717416815886
 30
0.0
 70
0
  0
VERTEX
  8
1
  6
CONTINUOUS
 62
7
 10
-2027.9747442618102
 20
1642.912216026248
 30
0.0
 70
0
  0
VERTEX
  8
1
  6
CONTINUOUS
 62
7
 10
-2034.7162997621056
 20
1626.2200770251948
 30
0.0
 70
0
  0
VERTEX
  8
1
  6
CONTINUOUS
 62
7
 10
-2049.856865499675
 20
1617.0788475749187
 30
0.0
 70
0
  0
VERTEX
  8
1
  6
CONTINUOUS
 62
7
 10
-2078.6462108608844
 20
1614.7860167332658
 30
0.0
 70
0
  0
VERTEX
  8
1
  6
CONTINUOUS
 62
7
 10
-2107.762206062794
 20
1625.5667760872288
 30
0.0
 70
0
  0
VERTEX
  8
1
  6
CONTINUOUS
 62
7
 10
-2165.886868699943
 20
1637.595964100401
 30
0.0
 70
0
  0
VERTEX
  8
1
  6
CONTINUOUS
 62
7
 10
-2202.8475278398264
 20
1654.3435723689474
 30
0.0
 70
0
  0
VERTEX
  8
1
  6
CONTINUOUS
 62
7
 10
-2213.6000211316364
 20
1679.6755463061486
 30
0.0
 70
0
  0
VERTEX
  8
1
  6
CONTINUOUS
 62
7
 10
-2199.0706760522003
 20
1731.4922711731651
 30
0.0
 70
0
  0
VERTEX
  8
1
  6
CONTINUOUS
 62
7
 10
-2199.300039570187
 20
1752.7344057829027
 30
0.0
 70
0
  0
VERTEX
  8
1
  6
CONTINUOUS
 62
7
 10
-2204.3928626006127
 20
1772.0081914084994
 30
0.0
 70
0
  0
VERTEX
  8
1
  6
CONTINUOUS
 62
7
 10
-2212.677951556098
 20
1780.197179965513
 30
0.0
 70
0
  0
VERTEX
  8
1
  6
CONTINUOUS
 62
7
 10
-2224.003569156333
 20
1779.9324066943836
 30
0.0
 70
0
  0
VERTEX
  8
1
  6
CONTINUOUS
 62
7
 10
-2244.9403440055694
 20
1773.6537138576546
 30
0.0
 70
0
  0
VERTEX
  8
1
  6
CONTINUOUS
 62
7
 10
-2261.0964205017285
 20
1762.6269657702314
 30
0.0
 70
0
  0
VERTEX
  8
1
  6
CONTINUOUS
 62
7
 10
-2294.531364202288
 20
1748.4277813394792
 30
0.0
 70
0
  0
VERTEX
  8
1
  6
CONTINUOUS
 62
7
 10
-2298.518718729652
 20
1742.1222218531761
 30
0.0
 70
0
  0
VERTEX
  8
1
  6
CONTINUOUS
 62
7
 10
-2374.4531264145285
 20
1696.5545755032686
 30
0.0
 70
0
  0
VERTEX
  8
1
  6
CONTINUOUS
 62
7
 10
-2395.40683928932
 20
1702.547928982108
 30
0.0
 70
0
  0
VERTEX
  8
1
  6
CONTINUOUS
 62
7
 10
-2413.845125821448
 20
1691.6145338174142
 30
0.0
 70
0
  0
VERTEX
  8
1
  6
CONTINUOUS
 62
7
 10
-2418.681552565803
 20
1679.5830540132497
 30
0.0
 70
0
  0
VERTEX
  8
1
  6
CONTINUOUS
 62
7
 10
-2417.6746118819733
 20
1650.0986843877959
 30
0.0
 70
0
  0
VERTEX
  8
1
  6
CONTINUOUS
 62
7
 10
-2390.80257719914
 20
1617.9659558301478
 30
0.0
 70
0
  0
VERTEX
  8
1
  6
CONTINUOUS
 62
7
 10
-2394.4528819230713
 20
1591.9656120154737
 30
0.0
 70
0
  0
VERTEX
  8
1
  6
CONTINUOUS
 62
7
 10
-2416.514241495155
 20
1551.498820354394
 30
0.0
 70
0
  0
VERTEX
  8
1
  6
CONTINUOUS
 62
7
 10
-2416.2034417163263
 20
1536.2386026582517
 30
0.0
 70
0
  0
VERTEX
  8
1
  6
CONTINUOUS
 62
7
 10
-2398.4385955649755
 20
1516.1115929539587
 30
0.0
 70
0
  0
VERTEX
  8
1
  6
CONTINUOUS
 62
7
 10
-2386.3803243432967
 20
1496.8690956703103
 30
0.0
 70
0
  0
VERTEX
  8
1
  6
CONTINUOUS
 62
7
 10
-2384.9762604883526
 20
1457.5549096682412
 30
0.0
 70
0
  0
VERTEX
  8
1
  6
CONTINUOUS
 62
7
 10
-2368.414418660901
 20
1463.925577588765
 30
0.0
 70
0
  0
VERTEX
  8
1
  6
CONTINUOUS
 62
7
 10
-2371.980850971472
 20
1456.3153144314333
 30
0.0
 70
0
  0
VERTEX
  8
1
  6
CONTINUOUS
 62
7
 10
-2380.6297701525564
 20
1446.422997142293
 30
0.0
 70
0
  0
VERTEX
  8
1
  6
CONTINUOUS
 62
7
 10
-2381.4280148190687
 20
1443.6756834598505
 30
0.0
 70
0
  0
VERTEX
  8
1
  6
CONTINUOUS
 62
7
 10
-2375.4129483260026
 20
1422.698025732352
 30
0.0
 70
0
  0
VERTEX
  8
1
  6
CONTINUOUS
 62
7
 10
-2354.6127176825094
 20
1379.079516469018
 30
0.0
 70
0
  0
VERTEX
  8
1
  6
CONTINUOUS
 62
7
 10
-2348.517455742888
 20
1356.1043464628617
 30
0.0
 70
0
  0
VERTEX
  8
1
  6
CONTINUOUS
 62
7
 10
-2302.3828926908272
 20
1323.7964796980912
 30
0.0
 70
0
  0
VERTEX
  8
1
  6
CONTINUOUS
 62
7
 10
-2291.8696307073496
 20
1306.3879173653193
 30
0.0
 70
0
  0
VERTEX
  8
1
  6
CONTINUOUS
 62
7
 10
-2288.1853893257457
 20
1236.461934550657
 30
0.0
 70
0
  0
VERTEX
  8
1
  6
CONTINUOUS
 62
7
 10
-2272.596774226301
 20
1190.459454337646
 30
0.0
 70
0
  0
VERTEX
  8
1
  6
CONTINUOUS
 62
7
 10
-2264.555250283167
 20
1185.263217392899
 30
0.0
 70
0
  0
VERTEX
  8
1
  6
CONTINUOUS
 62
7
 10
-2252.9104891742872
 20
1195.4045023942094
 30
0.0
 70
0
  0
VERTEX
  8
1
  6
CONTINUOUS
 62
7
 10
-2236.289504488314
 20
1207.8003112294004
 30
0.0
 70
0
  0
VERTEX
  8
1
  6
CONTINUOUS
 62
7
 10
-2234.369897081172
 20
1212.4388548413374
 30
0.0
 70
0
  0
VERTEX
  8
1
  6
CONTINUOUS
 62
7
 10
-2228.1915989675417
 20
1210.3173050237954
 30
0.0
 70
0
  0
VERTEX
  8
1
  6
CONTINUOUS
 62
7
 10
-2221.214992298502
 20
1215.175016289562
 30
0.0
 70
0
  0
VERTEX
  8
1
  6
CONTINUOUS
 62
7
 10
-2218.193627684111
 20
1222.9589744944435
 30
0.0
 70
0
  0
VERTEX
  8
1
  6
CONTINUOUS
 62
7
 10
-2209.144352542592
 20
1234.3851589669268
 30
0.0
 70
0
  0
VERTEX
  8
1
  6
CONTINUOUS
 62
7
 10
-2205.5263379529056
 20
1219.8566454006618
 30
0.0
 70
0
  0
VERTEX
  8
1
  6
CONTINUOUS
 62
7
 10
-2210.4633393541662
 20
1208.4688242835196
 30
0.0
 70
0
  0
VERTEX
  8
1
  6
CONTINUOUS
 62
7
 10
-2196.689847031257
 20
1216.4714501755639
 30
0.0
 70
0
  0
VERTEX
  8
1
  6
CONTINUOUS
 62
7
 10
-2186.92922672386
 20
1204.8233483194913
 30
0.0
 70
0
  0
VERTEX
  8
1
  6
CONTINUOUS
 62
7
 10
-2179.9033049046143
 20
1117.173915853064
 30
0.0
 70
0
  0
VERTEX
  8
1
  6
CONTINUOUS
 62
7
 10
-2153.2958419141605
 20
1116.2490338828925
 30
0.0
 70
0
  0
VERTEX
  8
1
  6
CONTINUOUS
 62
7
 10
-2131.7998541476313
 20
1132.3137731711818
 30
0.0
 70
0
  0
VERTEX
  8
1
  6
CONTINUOUS
 62
7
 10
-2126.1940423915817
 20
1146.2189484671399
 30
0.0
 70
0
  0
VERTEX
  8
1
  6
CONTINUOUS
 62
7
 10
-2127.2006840032636
 20
1231.8108857590573
 30
0.0
 70
0
  0
VERTEX
  8
1
  6
CONTINUOUS
 62
7
 10
-2120.7639680123275
 20
1274.4041989115105
 30
0.0
 70
0
  0
VERTEX
  8
1
  6
CONTINUOUS
 62
7
 10
-2108.404600525117
 20
1307.442746617418
 30
0.0
 70
0
  0
VERTEX
  8
1
  6
CONTINUOUS
 62
7
 10
-2102.1088001489306
 20
1304.7004349161016
 30
0.0
 70
0
  0
VERTEX
  8
1
  6
CONTINUOUS
 62
7
 10
-2087.7955827531114
 20
1310.8292525415811
 30
0.0
 70
0
  0
VERTEX
  8
1
  6
CONTINUOUS
 62
7
 10
-2095.221054227498
 20
1291.8741462694288
 30
0.0
 70
0
  0
VERTEX
  8
1
  6
CONTINUOUS
 62
7
 10
-2089.137041409924
 20
1277.8516863537925
 30
0.0
 70
0
  0
VERTEX
  8
1
  6
CONTINUOUS
 62
7
 10
-2085.8651143858733
 20
1264.7306219537795
 30
0.0
 70
0
  0
VERTEX
  8
1
  6
CONTINUOUS
 62
7
 10
-2059.570233595617
 20
1177.5037599289633
 30
0.0
 70
0
  0
VERTEX
  8
1
  6
CONTINUOUS
 62
7
 10
-2036.3800328040315
 20
1168.147444956877
 30
0.0
 70
0
  0
VERTEX
  8
1
  6
CONTINUOUS
 62
7
 10
-2031.2121889944065
 20
1165.068093860319
 30
0.0
 70
0
  0
VERTEX
  8
1
  6
CONTINUOUS
 62
7
 10
-1977.2290799998052
 20
1138.2722018717827
 30
0.0
 70
0
  0
VERTEX
  8
1
  6
CONTINUOUS
 62
7
 10
-1952.0579105273252
 20
1109.7561232494236
 30
0.0
 70
0
  0
VERTEX
  8
1
  6
CONTINUOUS
 62
7
 10
-1936.8324689502704
 20
1080.8350653625805
 30
0.0
 70
0
  0
VERTEX
  8
1
  6
CONTINUOUS
 62
7
 10
-1931.3701895633912
 20
1038.545137658441
 30
0.0
 70
0
  0
VERTEX
  8
1
  6
CONTINUOUS
 62
7
 10
-1914.987586458988
 20
1006.9403997295306
 30
0.0
 70
0
  0
VERTEX
  8
1
  6
CONTINUOUS
 62
7
 10
-1894.5225827339098
 20
958.7480374820675
 30
0.0
 70
0
  0
VERTEX
  8
1
  6
CONTINUOUS
 62
7
 10
-1885.449014463757
 20
951.854967177674
 30
0.0
 70
0
  0
VERTEX
  8
1
  6
CONTINUOUS
 62
7
 10
-1815.5574949568504
 20
883.8601892461586
 30
0.0
 70
0
  0
VERTEX
  8
1
  6
CONTINUOUS
 62
7
 10
-1803.846655147506
 20
886.6595979952938
 30
0.0
 70
0
  0
VERTEX
  8
1
  6
CONTINUOUS
 62
7
 10
-1771.775173507083
 20
910.2530001637451
 30
0.0
 70
0
  0
VERTEX
  8
1
  6
CONTINUOUS
 62
7
 10
-1725.8454480787586
 20
946.2251660630693
 30
0.0
 70
0
  0
VERTEX
  8
1
  6
CONTINUOUS
 62
7
 10
-1706.1311636005876
 20
976.2239150625564
 30
0.0
 70
0
  0
VERTEX
  8
1
  6
CONTINUOUS
 62
7
 10
-1682.9455702472892
 20
994.0411984484874
 30
0.0
 70
0
  0
VERTEX
  8
1
  6
CONTINUOUS
 62
7
 10
-1664.056962936668
 20
1003.7037296156876
 30
0.0
 70
0
  0
VERTEX
  8
1
  6
CONTINUOUS
 62
7
 10
-1657.5306526414008
 20
1001.0922612050425
 30
0.0
 70
0
  0
VERTEX
  8
1
  6
CONTINUOUS
 62
7
 10
-1626.5636884005244
 20
1011.5583015180459
 30
0.0
 70
0
  0
VERTEX
  8
1
  6
CONTINUOUS
 62
7
 10
-1612.8521408717022
 20
1012.6584691225737
 30
0.0
 70
0
  0
VERTEX
  8
1
  6
CONTINUOUS
 62
7
 10
-1608.6897163887875
 20
1022.9026463345629
 30
0.0
 70
0
  0
VERTEX
  8
1
  6
CONTINUOUS
 62
7
 10
-1603.4501352975672
 20
1026.5765004222692
 30
0.0
 70
0
  0
VERTEX
  8
1
  6
CONTINUOUS
 62
7
 10
-1589.0081414606504
 20
1020.7740959252285
 30
0.0
 70
0
  0
VERTEX
  8
1
  6
CONTINUOUS
 62
7
 10
-1593.904710722957
 20
1008.5896210025436
 30
0.0
 70
0
  0
VERTEX
  8
1
  6
CONTINUOUS
 62
7
 10
-1585.6829066820585
 20
989.4086733887376
 30
0.0
 70
0
  0
VERTEX
  8
1
  6
CONTINUOUS
 62
7
 10
-1590.9753240435416
 20
958.6960907066098
 30
0.0
 70
0
  0
VERTEX
  8
1
  6
CONTINUOUS
 62
7
 10
-1598.9770988723237
 20
953.6120367871665
 30
0.0
 70
0
  0
VERTEX
  8
1
  6
CONTINUOUS
 62
7
 10
-1636.0407373211128
 20
889.9874738755473
 30
0.0
 70
0
  0
VERTEX
  8
1
  6
CONTINUOUS
 62
7
 10
-1635.5938054710712
 20
822.868650440066
 30
0.0
 70
0
  0
VERTEX
  8
1
  6
CONTINUOUS
 62
7
 10
-1630.696612721128
 20
789.6197764352171
 30
0.0
 70
0
  0
VERTEX
  8
1
  6
CONTINUOUS
 62
7
 10
-1624.6246942647585
 20
775.308831629299
 30
0.0
 70
0
  0
VERTEX
  8
1
  6
CONTINUOUS
 62
7
 10
-1610.207658631331
 20
757.6152083512036
 30
0.0
 70
0
  0
VERTEX
  8
1
  6
CONTINUOUS
 62
7
 10
-1573.203811286219
 20
742.6307074382532
 30
0.0
 70
0
  0
VERTEX
  8
1
  6
CONTINUOUS
 62
7
 10
-1566.151527598995
 20
744.0135302793707
 30
0.0
 70
0
  0
VERTEX
  8
1
  6
CONTINUOUS
 62
7
 10
-1561.2955582606096
 20
751.4354475580809
 30
0.0
 70
0
  0
VERTEX
  8
1
  6
CONTINUOUS
 62
7
 10
-1558.9800883127014
 20
751.5817389536625
 30
0.0
 70
0
  0
VERTEX
  8
1
  6
CONTINUOUS
 62
7
 10
-1545.9399058959696
 20
788.7395025760588
 30
0.0
 70
0
  0
VERTEX
  8
1
  6
CONTINUOUS
 62
7
 10
-1520.1010044990965
 20
799.6809377314279
 30
0.0
 70
0
  0
VERTEX
  8
1
  6
CONTINUOUS
 62
7
 10
-1470.8330970554082
 20
790.3704471788255
 30
0.0
 70
0
  0
VERTEX
  8
1
  6
CONTINUOUS
 62
7
 10
-1450.0610006920583
 20
793.9354225573042
 30
0.0
 70
0
  0
VERTEX
  8
1
  6
CONTINUOUS
 62
7
 10
-1402.8468409695492
 20
843.111789162883
 30
0.0
 70
0
  0
VERTEX
  8
1
  6
CONTINUOUS
 62
7
 10
-1399.1812212315115
 20
850.2521999611793
 30
0.0
 70
0
  0
VERTEX
  8
1
  6
CONTINUOUS
 62
7
 10
-1395.4948119202788
 20
848.9626663123302
 30
0.0
 70
0
  0
VERTEX
  8
1
  6
CONTINUOUS
 62
7
 10
-1382.0765297655528
 20
864.9415769923082
 30
0.0
 70
0
  0
VERTEX
  8
1
  6
CONTINUOUS
 62
7
 10
-1377.5590899426793
 20
863.1973553296136
 30
0.0
 70
0
  0
VERTEX
  8
1
  6
CONTINUOUS
 62
7
 10
-1380.617728408676
 20
846.1973019624304
 30
0.0
 70
0
  0
VERTEX
  8
1
  6
CONTINUOUS
 62
7
 10
-1361.5044863182518
 20
841.625177591328
 30
0.0
 70
0
  0
VERTEX
  8
1
  6
CONTINUOUS
 62
7
 10
-1355.7943777927724
 20
844.7669319891535
 30
0.0
 70
0
  0
VERTEX
  8
1
  6
CONTINUOUS
 62
7
 10
-1353.917616540296
 20
843.9035614779509
 30
0.0
 70
0
  0
VERTEX
  8
1
  6
CONTINUOUS
 62
7
 10
-1339.086832272622
 20
838.9427372339517
 30
0.0
 70
0
  0
VERTEX
  8
1
  6
CONTINUOUS
 62
7
 10
-1328.4274818805575
 20
839.7879534817628
 30
0.0
 70
0
  0
VERTEX
  8
1
  6
CONTINUOUS
 62
7
 10
-1316.9123869834052
 20
826.7728292366512
 30
0.0
 70
0
  0
VERTEX
  8
1
  6
CONTINUOUS
 62
7
 10
-1303.0646128841895
 20
821.1644286468988
 30
0.0
 70
0
  0
VERTEX
  8
1
  6
CONTINUOUS
 62
7
 10
-1284.2380899107347
 20
827.5989596801309
 30
0.0
 70
0
  0
VERTEX
  8
1
  6
CONTINUOUS
 62
7
 10
-1252.045214731825
 20
892.6432296939167
 30
0.0
 70
0
  0
VERTEX
  8
1
  6
CONTINUOUS
 62
7
 10
-1238.658458148457
 20
908.8607228812546
 30
0.0
 70
0
  0
VERTEX
  8
1
  6
CONTINUOUS
 62
7
 10
-1181.8062555132221
 20
1029.272674555336
 30
0.0
 70
0
  0
VERTEX
  8
1
  6
CONTINUOUS
 62
7
 10
-1092.4105802747074
 20
987.3720824619761
 30
0.0
 70
0
  0
VERTEX
  8
1
  6
CONTINUOUS
 62
7
 10
-1077.5946687103922
 20
986.7578627440068
 30
0.0
 70
0
  0
VERTEX
  8
1
  6
CONTINUOUS
 62
7
 10
-1066.014774045882
 20
993.9825080375376
 30
0.0
 70
0
  0
VERTEX
  8
1
  6
CONTINUOUS
 62
7
 10
-1060.7849753746862
 20
1006.9333318984275
 30
0.0
 70
0
  0
VERTEX
  8
1
  6
CONTINUOUS
 62
7
 10
-1066.6814928130814
 20
1080.6950023463369
 30
0.0
 70
0
  0
VERTEX
  8
1
  6
CONTINUOUS
 62
7
 10
-944.1421870684953
 20
1098.9455414491626
 30
0.0
 70
0
  0
VERTEX
  8
1
  6
CONTINUOUS
 62
7
 10
-928.9904967049465
 20
1108.9538885101952
 30
0.0
 70
0
  0
VERTEX
  8
1
  6
CONTINUOUS
 62
7
 10
-922.070623882867
 20
1126.081711963997
 30
0.0
 70
0
  0
VERTEX
  8
1
  6
CONTINUOUS
 62
7
 10
-893.1023345025812
 20
1134.0941415192524
 30
0.0
 70
0
  0
VERTEX
  8
1
  6
CONTINUOUS
 62
7
 10
-891.9403192073869
 20
1137.433203060903
 30
0.0
 70
0
  0
VERTEX
  8
1
  6
CONTINUOUS
 62
7
 10
-870.3864522545897
 20
1133.7830047666419
 30
0.0
 70
0
  0
VERTEX
  8
1
  6
CONTINUOUS
 62
7
 10
-885.6639934226971
 20
1120.6971692684233
 30
0.0
 70
0
  0
VERTEX
  8
1
  6
CONTINUOUS
 62
7
 10
-874.2914515760467
 20
1118.97368095015
 30
0.0
 70
0
  0
VERTEX
  8
1
  6
CONTINUOUS
 62
7
 10
-848.7969957479404
 20
1136.7556394893331
 30
0.0
 70
0
  0
VERTEX
  8
1
  6
CONTINUOUS
 62
7
 10
-847.9667425253479
 20
1138.9346362786755
 30
0.0
 70
0
  0
VERTEX
  8
1
  6
CONTINUOUS
 62
7
 10
-782.9364599378666
 20
1154.493735907274
 30
0.0
 70
0
  0
VERTEX
  8
1
  6
CONTINUOUS
 62
7
 10
-768.0138491361511
 20
1149.6629369741486
 30
0.0
 70
0
  0
VERTEX
  8
1
  6
CONTINUOUS
 62
7
 10
-749.9767791988386
 20
1154.2402490906347
 30
0.0
 70
0
  0
VERTEX
  8
1
  6
CONTINUOUS
 62
7
 10
-686.2148300291395
 20
1234.1585259918747
 30
0.0
 70
0
  0
VERTEX
  8
1
  6
CONTINUOUS
 62
7
 10
-669.7104404140741
 20
1251.0523142094305
 30
0.0
 70
0
  0
VERTEX
  8
1
  6
CONTINUOUS
 62
7
 10
-692.8172713517392
 20
1292.2521532030196
 30
0.0
 70
0
  0
VERTEX
  8
1
  6
CONTINUOUS
 62
7
 10
-708.0931249576619
 20
1343.320666737758
 30
0.0
 70
0
  0
VERTEX
  8
1
  6
CONTINUOUS
 62
7
 10
-711.7417093786052
 20
1389.0168570665599
 30
0.0
 70
0
  0
VERTEX
  8
1
  6
CONTINUOUS
 62
7
 10
-703.1649777310458
 20
1427.591378970704
 30
0.0
 70
0
  0
VERTEX
  8
1
  6
CONTINUOUS
 62
7
 10
-687.8032958262119
 20
1465.3936700069708
 30
0.0
 70
0
  0
VERTEX
  8
1
  6
CONTINUOUS
 62
7
 10
-692.1145925866749
 20
1476.327243153894
 30
0.0
 70
0
  0
VERTEX
  8
1
  6
CONTINUOUS
 62
7
 10
-689.1276708430823
 20
1477.9216276000332
 30
0.0
 70
0
  0
VERTEX
  8
1
  6
CONTINUOUS
 62
7
 10
-688.8729695675025
 20
1483.6748315130574
 30
0.0
 70
0
  0
VERTEX
  8
1
  6
CONTINUOUS
 62
7
 10
-718.237287201562
 20
1526.4669744201142
 30
0.0
 70
0
  0
VERTEX
  8
1
  6
CONTINUOUS
 62
7
 10
-733.823081753315
 20
1553.6353475243484
 30
0.0
 70
0
  0
VERTEX
  8
1
  6
CONTINUOUS
 62
7
 10
-744.8127344288753
 20
1567.3801193581612
 30
0.0
 70
0
  0
VERTEX
  8
1
  6
CONTINUOUS
 62
7
 10
-779.7448553757074
 20
1614.4950810195205
 30
0.0
 70
0
  0
VERTEX
  8
1
  6
CONTINUOUS
 62
7
 10
-772.7966042679368
 20
1631.6138437399904
 30
0.0
 70
0
  0
VERTEX
  8
1
  6
CONTINUOUS
 62
7
 10
-756.616928303355
 20
1647.6626871055896
 30
0.0
 70
0
  0
VERTEX
  8
1
  6
CONTINUOUS
 62
7
 10
-658.983514057175
 20
1689.1051177425286
 30
0.0
 70
0
  0
VERTEX
  8
1
  6
CONTINUOUS
 62
7
 10
-571.1732623410461
 20
1740.9692772140345
 30
0.0
 70
0
  0
VERTEX
  8
1
  6
CONTINUOUS
 62
7
 10
-547.5131747660349
 20
1759.4622955969896
 30
0.0
 70
0
  0
VERTEX
  8
1
  6
CONTINUOUS
 62
7
 10
-541.4963285342922
 20
1779.6967974044821
 30
0.0
 70
0
  0
VERTEX
  8
1
  6
CONTINUOUS
 62
7
 10
-548.3761469592916
 20
1815.8200565782608
 30
0.0
 70
0
  0
VERTEX
  8
1
  6
CONTINUOUS
 62
7
 10
-556.7549634691129
 20
1824.686831696894
 30
0.0
 70
0
  0
VERTEX
  8
1
  6
CONTINUOUS
 62
7
 10
-553.7597950588848
 20
1832.233272505914
 30
0.0
 70
0
  0
VERTEX
  8
1
  6
CONTINUOUS
 62
7
 10
-569.9781238491565
 20
1870.301007216183
 30
0.0
 70
0
  0
VERTEX
  8
1
  6
CONTINUOUS
 62
7
 10
-586.7977322025943
 20
1886.4212491259436
 30
0.0
 70
0
  0
VERTEX
  8
1
  6
CONTINUOUS
 62
7
 10
-591.0210627384188
 20
1894.586137974199
 30
0.0
 70
0
  0
VERTEX
  8
1
  6
CONTINUOUS
 62
7
 10
-616.134402542793
 20
1912.4996946662568
 30
0.0
 70
0
  0
VERTEX
  8
1
  6
CONTINUOUS
 62
7
 10
-624.1416021053773
 20
1910.931266464648
 30
0.0
 70
0
  0
VERTEX
  8
1
  6
CONTINUOUS
 62
7
 10
-625.2638776242889
 20
1921.7396596405902
 30
0.0
 70
0
  0
VERTEX
  8
1
  6
CONTINUOUS
 62
7
 10
-634.1644403306416
 20
1927.1518635770533
 30
0.0
 70
0
  0
VERTEX
  8
1
  6
CONTINUOUS
 62
7
 10
-647.8746516814114
 20
1932.6737426343482
 30
0.0
 70
0
  0
VERTEX
  8
1
  6
CONTINUOUS
 62
7
 10
-674.2432332941526
 20
1947.643880193175
 30
0.0
 70
0
  0
VERTEX
  8
1
  6
CONTINUOUS
 62
7
 10
-673.5762671958829
 20
1955.1023717501753
 30
0.0
 70
0
  0
VERTEX
  8
1
  6
CONTINUOUS
 62
7
 10
-682.539086530139
 20
1961.7810058192526
 30
0.0
 70
0
  0
VERTEX
  8
1
  6
CONTINUOUS
 62
7
 10
-688.9631602933252
 20
1964.299723288088
 30
0.0
 70
0
  0
VERTEX
  8
1
  6
CONTINUOUS
 62
7
 10
-689.9618363614314
 20
1975.3550277294912
 30
0.0
 70
0
  0
VERTEX
  8
1
  6
CONTINUOUS
 62
7
 10
-712.7424427708265
 20
1991.2514064891586
 30
0.0
 70
0
  0
VERTEX
  8
1
  6
CONTINUOUS
 62
7
 10
-729.5412387924381
 20
2005.5766499880444
 30
0.0
 70
0
  0
VERTEX
  8
1
  6
CONTINUOUS
 62
7
 10
-767.615339293157
 20
2014.7874922019432
 30
0.0
 70
0
  0
VERTEX
  8
1
  6
CONTINUOUS
 62
7
 10
-772.9844313008956
 20
2023.1711648711116
 30
0.0
 70
0
  0
VERTEX
  8
1
  6
CONTINUOUS
 62
7
 10
-779.9384843823283
 20
2017.4224064745026
 30
0.0
 70
0
  0
VERTEX
  8
1
  6
CONTINUOUS
 62
7
 10
-809.7447610118212
 20
2032.9692498066934
 30
0.0
 70
0
  0
VERTEX
  8
1
  6
CONTINUOUS
 62
7
 10
-813.5443614072823
 20
2051.229126970437
 30
0.0
 70
0
  0
VERTEX
  8
1
  6
CONTINUOUS
 62
7
 10
-809.7938521280847
 20
2060.6430470059004
 30
0.0
 70
0
  0
VERTEX
  8
1
  6
CONTINUOUS
 62
7
 10
-795.1327644167088
 20
2056.5824527846826
 30
0.0
 70
0
  0
VERTEX
  8
1
  6
CONTINUOUS
 62
7
 10
-769.5121477867293
 20
2060.9717868706066
 30
0.0
 70
0
  0
VERTEX
  8
1
  6
CONTINUOUS
 62
7
 10
-744.1173804517452
 20
2054.259968515901
 30
0.0
 70
0
  0
VERTEX
  8
1
  6
CONTINUOUS
 62
7
 10
-731.0342363746147
 20
2073.290386121049
 30
0.0
 70
0
  0
VERTEX
  8
1
  6
CONTINUOUS
 62
7
 10
-700.2663300966249
 20
2105.364665487472
 30
0.0
 70
0
  0
VERTEX
  8
1
  6
CONTINUOUS
 62
7
 10
-695.5376931300715
 20
2124.5225731883866
 30
0.0
 70
0
  0
VERTEX
  8
1
  6
CONTINUOUS
 62
7
 10
-682.4325645061404
 20
2156.9550349233054
 30
0.0
 70
0
  0
VERTEX
  8
1
  6
CONTINUOUS
 62
7
 10
-672.0325968230943
 20
2212.051517268349
 30
0.0
 70
0
  0
VERTEX
  8
1
  6
CONTINUOUS
 62
7
 10
-662.8575620558279
 20
2247.320489488439
 30
0.0
 70
0
  0
VERTEX
  8
1
  6
CONTINUOUS
 62
7
 10
-673.661404259672
 20
2270.9133111685314
 30
0.0
 70
0
  0
VERTEX
  8
1
  6
CONTINUOUS
 62
7
 10
-683.9607552223773
 20
2275.1002535746716
 30
0.0
 70
0
  0
VERTEX
  8
1
  6
CONTINUOUS
 62
7
 10
-682.4611697849712
 20
2289.939325679616
 30
0.0
 70
0
  0
VERTEX
  8
1
  6
CONTINUOUS
 62
7
 10
-730.0422627001847
 20
2338.519120815382
 30
0.0
 70
0
  0
VERTEX
  8
1
  6
CONTINUOUS
 62
7
 10
-772.0372765706102
 20
2403.1731260854726
 30
0.0
 70
0
  0
VERTEX
  8
1
  6
CONTINUOUS
 62
7
 10
-809.0303631886339
 20
2445.968391723599
 30
0.0
 70
0
  0
VERTEX
  8
1
  6
CONTINUOUS
 62
7
 10
-831.7320195155183
 20
2441.0092253724383
 30
0.0
 70
0
  0
VERTEX
  8
1
  6
CONTINUOUS
 62
7
 10
-836.1316326534995
 20
2430.308077258487
 30
0.0
 70
0
  0
VERTEX
  8
1
  6
CONTINUOUS
 62
7
 10
-848.8011773460306
 20
2445.638706724896
 30
0.0
 70
0
  0
VERTEX
  8
1
  6
CONTINUOUS
 62
7
 10
-873.4813425583058
 20
2503.8839618834263
 30
0.0
 70
0
  0
VERTEX
  8
1
  6
CONTINUOUS
 62
7
 10
-880.9680474983221
 20
2631.915223986178
 30
0.0
 70
0
  0
VERTEX
  8
1
  6
CONTINUOUS
 62
7
 10
-897.5481910868879
 20
2665.5577855207007
 30
0.0
 70
0
  0
VERTEX
  8
1
  6
CONTINUOUS
 62
7
 10
-934.7606292753958
 20
2708.6640644217837
 30
0.0
 70
0
  0
VERTEX
  8
1
  6
CONTINUOUS
 62
7
 10
-950.3504690240662
 20
2705.320980336741
 30
0.0
 70
0
  0
VERTEX
  8
1
  6
CONTINUOUS
 62
7
 10
-942.4767564380695
 20
2717.6683034986427
 30
0.0
 70
0
  0
VERTEX
  8
1
  6
CONTINUOUS
 62
7
 10
-947.6967158191813
 20
2731.2098801551347
 30
0.0
 70
0
  0
VERTEX
  8
1
  6
CONTINUOUS
 62
7
 10
-961.4690363355169
 20
2763.633599473762
 30
0.0
 70
0
  0
VERTEX
  8
1
  6
CONTINUOUS
 62
7
 10
-960.4667299651521
 20
2779.909587193317
 30
0.0
 70
0
  0
VERTEX
  8
1
  6
CONTINUOUS
 62
7
 10
-971.1287495414416
 20
2795.500984259104
 30
0.0
 70
0
  0
VERTEX
  8
1
  6
CONTINUOUS
 62
7
 10
-982.9393176580099
 20
2819.80243994787
 30
0.0
 70
0
  0
VERTEX
  8
1
  6
CONTINUOUS
 62
7
 10
-991.4050023933999
 20
2813.6190172794813
 30
0.0
 70
0
  0
VERTEX
  8
1
  6
CONTINUOUS
 62
7
 10
-1014.643176404861
 20
2840.0315914643515
 30
0.0
 70
0
  0
VERTEX
  8
1
  6
CONTINUOUS
 62
7
 10
-1033.534698779048
 20
2834.898172506405
 30
0.0
 70
0
  0
VERTEX
  8
1
  6
CONTINUOUS
 62
7
 10
-1040.54075200318
 20
2837.730183272834
 30
0.0
 70
0
  0
VERTEX
  8
1
  6
CONTINUOUS
 62
7
 10
-1039.212422347998
 20
2840.6270476335
 30
0.0
 70
0
  0
VERTEX
  8
1
  6
CONTINUOUS
 62
7
 10
-1020.6551449519926
 20
2851.3776630250236
 30
0.0
 70
0
  0
VERTEX
  8
1
  6
CONTINUOUS
 62
7
 10
-1023.6492964653536
 20
2855.16656625938
 30
0.0
 70
0
  0
VERTEX
  8
1
  6
CONTINUOUS
 62
7
 10
-1037.7969122819802
 20
2871.9636896396514
 30
0.0
 70
0
  0
VERTEX
  8
1
  6
CONTINUOUS
 62
7
 10
-1028.8418074587796
 20
2877.262828305935
 30
0.0
 70
0
  0
VERTEX
  8
1
  6
CONTINUOUS
 62
7
 10
-1030.5512007753005
 20
2881.9616961898296
 30
0.0
 70
0
  0
VERTEX
  8
1
  6
CONTINUOUS
 62
7
 10
-1038.4203398487357
 20
2886.2721550376195
 30
0.0
 70
0
  0
VERTEX
  8
1
  6
CONTINUOUS
 62
7
 10
-1043.3257442352567
 20
2881.7429254992885
 30
0.0
 70
0
  0
VERTEX
  8
1
  6
CONTINUOUS
 62
7
 10
-1053.59720642281
 20
2877.4679838792554
 30
0.0
 70
0
  0
VERTEX
  8
1
  6
CONTINUOUS
 62
7
 10
-1054.4778659783549
 20
2885.6135002615597
 30
0.0
 70
0
  0
VERTEX
  8
1
  6
CONTINUOUS
 62
7
 10
-1062.0640602001472
 20
2888.432638277728
 30
0.0
 70
0
  0
VERTEX
  8
1
  6
CONTINUOUS
 62
7
 10
-1064.7805110318873
 20
2894.5478663100143
 30
0.0
 70
0
  0
VERTEX
  8
1
  6
CONTINUOUS
 62
7
 10
-1071.2643229249234
 20
2895.2995379068257
 30
0.0
 70
0
  0
VERTEX
  8
1
  6
CONTINUOUS
 62
7
 10
-1077.773890840036
 20
2890.596684195565
 30
0.0
 70
0
  0
VERTEX
  8
1
  6
CONTINUOUS
 62
7
 10
-1088.573835595985
 20
2901.0001869921743
 30
0.0
 70
0
  0
VERTEX
  8
1
  6
CONTINUOUS
 62
7
 10
-1096.2946577765697
 20
2893.7942450163155
 30
0.0
 70
0
  0
VERTEX
  8
1
  6
CONTINUOUS
 62
7
 10
-1087.9524576174035
 20
2887.37052802067
 30
0.0
 70
0
  0
VERTEX
  8
1
  6
CONTINUOUS
 62
7
 10
-1100.187303837655
 20
2885.3365914318956
 30
0.0
 70
0
  0
VERTEX
  8
1
  6
CONTINUOUS
 62
7
 10
-1111.2702337930496
 20
2881.4168377206315
 30
0.0
 70
0
  0
VERTEX
  8
1
  6
CONTINUOUS
 62
7
 10
-1112.5485078327893
 20
2884.300291911578
 30
0.0
 70
0
  0
VERTEX
  8
1
  6
CONTINUOUS
 62
7
 10
-1104.400655499885
 20
2893.2286146176857
 30
0.0
 70
0
  0
VERTEX
  8
1
  6
CONTINUOUS
 62
7
 10
-1129.4571578636005
 20
2914.639228590418
 30
0.0
 70
0
  0
VERTEX
  8
1
  6
CONTINUOUS
 62
7
 10
-1117.472717125785
 20
2916.961571201936
 30
0.0
 70
0
  0
VERTEX
  8
1
  6
CONTINUOUS
 62
7
 10
-1138.1048416093872
 20
2929.984542314982
 30
0.0
 70
0
  0
VERTEX
  8
1
  6
CONTINUOUS
 62
7
 10
-1140.4165888418065
 20
2924.1707173474365
 30
0.0
 70
0
  0
VERTEX
  8
1
  6
CONTINUOUS
 62
7
 10
-1157.3296337520255
 20
2930.6611837387536
 30
0.0
 70
0
  0
VERTEX
  8
1
  6
CONTINUOUS
 62
7
 10
-1160.3213731791132
 20
2921.6558778684393
 30
0.0
 70
0
  0
VERTEX
  8
1
  6
CONTINUOUS
 62
7
 10
-1148.9745829292765
 20
2915.0316350958606
 30
0.0
 70
0
  0
VERTEX
  8
1
  6
CONTINUOUS
 62
7
 10
-1142.9323470785343
 20
2915.6512619386685
 30
0.0
 70
0
  0
VERTEX
  8
1
  6
CONTINUOUS
 62
7
 10
-1143.1907941916606
 20
2916.7299628525916
 30
0.0
 70
0
  0
VERTEX
  8
1
  6
CONTINUOUS
 62
7
 10
-1140.1774208622364
 20
2915.933777596065
 30
0.0
 70
0
  0
VERTEX
  8
1
  6
CONTINUOUS
 62
7
 10
-1142.9323470785343
 20
2915.6512619386685
 30
0.0
 70
0
  0
VERTEX
  8
1
  6
CONTINUOUS
 62
7
 10
-1141.382066048187
 20
2909.180732846433
 30
0.0
 70
0
  0
VERTEX
  8
1
  6
CONTINUOUS
 62
7
 10
-1164.143094298013
 20
2911.2366451421567
 30
0.0
 70
0
  0
VERTEX
  8
1
  6
CONTINUOUS
 62
7
 10
-1190.5482945584029
 20
2905.91801639297
 30
0.0
 70
0
  0
VERTEX
  8
1
  6
CONTINUOUS
 62
7
 10
-1195.4939842280064
 20
2907.796879352557
 30
0.0
 70
0
  0
VERTEX
  8
1
  6
CONTINUOUS
 62
7
 10
-1194.4339891905893
 20
2910.1585098622777
 30
0.0
 70
0
  0
VERTEX
  8
1
  6
CONTINUOUS
 62
7
 10
-1183.7245090048414
 20
2912.8533323520624
 30
0.0
 70
0
  0
VERTEX
  8
1
  6
CONTINUOUS
 62
7
 10
-1184.228581170251
 20
2921.147677715802
 30
0.0
 70
0
  0
VERTEX
  8
1
  6
CONTINUOUS
 62
7
 10
-1175.297556399766
 20
2924.0098261608755
 30
0.0
 70
0
  0
VERTEX
  8
1
  6
CONTINUOUS
 62
7
 10
-1175.2276272548181
 20
2924.4984579297407
 30
0.0
 70
0
  0
VERTEX
  8
1
  6
CONTINUOUS
 62
7
 10
-1216.1683219655247
 20
2978.21158365552
 30
0.0
 70
0
  0
VERTEX
  8
1
  6
CONTINUOUS
 62
7
 10
-1235.2181343407754
 20
3023.0970380285908
 30
0.0
 70
0
  0
VERTEX
  8
1
  6
CONTINUOUS
 62
7
 10
-1244.5762799774304
 20
3056.0005211433518
 30
0.0
 70
0
  0
VERTEX
  8
1
  6
CONTINUOUS
 62
7
 10
-1239.0542138004157
 20
3095.4947753217643
 30
0.0
 70
0
  0
VERTEX
  8
1
  6
CONTINUOUS
 62
7
 10
-1204.570604925285
 20
3184.338461455782
 30
0.0
 70
0
  0
VERTEX
  8
1
  6
CONTINUOUS
 62
7
 10
-1217.6740084396786
 20
3194.4948922065
 30
0.0
 70
0
  0
VERTEX
  8
1
  6
CONTINUOUS
 62
7
 10
-1216.1107058683583
 20
3198.675905575882
 30
0.0
 70
0
  0
VERTEX
  8
1
  6
CONTINUOUS
 62
7
 10
-1201.4934564444493
 20
3193.108706366203
 30
0.0
 70
0
  0
VERTEX
  8
1
  6
CONTINUOUS
 62
7
 10
-1195.8619474701068
 20
3204.2819084829407
 30
0.0
 70
0
  0
VERTEX
  8
1
  6
CONTINUOUS
 62
7
 10
-1196.424273453445
 20
3239.3147941029606
 30
0.0
 70
0
  0
VERTEX
  8
1
  6
CONTINUOUS
 62
7
 10
-1215.4985647625574
 20
3225.504079474379
 30
0.0
 70
0
  0
VERTEX
  8
1
  6
CONTINUOUS
 62
7
 10
-1221.0186784813673
 20
3227.497691960713
 30
0.0
 70
0
  0
VERTEX
  8
1
  6
CONTINUOUS
 62
7
 10
-1199.3239428852369
 20
3246.944918641315
 30
0.0
 70
0
  0
VERTEX
  8
1
  6
CONTINUOUS
 62
7
 10
-1201.3026590734753
 20
3293.0059342040017
 30
0.0
 70
0
  0
VERTEX
  8
1
  6
CONTINUOUS
 62
7
 10
-1225.761856913833
 20
3303.0359553552953
 30
0.0
 70
0
  0
VERTEX
  8
1
  6
CONTINUOUS
 62
7
 10
-1221.4861908358785
 20
3313.2428552045008
 30
0.0
 70
0
  0
VERTEX
  8
1
  6
CONTINUOUS
 62
7
 10
-1200.1404377830838
 20
3327.7400594132664
 30
0.0
 70
0
  0
VERTEX
  8
1
  6
CONTINUOUS
 62
7
 10
-1195.5201215817433
 20
3417.167149240895
 30
0.0
 70
0
  0
VERTEX
  8
1
  6
CONTINUOUS
 62
7
 10
-1193.3773731296474
 20
3444.277216176172
 30
0.0
 70
0
  0
VERTEX
  8
1
  6
CONTINUOUS
 62
7
 10
-1193.1199402412458
 20
3444.4297978309924
 30
0.0
 70
0
  0
VERTEX
  8
1
  6
CONTINUOUS
 62
7
 10
-1195.427768662857
 20
3453.6412901039557
 30
0.0
 70
0
  0
VERTEX
  8
1
  6
CONTINUOUS
 62
7
 10
-1198.383843758704
 20
3452.9337313436063
 30
0.0
 70
0
  0
VERTEX
  8
1
  6
CONTINUOUS
 62
7
 10
-1206.082930773022
 20
3457.798368162788
 30
0.0
 70
0
  0
VERTEX
  8
1
  6
CONTINUOUS
 62
7
 10
-1213.8428000281688
 20
3466.110615334881
 30
0.0
 70
0
  0
VERTEX
  8
1
  6
CONTINUOUS
 62
7
 10
-1223.3298341975833
 20
3462.226146486361
 30
0.0
 70
0
  0
VERTEX
  8
1
  6
CONTINUOUS
 62
7
 10
-1245.814343696214
 20
3477.772381356925
 30
0.0
 70
0
  0
VERTEX
  8
1
  6
CONTINUOUS
 62
7
 10
-1257.710671841715
 20
3496.09672045827
 30
0.0
 70
0
  0
VERTEX
  8
1
  6
CONTINUOUS
 62
7
 10
-1282.4582723054216
 20
3507.960256685588
 30
0.0
 70
0
  0
VERTEX
  8
1
  6
CONTINUOUS
 62
7
 10
-1317.1132763993253
 20
3511.7902571852956
 30
0.0
 70
0
  0
VERTEX
  8
1
  6
CONTINUOUS
 62
7
 10
-1318.63888364966
 20
3492.3393421087408
 30
0.0
 70
0
  0
VERTEX
  8
1
  6
CONTINUOUS
 62
7
 10
-1323.527939353367
 20
3494.529889004065
 30
0.0
 70
0
  0
VERTEX
  8
1
  6
CONTINUOUS
 62
7
 10
-1326.9604921356427
 20
3516.2966391055306
 30
0.0
 70
0
  0
VERTEX
  8
1
  6
CONTINUOUS
 62
7
 10
-1332.101170989225
 20
3511.317403987495
 30
0.0
 70
0
  0
VERTEX
  8
1
  6
CONTINUOUS
 62
7
 10
-1337.5206773277876
 20
3513.2143512804746
 30
0.0
 70
0
  0
VERTEX
  8
1
  6
CONTINUOUS
 62
7
 10
-1351.8250804273075
 20
3493.631766789802
 30
0.0
 70
0
  0
VERTEX
  8
1
  6
CONTINUOUS
 62
7
 10
-1366.5027688545283
 20
3487.402902442745
 30
0.0
 70
0
  0
VERTEX
  8
1
  6
CONTINUOUS
 62
7
 10
-1393.576212605711
 20
3483.795890231381
 30
0.0
 70
0
  0
VERTEX
  8
1
  6
CONTINUOUS
 62
7
 10
-1390.505721668156
 20
3488.7964665736795
 30
0.0
 70
0
  0
VERTEX
  8
1
  6
CONTINUOUS
 62
7
 10
-1399.912389241847
 20
3492.802522903955
 30
0.0
 70
0
  0
VERTEX
  8
1
  6
CONTINUOUS
 62
7
 10
-1402.1781175511937
 20
3485.047637236937
 30
0.0
 70
0
  0
VERTEX
  8
1
  6
CONTINUOUS
 62
7
 10
-1420.4804517164491
 20
3488.3706698069946
 30
0.0
 70
0
  0
VERTEX
  8
1
  6
CONTINUOUS
 62
7
 10
-1425.257388842439
 20
3489.2646564423812
 30
0.0
 70
0
  0
VERTEX
  8
1
  6
CONTINUOUS
 62
7
 10
-1427.9420106892278
 20
3481.6770825984413
 30
0.0
 70
0
  0
VERTEX
  8
1
  6
CONTINUOUS
 62
7
 10
-1435.3098013904842
 20
3483.554764307041
 30
0.0
 70
0
  0
VERTEX
  8
1
  6
CONTINUOUS
 62
7
 10
-1432.4393121491262
 20
3490.6087276083254
 30
0.0
 70
0
  0
VERTEX
  8
1
  6
CONTINUOUS
 62
7
 10
-1425.257388842439
 20
3489.2646564423812
 30
0.0
 70
0
  0
VERTEX
  8
1
  6
CONTINUOUS
 62
7
 10
-1423.8819785557207
 20
3493.151992429241
 30
0.0
 70
0
  0
VERTEX
  8
1
  6
CONTINUOUS
 62
7
 10
-1448.0761432796116
 20
3502.8435444486613
 30
0.0
 70
0
  0
VERTEX
  8
1
  6
CONTINUOUS
 62
7
 10
-1454.5272306600946
 20
3486.6515524857796
 30
0.0
 70
0
  0
VERTEX
  8
1
  6
CONTINUOUS
 62
7
 10
-1458.956952432416
 20
3485.815101994153
 30
0.0
 70
0
  0
VERTEX
  8
1
  6
CONTINUOUS
 62
7
 10
-1475.3023312971623
 20
3482.354989828186
 30
0.0
 70
0
  0
VERTEX
  8
1
  6
CONTINUOUS
 62
7
 10
-1469.8999948646624
 20
3474.594682666585
 30
0.0
 70
0
  0
VERTEX
  8
1
  6
CONTINUOUS
 62
7
 10
-1458.9262450255846
 20
3470.4779501031508
 30
0.0
 70
0
  0
VERTEX
  8
1
  6
CONTINUOUS
 62
7
 10
-1448.2471974535492
 20
3473.390824741693
 30
0.0
 70
0
  0
VERTEX
  8
1
  6
CONTINUOUS
 62
7
 10
-1440.7301245327885
 20
3484.9361338425906
 30
0.0
 70
0
  0
VERTEX
  8
1
  6
CONTINUOUS
 62
7
 10
-1444.2124461479473
 20
3485.823603623606
 30
0.0
 70
0
  0
VERTEX
  8
1
  6
CONTINUOUS
 62
7
 10
-1444.1925771132205
 20
3488.4126808311657
 30
0.0
 70
0
  0
VERTEX
  8
1
  6
CONTINUOUS
 62
7
 10
-1439.2781454946983
 20
3487.16619692426
 30
0.0
 70
0
  0
VERTEX
  8
1
  6
CONTINUOUS
 62
7
 10
-1440.7301245327885
 20
3484.9361338425906
 30
0.0
 70
0
  0
VERTEX
  8
1
  6
CONTINUOUS
 62
7
 10
-1435.3098013904842
 20
3483.554764307041
 30
0.0
 70
0
  0
VERTEX
  8
1
  6
CONTINUOUS
 62
7
 10
-1440.2369000687227
 20
3471.4468724684834
 30
0.0
 70
0
  0
VERTEX
  8
1
  6
CONTINUOUS
 62
7
 10
-1459.6199462265643
 20
3463.238199536853
 30
0.0
 70
0
  0
VERTEX
  8
1
  6
CONTINUOUS
 62
7
 10
-1480.0952974551037
 20
3471.4768847980804
 30
0.0
 70
0
  0
VERTEX
  8
1
  6
CONTINUOUS
 62
7
 10
-1500.6316066521922
 20
3447.3460290736707
 30
0.0
 70
0
  0
VERTEX
  8
1
  6
CONTINUOUS
 62
7
 10
-1508.3131223575617
 20
3426.0608606121345
 30
0.0
 70
0
  0
VERTEX
  8
1
  6
CONTINUOUS
 62
7
 10
-1506.1955868158566
 20
3399.551513146448
 30
0.0
 70
0
  0
VERTEX
  8
1
  6
CONTINUOUS
 62
7
 10
-1507.3694207608598
 20
3362.3776403678175
 30
0.0
 70
0
  0
VERTEX
  8
1
  6
CONTINUOUS
 62
7
 10
-1514.1685800999885
 20
3358.926042962638
 30
0.0
 70
0
  0
VERTEX
  8
1
  6
CONTINUOUS
 62
7
 10
-1506.6071492010308
 20
3342.1486570390916
 30
0.0
 70
0
  0
VERTEX
  8
1
  6
CONTINUOUS
 62
7
 10
-1509.4493870259382
 20
3336.626342327091
 30
0.0
 70
0
  0
VERTEX
  8
1
  6
CONTINUOUS
 62
7
 10
-1502.2614106745218
 20
3319.4523897813706
 30
0.0
 70
0
  0
VERTEX
  8
1
  6
CONTINUOUS
 62
7
 10
-1497.5109218963084
 20
3335.6542355419742
 30
0.0
 70
0
  0
VERTEX
  8
1
  6
CONTINUOUS
 62
7
 10
-1502.2685664783544
 20
3341.9157879679237
 30
0.0
 70
0
  0
VERTEX
  8
1
  6
CONTINUOUS
 62
7
 10
-1503.6110479144045
 20
3335.5008745990253
 30
0.0
 70
0
  0
VERTEX
  8
1
  6
CONTINUOUS
 62
7
 10
-1506.6071492010308
 20
3342.1486570390916
 30
0.0
 70
0
  0
VERTEX
  8
1
  6
CONTINUOUS
 62
7
 10
-1504.926550415638
 20
3345.4139697853425
 30
0.0
 70
0
  0
VERTEX
  8
1
  6
CONTINUOUS
 62
7
 10
-1502.2685664783544
 20
3341.9157879679237
 30
0.0
 70
0
  0
VERTEX
  8
1
  6
CONTINUOUS
 62
7
 10
-1499.1905290547886
 20
3356.6238821643474
 30
0.0
 70
0
  0
VERTEX
  8
1
  6
CONTINUOUS
 62
7
 10
-1499.1416103796414
 20
3357.3054392436966
 30
0.0
 70
0
  0
VERTEX
  8
1
  6
CONTINUOUS
 62
7
 10
-1490.8447016322762
 20
3337.483400581806
 30
0.0
 70
0
  0
VERTEX
  8
1
  6
CONTINUOUS
 62
7
 10
-1498.3052074647658
 20
3307.4519498996096
 30
0.0
 70
0
  0
VERTEX
  8
1
  6
CONTINUOUS
 62
7
 10
-1515.670078221145
 20
3292.1273764891785
 30
0.0
 70
0
  0
VERTEX
  8
1
  6
CONTINUOUS
 62
7
 10
-1526.3245099584258
 20
3274.980916081634
 30
0.0
 70
0
  0
VERTEX
  8
1
  6
CONTINUOUS
 62
7
 10
-1548.1138211860118
 20
3247.590229864064
 30
0.0
 70
0
  0
VERTEX
  8
1
  6
CONTINUOUS
 62
7
 10
-1557.3603063235914
 20
3242.803311016923
 30
0.0
 70
0
  0
VERTEX
  8
1
  6
CONTINUOUS
 62
7
 10
-1567.4781759983643
 20
3230.3515548868827
 30
0.0
 70
0
  0
VERTEX
  8
1
  6
CONTINUOUS
 62
7
 10
-1600.6981702424914
 20
3224.7553050556926
 30
0.0
 70
0
  0
VERTEX
  8
1
  6
CONTINUOUS
 62
7
 10
-1611.5802865704159
 20
3229.0079661774416
 30
0.0
 70
0
  0
VERTEX
  8
1
  6
CONTINUOUS
 62
7
 10
-1614.8376133231059
 20
3224.197377190766
 30
0.0
 70
0
  0
VERTEX
  8
1
  6
CONTINUOUS
 62
7
 10
-1638.8185824362808
 20
3221.7440619468716
 30
0.0
 70
0
  0
VERTEX
  8
1
  6
CONTINUOUS
 62
7
 10
-1649.2036459247565
 20
3225.9729889084047
 30
0.0
 70
0
  0
VERTEX
  8
1
  6
CONTINUOUS
 62
7
 10
-1656.8871918787502
 20
3227.3085461091814
 30
0.0
 70
0
  0
VERTEX
  8
1
  6
CONTINUOUS
 62
7
 10
-1667.5463309458987
 20
3219.2002896832737
 30
0.0
 70
0
  0
VERTEX
  8
1
  6
CONTINUOUS
 62
7
 10
-1662.0144775175959
 20
3214.2959101916704
 30
0.0
 70
0
  0
VERTEX
  8
1
  6
CONTINUOUS
 62
7
 10
-1674.748939163033
 20
3213.3669697976
 30
0.0
 70
0
  0
VERTEX
  8
1
  6
CONTINUOUS
 62
7
 10
-1678.6409094176406
 20
3216.398189564555
 30
0.0
 70
0
  0
VERTEX
  8
1
  6
CONTINUOUS
 62
7
 10
-1693.0014174589085
 20
3215.7581291979345
 30
0.0
 70
0
  0
VERTEX
  8
1
  6
CONTINUOUS
 62
7
 10
-1686.8758456047117
 20
3211.903208345657
 30
0.0
 70
0
  0
VERTEX
  8
1
  6
CONTINUOUS
 62
7
 10
-1697.1091468464888
 20
3209.9676898000735
 30
0.0
 70
0
  0
VERTEX
  8
1
  6
CONTINUOUS
 62
7
 10
-1697.9320146181653
 20
3211.983177857674
 30
0.0
 70
0
  0
VERTEX
  8
1
  6
CONTINUOUS
 62
7
 10
-1692.8544891747201
 20
3212.182381364755
 30
0.0
 70
0
  0
VERTEX
  8
1
  6
CONTINUOUS
 62
7
 10
-1696.1605287756074
 20
3215.617324851615
 30
0.0
 70
0
  0
VERTEX
  8
1
  6
CONTINUOUS
 62
7
 10
-1693.0014174589085
 20
3215.7581291979345
 30
0.0
 70
0
  0
VERTEX
  8
1
  6
CONTINUOUS
 62
7
 10
-1701.7109934842422
 20
3221.2392054196744
 30
0.0
 70
0
  0
VERTEX
  8
1
  6
CONTINUOUS
 62
7
 10
-1697.9320146181653
 20
3211.983177857674
 30
0.0
 70
0
  0
VERTEX
  8
1
  6
CONTINUOUS
 62
7
 10
-1705.567328662623
 20
3211.683626166165
 30
0.0
 70
0
  0
VERTEX
  8
1
  6
CONTINUOUS
 62
7
 10
-1724.7310256512892
 20
3213.962743838956
 30
0.0
 70
0
  0
VERTEX
  8
1
  6
CONTINUOUS
 62
7
 10
-1726.0224426004693
 20
3208.416589786866
 30
0.0
 70
0
  0
VERTEX
  8
1
  6
CONTINUOUS
 62
7
 10
-1732.3337207034856
 20
3208.7705948598236
 30
0.0
 70
0
  0
VERTEX
  8
1
  6
CONTINUOUS
 62
7
 10
-1732.3347464990068
 20
3214.8670461024167
 30
0.0
 70
0
  0
VERTEX
  8
1
  6
CONTINUOUS
 62
7
 10
-1724.7310256512892
 20
3213.962743838956
 30
0.0
 70
0
  0
VERTEX
  8
1
  6
CONTINUOUS
 62
7
 10
-1723.4572738720226
 20
3219.43303257607
 30
0.0
 70
0
  0
VERTEX
  8
1
  6
CONTINUOUS
 62
7
 10
-1723.8044338005823
 20
3220.679186219684
 30
0.0
 70
0
  0
VERTEX
  8
1
  6
CONTINUOUS
 62
7
 10
-1719.811838097029
 20
3221.2664192199927
 30
0.0
 70
0
  0
VERTEX
  8
1
  6
CONTINUOUS
 62
7
 10
-1714.3352320704803
 20
3224.276971028747
 30
0.0
 70
0
  0
VERTEX
  8
1
  6
CONTINUOUS
 62
7
 10
-1724.1157705986284
 20
3234.9510833670024
 30
0.0
 70
0
  0
VERTEX
  8
1
  6
CONTINUOUS
 62
7
 10
-1727.3569273437724
 20
3232.7301547407305
 30
0.0
 70
0
  0
VERTEX
  8
1
  6
CONTINUOUS
 62
7
 10
-1723.0808209381303
 20
3227.686766902515
 30
0.0
 70
0
  0
VERTEX
  8
1
  6
CONTINUOUS
 62
7
 10
-1726.974771545787
 20
3224.590679427214
 30
0.0
 70
0
  0
VERTEX
  8
1
  6
CONTINUOUS
 62
7
 10
-1728.1562180741475
 20
3227.6592946664123
 30
0.0
 70
0
  0
VERTEX
  8
1
  6
CONTINUOUS
 62
7
 10
-1730.9859089453807
 20
3227.6380954552087
 30
0.0
 70
0
  0
VERTEX
  8
1
  6
CONTINUOUS
 62
7
 10
-1731.3832698063181
 20
3225.557233555075
 30
0.0
 70
0
  0
VERTEX
  8
1
  6
CONTINUOUS
 62
7
 10
-1733.0123601635978
 20
3228.85489858031
 30
0.0
 70
0
  0
VERTEX
  8
1
  6
CONTINUOUS
 62
7
 10
-1727.3569273437724
 20
3232.7301547407305
 30
0.0
 70
0
  0
VERTEX
  8
1
  6
CONTINUOUS
 62
7
 10
-1729.1540590196264
 20
3234.849754015817
 30
0.0
 70
0
  0
VERTEX
  8
1
  6
CONTINUOUS
 62
7
 10
-1736.825048923446
 20
3231.539591775614
 30
0.0
 70
0
  0
VERTEX
  8
1
  6
CONTINUOUS
 62
7
 10
-1736.150799155801
 20
3228.5656662579004
 30
0.0
 70
0
  0
VERTEX
  8
1
  6
CONTINUOUS
 62
7
 10
-1741.5111998818893
 20
3226.342282751293
 30
0.0
 70
0
  0
VERTEX
  8
1
  6
CONTINUOUS
 62
7
 10
-1739.742668339491
 20
3215.486806435607
 30
0.0
 70
0
  0
VERTEX
  8
1
  6
CONTINUOUS
 62
7
 10
-1750.1922024824735
 20
3217.083722711579
 30
0.0
 70
0
  0
VERTEX
  8
1
  6
CONTINUOUS
 62
7
 10
-1802.4709317839233
 20
3215.2724151247726
 30
0.0
 70
0
  0
VERTEX
  8
1
  6
CONTINUOUS
 62
7
 10
-1804.6747163246605
 20
3198.613519915161
 30
0.0
 70
0
  0
VERTEX
  8
1
  6
CONTINUOUS
 62
7
 10
-1809.1870626860573
 20
3196.4663265283702
 30
0.0
 70
0
  0
VERTEX
  8
1
  6
CONTINUOUS
 62
7
 10
-1811.50520140692
 20
3215.100941913289
 30
0.0
 70
0
  0
VERTEX
  8
1
  6
CONTINUOUS
 62
7
 10
-1824.148278817131
 20
3220.0074965782624
 30
0.0
 70
0
  0
VERTEX
  8
1
  6
CONTINUOUS
 62
7
 10
-1840.0692035127286
 20
3215.727110636679
 30
0.0
 70
0
  0
VERTEX
  8
1
  6
CONTINUOUS
 62
7
 10
-1864.8804355830916
 20
3217.294115658179
 30
0.0
 70
0
  0
VERTEX
  8
1
  6
CONTINUOUS
 62
7
 10
-1924.9342515520298
 20
3120.5629409555145
 30
0.0
 70
0
  0
VERTEX
  8
1
  6
CONTINUOUS
 62
7
 10
-1947.8101265221624
 20
3085.277391034721
 30
0.0
 70
0
  0
VERTEX
  8
1
  6
CONTINUOUS
 62
7
 10
-1948.3430673198745
 20
3080.690801422293
 30
0.0
 70
0
  0
VERTEX
  8
1
  6
CONTINUOUS
 62
7
 10
-1951.4041735526396
 20
3079.278513643348
 30
0.0
 70
0
  0
VERTEX
  8
1
  6
CONTINUOUS
 62
7
 10
-1958.097353535215
 20
3062.10373232555
 30
0.0
 70
0
  0
VERTEX
  8
1
  6
CONTINUOUS
 62
7
 10
-1965.250568920293
 20
3058.1476814722814
 30
0.0
 70
0
  0
VERTEX
  8
1
  6
CONTINUOUS
 62
7
 10
-1962.7334907499169
 20
3051.8102736757
 30
0.0
 70
0
  0
VERTEX
  8
1
  6
CONTINUOUS
 62
7
 10
-1990.2805854665041
 20
3000.442429405518
 30
0.0
 70
0
  0
VERTEX
  8
1
  6
CONTINUOUS
 62
7
 10
-1986.5678877183072
 20
2996.366510682806
 30
0.0
 70
0
  0
VERTEX
  8
1
  6
CONTINUOUS
 62
7
 10
-1989.1367479593296
 20
2988.5572062710266
 30
0.0
 70
0
  0
VERTEX
  8
1
  6
CONTINUOUS
 62
7
 10
-1996.8444100180163
 20
2989.7612609792886
 30
0.0
 70
0
  0
VERTEX
  8
1
  6
CONTINUOUS
 62
7
 10
-1999.2723695889351
 20
2981.742264141234
 30
0.0
 70
0
  0
VERTEX
  8
1
  6
CONTINUOUS
 62
7
 10
-2012.2124039031341
 20
2960.4927687557706
 30
0.0
 70
0
  0
VERTEX
  8
1
  6
CONTINUOUS
 62
7
 10
-2011.0938453111535
 20
2957.8107701244426
 30
0.0
 70
0
  0
VERTEX
  8
1
  6
CONTINUOUS
 62
7
 10
-2023.2864371385176
 20
2927.8562423502426
 30
0.0
 70
0
  0
VERTEX
  8
1
  6
CONTINUOUS
 62
7
 10
-2061.5381182301835
 20
2872.2657427093577
 30
0.0
 70
0
  0
VERTEX
  8
1
  6
CONTINUOUS
 62
7
 10
-2079.3061197002926
 20
2834.5778539205476
 30
0.0
 70
0
  0
VERTEX
  8
1
  6
CONTINUOUS
 62
7
 10
-2077.2861692756737
 20
2792.895379401227
 30
0.0
 70
0
  0
VERTEX
  8
1
  6
CONTINUOUS
 62
7
 10
-2087.753539985295
 20
2754.9253589807286
 30
0.0
 70
0
  0
VERTEX
  8
1
  6
CONTINUOUS
 62
7
 10
-2085.68580420572
 20
2746.696802230724
 30
0.0
 70
0
  0
VERTEX
  8
1
  6
CONTINUOUS
 62
7
 10
-2074.267647444138
 20
2732.2267604184844
 30
0.0
 70
0
  0
VERTEX
  8
1
  6
CONTINUOUS
 62
7
 10
-2025.9184255956297
 20
2658.1279521670067
 30
0.0
 70
0
  0
VERTEX
  8
1
  6
CONTINUOUS
 62
7
 10
-2008.5713379637587
 20
2617.2662911948537
 30
0.0
 70
0
  0
VERTEX
  8
1
  6
CONTINUOUS
 62
7
 10
-2005.2279907352918
 20
2596.1945728989594
 30
0.0
 70
0
  0
VERTEX
  8
1
  6
CONTINUOUS
 62
7
 10
-2010.6477176374015
 20
2582.7543474467934
 30
0.0
 70
0
  0
VERTEX
  8
1
  6
CONTINUOUS
 62
7
 10
-2020.6243277159836
 20
2580.1286230684273
 30
0.0
 70
0
  0
VERTEX
  8
1
  6
CONTINUOUS
 62
7
 10
-2039.555643229768
 20
2585.453334591308
 30
0.0
 70
0
  0
VERTEX
  8
1
  6
CONTINUOUS
 62
7
 10
-2069.670057214533
 20
2619.6077002254733
 30
0.0
 70
0
  0
VERTEX
  8
1
  6
CONTINUOUS
 62
7
 10
-2078.068560224975
 20
2623.8012058718714
 30
0.0
 70
0
  0
VERTEX
  8
1
  6
CONTINUOUS
 62
7
 10
-2096.4257915583776
 20
2616.0510791654124
 30
0.0
 70
0
  0
VERTEX
  8
1
  6
CONTINUOUS
 62
7
 10
-2103.879860811102
 20
2602.905308366895
 30
0.0
 70
0
  0
VERTEX
  8
1
  6
CONTINUOUS
 62
7
 10
-2098.961150893478
 20
2569.7969817607172
 30
0.0
 70
0
  0
VERTEX
  8
1
  6
CONTINUOUS
 62
7
 10
-2100.4788790194048
 20
2566.006845543001
 30
0.0
 70
0
  0
VERTEX
  8
1
  6
CONTINUOUS
 62
7
 10
-2096.031305025268
 20
2555.4479028645574
 30
0.0
 70
0
  0
VERTEX
  8
1
  6
CONTINUOUS
 62
7
 10
-2078.5250460440852
 20
2470.792994628164
 30
0.0
 70
0
  0
VERTEX
  8
1
  6
CONTINUOUS
 62
7
 10
-2067.5052646966833
 20
2455.5923875639655
 30
0.0
 70
0
  0
VERTEX
  8
1
  6
CONTINUOUS
 62
7
 10
-2055.250505948902
 20
2448.1011462071956
 30
0.0
 70
0
  0
VERTEX
  8
1
  6
CONTINUOUS
 62
7
 10
-2056.841026971025
 20
2422.1343911837425
 30
0.0
 70
0
  0
VERTEX
  8
1
  6
CONTINUOUS
 62
7
 10
-2066.9742250413738
 20
2405.549838630773
 30
0.0
 70
0
  0
VERTEX
  8
1
  6
CONTINUOUS
 62
7
 10
-2061.904230092453
 20
2393.5944042751025
 30
0.0
 70
0
  0
VERTEX
  8
1
  6
CONTINUOUS
 62
7
 10
-2069.2509968621234
 20
2337.95104875217
 30
0.0
 70
0
  0
VERTEX
  8
1
  6
CONTINUOUS
 62
7
 10
-2078.047494197246
 20
2334.45102539943
 30
0.0
 70
0
  0
VERTEX
  8
1
  6
CONTINUOUS
 62
7
 10
-2082.4366064541
 20
2329.5829175907375
 30
0.0
 70
0
  0
VERTEX
  8
1
  6
CONTINUOUS
 62
7
 10
-2073.2729651437485
 20
2318.094157627609
 30
0.0
 70
0
  0
VERTEX
  8
1
  6
CONTINUOUS
 62
7
 10
-2077.6032596587306
 20
2307.461875340499
 30
0.0
 70
0
  0
VERTEX
  8
1
  6
CONTINUOUS
 62
7
 10
-2075.7007001176694
 20
2303.0488264995765
 30
0.0
 70
0
  0
VERTEX
  8
1
  6
CONTINUOUS
 62
7
 10
-2090.3203199536756
 20
2260.6029892765628
 30
0.0
 70
0
  0
VERTEX
  8
1
  6
CONTINUOUS
 62
7
 10
-2095.2291321861812
 20
2256.7136514834046
 30
0.0
 70
0
  0
VERTEX
  8
1
  6
CONTINUOUS
 62
7
 10
-2091.4640985646292
 20
2249.446507746552
 30
0.0
 70
0
  0
VERTEX
  8
1
  6
CONTINUOUS
 62
7
 10
-2099.2082257194866
 20
2243.0656033724745
 30
0.0
 70
0
  0
VERTEX
  8
1
  6
CONTINUOUS
 62
7
 10
-2102.098782288168
 20
2243.3245554441455
 30
0.0
 70
0
  0
VERTEX
  8
1
  6
CONTINUOUS
 62
7
 10
-2098.522762128056
 20
2246.181327225877
 30
0.0
 70
0
  0
VERTEX
  8
1
  6
CONTINUOUS
 62
7
 10
-2101.1203355884268
 20
2252.0459479831893
 30
0.0
 70
0
  0
VERTEX
  8
1
  6
CONTINUOUS
 62
7
 10
-2095.2291321861812
 20
2256.7136514834046
 30
0.0
 70
0
  0
VERTEX
  8
1
  6
CONTINUOUS
 62
7
 10
-2096.8068547776084
 20
2259.7589196008475
 30
0.0
 70
0
  0
VERTEX
  8
1
  6
CONTINUOUS
 62
7
 10
-2113.0017373474343
 20
2249.397133960042
 30
0.0
 70
0
  0
VERTEX
  8
1
  6
CONTINUOUS
 62
7
 10
-2107.9223164843293
 20
2243.8462599009717
 30
0.0
 70
0
  0
VERTEX
  8
1
  6
CONTINUOUS
 62
7
 10
-2102.098782288168
 20
2243.3245554441455
 30
0.0
 70
0
  0
VERTEX
  8
1
  6
CONTINUOUS
 62
7
 10
-2116.719081386919
 20
2231.6448511819685
 30
0.0
 70
0
  0
VERTEX
  8
1
  6
CONTINUOUS
 62
7
 10
-2158.5777715994923
 20
2226.4890735237614
 30
0.0
 70
0
  0
VERTEX
  8
1
  6
CONTINUOUS
 62
7
 10
-2184.324346803624
 20
2226.8730690605935
 30
0.0
 70
0
  0
VERTEX
  8
1
  6
CONTINUOUS
 62
7
 10
-2198.334934155396
 20
2230.9920158522386
 30
0.0
 70
0
  0
VERTEX
  8
1
  6
CONTINUOUS
 62
7
 10
-2199.9627121712674
 20
2226.942980679435
 30
0.0
 70
0
  0
VERTEX
  8
1
  6
CONTINUOUS
 62
7
 10
-2219.959970594506
 20
2221.7573600084197
 30
0.0
 70
0
  0
VERTEX
  8
1
  6
CONTINUOUS
 62
7
 10
-2226.0254676932805
 20
2230.106496178487
 30
0.0
 70
0
  0
VERTEX
  8
1
  6
CONTINUOUS
 62
7
 10
-2232.1148563894135
 20
2223.113691690799
 30
0.0
 70
0
  0
VERTEX
  8
1
  6
CONTINUOUS
 62
7
 10
-2261.495683277769
 20
2227.907651404481
 30
0.0
 70
0
  0
VERTEX
  8
1
  6
CONTINUOUS
 62
7
 10
-2272.3381404651936
 20
2227.525310856611
 30
0.0
 70
0
  0
VERTEX
  8
1
  6
CONTINUOUS
 62
7
 10
-2287.038489518063
 20
2241.606774414053
 30
0.0
 70
0
  0
VERTEX
  8
1
  6
CONTINUOUS
 62
7
 10
-2305.3685786104556
 20
2267.295961842365
 30
0.0
 70
0
  0
VERTEX
  8
1
  6
CONTINUOUS
 62
7
 10
-2320.0799313534108
 20
2270.704562638315
 30
0.0
 70
0
  0
VERTEX
  8
1
  6
CONTINUOUS
 62
7
 10
-2338.1532420142203
 20
2260.6997462637883
 30
0.0
 70
0
  0
SEQEND
  8
0
  0
ENDSEC
  0
EOF
