  0
SECTION
  2
HEADER
  9
$ACADVER
  1
AC1009
  9
$DWGCODEPAGE
  3
ANSI_1252
  9
$EXTMIN
 10
1e+20
 20
1e+20
 30
1e+20
  9
$EXTMAX
 10
-1e+20
 20
-1e+20
 30
-1e+20
  9
$LIMMIN
 10
0.0
 20
0.0
  9
$LIMMAX
 10
420.0
 20
297.0
  9
$TDCREATE
 40
2459758.441712963
  9
$TDUPDATE
 40
2459758.441712963
  9
$PEXTMIN
 10
1e+20
 20
1e+20
 30
1e+20
  9
$PEXTMAX
 10
-1e+20
 20
-1e+20
 30
-1e+20
  9
$PLIMMIN
 10
0.0
 20
0.0
  9
$PLIMMAX
 10
420.0
 20
297.0
  0
ENDSEC
  0
SECTION
  2
TABLES
  0
TABLE
  2
VPORT
 70
1
  0
VPORT
  2
*Active
 70
0
 10
0.0
 20
0.0
 11
1.0
 21
1.0
 12
0.0
 22
0.0
 13
0.0
 23
0.0
 14
0.5
 24
0.5
 15
0.5
 25
0.5
 16
0.0
 26
0.0
 36
1.0
 17
0.0
 27
0.0
 37
0.0
 40
1000.0
 41
1.34
 42
50.0
 43
0.0
 44
0.0
 50
0.0
 51
0.0
 71
0
 72
1000
 73
1
 74
3
 75
0
 76
0
 77
0
 78
0
  0
ENDTAB
  0
TABLE
  2
LTYPE
 70
3
  0
LTYPE
  2
ByBlock
 70
0
  3

 72
65
 73
0
 40
0.0
  0
LTYPE
  2
ByLayer
 70
0
  3

 72
65
 73
0
 40
0.0
  0
LTYPE
  2
Continuous
 70
0
  3

 72
65
 73
0
 40
0.0
  0
ENDTAB
  0
TABLE
  2
LAYER
 70
2
  0
LAYER
  2
0
 70
0
 62
7
  6
Continuous
  0
LAYER
  2
Defpoints
 70
0
 62
7
  6
Continuous
  0
ENDTAB
  0
TABLE
  2
STYLE
 70
1
  0
STYLE
  2
Standard
 70
0
 40
0.0
 41
1.0
 50
0.0
 71
0
 42
2.5
  3
txt
  4

  0
ENDTAB
  0
TABLE
  2
VIEW
 70
0
  0
ENDTAB
  0
TABLE
  2
UCS
 70
0
  0
ENDTAB
  0
TABLE
  2
APPID
 70
3
  0
APPID
  2
ACAD
 70
0
  0
APPID
  2
HATCHBACKGROUNDCOLOR
 70
0
  0
APPID
  2
EZDXF
 70
0
  0
ENDTAB
  0
TABLE
  2
DIMSTYLE
 70
1
  0
DIMSTYLE
  2
Standard
 70
0
  3

  4

  5

  6

  7

 40
1.0
 41
2.5
 42
0.625
 43
3.75
 44
1.25
 45
0.0
 46
0.0
 47
0.0
 48
0.0
140
2.5
141
2.5
142
0.0
143
0.03937007874
144
1.0
145
0.0
146
1.0
147
0.625
 71
0
 72
0
 73
0
 74
0
 75
0
 76
0
 77
1
 78
8
170
0
171
3
172
1
173
0
174
0
175
0
176
0
177
0
178
0
  0
ENDTAB
  0
ENDSEC
  0
SECTION
  2
BLOCKS
  0
BLOCK
  8
0
  2
$Model_Space
 70
0
 10
0.0
 20
0.0
 30
0.0
  3
$Model_Space
  1

1001
EZDXF
1000
WRITTEN_BY_EZDXF
1000
0.17.2 @ 2022-06-27T08:36:04.569296+00:00
  0
ENDBLK
  8
0
  0
BLOCK
  8
0
  2
$Paper_Space
 70
0
 10
0.0
 20
0.0
 30
0.0
  3
$Paper_Space
  1

  0
ENDBLK
  8
0
  0
ENDSEC
  0
SECTION
  2
ENTITIES
  0
TEXT
  8
72
 62
5
 10
-3092.0822949121184
 20
805.9950454068955
 30
0.0
 40
50.00000075092469
  1
MARK_1
 50
115.0
 11
-3092.0822949121184
 21
805.9950454068955
 31
0.0
 73
1
  0
TEXT
  8
72
 62
5
 10
-2897.284556822967
 20
288.86947999014365
 30
0.0
 40
50.00000075092469
  1
MARK_2
 50
115.0
 11
-2897.284556822967
 21
288.86947999014365
 31
0.0
 73
1
  0
POLYLINE
  8
51
 62
5
 66
1
 10
0.0
 20
0.0
 30
0.0
 70
1
  0
VERTEX
  8
51
  6
CONTINUOUS
 62
7
 10
-2610.420155221992
 20
-388.2980285650177
 30
0.0
 70
0
  0
VERTEX
  8
51
  6
CONTINUOUS
 62
7
 10
-2609.403291065005
 20
-390.4787007868947
 30
0.0
 70
0
  0
VERTEX
  8
51
  6
CONTINUOUS
 62
7
 10
-2605.778059916858
 20
-388.7882277399319
 30
0.0
 70
0
  0
VERTEX
  8
51
  6
CONTINUOUS
 62
7
 10
-2606.250777794309
 20
-387.7744809802897
 30
0.0
 70
0
  0
VERTEX
  8
51
  6
CONTINUOUS
 62
7
 10
-2312.2773991738695
 20
1170.1683246103205
 30
0.0
 70
0
  0
VERTEX
  8
51
  6
CONTINUOUS
 62
7
 10
-2312.158028732644
 20
1170.8009408049784
 30
0.0
 70
0
  0
VERTEX
  8
51
  6
CONTINUOUS
 62
7
 10
-2313.1748928896336
 20
1172.981613026861
 30
0.0
 70
0
  0
VERTEX
  8
51
  6
CONTINUOUS
 62
7
 10
-2316.8001240377803
 20
1171.2911399798982
 30
0.0
 70
0
  0
VERTEX
  8
51
  6
CONTINUOUS
 62
7
 10
-2316.327406160329
 20
1170.277393220255
 30
0.0
 70
0
  0
VERTEX
  8
51
  6
CONTINUOUS
 62
7
 10
-2610.300784780766
 20
-387.66541237036085
 30
0.0
 70
0
  0
SEQEND
  8
0
  0
POLYLINE
  8
51
 62
5
 66
1
 10
0.0
 20
0.0
 30
0.0
 70
1
  0
VERTEX
  8
51
  6
CONTINUOUS
 62
7
 10
-2822.56578025136
 20
593.4609726757857
 30
0.0
 70
0
  0
VERTEX
  8
51
  6
CONTINUOUS
 62
7
 10
-2821.8319113413595
 20
591.8871857195423
 30
0.0
 70
0
  0
VERTEX
  8
51
  6
CONTINUOUS
 62
7
 10
-2820.6040333016663
 20
590.659307679849
 30
0.0
 70
0
  0
VERTEX
  8
51
  6
CONTINUOUS
 62
7
 10
-2819.0302463454254
 20
589.9254387698534
 30
0.0
 70
0
  0
VERTEX
  8
51
  6
CONTINUOUS
 62
7
 10
-2817.3003724061764
 20
589.7740944108331
 30
0.0
 70
0
  0
VERTEX
  8
51
  6
CONTINUOUS
 62
7
 10
-2815.6230598112097
 20
590.2235289661098
 30
0.0
 70
0
  0
VERTEX
  8
51
  6
CONTINUOUS
 62
7
 10
-2814.2006172139786
 20
591.2195339953604
 30
0.0
 70
0
  0
VERTEX
  8
51
  6
CONTINUOUS
 62
7
 10
-2813.2046121847343
 20
592.641976592593
 30
0.0
 70
0
  0
VERTEX
  8
51
  6
CONTINUOUS
 62
7
 10
-2812.7551776294567
 20
594.3192891875537
 30
0.0
 70
0
  0
VERTEX
  8
51
  6
CONTINUOUS
 62
7
 10
-2812.906521988471
 20
596.0491631268093
 30
0.0
 70
0
  0
VERTEX
  8
51
  6
CONTINUOUS
 62
7
 10
-2813.6403908984717
 20
597.6229500830526
 30
0.0
 70
0
  0
VERTEX
  8
51
  6
CONTINUOUS
 62
7
 10
-2814.8682689381603
 20
598.8508281227371
 30
0.0
 70
0
  0
VERTEX
  8
51
  6
CONTINUOUS
 62
7
 10
-2816.442055894405
 20
599.584697032742
 30
0.0
 70
0
  0
VERTEX
  8
51
  6
CONTINUOUS
 62
7
 10
-2818.17192983365
 20
599.7360413917528
 30
0.0
 70
0
  0
VERTEX
  8
51
  6
CONTINUOUS
 62
7
 10
-2819.8492424286164
 20
599.2866068364763
 30
0.0
 70
0
  0
VERTEX
  8
51
  6
CONTINUOUS
 62
7
 10
-2821.271685025848
 20
598.2906018072255
 30
0.0
 70
0
  0
VERTEX
  8
51
  6
CONTINUOUS
 62
7
 10
-2822.267690055096
 20
596.8681592100024
 30
0.0
 70
0
  0
VERTEX
  8
51
  6
CONTINUOUS
 62
7
 10
-2822.71712461037
 20
595.1908466150323
 30
0.0
 70
0
  0
SEQEND
  8
0
  0
POLYLINE
  8
52
 62
5
 66
1
 10
0.0
 20
0.0
 30
0.0
 70
1
  0
VERTEX
  8
52
  6
CONTINUOUS
 62
7
 10
-3341.352789672603
 20
948.9141973419453
 30
0.0
 70
0
  0
VERTEX
  8
52
  6
CONTINUOUS
 62
7
 10
-3340.613207714557
 20
947.3281587146314
 30
0.0
 70
0
  0
VERTEX
  8
52
  6
CONTINUOUS
 62
7
 10
-3338.869866992899
 20
947.1756361648218
 30
0.0
 70
0
  0
VERTEX
  8
52
  6
CONTINUOUS
 62
7
 10
-3337.866108229278
 20
948.6091522423308
 30
0.0
 70
0
  0
VERTEX
  8
52
  6
CONTINUOUS
 62
7
 10
-3338.605690187324
 20
950.1951908696446
 30
0.0
 70
0
  0
VERTEX
  8
52
  6
CONTINUOUS
 62
7
 10
-3340.349030908991
 20
950.34771341945
 30
0.0
 70
0
  0
SEQEND
  8
0
  0
POLYLINE
  8
52
 62
5
 66
1
 10
0.0
 20
0.0
 30
0.0
 70
1
  0
VERTEX
  8
52
  6
CONTINUOUS
 62
7
 10
-3574.8325572271415
 20
841.7391279808749
 30
0.0
 70
0
  0
VERTEX
  8
52
  6
CONTINUOUS
 62
7
 10
-3571.0737867439934
 20
840.3710474075701
 30
0.0
 70
0
  0
VERTEX
  8
52
  6
CONTINUOUS
 62
7
 10
-3567.68796001608
 20
849.6735298887172
 30
0.0
 70
0
  0
VERTEX
  8
52
  6
CONTINUOUS
 62
7
 10
-3571.44673049922
 20
851.041610462026
 30
0.0
 70
0
  0
SEQEND
  8
0
  0
POLYLINE
  8
52
 62
5
 66
1
 10
0.0
 20
0.0
 30
0.0
 70
1
  0
VERTEX
  8
52
  6
CONTINUOUS
 62
7
 10
-3166.6460403799083
 20
161.05179346235923
 30
0.0
 70
0
  0
VERTEX
  8
52
  6
CONTINUOUS
 62
7
 10
-3164.701576307549
 20
157.55621633242936
 30
0.0
 70
0
  0
VERTEX
  8
52
  6
CONTINUOUS
 62
7
 10
-3152.43588536656
 20
164.37917988629943
 30
0.0
 70
0
  0
VERTEX
  8
52
  6
CONTINUOUS
 62
7
 10
-3154.380349438923
 20
167.8747570162384
 30
0.0
 70
0
  0
SEQEND
  8
0
  0
POLYLINE
  8
52
 62
5
 66
1
 10
0.0
 20
0.0
 30
0.0
 70
1
  0
VERTEX
  8
52
  6
CONTINUOUS
 62
7
 10
-3142.5468128652487
 20
175.5986896123377
 30
0.0
 70
0
  0
VERTEX
  8
52
  6
CONTINUOUS
 62
7
 10
-3140.5832765944415
 20
172.1137899992566
 30
0.0
 70
0
  0
VERTEX
  8
52
  6
CONTINUOUS
 62
7
 10
-3129.223893454106
 20
178.51413528504713
 30
0.0
 70
0
  0
VERTEX
  8
52
  6
CONTINUOUS
 62
7
 10
-3131.1874297249087
 20
181.99903489811936
 30
0.0
 70
0
  0
SEQEND
  8
0
  0
POLYLINE
  8
52
 62
5
 66
1
 10
0.0
 20
0.0
 30
0.0
 70
1
  0
VERTEX
  8
52
  6
CONTINUOUS
 62
7
 10
-3140.5358340875214
 20
218.81225432991278
 30
0.0
 70
0
  0
VERTEX
  8
52
  6
CONTINUOUS
 62
7
 10
-3118.2445666581575
 20
215.96630781580575
 30
0.0
 70
0
  0
VERTEX
  8
52
  6
CONTINUOUS
 62
7
 10
-3117.7379948349662
 20
219.93410128168966
 30
0.0
 70
0
  0
VERTEX
  8
52
  6
CONTINUOUS
 62
7
 10
-3140.0292622643306
 20
222.78004779579692
 30
0.0
 70
0
  0
SEQEND
  8
0
  0
POLYLINE
  8
52
 62
5
 66
1
 10
0.0
 20
0.0
 30
0.0
 70
1
  0
VERTEX
  8
52
  6
CONTINUOUS
 62
7
 10
-3112.0795055638514
 20
188.70895042611323
 30
0.0
 70
0
  0
VERTEX
  8
52
  6
CONTINUOUS
 62
7
 10
-3110.3890325168886
 20
185.08371927796657
 30
0.0
 70
0
  0
VERTEX
  8
52
  6
CONTINUOUS
 62
7
 10
-3094.981799905876
 20
192.2682298354573
 30
0.0
 70
0
  0
VERTEX
  8
52
  6
CONTINUOUS
 62
7
 10
-3096.6722729528387
 20
195.89346098360397
 30
0.0
 70
0
  0
SEQEND
  8
0
  0
POLYLINE
  8
52
 62
5
 66
1
 10
0.0
 20
0.0
 30
0.0
 70
1
  0
VERTEX
  8
52
  6
CONTINUOUS
 62
7
 10
-3093.276798068983
 20
170.09014790210108
 30
0.0
 70
0
  0
VERTEX
  8
52
  6
CONTINUOUS
 62
7
 10
-3081.19432092142
 20
170.20740984782742
 30
0.0
 70
0
  0
VERTEX
  8
52
  6
CONTINUOUS
 62
7
 10
-3081.233139591549
 20
174.20722148225013
 30
0.0
 70
0
  0
VERTEX
  8
52
  6
CONTINUOUS
 62
7
 10
-3093.3156167391116
 20
174.08995953652402
 30
0.0
 70
0
  0
SEQEND
  8
0
  0
POLYLINE
  8
52
 62
5
 66
1
 10
0.0
 20
0.0
 30
0.0
 70
1
  0
VERTEX
  8
52
  6
CONTINUOUS
 62
7
 10
-2969.1525419572863
 20
202.50799070498397
 30
0.0
 70
0
  0
VERTEX
  8
52
  6
CONTINUOUS
 62
7
 10
-2950.569371819445
 20
204.64665069637977
 30
0.0
 70
0
  0
VERTEX
  8
52
  6
CONTINUOUS
 62
7
 10
-2943.705813376417
 20
203.59759632373652
 30
0.0
 70
0
  0
VERTEX
  8
52
  6
CONTINUOUS
 62
7
 10
-2943.101455543474
 20
207.55167669845696
 30
0.0
 70
0
  0
VERTEX
  8
52
  6
CONTINUOUS
 62
7
 10
-2950.494536852932
 20
208.68166551394256
 30
0.0
 70
0
  0
VERTEX
  8
52
  6
CONTINUOUS
 62
7
 10
-2969.609866755468
 20
206.4817614619551
 30
0.0
 70
0
  0
SEQEND
  8
0
  0
POLYLINE
  8
52
 62
5
 66
1
 10
0.0
 20
0.0
 30
0.0
 70
1
  0
VERTEX
  8
52
  6
CONTINUOUS
 62
7
 10
-2955.2574985290685
 20
239.79087364282896
 30
0.0
 70
0
  0
VERTEX
  8
52
  6
CONTINUOUS
 62
7
 10
-2948.801314122401
 20
241.74870794079425
 30
0.0
 70
0
  0
VERTEX
  8
52
  6
CONTINUOUS
 62
7
 10
-2936.0387794028607
 20
241.40000879845752
 30
0.0
 70
0
  0
VERTEX
  8
52
  6
CONTINUOUS
 62
7
 10
-2932.3569834362133
 20
240.05994465794925
 30
0.0
 70
0
  0
VERTEX
  8
52
  6
CONTINUOUS
 62
7
 10
-2930.9889028629086
 20
243.81871514109775
 30
0.0
 70
0
  0
VERTEX
  8
52
  6
CONTINUOUS
 62
7
 10
-2935.280663308666
 20
245.3807881959542
 30
0.0
 70
0
  0
VERTEX
  8
52
  6
CONTINUOUS
 62
7
 10
-2949.340935021736
 20
245.76494422728297
 30
0.0
 70
0
  0
VERTEX
  8
52
  6
CONTINUOUS
 62
7
 10
-2956.41829636031
 20
243.61873837332178
 30
0.0
 70
0
  0
SEQEND
  8
0
  0
POLYLINE
  8
52
 62
5
 66
1
 10
0.0
 20
0.0
 30
0.0
 70
1
  0
VERTEX
  8
52
  6
CONTINUOUS
 62
7
 10
-2934.4016277052488
 20
207.56558529536437
 30
0.0
 70
0
  0
VERTEX
  8
52
  6
CONTINUOUS
 62
7
 10
-2932.7111546582864
 20
203.9403541472177
 30
0.0
 70
0
  0
VERTEX
  8
52
  6
CONTINUOUS
 62
7
 10
-2930.485821507965
 20
204.97804403715895
 30
0.0
 70
0
  0
VERTEX
  8
52
  6
CONTINUOUS
 62
7
 10
-2911.3945467862113
 20
203.15134976523677
 30
0.0
 70
0
  0
VERTEX
  8
52
  6
CONTINUOUS
 62
7
 10
-2911.0135581896375
 20
207.1331643879007
 30
0.0
 70
0
  0
VERTEX
  8
52
  6
CONTINUOUS
 62
7
 10
-2931.1891140516736
 20
209.06360501395375
 30
0.0
 70
0
  0
SEQEND
  8
0
  0
POLYLINE
  8
52
 62
5
 66
1
 10
0.0
 20
0.0
 30
0.0
 70
1
  0
VERTEX
  8
52
  6
CONTINUOUS
 62
7
 10
-2842.3941530975653
 20
239.8683764163643
 30
0.0
 70
0
  0
VERTEX
  8
52
  6
CONTINUOUS
 62
7
 10
-2838.5077924482503
 20
240.8150552972404
 30
0.0
 70
0
  0
VERTEX
  8
52
  6
CONTINUOUS
 62
7
 10
-2842.0647543568434
 20
255.41730012592484
 30
0.0
 70
0
  0
VERTEX
  8
52
  6
CONTINUOUS
 62
7
 10
-2841.888855677863
 20
261.8552654802236
 30
0.0
 70
0
  0
VERTEX
  8
52
  6
CONTINUOUS
 62
7
 10
-2845.8873635198534
 20
261.9645130776487
 30
0.0
 70
0
  0
VERTEX
  8
52
  6
CONTINUOUS
 62
7
 10
-2846.0778924277256
 20
254.99107521563815
 30
0.0
 70
0
  0
SEQEND
  8
0
  0
POLYLINE
  8
52
 62
5
 66
1
 10
0.0
 20
0.0
 30
0.0
 70
1
  0
VERTEX
  8
52
  6
CONTINUOUS
 62
7
 10
-2996.94558962296
 20
235.9170155549184
 30
0.0
 70
0
  0
VERTEX
  8
52
  6
CONTINUOUS
 62
7
 10
-2971.39063799461
 20
237.90308378319264
 30
0.0
 70
0
  0
VERTEX
  8
52
  6
CONTINUOUS
 62
7
 10
-2971.7005735950897
 20
241.89105819679799
 30
0.0
 70
0
  0
VERTEX
  8
52
  6
CONTINUOUS
 62
7
 10
-2997.255525223431
 20
239.9049899685283
 30
0.0
 70
0
  0
SEQEND
  8
0
  0
POLYLINE
  8
52
 62
5
 66
1
 10
0.0
 20
0.0
 30
0.0
 70
1
  0
VERTEX
  8
52
  6
CONTINUOUS
 62
7
 10
-3034.110383435804
 20
930.1250500131413
 30
0.0
 70
0
  0
VERTEX
  8
52
  6
CONTINUOUS
 62
7
 10
-3023.6621886793364
 20
919.5498321445059
 30
0.0
 70
0
  0
VERTEX
  8
52
  6
CONTINUOUS
 62
7
 10
-3006.869839318323
 20
911.9329421524892
 30
0.0
 70
0
  0
VERTEX
  8
52
  6
CONTINUOUS
 62
7
 10
-2994.848433435233
 20
909.8149702288284
 30
0.0
 70
0
  0
VERTEX
  8
52
  6
CONTINUOUS
 62
7
 10
-2976.4828729476058
 20
910.6553261817824
 30
0.0
 70
0
  0
VERTEX
  8
52
  6
CONTINUOUS
 62
7
 10
-2955.759936061646
 20
915.9050786090378
 30
0.0
 70
0
  0
VERTEX
  8
52
  6
CONTINUOUS
 62
7
 10
-2943.1937693815175
 20
917.3512666234931
 30
0.0
 70
0
  0
VERTEX
  8
52
  6
CONTINUOUS
 62
7
 10
-2930.266055697773
 20
915.655912967934
 30
0.0
 70
0
  0
VERTEX
  8
52
  6
CONTINUOUS
 62
7
 10
-2927.5471322958338
 20
916.9237677721951
 30
0.0
 70
0
  0
VERTEX
  8
52
  6
CONTINUOUS
 62
7
 10
-2923.621425354093
 20
913.2374653051248
 30
0.0
 70
0
  0
VERTEX
  8
52
  6
CONTINUOUS
 62
7
 10
-2920.9025019521537
 20
914.5053201093858
 30
0.0
 70
0
  0
VERTEX
  8
52
  6
CONTINUOUS
 62
7
 10
-2906.2232439315826
 20
911.4199691206163
 30
0.0
 70
0
  0
VERTEX
  8
52
  6
CONTINUOUS
 62
7
 10
-2892.3281511827167
 20
912.3824676025104
 30
0.0
 70
0
  0
VERTEX
  8
52
  6
CONTINUOUS
 62
7
 10
-2879.639841973643
 20
918.29912335574
 30
0.0
 70
0
  0
VERTEX
  8
52
  6
CONTINUOUS
 62
7
 10
-2871.4220005033444
 20
924.3379216379145
 30
0.0
 70
0
  0
VERTEX
  8
52
  6
CONTINUOUS
 62
7
 10
-2855.2257220373995
 20
944.027527611061
 30
0.0
 70
0
  0
VERTEX
  8
52
  6
CONTINUOUS
 62
7
 10
-2848.0314503134673
 20
961.7261847727144
 30
0.0
 70
0
  0
VERTEX
  8
52
  6
CONTINUOUS
 62
7
 10
-2846.636572397047
 20
980.030673995874
 30
0.0
 70
0
  0
VERTEX
  8
52
  6
CONTINUOUS
 62
7
 10
-2850.1347804874767
 20
999.3636135486233
 30
0.0
 70
0
  0
VERTEX
  8
52
  6
CONTINUOUS
 62
7
 10
-2856.474054508795
 20
1012.958230558346
 30
0.0
 70
0
  0
VERTEX
  8
52
  6
CONTINUOUS
 62
7
 10
-2864.2033258633137
 20
1024.8013032312467
 30
0.0
 70
0
  0
VERTEX
  8
52
  6
CONTINUOUS
 62
7
 10
-2882.080316235166
 20
1041.842818233355
 30
0.0
 70
0
  0
VERTEX
  8
52
  6
CONTINUOUS
 62
7
 10
-2893.9795795893206
 20
1048.4312578957856
 30
0.0
 70
0
  0
VERTEX
  8
52
  6
CONTINUOUS
 62
7
 10
-2900.2015916649084
 20
1049.9433977579365
 30
0.0
 70
0
  0
VERTEX
  8
52
  6
CONTINUOUS
 62
7
 10
-3049.0657142794203
 20
1021.3519009730132
 30
0.0
 70
0
  0
VERTEX
  8
52
  6
CONTINUOUS
 62
7
 10
-3059.8852172059364
 20
1001.9627707390013
 30
0.0
 70
0
  0
VERTEX
  8
52
  6
CONTINUOUS
 62
7
 10
-3059.223194463186
 20
993.4444535295588
 30
0.0
 70
0
  0
VERTEX
  8
52
  6
CONTINUOUS
 62
7
 10
-3049.803450036304
 20
977.9761496540648
 30
0.0
 70
0
  0
VERTEX
  8
52
  6
CONTINUOUS
 62
7
 10
-3042.435725685392
 20
969.2746186512045
 30
0.0
 70
0
  0
VERTEX
  8
52
  6
CONTINUOUS
 62
7
 10
-3036.5190699321624
 20
956.5863094421313
 30
0.0
 70
0
  0
VERTEX
  8
52
  6
CONTINUOUS
 62
7
 10
-3037.007640047946
 20
938.7044384870654
 30
0.0
 70
0
  0
SEQEND
  8
0
  0
POLYLINE
  8
52
 62
5
 66
1
 10
0.0
 20
0.0
 30
0.0
 70
1
  0
VERTEX
  8
52
  6
CONTINUOUS
 62
7
 10
-2909.9767203056026
 20
1109.162232040663
 30
0.0
 70
0
  0
VERTEX
  8
52
  6
CONTINUOUS
 62
7
 10
-2905.977864762889
 20
1109.2579104002489
 30
0.0
 70
0
  0
VERTEX
  8
52
  6
CONTINUOUS
 62
7
 10
-2906.3956024477548
 20
1126.7171630872267
 30
0.0
 70
0
  0
VERTEX
  8
52
  6
CONTINUOUS
 62
7
 10
-2910.394457990473
 20
1126.6214847276499
 30
0.0
 70
0
  0
SEQEND
  8
0
  0
POLYLINE
  8
53
 62
5
 66
1
 10
0.0
 20
0.0
 30
0.0
 70
1
  0
VERTEX
  8
53
  6
CONTINUOUS
 62
7
 10
-2801.752151258293
 20
-166.96492151554867
 30
0.0
 70
0
  0
VERTEX
  8
53
  6
CONTINUOUS
 62
7
 10
-2798.7938234261082
 20
-173.30907602480522
 30
0.0
 70
0
  0
VERTEX
  8
53
  6
CONTINUOUS
 62
7
 10
-2791.8204605394662
 20
-173.91916622403926
 30
0.0
 70
0
  0
VERTEX
  8
53
  6
CONTINUOUS
 62
7
 10
-2787.8054254850103
 20
-168.18510191401685
 30
0.0
 70
0
  0
VERTEX
  8
53
  6
CONTINUOUS
 62
7
 10
-2790.763753317195
 20
-161.8409474047603
 30
0.0
 70
0
  0
VERTEX
  8
53
  6
CONTINUOUS
 62
7
 10
-2797.737116203836
 20
-161.23085720552615
 30
0.0
 70
0
  0
SEQEND
  8
0
  0
POLYLINE
  8
53
 62
5
 66
1
 10
0.0
 20
0.0
 30
0.0
 70
1
  0
VERTEX
  8
53
  6
CONTINUOUS
 62
7
 10
-2754.41890523246
 20
-268.47139518812844
 30
0.0
 70
0
  0
VERTEX
  8
53
  6
CONTINUOUS
 62
7
 10
-2751.4605774002753
 20
-274.815549697385
 30
0.0
 70
0
  0
VERTEX
  8
53
  6
CONTINUOUS
 62
7
 10
-2744.4872145136333
 20
-275.42563989661903
 30
0.0
 70
0
  0
VERTEX
  8
53
  6
CONTINUOUS
 62
7
 10
-2740.4721794591774
 20
-269.6915755865966
 30
0.0
 70
0
  0
VERTEX
  8
53
  6
CONTINUOUS
 62
7
 10
-2743.430507291362
 20
-263.3474210773401
 30
0.0
 70
0
  0
VERTEX
  8
53
  6
CONTINUOUS
 62
7
 10
-2750.403870178003
 20
-262.7373308781059
 30
0.0
 70
0
  0
SEQEND
  8
0
  0
POLYLINE
  8
54
 62
5
 66
1
 10
0.0
 20
0.0
 30
0.0
 70
1
  0
VERTEX
  8
54
  6
CONTINUOUS
 62
7
 10
-2852.8803551744286
 20
293.0248302401094
 30
0.0
 70
0
  0
VERTEX
  8
54
  6
CONTINUOUS
 62
7
 10
-2850.706192569518
 20
290.72852510625853
 30
0.0
 70
0
  0
VERTEX
  8
54
  6
CONTINUOUS
 62
7
 10
-2847.08096136693
 20
292.41899817860804
 30
0.0
 70
0
  0
VERTEX
  8
54
  6
CONTINUOUS
 62
7
 10
-2843.817277167953
 20
297.251012920985
 30
0.0
 70
0
  0
VERTEX
  8
54
  6
CONTINUOUS
 62
7
 10
-2844.235014852823
 20
314.71026560797213
 30
0.0
 70
0
  0
VERTEX
  8
54
  6
CONTINUOUS
 62
7
 10
-2845.502869657084
 20
317.42918900991117
 30
0.0
 70
0
  0
VERTEX
  8
54
  6
CONTINUOUS
 62
7
 10
-2848.16072179455
 20
318.3965680750373
 30
0.0
 70
0
  0
VERTEX
  8
54
  6
CONTINUOUS
 62
7
 10
-2849.9733373958493
 20
317.5513315388605
 30
0.0
 70
0
  0
VERTEX
  8
54
  6
CONTINUOUS
 62
7
 10
-2851.4244059935363
 20
313.56455333265603
 30
0.0
 70
0
  0
VERTEX
  8
54
  6
CONTINUOUS
 62
7
 10
-2853.5423779171924
 20
301.5431474495565
 30
0.0
 70
0
  0
SEQEND
  8
0
  0
POLYLINE
  8
54
 62
5
 66
1
 10
0.0
 20
0.0
 30
0.0
 70
1
  0
VERTEX
  8
54
  6
CONTINUOUS
 62
7
 10
-3386.7910560150067
 20
1462.089707751958
 30
0.0
 70
0
  0
VERTEX
  8
54
  6
CONTINUOUS
 62
7
 10
-3379.3747808476733
 20
1449.6045356464545
 30
0.0
 70
0
  0
VERTEX
  8
54
  6
CONTINUOUS
 62
7
 10
-3365.2151503434825
 20
1448.4292348039548
 30
0.0
 70
0
  0
VERTEX
  8
54
  6
CONTINUOUS
 62
7
 10
-3354.034683908165
 20
1453.642771924488
 30
0.0
 70
0
  0
VERTEX
  8
54
  6
CONTINUOUS
 62
7
 10
-3339.7674259476535
 20
1456.4066810807235
 30
0.0
 70
0
  0
VERTEX
  8
54
  6
CONTINUOUS
 62
7
 10
-3327.205004934217
 20
1454.486589220996
 30
0.0
 70
0
  0
VERTEX
  8
54
  6
CONTINUOUS
 62
7
 10
-3316.1321659552214
 20
1455.7609163427942
 30
0.0
 70
0
  0
VERTEX
  8
54
  6
CONTINUOUS
 62
7
 10
-3314.7363678937845
 20
1456.41178766808
 30
0.0
 70
0
  0
VERTEX
  8
54
  6
CONTINUOUS
 62
7
 10
-3332.8663028631263
 20
1476.210453765847
 30
0.0
 70
0
  0
VERTEX
  8
54
  6
CONTINUOUS
 62
7
 10
-3332.8023252134635
 20
1476.5027887000613
 30
0.0
 70
0
  0
VERTEX
  8
54
  6
CONTINUOUS
 62
7
 10
-3341.1131193835754
 20
1481.097172465103
 30
0.0
 70
0
  0
VERTEX
  8
54
  6
CONTINUOUS
 62
7
 10
-3342.61168203267
 20
1478.4526820872852
 30
0.0
 70
0
  0
VERTEX
  8
54
  6
CONTINUOUS
 62
7
 10
-3351.420216895155
 20
1476.1396006332573
 30
0.0
 70
0
  0
VERTEX
  8
54
  6
CONTINUOUS
 62
7
 10
-3362.7916277395484
 20
1476.133330469227
 30
0.0
 70
0
  0
VERTEX
  8
54
  6
CONTINUOUS
 62
7
 10
-3366.4208488137565
 20
1466.5457515276337
 30
0.0
 70
0
  0
SEQEND
  8
0
  0
POLYLINE
  8
54
 62
5
 66
1
 10
0.0
 20
0.0
 30
0.0
 70
1
  0
VERTEX
  8
54
  6
CONTINUOUS
 62
7
 10
-3548.147872757693
 20
1283.7534470961175
 30
0.0
 70
0
  0
VERTEX
  8
54
  6
CONTINUOUS
 62
7
 10
-3536.887160403073
 20
1282.818767006489
 30
0.0
 70
0
  0
VERTEX
  8
54
  6
CONTINUOUS
 62
7
 10
-3517.191110409389
 20
1282.2806297248862
 30
0.0
 70
0
  0
VERTEX
  8
54
  6
CONTINUOUS
 62
7
 10
-3505.265852956849
 20
1285.896957354652
 30
0.0
 70
0
  0
VERTEX
  8
54
  6
CONTINUOUS
 62
7
 10
-3490.1461765227887
 20
1291.0028670188683
 30
0.0
 70
0
  0
VERTEX
  8
54
  6
CONTINUOUS
 62
7
 10
-3480.5629195782385
 20
1295.471613122179
 30
0.0
 70
0
  0
VERTEX
  8
54
  6
CONTINUOUS
 62
7
 10
-3470.019616703814
 20
1306.2215697322185
 30
0.0
 70
0
  0
VERTEX
  8
54
  6
CONTINUOUS
 62
7
 10
-3460.7506409511925
 20
1328.0443653212403
 30
0.0
 70
0
  0
VERTEX
  8
54
  6
CONTINUOUS
 62
7
 10
-3455.6361301099487
 20
1342.0963683691139
 30
0.0
 70
0
  0
VERTEX
  8
54
  6
CONTINUOUS
 62
7
 10
-3445.72999079643
 20
1358.3827444686424
 30
0.0
 70
0
  0
VERTEX
  8
54
  6
CONTINUOUS
 62
7
 10
-3436.56864250012
 20
1376.2663300589338
 30
0.0
 70
0
  0
VERTEX
  8
54
  6
CONTINUOUS
 62
7
 10
-3427.6225491164587
 20
1386.2714956517416
 30
0.0
 70
0
  0
VERTEX
  8
54
  6
CONTINUOUS
 62
7
 10
-3403.3415243861064
 20
1409.2609909062405
 30
0.0
 70
0
  0
VERTEX
  8
54
  6
CONTINUOUS
 62
7
 10
-3398.334641001184
 20
1419.373783955379
 30
0.0
 70
0
  0
VERTEX
  8
54
  6
CONTINUOUS
 62
7
 10
-3392.475339142721
 20
1431.8285775124943
 30
0.0
 70
0
  0
VERTEX
  8
54
  6
CONTINUOUS
 62
7
 10
-3396.513575420746
 20
1457.1686744520061
 30
0.0
 70
0
  0
VERTEX
  8
54
  6
CONTINUOUS
 62
7
 10
-3397.132570682471
 20
1461.411340968959
 30
0.0
 70
0
  0
VERTEX
  8
54
  6
CONTINUOUS
 62
7
 10
-3414.6398933549513
 20
1464.5008745550474
 30
0.0
 70
0
  0
VERTEX
  8
54
  6
CONTINUOUS
 62
7
 10
-3440.194157420823
 20
1454.4925376012961
 30
0.0
 70
0
  0
VERTEX
  8
54
  6
CONTINUOUS
 62
7
 10
-3466.629898423489
 20
1431.7595261374313
 30
0.0
 70
0
  0
VERTEX
  8
54
  6
CONTINUOUS
 62
7
 10
-3453.444861325198
 20
1417.3782754437564
 30
0.0
 70
0
  0
VERTEX
  8
54
  6
CONTINUOUS
 62
7
 10
-3458.381253877846
 20
1415.2965958476793
 30
0.0
 70
0
  0
VERTEX
  8
54
  6
CONTINUOUS
 62
7
 10
-3476.6414425051125
 20
1427.6310735374482
 30
0.0
 70
0
  0
VERTEX
  8
54
  6
CONTINUOUS
 62
7
 10
-3476.5057950180562
 20
1420.4755888441798
 30
0.0
 70
0
  0
VERTEX
  8
54
  6
CONTINUOUS
 62
7
 10
-3481.589228877801
 20
1417.8057277654605
 30
0.0
 70
0
  0
VERTEX
  8
54
  6
CONTINUOUS
 62
7
 10
-3477.0230126788233
 20
1393.9888591007505
 30
0.0
 70
0
  0
VERTEX
  8
54
  6
CONTINUOUS
 62
7
 10
-3482.477669118592
 20
1379.0062020685446
 30
0.0
 70
0
  0
VERTEX
  8
54
  6
CONTINUOUS
 62
7
 10
-3498.3037116255764
 20
1356.745962352663
 30
0.0
 70
0
  0
VERTEX
  8
54
  6
CONTINUOUS
 62
7
 10
-3499.8668318597465
 20
1362.4019621304471
 30
0.0
 70
0
  0
VERTEX
  8
54
  6
CONTINUOUS
 62
7
 10
-3509.2120078446987
 20
1358.254484828093
 30
0.0
 70
0
  0
VERTEX
  8
54
  6
CONTINUOUS
 62
7
 10
-3505.0856664978132
 20
1351.3086167348106
 30
0.0
 70
0
  0
VERTEX
  8
54
  6
CONTINUOUS
 62
7
 10
-3519.998140554546
 20
1340.1894396579928
 30
0.0
 70
0
  0
VERTEX
  8
54
  6
CONTINUOUS
 62
7
 10
-3523.9098242755804
 20
1337.3055064277498
 30
0.0
 70
0
  0
VERTEX
  8
54
  6
CONTINUOUS
 62
7
 10
-3520.191531755404
 20
1330.167385384233
 30
0.0
 70
0
  0
VERTEX
  8
54
  6
CONTINUOUS
 62
7
 10
-3526.5896023989917
 20
1326.0595002280982
 30
0.0
 70
0
  0
VERTEX
  8
54
  6
CONTINUOUS
 62
7
 10
-3529.7908756152883
 20
1332.9696345636407
 30
0.0
 70
0
  0
VERTEX
  8
54
  6
CONTINUOUS
 62
7
 10
-3523.9098242755804
 20
1337.3055064277498
 30
0.0
 70
0
  0
VERTEX
  8
54
  6
CONTINUOUS
 62
7
 10
-3525.814814279053
 20
1340.962574600237
 30
0.0
 70
0
  0
VERTEX
  8
54
  6
CONTINUOUS
 62
7
 10
-3549.4031473876666
 20
1329.8777052555404
 30
0.0
 70
0
  0
VERTEX
  8
54
  6
CONTINUOUS
 62
7
 10
-3541.9607051431344
 20
1314.116766655525
 30
0.0
 70
0
  0
VERTEX
  8
54
  6
CONTINUOUS
 62
7
 10
-3544.3700269641186
 20
1310.3066153766322
 30
0.0
 70
0
  0
VERTEX
  8
54
  6
CONTINUOUS
 62
7
 10
-3552.9869827038783
 20
1295.99257121671
 30
0.0
 70
0
  0
VERTEX
  8
54
  6
CONTINUOUS
 62
7
 10
-3543.6270687480683
 20
1294.6510732062177
 30
0.0
 70
0
  0
VERTEX
  8
54
  6
CONTINUOUS
 62
7
 10
-3533.1322017552375
 20
1299.8691609145922
 30
0.0
 70
0
  0
VERTEX
  8
54
  6
CONTINUOUS
 62
7
 10
-3527.979450473331
 20
1309.6658976127208
 30
0.0
 70
0
  0
VERTEX
  8
54
  6
CONTINUOUS
 62
7
 10
-3531.29652361618
 20
1323.0374185918874
 30
0.0
 70
0
  0
VERTEX
  8
54
  6
CONTINUOUS
 62
7
 10
-3534.320515556349
 20
1321.0958627236694
 30
0.0
 70
0
  0
VERTEX
  8
54
  6
CONTINUOUS
 62
7
 10
-3536.200496106777
 20
1322.876140425396
 30
0.0
 70
0
  0
VERTEX
  8
54
  6
CONTINUOUS
 62
7
 10
-3531.937241182981
 20
1325.6202282006025
 30
0.0
 70
0
  0
VERTEX
  8
54
  6
CONTINUOUS
 62
7
 10
-3531.29652361618
 20
1323.0374185918874
 30
0.0
 70
0
  0
VERTEX
  8
54
  6
CONTINUOUS
 62
7
 10
-3526.5896023989917
 20
1326.0595002280982
 30
0.0
 70
0
  0
VERTEX
  8
54
  6
CONTINUOUS
 62
7
 10
-3521.0947241024833
 20
1314.1984859938154
 30
0.0
 70
0
  0
VERTEX
  8
54
  6
CONTINUOUS
 62
7
 10
-3528.310486461218
 20
1294.4243219599612
 30
0.0
 70
0
  0
VERTEX
  8
54
  6
CONTINUOUS
 62
7
 10
-3548.300035383059
 20
1285.0683678842445
 30
0.0
 70
0
  0
SEQEND
  8
0
  0
POLYLINE
  8
54
 62
5
 66
1
 10
0.0
 20
0.0
 30
0.0
 70
1
  0
VERTEX
  8
54
  6
CONTINUOUS
 62
7
 10
-3576.8852920583686
 20
648.3584254039911
 30
0.0
 70
0
  0
VERTEX
  8
54
  6
CONTINUOUS
 62
7
 10
-3570.533762223323
 20
645.8771981168443
 30
0.0
 70
0
  0
VERTEX
  8
54
  6
CONTINUOUS
 62
7
 10
-3562.4029754746825
 20
621.9885536837478
 30
0.0
 70
0
  0
VERTEX
  8
54
  6
CONTINUOUS
 62
7
 10
-3558.907783063825
 20
621.1391146747867
 30
0.0
 70
0
  0
VERTEX
  8
54
  6
CONTINUOUS
 62
7
 10
-3527.5017305302404
 20
616.3388850254707
 30
0.0
 70
0
  0
VERTEX
  8
54
  6
CONTINUOUS
 62
7
 10
-3514.8316820604864
 20
618.3580031644872
 30
0.0
 70
0
  0
VERTEX
  8
54
  6
CONTINUOUS
 62
7
 10
-3494.1755861369325
 20
624.1010763896004
 30
0.0
 70
0
  0
VERTEX
  8
54
  6
CONTINUOUS
 62
7
 10
-3481.397910210857
 20
630.0594045273522
 30
0.0
 70
0
  0
VERTEX
  8
54
  6
CONTINUOUS
 62
7
 10
-3468.5126068284603
 20
639.9569426638384
 30
0.0
 70
0
  0
VERTEX
  8
54
  6
CONTINUOUS
 62
7
 10
-3458.929349883902
 20
644.4256887671531
 30
0.0
 70
0
  0
VERTEX
  8
54
  6
CONTINUOUS
 62
7
 10
-3443.0648824326317
 20
647.9343889406068
 30
0.0
 70
0
  0
VERTEX
  8
54
  6
CONTINUOUS
 62
7
 10
-3431.9920434536316
 20
649.208716062396
 30
0.0
 70
0
  0
VERTEX
  8
54
  6
CONTINUOUS
 62
7
 10
-3433.0511156627826
 20
668.1599750388748
 30
0.0
 70
0
  0
VERTEX
  8
54
  6
CONTINUOUS
 62
7
 10
-3435.8150248190173
 20
682.4272329993867
 30
0.0
 70
0
  0
VERTEX
  8
54
  6
CONTINUOUS
 62
7
 10
-3431.4453049949916
 20
698.0764455380188
 30
0.0
 70
0
  0
VERTEX
  8
54
  6
CONTINUOUS
 62
7
 10
-3434.316841607548
 20
708.4044934997958
 30
0.0
 70
0
  0
VERTEX
  8
54
  6
CONTINUOUS
 62
7
 10
-3433.993959238579
 20
720.2221234960139
 30
0.0
 70
0
  0
VERTEX
  8
54
  6
CONTINUOUS
 62
7
 10
-3438.4627053418944
 20
729.8053804405729
 30
0.0
 70
0
  0
VERTEX
  8
54
  6
CONTINUOUS
 62
7
 10
-3445.2734519531946
 20
740.2410558586669
 30
0.0
 70
0
  0
VERTEX
  8
54
  6
CONTINUOUS
 62
7
 10
-3449.7421980565096
 20
749.8243128032254
 30
0.0
 70
0
  0
VERTEX
  8
54
  6
CONTINUOUS
 62
7
 10
-3456.5529446678006
 20
760.2599882213242
 30
0.0
 70
0
  0
VERTEX
  8
54
  6
CONTINUOUS
 62
7
 10
-3465.068528226172
 20
766.0116626234694
 30
0.0
 70
0
  0
VERTEX
  8
54
  6
CONTINUOUS
 62
7
 10
-3476.7785307660647
 20
770.273754991164
 30
0.0
 70
0
  0
VERTEX
  8
54
  6
CONTINUOUS
 62
7
 10
-3551.623520742087
 20
772.3186766612771
 30
0.0
 70
0
  0
VERTEX
  8
54
  6
CONTINUOUS
 62
7
 10
-3572.809152770221
 20
776.0512329244016
 30
0.0
 70
0
  0
VERTEX
  8
54
  6
CONTINUOUS
 62
7
 10
-3587.8212017479555
 20
774.8845332589337
 30
0.0
 70
0
  0
VERTEX
  8
54
  6
CONTINUOUS
 62
7
 10
-3598.0416222534113
 20
775.952206645112
 30
0.0
 70
0
  0
VERTEX
  8
54
  6
CONTINUOUS
 62
7
 10
-3609.8592522496256
 20
776.2750890140724
 30
0.0
 70
0
  0
VERTEX
  8
54
  6
CONTINUOUS
 62
7
 10
-3610.1941714230857
 20
776.3262794317454
 30
0.0
 70
0
  0
VERTEX
  8
54
  6
CONTINUOUS
 62
7
 10
-3595.0372607900376
 20
720.4110179573636
 30
0.0
 70
0
  0
VERTEX
  8
54
  6
CONTINUOUS
 62
7
 10
-3584.8323524564225
 20
679.6159749402952
 30
0.0
 70
0
  0
VERTEX
  8
54
  6
CONTINUOUS
 62
7
 10
-3581.841397915615
 20
676.0981601211895
 30
0.0
 70
0
  0
VERTEX
  8
54
  6
CONTINUOUS
 62
7
 10
-3582.8961854514555
 20
672.8962307976301
 30
0.0
 70
0
  0
VERTEX
  8
54
  6
CONTINUOUS
 62
7
 10
-3574.9000833319037
 20
656.2879761486001
 30
0.0
 70
0
  0
SEQEND
  8
0
  0
POLYLINE
  8
54
 62
5
 66
1
 10
0.0
 20
0.0
 30
0.0
 70
1
  0
VERTEX
  8
54
  6
CONTINUOUS
 62
7
 10
-2416.2063098821013
 20
1021.4001449095375
 30
0.0
 70
0
  0
VERTEX
  8
54
  6
CONTINUOUS
 62
7
 10
-2414.0690173205016
 20
1020.6222340351967
 30
0.0
 70
0
  0
VERTEX
  8
54
  6
CONTINUOUS
 62
7
 10
-2401.4340085292943
 20
1005.0394626881592
 30
0.0
 70
0
  0
VERTEX
  8
54
  6
CONTINUOUS
 62
7
 10
-2398.327017656669
 20
1007.5587101387839
 30
0.0
 70
0
  0
VERTEX
  8
54
  6
CONTINUOUS
 62
7
 10
-2411.659817595454
 20
1024.0020681367791
 30
0.0
 70
0
  0
VERTEX
  8
54
  6
CONTINUOUS
 62
7
 10
-2414.8382293087966
 20
1025.1589153926861
 30
0.0
 70
0
  0
SEQEND
  8
0
  0
POLYLINE
  8
54
 62
5
 66
1
 10
0.0
 20
0.0
 30
0.0
 70
1
  0
VERTEX
  8
54
  6
CONTINUOUS
 62
7
 10
-2448.5963636690763
 20
1046.7810795328332
 30
0.0
 70
0
  0
VERTEX
  8
54
  6
CONTINUOUS
 62
7
 10
-2443.625765553858
 20
1038.6187856737981
 30
0.0
 70
0
  0
VERTEX
  8
54
  6
CONTINUOUS
 62
7
 10
-2440.2093887996425
 20
1040.6992591471453
 30
0.0
 70
0
  0
VERTEX
  8
54
  6
CONTINUOUS
 62
7
 10
-2444.6585351112976
 20
1048.0052691635865
 30
0.0
 70
0
  0
VERTEX
  8
54
  6
CONTINUOUS
 62
7
 10
-2445.2315165942714
 20
1058.2583193133587
 30
0.0
 70
0
  0
VERTEX
  8
54
  6
CONTINUOUS
 62
7
 10
-2449.2252851426674
 20
1058.0351315407377
 30
0.0
 70
0
  0
SEQEND
  8
0
  0
POLYLINE
  8
54
 62
5
 66
1
 10
0.0
 20
0.0
 30
0.0
 70
1
  0
VERTEX
  8
54
  6
CONTINUOUS
 62
7
 10
-2569.118291022109
 20
1132.610510525228
 30
0.0
 70
0
  0
VERTEX
  8
54
  6
CONTINUOUS
 62
7
 10
-2565.314726609318
 20
1124.4537403193924
 30
0.0
 70
0
  0
VERTEX
  8
54
  6
CONTINUOUS
 62
7
 10
-2557.040694457765
 20
1116.1748275846169
 30
0.0
 70
0
  0
VERTEX
  8
54
  6
CONTINUOUS
 62
7
 10
-2543.8125050348767
 20
1109.102698389634
 30
0.0
 70
0
  0
VERTEX
  8
54
  6
CONTINUOUS
 62
7
 10
-2521.5823088699854
 20
1104.0215180061393
 30
0.0
 70
0
  0
VERTEX
  8
54
  6
CONTINUOUS
 62
7
 10
-2514.637202787157
 20
1096.22629480392
 30
0.0
 70
0
  0
VERTEX
  8
54
  6
CONTINUOUS
 62
7
 10
-2506.546384429026
 20
1081.2416804609916
 30
0.0
 70
0
  0
VERTEX
  8
54
  6
CONTINUOUS
 62
7
 10
-2500.446514882375
 20
1075.2590728600708
 30
0.0
 70
0
  0
VERTEX
  8
54
  6
CONTINUOUS
 62
7
 10
-2488.969869796313
 20
1069.5769409982981
 30
0.0
 70
0
  0
VERTEX
  8
54
  6
CONTINUOUS
 62
7
 10
-2473.806922243186
 20
1067.8205160782531
 30
0.0
 70
0
  0
VERTEX
  8
54
  6
CONTINUOUS
 62
7
 10
-2401.100398174952
 20
1059.398436514232
 30
0.0
 70
0
  0
VERTEX
  8
54
  6
CONTINUOUS
 62
7
 10
-2426.937647118272
 20
1068.8209426159888
 30
0.0
 70
0
  0
VERTEX
  8
54
  6
CONTINUOUS
 62
7
 10
-2525.679705071456
 20
1150.6626240359856
 30
0.0
 70
0
  0
VERTEX
  8
54
  6
CONTINUOUS
 62
7
 10
-2561.5919477186826
 20
1161.480846443957
 30
0.0
 70
0
  0
VERTEX
  8
54
  6
CONTINUOUS
 62
7
 10
-2570.7513168020982
 20
1161.8322144193735
 30
0.0
 70
0
  0
VERTEX
  8
54
  6
CONTINUOUS
 62
7
 10
-2569.719242500397
 20
1143.3640616040534
 30
0.0
 70
0
  0
SEQEND
  8
0
  0
POLYLINE
  8
54
 62
5
 66
1
 10
0.0
 20
0.0
 30
0.0
 70
1
  0
VERTEX
  8
54
  6
CONTINUOUS
 62
7
 10
-3233.546777462098
 20
262.26642775086907
 30
0.0
 70
0
  0
VERTEX
  8
54
  6
CONTINUOUS
 62
7
 10
-3231.4336861216602
 20
257.7348887476312
 30
0.0
 70
0
  0
VERTEX
  8
54
  6
CONTINUOUS
 62
7
 10
-3227.930597448021
 20
254.95489408121534
 30
0.0
 70
0
  0
VERTEX
  8
54
  6
CONTINUOUS
 62
7
 10
-3218.6281149668694
 20
251.56906735329335
 30
0.0
 70
0
  0
VERTEX
  8
54
  6
CONTINUOUS
 62
7
 10
-3206.123019551209
 20
250.7800214983747
 30
0.0
 70
0
  0
VERTEX
  8
54
  6
CONTINUOUS
 62
7
 10
-3201.168862279883
 20
251.98680503816308
 30
0.0
 70
0
  0
VERTEX
  8
54
  6
CONTINUOUS
 62
7
 10
-3195.608872947046
 20
258.99298238545475
 30
0.0
 70
0
  0
VERTEX
  8
54
  6
CONTINUOUS
 62
7
 10
-3197.2993460193998
 20
262.6182135880524
 30
0.0
 70
0
  0
VERTEX
  8
54
  6
CONTINUOUS
 62
7
 10
-3208.353372837373
 20
267.3940376491755
 30
0.0
 70
0
  0
VERTEX
  8
54
  6
CONTINUOUS
 62
7
 10
-3222.1873943217624
 20
268.6667730366596
 30
0.0
 70
0
  0
SEQEND
  8
0
  0
POLYLINE
  8
54
 62
5
 66
1
 10
0.0
 20
0.0
 30
0.0
 70
1
  0
VERTEX
  8
54
  6
CONTINUOUS
 62
7
 10
-3307.607594573533
 20
482.611604670853
 30
0.0
 70
0
  0
VERTEX
  8
54
  6
CONTINUOUS
 62
7
 10
-3304.165577164353
 20
477.5963761350449
 30
0.0
 70
0
  0
VERTEX
  8
54
  6
CONTINUOUS
 62
7
 10
-3298.849872889415
 20
475.6616180048061
 30
0.0
 70
0
  0
VERTEX
  8
54
  6
CONTINUOUS
 62
7
 10
-3294.3183338861772
 20
477.774709345244
 30
0.0
 70
0
  0
VERTEX
  8
54
  6
CONTINUOUS
 62
7
 10
-3291.416196690816
 20
485.7482657576577
 30
0.0
 70
0
  0
VERTEX
  8
54
  6
CONTINUOUS
 62
7
 10
-3294.8582140999824
 20
490.7634942934608
 30
0.0
 70
0
  0
VERTEX
  8
54
  6
CONTINUOUS
 62
7
 10
-3302.8317705123964
 20
493.6656314888219
 30
0.0
 70
0
  0
VERTEX
  8
54
  6
CONTINUOUS
 62
7
 10
-3306.457001714994
 20
491.97515841646805
 30
0.0
 70
0
  0
SEQEND
  8
0
  0
POLYLINE
  8
54
 62
5
 66
1
 10
0.0
 20
0.0
 30
0.0
 70
1
  0
VERTEX
  8
54
  6
CONTINUOUS
 62
7
 10
-3231.199162230212
 20
233.5699344524919
 30
0.0
 70
0
  0
VERTEX
  8
54
  6
CONTINUOUS
 62
7
 10
-3229.508689157863
 20
229.94470324990334
 30
0.0
 70
0
  0
VERTEX
  8
54
  6
CONTINUOUS
 62
7
 10
-3221.535132745449
 20
227.04256605454225
 30
0.0
 70
0
  0
VERTEX
  8
54
  6
CONTINUOUS
 62
7
 10
-3193.383400244101
 20
225.82602134831632
 30
0.0
 70
0
  0
VERTEX
  8
54
  6
CONTINUOUS
 62
7
 10
-3163.5411946704075
 20
220.9842454394884
 30
0.0
 70
0
  0
VERTEX
  8
54
  6
CONTINUOUS
 62
7
 10
-3159.009655667169
 20
223.09733677992654
 30
0.0
 70
0
  0
VERTEX
  8
54
  6
CONTINUOUS
 62
7
 10
-3159.3712026707854
 20
226.23887844996284
 30
0.0
 70
0
  0
VERTEX
  8
54
  6
CONTINUOUS
 62
7
 10
-3167.7673773512875
 20
230.04732344597323
 30
0.0
 70
0
  0
VERTEX
  8
54
  6
CONTINUOUS
 62
7
 10
-3194.951730787514
 20
233.92172028967525
 30
0.0
 70
0
  0
VERTEX
  8
54
  6
CONTINUOUS
 62
7
 10
-3210.598367873202
 20
234.3492191409821
 30
0.0
 70
0
  0
VERTEX
  8
54
  6
CONTINUOUS
 62
7
 10
-3218.1493060175276
 20
236.34504853569388
 30
0.0
 70
0
  0
VERTEX
  8
54
  6
CONTINUOUS
 62
7
 10
-3227.0902414950538
 20
236.58933359358343
 30
0.0
 70
0
  0
SEQEND
  8
0
  0
POLYLINE
  8
54
 62
5
 66
1
 10
0.0
 20
0.0
 30
0.0
 70
1
  0
VERTEX
  8
54
  6
CONTINUOUS
 62
7
 10
-2679.424035310408
 20
1156.203796841393
 30
0.0
 70
0
  0
VERTEX
  8
54
  6
CONTINUOUS
 62
7
 10
-2673.807855296317
 20
1148.8922631717342
 30
0.0
 70
0
  0
VERTEX
  8
54
  6
CONTINUOUS
 62
7
 10
-2665.4116806158154
 20
1145.0838181757235
 30
0.0
 70
0
  0
VERTEX
  8
54
  6
CONTINUOUS
 62
7
 10
-2658.7059790076623
 20
1144.9006043823015
 30
0.0
 70
0
  0
VERTEX
  8
54
  6
CONTINUOUS
 62
7
 10
-2650.732422595249
 20
1141.9984671869406
 30
0.0
 70
0
  0
VERTEX
  8
54
  6
CONTINUOUS
 62
7
 10
-2638.110065233871
 20
1129.1269441844547
 30
0.0
 70
0
  0
VERTEX
  8
54
  6
CONTINUOUS
 62
7
 10
-2630.5591270895457
 20
1127.1311147897432
 30
0.0
 70
0
  0
VERTEX
  8
54
  6
CONTINUOUS
 62
7
 10
-2616.541891811735
 20
1132.5640810104119
 30
0.0
 70
0
  0
VERTEX
  8
54
  6
CONTINUOUS
 62
7
 10
-2612.7945180801967
 20
1138.7250218215265
 30
0.0
 70
0
  0
VERTEX
  8
54
  6
CONTINUOUS
 62
7
 10
-2613.156065083813
 20
1141.8665634915628
 30
0.0
 70
0
  0
VERTEX
  8
54
  6
CONTINUOUS
 62
7
 10
-2600.3220348054924
 20
1162.9665942270908
 30
0.0
 70
0
  0
VERTEX
  8
54
  6
CONTINUOUS
 62
7
 10
-2618.496706174508
 20
1163.6638035474525
 30
0.0
 70
0
  0
VERTEX
  8
54
  6
CONTINUOUS
 62
7
 10
-2626.6839743963183
 20
1149.9821386760623
 30
0.0
 70
0
  0
VERTEX
  8
54
  6
CONTINUOUS
 62
7
 10
-2630.3443758246094
 20
1164.1614616688953
 30
0.0
 70
0
  0
VERTEX
  8
54
  6
CONTINUOUS
 62
7
 10
-2643.808061775606
 20
1169.5791581256055
 30
0.0
 70
0
  0
VERTEX
  8
54
  6
CONTINUOUS
 62
7
 10
-2676.913968925941
 20
1181.6196439385285
 30
0.0
 70
0
  0
VERTEX
  8
54
  6
CONTINUOUS
 62
7
 10
-2688.1339014912764
 20
1193.452881345785
 30
0.0
 70
0
  0
VERTEX
  8
54
  6
CONTINUOUS
 62
7
 10
-2689.8530847418497
 20
1193.7139307057519
 30
0.0
 70
0
  0
VERTEX
  8
54
  6
CONTINUOUS
 62
7
 10
-2682.6828389261614
 20
1167.924726985344
 30
0.0
 70
0
  0
SEQEND
  8
0
  0
POLYLINE
  8
54
 62
5
 66
1
 10
0.0
 20
0.0
 30
0.0
 70
1
  0
VERTEX
  8
54
  6
CONTINUOUS
 62
7
 10
-3532.245033970539
 20
808.1788412297878
 30
0.0
 70
0
  0
VERTEX
  8
54
  6
CONTINUOUS
 62
7
 10
-3530.131942630101
 20
803.6473022265498
 30
0.0
 70
0
  0
VERTEX
  8
54
  6
CONTINUOUS
 62
7
 10
-3521.3131496815104
 20
798.9325494298898
 30
0.0
 70
0
  0
VERTEX
  8
54
  6
CONTINUOUS
 62
7
 10
-3507.784484519479
 20
786.4836446954832
 30
0.0
 70
0
  0
VERTEX
  8
54
  6
CONTINUOUS
 62
7
 10
-3482.3565560033107
 20
767.4463002986588
 30
0.0
 70
0
  0
VERTEX
  8
54
  6
CONTINUOUS
 62
7
 10
-3471.7251474534214
 20
763.5767840381764
 30
0.0
 70
0
  0
VERTEX
  8
54
  6
CONTINUOUS
 62
7
 10
-3465.019445845269
 20
763.3935702447545
 30
0.0
 70
0
  0
VERTEX
  8
54
  6
CONTINUOUS
 62
7
 10
-3458.675291240732
 20
766.3518981213692
 30
0.0
 70
0
  0
VERTEX
  8
54
  6
CONTINUOUS
 62
7
 10
-3451.3026863066007
 20
774.2033120048468
 30
0.0
 70
0
  0
VERTEX
  8
54
  6
CONTINUOUS
 62
7
 10
-3442.840559778403
 20
789.1830457645519
 30
0.0
 70
0
  0
VERTEX
  8
54
  6
CONTINUOUS
 62
7
 10
-3418.1821547842746
 20
823.8523854974085
 30
0.0
 70
0
  0
VERTEX
  8
54
  6
CONTINUOUS
 62
7
 10
-3412.922641190581
 20
836.2353383841241
 30
0.0
 70
0
  0
VERTEX
  8
54
  6
CONTINUOUS
 62
7
 10
-3418.961439472756
 20
844.4531798544231
 30
0.0
 70
0
  0
VERTEX
  8
54
  6
CONTINUOUS
 62
7
 10
-3443.905678456377
 20
864.8194503199895
 30
0.0
 70
0
  0
VERTEX
  8
54
  6
CONTINUOUS
 62
7
 10
-3473.8040747113196
 20
883.9789372457587
 30
0.0
 70
0
  0
VERTEX
  8
54
  6
CONTINUOUS
 62
7
 10
-3492.7192765792033
 20
863.0214764683517
 30
0.0
 70
0
  0
VERTEX
  8
54
  6
CONTINUOUS
 62
7
 10
-3508.070318508971
 20
841.5192548939062
 30
0.0
 70
0
  0
VERTEX
  8
54
  6
CONTINUOUS
 62
7
 10
-3524.689215242991
 20
822.7359567214044
 30
0.0
 70
0
  0
SEQEND
  8
0
  0
POLYLINE
  8
54
 62
5
 66
1
 10
0.0
 20
0.0
 30
0.0
 70
1
  0
VERTEX
  8
54
  6
CONTINUOUS
 62
7
 10
-3346.263712512603
 20
508.72107826266483
 30
0.0
 70
0
  0
VERTEX
  8
54
  6
CONTINUOUS
 62
7
 10
-3339.558010904441
 20
508.5378644692473
 30
0.0
 70
0
  0
VERTEX
  8
54
  6
CONTINUOUS
 62
7
 10
-3336.3553979699414
 20
511.13464534224613
 30
0.0
 70
0
  0
VERTEX
  8
54
  6
CONTINUOUS
 62
7
 10
-3331.03481311178
 20
525.7528320983356
 30
0.0
 70
0
  0
VERTEX
  8
54
  6
CONTINUOUS
 62
7
 10
-3322.572686583587
 20
540.7325658580498
 30
0.0
 70
0
  0
VERTEX
  8
54
  6
CONTINUOUS
 62
7
 10
-3314.7725827981444
 20
564.2306168272064
 30
0.0
 70
0
  0
VERTEX
  8
54
  6
CONTINUOUS
 62
7
 10
-3303.4083190745896
 20
587.1839069993346
 30
0.0
 70
0
  0
VERTEX
  8
54
  6
CONTINUOUS
 62
7
 10
-3300.4451106147612
 20
597.3926972811221
 30
0.0
 70
0
  0
VERTEX
  8
54
  6
CONTINUOUS
 62
7
 10
-3302.0134411581653
 20
605.4883962224851
 30
0.0
 70
0
  0
VERTEX
  8
54
  6
CONTINUOUS
 62
7
 10
-3307.812834965669
 20
606.0942282839951
 30
0.0
 70
0
  0
VERTEX
  8
54
  6
CONTINUOUS
 62
7
 10
-3315.0632973708553
 20
602.713282139292
 30
0.0
 70
0
  0
VERTEX
  8
54
  6
CONTINUOUS
 62
7
 10
-3321.5906657688047
 20
593.0492526545288
 30
0.0
 70
0
  0
VERTEX
  8
54
  6
CONTINUOUS
 62
7
 10
-3347.89311432048
 20
514.5815433346406
 30
0.0
 70
0
  0
SEQEND
  8
0
  0
POLYLINE
  8
54
 62
5
 66
1
 10
0.0
 20
0.0
 30
0.0
 70
1
  0
VERTEX
  8
54
  6
CONTINUOUS
 62
7
 10
-3176.0927196008843
 20
269.1968920840327
 30
0.0
 70
0
  0
VERTEX
  8
54
  6
CONTINUOUS
 62
7
 10
-3171.3217761229707
 20
263.697974015673
 30
0.0
 70
0
  0
VERTEX
  8
54
  6
CONTINUOUS
 62
7
 10
-3166.0060718480327
 20
261.76321588543374
 30
0.0
 70
0
  0
VERTEX
  8
54
  6
CONTINUOUS
 62
7
 10
-3143.714804418655
 20
258.91726937132194
 30
0.0
 70
0
  0
VERTEX
  8
54
  6
CONTINUOUS
 62
7
 10
-3140.0895732160666
 20
260.60774244367144
 30
0.0
 70
0
  0
VERTEX
  8
54
  6
CONTINUOUS
 62
7
 10
-3140.8737384877713
 20
264.65559191435705
 30
0.0
 70
0
  0
VERTEX
  8
54
  6
CONTINUOUS
 62
7
 10
-3156.8208513125987
 20
270.45986630507923
 30
0.0
 70
0
  0
VERTEX
  8
54
  6
CONTINUOUS
 62
7
 10
-3172.890106666375
 20
271.7936729570358
 30
0.0
 70
0
  0
SEQEND
  8
0
  0
POLYLINE
  8
54
 62
5
 66
1
 10
0.0
 20
0.0
 30
0.0
 70
1
  0
VERTEX
  8
54
  6
CONTINUOUS
 62
7
 10
-2824.947137931397
 20
1184.650338798735
 30
0.0
 70
0
  0
VERTEX
  8
54
  6
CONTINUOUS
 62
7
 10
-2814.583219091611
 20
1174.655123129103
 30
0.0
 70
0
  0
VERTEX
  8
54
  6
CONTINUOUS
 62
7
 10
-2798.28593659342
 20
1169.5133425131007
 30
0.0
 70
0
  0
VERTEX
  8
54
  6
CONTINUOUS
 62
7
 10
-2790.3338122304644
 20
1169.7634439059611
 30
0.0
 70
0
  0
VERTEX
  8
54
  6
CONTINUOUS
 62
7
 10
-2790.4595536188904
 20
1173.7614670553726
 30
0.0
 70
0
  0
VERTEX
  8
54
  6
CONTINUOUS
 62
7
 10
-2797.731448073526
 20
1173.5327594988948
 30
0.0
 70
0
  0
VERTEX
  8
54
  6
CONTINUOUS
 62
7
 10
-2812.4831546888254
 20
1178.1869120630422
 30
0.0
 70
0
  0
VERTEX
  8
54
  6
CONTINUOUS
 62
7
 10
-2822.170388825794
 20
1187.5295165293733
 30
0.0
 70
0
  0
SEQEND
  8
0
  0
POLYLINE
  8
54
 62
5
 66
1
 10
0.0
 20
0.0
 30
0.0
 70
1
  0
VERTEX
  8
54
  6
CONTINUOUS
 62
7
 10
-3182.2487798287802
 20
289.497210701908
 30
0.0
 70
0
  0
VERTEX
  8
54
  6
CONTINUOUS
 62
7
 10
-3180.980925024515
 20
286.77828729995986
 30
0.0
 70
0
  0
VERTEX
  8
54
  6
CONTINUOUS
 62
7
 10
-3169.4432086739807
 20
283.33138930757445
 30
0.0
 70
0
  0
VERTEX
  8
54
  6
CONTINUOUS
 62
7
 10
-3156.81597072938
 20
287.01281119141686
 30
0.0
 70
0
  0
VERTEX
  8
54
  6
CONTINUOUS
 62
7
 10
-3147.752892722904
 20
291.23899387229267
 30
0.0
 70
0
  0
VERTEX
  8
54
  6
CONTINUOUS
 62
7
 10
-3147.208131925866
 20
294.8031538104085
 30
0.0
 70
0
  0
VERTEX
  8
54
  6
CONTINUOUS
 62
7
 10
-3152.101217932729
 20
295.83160414000304
 30
0.0
 70
0
  0
VERTEX
  8
54
  6
CONTINUOUS
 62
7
 10
-3165.151074145418
 20
293.05649005681016
 30
0.0
 70
0
  0
VERTEX
  8
54
  6
CONTINUOUS
 62
7
 10
-3175.4209356916826
 20
293.7844646472606
 30
0.0
 70
0
  0
SEQEND
  8
0
  0
POLYLINE
  8
54
 62
5
 66
1
 10
0.0
 20
0.0
 30
0.0
 70
1
  0
VERTEX
  8
54
  6
CONTINUOUS
 62
7
 10
-2530.567041648029
 20
545.9361446674044
 30
0.0
 70
0
  0
VERTEX
  8
54
  6
CONTINUOUS
 62
7
 10
-2527.547642506942
 20
541.8272239322549
 30
0.0
 70
0
  0
VERTEX
  8
54
  6
CONTINUOUS
 62
7
 10
-2517.3388522251503
 20
538.8640154724172
 30
0.0
 70
0
  0
VERTEX
  8
54
  6
CONTINUOUS
 62
7
 10
-2514.619928823202
 20
540.1318702766824
 30
0.0
 70
0
  0
VERTEX
  8
54
  6
CONTINUOUS
 62
7
 10
-2513.65254975808
 20
542.7897224141581
 30
0.0
 70
0
  0
VERTEX
  8
54
  6
CONTINUOUS
 62
7
 10
-2518.000874967905
 20
547.3823326818684
 30
0.0
 70
0
  0
VERTEX
  8
54
  6
CONTINUOUS
 62
7
 10
-2524.645505311581
 20
549.8007803446686
 30
0.0
 70
0
  0
VERTEX
  8
54
  6
CONTINUOUS
 62
7
 10
-2529.5996625829166
 20
548.5939968048757
 30
0.0
 70
0
  0
SEQEND
  8
0
  0
POLYLINE
  8
54
 62
5
 66
1
 10
0.0
 20
0.0
 30
0.0
 70
1
  0
VERTEX
  8
54
  6
CONTINUOUS
 62
7
 10
-2841.2912007774084
 20
-150.64587807517307
 30
0.0
 70
0
  0
VERTEX
  8
54
  6
CONTINUOUS
 62
7
 10
-2837.849183368233
 20
-155.66110661097196
 30
0.0
 70
0
  0
VERTEX
  8
54
  6
CONTINUOUS
 62
7
 10
-2831.92764703178
 20
-151.7964709337167
 30
0.0
 70
0
  0
VERTEX
  8
54
  6
CONTINUOUS
 62
7
 10
-2833.1955018360454
 20
-149.07754753176846
 30
0.0
 70
0
  0
VERTEX
  8
54
  6
CONTINUOUS
 62
7
 10
-2837.18228004225
 20
-147.62647893408143
 30
0.0
 70
0
  0
SEQEND
  8
0
  0
POLYLINE
  8
54
 62
5
 66
1
 10
0.0
 20
0.0
 30
0.0
 70
1
  0
VERTEX
  8
54
  6
CONTINUOUS
 62
7
 10
-2682.716747111777
 20
233.34780394178028
 30
0.0
 70
0
  0
VERTEX
  8
54
  6
CONTINUOUS
 62
7
 10
-2681.448892307516
 20
230.62888053984125
 30
0.0
 70
0
  0
VERTEX
  8
54
  6
CONTINUOUS
 62
7
 10
-2674.804261963831
 20
228.2104328770456
 30
0.0
 70
0
  0
VERTEX
  8
54
  6
CONTINUOUS
 62
7
 10
-2652.0903762663747
 20
224.45817856227995
 30
0.0
 70
0
  0
VERTEX
  8
54
  6
CONTINUOUS
 62
7
 10
-2622.9712646999133
 20
225.89948599352533
 30
0.0
 70
0
  0
VERTEX
  8
54
  6
CONTINUOUS
 62
7
 10
-2612.579260624699
 20
229.64197914184012
 30
0.0
 70
0
  0
VERTEX
  8
54
  6
CONTINUOUS
 62
7
 10
-2607.5640320889006
 20
233.08399655101596
 30
0.0
 70
0
  0
VERTEX
  8
54
  6
CONTINUOUS
 62
7
 10
-2607.9255790925167
 20
236.2255382210525
 30
0.0
 70
0
  0
VERTEX
  8
54
  6
CONTINUOUS
 62
7
 10
-2623.027455381167
 20
240.21719701047573
 30
0.0
 70
0
  0
VERTEX
  8
54
  6
CONTINUOUS
 62
7
 10
-2676.7952107753285
 20
237.21243961904474
 30
0.0
 70
0
  0
SEQEND
  8
0
  0
POLYLINE
  8
54
 62
5
 66
1
 10
0.0
 20
0.0
 30
0.0
 70
1
  0
VERTEX
  8
54
  6
CONTINUOUS
 62
7
 10
-3442.7603137012566
 20
1039.7321196728874
 30
0.0
 70
0
  0
VERTEX
  8
54
  6
CONTINUOUS
 62
7
 10
-3432.0748712157524
 20
1035.8429366684788
 30
0.0
 70
0
  0
VERTEX
  8
54
  6
CONTINUOUS
 62
7
 10
-3416.127758390925
 20
1030.038662277757
 30
0.0
 70
0
  0
VERTEX
  8
54
  6
CONTINUOUS
 62
7
 10
-3405.3742073121
 20
1030.6396137560444
 30
0.0
 70
0
  0
VERTEX
  8
54
  6
CONTINUOUS
 62
7
 10
-3394.4985137043254
 20
1035.711032973097
 30
0.0
 70
0
  0
VERTEX
  8
54
  6
CONTINUOUS
 62
7
 10
-3390.0280459655505
 20
1035.5888904441515
 30
0.0
 70
0
  0
VERTEX
  8
54
  6
CONTINUOUS
 62
7
 10
-3367.7978498006596
 20
1030.507710060657
 30
0.0
 70
0
  0
VERTEX
  8
54
  6
CONTINUOUS
 62
7
 10
-3343.2713485019085
 20
1027.6006922820777
 30
0.0
 70
0
  0
VERTEX
  8
54
  6
CONTINUOUS
 62
7
 10
-3337.894572962494
 20
1027.9011680212166
 30
0.0
 70
0
  0
VERTEX
  8
54
  6
CONTINUOUS
 62
7
 10
-3327.925187155359
 20
1032.549968970185
 30
0.0
 70
0
  0
VERTEX
  8
54
  6
CONTINUOUS
 62
7
 10
-3326.9578080902465
 20
1035.2078211076569
 30
0.0
 70
0
  0
VERTEX
  8
54
  6
CONTINUOUS
 62
7
 10
-3331.1229195066494
 20
1046.5061329835196
 30
0.0
 70
0
  0
VERTEX
  8
54
  6
CONTINUOUS
 62
7
 10
-3343.8063481325044
 20
1057.1424221166274
 30
0.0
 70
0
  0
VERTEX
  8
54
  6
CONTINUOUS
 62
7
 10
-3391.5255440780497
 20
1079.0257130275638
 30
0.0
 70
0
  0
VERTEX
  8
54
  6
CONTINUOUS
 62
7
 10
-3412.6662186488793
 20
1091.2352132872948
 30
0.0
 70
0
  0
VERTEX
  8
54
  6
CONTINUOUS
 62
7
 10
-3415.2629995218695
 20
1094.4378262217992
 30
0.0
 70
0
  0
VERTEX
  8
54
  6
CONTINUOUS
 62
7
 10
-3434.3599444737524
 20
1105.4669990884038
 30
0.0
 70
0
  0
VERTEX
  8
54
  6
CONTINUOUS
 62
7
 10
-3430.948223192284
 20
1082.6324372700958
 30
0.0
 70
0
  0
VERTEX
  8
54
  6
CONTINUOUS
 62
7
 10
-3433.7533800742485
 20
1072.6053153342584
 30
0.0
 70
0
  0
VERTEX
  8
54
  6
CONTINUOUS
 62
7
 10
-3431.547112662405
 20
1056.7134966345268
 30
0.0
 70
0
  0
SEQEND
  8
0
  0
POLYLINE
  8
54
 62
5
 66
1
 10
0.0
 20
0.0
 30
0.0
 70
1
  0
VERTEX
  8
54
  6
CONTINUOUS
 62
7
 10
-2932.6468171895704
 20
1152.2888095705475
 30
0.0
 70
0
  0
VERTEX
  8
54
  6
CONTINUOUS
 62
7
 10
-2928.1011147901118
 20
1143.959186030852
 30
0.0
 70
0
  0
VERTEX
  8
54
  6
CONTINUOUS
 62
7
 10
-2915.5179579756004
 20
1147.7399803740113
 30
0.0
 70
0
  0
VERTEX
  8
54
  6
CONTINUOUS
 62
7
 10
-2911.8503294193933
 20
1152.5815764201539
 30
0.0
 70
0
  0
VERTEX
  8
54
  6
CONTINUOUS
 62
7
 10
-2912.8155018330463
 20
1153.1282324215895
 30
0.0
 70
0
  0
VERTEX
  8
54
  6
CONTINUOUS
 62
7
 10
-2910.1780931295875
 20
1154.7890771211673
 30
0.0
 70
0
  0
VERTEX
  8
54
  6
CONTINUOUS
 62
7
 10
-2911.8503294193933
 20
1152.5815764201539
 30
0.0
 70
0
  0
VERTEX
  8
54
  6
CONTINUOUS
 62
7
 10
-2906.7440153413245
 20
1149.689453524294
 30
0.0
 70
0
  0
VERTEX
  8
54
  6
CONTINUOUS
 62
7
 10
-2905.6409378908165
 20
1169.4128027875463
 30
0.0
 70
0
  0
VERTEX
  8
54
  6
CONTINUOUS
 62
7
 10
-2919.0406762658044
 20
1165.8874641255622
 30
0.0
 70
0
  0
VERTEX
  8
54
  6
CONTINUOUS
 62
7
 10
-2916.3653216766133
 20
1160.2317401363687
 30
0.0
 70
0
  0
SEQEND
  8
0
  0
POLYLINE
  8
54
 62
5
 66
1
 10
0.0
 20
0.0
 30
0.0
 70
1
  0
VERTEX
  8
54
  6
CONTINUOUS
 62
7
 10
-3034.8090745269424
 20
1019.1728577848796
 30
0.0
 70
0
  0
VERTEX
  8
54
  6
CONTINUOUS
 62
7
 10
-3027.201945701359
 20
1002.8593173732088
 30
0.0
 70
0
  0
VERTEX
  8
54
  6
CONTINUOUS
 62
7
 10
-3015.424824876149
 20
991.8004099720256
 30
0.0
 70
0
  0
VERTEX
  8
54
  6
CONTINUOUS
 62
7
 10
-3004.3707980581808
 20
987.0245859108888
 30
0.0
 70
0
  0
VERTEX
  8
54
  6
CONTINUOUS
 62
7
 10
-2997.3646207108795
 20
981.4645965780569
 30
0.0
 70
0
  0
VERTEX
  8
54
  6
CONTINUOUS
 62
7
 10
-2982.323815686702
 20
975.2377039192464
 30
0.0
 70
0
  0
VERTEX
  8
54
  6
CONTINUOUS
 62
7
 10
-2971.6313358723405
 20
973.6034215281506
 30
0.0
 70
0
  0
VERTEX
  8
54
  6
CONTINUOUS
 62
7
 10
-2939.2255096896374
 20
981.8713655304479
 30
0.0
 70
0
  0
VERTEX
  8
54
  6
CONTINUOUS
 62
7
 10
-2913.7909902580623
 20
1023.6874692882211
 30
0.0
 70
0
  0
VERTEX
  8
54
  6
CONTINUOUS
 62
7
 10
-2906.802812263054
 20
1148.6381472698454
 30
0.0
 70
0
  0
VERTEX
  8
54
  6
CONTINUOUS
 62
7
 10
-2923.087377903419
 20
1134.0582565115537
 30
0.0
 70
0
  0
VERTEX
  8
54
  6
CONTINUOUS
 62
7
 10
-2937.2058823548714
 20
1111.1194194743957
 30
0.0
 70
0
  0
VERTEX
  8
54
  6
CONTINUOUS
 62
7
 10
-2941.9529479792477
 20
1108.783752484692
 30
0.0
 70
0
  0
VERTEX
  8
54
  6
CONTINUOUS
 62
7
 10
-2942.957220317196
 20
1111.1696119137082
 30
0.0
 70
0
  0
VERTEX
  8
54
  6
CONTINUOUS
 62
7
 10
-2937.6242407965046
 20
1120.8398944086643
 30
0.0
 70
0
  0
VERTEX
  8
54
  6
CONTINUOUS
 62
7
 10
-2944.0341173709458
 20
1126.1279693004712
 30
0.0
 70
0
  0
VERTEX
  8
54
  6
CONTINUOUS
 62
7
 10
-2940.0364159836854
 20
1134.6116878714136
 30
0.0
 70
0
  0
VERTEX
  8
54
  6
CONTINUOUS
 62
7
 10
-2940.346087074399
 20
1134.9960768754627
 30
0.0
 70
0
  0
VERTEX
  8
54
  6
CONTINUOUS
 62
7
 10
-3007.550867052005
 20
1141.6862119107398
 30
0.0
 70
0
  0
VERTEX
  8
54
  6
CONTINUOUS
 62
7
 10
-3053.3699510560273
 20
1158.3658673880436
 30
0.0
 70
0
  0
VERTEX
  8
54
  6
CONTINUOUS
 62
7
 10
-3083.8162752055964
 20
1173.9618744609957
 30
0.0
 70
0
  0
VERTEX
  8
54
  6
CONTINUOUS
 62
7
 10
-3089.728012701092
 20
1181.2517114093446
 30
0.0
 70
0
  0
VERTEX
  8
54
  6
CONTINUOUS
 62
7
 10
-3087.9881438750895
 20
1168.7087643085843
 30
0.0
 70
0
  0
VERTEX
  8
54
  6
CONTINUOUS
 62
7
 10
-3084.2505313099937
 20
1141.763815347033
 30
0.0
 70
0
  0
VERTEX
  8
54
  6
CONTINUOUS
 62
7
 10
-3077.488639020587
 20
1127.262890536661
 30
0.0
 70
0
  0
VERTEX
  8
54
  6
CONTINUOUS
 62
7
 10
-3066.2562789924104
 20
1112.6398231973526
 30
0.0
 70
0
  0
VERTEX
  8
54
  6
CONTINUOUS
 62
7
 10
-3060.339623239181
 20
1099.9515139882792
 30
0.0
 70
0
  0
VERTEX
  8
54
  6
CONTINUOUS
 62
7
 10
-3044.947032377829
 20
1057.4771898867664
 30
0.0
 70
0
  0
SEQEND
  8
0
  0
POLYLINE
  8
54
 62
5
 66
1
 10
0.0
 20
0.0
 30
0.0
 70
1
  0
VERTEX
  8
54
  6
CONTINUOUS
 62
7
 10
-3191.2535467063217
 20
1302.6126755089567
 30
0.0
 70
0
  0
VERTEX
  8
54
  6
CONTINUOUS
 62
7
 10
-3187.7098228803457
 20
1295.0131352397761
 30
0.0
 70
0
  0
VERTEX
  8
54
  6
CONTINUOUS
 62
7
 10
-3183.2040766282416
 20
1290.7821664558944
 30
0.0
 70
0
  0
VERTEX
  8
54
  6
CONTINUOUS
 62
7
 10
-3174.8447619200538
 20
1287.7396247232577
 30
0.0
 70
0
  0
VERTEX
  8
54
  6
CONTINUOUS
 62
7
 10
-3173.476681346745
 20
1291.4983952063976
 30
0.0
 70
0
  0
VERTEX
  8
54
  6
CONTINUOUS
 62
7
 10
-3181.0644794633936
 20
1294.2601278644788
 30
0.0
 70
0
  0
VERTEX
  8
54
  6
CONTINUOUS
 62
7
 10
-3184.4101470947494
 20
1297.4017640147367
 30
0.0
 70
0
  0
VERTEX
  8
54
  6
CONTINUOUS
 62
7
 10
-3187.628315558175
 20
1304.3031485559195
 30
0.0
 70
0
  0
SEQEND
  8
0
  0
POLYLINE
  8
54
 62
5
 66
1
 10
0.0
 20
0.0
 30
0.0
 70
1
  0
VERTEX
  8
54
  6
CONTINUOUS
 62
7
 10
-2976.1479772290068
 20
202.4428560075021
 30
0.0
 70
0
  0
VERTEX
  8
54
  6
CONTINUOUS
 62
7
 10
-2971.7996520191814
 20
197.85024573979172
 30
0.0
 70
0
  0
VERTEX
  8
54
  6
CONTINUOUS
 62
7
 10
-2964.6102608784677
 20
198.99595801510736
 30
0.0
 70
0
  0
VERTEX
  8
54
  6
CONTINUOUS
 62
7
 10
-2960.623482672259
 20
197.54488941743375
 30
0.0
 70
0
  0
VERTEX
  8
54
  6
CONTINUOUS
 62
7
 10
-2911.0257192777276
 20
195.2950137983862
 30
0.0
 70
0
  0
VERTEX
  8
54
  6
CONTINUOUS
 62
7
 10
-2899.788478666337
 20
197.22489134540183
 30
0.0
 70
0
  0
VERTEX
  8
54
  6
CONTINUOUS
 62
7
 10
-2892.6601587901005
 20
196.1353697513398
 30
0.0
 70
0
  0
VERTEX
  8
54
  6
CONTINUOUS
 62
7
 10
-2889.0349275875033
 20
197.8258428236934
 30
0.0
 70
0
  0
VERTEX
  8
54
  6
CONTINUOUS
 62
7
 10
-2884.1418415806534
 20
196.79739249410386
 30
0.0
 70
0
  0
VERTEX
  8
54
  6
CONTINUOUS
 62
7
 10
-2871.575674900525
 20
198.24358050855903
 30
0.0
 70
0
  0
VERTEX
  8
54
  6
CONTINUOUS
 62
7
 10
-2867.9504436979278
 20
199.93405358091286
 30
0.0
 70
0
  0
VERTEX
  8
54
  6
CONTINUOUS
 62
7
 10
-2866.015685567693
 20
205.24975785585957
 30
0.0
 70
0
  0
SEQEND
  8
0
  0
POLYLINE
  8
54
 62
5
 66
1
 10
0.0
 20
0.0
 30
0.0
 70
1
  0
VERTEX
  8
54
  6
CONTINUOUS
 62
7
 10
-3288.605559190338
 20
1373.5549388490554
 30
0.0
 70
0
  0
VERTEX
  8
54
  6
CONTINUOUS
 62
7
 10
-3281.8348061124298
 20
1371.9094380847564
 30
0.0
 70
0
  0
VERTEX
  8
54
  6
CONTINUOUS
 62
7
 10
-3273.2357902188696
 20
1374.6826989635856
 30
0.0
 70
0
  0
VERTEX
  8
54
  6
CONTINUOUS
 62
7
 10
-3261.5381845713277
 20
1384.83171640257
 30
0.0
 70
0
  0
VERTEX
  8
54
  6
CONTINUOUS
 62
7
 10
-3259.4261737984825
 20
1390.634418310608
 30
0.0
 70
0
  0
VERTEX
  8
54
  6
CONTINUOUS
 62
7
 10
-3263.1849442816315
 20
1392.0024988839127
 30
0.0
 70
0
  0
VERTEX
  8
54
  6
CONTINUOUS
 62
7
 10
-3264.942449769259
 20
1387.1737922420657
 30
0.0
 70
0
  0
VERTEX
  8
54
  6
CONTINUOUS
 62
7
 10
-3275.2405163951707
 20
1378.2390357694007
 30
0.0
 70
0
  0
VERTEX
  8
54
  6
CONTINUOUS
 62
7
 10
-3281.9876618481503
 20
1376.063019960127
 30
0.0
 70
0
  0
VERTEX
  8
54
  6
CONTINUOUS
 62
7
 10
-3287.6609329214252
 20
1377.4417989201252
 30
0.0
 70
0
  0
SEQEND
  8
0
  0
POLYLINE
  8
54
 62
5
 66
1
 10
0.0
 20
0.0
 30
0.0
 70
1
  0
VERTEX
  8
54
  6
CONTINUOUS
 62
7
 10
-3318.9542695674363
 20
1401.36883965568
 30
0.0
 70
0
  0
VERTEX
  8
54
  6
CONTINUOUS
 62
7
 10
-3313.54615406846
 20
1389.7710985412095
 30
0.0
 70
0
  0
VERTEX
  8
54
  6
CONTINUOUS
 62
7
 10
-3306.8005245483064
 20
1382.6465055308936
 30
0.0
 70
0
  0
VERTEX
  8
54
  6
CONTINUOUS
 62
7
 10
-3303.8959028216427
 20
1385.3966278236267
 30
0.0
 70
0
  0
VERTEX
  8
54
  6
CONTINUOUS
 62
7
 10
-3310.1952489309506
 20
1392.04986561646
 30
0.0
 70
0
  0
VERTEX
  8
54
  6
CONTINUOUS
 62
7
 10
-3314.929971866075
 20
1402.2035117175296
 30
0.0
 70
0
  0
VERTEX
  8
54
  6
CONTINUOUS
 62
7
 10
-3314.45429667999
 20
1419.6134228429635
 30
0.0
 70
0
  0
VERTEX
  8
54
  6
CONTINUOUS
 62
7
 10
-3318.4528045219804
 20
1419.7226704403884
 30
0.0
 70
0
  0
SEQEND
  8
0
  0
POLYLINE
  8
54
 62
5
 66
1
 10
0.0
 20
0.0
 30
0.0
 70
1
  0
VERTEX
  8
54
  6
CONTINUOUS
 62
7
 10
-2375.9634062829355
 20
1006.3958580778917
 30
0.0
 70
0
  0
VERTEX
  8
54
  6
CONTINUOUS
 62
7
 10
-2373.777238240399
 20
1003.0461313293589
 30
0.0
 70
0
  0
VERTEX
  8
54
  6
CONTINUOUS
 62
7
 10
-2367.211703126355
 20
1007.3310668258998
 30
0.0
 70
0
  0
VERTEX
  8
54
  6
CONTINUOUS
 62
7
 10
-2365.019359438417
 20
1015.6254889957389
 30
0.0
 70
0
  0
VERTEX
  8
54
  6
CONTINUOUS
 62
7
 10
-2368.8865536226026
 20
1016.6476480546994
 30
0.0
 70
0
  0
VERTEX
  8
54
  6
CONTINUOUS
 62
7
 10
-2370.6858687240924
 20
1009.8401939358747
 30
0.0
 70
0
  0
SEQEND
  8
0
  0
POLYLINE
  8
11
 62
5
 66
1
 10
0.0
 20
0.0
 30
0.0
 70
1
  0
VERTEX
  8
11
  6
CONTINUOUS
 62
7
 10
-1570.0783726072755
 20
118.84066373409576
 30
0.0
 70
0
  0
VERTEX
  8
11
  6
CONTINUOUS
 62
7
 10
-1575.572410092417
 20
130.62266514252065
 30
0.0
 70
0
  0
VERTEX
  8
11
  6
CONTINUOUS
 62
7
 10
-1572.1865833644947
 20
139.92514762367125
 30
0.0
 70
0
  0
VERTEX
  8
11
  6
CONTINUOUS
 62
7
 10
-1560.4045819560706
 20
145.41918510881237
 30
0.0
 70
0
  0
VERTEX
  8
11
  6
CONTINUOUS
 62
7
 10
-1549.7731734061822
 20
141.5496688483313
 30
0.0
 70
0
  0
VERTEX
  8
11
  6
CONTINUOUS
 62
7
 10
-1544.7017541891287
 20
130.6739752405548
 30
0.0
 70
0
  0
VERTEX
  8
11
  6
CONTINUOUS
 62
7
 10
-1548.087580917051
 20
121.37149275940442
 30
0.0
 70
0
  0
VERTEX
  8
11
  6
CONTINUOUS
 62
7
 10
-1560.7758901261245
 20
115.45483700617478
 30
0.0
 70
0
  0
SEQEND
  8
0
  0
POLYLINE
  8
11
 62
5
 66
1
 10
0.0
 20
0.0
 30
0.0
 70
1
  0
VERTEX
  8
11
  6
CONTINUOUS
 62
7
 10
-2910.1780931295875
 20
1154.7890771211673
 30
0.0
 70
0
  0
VERTEX
  8
11
  6
CONTINUOUS
 62
7
 10
-2908.2010900885575
 20
1157.3988970524842
 30
0.0
 70
0
  0
VERTEX
  8
11
  6
CONTINUOUS
 62
7
 10
-2912.5031488933637
 20
1161.3520149950555
 30
0.0
 70
0
  0
VERTEX
  8
11
  6
CONTINUOUS
 62
7
 10
-2910.917595956967
 20
1162.8251077472019
 30
0.0
 70
0
  0
VERTEX
  8
11
  6
CONTINUOUS
 62
7
 10
-2908.895550635761
 20
1160.9534362174813
 30
0.0
 70
0
  0
VERTEX
  8
11
  6
CONTINUOUS
 62
7
 10
-2901.9201181378717
 20
1161.7465008486788
 30
0.0
 70
0
  0
VERTEX
  8
11
  6
CONTINUOUS
 62
7
 10
-2903.734338536463
 20
1158.846876599625
 30
0.0
 70
0
  0
SEQEND
  8
0
  0
POLYLINE
  8
11
 62
5
 66
1
 10
0.0
 20
0.0
 30
0.0
 70
1
  0
VERTEX
  8
11
  6
CONTINUOUS
 62
7
 10
-2913.0745071930114
 20
1153.2749283200937
 30
0.0
 70
0
  0
VERTEX
  8
11
  6
CONTINUOUS
 62
7
 10
-2912.8155018330463
 20
1153.1282324215895
 30
0.0
 70
0
  0
VERTEX
  8
11
  6
CONTINUOUS
 62
7
 10
-2912.9615960381943
 20
1153.0362331095541
 30
0.0
 70
0
  0
SEQEND
  8
0
  0
POLYLINE
  8
11
 62
5
 66
1
 10
0.0
 20
0.0
 30
0.0
 70
1
  0
VERTEX
  8
11
  6
CONTINUOUS
 62
7
 10
-2918.120637295812
 20
1156.1329641131833
 30
0.0
 70
0
  0
VERTEX
  8
11
  6
CONTINUOUS
 62
7
 10
-2915.55431418948
 20
1158.5172629157219
 30
0.0
 70
0
  0
VERTEX
  8
11
  6
CONTINUOUS
 62
7
 10
-2916.3653216766133
 20
1160.2317401363687
 30
0.0
 70
0
  0
VERTEX
  8
11
  6
CONTINUOUS
 62
7
 10
-2913.046168108874
 20
1161.8509898118537
 30
0.0
 70
0
  0
VERTEX
  8
11
  6
CONTINUOUS
 62
7
 10
-2912.5031488933637
 20
1161.3520149950555
 30
0.0
 70
0
  0
VERTEX
  8
11
  6
CONTINUOUS
 62
7
 10
-2915.55431418948
 20
1158.5172629157219
 30
0.0
 70
0
  0
VERTEX
  8
11
  6
CONTINUOUS
 62
7
 10
-2913.0745071930114
 20
1153.2749283200937
 30
0.0
 70
0
  0
SEQEND
  8
0
  0
POLYLINE
  8
11
 62
5
 66
1
 10
0.0
 20
0.0
 30
0.0
 70
1
  0
VERTEX
  8
11
  6
CONTINUOUS
 62
7
 10
-3505.0856664978132
 20
1351.3086167348106
 30
0.0
 70
0
  0
VERTEX
  8
11
  6
CONTINUOUS
 62
7
 10
-3503.6209948647547
 20
1352.4007187686802
 30
0.0
 70
0
  0
VERTEX
  8
11
  6
CONTINUOUS
 62
7
 10
-3499.660702284168
 20
1346.8384611865615
 30
0.0
 70
0
  0
VERTEX
  8
11
  6
CONTINUOUS
 62
7
 10
-3501.199182423499
 20
1344.7665002549702
 30
0.0
 70
0
  0
SEQEND
  8
0
  0
POLYLINE
  8
11
 62
5
 66
1
 10
0.0
 20
0.0
 30
0.0
 70
1
  0
VERTEX
  8
11
  6
CONTINUOUS
 62
7
 10
-3541.9607051431344
 20
1314.116766655525
 30
0.0
 70
0
  0
VERTEX
  8
11
  6
CONTINUOUS
 62
7
 10
-3541.7021803472926
 20
1314.5256031060724
 30
0.0
 70
0
  0
VERTEX
  8
11
  6
CONTINUOUS
 62
7
 10
-3541.619718410395
 20
1313.394655447739
 30
0.0
 70
0
  0
SEQEND
  8
0
  0
POLYLINE
  8
1
 62
5
 66
1
 10
0.0
 20
0.0
 30
0.0
 70
1
  0
VERTEX
  8
1
  6
CONTINUOUS
 62
7
 10
-3243.391871651319
 20
-180.39287475814535
 30
0.0
 70
0
  0
VERTEX
  8
1
  6
CONTINUOUS
 62
7
 10
-3233.932626382571
 20
-193.59560485398515
 30
0.0
 70
0
  0
VERTEX
  8
1
  6
CONTINUOUS
 62
7
 10
-3220.8262339110875
 20
-200.22830870291205
 30
0.0
 70
0
  0
VERTEX
  8
1
  6
CONTINUOUS
 62
7
 10
-3190.7253925517016
 20
-201.04782236871893
 30
0.0
 70
0
  0
VERTEX
  8
1
  6
CONTINUOUS
 62
7
 10
-3178.314097775181
 20
-202.56461086590275
 30
0.0
 70
0
  0
VERTEX
  8
1
  6
CONTINUOUS
 62
7
 10
-3164.5260489361513
 20
-207.58024525224778
 30
0.0
 70
0
  0
VERTEX
  8
1
  6
CONTINUOUS
 62
7
 10
-3156.6891173906624
 20
-203.94873013870483
 30
0.0
 70
0
  0
VERTEX
  8
1
  6
CONTINUOUS
 62
7
 10
-3018.22098099773
 20
-224.10388335121513
 30
0.0
 70
0
  0
VERTEX
  8
1
  6
CONTINUOUS
 62
7
 10
-2915.9721388296384
 20
-249.77457013731612
 30
0.0
 70
0
  0
VERTEX
  8
1
  6
CONTINUOUS
 62
7
 10
-2891.288292597421
 20
-262.0075470089755
 30
0.0
 70
0
  0
VERTEX
  8
1
  6
CONTINUOUS
 62
7
 10
-2879.8571250113946
 20
-262.3323400279779
 30
0.0
 70
0
  0
VERTEX
  8
1
  6
CONTINUOUS
 62
7
 10
-2873.947927868396
 20
-268.09418759392065
 30
0.0
 70
0
  0
VERTEX
  8
1
  6
CONTINUOUS
 62
7
 10
-2862.4353224102856
 20
-270.8698475712371
 30
0.0
 70
0
  0
VERTEX
  8
1
  6
CONTINUOUS
 62
7
 10
-2833.7211613000954
 20
-280.13990107820996
 30
0.0
 70
0
  0
VERTEX
  8
1
  6
CONTINUOUS
 62
7
 10
-2828.338006627919
 20
-280.27867995493
 30
0.0
 70
0
  0
VERTEX
  8
1
  6
CONTINUOUS
 62
7
 10
-2819.535415326653
 20
-284.9293936761811
 30
0.0
 70
0
  0
VERTEX
  8
1
  6
CONTINUOUS
 62
7
 10
-2817.776336046529
 20
-288.62952360764723
 30
0.0
 70
0
  0
VERTEX
  8
1
  6
CONTINUOUS
 62
7
 10
-2807.071848701931
 20
-292.5410926452374
 30
0.0
 70
0
  0
VERTEX
  8
1
  6
CONTINUOUS
 62
7
 10
-2803.6416716468384
 20
-295.28099223252786
 30
0.0
 70
0
  0
VERTEX
  8
1
  6
CONTINUOUS
 62
7
 10
-2788.6348454078525
 20
-300.7285262986293
 30
0.0
 70
0
  0
VERTEX
  8
1
  6
CONTINUOUS
 62
7
 10
-2777.0326724972706
 20
-311.6225165815689
 30
0.0
 70
0
  0
VERTEX
  8
1
  6
CONTINUOUS
 62
7
 10
-2745.63195311995
 20
-307.52236038359797
 30
0.0
 70
0
  0
VERTEX
  8
1
  6
CONTINUOUS
 62
7
 10
-2692.7007606869965
 20
-319.3300966496255
 30
0.0
 70
0
  0
VERTEX
  8
1
  6
CONTINUOUS
 62
7
 10
-2631.6864957514194
 20
-345.692845464788
 30
0.0
 70
0
  0
VERTEX
  8
1
  6
CONTINUOUS
 62
7
 10
-2597.867856839423
 20
-350.8637934458618
 30
0.0
 70
0
  0
VERTEX
  8
1
  6
CONTINUOUS
 62
7
 10
-2584.6253804608705
 20
-362.70339894951917
 30
0.0
 70
0
  0
VERTEX
  8
1
  6
CONTINUOUS
 62
7
 10
-2577.0152526099796
 20
-379.0178719439847
 30
0.0
 70
0
  0
VERTEX
  8
1
  6
CONTINUOUS
 62
7
 10
-2580.6556216176104
 20
-396.3252842348078
 30
0.0
 70
0
  0
VERTEX
  8
1
  6
CONTINUOUS
 62
7
 10
-2598.613037617999
 20
-418.94418540582876
 30
0.0
 70
0
  0
VERTEX
  8
1
  6
CONTINUOUS
 62
7
 10
-2626.3546468570757
 20
-432.8858160734401
 30
0.0
 70
0
  0
VERTEX
  8
1
  6
CONTINUOUS
 62
7
 10
-2674.7931626357035
 20
-467.19161675061775
 30
0.0
 70
0
  0
VERTEX
  8
1
  6
CONTINUOUS
 62
7
 10
-2712.248696856402
 20
-482.80109025273805
 30
0.0
 70
0
  0
VERTEX
  8
1
  6
CONTINUOUS
 62
7
 10
-2738.108512556292
 20
-473.38860134102185
 30
0.0
 70
0
  0
VERTEX
  8
1
  6
CONTINUOUS
 62
7
 10
-2766.095876576609
 20
-427.42358965195865
 30
0.0
 70
0
  0
VERTEX
  8
1
  6
CONTINUOUS
 62
7
 10
-2781.7878158968583
 20
-413.10423454178704
 30
0.0
 70
0
  0
VERTEX
  8
1
  6
CONTINUOUS
 62
7
 10
-2799.3570673131926
 20
-403.6841993279271
 30
0.0
 70
0
  0
VERTEX
  8
1
  6
CONTINUOUS
 62
7
 10
-2810.9965314874935
 20
-404.1586530373114
 30
0.0
 70
0
  0
VERTEX
  8
1
  6
CONTINUOUS
 62
7
 10
-2818.5269412056186
 20
-412.62226032906483
 30
0.0
 70
0
  0
VERTEX
  8
1
  6
CONTINUOUS
 62
7
 10
-2828.213842070324
 20
-432.2165063330066
 30
0.0
 70
0
  0
VERTEX
  8
1
  6
CONTINUOUS
 62
7
 10
-2831.16780671519
 20
-451.55253679456007
 30
0.0
 70
0
  0
VERTEX
  8
1
  6
CONTINUOUS
 62
7
 10
-2843.5857573943495
 20
-485.68912712939084
 30
0.0
 70
0
  0
VERTEX
  8
1
  6
CONTINUOUS
 62
7
 10
-2841.6935323719117
 20
-492.9056748515816
 30
0.0
 70
0
  0
VERTEX
  8
1
  6
CONTINUOUS
 62
7
 10
-2860.1546070532368
 20
-579.51764507472
 30
0.0
 70
0
  0
VERTEX
  8
1
  6
CONTINUOUS
 62
7
 10
-2878.8282661229264
 20
-590.7547633045205
 30
0.0
 70
0
  0
VERTEX
  8
1
  6
CONTINUOUS
 62
7
 10
-2883.4069682752365
 20
-611.6962299835441
 30
0.0
 70
0
  0
VERTEX
  8
1
  6
CONTINUOUS
 62
7
 10
-2877.906136092716
 20
-623.438818081203
 30
0.0
 70
0
  0
VERTEX
  8
1
  6
CONTINUOUS
 62
7
 10
-2855.6559013321807
 20
-642.8106800168093
 30
0.0
 70
0
  0
VERTEX
  8
1
  6
CONTINUOUS
 62
7
 10
-2813.8288277731867
 20
-645.0721861621303
 30
0.0
 70
0
  0
VERTEX
  8
1
  6
CONTINUOUS
 62
7
 10
-2797.302881916403
 20
-665.4740418766837
 30
0.0
 70
0
  0
VERTEX
  8
1
  6
CONTINUOUS
 62
7
 10
-2782.7531550913304
 20
-709.2069844123259
 30
0.0
 70
0
  0
VERTEX
  8
1
  6
CONTINUOUS
 62
7
 10
-2771.3805734522734
 20
-719.3871232865829
 30
0.0
 70
0
  0
VERTEX
  8
1
  6
CONTINUOUS
 62
7
 10
-2744.5450144605297
 20
-720.1213249063871
 30
0.0
 70
0
  0
VERTEX
  8
1
  6
CONTINUOUS
 62
7
 10
-2722.248221645363
 20
-724.4258152042399
 30
0.0
 70
0
  0
VERTEX
  8
1
  6
CONTINUOUS
 62
7
 10
-2692.53807694011
 20
-750.2111582872199
 30
0.0
 70
0
  0
VERTEX
  8
1
  6
CONTINUOUS
 62
7
 10
-2685.9021395396358
 20
-733.753808886782
 30
0.0
 70
0
  0
VERTEX
  8
1
  6
CONTINUOUS
 62
7
 10
-2682.7686463963087
 20
-741.5523193516367
 30
0.0
 70
0
  0
VERTEX
  8
1
  6
CONTINUOUS
 62
7
 10
-2681.432412227117
 20
-754.6242825781392
 30
0.0
 70
0
  0
VERTEX
  8
1
  6
CONTINUOUS
 62
7
 10
-2679.9675557494434
 20
-757.0817451957942
 30
0.0
 70
0
  0
VERTEX
  8
1
  6
CONTINUOUS
 62
7
 10
-2660.5232026351996
 20
-766.989332218711
 30
0.0
 70
0
  0
VERTEX
  8
1
  6
CONTINUOUS
 62
7
 10
-2614.4369212385664
 20
-781.5247583290245
 30
0.0
 70
0
  0
VERTEX
  8
1
  6
CONTINUOUS
 62
7
 10
-2593.476986962261
 20
-792.7359942134995
 30
0.0
 70
0
  0
VERTEX
  8
1
  6
CONTINUOUS
 62
7
 10
-2538.3848126687217
 20
-781.0292229034831
 30
0.0
 70
0
  0
VERTEX
  8
1
  6
CONTINUOUS
 62
7
 10
-2518.4829687351416
 20
-785.2129207977707
 30
0.0
 70
0
  0
VERTEX
  8
1
  6
CONTINUOUS
 62
7
 10
-2464.8296957839516
 20
-830.2078428310342
 30
0.0
 70
0
  0
VERTEX
  8
1
  6
CONTINUOUS
 62
7
 10
-2420.5542016630366
 20
-850.18066753902
 30
0.0
 70
0
  0
VERTEX
  8
1
  6
CONTINUOUS
 62
7
 10
-2411.2696083973847
 20
-847.8432943113633
 30
0.0
 70
0
  0
VERTEX
  8
1
  6
CONTINUOUS
 62
7
 10
-2410.7447667426923
 20
-832.4105154300928
 30
0.0
 70
0
  0
VERTEX
  8
1
  6
CONTINUOUS
 62
7
 10
-2408.4750031204157
 20
-811.8007754582023
 30
0.0
 70
0
  0
VERTEX
  8
1
  6
CONTINUOUS
 62
7
 10
-2410.5582500574933
 20
-807.2333843389144
 30
0.0
 70
0
  0
VERTEX
  8
1
  6
CONTINUOUS
 62
7
 10
-2404.793057563791
 20
-804.1617566401587
 30
0.0
 70
0
  0
VERTEX
  8
1
  6
CONTINUOUS
 62
7
 10
-2403.5877283723203
 20
-795.7464384111051
 30
0.0
 70
0
  0
VERTEX
  8
1
  6
CONTINUOUS
 62
7
 10
-2407.219989306544
 20
-788.2281054859051
 30
0.0
 70
0
  0
VERTEX
  8
1
  6
CONTINUOUS
 62
7
 10
-2409.404980809608
 20
-773.8172455421795
 30
0.0
 70
0
  0
VERTEX
  8
1
  6
CONTINUOUS
 62
7
 10
-2396.312018617047
 20
-781.0796196058391
 30
0.0
 70
0
  0
VERTEX
  8
1
  6
CONTINUOUS
 62
7
 10
-2391.3505203489344
 20
-792.456789182126
 30
0.0
 70
0
  0
VERTEX
  8
1
  6
CONTINUOUS
 62
7
 10
-2387.8097712411973
 20
-776.9257168529753
 30
0.0
 70
0
  0
VERTEX
  8
1
  6
CONTINUOUS
 62
7
 10
-2372.6341617890835
 20
-777.731237424744
 30
0.0
 70
0
  0
VERTEX
  8
1
  6
CONTINUOUS
 62
7
 10
-2303.7397577512897
 20
-832.3695726974634
 30
0.0
 70
0
  0
VERTEX
  8
1
  6
CONTINUOUS
 62
7
 10
-2284.9170957739307
 20
-813.5408741356082
 30
0.0
 70
0
  0
VERTEX
  8
1
  6
CONTINUOUS
 62
7
 10
-2282.005873913272
 20
-786.8635780631521
 30
0.0
 70
0
  0
VERTEX
  8
1
  6
CONTINUOUS
 62
7
 10
-2288.3523209131886
 20
-773.2804401365597
 30
0.0
 70
0
  0
VERTEX
  8
1
  6
CONTINUOUS
 62
7
 10
-2351.636829008726
 20
-715.643090337807
 30
0.0
 70
0
  0
VERTEX
  8
1
  6
CONTINUOUS
 62
7
 10
-2378.397776496991
 20
-681.8870045519634
 30
0.0
 70
0
  0
VERTEX
  8
1
  6
CONTINUOUS
 62
7
 10
-2394.1315723001408
 20
-650.3157000362452
 30
0.0
 70
0
  0
VERTEX
  8
1
  6
CONTINUOUS
 62
7
 10
-2387.8322469545496
 20
-647.5814952095436
 30
0.0
 70
0
  0
VERTEX
  8
1
  6
CONTINUOUS
 62
7
 10
-2382.552989620326
 20
-632.9336271153322
 30
0.0
 70
0
  0
VERTEX
  8
1
  6
CONTINUOUS
 62
7
 10
-2373.754261851825
 20
-651.2916245568106
 30
0.0
 70
0
  0
VERTEX
  8
1
  6
CONTINUOUS
 62
7
 10
-2359.3495971225334
 20
-656.4053539284853
 30
0.0
 70
0
  0
VERTEX
  8
1
  6
CONTINUOUS
 62
7
 10
-2347.5220092397535
 20
-662.9609623911015
 30
0.0
 70
0
  0
VERTEX
  8
1
  6
CONTINUOUS
 62
7
 10
-2265.795255240286
 20
-703.2186808458353
 30
0.0
 70
0
  0
VERTEX
  8
1
  6
CONTINUOUS
 62
7
 10
-2243.1368007425544
 20
-692.6394331228083
 30
0.0
 70
0
  0
VERTEX
  8
1
  6
CONTINUOUS
 62
7
 10
-2237.3602449162786
 20
-690.9600238211585
 30
0.0
 70
0
  0
VERTEX
  8
1
  6
CONTINUOUS
 62
7
 10
-2180.9465783168816
 20
-669.7540316256395
 30
0.0
 70
0
  0
VERTEX
  8
1
  6
CONTINUOUS
 62
7
 10
-2142.9245423596694
 20
-670.7929225137198
 30
0.0
 70
0
  0
VERTEX
  8
1
  6
CONTINUOUS
 62
7
 10
-2111.3892934326054
 20
-679.381853507654
 30
0.0
 70
0
  0
VERTEX
  8
1
  6
CONTINUOUS
 62
7
 10
-2076.7351326809217
 20
-704.2286566001665
 30
0.0
 70
0
  0
VERTEX
  8
1
  6
CONTINUOUS
 62
7
 10
-2042.4479821571513
 20
-713.8015586153256
 30
0.0
 70
0
  0
VERTEX
  8
1
  6
CONTINUOUS
 62
7
 10
-1993.2452206585208
 20
-731.701514407647
 30
0.0
 70
0
  0
VERTEX
  8
1
  6
CONTINUOUS
 62
7
 10
-1982.0157894957224
 20
-729.7665893097687
 30
0.0
 70
0
  0
VERTEX
  8
1
  6
CONTINUOUS
 62
7
 10
-1884.6216552787484
 20
-725.0234948487112
 30
0.0
 70
0
  0
VERTEX
  8
1
  6
CONTINUOUS
 62
7
 10
-1878.682239684846
 20
-714.5495366290232
 30
0.0
 70
0
  0
VERTEX
  8
1
  6
CONTINUOUS
 62
7
 10
-1874.06466381099
 20
-675.0032782277099
 30
0.0
 70
0
  0
VERTEX
  8
1
  6
CONTINUOUS
 62
7
 10
-1869.0490430764812
 20
-616.8794453701175
 30
0.0
 70
0
  0
VERTEX
  8
1
  6
CONTINUOUS
 62
7
 10
-1877.5436295172822
 20
-582.0022328206569
 30
0.0
 70
0
  0
VERTEX
  8
1
  6
CONTINUOUS
 62
7
 10
-1874.7618290303553
 20
-552.8940052475115
 30
0.0
 70
0
  0
VERTEX
  8
1
  6
CONTINUOUS
 62
7
 10
-1868.9465577567896
 20
-532.4899219623745
 30
0.0
 70
0
  0
VERTEX
  8
1
  6
CONTINUOUS
 62
7
 10
-1862.5857177493715
 20
-529.4978979434304
 30
0.0
 70
0
  0
VERTEX
  8
1
  6
CONTINUOUS
 62
7
 10
-1849.12067624519
 20
-499.7122716881406
 30
0.0
 70
0
  0
VERTEX
  8
1
  6
CONTINUOUS
 62
7
 10
-1840.5740349665875
 20
-488.9339681459277
 30
0.0
 70
0
  0
VERTEX
  8
1
  6
CONTINUOUS
 62
7
 10
-1845.2273852193866
 20
-478.9032515338714
 30
0.0
 70
0
  0
VERTEX
  8
1
  6
CONTINUOUS
 62
7
 10
-1844.3408862940125
 20
-472.56570204494903
 30
0.0
 70
0
  0
VERTEX
  8
1
  6
CONTINUOUS
 62
7
 10
-1830.2478601740002
 20
-465.9607267449598
 30
0.0
 70
0
  0
VERTEX
  8
1
  6
CONTINUOUS
 62
7
 10
-1824.6761515438343
 20
-477.85164271567606
 30
0.0
 70
0
  0
VERTEX
  8
1
  6
CONTINUOUS
 62
7
 10
-1805.0408376332657
 20
-484.9199707134377
 30
0.0
 70
0
  0
VERTEX
  8
1
  6
CONTINUOUS
 62
7
 10
-1786.1884965637046
 20
-509.7365307637673
 30
0.0
 70
0
  0
VERTEX
  8
1
  6
CONTINUOUS
 62
7
 10
-1787.927452221307
 20
-519.0559748398498
 30
0.0
 70
0
  0
VERTEX
  8
1
  6
CONTINUOUS
 62
7
 10
-1766.672733262016
 20
-589.5544515802637
 30
0.0
 70
0
  0
VERTEX
  8
1
  6
CONTINUOUS
 62
7
 10
-1717.280326505365
 20
-635.0025138296869
 30
0.0
 70
0
  0
VERTEX
  8
1
  6
CONTINUOUS
 62
7
 10
-1689.6237620028783
 20
-654.0966113297051
 30
0.0
 70
0
  0
VERTEX
  8
1
  6
CONTINUOUS
 62
7
 10
-1675.0163611157252
 20
-659.4159321792906
 30
0.0
 70
0
  0
VERTEX
  8
1
  6
CONTINUOUS
 62
7
 10
-1652.2436695772749
 20
-660.9390018616326
 30
0.0
 70
0
  0
VERTEX
  8
1
  6
CONTINUOUS
 62
7
 10
-1616.0481361623035
 20
-644.0955061806213
 30
0.0
 70
0
  0
VERTEX
  8
1
  6
CONTINUOUS
 62
7
 10
-1612.249822856456
 20
-637.9947094912023
 30
0.0
 70
0
  0
VERTEX
  8
1
  6
CONTINUOUS
 62
7
 10
-1614.3661064060593
 20
-629.3815429280253
 30
0.0
 70
0
  0
VERTEX
  8
1
  6
CONTINUOUS
 62
7
 10
-1612.8939504524856
 20
-627.5883449187568
 30
0.0
 70
0
  0
VERTEX
  8
1
  6
CONTINUOUS
 62
7
 10
-1631.1760353984882
 20
-592.7098253844265
 30
0.0
 70
0
  0
VERTEX
  8
1
  6
CONTINUOUS
 62
7
 10
-1621.5560061219096
 20
-566.3504083693587
 30
0.0
 70
0
  0
VERTEX
  8
1
  6
CONTINUOUS
 62
7
 10
-1581.146112312067
 20
-536.6678811776387
 30
0.0
 70
0
  0
VERTEX
  8
1
  6
CONTINUOUS
 62
7
 10
-1569.5868345964338
 20
-519.0448242501271
 30
0.0
 70
0
  0
VERTEX
  8
1
  6
CONTINUOUS
 62
7
 10
-1573.3521728431253
 20
-450.97637238939427
 30
0.0
 70
0
  0
VERTEX
  8
1
  6
CONTINUOUS
 62
7
 10
-1576.0743920615862
 20
-443.4257593706416
 30
0.0
 70
0
  0
VERTEX
  8
1
  6
CONTINUOUS
 62
7
 10
-1572.6171617493583
 20
-441.6091501089488
 30
0.0
 70
0
  0
VERTEX
  8
1
  6
CONTINUOUS
 62
7
 10
-1575.1521507986233
 20
-420.8980489063892
 30
0.0
 70
0
  0
VERTEX
  8
1
  6
CONTINUOUS
 62
7
 10
-1570.7956212782865
 20
-418.7837588836319
 30
0.0
 70
0
  0
VERTEX
  8
1
  6
CONTINUOUS
 62
7
 10
-1560.4485557383073
 20
-432.6147139650474
 30
0.0
 70
0
  0
VERTEX
  8
1
  6
CONTINUOUS
 62
7
 10
-1544.0695158940914
 20
-421.75435493536594
 30
0.0
 70
0
  0
VERTEX
  8
1
  6
CONTINUOUS
 62
7
 10
-1542.4729649523636
 20
-415.4355745815731
 30
0.0
 70
0
  0
VERTEX
  8
1
  6
CONTINUOUS
 62
7
 10
-1540.5615876367092
 20
-414.6518155652857
 30
0.0
 70
0
  0
VERTEX
  8
1
  6
CONTINUOUS
 62
7
 10
-1526.8188999137838
 20
-407.1885405921728
 30
0.0
 70
0
  0
VERTEX
  8
1
  6
CONTINUOUS
 62
7
 10
-1520.1673924585696
 20
-398.8163491311751
 30
0.0
 70
0
  0
VERTEX
  8
1
  6
CONTINUOUS
 62
7
 10
-1502.795457329052
 20
-399.27103524482254
 30
0.0
 70
0
  0
VERTEX
  8
1
  6
CONTINUOUS
 62
7
 10
-1489.2495735713921
 20
-392.9683344029597
 30
0.0
 70
0
  0
VERTEX
  8
1
  6
CONTINUOUS
 62
7
 10
-1481.1158338671548
 20
-374.81114752526975
 30
0.0
 70
0
  0
VERTEX
  8
1
  6
CONTINUOUS
 62
7
 10
-1506.7307134331409
 20
-306.90668361654576
 30
0.0
 70
0
  0
VERTEX
  8
1
  6
CONTINUOUS
 62
7
 10
-1509.4616910702712
 20
-286.0559258785357
 30
0.0
 70
0
  0
VERTEX
  8
1
  6
CONTINUOUS
 62
7
 10
-1558.7523086831284
 20
-162.3561034624052
 30
0.0
 70
0
  0
VERTEX
  8
1
  6
CONTINUOUS
 62
7
 10
-1467.1404516462678
 20
-125.55238056129156
 30
0.0
 70
0
  0
VERTEX
  8
1
  6
CONTINUOUS
 62
7
 10
-1456.5868123922296
 20
-115.1356056362402
 30
0.0
 70
0
  0
VERTEX
  8
1
  6
CONTINUOUS
 62
7
 10
-1453.9731142996463
 20
-101.73941056676938
 30
0.0
 70
0
  0
VERTEX
  8
1
  6
CONTINUOUS
 62
7
 10
-1459.8780331521134
 20
-89.08213731528224
 30
0.0
 70
0
  0
VERTEX
  8
1
  6
CONTINUOUS
 62
7
 10
-1517.845319094871
 20
-43.089238889569856
 30
0.0
 70
0
  0
VERTEX
  8
1
  6
CONTINUOUS
 62
7
 10
-1447.621312863263
 20
58.97717369895997
 30
0.0
 70
0
  0
VERTEX
  8
1
  6
CONTINUOUS
 62
7
 10
-1444.6075265533236
 20
76.88409481468943
 30
0.0
 70
0
  0
VERTEX
  8
1
  6
CONTINUOUS
 62
7
 10
-1452.4146817204414
 20
93.62611692478413
 30
0.0
 70
0
  0
VERTEX
  8
1
  6
CONTINUOUS
 62
7
 10
-1438.51827588347
 20
120.27664640943203
 30
0.0
 70
0
  0
VERTEX
  8
1
  6
CONTINUOUS
 62
7
 10
-1440.1678183762
 20
123.40372509246367
 30
0.0
 70
0
  0
VERTEX
  8
1
  6
CONTINUOUS
 62
7
 10
-1422.7985304272356
 20
136.67779622201
 30
0.0
 70
0
  0
VERTEX
  8
1
  6
CONTINUOUS
 62
7
 10
-1423.6474142192706
 20
116.57999158724294
 30
0.0
 70
0
  0
VERTEX
  8
1
  6
CONTINUOUS
 62
7
 10
-1414.6308797688462
 20
123.72192595696015
 30
0.0
 70
0
  0
VERTEX
  8
1
  6
CONTINUOUS
 62
7
 10
-1410.2486039030618
 20
154.49465716003442
 30
0.0
 70
0
  0
VERTEX
  8
1
  6
CONTINUOUS
 62
7
 10
-1411.275989934519
 20
156.5879381645717
 30
0.0
 70
0
  0
VERTEX
  8
1
  6
CONTINUOUS
 62
7
 10
-1378.3046489626931
 20
214.75935648301987
 30
0.0
 70
0
  0
VERTEX
  8
1
  6
CONTINUOUS
 62
7
 10
-1364.594430186553
 20
222.3784661804936
 30
0.0
 70
0
  0
VERTEX
  8
1
  6
CONTINUOUS
 62
7
 10
-1355.6408122288315
 20
238.6916634024488
 30
0.0
 70
0
  0
VERTEX
  8
1
  6
CONTINUOUS
 62
7
 10
-1370.603795099456
 20
339.8283347358279
 30
0.0
 70
0
  0
VERTEX
  8
1
  6
CONTINUOUS
 62
7
 10
-1371.7031629954288
 20
363.42041703338714
 30
0.0
 70
0
  0
VERTEX
  8
1
  6
CONTINUOUS
 62
7
 10
-1417.593638555233
 20
374.6193733229042
 30
0.0
 70
0
  0
VERTEX
  8
1
  6
CONTINUOUS
 62
7
 10
-1465.3608920728466
 20
398.27596372434124
 30
0.0
 70
0
  0
VERTEX
  8
1
  6
CONTINUOUS
 62
7
 10
-1501.2692986113427
 20
426.772284867761
 30
0.0
 70
0
  0
VERTEX
  8
1
  6
CONTINUOUS
 62
7
 10
-1523.6316010757969
 20
459.3526699848189
 30
0.0
 70
0
  0
VERTEX
  8
1
  6
CONTINUOUS
 62
7
 10
-1540.8018046879572
 20
496.3685934023547
 30
0.0
 70
0
  0
VERTEX
  8
1
  6
CONTINUOUS
 62
7
 10
-1551.7384112012621
 20
500.6721895136363
 30
0.0
 70
0
  0
VERTEX
  8
1
  6
CONTINUOUS
 62
7
 10
-1550.8673944369848
 20
503.94405336483567
 30
0.0
 70
0
  0
VERTEX
  8
1
  6
CONTINUOUS
 62
7
 10
-1554.9013155626938
 20
508.05400571932563
 30
0.0
 70
0
  0
VERTEX
  8
1
  6
CONTINUOUS
 62
7
 10
-1606.2239241487691
 20
515.7624746083083
 30
0.0
 70
0
  0
VERTEX
  8
1
  6
CONTINUOUS
 62
7
 10
-1636.723100710088
 20
522.8925319728615
 30
0.0
 70
0
  0
VERTEX
  8
1
  6
CONTINUOUS
 62
7
 10
-1654.2703155710467
 20
524.229120659175
 30
0.0
 70
0
  0
VERTEX
  8
1
  6
CONTINUOUS
 62
7
 10
-1712.5516663829712
 20
530.8137112867553
 30
0.0
 70
0
  0
VERTEX
  8
1
  6
CONTINUOUS
 62
7
 10
-1720.3328410049255
 20
547.5703085558624
 30
0.0
 70
0
  0
VERTEX
  8
1
  6
CONTINUOUS
 62
7
 10
-1721.035709532875
 20
570.3486593197964
 30
0.0
 70
0
  0
VERTEX
  8
1
  6
CONTINUOUS
 62
7
 10
-1684.758956180099
 20
670.0168879618544
 30
0.0
 70
0
  0
VERTEX
  8
1
  6
CONTINUOUS
 62
7
 10
-1662.8035535238764
 20
769.608512300143
 30
0.0
 70
0
  0
VERTEX
  8
1
  6
CONTINUOUS
 62
7
 10
-1660.1923500472694
 20
799.5246131385425
 30
0.0
 70
0
  0
VERTEX
  8
1
  6
CONTINUOUS
 62
7
 10
-1670.887448581802
 20
817.7249529515924
 30
0.0
 70
0
  0
VERTEX
  8
1
  6
CONTINUOUS
 62
7
 10
-1701.9983527764712
 20
837.3293757966309
 30
0.0
 70
0
  0
VERTEX
  8
1
  6
CONTINUOUS
 62
7
 10
-1714.197440699871
 20
837.2486234169361
 30
0.0
 70
0
  0
VERTEX
  8
1
  6
CONTINUOUS
 62
7
 10
-1717.6738581757113
 20
844.5858111767895
 30
0.0
 70
0
  0
VERTEX
  8
1
  6
CONTINUOUS
 62
7
 10
-1756.5757105062426
 20
858.6866090256453
 30
0.0
 70
0
  0
VERTEX
  8
1
  6
CONTINUOUS
 62
7
 10
-1779.8362544118809
 20
857.3795047428415
 30
0.0
 70
0
  0
VERTEX
  8
1
  6
CONTINUOUS
 62
7
 10
-1788.6879805937956
 20
859.8591971269075
 30
0.0
 70
0
  0
VERTEX
  8
1
  6
CONTINUOUS
 62
7
 10
-1818.9163831519725
 20
853.7094793878285
 30
0.0
 70
0
  0
VERTEX
  8
1
  6
CONTINUOUS
 62
7
 10
-1823.2302043513773
 20
846.7837188867561
 30
0.0
 70
0
  0
VERTEX
  8
1
  6
CONTINUOUS
 62
7
 10
-1831.900352772594
 20
853.3342449526668
 30
0.0
 70
0
  0
VERTEX
  8
1
  6
CONTINUOUS
 62
7
 10
-1841.9287573248102
 20
850.5158996798739
 30
0.0
 70
0
  0
VERTEX
  8
1
  6
CONTINUOUS
 62
7
 10
-1855.3175456705915
 20
844.2547983200458
 30
0.0
 70
0
  0
VERTEX
  8
1
  6
CONTINUOUS
 62
7
 10
-1884.2493406050512
 20
835.1796478161504
 30
0.0
 70
0
  0
VERTEX
  8
1
  6
CONTINUOUS
 62
7
 10
-1889.2492662285215
 20
840.7541149513886
 30
0.0
 70
0
  0
VERTEX
  8
1
  6
CONTINUOUS
 62
7
 10
-1900.2463380642002
 20
838.7539413369047
 30
0.0
 70
0
  0
VERTEX
  8
1
  6
CONTINUOUS
 62
7
 10
-1906.4696191797793
 20
835.7734323939304
 30
0.0
 70
0
  0
VERTEX
  8
1
  6
CONTINUOUS
 62
7
 10
-1915.2360524462088
 20
842.582746453831
 30
0.0
 70
0
  0
VERTEX
  8
1
  6
CONTINUOUS
 62
7
 10
-1942.3982641068683
 20
836.7633698762161
 30
0.0
 70
0
  0
VERTEX
  8
1
  6
CONTINUOUS
 62
7
 10
-1964.3318353041382
 20
834.2473007968011
 30
0.0
 70
0
  0
VERTEX
  8
1
  6
CONTINUOUS
 62
7
 10
-1997.034692954648
 20
812.6834457444536
 30
0.0
 70
0
  0
VERTEX
  8
1
  6
CONTINUOUS
 62
7
 10
-2006.8278349387103
 20
814.4743914419337
 30
0.0
 70
0
  0
VERTEX
  8
1
  6
CONTINUOUS
 62
7
 10
-2007.3661120029608
 20
805.4678751806887
 30
0.0
 70
0
  0
VERTEX
  8
1
  6
CONTINUOUS
 62
7
 10
-2039.064185203335
 20
794.2718660929266
 30
0.0
 70
0
  0
VERTEX
  8
1
  6
CONTINUOUS
 62
7
 10
-2055.0099351967474
 20
803.9462205596483
 30
0.0
 70
0
  0
VERTEX
  8
1
  6
CONTINUOUS
 62
7
 10
-2059.3369992836188
 20
813.1094474298923
 30
0.0
 70
0
  0
VERTEX
  8
1
  6
CONTINUOUS
 62
7
 10
-2046.368430893267
 20
821.0625695976204
 30
0.0
 70
0
  0
VERTEX
  8
1
  6
CONTINUOUS
 62
7
 10
-2032.1053680992145
 20
842.7938210560883
 30
0.0
 70
0
  0
VERTEX
  8
1
  6
CONTINUOUS
 62
7
 10
-2009.8774652242773
 20
856.7889290373398
 30
0.0
 70
0
  0
VERTEX
  8
1
  6
CONTINUOUS
 62
7
 10
-2014.8727487780961
 20
879.3360484849816
 30
0.0
 70
0
  0
VERTEX
  8
1
  6
CONTINUOUS
 62
7
 10
-2017.3467300953514
 20
923.7128765605479
 30
0.0
 70
0
  0
VERTEX
  8
1
  6
CONTINUOUS
 62
7
 10
-2028.1330141511735
 20
940.2368443439028
 30
0.0
 70
0
  0
VERTEX
  8
1
  6
CONTINUOUS
 62
7
 10
-2042.9149388636993
 20
971.9402143892145
 30
0.0
 70
0
  0
VERTEX
  8
1
  6
CONTINUOUS
 62
7
 10
-2076.117194268402
 20
1017.121979855462
 30
0.0
 70
0
  0
VERTEX
  8
1
  6
CONTINUOUS
 62
7
 10
-2095.653928989076
 20
1047.885556710178
 30
0.0
 70
0
  0
VERTEX
  8
1
  6
CONTINUOUS
 62
7
 10
-2120.2768291218486
 20
1056.0743924177573
 30
0.0
 70
0
  0
VERTEX
  8
1
  6
CONTINUOUS
 62
7
 10
-2130.3631054153184
 20
1051.397411821571
 30
0.0
 70
0
  0
VERTEX
  8
1
  6
CONTINUOUS
 62
7
 10
-2140.193000918779
 20
1062.614362022534
 30
0.0
 70
0
  0
VERTEX
  8
1
  6
CONTINUOUS
 62
7
 10
-2208.172241253379
 20
1060.9470942066714
 30
0.0
 70
0
  0
VERTEX
  8
1
  6
CONTINUOUS
 62
7
 10
-2284.0977179225974
 20
1074.3278109286612
 30
0.0
 70
0
  0
VERTEX
  8
1
  6
CONTINUOUS
 62
7
 10
-2340.625418265959
 20
1076.4590810798923
 30
0.0
 70
0
  0
VERTEX
  8
1
  6
CONTINUOUS
 62
7
 10
-2352.48100598373
 20
1056.4739973735705
 30
0.0
 70
0
  0
VERTEX
  8
1
  6
CONTINUOUS
 62
7
 10
-2347.6552106440295
 20
1045.958158554915
 30
0.0
 70
0
  0
VERTEX
  8
1
  6
CONTINUOUS
 62
7
 10
-2367.5079319554843
 20
1047.1477043010193
 30
0.0
 70
0
  0
VERTEX
  8
1
  6
CONTINUOUS
 62
7
 10
-2426.937647118272
 20
1068.8209426159888
 30
0.0
 70
0
  0
VERTEX
  8
1
  6
CONTINUOUS
 62
7
 10
-2525.679705071456
 20
1150.6626240359856
 30
0.0
 70
0
  0
VERTEX
  8
1
  6
CONTINUOUS
 62
7
 10
-2561.5919477186826
 20
1161.480846443957
 30
0.0
 70
0
  0
VERTEX
  8
1
  6
CONTINUOUS
 62
7
 10
-2618.496706174508
 20
1163.6638035474525
 30
0.0
 70
0
  0
VERTEX
  8
1
  6
CONTINUOUS
 62
7
 10
-2626.6839743963183
 20
1149.9821386760623
 30
0.0
 70
0
  0
VERTEX
  8
1
  6
CONTINUOUS
 62
7
 10
-2630.3443758246094
 20
1164.1614616688953
 30
0.0
 70
0
  0
VERTEX
  8
1
  6
CONTINUOUS
 62
7
 10
-2643.808061775606
 20
1169.5791581256055
 30
0.0
 70
0
  0
VERTEX
  8
1
  6
CONTINUOUS
 62
7
 10
-2676.913968925941
 20
1181.6196439385285
 30
0.0
 70
0
  0
VERTEX
  8
1
  6
CONTINUOUS
 62
7
 10
-2688.1339014912764
 20
1193.452881345785
 30
0.0
 70
0
  0
VERTEX
  8
1
  6
CONTINUOUS
 62
7
 10
-2706.808207314738
 20
1196.2884810918797
 30
0.0
 70
0
  0
VERTEX
  8
1
  6
CONTINUOUS
 62
7
 10
-2732.6359549743574
 20
1204.224331308472
 30
0.0
 70
0
  0
VERTEX
  8
1
  6
CONTINUOUS
 62
7
 10
-2733.8872690234975
 20
1193.8158373210892
 30
0.0
 70
0
  0
VERTEX
  8
1
  6
CONTINUOUS
 62
7
 10
-2769.052599489557
 20
1194.8338450180477
 30
0.0
 70
0
  0
VERTEX
  8
1
  6
CONTINUOUS
 62
7
 10
-2778.1822418109796
 20
1177.5164768896311
 30
0.0
 70
0
  0
VERTEX
  8
1
  6
CONTINUOUS
 62
7
 10
-2785.031560177402
 20
1174.3240006288052
 30
0.0
 70
0
  0
VERTEX
  8
1
  6
CONTINUOUS
 62
7
 10
-2786.244274004207
 20
1177.2711361823906
 30
0.0
 70
0
  0
VERTEX
  8
1
  6
CONTINUOUS
 62
7
 10
-2781.450743614181
 20
1198.1749717646153
 30
0.0
 70
0
  0
VERTEX
  8
1
  6
CONTINUOUS
 62
7
 10
-2786.2637784415956
 20
1198.5692137643764
 30
0.0
 70
0
  0
VERTEX
  8
1
  6
CONTINUOUS
 62
7
 10
-2808.197067588045
 20
1199.6779131669132
 30
0.0
 70
0
  0
VERTEX
  8
1
  6
CONTINUOUS
 62
7
 10
-2805.9652454634133
 20
1209.841266107897
 30
0.0
 70
0
  0
VERTEX
  8
1
  6
CONTINUOUS
 62
7
 10
-2810.5675833222886
 20
1211.795715169303
 30
0.0
 70
0
  0
VERTEX
  8
1
  6
CONTINUOUS
 62
7
 10
-2819.0867932994834
 20
1208.9803170446999
 30
0.0
 70
0
  0
VERTEX
  8
1
  6
CONTINUOUS
 62
7
 10
-2819.1198022581925
 20
1202.3038042711905
 30
0.0
 70
0
  0
VERTEX
  8
1
  6
CONTINUOUS
 62
7
 10
-2822.9984282475307
 20
1191.8762292050565
 30
0.0
 70
0
  0
VERTEX
  8
1
  6
CONTINUOUS
 62
7
 10
-2829.556290177984
 20
1196.7873843938364
 30
0.0
 70
0
  0
VERTEX
  8
1
  6
CONTINUOUS
 62
7
 10
-2836.791849219862
 20
1193.1618406723433
 30
0.0
 70
0
  0
VERTEX
  8
1
  6
CONTINUOUS
 62
7
 10
-2843.1168588899573
 20
1195.3457297907114
 30
0.0
 70
0
  0
VERTEX
  8
1
  6
CONTINUOUS
 62
7
 10
-2848.088545772691
 20
1191.1164087584675
 30
0.0
 70
0
  0
VERTEX
  8
1
  6
CONTINUOUS
 62
7
 10
-2849.08861094561
 20
1183.1482736491155
 30
0.0
 70
0
  0
VERTEX
  8
1
  6
CONTINUOUS
 62
7
 10
-2864.0627958380383
 20
1182.3448659207625
 30
0.0
 70
0
  0
VERTEX
  8
1
  6
CONTINUOUS
 62
7
 10
-2864.0582915658338
 20
1171.783773429207
 30
0.0
 70
0
  0
VERTEX
  8
1
  6
CONTINUOUS
 62
7
 10
-2853.67091553505
 20
1173.5039079387257
 30
0.0
 70
0
  0
VERTEX
  8
1
  6
CONTINUOUS
 62
7
 10
-2860.527533539819
 20
1163.1687664487877
 30
0.0
 70
0
  0
VERTEX
  8
1
  6
CONTINUOUS
 62
7
 10
-2865.2193472079175
 20
1152.3899589981934
 30
0.0
 70
0
  0
VERTEX
  8
1
  6
CONTINUOUS
 62
7
 10
-2868.1999529027285
 20
1153.421599577087
 30
0.0
 70
0
  0
VERTEX
  8
1
  6
CONTINUOUS
 62
7
 10
-2869.172892834019
 20
1165.469662984677
 30
0.0
 70
0
  0
VERTEX
  8
1
  6
CONTINUOUS
 62
7
 10
-2901.9201181378717
 20
1161.7465008486788
 30
0.0
 70
0
  0
VERTEX
  8
1
  6
CONTINUOUS
 62
7
 10
-2895.4452030737766
 20
1172.095199796674
 30
0.0
 70
0
  0
VERTEX
  8
1
  6
CONTINUOUS
 62
7
 10
-2919.0406762658044
 20
1165.8874641255622
 30
0.0
 70
0
  0
VERTEX
  8
1
  6
CONTINUOUS
 62
7
 10
-2916.3653216766133
 20
1160.2317401363687
 30
0.0
 70
0
  0
VERTEX
  8
1
  6
CONTINUOUS
 62
7
 10
-2932.6468171895704
 20
1152.2888095705475
 30
0.0
 70
0
  0
VERTEX
  8
1
  6
CONTINUOUS
 62
7
 10
-2928.1011147901118
 20
1143.959186030852
 30
0.0
 70
0
  0
VERTEX
  8
1
  6
CONTINUOUS
 62
7
 10
-2915.5179579756004
 20
1147.7399803740113
 30
0.0
 70
0
  0
VERTEX
  8
1
  6
CONTINUOUS
 62
7
 10
-2911.8503294193933
 20
1152.5815764201539
 30
0.0
 70
0
  0
VERTEX
  8
1
  6
CONTINUOUS
 62
7
 10
-2912.8155018330463
 20
1153.1282324215895
 30
0.0
 70
0
  0
VERTEX
  8
1
  6
CONTINUOUS
 62
7
 10
-2910.1780931295875
 20
1154.7890771211673
 30
0.0
 70
0
  0
VERTEX
  8
1
  6
CONTINUOUS
 62
7
 10
-2911.8503294193933
 20
1152.5815764201539
 30
0.0
 70
0
  0
VERTEX
  8
1
  6
CONTINUOUS
 62
7
 10
-2906.060794896019
 20
1149.3024899606062
 30
0.0
 70
0
  0
VERTEX
  8
1
  6
CONTINUOUS
 62
7
 10
-2923.087377903419
 20
1134.0582565115537
 30
0.0
 70
0
  0
VERTEX
  8
1
  6
CONTINUOUS
 62
7
 10
-2937.2058823548714
 20
1111.1194194743957
 30
0.0
 70
0
  0
VERTEX
  8
1
  6
CONTINUOUS
 62
7
 10
-2941.9529479792477
 20
1108.783752484692
 30
0.0
 70
0
  0
VERTEX
  8
1
  6
CONTINUOUS
 62
7
 10
-2942.957220317196
 20
1111.1696119137082
 30
0.0
 70
0
  0
VERTEX
  8
1
  6
CONTINUOUS
 62
7
 10
-2937.6242407965046
 20
1120.8398944086643
 30
0.0
 70
0
  0
VERTEX
  8
1
  6
CONTINUOUS
 62
7
 10
-2944.0341173709458
 20
1126.1279693004712
 30
0.0
 70
0
  0
VERTEX
  8
1
  6
CONTINUOUS
 62
7
 10
-2940.0364159836854
 20
1134.6116878714136
 30
0.0
 70
0
  0
VERTEX
  8
1
  6
CONTINUOUS
 62
7
 10
-2940.346087074399
 20
1134.9960768754627
 30
0.0
 70
0
  0
VERTEX
  8
1
  6
CONTINUOUS
 62
7
 10
-3007.550867052005
 20
1141.6862119107398
 30
0.0
 70
0
  0
VERTEX
  8
1
  6
CONTINUOUS
 62
7
 10
-3053.3699510560273
 20
1158.3658673880436
 30
0.0
 70
0
  0
VERTEX
  8
1
  6
CONTINUOUS
 62
7
 10
-3083.8162752055964
 20
1173.9618744609957
 30
0.0
 70
0
  0
VERTEX
  8
1
  6
CONTINUOUS
 62
7
 10
-3108.934504114787
 20
1204.9354745817102
 30
0.0
 70
0
  0
VERTEX
  8
1
  6
CONTINUOUS
 62
7
 10
-3150.3928981325166
 20
1290.746437823032
 30
0.0
 70
0
  0
VERTEX
  8
1
  6
CONTINUOUS
 62
7
 10
-3166.7573410653463
 20
1288.0898842750491
 30
0.0
 70
0
  0
VERTEX
  8
1
  6
CONTINUOUS
 62
7
 10
-3168.748970879642
 20
1292.0846556586532
 30
0.0
 70
0
  0
VERTEX
  8
1
  6
CONTINUOUS
 62
7
 10
-3154.708438994261
 20
1298.978214401177
 30
0.0
 70
0
  0
VERTEX
  8
1
  6
CONTINUOUS
 62
7
 10
-3159.039321836097
 20
1310.716944855526
 30
0.0
 70
0
  0
VERTEX
  8
1
  6
CONTINUOUS
 62
7
 10
-3185.044257811157
 20
1334.1980562072056
 30
0.0
 70
0
  0
VERTEX
  8
1
  6
CONTINUOUS
 62
7
 10
-3187.952375937707
 20
1310.8291179245402
 30
0.0
 70
0
  0
VERTEX
  8
1
  6
CONTINUOUS
 62
7
 10
-3193.175120312768
 20
1308.1516027692096
 30
0.0
 70
0
  0
VERTEX
  8
1
  6
CONTINUOUS
 62
7
 10
-3192.602147433303
 20
1337.2811046570228
 30
0.0
 70
0
  0
VERTEX
  8
1
  6
CONTINUOUS
 62
7
 10
-3227.6385228608196
 20
1367.2475003248665
 30
0.0
 70
0
  0
VERTEX
  8
1
  6
CONTINUOUS
 62
7
 10
-3251.655148772705
 20
1356.199633422259
 30
0.0
 70
0
  0
VERTEX
  8
1
  6
CONTINUOUS
 62
7
 10
-3256.204005506138
 20
1366.2877465937395
 30
0.0
 70
0
  0
VERTEX
  8
1
  6
CONTINUOUS
 62
7
 10
-3252.2488208910427
 20
1391.7861115986188
 30
0.0
 70
0
  0
VERTEX
  8
1
  6
CONTINUOUS
 62
7
 10
-3314.500605989225
 20
1456.1543255627248
 30
0.0
 70
0
  0
VERTEX
  8
1
  6
CONTINUOUS
 62
7
 10
-3332.8663028631263
 20
1476.210453765847
 30
0.0
 70
0
  0
VERTEX
  8
1
  6
CONTINUOUS
 62
7
 10
-3332.8023252134635
 20
1476.5027887000613
 30
0.0
 70
0
  0
VERTEX
  8
1
  6
CONTINUOUS
 62
7
 10
-3341.1131193835754
 20
1481.097172465103
 30
0.0
 70
0
  0
VERTEX
  8
1
  6
CONTINUOUS
 62
7
 10
-3342.61168203267
 20
1478.4526820872852
 30
0.0
 70
0
  0
VERTEX
  8
1
  6
CONTINUOUS
 62
7
 10
-3351.420216895155
 20
1476.1396006332573
 30
0.0
 70
0
  0
VERTEX
  8
1
  6
CONTINUOUS
 62
7
 10
-3362.7916277395484
 20
1476.133330469227
 30
0.0
 70
0
  0
VERTEX
  8
1
  6
CONTINUOUS
 62
7
 10
-3366.4208488137565
 20
1466.5457515276337
 30
0.0
 70
0
  0
VERTEX
  8
1
  6
CONTINUOUS
 62
7
 10
-3393.12504383746
 20
1460.7041289635893
 30
0.0
 70
0
  0
VERTEX
  8
1
  6
CONTINUOUS
 62
7
 10
-3414.6398933549513
 20
1464.5008745550474
 30
0.0
 70
0
  0
VERTEX
  8
1
  6
CONTINUOUS
 62
7
 10
-3440.194157420823
 20
1454.4925376012961
 30
0.0
 70
0
  0
VERTEX
  8
1
  6
CONTINUOUS
 62
7
 10
-3466.629898423489
 20
1431.7595261374313
 30
0.0
 70
0
  0
VERTEX
  8
1
  6
CONTINUOUS
 62
7
 10
-3453.444861325198
 20
1417.3782754437564
 30
0.0
 70
0
  0
VERTEX
  8
1
  6
CONTINUOUS
 62
7
 10
-3458.381253877846
 20
1415.2965958476793
 30
0.0
 70
0
  0
VERTEX
  8
1
  6
CONTINUOUS
 62
7
 10
-3476.6414425051125
 20
1427.6310735374482
 30
0.0
 70
0
  0
VERTEX
  8
1
  6
CONTINUOUS
 62
7
 10
-3476.5057950180562
 20
1420.4755888441798
 30
0.0
 70
0
  0
VERTEX
  8
1
  6
CONTINUOUS
 62
7
 10
-3481.589228877801
 20
1417.8057277654605
 30
0.0
 70
0
  0
VERTEX
  8
1
  6
CONTINUOUS
 62
7
 10
-3477.0230126788233
 20
1393.9888591007505
 30
0.0
 70
0
  0
VERTEX
  8
1
  6
CONTINUOUS
 62
7
 10
-3482.477669118592
 20
1379.0062020685446
 30
0.0
 70
0
  0
VERTEX
  8
1
  6
CONTINUOUS
 62
7
 10
-3498.3037116255764
 20
1356.745962352663
 30
0.0
 70
0
  0
VERTEX
  8
1
  6
CONTINUOUS
 62
7
 10
-3499.8668318597465
 20
1362.4019621304471
 30
0.0
 70
0
  0
VERTEX
  8
1
  6
CONTINUOUS
 62
7
 10
-3509.2120078446987
 20
1358.254484828093
 30
0.0
 70
0
  0
VERTEX
  8
1
  6
CONTINUOUS
 62
7
 10
-3505.0856664978132
 20
1351.3086167348106
 30
0.0
 70
0
  0
VERTEX
  8
1
  6
CONTINUOUS
 62
7
 10
-3519.998140554546
 20
1340.1894396579928
 30
0.0
 70
0
  0
VERTEX
  8
1
  6
CONTINUOUS
 62
7
 10
-3523.9098242755804
 20
1337.3055064277498
 30
0.0
 70
0
  0
VERTEX
  8
1
  6
CONTINUOUS
 62
7
 10
-3520.191531755404
 20
1330.167385384233
 30
0.0
 70
0
  0
VERTEX
  8
1
  6
CONTINUOUS
 62
7
 10
-3526.5896023989917
 20
1326.0595002280982
 30
0.0
 70
0
  0
VERTEX
  8
1
  6
CONTINUOUS
 62
7
 10
-3529.7908756152883
 20
1332.9696345636407
 30
0.0
 70
0
  0
VERTEX
  8
1
  6
CONTINUOUS
 62
7
 10
-3523.9098242755804
 20
1337.3055064277498
 30
0.0
 70
0
  0
VERTEX
  8
1
  6
CONTINUOUS
 62
7
 10
-3525.814814279053
 20
1340.962574600237
 30
0.0
 70
0
  0
VERTEX
  8
1
  6
CONTINUOUS
 62
7
 10
-3549.4031473876666
 20
1329.8777052555404
 30
0.0
 70
0
  0
VERTEX
  8
1
  6
CONTINUOUS
 62
7
 10
-3541.9607051431344
 20
1314.116766655525
 30
0.0
 70
0
  0
VERTEX
  8
1
  6
CONTINUOUS
 62
7
 10
-3544.3700269641186
 20
1310.3066153766322
 30
0.0
 70
0
  0
VERTEX
  8
1
  6
CONTINUOUS
 62
7
 10
-3552.9869827038783
 20
1295.99257121671
 30
0.0
 70
0
  0
VERTEX
  8
1
  6
CONTINUOUS
 62
7
 10
-3543.6270687480683
 20
1294.6510732062177
 30
0.0
 70
0
  0
VERTEX
  8
1
  6
CONTINUOUS
 62
7
 10
-3533.1322017552375
 20
1299.8691609145922
 30
0.0
 70
0
  0
VERTEX
  8
1
  6
CONTINUOUS
 62
7
 10
-3527.979450473331
 20
1309.6658976127208
 30
0.0
 70
0
  0
VERTEX
  8
1
  6
CONTINUOUS
 62
7
 10
-3531.29652361618
 20
1323.0374185918874
 30
0.0
 70
0
  0
VERTEX
  8
1
  6
CONTINUOUS
 62
7
 10
-3534.320515556349
 20
1321.0958627236694
 30
0.0
 70
0
  0
VERTEX
  8
1
  6
CONTINUOUS
 62
7
 10
-3536.200496106777
 20
1322.876140425396
 30
0.0
 70
0
  0
VERTEX
  8
1
  6
CONTINUOUS
 62
7
 10
-3531.937241182981
 20
1325.6202282006025
 30
0.0
 70
0
  0
VERTEX
  8
1
  6
CONTINUOUS
 62
7
 10
-3531.29652361618
 20
1323.0374185918874
 30
0.0
 70
0
  0
VERTEX
  8
1
  6
CONTINUOUS
 62
7
 10
-3526.5896023989917
 20
1326.0595002280982
 30
0.0
 70
0
  0
VERTEX
  8
1
  6
CONTINUOUS
 62
7
 10
-3521.0947241024833
 20
1314.1984859938154
 30
0.0
 70
0
  0
VERTEX
  8
1
  6
CONTINUOUS
 62
7
 10
-3528.310486461218
 20
1294.4243219599612
 30
0.0
 70
0
  0
VERTEX
  8
1
  6
CONTINUOUS
 62
7
 10
-3548.300035383059
 20
1285.0683678842445
 30
0.0
 70
0
  0
VERTEX
  8
1
  6
CONTINUOUS
 62
7
 10
-3544.6575739199247
 20
1253.5918581044061
 30
0.0
 70
0
  0
VERTEX
  8
1
  6
CONTINUOUS
 62
7
 10
-3534.3293682898493
 20
1233.4575031748163
 30
0.0
 70
0
  0
VERTEX
  8
1
  6
CONTINUOUS
 62
7
 10
-3513.4975031264935
 20
1216.9268391336277
 30
0.0
 70
0
  0
VERTEX
  8
1
  6
CONTINUOUS
 62
7
 10
-3487.1108064918
 20
1190.7158310606649
 30
0.0
 70
0
  0
VERTEX
  8
1
  6
CONTINUOUS
 62
7
 10
-3489.223483472112
 20
1183.3892569401664
 30
0.0
 70
0
  0
VERTEX
  8
1
  6
CONTINUOUS
 62
7
 10
-3471.796396700618
 20
1177.4771877316623
 30
0.0
 70
0
  0
VERTEX
  8
1
  6
CONTINUOUS
 62
7
 10
-3469.6960329299845
 20
1171.6322970002009
 30
0.0
 70
0
  0
VERTEX
  8
1
  6
CONTINUOUS
 62
7
 10
-3452.2336110804063
 20
1165.176642639988
 30
0.0
 70
0
  0
VERTEX
  8
1
  6
CONTINUOUS
 62
7
 10
-3460.8430653942496
 20
1179.7005624311514
 30
0.0
 70
0
  0
VERTEX
  8
1
  6
CONTINUOUS
 62
7
 10
-3468.667180741566
 20
1180.4914099410269
 30
0.0
 70
0
  0
VERTEX
  8
1
  6
CONTINUOUS
 62
7
 10
-3464.891180241457
 20
1175.134620775885
 30
0.0
 70
0
  0
VERTEX
  8
1
  6
CONTINUOUS
 62
7
 10
-3471.796396700618
 20
1177.4771877316623
 30
0.0
 70
0
  0
VERTEX
  8
1
  6
CONTINUOUS
 62
7
 10
-3473.0383296489717
 20
1180.9332378123306
 30
0.0
 70
0
  0
VERTEX
  8
1
  6
CONTINUOUS
 62
7
 10
-3468.667180741566
 20
1180.4914099410269
 30
0.0
 70
0
  0
VERTEX
  8
1
  6
CONTINUOUS
 62
7
 10
-3477.3247834008007
 20
1192.7734401260795
 30
0.0
 70
0
  0
VERTEX
  8
1
  6
CONTINUOUS
 62
7
 10
-3477.789880237421
 20
1193.274037790632
 30
0.0
 70
0
  0
VERTEX
  8
1
  6
CONTINUOUS
 62
7
 10
-3457.634480729118
 20
1185.8234148545098
 30
0.0
 70
0
  0
VERTEX
  8
1
  6
CONTINUOUS
 62
7
 10
-3440.7589208506943
 20
1159.8857461824111
 30
0.0
 70
0
  0
VERTEX
  8
1
  6
CONTINUOUS
 62
7
 10
-3441.3940507397883
 20
1136.7345497420233
 30
0.0
 70
0
  0
VERTEX
  8
1
  6
CONTINUOUS
 62
7
 10
-3436.1202284232877
 20
1117.2485337734918
 30
0.0
 70
0
  0
VERTEX
  8
1
  6
CONTINUOUS
 62
7
 10
-3430.948223192284
 20
1082.6324372700958
 30
0.0
 70
0
  0
VERTEX
  8
1
  6
CONTINUOUS
 62
7
 10
-3433.7533800742485
 20
1072.6053153342584
 30
0.0
 70
0
  0
VERTEX
  8
1
  6
CONTINUOUS
 62
7
 10
-3431.547112662405
 20
1056.7134966345268
 30
0.0
 70
0
  0
VERTEX
  8
1
  6
CONTINUOUS
 62
7
 10
-3450.110256228959
 20
1028.601297668945
 30
0.0
 70
0
  0
VERTEX
  8
1
  6
CONTINUOUS
 62
7
 10
-3460.642041171736
 20
1023.5429295220015
 30
0.0
 70
0
  0
VERTEX
  8
1
  6
CONTINUOUS
 62
7
 10
-3459.345290612885
 20
1017.8798577441908
 30
0.0
 70
0
  0
VERTEX
  8
1
  6
CONTINUOUS
 62
7
 10
-3473.9060310359187
 20
998.6681302418033
 30
0.0
 70
0
  0
VERTEX
  8
1
  6
CONTINUOUS
 62
7
 10
-3484.081468691398
 20
993.9570968705464
 30
0.0
 70
0
  0
VERTEX
  8
1
  6
CONTINUOUS
 62
7
 10
-3490.298399133999
 20
989.2485549162311
 30
0.0
 70
0
  0
VERTEX
  8
1
  6
CONTINUOUS
 62
7
 10
-3491.637911146707
 20
975.9231365179633
 30
0.0
 70
0
  0
VERTEX
  8
1
  6
CONTINUOUS
 62
7
 10
-3484.2783600851694
 20
976.6240992291696
 30
0.0
 70
0
  0
VERTEX
  8
1
  6
CONTINUOUS
 62
7
 10
-3492.283858047849
 20
966.6771677412999
 30
0.0
 70
0
  0
VERTEX
  8
1
  6
CONTINUOUS
 62
7
 10
-3497.1550691758875
 20
965.8980477990538
 30
0.0
 70
0
  0
VERTEX
  8
1
  6
CONTINUOUS
 62
7
 10
-3506.480801591309
 20
954.9589169655642
 30
0.0
 70
0
  0
VERTEX
  8
1
  6
CONTINUOUS
 62
7
 10
-3499.483860997539
 20
956.809826916241
 30
0.0
 70
0
  0
VERTEX
  8
1
  6
CONTINUOUS
 62
7
 10
-3505.0474070095925
 20
948.0056436993252
 30
0.0
 70
0
  0
VERTEX
  8
1
  6
CONTINUOUS
 62
7
 10
-3507.082636131919
 20
948.7783958585755
 30
0.0
 70
0
  0
VERTEX
  8
1
  6
CONTINUOUS
 62
7
 10
-3503.7654603285932
 20
952.6277193518524
 30
0.0
 70
0
  0
VERTEX
  8
1
  6
CONTINUOUS
 62
7
 10
-3508.532332548668
 20
952.5524608769899
 30
0.0
 70
0
  0
VERTEX
  8
1
  6
CONTINUOUS
 62
7
 10
-3506.480801591309
 20
954.9589169655642
 30
0.0
 70
0
  0
VERTEX
  8
1
  6
CONTINUOUS
 62
7
 10
-3516.4293235410523
 20
952.3272212945069
 30
0.0
 70
0
  0
VERTEX
  8
1
  6
CONTINUOUS
 62
7
 10
-3507.082636131919
 20
948.7783958585755
 30
0.0
 70
0
  0
VERTEX
  8
1
  6
CONTINUOUS
 62
7
 10
-3512.07082955039
 20
942.9899869067738
 30
0.0
 70
0
  0
VERTEX
  8
1
  6
CONTINUOUS
 62
7
 10
-3526.807280615816
 20
930.5289006926369
 30
0.0
 70
0
  0
VERTEX
  8
1
  6
CONTINUOUS
 62
7
 10
-3523.6318245615676
 20
925.8019501583412
 30
0.0
 70
0
  0
VERTEX
  8
1
  6
CONTINUOUS
 62
7
 10
-3528.195008798223
 20
921.4276044349631
 30
0.0
 70
0
  0
VERTEX
  8
1
  6
CONTINUOUS
 62
7
 10
-3532.654370572098
 20
925.5846239652608
 30
0.0
 70
0
  0
VERTEX
  8
1
  6
CONTINUOUS
 62
7
 10
-3526.807280615816
 20
930.5289006926369
 30
0.0
 70
0
  0
VERTEX
  8
1
  6
CONTINUOUS
 62
7
 10
-3529.939299908044
 20
935.1911917191285
 30
0.0
 70
0
  0
VERTEX
  8
1
  6
CONTINUOUS
 62
7
 10
-3531.0874414900445
 20
935.7871697616529
 30
0.0
 70
0
  0
VERTEX
  8
1
  6
CONTINUOUS
 62
7
 10
-3528.7939727963176
 20
939.1076613517
 30
0.0
 70
0
  0
VERTEX
  8
1
  6
CONTINUOUS
 62
7
 10
-3527.2607146767514
 20
945.1661888379804
 30
0.0
 70
0
  0
VERTEX
  8
1
  6
CONTINUOUS
 62
7
 10
-3541.737577483558
 20
945.2928828914028
 30
0.0
 70
0
  0
VERTEX
  8
1
  6
CONTINUOUS
 62
7
 10
-3542.3237566965963
 20
941.4077812273808
 30
0.0
 70
0
  0
VERTEX
  8
1
  6
CONTINUOUS
 62
7
 10
-3535.7189587763155
 20
941.0955452408425
 30
0.0
 70
0
  0
VERTEX
  8
1
  6
CONTINUOUS
 62
7
 10
-3536.110291669304
 20
936.136163469245
 30
0.0
 70
0
  0
VERTEX
  8
1
  6
CONTINUOUS
 62
7
 10
-3539.16027937818
 20
937.3648987382596
 30
0.0
 70
0
  0
VERTEX
  8
1
  6
CONTINUOUS
 62
7
 10
-3541.074619790259
 20
935.2809360178701
 30
0.0
 70
0
  0
VERTEX
  8
1
  6
CONTINUOUS
 62
7
 10
-3539.82377319255
 20
933.5711802779367
 30
0.0
 70
0
  0
VERTEX
  8
1
  6
CONTINUOUS
 62
7
 10
-3543.3465696675144
 20
934.6287411541139
 30
0.0
 70
0
  0
VERTEX
  8
1
  6
CONTINUOUS
 62
7
 10
-3542.3237566965963
 20
941.4077812273808
 30
0.0
 70
0
  0
VERTEX
  8
1
  6
CONTINUOUS
 62
7
 10
-3545.0995743281287
 20
941.5390055535465
 30
0.0
 70
0
  0
VERTEX
  8
1
  6
CONTINUOUS
 62
7
 10
-3547.9102774552575
 20
933.6712734729458
 30
0.0
 70
0
  0
VERTEX
  8
1
  6
CONTINUOUS
 62
7
 10
-3545.275448783731
 20
932.1361762102999
 30
0.0
 70
0
  0
VERTEX
  8
1
  6
CONTINUOUS
 62
7
 10
-3547.305153530525
 20
926.699483391817
 30
0.0
 70
0
  0
VERTEX
  8
1
  6
CONTINUOUS
 62
7
 10
-3538.159825132574
 20
920.5894884367854
 30
0.0
 70
0
  0
VERTEX
  8
1
  6
CONTINUOUS
 62
7
 10
-3546.454300911113
 20
914.0362772424887
 30
0.0
 70
0
  0
VERTEX
  8
1
  6
CONTINUOUS
 62
7
 10
-3580.783602052472
 20
874.5667262481563
 30
0.0
 70
0
  0
VERTEX
  8
1
  6
CONTINUOUS
 62
7
 10
-3570.10303481875
 20
861.5936410533086
 30
0.0
 70
0
  0
VERTEX
  8
1
  6
CONTINUOUS
 62
7
 10
-3571.6100898057357
 20
856.8291374703854
 30
0.0
 70
0
  0
VERTEX
  8
1
  6
CONTINUOUS
 62
7
 10
-3586.819551551771
 20
867.8425352689253
 30
0.0
 70
0
  0
VERTEX
  8
1
  6
CONTINUOUS
 62
7
 10
-3599.030536528103
 20
861.9422360401786
 30
0.0
 70
0
  0
VERTEX
  8
1
  6
CONTINUOUS
 62
7
 10
-3606.7581049584433
 20
847.3791926382589
 30
0.0
 70
0
  0
VERTEX
  8
1
  6
CONTINUOUS
 62
7
 10
-3624.825359464491
 20
830.3021010767395
 30
0.0
 70
0
  0
VERTEX
  8
1
  6
CONTINUOUS
 62
7
 10
-3595.0372607900376
 20
720.4110179573636
 30
0.0
 70
0
  0
VERTEX
  8
1
  6
CONTINUOUS
 62
7
 10
-3584.8323524564225
 20
679.6159749402952
 30
0.0
 70
0
  0
VERTEX
  8
1
  6
CONTINUOUS
 62
7
 10
-3581.841397915615
 20
676.0981601211895
 30
0.0
 70
0
  0
VERTEX
  8
1
  6
CONTINUOUS
 62
7
 10
-3582.8961854514555
 20
672.8962307976301
 30
0.0
 70
0
  0
VERTEX
  8
1
  6
CONTINUOUS
 62
7
 10
-3574.9000833319037
 20
656.2879761486001
 30
0.0
 70
0
  0
VERTEX
  8
1
  6
CONTINUOUS
 62
7
 10
-3576.8852920583686
 20
648.3584254039911
 30
0.0
 70
0
  0
VERTEX
  8
1
  6
CONTINUOUS
 62
7
 10
-3570.533762223323
 20
645.8771981168443
 30
0.0
 70
0
  0
VERTEX
  8
1
  6
CONTINUOUS
 62
7
 10
-3551.7527725933273
 20
590.6977428748046
 30
0.0
 70
0
  0
VERTEX
  8
1
  6
CONTINUOUS
 62
7
 10
-3546.239780572295
 20
590.6332682313039
 30
0.0
 70
0
  0
VERTEX
  8
1
  6
CONTINUOUS
 62
7
 10
-3542.280375355276
 20
583.4285899830275
 30
0.0
 70
0
  0
VERTEX
  8
1
  6
CONTINUOUS
 62
7
 10
-3548.417578107056
 20
578.6127261420374
 30
0.0
 70
0
  0
VERTEX
  8
1
  6
CONTINUOUS
 62
7
 10
-3544.2087195319373
 20
571.3680862295646
 30
0.0
 70
0
  0
VERTEX
  8
1
  6
CONTINUOUS
 62
7
 10
-3537.492904605675
 20
547.4122232297545
 30
0.0
 70
0
  0
VERTEX
  8
1
  6
CONTINUOUS
 62
7
 10
-3534.7685598535504
 20
546.4011665282219
 30
0.0
 70
0
  0
VERTEX
  8
1
  6
CONTINUOUS
 62
7
 10
-3521.1765327168096
 20
517.0551305444965
 30
0.0
 70
0
  0
VERTEX
  8
1
  6
CONTINUOUS
 62
7
 10
-3506.6077988037387
 20
451.16699239481227
 30
0.0
 70
0
  0
VERTEX
  8
1
  6
CONTINUOUS
 62
7
 10
-3491.1623696960332
 20
412.46922040108666
 30
0.0
 70
0
  0
VERTEX
  8
1
  6
CONTINUOUS
 62
7
 10
-3459.300134786684
 20
385.51913935569564
 30
0.0
 70
0
  0
VERTEX
  8
1
  6
CONTINUOUS
 62
7
 10
-3438.669349459725
 20
351.96829738267456
 30
0.0
 70
0
  0
VERTEX
  8
1
  6
CONTINUOUS
 62
7
 10
-3431.2411716109136
 20
347.8686813898528
 30
0.0
 70
0
  0
VERTEX
  8
1
  6
CONTINUOUS
 62
7
 10
-3412.8712887826123
 20
346.35084781712
 30
0.0
 70
0
  0
VERTEX
  8
1
  6
CONTINUOUS
 62
7
 10
-3325.704761071344
 20
331.1759644763406
 30
0.0
 70
0
  0
VERTEX
  8
1
  6
CONTINUOUS
 62
7
 10
-3283.989748748256
 20
315.9952354557829
 30
0.0
 70
0
  0
VERTEX
  8
1
  6
CONTINUOUS
 62
7
 10
-3266.2987122461427
 20
304.06952750562186
 30
0.0
 70
0
  0
VERTEX
  8
1
  6
CONTINUOUS
 62
7
 10
-3260.1653984703307
 20
290.9395784567514
 30
0.0
 70
0
  0
VERTEX
  8
1
  6
CONTINUOUS
 62
7
 10
-3265.0490969393563
 20
281.85240802614726
 30
0.0
 70
0
  0
VERTEX
  8
1
  6
CONTINUOUS
 62
7
 10
-3281.854470555897
 20
271.6383648750309
 30
0.0
 70
0
  0
VERTEX
  8
1
  6
CONTINUOUS
 62
7
 10
-3327.371373240751
 20
272.9072980866572
 30
0.0
 70
0
  0
VERTEX
  8
1
  6
CONTINUOUS
 62
7
 10
-3336.1660743981065
 20
269.62498579566704
 30
0.0
 70
0
  0
VERTEX
  8
1
  6
CONTINUOUS
 62
7
 10
-3343.017592207988
 20
250.9137830044217
 30
0.0
 70
0
  0
VERTEX
  8
1
  6
CONTINUOUS
 62
7
 10
-3338.487047080006
 20
236.49682773796985
 30
0.0
 70
0
  0
VERTEX
  8
1
  6
CONTINUOUS
 62
7
 10
-3310.918597764719
 20
217.51431999358806
 30
0.0
 70
0
  0
VERTEX
  8
1
  6
CONTINUOUS
 62
7
 10
-3309.181755705154
 20
213.81945722574437
 30
0.0
 70
0
  0
VERTEX
  8
1
  6
CONTINUOUS
 62
7
 10
-3298.426195721832
 20
209.871025338889
 30
0.0
 70
0
  0
VERTEX
  8
1
  6
CONTINUOUS
 62
7
 10
-3224.5742753069176
 20
164.939784057819
 30
0.0
 70
0
  0
VERTEX
  8
1
  6
CONTINUOUS
 62
7
 10
-3205.941782256483
 20
162.63235284753728
 30
0.0
 70
0
  0
VERTEX
  8
1
  6
CONTINUOUS
 62
7
 10
-3192.105309791538
 20
166.4859017000274
 30
0.0
 70
0
  0
VERTEX
  8
1
  6
CONTINUOUS
 62
7
 10
-3174.19916011483
 20
147.613383920856
 30
0.0
 70
0
  0
VERTEX
  8
1
  6
CONTINUOUS
 62
7
 10
-3168.9808106816845
 20
128.89179435937012
 30
0.0
 70
0
  0
VERTEX
  8
1
  6
CONTINUOUS
 62
7
 10
-3156.779431270511
 20
124.4461673080516
 30
0.0
 70
0
  0
VERTEX
  8
1
  6
CONTINUOUS
 62
7
 10
-3121.0949401269795
 20
81.12440502110599
 30
0.0
 70
0
  0
VERTEX
  8
1
  6
CONTINUOUS
 62
7
 10
-3124.5343818490473
 20
72.30404394703146
 30
0.0
 70
0
  0
VERTEX
  8
1
  6
CONTINUOUS
 62
7
 10
-3123.967440544584
 20
65.77400890902368
 30
0.0
 70
0
  0
VERTEX
  8
1
  6
CONTINUOUS
 62
7
 10
-3109.3155050726746
 20
64.64055644765449
 30
0.0
 70
0
  0
VERTEX
  8
1
  6
CONTINUOUS
 62
7
 10
-3104.492799823142
 20
54.222380441490486
 30
0.0
 70
0
  0
VERTEX
  8
1
  6
CONTINUOUS
 62
7
 10
-3099.967757730982
 20
52.60413233201166
 30
0.0
 70
0
  0
VERTEX
  8
1
  6
CONTINUOUS
 62
7
 10
-3078.8953943125
 20
12.964027871108328
 30
0.0
 70
0
  0
VERTEX
  8
1
  6
CONTINUOUS
 62
7
 10
-3079.39871461305
 20
6.721427877649148
 30
0.0
 70
0
  0
VERTEX
  8
1
  6
CONTINUOUS
 62
7
 10
-3071.5161153854256
 20
4.518819042619953
 30
0.0
 70
0
  0
VERTEX
  8
1
  6
CONTINUOUS
 62
7
 10
-3072.1308993714943
 20
-5.4966433367312675
 30
0.0
 70
0
  0
VERTEX
  8
1
  6
CONTINUOUS
 62
7
 10
-3074.291639767161
 20
-7.434057694761805
 30
0.0
 70
0
  0
VERTEX
  8
1
  6
CONTINUOUS
 62
7
 10
-3073.942110499665
 20
-2.870408443385031
 30
0.0
 70
0
  0
VERTEX
  8
1
  6
CONTINUOUS
 62
7
 10
-3080.002763439233
 20
-0.7704916699794921
 30
0.0
 70
0
  0
VERTEX
  8
1
  6
CONTINUOUS
 62
7
 10
-3079.39871461305
 20
6.721427877649148
 30
0.0
 70
0
  0
VERTEX
  8
1
  6
CONTINUOUS
 62
7
 10
-3082.7018869431513
 20
7.6444224823271725
 30
0.0
 70
0
  0
VERTEX
  8
1
  6
CONTINUOUS
 62
7
 10
-3086.1686400133904
 20
-11.266485646751562
 30
0.0
 70
0
  0
VERTEX
  8
1
  6
CONTINUOUS
 62
7
 10
-3078.6448310243622
 20
-11.33731940163716
 30
0.0
 70
0
  0
VERTEX
  8
1
  6
CONTINUOUS
 62
7
 10
-3074.291639767161
 20
-7.434057694761805
 30
0.0
 70
0
  0
VERTEX
  8
1
  6
CONTINUOUS
 62
7
 10
-3075.720664830172
 20
-26.092206712232155
 30
0.0
 70
0
  0
VERTEX
  8
1
  6
CONTINUOUS
 62
7
 10
-3100.4975258344566
 20
-60.22194665187203
 30
0.0
 70
0
  0
VERTEX
  8
1
  6
CONTINUOUS
 62
7
 10
-3118.337484458167
 20
-78.78991540503944
 30
0.0
 70
0
  0
VERTEX
  8
1
  6
CONTINUOUS
 62
7
 10
-3130.90508903843
 20
-86.22749536952938
 30
0.0
 70
0
  0
VERTEX
  8
1
  6
CONTINUOUS
 62
7
 10
-3129.0539541141843
 20
-90.17941219453951
 30
0.0
 70
0
  0
VERTEX
  8
1
  6
CONTINUOUS
 62
7
 10
-3138.899528691639
 20
-108.34106595814842
 30
0.0
 70
0
  0
VERTEX
  8
1
  6
CONTINUOUS
 62
7
 10
-3149.1423594092685
 20
-107.08299253757309
 30
0.0
 70
0
  0
VERTEX
  8
1
  6
CONTINUOUS
 62
7
 10
-3148.1810990670447
 20
-116.30557069392898
 30
0.0
 70
0
  0
VERTEX
  8
1
  6
CONTINUOUS
 62
7
 10
-3171.7248550041977
 20
-134.5238745324225
 30
0.0
 70
0
  0
VERTEX
  8
1
  6
CONTINUOUS
 62
7
 10
-3178.8397668501057
 20
-142.71430135772584
 30
0.0
 70
0
  0
VERTEX
  8
1
  6
CONTINUOUS
 62
7
 10
-3199.163911293459
 20
-143.86192099918094
 30
0.0
 70
0
  0
VERTEX
  8
1
  6
CONTINUOUS
 62
7
 10
-3230.452884311555
 20
-139.7477158104639
 30
0.0
 70
0
  0
VERTEX
  8
1
  6
CONTINUOUS
 62
7
 10
-3242.978895566011
 20
-148.18225794190403
 30
0.0
 70
0
  0
VERTEX
  8
1
  6
CONTINUOUS
 62
7
 10
-3247.9878043080535
 20
-168.22350895435397
 30
0.0
 70
0
  0
SEQEND
  8
0
  0
ENDSEC
  0
EOF
