  0
SECTION
  2
HEADER
  0
ENDSEC
  0
SECTION
  2
TABLES
  0
ENDSEC
  0
SECTION
  2
BLOCKS
  0
ENDSEC
  0
SECTION
  2
ENTITIES
  0
TEXT
  1
MARK_1
  8
72
 10
-816.75001227011
 20
2098.25003151631
 11
-816.75001227011
 21
2098.25003151631
 62
3
 40
50.0000007509247
 50
90
 72
0
 73
1
  0
TEXT
  1
MARK_2
  8
72
 10
-870.750013081108
 20
1190.25001787952
 11
-870.750013081108
 21
1190.25001787952
 62
3
 40
50.0000007509247
 50
90
 72
0
 73
1
  0
POLYLINE
  8
51
 62
7
 66
1
 70
1
  0
VERTEX
  8
51
 62
7
  6
CONTINUOUS
 10
-134.74951913893
 20
1460.29396736619
  0
VERTEX
  8
51
 62
7
  6
CONTINUOUS
 10
-130.750484855989
 20
1460.20607650283
  0
VERTEX
  8
51
 62
7
  6
CONTINUOUS
 10
-128.750484825952
 20
1551.20607786951
  0
VERTEX
  8
51
 62
7
  6
CONTINUOUS
 10
-132.749519108893
 20
1551.29396873287
  0
SEQEND
  0
POLYLINE
  8
51
 62
7
 66
1
 70
1
  0
VERTEX
  8
51
 62
7
  6
CONTINUOUS
 10
-852.482063588306
 20
1127.25001691833
  0
VERTEX
  8
51
 62
7
  6
CONTINUOUS
 10
-852.482063588306
 20
1125.25001691833
  0
VERTEX
  8
51
 62
7
  6
CONTINUOUS
 10
-850.750012780738
 20
1124.25001691833
  0
VERTEX
  8
51
 62
7
  6
CONTINUOUS
 10
-849.01796197317
 20
1125.25001691833
  0
VERTEX
  8
51
 62
7
  6
CONTINUOUS
 10
-849.01796197317
 20
1127.25001691833
  0
VERTEX
  8
51
 62
7
  6
CONTINUOUS
 10
-850.750012780738
 20
1128.25001691833
  0
SEQEND
  0
POLYLINE
  8
52
 62
7
 66
1
 70
1
  0
VERTEX
  8
52
 62
7
  6
CONTINUOUS
 10
-758.999401479127
 20
1467.81175964351
  0
VERTEX
  8
52
 62
7
  6
CONTINUOUS
 10
-756.50062128891
 20
1464.68828440574
  0
VERTEX
  8
52
 62
7
  6
CONTINUOUS
 10
-746.500621138725
 20
1472.68828452588
  0
VERTEX
  8
52
 62
7
  6
CONTINUOUS
 10
-748.999401328942
 20
1475.81175976366
  0
SEQEND
  0
POLYLINE
  8
52
 62
7
 66
1
 70
1
  0
VERTEX
  8
52
 62
7
  6
CONTINUOUS
 10
-1056.020242269
 20
921.268353533491
  0
VERTEX
  8
52
 62
7
  6
CONTINUOUS
 10
-1034.02024193859
 20
918.268353488435
  0
VERTEX
  8
52
 62
7
  6
CONTINUOUS
 10
-1033.47978911966
 20
922.231674160612
  0
VERTEX
  8
52
 62
7
  6
CONTINUOUS
 10
-1055.47978945006
 20
925.231674205668
  0
SEQEND
  0
POLYLINE
  8
52
 62
7
 66
1
 70
1
  0
VERTEX
  8
52
 62
7
  6
CONTINUOUS
 10
-779.095357272381
 20
1448.72990188606
  0
VERTEX
  8
52
 62
7
  6
CONTINUOUS
 10
-776.404666096396
 20
1445.77014159248
  0
VERTEX
  8
52
 62
7
  6
CONTINUOUS
 10
-765.404665931192
 20
1455.77014174266
  0
VERTEX
  8
52
 62
7
  6
CONTINUOUS
 10
-768.095357107178
 20
1458.72990203625
  0
SEQEND
  0
POLYLINE
  8
52
 62
7
 66
1
 70
1
  0
VERTEX
  8
52
 62
7
  6
CONTINUOUS
 10
-763.833272563554
 20
1515.24828887668
  0
VERTEX
  8
52
 62
7
  6
CONTINUOUS
 10
-763.666750384705
 20
1511.25175658431
  0
VERTEX
  8
52
 62
7
  6
CONTINUOUS
 10
-739.666750024261
 20
1512.25175659932
  0
VERTEX
  8
52
 62
7
  6
CONTINUOUS
 10
-739.83327220311
 20
1516.24828889169
  0
SEQEND
  0
POLYLINE
  8
52
 62
7
 66
1
 70
1
  0
VERTEX
  8
52
 62
7
  6
CONTINUOUS
 10
-730.742288840214
 20
1486.98650859422
  0
VERTEX
  8
52
 62
7
  6
CONTINUOUS
 10
-728.757733086787
 20
1483.51353602572
  0
VERTEX
  8
52
 62
7
  6
CONTINUOUS
 10
-714.757732876528
 20
1491.51353614587
  0
VERTEX
  8
52
 62
7
  6
CONTINUOUS
 10
-716.742288629955
 20
1494.98650871437
  0
SEQEND
  0
POLYLINE
  8
52
 62
7
 66
1
 70
1
  0
VERTEX
  8
52
 62
7
  6
CONTINUOUS
 10
-710.903403675919
 20
1475.24413110075
  0
VERTEX
  8
52
 62
7
  6
CONTINUOUS
 10
-710.59661768038
 20
1471.25591315875
  0
VERTEX
  8
52
 62
7
  6
CONTINUOUS
 10
-696.994879991897
 20
1472.30220067325
  0
VERTEX
  8
52
 62
7
  6
CONTINUOUS
 10
-696.04349213631
 20
1473.04502186423
  0
VERTEX
  8
52
 62
7
  6
CONTINUOUS
 10
-694.852643871789
 20
1476.61756665779
  0
VERTEX
  8
52
 62
7
  6
CONTINUOUS
 10
-698.647377063991
 20
1477.88247772186
  0
VERTEX
  8
52
 62
7
  6
CONTINUOUS
 10
-699.227442313003
 20
1476.14228197482
  0
SEQEND
  0
POLYLINE
  8
52
 62
7
 66
1
 70
1
  0
VERTEX
  8
52
 62
7
  6
CONTINUOUS
 10
-1100.35227925622
 20
936.342848764588
  0
VERTEX
  8
52
 62
7
  6
CONTINUOUS
 10
-1081.35227897087
 20
930.342848674477
  0
VERTEX
  8
52
 62
7
  6
CONTINUOUS
 10
-1080.14775349912
 20
934.157179335014
  0
VERTEX
  8
52
 62
7
  6
CONTINUOUS
 10
-1099.14775378447
 20
940.157179425125
  0
SEQEND
  0
POLYLINE
  8
52
 62
7
 66
1
 70
1
  0
VERTEX
  8
52
 62
7
  6
CONTINUOUS
 10
-626.142241671854
 20
1557.21118471265
  0
VERTEX
  8
52
 62
7
  6
CONTINUOUS
 10
-625.357777131301
 20
1553.28886200989
  0
VERTEX
  8
52
 62
7
  6
CONTINUOUS
 10
-600.357776755838
 20
1558.28886208498
  0
VERTEX
  8
52
 62
7
  6
CONTINUOUS
 10
-601.142241296391
 20
1562.21118478774
  0
SEQEND
  0
POLYLINE
  8
52
 62
7
 66
1
 70
1
  0
VERTEX
  8
52
 62
7
  6
CONTINUOUS
 10
-586.382464332871
 20
1568.14739012257
  0
VERTEX
  8
52
 62
7
  6
CONTINUOUS
 10
-585.117553268804
 20
1564.35265693037
  0
VERTEX
  8
52
 62
7
  6
CONTINUOUS
 10
-576.288638572879
 20
1567.29562849568
  0
VERTEX
  8
52
 62
7
  6
CONTINUOUS
 10
-562.467165742937
 20
1569.27012461424
  0
VERTEX
  8
52
 62
7
  6
CONTINUOUS
 10
-563.032851167887
 20
1573.22992258889
  0
VERTEX
  8
52
 62
7
  6
CONTINUOUS
 10
-577.211378758461
 20
1571.20441864738
  0
SEQEND
  0
POLYLINE
  8
52
 62
7
 66
1
 70
1
  0
VERTEX
  8
52
 62
7
  6
CONTINUOUS
 10
-1140.56229405319
 20
952.422391237912
  0
VERTEX
  8
52
 62
7
  6
CONTINUOUS
 10
-1122.56229378286
 20
944.422391117764
  0
VERTEX
  8
52
 62
7
  6
CONTINUOUS
 10
-1120.93773991864
 20
948.077637312245
  0
VERTEX
  8
52
 62
7
  6
CONTINUOUS
 10
-1138.93774018898
 20
956.077637432393
  0
SEQEND
  0
POLYLINE
  8
52
 62
7
 66
1
 70
1
  0
VERTEX
  8
52
 62
7
  6
CONTINUOUS
 10
-479.729906166162
 20
1603.9671813847
  0
VERTEX
  8
52
 62
7
  6
CONTINUOUS
 10
-478.697911780379
 20
1596.74322068422
  0
VERTEX
  8
52
 62
7
  6
CONTINUOUS
 10
-473.616698301135
 20
1583.53206563819
  0
VERTEX
  8
52
 62
7
  6
CONTINUOUS
 10
-469.883315876323
 20
1584.96798195542
  0
VERTEX
  8
52
 62
7
  6
CONTINUOUS
 10
-474.802102547263
 20
1597.75682729987
  0
VERTEX
  8
52
 62
7
  6
CONTINUOUS
 10
-475.770108191518
 20
1604.53286680965
  0
SEQEND
  0
POLYLINE
  8
52
 62
7
 66
1
 70
1
  0
VERTEX
  8
52
 62
7
  6
CONTINUOUS
 10
-145.633485985853
 20
691.922683179285
  0
VERTEX
  8
52
 62
7
  6
CONTINUOUS
 10
-141.866518339473
 20
690.577337591292
  0
VERTEX
  8
52
 62
7
  6
CONTINUOUS
 10
-136.817451392907
 20
704.714725041675
  0
VERTEX
  8
52
 62
7
  6
CONTINUOUS
 10
-133.738662695265
 20
720.108668529885
  0
VERTEX
  8
52
 62
7
  6
CONTINUOUS
 10
-137.753259433741
 20
790.364111453197
  0
VERTEX
  8
52
 62
7
  6
CONTINUOUS
 10
-141.746744771437
 20
790.135912291043
  0
VERTEX
  8
52
 62
7
  6
CONTINUOUS
 10
-137.761341389764
 20
720.391353111766
  0
VERTEX
  8
52
 62
7
  6
CONTINUOUS
 10
-140.682552782234
 20
705.785296149419
  0
SEQEND
  0
POLYLINE
  8
52
 62
7
 66
1
 70
1
  0
VERTEX
  8
52
 62
7
  6
CONTINUOUS
 10
-136.702376147865
 20
1217.68387920065
  0
VERTEX
  8
52
 62
7
  6
CONTINUOUS
 10
-132.797627907129
 20
1216.81615736938
  0
VERTEX
  8
52
 62
7
  6
CONTINUOUS
 10
-130.747185458752
 20
1226.04314838707
  0
VERTEX
  8
52
 62
7
  6
CONTINUOUS
 10
-131.750166357768
 20
1304.27565851028
  0
VERTEX
  8
52
 62
7
  6
CONTINUOUS
 10
-135.749837667188
 20
1304.22438067297
  0
VERTEX
  8
52
 62
7
  6
CONTINUOUS
 10
-134.752818536167
 20
1226.45688845329
  0
SEQEND
  0
POLYLINE
  8
52
 62
7
 66
1
 70
1
  0
VERTEX
  8
52
 62
7
  6
CONTINUOUS
 10
-137.647368638616
 20
876.882468695744
  0
VERTEX
  8
52
 62
7
  6
CONTINUOUS
 10
-133.852635446414
 20
875.617557631676
  0
VERTEX
  8
52
 62
7
  6
CONTINUOUS
 10
-131.768986483085
 20
881.868504521666
  0
VERTEX
  8
52
 62
7
  6
CONTINUOUS
 10
-130.747902538875
 20
899.226931573234
  0
VERTEX
  8
52
 62
7
  6
CONTINUOUS
 10
-132.751276318802
 20
955.321397411196
  0
VERTEX
  8
52
 62
7
  6
CONTINUOUS
 10
-136.748727736192
 20
955.178631289146
  0
VERTEX
  8
52
 62
7
  6
CONTINUOUS
 10
-134.752101456045
 20
899.273095445037
  0
VERTEX
  8
52
 62
7
  6
CONTINUOUS
 10
-135.731017541872
 20
882.631521985976
  0
SEQEND
  0
POLYLINE
  8
53
 62
7
 66
1
 70
1
  0
VERTEX
  8
53
 62
7
  6
CONTINUOUS
 10
-297.812182211888
 20
1101.75001649782
  0
VERTEX
  8
53
 62
7
  6
CONTINUOUS
 10
-297.812182211888
 20
1094.75001649782
  0
VERTEX
  8
53
 62
7
  6
CONTINUOUS
 10
-291.7500043854
 20
1091.25001649782
  0
VERTEX
  8
53
 62
7
  6
CONTINUOUS
 10
-285.687826558912
 20
1094.75001649782
  0
VERTEX
  8
53
 62
7
  6
CONTINUOUS
 10
-285.687826558912
 20
1101.75001649782
  0
VERTEX
  8
53
 62
7
  6
CONTINUOUS
 10
-291.7500043854
 20
1105.25001649782
  0
SEQEND
  0
POLYLINE
  8
53
 62
7
 66
1
 70
1
  0
VERTEX
  8
53
 62
7
  6
CONTINUOUS
 10
-1137.81219482742
 20
879.75001316371
  0
VERTEX
  8
53
 62
7
  6
CONTINUOUS
 10
-1137.81219482742
 20
872.75001316371
  0
VERTEX
  8
53
 62
7
  6
CONTINUOUS
 10
-1131.75001700094
 20
869.25001316371
  0
VERTEX
  8
53
 62
7
  6
CONTINUOUS
 10
-1125.68783917445
 20
872.75001316371
  0
VERTEX
  8
53
 62
7
  6
CONTINUOUS
 10
-1125.68783917445
 20
879.75001316371
  0
VERTEX
  8
53
 62
7
  6
CONTINUOUS
 10
-1131.75001700094
 20
883.25001316371
  0
SEQEND
  0
POLYLINE
  8
53
 62
7
 66
1
 70
1
  0
VERTEX
  8
53
 62
7
  6
CONTINUOUS
 10
-362.81218318809
 20
1194.75001789454
  0
VERTEX
  8
53
 62
7
  6
CONTINUOUS
 10
-362.81218318809
 20
1187.75001789454
  0
VERTEX
  8
53
 62
7
  6
CONTINUOUS
 10
-356.750005361602
 20
1184.25001789454
  0
VERTEX
  8
53
 62
7
  6
CONTINUOUS
 10
-350.687827535114
 20
1187.75001789454
  0
VERTEX
  8
53
 62
7
  6
CONTINUOUS
 10
-350.687827535114
 20
1194.75001789454
  0
VERTEX
  8
53
 62
7
  6
CONTINUOUS
 10
-356.750005361602
 20
1198.25001789454
  0
SEQEND
  0
POLYLINE
  8
54
 62
7
 66
1
 70
1
  0
VERTEX
  8
54
 62
7
  6
CONTINUOUS
 10
-1108.32047327545
 20
1503.6917577461
  0
VERTEX
  8
54
 62
7
  6
CONTINUOUS
 10
-1077.75001618994
 20
1509.25002267042
  0
VERTEX
  8
54
 62
7
  6
CONTINUOUS
 10
-1066.75001602473
 20
1511.25002270045
  0
VERTEX
  8
54
 62
7
  6
CONTINUOUS
 10
-1043.75001567931
 20
1526.25002292573
  0
VERTEX
  8
54
 62
7
  6
CONTINUOUS
 10
-1017.75001528883
 20
1536.25002307592
  0
VERTEX
  8
54
 62
7
  6
CONTINUOUS
 10
-996.750014973439
 20
1539.25002312097
  0
VERTEX
  8
54
 62
7
  6
CONTINUOUS
 10
-941.750014147421
 20
1539.25002312097
  0
VERTEX
  8
54
 62
7
  6
CONTINUOUS
 10
-925.750013907125
 20
1541.25002315101
  0
VERTEX
  8
54
 62
7
  6
CONTINUOUS
 10
-917.750013786977
 20
1543.25002318104
  0
VERTEX
  8
54
 62
7
  6
CONTINUOUS
 10
-907.750013636793
 20
1548.25002325614
  0
VERTEX
  8
54
 62
7
  6
CONTINUOUS
 10
-897.750013486608
 20
1558.25002340632
  0
VERTEX
  8
54
 62
7
  6
CONTINUOUS
 10
-898.750013501626
 20
1566.25002352647
  0
VERTEX
  8
54
 62
7
  6
CONTINUOUS
 10
-906.750013621774
 20
1573.2500236316
  0
VERTEX
  8
54
 62
7
  6
CONTINUOUS
 10
-923.750013877088
 20
1579.25002372171
  0
VERTEX
  8
54
 62
7
  6
CONTINUOUS
 10
-953.750014327643
 20
1585.25002381182
  0
VERTEX
  8
54
 62
7
  6
CONTINUOUS
 10
-973.750014628013
 20
1587.25002384186
  0
VERTEX
  8
54
 62
7
  6
CONTINUOUS
 10
-1003.75001507857
 20
1587.25002384186
  0
VERTEX
  8
54
 62
7
  6
CONTINUOUS
 10
-1029.75001546905
 20
1584.2500237968
  0
VERTEX
  8
54
 62
7
  6
CONTINUOUS
 10
-1041.75001564927
 20
1587.25002384186
  0
VERTEX
  8
54
 62
7
  6
CONTINUOUS
 10
-1049.75001576942
 20
1591.25002390193
  0
VERTEX
  8
54
 62
7
  6
CONTINUOUS
 10
-1058.75001590459
 20
1591.25002390193
  0
VERTEX
  8
54
 62
7
  6
CONTINUOUS
 10
-1068.75001605477
 20
1589.2500238719
  0
VERTEX
  8
54
 62
7
  6
CONTINUOUS
 10
-1071.75001609983
 20
1587.25002384186
  0
VERTEX
  8
54
 62
7
  6
CONTINUOUS
 10
-1091.77336740095
 20
1583.24535358179
  0
VERTEX
  8
54
 62
7
  6
CONTINUOUS
 10
-1084.05739693024
 20
1567.8637579411
  0
VERTEX
  8
54
 62
7
  6
CONTINUOUS
 10
-1086.56038113257
 20
1540.36038424685
  0
VERTEX
  8
54
 62
7
  6
CONTINUOUS
 10
-1105.72647093788
 20
1506.28081798779
  0
SEQEND
  0
POLYLINE
  8
54
 62
7
 66
1
 70
1
  0
VERTEX
  8
54
 62
7
  6
CONTINUOUS
 10
-1244.75001869803
 20
1278.25001920115
  0
VERTEX
  8
54
 62
7
  6
CONTINUOUS
 10
-1244.75001869803
 20
1276.25001917111
  0
VERTEX
  8
54
 62
7
  6
CONTINUOUS
 10
-1230.75001848777
 20
1259.25001891579
  0
VERTEX
  8
54
 62
7
  6
CONTINUOUS
 10
-1225.75001841267
 20
1259.25001891579
  0
VERTEX
  8
54
 62
7
  6
CONTINUOUS
 10
-1220.75001833758
 20
1263.25001897587
  0
VERTEX
  8
54
 62
7
  6
CONTINUOUS
 10
-1201.75001805223
 20
1283.25001927624
  0
VERTEX
  8
54
 62
7
  6
CONTINUOUS
 10
-1176.75001767677
 20
1313.25001972679
  0
VERTEX
  8
54
 62
7
  6
CONTINUOUS
 10
-1168.75001755662
 20
1326.25001992203
  0
VERTEX
  8
54
 62
7
  6
CONTINUOUS
 10
-1150.75001728629
 20
1349.25002026746
  0
VERTEX
  8
54
 62
7
  6
CONTINUOUS
 10
-1151.7500173013
 20
1354.25002034255
  0
VERTEX
  8
54
 62
7
  6
CONTINUOUS
 10
-1164.75001749655
 20
1368.25002055281
  0
VERTEX
  8
54
 62
7
  6
CONTINUOUS
 10
-1170.75001758666
 20
1360.25002043266
  0
VERTEX
  8
54
 62
7
  6
CONTINUOUS
 10
-1222.75001836762
 20
1305.25001960664
  0
SEQEND
  0
POLYLINE
  8
54
 62
7
 66
1
 70
1
  0
VERTEX
  8
54
 62
7
  6
CONTINUOUS
 10
-1138.75001710606
 20
1374.25002064292
  0
VERTEX
  8
54
 62
7
  6
CONTINUOUS
 10
-1138.75001710606
 20
1370.25002058285
  0
VERTEX
  8
54
 62
7
  6
CONTINUOUS
 10
-1135.75001706101
 20
1367.25002053779
  0
VERTEX
  8
54
 62
7
  6
CONTINUOUS
 10
-1124.75001689581
 20
1369.25002056783
  0
VERTEX
  8
54
 62
7
  6
CONTINUOUS
 10
-1119.75001682071
 20
1375.25002065794
  0
VERTEX
  8
54
 62
7
  6
CONTINUOUS
 10
-1118.75001680569
 20
1380.25002073303
  0
VERTEX
  8
54
 62
7
  6
CONTINUOUS
 10
-1121.75001685075
 20
1383.25002077809
  0
VERTEX
  8
54
 62
7
  6
CONTINUOUS
 10
-1128.75001695588
 20
1383.25002077809
  0
VERTEX
  8
54
 62
7
  6
CONTINUOUS
 10
-1132.75001701595
 20
1380.25002073303
  0
SEQEND
  0
POLYLINE
  8
54
 62
7
 66
1
 70
1
  0
VERTEX
  8
54
 62
7
  6
CONTINUOUS
 10
-1237.25057539352
 20
814.250012232563
  0
VERTEX
  8
54
 62
7
  6
CONTINUOUS
 10
-1217.56520944319
 20
774.878279294317
  0
VERTEX
  8
54
 62
7
  6
CONTINUOUS
 10
-1188.33479849101
 20
752.402236160998
  0
VERTEX
  8
54
 62
7
  6
CONTINUOUS
 10
-1183.75253126839
 20
743.273416275669
  0
VERTEX
  8
54
 62
7
  6
CONTINUOUS
 10
-1196.33934452194
 20
692.883917330379
  0
VERTEX
  8
54
 62
7
  6
CONTINUOUS
 10
-1194.75576677536
 20
672.275799231892
  0
VERTEX
  8
54
 62
7
  6
CONTINUOUS
 10
-1189.45410977973
 20
658.489767195089
  0
VERTEX
  8
54
 62
7
  6
CONTINUOUS
 10
-1190.31487110554
 20
654.922362693914
  0
VERTEX
  8
54
 62
7
  6
CONTINUOUS
 10
-1182.75001776688
 20
657.25000987466
  0
VERTEX
  8
54
 62
7
  6
CONTINUOUS
 10
-1169.75001757164
 20
661.250009934734
  0
VERTEX
  8
54
 62
7
  6
CONTINUOUS
 10
-1156.7500173764
 20
676.250010160011
  0
VERTEX
  8
54
 62
7
  6
CONTINUOUS
 10
-1135.75001706101
 20
687.250010325215
  0
VERTEX
  8
54
 62
7
  6
CONTINUOUS
 10
-1126.75001692584
 20
696.250010460381
  0
VERTEX
  8
54
 62
7
  6
CONTINUOUS
 10
-1118.75001680569
 20
713.250010715695
  0
VERTEX
  8
54
 62
7
  6
CONTINUOUS
 10
-1117.75001679068
 20
728.250010940973
  0
VERTEX
  8
54
 62
7
  6
CONTINUOUS
 10
-1121.75001685075
 20
740.250011121195
  0
VERTEX
  8
54
 62
7
  6
CONTINUOUS
 10
-1126.75001692584
 20
748.250011241343
  0
VERTEX
  8
54
 62
7
  6
CONTINUOUS
 10
-1142.75001716614
 20
768.250011541713
  0
VERTEX
  8
54
 62
7
  6
CONTINUOUS
 10
-1143.75001718116
 20
791.250011887138
  0
VERTEX
  8
54
 62
7
  6
CONTINUOUS
 10
-1145.75001721119
 20
795.250011947212
  0
VERTEX
  8
54
 62
7
  6
CONTINUOUS
 10
-1154.75001734636
 20
804.250012082378
  0
VERTEX
  8
54
 62
7
  6
CONTINUOUS
 10
-1177.75001769179
 20
812.250012202526
  0
VERTEX
  8
54
 62
7
  6
CONTINUOUS
 10
-1191.75001790205
 20
814.250012232563
  0
SEQEND
  0
POLYLINE
  8
54
 62
7
 66
1
 70
1
  0
VERTEX
  8
54
 62
7
  6
CONTINUOUS
 10
-1312.34798806197
 20
885.918373015951
  0
VERTEX
  8
54
 62
7
  6
CONTINUOUS
 10
-1292.82087015477
 20
869.837645605678
  0
VERTEX
  8
54
 62
7
  6
CONTINUOUS
 10
-1279.10836006376
 20
860.34445235836
  0
VERTEX
  8
54
 62
7
  6
CONTINUOUS
 10
-1268.75001905847
 20
867.250013028544
  0
VERTEX
  8
54
 62
7
  6
CONTINUOUS
 10
-1267.75001904345
 20
871.250013088617
  0
VERTEX
  8
54
 62
7
  6
CONTINUOUS
 10
-1268.75001905847
 20
883.250013268839
  0
VERTEX
  8
54
 62
7
  6
CONTINUOUS
 10
-1274.75001914858
 20
893.250013419024
  0
VERTEX
  8
54
 62
7
  6
CONTINUOUS
 10
-1282.75001926873
 20
900.250013524154
  0
VERTEX
  8
54
 62
7
  6
CONTINUOUS
 10
-1286.7500193288
 20
902.250013554191
  0
VERTEX
  8
54
 62
7
  6
CONTINUOUS
 10
-1292.75001941891
 20
902.250013554191
  0
VERTEX
  8
54
 62
7
  6
CONTINUOUS
 10
-1304.75001959913
 20
892.250013404006
  0
SEQEND
  0
POLYLINE
  8
54
 62
7
 66
1
 70
1
  0
VERTEX
  8
54
 62
7
  6
CONTINUOUS
 10
-1113.7500167306
 20
1463.25002197957
  0
VERTEX
  8
54
 62
7
  6
CONTINUOUS
 10
-1095.75001646027
 20
1460.25002193451
  0
VERTEX
  8
54
 62
7
  6
CONTINUOUS
 10
-1088.75001635514
 20
1461.25002194953
  0
VERTEX
  8
54
 62
7
  6
CONTINUOUS
 10
-1080.75001623499
 20
1464.25002199458
  0
VERTEX
  8
54
 62
7
  6
CONTINUOUS
 10
-1071.75001609983
 20
1470.2500220847
  0
VERTEX
  8
54
 62
7
  6
CONTINUOUS
 10
-1065.75001600971
 20
1478.25002220484
  0
VERTEX
  8
54
 62
7
  6
CONTINUOUS
 10
-1063.75001597968
 20
1488.25002235503
  0
VERTEX
  8
54
 62
7
  6
CONTINUOUS
 10
-1064.7500159947
 20
1496.25002247518
  0
VERTEX
  8
54
 62
7
  6
CONTINUOUS
 10
-1067.75001603975
 20
1501.25002255027
  0
SEQEND
  0
POLYLINE
  8
54
 62
7
 66
1
 70
1
  0
VERTEX
  8
54
 62
7
  6
CONTINUOUS
 10
-1258.75907319217
 20
458.277001054274
  0
VERTEX
  8
54
 62
7
  6
CONTINUOUS
 10
-1239.57552434068
 20
436.571312626106
  0
VERTEX
  8
54
 62
7
  6
CONTINUOUS
 10
-1216.75001827751
 20
462.250006946053
  0
VERTEX
  8
54
 62
7
  6
CONTINUOUS
 10
-1208.75001815736
 20
471.25000708122
  0
VERTEX
  8
54
 62
7
  6
CONTINUOUS
 10
-1196.75001797714
 20
521.250007832145
  0
VERTEX
  8
54
 62
7
  6
CONTINUOUS
 10
-1187.75001784197
 20
535.250008042404
  0
VERTEX
  8
54
 62
7
  6
CONTINUOUS
 10
-1168.75001755662
 20
556.250008357792
  0
VERTEX
  8
54
 62
7
  6
CONTINUOUS
 10
-1162.75001746651
 20
565.250008492958
  0
VERTEX
  8
54
 62
7
  6
CONTINUOUS
 10
-1152.75001731632
 20
587.250008823365
  0
VERTEX
  8
54
 62
7
  6
CONTINUOUS
 10
-1148.75001725625
 20
608.250009138754
  0
VERTEX
  8
54
 62
7
  6
CONTINUOUS
 10
-1149.75001727127
 20
628.250009439123
  0
VERTEX
  8
54
 62
7
  6
CONTINUOUS
 10
-1151.7500173013
 20
639.250009604327
  0
VERTEX
  8
54
 62
7
  6
CONTINUOUS
 10
-1154.75001734636
 20
646.250009709456
  0
VERTEX
  8
54
 62
7
  6
CONTINUOUS
 10
-1161.75001745149
 20
652.250009799567
  0
VERTEX
  8
54
 62
7
  6
CONTINUOUS
 10
-1195.43563775863
 20
681.123398634411
  0
VERTEX
  8
54
 62
7
  6
CONTINUOUS
 10
-1194.75576677536
 20
672.275799231892
  0
VERTEX
  8
54
 62
7
  6
CONTINUOUS
 10
-1189.45410977973
 20
658.489767195089
  0
VERTEX
  8
54
 62
7
  6
CONTINUOUS
 10
-1196.75367918858
 20
628.236878269415
  0
VERTEX
  8
54
 62
7
  6
CONTINUOUS
 10
-1220.71962625712
 20
553.302201995453
  0
VERTEX
  8
54
 62
7
  6
CONTINUOUS
 10
-1240.12070327931
 20
531.844965061504
  0
VERTEX
  8
54
 62
7
  6
CONTINUOUS
 10
-1237.15455207435
 20
523.433906181879
  0
VERTEX
  8
54
 62
7
  6
CONTINUOUS
 10
-1230.78421275741
 20
523.284536090812
  0
VERTEX
  8
54
 62
7
  6
CONTINUOUS
 10
-1230.67630459886
 20
512.419079197895
  0
VERTEX
  8
54
 62
7
  6
CONTINUOUS
 10
-1239.66598648659
 20
503.21429796689
  0
VERTEX
  8
54
 62
7
  6
CONTINUOUS
 10
-1240.08742209985
 20
520.610573663964
  0
VERTEX
  8
54
 62
7
  6
CONTINUOUS
 10
-1245.64165745048
 20
520.780236450875
  0
VERTEX
  8
54
 62
7
  6
CONTINUOUS
 10
-1244.60952360577
 20
513.712074264604
  0
VERTEX
  8
54
 62
7
  6
CONTINUOUS
 10
-1251.91880876219
 20
515.368247112816
  0
VERTEX
  8
54
 62
7
  6
CONTINUOUS
 10
-1251.70481392073
 20
518.225321344198
  0
VERTEX
  8
54
 62
7
  6
CONTINUOUS
 10
-1254.33895962212
 20
515.916616489167
  0
VERTEX
  8
54
 62
7
  6
CONTINUOUS
 10
-1251.91880876219
 20
515.368247112816
  0
VERTEX
  8
54
 62
7
  6
CONTINUOUS
 10
-1252.75548324398
 20
504.197692319651
  0
VERTEX
  8
54
 62
7
  6
CONTINUOUS
 10
-1256.74493612672
 20
486.283999982838
  0
SEQEND
  0
POLYLINE
  8
54
 62
7
 66
1
 70
1
  0
VERTEX
  8
54
 62
7
  6
CONTINUOUS
 10
-861.750012945942
 20
1540.25002313599
  0
VERTEX
  8
54
 62
7
  6
CONTINUOUS
 10
-861.750012945942
 20
1536.25002307592
  0
VERTEX
  8
54
 62
7
  6
CONTINUOUS
 10
-855.750012855831
 20
1531.25002300082
  0
VERTEX
  8
54
 62
7
  6
CONTINUOUS
 10
-847.750012735683
 20
1529.25002297079
  0
VERTEX
  8
54
 62
7
  6
CONTINUOUS
 10
-835.750012555461
 20
1530.2500229858
  0
VERTEX
  8
54
 62
7
  6
CONTINUOUS
 10
-828.750012450331
 20
1533.25002303086
  0
VERTEX
  8
54
 62
7
  6
CONTINUOUS
 10
-824.750012390258
 20
1538.25002310595
  0
VERTEX
  8
54
 62
7
  6
CONTINUOUS
 10
-824.750012390258
 20
1541.25002315101
  0
VERTEX
  8
54
 62
7
  6
CONTINUOUS
 10
-829.75001246535
 20
1546.2500232261
  0
VERTEX
  8
54
 62
7
  6
CONTINUOUS
 10
-849.75001276572
 20
1546.2500232261
  0
VERTEX
  8
54
 62
7
  6
CONTINUOUS
 10
-859.750012915905
 20
1543.25002318104
  0
SEQEND
  0
POLYLINE
  8
54
 62
7
 66
1
 70
1
  0
VERTEX
  8
54
 62
7
  6
CONTINUOUS
 10
-601.791328038072
 20
1529.19782276178
  0
VERTEX
  8
54
 62
7
  6
CONTINUOUS
 10
-601.712572018292
 20
1521.15701517929
  0
VERTEX
  8
54
 62
7
  6
CONTINUOUS
 10
-597.839063232862
 20
1517.33116244208
  0
VERTEX
  8
54
 62
7
  6
CONTINUOUS
 10
-531.251358953504
 20
1524.93348677288
  0
VERTEX
  8
54
 62
7
  6
CONTINUOUS
 10
-478.815706293025
 20
1539.16201954389
  0
VERTEX
  8
54
 62
7
  6
CONTINUOUS
 10
-478.830803204293
 20
1549.33270937619
  0
VERTEX
  8
54
 62
7
  6
CONTINUOUS
 10
-494.931687574957
 20
1549.23945122036
  0
VERTEX
  8
54
 62
7
  6
CONTINUOUS
 10
-564.887805217434
 20
1538.46296734154
  0
SEQEND
  0
POLYLINE
  8
54
 62
7
 66
1
 70
1
  0
VERTEX
  8
54
 62
7
  6
CONTINUOUS
 10
-855.750012855831
 20
1510.25002268543
  0
VERTEX
  8
54
 62
7
  6
CONTINUOUS
 10
-854.750012840812
 20
1507.25002264038
  0
VERTEX
  8
54
 62
7
  6
CONTINUOUS
 10
-849.75001276572
 20
1505.25002261034
  0
VERTEX
  8
54
 62
7
  6
CONTINUOUS
 10
-832.750012510405
 20
1505.25002261034
  0
VERTEX
  8
54
 62
7
  6
CONTINUOUS
 10
-819.750012315165
 20
1508.2500226554
  0
VERTEX
  8
54
 62
7
  6
CONTINUOUS
 10
-790.750011879629
 20
1508.2500226554
  0
VERTEX
  8
54
 62
7
  6
CONTINUOUS
 10
-781.750011744462
 20
1510.25002268543
  0
VERTEX
  8
54
 62
7
  6
CONTINUOUS
 10
-779.750011714425
 20
1512.25002271547
  0
VERTEX
  8
54
 62
7
  6
CONTINUOUS
 10
-783.750011774499
 20
1516.25002277555
  0
VERTEX
  8
54
 62
7
  6
CONTINUOUS
 10
-815.750012255091
 20
1516.25002277555
  0
VERTEX
  8
54
 62
7
  6
CONTINUOUS
 10
-829.75001246535
 20
1514.25002274551
  0
VERTEX
  8
54
 62
7
  6
CONTINUOUS
 10
-846.750012720664
 20
1514.25002274551
  0
VERTEX
  8
54
 62
7
  6
CONTINUOUS
 10
-851.750012795757
 20
1513.25002273049
  0
SEQEND
  0
POLYLINE
  8
54
 62
7
 66
1
 70
1
  0
VERTEX
  8
54
 62
7
  6
CONTINUOUS
 10
-806.750012119925
 20
1555.25002336127
  0
VERTEX
  8
54
 62
7
  6
CONTINUOUS
 10
-805.750012104906
 20
1552.25002331621
  0
VERTEX
  8
54
 62
7
  6
CONTINUOUS
 10
-799.750012014795
 20
1549.25002327116
  0
VERTEX
  8
54
 62
7
  6
CONTINUOUS
 10
-776.75001166937
 20
1549.25002327116
  0
VERTEX
  8
54
 62
7
  6
CONTINUOUS
 10
-769.75001156424
 20
1551.25002330119
  0
VERTEX
  8
54
 62
7
  6
CONTINUOUS
 10
-768.750011549222
 20
1553.25002333123
  0
VERTEX
  8
54
 62
7
  6
CONTINUOUS
 10
-772.750011609296
 20
1556.25002337629
  0
VERTEX
  8
54
 62
7
  6
CONTINUOUS
 10
-779.750011714425
 20
1558.25002340632
  0
VERTEX
  8
54
 62
7
  6
CONTINUOUS
 10
-798.750011999777
 20
1559.25002342134
  0
SEQEND
  0
POLYLINE
  8
54
 62
7
 66
1
 70
1
  0
VERTEX
  8
54
 62
7
  6
CONTINUOUS
 10
-875.750013156201
 20
663.250009964771
  0
VERTEX
  8
54
 62
7
  6
CONTINUOUS
 10
-875.750013156201
 20
644.250009679419
  0
VERTEX
  8
54
 62
7
  6
CONTINUOUS
 10
-873.750013126164
 20
638.250009589308
  0
VERTEX
  8
54
 62
7
  6
CONTINUOUS
 10
-860.973725134839
 20
619.085577602313
  0
VERTEX
  8
54
 62
7
  6
CONTINUOUS
 10
-856.604499144593
 20
629.18321195503
  0
VERTEX
  8
54
 62
7
  6
CONTINUOUS
 10
-848.86882583326
 20
629.025461101699
  0
VERTEX
  8
54
 62
7
  6
CONTINUOUS
 10
-847.75709566401
 20
635.834032299113
  0
VERTEX
  8
54
 62
7
  6
CONTINUOUS
 10
-838.465378596349
 20
632.452302308156
  0
VERTEX
  8
54
 62
7
  6
CONTINUOUS
 10
-838.831664559152
 20
649.484586317707
  0
VERTEX
  8
54
 62
7
  6
CONTINUOUS
 10
-846.206233031926
 20
659.674411523062
  0
VERTEX
  8
54
 62
7
  6
CONTINUOUS
 10
-836.786673513618
 20
667.233816590636
  0
VERTEX
  8
54
 62
7
  6
CONTINUOUS
 10
-823.890561427032
 20
669.540332539812
  0
VERTEX
  8
54
 62
7
  6
CONTINUOUS
 10
-823.623008424545
 20
635.033644243032
  0
VERTEX
  8
54
 62
7
  6
CONTINUOUS
 10
-799.573704598172
 20
633.138050104193
  0
VERTEX
  8
54
 62
7
  6
CONTINUOUS
 10
-780.968396914717
 20
627.401355106529
  0
VERTEX
  8
54
 62
7
  6
CONTINUOUS
 10
-772.750011609296
 20
634.250009529234
  0
VERTEX
  8
54
 62
7
  6
CONTINUOUS
 10
-766.750011519185
 20
639.250009604327
  0
VERTEX
  8
54
 62
7
  6
CONTINUOUS
 10
-764.750011489148
 20
639.250009604327
  0
VERTEX
  8
54
 62
7
  6
CONTINUOUS
 10
-758.750011399037
 20
645.250009694438
  0
VERTEX
  8
54
 62
7
  6
CONTINUOUS
 10
-751.750011293908
 20
657.25000987466
  0
VERTEX
  8
54
 62
7
  6
CONTINUOUS
 10
-749.750011263871
 20
663.250009964771
  0
VERTEX
  8
54
 62
7
  6
CONTINUOUS
 10
-749.750011263871
 20
689.250010355252
  0
VERTEX
  8
54
 62
7
  6
CONTINUOUS
 10
-753.750011323944
 20
704.250010580529
  0
VERTEX
  8
54
 62
7
  6
CONTINUOUS
 10
-772.750011609296
 20
736.250011061121
  0
VERTEX
  8
54
 62
7
  6
CONTINUOUS
 10
-777.750011684388
 20
750.25001127138
  0
VERTEX
  8
54
 62
7
  6
CONTINUOUS
 10
-779.750011714425
 20
765.250011496657
  0
VERTEX
  8
54
 62
7
  6
CONTINUOUS
 10
-780.750011729444
 20
797.250011977249
  0
VERTEX
  8
54
 62
7
  6
CONTINUOUS
 10
-785.750011804536
 20
803.25001206736
  0
VERTEX
  8
54
 62
7
  6
CONTINUOUS
 10
-792.750011909666
 20
807.250012127434
  0
VERTEX
  8
54
 62
7
  6
CONTINUOUS
 10
-812.750012210036
 20
808.250012142452
  0
VERTEX
  8
54
 62
7
  6
CONTINUOUS
 10
-834.750012540443
 20
797.250011977249
  0
VERTEX
  8
54
 62
7
  6
CONTINUOUS
 10
-849.75001276572
 20
783.25001176699
  0
VERTEX
  8
54
 62
7
  6
CONTINUOUS
 10
-855.750012855831
 20
775.250011646842
  0
VERTEX
  8
54
 62
7
  6
CONTINUOUS
 10
-863.750012975979
 20
757.250011376509
  0
VERTEX
  8
54
 62
7
  6
CONTINUOUS
 10
-866.750013021034
 20
742.250011151232
  0
VERTEX
  8
54
 62
7
  6
CONTINUOUS
 10
-869.75001306609
 20
704.250010580529
  0
SEQEND
  0
POLYLINE
  8
54
 62
7
 66
1
 70
1
  0
VERTEX
  8
54
 62
7
  6
CONTINUOUS
 10
-695.750010452872
 20
879.250013208765
  0
VERTEX
  8
54
 62
7
  6
CONTINUOUS
 10
-690.750010377779
 20
874.250013133673
  0
VERTEX
  8
54
 62
7
  6
CONTINUOUS
 10
-687.750010332724
 20
875.250013148692
  0
VERTEX
  8
54
 62
7
  6
CONTINUOUS
 10
-686.750010317705
 20
881.250013238802
  0
VERTEX
  8
54
 62
7
  6
CONTINUOUS
 10
-688.750010347742
 20
883.250013268839
  0
VERTEX
  8
54
 62
7
  6
CONTINUOUS
 10
-693.750010422835
 20
883.250013268839
  0
SEQEND
  0
POLYLINE
  8
54
 62
7
 66
1
 70
1
  0
VERTEX
  8
54
 62
7
  6
CONTINUOUS
 10
-690.750010377779
 20
907.250013629283
  0
VERTEX
  8
54
 62
7
  6
CONTINUOUS
 10
-690.750010377779
 20
904.250013584228
  0
VERTEX
  8
54
 62
7
  6
CONTINUOUS
 10
-687.750010332724
 20
902.250013554191
  0
VERTEX
  8
54
 62
7
  6
CONTINUOUS
 10
-682.750010257631
 20
903.250013569209
  0
VERTEX
  8
54
 62
7
  6
CONTINUOUS
 10
-682.750010257631
 20
906.250013614265
  0
VERTEX
  8
54
 62
7
  6
CONTINUOUS
 10
-685.750010302687
 20
909.25001365932
  0
VERTEX
  8
54
 62
7
  6
CONTINUOUS
 10
-688.750010347742
 20
909.25001365932
  0
SEQEND
  0
POLYLINE
  8
54
 62
7
 66
1
 70
1
  0
VERTEX
  8
54
 62
7
  6
CONTINUOUS
 10
-735.750011053612
 20
673.250010114956
  0
VERTEX
  8
54
 62
7
  6
CONTINUOUS
 10
-734.750011038593
 20
642.250009649382
  0
VERTEX
  8
54
 62
7
  6
CONTINUOUS
 10
-732.750011008556
 20
635.250009544253
  0
VERTEX
  8
54
 62
7
  6
CONTINUOUS
 10
-720.197214320071
 20
591.315221134232
  0
VERTEX
  8
54
 62
7
  6
CONTINUOUS
 10
-712.9399731717
 20
586.546183163794
  0
VERTEX
  8
54
 62
7
  6
CONTINUOUS
 10
-678.762578615365
 20
573.252978841851
  0
VERTEX
  8
54
 62
7
  6
CONTINUOUS
 10
-645.745735968106
 20
570.250816888928
  0
VERTEX
  8
54
 62
7
  6
CONTINUOUS
 10
-637.749949925749
 20
574.250187598827
  0
VERTEX
  8
54
 62
7
  6
CONTINUOUS
 10
-609.750009161281
 20
658.250009889678
  0
VERTEX
  8
54
 62
7
  6
CONTINUOUS
 10
-607.750009131244
 20
664.250009979789
  0
VERTEX
  8
54
 62
7
  6
CONTINUOUS
 10
-611.750009191318
 20
680.250010220085
  0
VERTEX
  8
54
 62
7
  6
CONTINUOUS
 10
-618.750009296448
 20
694.250010430344
  0
VERTEX
  8
54
 62
7
  6
CONTINUOUS
 10
-628.750009446633
 20
707.250010625585
  0
VERTEX
  8
54
 62
7
  6
CONTINUOUS
 10
-638.750009596818
 20
716.250010760751
  0
VERTEX
  8
54
 62
7
  6
CONTINUOUS
 10
-648.750009747003
 20
722.250010850862
  0
VERTEX
  8
54
 62
7
  6
CONTINUOUS
 10
-662.750009957261
 20
724.250010880899
  0
VERTEX
  8
54
 62
7
  6
CONTINUOUS
 10
-669.750010062391
 20
721.250010835843
  0
VERTEX
  8
54
 62
7
  6
CONTINUOUS
 10
-674.750010137483
 20
716.250010760751
  0
VERTEX
  8
54
 62
7
  6
CONTINUOUS
 10
-682.750010257631
 20
703.25001056551
  0
VERTEX
  8
54
 62
7
  6
CONTINUOUS
 10
-692.750010407816
 20
695.250010445363
  0
VERTEX
  8
54
 62
7
  6
CONTINUOUS
 10
-723.75001087339
 20
695.250010445363
  0
VERTEX
  8
54
 62
7
  6
CONTINUOUS
 10
-731.750010993538
 20
690.25001037027
  0
VERTEX
  8
54
 62
7
  6
CONTINUOUS
 10
-734.750011038593
 20
682.250010250122
  0
SEQEND
  0
POLYLINE
  8
54
 62
7
 66
1
 70
1
  0
VERTEX
  8
54
 62
7
  6
CONTINUOUS
 10
-602.234042849381
 20
737.3777406736
  0
VERTEX
  8
54
 62
7
  6
CONTINUOUS
 10
-601.015501768951
 20
737.422035241947
  0
VERTEX
  8
54
 62
7
  6
CONTINUOUS
 10
-598.941694498793
 20
713.274564363643
  0
VERTEX
  8
54
 62
7
  6
CONTINUOUS
 10
-592.682689583795
 20
730.67467226421
  0
VERTEX
  8
54
 62
7
  6
CONTINUOUS
 10
-589.623033515634
 20
721.836793464198
  0
VERTEX
  8
54
 62
7
  6
CONTINUOUS
 10
-584.459441731084
 20
674.052735795939
  0
VERTEX
  8
54
 62
7
  6
CONTINUOUS
 10
-581.58847669724
 20
675.41528882183
  0
VERTEX
  8
54
 62
7
  6
CONTINUOUS
 10
-580.750008725745
 20
689.250010355252
  0
VERTEX
  8
54
 62
7
  6
CONTINUOUS
 10
-578.750008695708
 20
722.250010850862
  0
VERTEX
  8
54
 62
7
  6
CONTINUOUS
 10
-579.750008710727
 20
745.250011196287
  0
VERTEX
  8
54
 62
7
  6
CONTINUOUS
 10
-583.7500087708
 20
762.250011451602
  0
VERTEX
  8
54
 62
7
  6
CONTINUOUS
 10
-589.750008860911
 20
771.250011586768
  0
VERTEX
  8
54
 62
7
  6
CONTINUOUS
 10
-593.750008920985
 20
771.250011586768
  0
VERTEX
  8
54
 62
7
  6
CONTINUOUS
 10
-598.750008996078
 20
765.250011496657
  0
VERTEX
  8
54
 62
7
  6
CONTINUOUS
 10
-601.750009041133
 20
741.250011136213
  0
SEQEND
  0
POLYLINE
  8
54
 62
7
 66
1
 70
1
  0
VERTEX
  8
54
 62
7
  6
CONTINUOUS
 10
-494.750007434154
 20
1646.25002472795
  0
VERTEX
  8
54
 62
7
  6
CONTINUOUS
 10
-492.750007404118
 20
1633.25002453271
  0
VERTEX
  8
54
 62
7
  6
CONTINUOUS
 10
-489.750007359062
 20
1630.25002448765
  0
VERTEX
  8
54
 62
7
  6
CONTINUOUS
 10
-484.75000728397
 20
1635.25002456275
  0
VERTEX
  8
54
 62
7
  6
CONTINUOUS
 10
-484.75000728397
 20
1642.25002466788
  0
VERTEX
  8
54
 62
7
  6
CONTINUOUS
 10
-486.750007314007
 20
1646.25002472795
  0
VERTEX
  8
54
 62
7
  6
CONTINUOUS
 10
-487.750007329025
 20
1655.25002486312
  0
VERTEX
  8
54
 62
7
  6
CONTINUOUS
 10
-491.750007389099
 20
1658.25002490817
  0
VERTEX
  8
54
 62
7
  6
CONTINUOUS
 10
-493.750007419136
 20
1656.25002487814
  0
SEQEND
  0
POLYLINE
  8
54
 62
7
 66
1
 70
1
  0
VERTEX
  8
54
 62
7
  6
CONTINUOUS
 10
-483.896469813609
 20
2548.54296336425
  0
VERTEX
  8
54
 62
7
  6
CONTINUOUS
 10
-472.750007103748
 20
2526.25003794422
  0
VERTEX
  8
54
 62
7
  6
CONTINUOUS
 10
-472.750007103748
 20
2522.25003788415
  0
VERTEX
  8
54
 62
7
  6
CONTINUOUS
 10
-468.750007043674
 20
2514.250037764
  0
VERTEX
  8
54
 62
7
  6
CONTINUOUS
 10
-461.750006938544
 20
2508.25003767389
  0
VERTEX
  8
54
 62
7
  6
CONTINUOUS
 10
-457.75000687847
 20
2506.25003764386
  0
VERTEX
  8
54
 62
7
  6
CONTINUOUS
 10
-439.750006608137
 20
2506.25003764386
  0
VERTEX
  8
54
 62
7
  6
CONTINUOUS
 10
-420.750006322786
 20
2495.25003747865
  0
VERTEX
  8
54
 62
7
  6
CONTINUOUS
 10
-414.750006232675
 20
2495.25003747865
  0
VERTEX
  8
54
 62
7
  6
CONTINUOUS
 10
-404.75000608249
 20
2500.25003755374
  0
VERTEX
  8
54
 62
7
  6
CONTINUOUS
 10
-399.750006007398
 20
2507.25003765887
  0
VERTEX
  8
54
 62
7
  6
CONTINUOUS
 10
-400.750006022416
 20
2512.25003773397
  0
VERTEX
  8
54
 62
7
  6
CONTINUOUS
 10
-381.766564959983
 20
2538.82685522237
  0
VERTEX
  8
54
 62
7
  6
CONTINUOUS
 10
-408.909296916488
 20
2534.96610808062
  0
VERTEX
  8
54
 62
7
  6
CONTINUOUS
 10
-414.498812104666
 20
2526.37553011882
  0
VERTEX
  8
54
 62
7
  6
CONTINUOUS
 10
-417.481835410558
 20
2525.95978214678
  0
VERTEX
  8
54
 62
7
  6
CONTINUOUS
 10
-417.789488945103
 20
2534.2805493152
  0
VERTEX
  8
54
 62
7
  6
CONTINUOUS
 10
-434.78805403643
 20
2530.10972367437
  0
VERTEX
  8
54
 62
7
  6
CONTINUOUS
 10
-444.807175744614
 20
2540.27330599675
  0
VERTEX
  8
54
 62
7
  6
CONTINUOUS
 10
-469.799286245093
 20
2540.26468255338
  0
VERTEX
  8
54
 62
7
  6
CONTINUOUS
 10
-480.670645916749
 20
2547.53874875126
  0
VERTEX
  8
54
 62
7
  6
CONTINUOUS
 10
-482.567345121901
 20
2548.41073488571
  0
SEQEND
  0
POLYLINE
  8
54
 62
7
 66
1
 70
1
  0
VERTEX
  8
54
 62
7
  6
CONTINUOUS
 10
-403.750006067472
 20
1201.25001804472
  0
VERTEX
  8
54
 62
7
  6
CONTINUOUS
 10
-403.750006067472
 20
1197.25001798465
  0
VERTEX
  8
54
 62
7
  6
CONTINUOUS
 10
-401.750006037435
 20
1195.25001795461
  0
VERTEX
  8
54
 62
7
  6
CONTINUOUS
 10
-395.750005947324
 20
1197.25001798465
  0
VERTEX
  8
54
 62
7
  6
CONTINUOUS
 10
-395.750005947324
 20
1200.2500180297
  0
VERTEX
  8
54
 62
7
  6
CONTINUOUS
 10
-400.750006022416
 20
1203.25001807476
  0
SEQEND
  0
POLYLINE
  8
54
 62
7
 66
1
 70
1
  0
VERTEX
  8
54
 62
7
  6
CONTINUOUS
 10
-414.204090629588
 20
664.585033833732
  0
VERTEX
  8
54
 62
7
  6
CONTINUOUS
 10
-385.908658766961
 20
665.535892440159
  0
VERTEX
  8
54
 62
7
  6
CONTINUOUS
 10
-385.773178698298
 20
661.603095172121
  0
VERTEX
  8
54
 62
7
  6
CONTINUOUS
 10
-355.274216184331
 20
666.627099258671
  0
VERTEX
  8
54
 62
7
  6
CONTINUOUS
 10
-316.768398061666
 20
653.258186466773
  0
VERTEX
  8
54
 62
7
  6
CONTINUOUS
 10
-288.649527500337
 20
637.917932834478
  0
VERTEX
  8
54
 62
7
  6
CONTINUOUS
 10
-257.70352449906
 20
646.35493502315
  0
VERTEX
  8
54
 62
7
  6
CONTINUOUS
 10
-258.75000388979
 20
655.250009844623
  0
VERTEX
  8
54
 62
7
  6
CONTINUOUS
 10
-260.750003919827
 20
672.250010099937
  0
VERTEX
  8
54
 62
7
  6
CONTINUOUS
 10
-268.750004039975
 20
690.25001037027
  0
VERTEX
  8
54
 62
7
  6
CONTINUOUS
 10
-282.750004250234
 20
707.250010625585
  0
VERTEX
  8
54
 62
7
  6
CONTINUOUS
 10
-292.750004400419
 20
713.250010715695
  0
VERTEX
  8
54
 62
7
  6
CONTINUOUS
 10
-303.750004565622
 20
713.250010715695
  0
VERTEX
  8
54
 62
7
  6
CONTINUOUS
 10
-322.750004850973
 20
708.250010640603
  0
VERTEX
  8
54
 62
7
  6
CONTINUOUS
 10
-329.750004956103
 20
708.250010640603
  0
VERTEX
  8
54
 62
7
  6
CONTINUOUS
 10
-343.750005166362
 20
714.250010730714
  0
VERTEX
  8
54
 62
7
  6
CONTINUOUS
 10
-361.750005436695
 20
726.250010910936
  0
VERTEX
  8
54
 62
7
  6
CONTINUOUS
 10
-376.750005661972
 20
727.250010925954
  0
VERTEX
  8
54
 62
7
  6
CONTINUOUS
 10
-386.750005812157
 20
722.250010850862
  0
VERTEX
  8
54
 62
7
  6
CONTINUOUS
 10
-397.750005977361
 20
712.250010700677
  0
VERTEX
  8
54
 62
7
  6
CONTINUOUS
 10
-404.75000608249
 20
699.250010505437
  0
VERTEX
  8
54
 62
7
  6
CONTINUOUS
 10
-407.750006127545
 20
688.250010340233
  0
SEQEND
  0
POLYLINE
  8
54
 62
7
 66
1
 70
1
  0
VERTEX
  8
54
 62
7
  6
CONTINUOUS
 10
-311.75000468577
 20
1604.25002409717
  0
VERTEX
  8
54
 62
7
  6
CONTINUOUS
 10
-309.750004655733
 20
1602.25002406714
  0
VERTEX
  8
54
 62
7
  6
CONTINUOUS
 10
-290.750004370382
 20
1601.25002405212
  0
VERTEX
  8
54
 62
7
  6
CONTINUOUS
 10
-251.75000378466
 20
1607.25002414223
  0
VERTEX
  8
54
 62
7
  6
CONTINUOUS
 10
-248.750003739605
 20
1610.25002418728
  0
VERTEX
  8
54
 62
7
  6
CONTINUOUS
 10
-241.750003634475
 20
1613.25002423234
  0
VERTEX
  8
54
 62
7
  6
CONTINUOUS
 10
-239.750003604438
 20
1615.25002426238
  0
VERTEX
  8
54
 62
7
  6
CONTINUOUS
 10
-239.750003604438
 20
1618.25002430743
  0
VERTEX
  8
54
 62
7
  6
CONTINUOUS
 10
-243.750003664512
 20
1620.25002433747
  0
VERTEX
  8
54
 62
7
  6
CONTINUOUS
 10
-261.750003934845
 20
1619.25002432245
  0
VERTEX
  8
54
 62
7
  6
CONTINUOUS
 10
-300.750004520567
 20
1609.25002417227
  0
VERTEX
  8
54
 62
7
  6
CONTINUOUS
 10
-305.750004595659
 20
1609.25002417227
  0
VERTEX
  8
54
 62
7
  6
CONTINUOUS
 10
-308.750004640715
 20
1608.25002415725
  0
SEQEND
  0
POLYLINE
  8
54
 62
7
 66
1
 70
1
  0
VERTEX
  8
54
 62
7
  6
CONTINUOUS
 10
-337.750005076251
 20
989.2500148608
  0
VERTEX
  8
54
 62
7
  6
CONTINUOUS
 10
-333.750005016177
 20
975.250014650541
  0
VERTEX
  8
54
 62
7
  6
CONTINUOUS
 10
-323.750004865992
 20
966.250014515374
  0
VERTEX
  8
54
 62
7
  6
CONTINUOUS
 10
-283.750004265252
 20
946.250014215005
  0
VERTEX
  8
54
 62
7
  6
CONTINUOUS
 10
-268.750004039975
 20
932.250014004746
  0
VERTEX
  8
54
 62
7
  6
CONTINUOUS
 10
-258.75000388979
 20
917.250013779468
  0
VERTEX
  8
54
 62
7
  6
CONTINUOUS
 10
-249.750003754623
 20
908.250013644302
  0
VERTEX
  8
54
 62
7
  6
CONTINUOUS
 10
-241.750003634475
 20
903.250013569209
  0
VERTEX
  8
54
 62
7
  6
CONTINUOUS
 10
-234.750003529346
 20
901.250013539172
  0
VERTEX
  8
54
 62
7
  6
CONTINUOUS
 10
-217.750003274032
 20
902.250013554191
  0
VERTEX
  8
54
 62
7
  6
CONTINUOUS
 10
-198.75000298868
 20
912.250013704376
  0
VERTEX
  8
54
 62
7
  6
CONTINUOUS
 10
-180.750002718347
 20
929.25001395969
  0
VERTEX
  8
54
 62
7
  6
CONTINUOUS
 10
-154.750002327867
 20
961.250014440282
  0
VERTEX
  8
54
 62
7
  6
CONTINUOUS
 10
-133.750002012478
 20
975.250014650541
  0
VERTEX
  8
54
 62
7
  6
CONTINUOUS
 10
-119.750001802219
 20
987.250014830763
  0
VERTEX
  8
54
 62
7
  6
CONTINUOUS
 10
-109.750001652034
 20
1003.25001507106
  0
VERTEX
  8
54
 62
7
  6
CONTINUOUS
 10
-107.750001621997
 20
1017.25001528132
  0
VERTEX
  8
54
 62
7
  6
CONTINUOUS
 10
-111.750001682071
 20
1026.25001541648
  0
VERTEX
  8
54
 62
7
  6
CONTINUOUS
 10
-119.750001802219
 20
1035.25001555165
  0
VERTEX
  8
54
 62
7
  6
CONTINUOUS
 10
-127.750001922367
 20
1040.25001562674
  0
VERTEX
  8
54
 62
7
  6
CONTINUOUS
 10
-132.75000199746
 20
1041.25001564176
  0
VERTEX
  8
54
 62
7
  6
CONTINUOUS
 10
-165.75000249307
 20
1040.25001562674
  0
VERTEX
  8
54
 62
7
  6
CONTINUOUS
 10
-225.75000339418
 20
1055.25001585202
  0
VERTEX
  8
54
 62
7
  6
CONTINUOUS
 10
-261.750003934845
 20
1055.25001585202
  0
VERTEX
  8
54
 62
7
  6
CONTINUOUS
 10
-276.750004160123
 20
1058.25001589708
  0
VERTEX
  8
54
 62
7
  6
CONTINUOUS
 10
-295.750004445474
 20
1054.250015837
  0
VERTEX
  8
54
 62
7
  6
CONTINUOUS
 10
-314.750004730826
 20
1041.25001564176
  0
VERTEX
  8
54
 62
7
  6
CONTINUOUS
 10
-328.750004941085
 20
1023.25001537143
  0
VERTEX
  8
54
 62
7
  6
CONTINUOUS
 10
-335.750005046214
 20
1006.25001511611
  0
SEQEND
  0
POLYLINE
  8
54
 62
7
 66
1
 70
1
  0
VERTEX
  8
54
 62
7
  6
CONTINUOUS
 10
-817.750012285128
 20
1573.2500236316
  0
VERTEX
  8
54
 62
7
  6
CONTINUOUS
 10
-815.750012255091
 20
1571.25002360156
  0
VERTEX
  8
54
 62
7
  6
CONTINUOUS
 10
-808.750012149962
 20
1569.25002357153
  0
VERTEX
  8
54
 62
7
  6
CONTINUOUS
 10
-800.750012029814
 20
1570.25002358655
  0
VERTEX
  8
54
 62
7
  6
CONTINUOUS
 10
-793.750011924684
 20
1575.25002366164
  0
VERTEX
  8
54
 62
7
  6
CONTINUOUS
 10
-787.750011834573
 20
1577.25002369167
  0
VERTEX
  8
54
 62
7
  6
CONTINUOUS
 10
-782.750011759481
 20
1581.25002375175
  0
VERTEX
  8
54
 62
7
  6
CONTINUOUS
 10
-782.750011759481
 20
1584.2500237968
  0
VERTEX
  8
54
 62
7
  6
CONTINUOUS
 10
-787.750011834573
 20
1585.25002381182
  0
VERTEX
  8
54
 62
7
  6
CONTINUOUS
 10
-798.750011999777
 20
1580.25002373673
  0
VERTEX
  8
54
 62
7
  6
CONTINUOUS
 10
-814.750012240073
 20
1579.25002372171
  0
SEQEND
  0
POLYLINE
  8
54
 62
7
 66
1
 70
1
  0
VERTEX
  8
54
 62
7
  6
CONTINUOUS
 10
-1258.75907319217
 20
458.277001054274
  0
VERTEX
  8
54
 62
7
  6
CONTINUOUS
 10
-1236.37952332336
 20
432.955120292675
  0
VERTEX
  8
54
 62
7
  6
CONTINUOUS
 10
-1203.05206835481
 20
427.376063686187
  0
VERTEX
  8
54
 62
7
  6
CONTINUOUS
 10
-1197.94380763273
 20
432.048290629264
  0
VERTEX
  8
54
 62
7
  6
CONTINUOUS
 10
-1196.22734290063
 20
426.89276508471
  0
VERTEX
  8
54
 62
7
  6
CONTINUOUS
 10
-1142.70934806621
 20
427.246612667974
  0
VERTEX
  8
54
 62
7
  6
CONTINUOUS
 10
-1091.71508400432
 20
418.254406256267
  0
VERTEX
  8
54
 62
7
  6
CONTINUOUS
 10
-1082.71268290844
 20
422.260546710041
  0
VERTEX
  8
54
 62
7
  6
CONTINUOUS
 10
-1066.75822515945
 20
424.247312427296
  0
VERTEX
  8
54
 62
7
  6
CONTINUOUS
 10
-998.5562613104
 20
462.442893773853
  0
VERTEX
  8
54
 62
7
  6
CONTINUOUS
 10
-993.375262462571
 20
470.874976608311
  0
VERTEX
  8
54
 62
7
  6
CONTINUOUS
 10
-987.37753581779
 20
465.500287799321
  0
VERTEX
  8
54
 62
7
  6
CONTINUOUS
 10
-981.36469278599
 20
467.46245207222
  0
VERTEX
  8
54
 62
7
  6
CONTINUOUS
 10
-971.819602464952
 20
475.211905346687
  0
VERTEX
  8
54
 62
7
  6
CONTINUOUS
 10
-956.548827338861
 20
480.845702691193
  0
VERTEX
  8
54
 62
7
  6
CONTINUOUS
 10
-951.886283223007
 20
476.261566491575
  0
VERTEX
  8
54
 62
7
  6
CONTINUOUS
 10
-942.090327420842
 20
483.353706465824
  0
VERTEX
  8
54
 62
7
  6
CONTINUOUS
 10
-933.741733720287
 20
477.247736059365
  0
VERTEX
  8
54
 62
7
  6
CONTINUOUS
 10
-931.241673453938
 20
477.44242867177
  0
VERTEX
  8
54
 62
7
  6
CONTINUOUS
 10
-948.391837466779
 20
511.742756697712
  0
VERTEX
  8
54
 62
7
  6
CONTINUOUS
 10
-953.969387710926
 20
522.897857186007
  0
VERTEX
  8
54
 62
7
  6
CONTINUOUS
 10
-1009.7448901524
 20
522.897857186007
  0
VERTEX
  8
54
 62
7
  6
CONTINUOUS
 10
-1028.33672429956
 20
519.179490356575
  0
VERTEX
  8
54
 62
7
  6
CONTINUOUS
 10
-1059.94284234973
 20
509.883573282996
  0
VERTEX
  8
54
 62
7
  6
CONTINUOUS
 10
-1085.97141015575
 20
502.446839624132
  0
VERTEX
  8
54
 62
7
  6
CONTINUOUS
 10
-1108.28161113234
 20
495.010105965269
  0
VERTEX
  8
54
 62
7
  6
CONTINUOUS
 10
-1126.8734452795
 20
495.010105965269
  0
VERTEX
  8
54
 62
7
  6
CONTINUOUS
 10
-1151.04282967081
 20
502.446839624132
  0
VERTEX
  8
54
 62
7
  6
CONTINUOUS
 10
-1165.91629698853
 20
509.883573282996
  0
VERTEX
  8
54
 62
7
  6
CONTINUOUS
 10
-1173.3530306474
 20
522.897857186007
  0
VERTEX
  8
54
 62
7
  6
CONTINUOUS
 10
-1173.3530306474
 20
638.16722889839
  0
VERTEX
  8
54
 62
7
  6
CONTINUOUS
 10
-1175.21221406211
 20
666.054980119128
  0
VERTEX
  8
54
 62
7
  6
CONTINUOUS
 10
-1178.93058089155
 20
686.505997681003
  0
VERTEX
  8
54
 62
7
  6
CONTINUOUS
 10
-1184.50813113569
 20
710.675382072309
  0
VERTEX
  8
54
 62
7
  6
CONTINUOUS
 10
-1189.43422528575
 20
720.527570372109
  0
VERTEX
  8
54
 62
7
  6
CONTINUOUS
 10
-1196.33934452194
 20
692.883917330379
  0
VERTEX
  8
54
 62
7
  6
CONTINUOUS
 10
-1194.75576677536
 20
672.275799231892
  0
VERTEX
  8
54
 62
7
  6
CONTINUOUS
 10
-1189.45410977973
 20
658.489767195089
  0
VERTEX
  8
54
 62
7
  6
CONTINUOUS
 10
-1196.75367918858
 20
628.236878269415
  0
VERTEX
  8
54
 62
7
  6
CONTINUOUS
 10
-1220.71962625712
 20
553.302201995453
  0
VERTEX
  8
54
 62
7
  6
CONTINUOUS
 10
-1240.12070327931
 20
531.844965061504
  0
VERTEX
  8
54
 62
7
  6
CONTINUOUS
 10
-1237.15455207435
 20
523.433906181879
  0
VERTEX
  8
54
 62
7
  6
CONTINUOUS
 10
-1230.78421275741
 20
523.284536090812
  0
VERTEX
  8
54
 62
7
  6
CONTINUOUS
 10
-1230.67630459886
 20
512.419079197895
  0
VERTEX
  8
54
 62
7
  6
CONTINUOUS
 10
-1239.66598648659
 20
503.21429796689
  0
VERTEX
  8
54
 62
7
  6
CONTINUOUS
 10
-1240.08742209985
 20
520.610573663964
  0
VERTEX
  8
54
 62
7
  6
CONTINUOUS
 10
-1245.64165745048
 20
520.780236450875
  0
VERTEX
  8
54
 62
7
  6
CONTINUOUS
 10
-1244.60952360577
 20
513.712074264604
  0
VERTEX
  8
54
 62
7
  6
CONTINUOUS
 10
-1251.91880876219
 20
515.368247112816
  0
VERTEX
  8
54
 62
7
  6
CONTINUOUS
 10
-1251.70481392073
 20
518.225321344198
  0
VERTEX
  8
54
 62
7
  6
CONTINUOUS
 10
-1254.33895962212
 20
515.916616489167
  0
VERTEX
  8
54
 62
7
  6
CONTINUOUS
 10
-1251.91880876219
 20
515.368247112816
  0
VERTEX
  8
54
 62
7
  6
CONTINUOUS
 10
-1252.75548324398
 20
504.197692319651
  0
VERTEX
  8
54
 62
7
  6
CONTINUOUS
 10
-1256.74493612672
 20
486.283999982838
  0
SEQEND
  0
POLYLINE
  8
54
 62
7
 66
1
 70
1
  0
VERTEX
  8
54
 62
7
  6
CONTINUOUS
 10
-1416.90605797518
 20
1084.28609515807
  0
VERTEX
  8
54
 62
7
  6
CONTINUOUS
 10
-1409.7174969393
 20
1071.15256489414
  0
VERTEX
  8
54
 62
7
  6
CONTINUOUS
 10
-1408.75196387582
 20
1063.25499859658
  0
VERTEX
  8
54
 62
7
  6
CONTINUOUS
 10
-1403.74673350665
 20
1056.24265930004
  0
VERTEX
  8
54
 62
7
  6
CONTINUOUS
 10
-1396.60077222816
 20
1024.09555130718
  0
VERTEX
  8
54
 62
7
  6
CONTINUOUS
 10
-1388.06810367301
 20
1015.56035885417
  0
VERTEX
  8
54
 62
7
  6
CONTINUOUS
 10
-1376.08318719528
 20
985.582832365104
  0
VERTEX
  8
54
 62
7
  6
CONTINUOUS
 10
-1363.00480788221
 20
933.275028611742
  0
VERTEX
  8
54
 62
7
  6
CONTINUOUS
 10
-1344.61595144197
 20
912.491281811414
  0
VERTEX
  8
54
 62
7
  6
CONTINUOUS
 10
-1292.82087015477
 20
869.837645605678
  0
VERTEX
  8
54
 62
7
  6
CONTINUOUS
 10
-1262.69077323848
 20
848.97853004708
  0
VERTEX
  8
54
 62
7
  6
CONTINUOUS
 10
-1242.50182034206
 20
824.752769165233
  0
VERTEX
  8
54
 62
7
  6
CONTINUOUS
 10
-1223.04733908917
 20
785.842817363602
  0
VERTEX
  8
54
 62
7
  6
CONTINUOUS
 10
-1232.84689991831
 20
818.508020125829
  0
VERTEX
  8
54
 62
7
  6
CONTINUOUS
 10
-1247.72036723603
 20
846.395771346567
  0
VERTEX
  8
54
 62
7
  6
CONTINUOUS
 10
-1264.45301796848
 20
870.565155737874
  0
VERTEX
  8
54
 62
7
  6
CONTINUOUS
 10
-1281.18566870092
 20
887.297806470316
  0
VERTEX
  8
54
 62
7
  6
CONTINUOUS
 10
-1297.91831943336
 20
900.312090373327
  0
VERTEX
  8
54
 62
7
  6
CONTINUOUS
 10
-1309.07341992166
 20
917.04474110577
  0
VERTEX
  8
54
 62
7
  6
CONTINUOUS
 10
-1323.94688723938
 20
935.636575252929
  0
VERTEX
  8
54
 62
7
  6
CONTINUOUS
 10
-1336.96117114239
 20
957.946776229519
  0
VERTEX
  8
54
 62
7
  6
CONTINUOUS
 10
-1346.25708821597
 20
983.975344035541
  0
VERTEX
  8
54
 62
7
  6
CONTINUOUS
 10
-1351.83463846012
 20
1006.28554501213
  0
VERTEX
  8
54
 62
7
  6
CONTINUOUS
 10
-1351.83463846012
 20
1060.20186403889
  0
VERTEX
  8
54
 62
7
  6
CONTINUOUS
 10
-1348.11627163069
 20
1080.65288160077
  0
VERTEX
  8
54
 62
7
  6
CONTINUOUS
 10
-1333.24280431296
 20
1093.66716550378
  0
VERTEX
  8
54
 62
7
  6
CONTINUOUS
 10
-1318.36933699524
 20
1112.25899965094
  0
VERTEX
  8
54
 62
7
  6
CONTINUOUS
 10
-1292.34076918921
 20
1140.14675087167
  0
VERTEX
  8
54
 62
7
  6
CONTINUOUS
 10
-1270.03056821262
 20
1169.89368550713
  0
VERTEX
  8
54
 62
7
  6
CONTINUOUS
 10
-1253.29791748018
 20
1197.78143672787
  0
VERTEX
  8
54
 62
7
  6
CONTINUOUS
 10
-1232.84689991831
 20
1225.6691879486
  0
VERTEX
  8
54
 62
7
  6
CONTINUOUS
 10
-1221.69179943001
 20
1238.68347185161
  0
VERTEX
  8
54
 62
7
  6
CONTINUOUS
 10
-1206.81833211228
 20
1264.71203965764
  0
VERTEX
  8
54
 62
7
  6
CONTINUOUS
 10
-1186.36731455041
 20
1314.90999185497
  0
VERTEX
  8
54
 62
7
  6
CONTINUOUS
 10
-1173.3530306474
 20
1331.64264258741
  0
VERTEX
  8
54
 62
7
  6
CONTINUOUS
 10
-1160.33874674439
 20
1359.53039380815
  0
VERTEX
  8
54
 62
7
  6
CONTINUOUS
 10
-1141.74691259723
 20
1402.29161234661
  0
VERTEX
  8
54
 62
7
  6
CONTINUOUS
 10
-1130.59181210893
 20
1420.88344649377
  0
VERTEX
  8
54
 62
7
  6
CONTINUOUS
 10
-1123.15507845007
 20
1452.48956454394
  0
VERTEX
  8
54
 62
7
  6
CONTINUOUS
 10
-1117.12525599528
 20
1480.91587039624
  0
VERTEX
  8
54
 62
7
  6
CONTINUOUS
 10
-1123.04644220376
 20
1476.09122303299
  0
VERTEX
  8
54
 62
7
  6
CONTINUOUS
 10
-1146.20357099642
 20
1451.15218970693
  0
VERTEX
  8
54
 62
7
  6
CONTINUOUS
 10
-1165.47508168091
 20
1419.17679763059
  0
VERTEX
  8
54
 62
7
  6
CONTINUOUS
 10
-1170.88589400889
 20
1419.21276156973
  0
VERTEX
  8
54
 62
7
  6
CONTINUOUS
 10
-1179.0483156991
 20
1414.90691177929
  0
VERTEX
  8
54
 62
7
  6
CONTINUOUS
 10
-1184.24059767768
 20
1405.16779605904
  0
VERTEX
  8
54
 62
7
  6
CONTINUOUS
 10
-1175.48747368338
 20
1404.24693264806
  0
VERTEX
  8
54
 62
7
  6
CONTINUOUS
 10
-1201.08890180635
 20
1365.00210890446
  0
VERTEX
  8
54
 62
7
  6
CONTINUOUS
 10
-1222.29191114039
 20
1337.32100114694
  0
VERTEX
  8
54
 62
7
  6
CONTINUOUS
 10
-1227.22633564648
 20
1337.26456604756
  0
VERTEX
  8
54
 62
7
  6
CONTINUOUS
 10
-1232.22279528583
 20
1327.40759224872
  0
VERTEX
  8
54
 62
7
  6
CONTINUOUS
 10
-1237.0045593739
 20
1325.52788177645
  0
VERTEX
  8
54
 62
7
  6
CONTINUOUS
 10
-1248.89967855802
 20
1305.66898943581
  0
VERTEX
  8
54
 62
7
  6
CONTINUOUS
 10
-1270.29936150895
 20
1279.91068353781
  0
VERTEX
  8
54
 62
7
  6
CONTINUOUS
 10
-1280.02984585019
 20
1277.44110195772
  0
VERTEX
  8
54
 62
7
  6
CONTINUOUS
 10
-1283.18753846549
 20
1263.40514084087
  0
VERTEX
  8
54
 62
7
  6
CONTINUOUS
 10
-1321.7496836658
 20
1215.25039382869
  0
VERTEX
  8
54
 62
7
  6
CONTINUOUS
 10
-1330.08374889542
 20
1206.91618746424
  0
VERTEX
  8
54
 62
7
  6
CONTINUOUS
 10
-1336.75338893232
 20
1196.24502002477
  0
VERTEX
  8
54
 62
7
  6
CONTINUOUS
 10
-1392.72282822149
 20
1119.28795897386
  0
SEQEND
  0
POLYLINE
  8
11
 62
7
 66
1
 70
1
  0
VERTEX
  8
11
 62
7
  6
CONTINUOUS
 10
-1134.65526933076
 20
1616.64192264794
  0
VERTEX
  8
11
 62
7
  6
CONTINUOUS
 10
-1134.16775487191
 20
1622.17356923805
  0
VERTEX
  8
11
 62
7
  6
CONTINUOUS
 10
-1130.65464843267
 20
1614.93856441293
  0
VERTEX
  8
11
 62
7
  6
CONTINUOUS
 10
-1130.88089076915
 20
1612.72917791972
  0
SEQEND
  0
POLYLINE
  8
1
 62
7
 66
1
 70
1
  0
VERTEX
  8
1
 62
7
  6
CONTINUOUS
 10
-1416.90605797518
 20
1084.28609515807
  0
VERTEX
  8
1
 62
7
  6
CONTINUOUS
 10
-1409.7174969393
 20
1071.15256489414
  0
VERTEX
  8
1
 62
7
  6
CONTINUOUS
 10
-1408.75196387582
 20
1063.25499859658
  0
VERTEX
  8
1
 62
7
  6
CONTINUOUS
 10
-1403.74673350665
 20
1056.24265930004
  0
VERTEX
  8
1
 62
7
  6
CONTINUOUS
 10
-1396.60077222816
 20
1024.09555130718
  0
VERTEX
  8
1
 62
7
  6
CONTINUOUS
 10
-1388.06810367301
 20
1015.56035885417
  0
VERTEX
  8
1
 62
7
  6
CONTINUOUS
 10
-1376.08318719528
 20
985.582832365104
  0
VERTEX
  8
1
 62
7
  6
CONTINUOUS
 10
-1363.00480788221
 20
933.275028611742
  0
VERTEX
  8
1
 62
7
  6
CONTINUOUS
 10
-1344.61595144197
 20
912.491281811414
  0
VERTEX
  8
1
 62
7
  6
CONTINUOUS
 10
-1292.82087015477
 20
869.837645605678
  0
VERTEX
  8
1
 62
7
  6
CONTINUOUS
 10
-1262.69077323848
 20
848.97853004708
  0
VERTEX
  8
1
 62
7
  6
CONTINUOUS
 10
-1242.50182034206
 20
824.752769165233
  0
VERTEX
  8
1
 62
7
  6
CONTINUOUS
 10
-1217.56520944319
 20
774.878279294317
  0
VERTEX
  8
1
 62
7
  6
CONTINUOUS
 10
-1188.33479849101
 20
752.402236160998
  0
VERTEX
  8
1
 62
7
  6
CONTINUOUS
 10
-1183.75253126839
 20
743.273416275669
  0
VERTEX
  8
1
 62
7
  6
CONTINUOUS
 10
-1196.33934452194
 20
692.883917330379
  0
VERTEX
  8
1
 62
7
  6
CONTINUOUS
 10
-1194.75576677536
 20
672.275799231892
  0
VERTEX
  8
1
 62
7
  6
CONTINUOUS
 10
-1189.45410977973
 20
658.489767195089
  0
VERTEX
  8
1
 62
7
  6
CONTINUOUS
 10
-1196.75367918858
 20
628.236878269415
  0
VERTEX
  8
1
 62
7
  6
CONTINUOUS
 10
-1220.71962625712
 20
553.302201995453
  0
VERTEX
  8
1
 62
7
  6
CONTINUOUS
 10
-1240.12070327931
 20
531.844965061504
  0
VERTEX
  8
1
 62
7
  6
CONTINUOUS
 10
-1237.15455207435
 20
523.433906181879
  0
VERTEX
  8
1
 62
7
  6
CONTINUOUS
 10
-1230.78421275741
 20
523.284536090812
  0
VERTEX
  8
1
 62
7
  6
CONTINUOUS
 10
-1230.67630459886
 20
512.419079197895
  0
VERTEX
  8
1
 62
7
  6
CONTINUOUS
 10
-1239.66598648659
 20
503.21429796689
  0
VERTEX
  8
1
 62
7
  6
CONTINUOUS
 10
-1240.08742209985
 20
520.610573663964
  0
VERTEX
  8
1
 62
7
  6
CONTINUOUS
 10
-1245.64165745048
 20
520.780236450875
  0
VERTEX
  8
1
 62
7
  6
CONTINUOUS
 10
-1244.60952360577
 20
513.712074264604
  0
VERTEX
  8
1
 62
7
  6
CONTINUOUS
 10
-1251.91880876219
 20
515.368247112816
  0
VERTEX
  8
1
 62
7
  6
CONTINUOUS
 10
-1251.70481392073
 20
518.225321344198
  0
VERTEX
  8
1
 62
7
  6
CONTINUOUS
 10
-1254.33895962212
 20
515.916616489167
  0
VERTEX
  8
1
 62
7
  6
CONTINUOUS
 10
-1251.91880876219
 20
515.368247112816
  0
VERTEX
  8
1
 62
7
  6
CONTINUOUS
 10
-1252.75548324398
 20
504.197692319651
  0
VERTEX
  8
1
 62
7
  6
CONTINUOUS
 10
-1256.74493612672
 20
486.283999982838
  0
VERTEX
  8
1
 62
7
  6
CONTINUOUS
 10
-1258.75907319217
 20
458.277001054274
  0
VERTEX
  8
1
 62
7
  6
CONTINUOUS
 10
-1236.37952332336
 20
432.955120292675
  0
VERTEX
  8
1
 62
7
  6
CONTINUOUS
 10
-1203.05206835481
 20
427.376063686187
  0
VERTEX
  8
1
 62
7
  6
CONTINUOUS
 10
-1197.94380763273
 20
432.048290629264
  0
VERTEX
  8
1
 62
7
  6
CONTINUOUS
 10
-1196.22734290063
 20
426.89276508471
  0
VERTEX
  8
1
 62
7
  6
CONTINUOUS
 10
-1142.70934806621
 20
427.246612667974
  0
VERTEX
  8
1
 62
7
  6
CONTINUOUS
 10
-1091.71508400432
 20
418.254406256267
  0
VERTEX
  8
1
 62
7
  6
CONTINUOUS
 10
-1082.71268290844
 20
422.260546710041
  0
VERTEX
  8
1
 62
7
  6
CONTINUOUS
 10
-1066.75822515945
 20
424.247312427296
  0
VERTEX
  8
1
 62
7
  6
CONTINUOUS
 10
-998.5562613104
 20
462.442893773853
  0
VERTEX
  8
1
 62
7
  6
CONTINUOUS
 10
-993.375262462571
 20
470.874976608311
  0
VERTEX
  8
1
 62
7
  6
CONTINUOUS
 10
-987.37753581779
 20
465.500287799321
  0
VERTEX
  8
1
 62
7
  6
CONTINUOUS
 10
-981.36469278599
 20
467.46245207222
  0
VERTEX
  8
1
 62
7
  6
CONTINUOUS
 10
-971.819602464952
 20
475.211905346687
  0
VERTEX
  8
1
 62
7
  6
CONTINUOUS
 10
-956.548827338861
 20
480.845702691193
  0
VERTEX
  8
1
 62
7
  6
CONTINUOUS
 10
-951.886283223007
 20
476.261566491575
  0
VERTEX
  8
1
 62
7
  6
CONTINUOUS
 10
-942.090327420842
 20
483.353706465824
  0
VERTEX
  8
1
 62
7
  6
CONTINUOUS
 10
-933.741733720287
 20
477.247736059365
  0
VERTEX
  8
1
 62
7
  6
CONTINUOUS
 10
-921.949310152018
 20
478.16607302139
  0
VERTEX
  8
1
 62
7
  6
CONTINUOUS
 10
-856.604499144593
 20
629.18321195503
  0
VERTEX
  8
1
 62
7
  6
CONTINUOUS
 10
-848.86882583326
 20
629.025461101699
  0
VERTEX
  8
1
 62
7
  6
CONTINUOUS
 10
-847.75709566401
 20
635.834032299113
  0
VERTEX
  8
1
 62
7
  6
CONTINUOUS
 10
-838.465378596349
 20
632.452302308156
  0
VERTEX
  8
1
 62
7
  6
CONTINUOUS
 10
-838.831664559152
 20
649.484586317707
  0
VERTEX
  8
1
 62
7
  6
CONTINUOUS
 10
-846.206233031926
 20
659.674411523062
  0
VERTEX
  8
1
 62
7
  6
CONTINUOUS
 10
-836.786673513618
 20
667.233816590636
  0
VERTEX
  8
1
 62
7
  6
CONTINUOUS
 10
-823.890561427032
 20
669.540332539812
  0
VERTEX
  8
1
 62
7
  6
CONTINUOUS
 10
-823.623008424545
 20
635.033644243032
  0
VERTEX
  8
1
 62
7
  6
CONTINUOUS
 10
-799.573704598172
 20
633.138050104193
  0
VERTEX
  8
1
 62
7
  6
CONTINUOUS
 10
-769.933128598891
 20
623.998779367999
  0
VERTEX
  8
1
 62
7
  6
CONTINUOUS
 10
-712.9399731717
 20
586.546183163794
  0
VERTEX
  8
1
 62
7
  6
CONTINUOUS
 10
-678.762578615365
 20
573.252978841851
  0
VERTEX
  8
1
 62
7
  6
CONTINUOUS
 10
-645.745735968106
 20
570.250816888928
  0
VERTEX
  8
1
 62
7
  6
CONTINUOUS
 10
-627.741921451983
 20
579.256051401746
  0
VERTEX
  8
1
 62
7
  6
CONTINUOUS
 10
-612.752679313586
 20
595.24546357613
  0
VERTEX
  8
1
 62
7
  6
CONTINUOUS
 10
-598.748873574143
 20
639.26250839748
  0
VERTEX
  8
1
 62
7
  6
CONTINUOUS
 10
-601.746793825034
 20
663.21234513765
  0
VERTEX
  8
1
 62
7
  6
CONTINUOUS
 10
-605.713096880328
 20
737.251275344528
  0
VERTEX
  8
1
 62
7
  6
CONTINUOUS
 10
-601.015501768951
 20
737.422035241947
  0
VERTEX
  8
1
 62
7
  6
CONTINUOUS
 10
-598.941694498793
 20
713.274564363643
  0
VERTEX
  8
1
 62
7
  6
CONTINUOUS
 10
-592.682689583795
 20
730.67467226421
  0
VERTEX
  8
1
 62
7
  6
CONTINUOUS
 10
-589.623033515634
 20
721.836793464198
  0
VERTEX
  8
1
 62
7
  6
CONTINUOUS
 10
-584.459441731084
 20
674.052735795939
  0
VERTEX
  8
1
 62
7
  6
CONTINUOUS
 10
-568.40333797562
 20
681.672923608661
  0
VERTEX
  8
1
 62
7
  6
CONTINUOUS
 10
-564.755731923245
 20
689.481136348296
  0
VERTEX
  8
1
 62
7
  6
CONTINUOUS
 10
-559.164593401781
 20
693.444759120458
  0
VERTEX
  8
1
 62
7
  6
CONTINUOUS
 10
-555.418992203854
 20
679.877095826238
  0
VERTEX
  8
1
 62
7
  6
CONTINUOUS
 10
-549.509184187386
 20
677.199381726095
  0
VERTEX
  8
1
 62
7
  6
CONTINUOUS
 10
-528.403391090961
 20
677.248793472359
  0
VERTEX
  8
1
 62
7
  6
CONTINUOUS
 10
-453.80251118761
 20
663.25434203894
  0
VERTEX
  8
1
 62
7
  6
CONTINUOUS
 10
-385.908658766961
 20
665.535892440159
  0
VERTEX
  8
1
 62
7
  6
CONTINUOUS
 10
-385.773178698298
 20
661.603095172121
  0
VERTEX
  8
1
 62
7
  6
CONTINUOUS
 10
-355.274216184331
 20
666.627099258671
  0
VERTEX
  8
1
 62
7
  6
CONTINUOUS
 10
-316.768398061666
 20
653.258186466773
  0
VERTEX
  8
1
 62
7
  6
CONTINUOUS
 10
-288.649527500337
 20
637.917932834478
  0
VERTEX
  8
1
 62
7
  6
CONTINUOUS
 10
-237.739340309415
 20
651.797895320496
  0
VERTEX
  8
1
 62
7
  6
CONTINUOUS
 10
-204.867969185853
 20
657.774651253922
  0
VERTEX
  8
1
 62
7
  6
CONTINUOUS
 10
-183.904798889119
 20
653.313301951845
  0
VERTEX
  8
1
 62
7
  6
CONTINUOUS
 10
-149.961733163133
 20
633.135583660253
  0
VERTEX
  8
1
 62
7
  6
CONTINUOUS
 10
-149.345712136133
 20
653.439031310908
  0
VERTEX
  8
1
 62
7
  6
CONTINUOUS
 10
-144.724273010653
 20
648.048719667633
  0
VERTEX
  8
1
 62
7
  6
CONTINUOUS
 10
-143.886534598305
 20
632.411715954529
  0
VERTEX
  8
1
 62
7
  6
CONTINUOUS
 10
-115.822581371903
 20
626.591630226368
  0
VERTEX
  8
1
 62
7
  6
CONTINUOUS
 10
-115.720637923517
 20
643.874269846517
  0
VERTEX
  8
1
 62
7
  6
CONTINUOUS
 10
-99.4403164278874
 20
640.536420503646
  0
VERTEX
  8
1
 62
7
  6
CONTINUOUS
 10
-102.394547019341
 20
625.326505506008
  0
VERTEX
  8
1
 62
7
  6
CONTINUOUS
 10
-92.8143705380094
 20
622.320868930482
  0
VERTEX
  8
1
 62
7
  6
CONTINUOUS
 10
-91.8667463000351
 20
618.348321718318
  0
VERTEX
  8
1
 62
7
  6
CONTINUOUS
 10
-68.6815156246346
 20
617.23674974103
  0
VERTEX
  8
1
 62
7
  6
CONTINUOUS
 10
-51.0590551451232
 20
610.70559017457
  0
VERTEX
  8
1
 62
7
  6
CONTINUOUS
 10
-6.76376830255219
 20
630.040549305922
  0
VERTEX
  8
1
 62
7
  6
CONTINUOUS
 10
-5.78584620583537
 20
2503.28293292862
  0
VERTEX
  8
1
 62
7
  6
CONTINUOUS
 10
-85.794482984543
 20
2503.25185693674
  0
VERTEX
  8
1
 62
7
  6
CONTINUOUS
 10
-107.388528114552
 20
2505.16025246179
  0
VERTEX
  8
1
 62
7
  6
CONTINUOUS
 10
-114.59575624566
 20
2507.68536030617
  0
VERTEX
  8
1
 62
7
  6
CONTINUOUS
 10
-126.804032874371
 20
2494.10084011537
  0
VERTEX
  8
1
 62
7
  6
CONTINUOUS
 10
-126.661685598626
 20
2483.6760809372
  0
VERTEX
  8
1
 62
7
  6
CONTINUOUS
 10
-128.36475304712
 20
2478.21737336525
  0
VERTEX
  8
1
 62
7
  6
CONTINUOUS
 10
-134.676803890039
 20
2483.22685899138
  0
VERTEX
  8
1
 62
7
  6
CONTINUOUS
 10
-144.120902910129
 20
2483.05361759064
  0
VERTEX
  8
1
 62
7
  6
CONTINUOUS
 10
-144.61411254695
 20
2480.19774300706
  0
VERTEX
  8
1
 62
7
  6
CONTINUOUS
 10
-143.05520541192
 20
2480.10042446934
  0
VERTEX
  8
1
 62
7
  6
CONTINUOUS
 10
-137.431643145826
 20
2476.81130891472
  0
VERTEX
  8
1
 62
7
  6
CONTINUOUS
 10
-139.189132828482
 20
2469.0652822869
  0
VERTEX
  8
1
 62
7
  6
CONTINUOUS
 10
-135.414916395096
 20
2467.58033888233
  0
VERTEX
  8
1
 62
7
  6
CONTINUOUS
 10
-136.935662371891
 20
2461.96666002246
  0
VERTEX
  8
1
 62
7
  6
CONTINUOUS
 10
-142.785858821076
 20
2458.22036135513
  0
VERTEX
  8
1
 62
7
  6
CONTINUOUS
 10
-155.487568334081
 20
2445.35019991652
  0
VERTEX
  8
1
 62
7
  6
CONTINUOUS
 10
-161.841806304116
 20
2445.33951640075
  0
VERTEX
  8
1
 62
7
  6
CONTINUOUS
 10
-161.79175587358
 20
2452.26339493299
  0
VERTEX
  8
1
 62
7
  6
CONTINUOUS
 10
-165.288397734375
 20
2462.11141588982
  0
VERTEX
  8
1
 62
7
  6
CONTINUOUS
 10
-209.828277767673
 20
2476.08982867425
  0
VERTEX
  8
1
 62
7
  6
CONTINUOUS
 10
-316.94999894939
 20
2535.01003563697
  0
VERTEX
  8
1
 62
7
  6
CONTINUOUS
 10
-327.749831965696
 20
2538.25000554215
  0
VERTEX
  8
1
 62
7
  6
CONTINUOUS
 10
-364.725746016803
 20
2541.25071930122
  0
VERTEX
  8
1
 62
7
  6
CONTINUOUS
 10
-408.909296916488
 20
2534.96610808062
  0
VERTEX
  8
1
 62
7
  6
CONTINUOUS
 10
-414.498812104666
 20
2526.37553011882
  0
VERTEX
  8
1
 62
7
  6
CONTINUOUS
 10
-417.481835410558
 20
2525.95978214678
  0
VERTEX
  8
1
 62
7
  6
CONTINUOUS
 10
-417.789488945103
 20
2534.2805493152
  0
VERTEX
  8
1
 62
7
  6
CONTINUOUS
 10
-434.78805403643
 20
2530.10972367437
  0
VERTEX
  8
1
 62
7
  6
CONTINUOUS
 10
-444.807175744614
 20
2540.27330599675
  0
VERTEX
  8
1
 62
7
  6
CONTINUOUS
 10
-469.799286245093
 20
2540.26468255338
  0
VERTEX
  8
1
 62
7
  6
CONTINUOUS
 10
-480.670645916749
 20
2547.53874875126
  0
VERTEX
  8
1
 62
7
  6
CONTINUOUS
 10
-482.567345121901
 20
2548.41073488571
  0
VERTEX
  8
1
 62
7
  6
CONTINUOUS
 10
-510.498952051612
 20
2551.18952147905
  0
VERTEX
  8
1
 62
7
  6
CONTINUOUS
 10
-524.860122654398
 20
2555.9680132839
  0
VERTEX
  8
1
 62
7
  6
CONTINUOUS
 10
-529.311200628406
 20
2546.26185779306
  0
VERTEX
  8
1
 62
7
  6
CONTINUOUS
 10
-541.679111476338
 20
2542.26102169878
  0
VERTEX
  8
1
 62
7
  6
CONTINUOUS
 10
-563.398483503073
 20
2542.32724257271
  0
VERTEX
  8
1
 62
7
  6
CONTINUOUS
 10
-567.929231586036
 20
2524.30428992805
  0
VERTEX
  8
1
 62
7
  6
CONTINUOUS
 10
-572.67150559427
 20
2524.16975177953
  0
VERTEX
  8
1
 62
7
  6
CONTINUOUS
 10
-572.811413212569
 20
2540.22464960515
  0
VERTEX
  8
1
 62
7
  6
CONTINUOUS
 10
-608.981954847412
 20
2537.13540189069
  0
VERTEX
  8
1
 62
7
  6
CONTINUOUS
 10
-611.739546353223
 20
2534.27056801881
  0
VERTEX
  8
1
 62
7
  6
CONTINUOUS
 10
-613.87847902237
 20
2521.54319330569
  0
VERTEX
  8
1
 62
7
  6
CONTINUOUS
 10
-598.585198975038
 20
2512.35657463965
  0
VERTEX
  8
1
 62
7
  6
CONTINUOUS
 10
-602.956735951452
 20
2508.21201454414
  0
VERTEX
  8
1
 62
7
  6
CONTINUOUS
 10
-623.063199617154
 20
2518.3672958041
  0
VERTEX
  8
1
 62
7
  6
CONTINUOUS
 10
-646.811713379174
 20
2498.60844731145
  0
VERTEX
  8
1
 62
7
  6
CONTINUOUS
 10
-651.560047291315
 20
2476.64496870536
  0
VERTEX
  8
1
 62
7
  6
CONTINUOUS
 10
-653.824999505206
 20
2479.42189130994
  0
VERTEX
  8
1
 62
7
  6
CONTINUOUS
 10
-653.81287850901
 20
2494.28960776907
  0
VERTEX
  8
1
 62
7
  6
CONTINUOUS
 10
-667.545309250773
 20
2487.97617810452
  0
VERTEX
  8
1
 62
7
  6
CONTINUOUS
 10
-691.11314682188
 20
2489.7787045624
  0
VERTEX
  8
1
 62
7
  6
CONTINUOUS
 10
-708.615255979673
 20
2467.2648510234
  0
VERTEX
  8
1
 62
7
  6
CONTINUOUS
 10
-727.601753972804
 20
2458.47048562347
  0
VERTEX
  8
1
 62
7
  6
CONTINUOUS
 10
-727.709475742887
 20
2456.30546992559
  0
VERTEX
  8
1
 62
7
  6
CONTINUOUS
 10
-743.136878453951
 20
2451.12763186383
  0
VERTEX
  8
1
 62
7
  6
CONTINUOUS
 10
-803.844950070737
 20
2446.16851564626
  0
VERTEX
  8
1
 62
7
  6
CONTINUOUS
 10
-803.940769649114
 20
2450.45161466785
  0
VERTEX
  8
1
 62
7
  6
CONTINUOUS
 10
-812.886121929065
 20
2451.37034745307
  0
VERTEX
  8
1
 62
7
  6
CONTINUOUS
 10
-813.24964822218
 20
2454.2450611426
  0
VERTEX
  8
1
 62
7
  6
CONTINUOUS
 10
-828.483817771879
 20
2457.65373611148
  0
VERTEX
  8
1
 62
7
  6
CONTINUOUS
 10
-828.690107462558
 20
2449.0827374882
  0
VERTEX
  8
1
 62
7
  6
CONTINUOUS
 10
-871.631133123772
 20
2462.52442596753
  0
VERTEX
  8
1
 62
7
  6
CONTINUOUS
 10
-869.667898799051
 20
2442.11498518591
  0
VERTEX
  8
1
 62
7
  6
CONTINUOUS
 10
-876.008709039588
 20
2442.3639686
  0
VERTEX
  8
1
 62
7
  6
CONTINUOUS
 10
-881.657035781685
 20
2468.30519970215
  0
VERTEX
  8
1
 62
7
  6
CONTINUOUS
 10
-891.746018210509
 20
2480.11642942692
  0
VERTEX
  8
1
 62
7
  6
CONTINUOUS
 10
-898.973330387399
 20
2480.43270089287
  0
VERTEX
  8
1
 62
7
  6
CONTINUOUS
 10
-899.384069290502
 20
2483.59919442656
  0
VERTEX
  8
1
 62
7
  6
CONTINUOUS
 10
-959.162978411211
 20
2563.01629265421
  0
VERTEX
  8
1
 62
7
  6
CONTINUOUS
 10
-972.736498129687
 20
2561.25277766779
  0
VERTEX
  8
1
 62
7
  6
CONTINUOUS
 10
-980.107809775473
 20
2558.89905391437
  0
VERTEX
  8
1
 62
7
  6
CONTINUOUS
 10
-984.792398270273
 20
2563.02234658342
  0
VERTEX
  8
1
 62
7
  6
CONTINUOUS
 10
-964.922959909147
 20
2573.46165185945
  0
VERTEX
  8
1
 62
7
  6
CONTINUOUS
 10
-974.860391179312
 20
2587.87792797364
  0
VERTEX
  8
1
 62
7
  6
CONTINUOUS
 10
-1002.65781773512
 20
2603.1216320195
  0
VERTEX
  8
1
 62
7
  6
CONTINUOUS
 10
-1002.86471060044
 20
2580.13149548656
  0
VERTEX
  8
1
 62
7
  6
CONTINUOUS
 10
-1006.58608499216
 20
2580.33756521889
  0
VERTEX
  8
1
 62
7
  6
CONTINUOUS
 10
-1008.76615665032
 20
2597.27118908139
  0
VERTEX
  8
1
 62
7
  6
CONTINUOUS
 10
-1015.82610345137
 20
2600.36209703383
  0
VERTEX
  8
1
 62
7
  6
CONTINUOUS
 10
-1015.82614353906
 20
2605.42437274913
  0
VERTEX
  8
1
 62
7
  6
CONTINUOUS
 10
-1031.87455382752
 20
2621.29967935228
  0
VERTEX
  8
1
 62
7
  6
CONTINUOUS
 10
-1038.75486920779
 20
2621.25082455339
  0
VERTEX
  8
1
 62
7
  6
CONTINUOUS
 10
-1052.9302148128
 20
2626.01599047177
  0
VERTEX
  8
1
 62
7
  6
CONTINUOUS
 10
-1064.66647091142
 20
2614.28376616388
  0
VERTEX
  8
1
 62
7
  6
CONTINUOUS
 10
-1075.45706698885
 20
2614.19146413685
  0
VERTEX
  8
1
 62
7
  6
CONTINUOUS
 10
-1078.09873071138
 20
2647.36411355445
  0
VERTEX
  8
1
 62
7
  6
CONTINUOUS
 10
-1155.71495324458
 20
2702.22019866043
  0
VERTEX
  8
1
 62
7
  6
CONTINUOUS
 10
-1172.93146188981
 20
2719.1226496711
  0
VERTEX
  8
1
 62
7
  6
CONTINUOUS
 10
-1178.21793653256
 20
2718.06957896556
  0
VERTEX
  8
1
 62
7
  6
CONTINUOUS
 10
-1190.60885465024
 20
2711.28921615357
  0
VERTEX
  8
1
 62
7
  6
CONTINUOUS
 10
-1203.67960640401
 20
2710.300825503
  0
VERTEX
  8
1
 62
7
  6
CONTINUOUS
 10
-1209.38573552683
 20
2696.12406344844
  0
VERTEX
  8
1
 62
7
  6
CONTINUOUS
 10
-1222.62069556291
 20
2691.42634153997
  0
VERTEX
  8
1
 62
7
  6
CONTINUOUS
 10
-1222.80734754353
 20
2681.19176604516
  0
VERTEX
  8
1
 62
7
  6
CONTINUOUS
 10
-1227.30604852293
 20
2681.36217288111
  0
VERTEX
  8
1
 62
7
  6
CONTINUOUS
 10
-1232.59560567787
 20
2689.41654103355
  0
VERTEX
  8
1
 62
7
  6
CONTINUOUS
 10
-1243.11448997951
 20
2690.73443033645
  0
VERTEX
  8
1
 62
7
  6
CONTINUOUS
 10
-1260.39822445341
 20
2683.788999001
  0
VERTEX
  8
1
 62
7
  6
CONTINUOUS
 10
-1278.74255131401
 20
2670.71248331534
  0
VERTEX
  8
1
 62
7
  6
CONTINUOUS
 10
-1295.62829359765
 20
2645.65793373471
  0
VERTEX
  8
1
 62
7
  6
CONTINUOUS
 10
-1279.33548535445
 20
2634.5205045209
  0
VERTEX
  8
1
 62
7
  6
CONTINUOUS
 10
-1283.59024913501
 20
2630.5520562354
  0
VERTEX
  8
1
 62
7
  6
CONTINUOUS
 10
-1300.78272876192
 20
2639.24462030092
  0
VERTEX
  8
1
 62
7
  6
CONTINUOUS
 10
-1309.77384748072
 20
2630.11919818608
  0
VERTEX
  8
1
 62
7
  6
CONTINUOUS
 10
-1301.73026770371
 20
2611.15681664539
  0
VERTEX
  8
1
 62
7
  6
CONTINUOUS
 10
-1301.75130622426
 20
2594.2445748274
  0
VERTEX
  8
1
 62
7
  6
CONTINUOUS
 10
-1314.73302623493
 20
2568.27909570436
  0
VERTEX
  8
1
 62
7
  6
CONTINUOUS
 10
-1337.03924245436
 20
2534.75877374778
  0
VERTEX
  8
1
 62
7
  6
CONTINUOUS
 10
-1330.74855509388
 20
2522.24385008548
  0
VERTEX
  8
1
 62
7
  6
CONTINUOUS
 10
-1330.52960266976
 20
2511.07709322888
  0
VERTEX
  8
1
 62
7
  6
CONTINUOUS
 10
-1330.98847177316
 20
2510.86859612351
  0
VERTEX
  8
1
 62
7
  6
CONTINUOUS
 10
-1328.12873677423
 20
2503.7451139718
  0
VERTEX
  8
1
 62
7
  6
CONTINUOUS
 10
-1335.33717332427
 20
2501.26319581817
  0
VERTEX
  8
1
 62
7
  6
CONTINUOUS
 10
-1334.51982464562
 20
2498.18402572078
  0
VERTEX
  8
1
 62
7
  6
CONTINUOUS
 10
-1340.41370183633
 20
2492.42398245634
  0
VERTEX
  8
1
 62
7
  6
CONTINUOUS
 10
-1349.54330784172
 20
2490.24606664377
  0
VERTEX
  8
1
 62
7
  6
CONTINUOUS
 10
-1343.6865104382
 20
2467.07409722755
  0
VERTEX
  8
1
 62
7
  6
CONTINUOUS
 10
-1334.71800865303
 20
2445.88326334862
  0
VERTEX
  8
1
 62
7
  6
CONTINUOUS
 10
-1327.80567683805
 20
2434.2851902879
  0
VERTEX
  8
1
 62
7
  6
CONTINUOUS
 10
-1310.65767623961
 20
2432.80801240717
  0
VERTEX
  8
1
 62
7
  6
CONTINUOUS
 10
-1282.77447549042
 20
2413.27068829779
  0
VERTEX
  8
1
 62
7
  6
CONTINUOUS
 10
-1273.23528189961
 20
2403.98008276478
  0
VERTEX
  8
1
 62
7
  6
CONTINUOUS
 10
-1272.85981088039
 20
2399.96035613035
  0
VERTEX
  8
1
 62
7
  6
CONTINUOUS
 10
-1258.69718222113
 20
2397.49256776277
  0
VERTEX
  8
1
 62
7
  6
CONTINUOUS
 10
-1261.29432406722
 20
2401.65517520409
  0
VERTEX
  8
1
 62
7
  6
CONTINUOUS
 10
-1255.15527267786
 20
2401.11922982114
  0
VERTEX
  8
1
 62
7
  6
CONTINUOUS
 10
-1257.92318457221
 20
2406.48883147071
  0
VERTEX
  8
1
 62
7
  6
CONTINUOUS
 10
-1262.88377628659
 20
2406.47231035207
  0
VERTEX
  8
1
 62
7
  6
CONTINUOUS
 10
-1263.84796536915
 20
2407.42657248053
  0
VERTEX
  8
1
 62
7
  6
CONTINUOUS
 10
-1264.758174147
 20
2411.44336495232
  0
VERTEX
  8
1
 62
7
  6
CONTINUOUS
 10
-1243.62626952014
 20
2407.18600947836
  0
VERTEX
  8
1
 62
7
  6
CONTINUOUS
 10
-1220.7399196149
 20
2384.22583503304
  0
VERTEX
  8
1
 62
7
  6
CONTINUOUS
 10
-1220.74663237627
 20
2363.2252241009
  0
VERTEX
  8
1
 62
7
  6
CONTINUOUS
 10
-1218.03846597793
 20
2353.30325203453
  0
VERTEX
  8
1
 62
7
  6
CONTINUOUS
 10
-1209.74592216196
 20
2342.24250763136
  0
VERTEX
  8
1
 62
7
  6
CONTINUOUS
 10
-1196.95551072936
 20
2307.40726038947
  0
VERTEX
  8
1
 62
7
  6
CONTINUOUS
 10
-1193.22875076073
 20
2285.27497317563
  0
VERTEX
  8
1
 62
7
  6
CONTINUOUS
 10
-1199.00488731193
 20
2284.97530453784
  0
VERTEX
  8
1
 62
7
  6
CONTINUOUS
 10
-1198.80128100053
 20
2269.00576694117
  0
VERTEX
  8
1
 62
7
  6
CONTINUOUS
 10
-1210.71886940523
 20
2245.29277202683
  0
VERTEX
  8
1
 62
7
  6
CONTINUOUS
 10
-1217.87696412134
 20
2238.12098041465
  0
VERTEX
  8
1
 62
7
  6
CONTINUOUS
 10
-1218.7763944302
 20
2230.16475186674
  0
VERTEX
  8
1
 62
7
  6
CONTINUOUS
 10
-1222.09444262877
 20
2224.22463028863
  0
VERTEX
  8
1
 62
7
  6
CONTINUOUS
 10
-1227.606988366
 20
2207.67903649579
  0
VERTEX
  8
1
 62
7
  6
CONTINUOUS
 10
-1244.8288169712
 20
2171.08234508905
  0
VERTEX
  8
1
 62
7
  6
CONTINUOUS
 10
-1279.07970418126
 20
2131.56167721416
  0
VERTEX
  8
1
 62
7
  6
CONTINUOUS
 10
-1288.75033570552
 20
2116.249592829
  0
VERTEX
  8
1
 62
7
  6
CONTINUOUS
 10
-1297.75029920679
 20
2105.24964156524
  0
VERTEX
  8
1
 62
7
  6
CONTINUOUS
 10
-1307.42802067241
 20
2089.75155690527
  0
VERTEX
  8
1
 62
7
  6
CONTINUOUS
 10
-1311.73946591028
 20
2082.05691337363
  0
VERTEX
  8
1
 62
7
  6
CONTINUOUS
 10
-1294.80040281775
 20
2070.40506339423
  0
VERTEX
  8
1
 62
7
  6
CONTINUOUS
 10
-1297.24149338629
 20
2062.94566773603
  0
VERTEX
  8
1
 62
7
  6
CONTINUOUS
 10
-1309.68750065829
 20
2073.22363644165
  0
VERTEX
  8
1
 62
7
  6
CONTINUOUS
 10
-1318.4585928518
 20
2074.28088643832
  0
VERTEX
  8
1
 62
7
  6
CONTINUOUS
 10
-1343.91817775129
 20
2027.27221782616
  0
VERTEX
  8
1
 62
7
  6
CONTINUOUS
 10
-1340.43024165293
 20
2015.59428286481
  0
VERTEX
  8
1
 62
7
  6
CONTINUOUS
 10
-1321.75037542463
 20
1978.25084531007
  0
VERTEX
  8
1
 62
7
  6
CONTINUOUS
 10
-1314.41812940651
 20
1958.69746672367
  0
VERTEX
  8
1
 62
7
  6
CONTINUOUS
 10
-1297.29556057586
 20
1930.1593193809
  0
VERTEX
  8
1
 62
7
  6
CONTINUOUS
 10
-1290.74789023388
 20
1907.24479968763
  0
VERTEX
  8
1
 62
7
  6
CONTINUOUS
 10
-1283.74735915857
 20
1894.24560563026
  0
VERTEX
  8
1
 62
7
  6
CONTINUOUS
 10
-1281.32755294491
 20
1890.61605683216
  0
VERTEX
  8
1
 62
7
  6
CONTINUOUS
 10
-1285.89878391875
 20
1893.11627338285
  0
VERTEX
  8
1
 62
7
  6
CONTINUOUS
 10
-1287.10930896186
 20
1880.84165525732
  0
VERTEX
  8
1
 62
7
  6
CONTINUOUS
 10
-1279.06512320218
 20
1887.22256230057
  0
VERTEX
  8
1
 62
7
  6
CONTINUOUS
 10
-1281.32755294491
 20
1890.61605683216
  0
VERTEX
  8
1
 62
7
  6
CONTINUOUS
 10
-1281.12136368367
 20
1890.50328243803
  0
VERTEX
  8
1
 62
7
  6
CONTINUOUS
 10
-1278.46455907192
 20
1887.69894909759
  0
VERTEX
  8
1
 62
7
  6
CONTINUOUS
 10
-1279.06512320218
 20
1887.22256230057
  0
VERTEX
  8
1
 62
7
  6
CONTINUOUS
 10
-1277.74958422299
 20
1885.24934110054
  0
VERTEX
  8
1
 62
7
  6
CONTINUOUS
 10
-1265.75328719932
 20
1865.25592303151
  0
VERTEX
  8
1
 62
7
  6
CONTINUOUS
 10
-1242.77606316953
 20
1820.45905651402
  0
VERTEX
  8
1
 62
7
  6
CONTINUOUS
 10
-1242.76217058895
 20
1809.84522498072
  0
VERTEX
  8
1
 62
7
  6
CONTINUOUS
 10
-1230.21385435805
 20
1800.90204115399
  0
VERTEX
  8
1
 62
7
  6
CONTINUOUS
 10
-1226.41125748984
 20
1795.94248818322
  0
VERTEX
  8
1
 62
7
  6
CONTINUOUS
 10
-1234.71962987889
 20
1788.40196308811
  0
VERTEX
  8
1
 62
7
  6
CONTINUOUS
 10
-1228.06375080242
 20
1781.23061201459
  0
VERTEX
  8
1
 62
7
  6
CONTINUOUS
 10
-1220.34491710035
 20
1787.71725046423
  0
VERTEX
  8
1
 62
7
  6
CONTINUOUS
 10
-1221.75299894315
 20
1790.56986467965
  0
VERTEX
  8
1
 62
7
  6
CONTINUOUS
 10
-1216.59116284368
 20
1794.05417037518
  0
VERTEX
  8
1
 62
7
  6
CONTINUOUS
 10
-1215.38252591767
 20
1791.88747082266
  0
VERTEX
  8
1
 62
7
  6
CONTINUOUS
 10
-1220.34491710035
 20
1787.71725046423
  0
VERTEX
  8
1
 62
7
  6
CONTINUOUS
 10
-1211.6689408173
 20
1770.14070588745
  0
VERTEX
  8
1
 62
7
  6
CONTINUOUS
 10
-1198.82481390541
 20
1757.44165761935
  0
VERTEX
  8
1
 62
7
  6
CONTINUOUS
 10
-1198.74116124813
 20
1739.24119149705
  0
VERTEX
  8
1
 62
7
  6
CONTINUOUS
 10
-1189.82258291681
 20
1739.13257245047
  0
VERTEX
  8
1
 62
7
  6
CONTINUOUS
 10
-1169.06835976401
 20
1683.44145133287
  0
VERTEX
  8
1
 62
7
  6
CONTINUOUS
 10
-1144.72561710212
 20
1642.8935002151
  0
VERTEX
  8
1
 62
7
  6
CONTINUOUS
 10
-1139.54026498178
 20
1624.30251496176
  0
VERTEX
  8
1
 62
7
  6
CONTINUOUS
 10
-1139.64391183897
 20
1621.8134454182
  0
VERTEX
  8
1
 62
7
  6
CONTINUOUS
 10
-1134.65526933076
 20
1616.64192264794
  0
VERTEX
  8
1
 62
7
  6
CONTINUOUS
 10
-1135.28041962346
 20
1609.54857306185
  0
VERTEX
  8
1
 62
7
  6
CONTINUOUS
 10
-1126.95402547181
 20
1607.31738200904
  0
VERTEX
  8
1
 62
7
  6
CONTINUOUS
 10
-1130.65464843267
 20
1614.93856441293
  0
VERTEX
  8
1
 62
7
  6
CONTINUOUS
 10
-1129.59187401206
 20
1625.31716766954
  0
VERTEX
  8
1
 62
7
  6
CONTINUOUS
 10
-1129.80651176722
 20
1640.19441849165
  0
VERTEX
  8
1
 62
7
  6
CONTINUOUS
 10
-1124.91960114429
 20
1640.18853799338
  0
VERTEX
  8
1
 62
7
  6
CONTINUOUS
 10
-1117.23444876939
 20
1609.10970569933
  0
VERTEX
  8
1
 62
7
  6
CONTINUOUS
 10
-1096.65798229477
 20
1606.83474942947
  0
VERTEX
  8
1
 62
7
  6
CONTINUOUS
 10
-1096.7066335532
 20
1593.07969722404
  0
VERTEX
  8
1
 62
7
  6
CONTINUOUS
 10
-1084.05739693024
 20
1567.8637579411
  0
VERTEX
  8
1
 62
7
  6
CONTINUOUS
 10
-1086.56038113257
 20
1540.36038424685
  0
VERTEX
  8
1
 62
7
  6
CONTINUOUS
 10
-1105.72647093788
 20
1506.28081798779
  0
VERTEX
  8
1
 62
7
  6
CONTINUOUS
 10
-1113.22452334477
 20
1498.79705087651
  0
VERTEX
  8
1
 62
7
  6
CONTINUOUS
 10
-1116.78254787243
 20
1481.19511272985
  0
VERTEX
  8
1
 62
7
  6
CONTINUOUS
 10
-1123.04644220376
 20
1476.09122303299
  0
VERTEX
  8
1
 62
7
  6
CONTINUOUS
 10
-1146.20357099642
 20
1451.15218970693
  0
VERTEX
  8
1
 62
7
  6
CONTINUOUS
 10
-1165.47508168091
 20
1419.17679763059
  0
VERTEX
  8
1
 62
7
  6
CONTINUOUS
 10
-1170.88589400889
 20
1419.21276156973
  0
VERTEX
  8
1
 62
7
  6
CONTINUOUS
 10
-1179.0483156991
 20
1414.90691177929
  0
VERTEX
  8
1
 62
7
  6
CONTINUOUS
 10
-1184.24059767768
 20
1405.16779605904
  0
VERTEX
  8
1
 62
7
  6
CONTINUOUS
 10
-1175.48747368338
 20
1404.24693264806
  0
VERTEX
  8
1
 62
7
  6
CONTINUOUS
 10
-1201.08890180635
 20
1365.00210890446
  0
VERTEX
  8
1
 62
7
  6
CONTINUOUS
 10
-1222.29191114039
 20
1337.32100114694
  0
VERTEX
  8
1
 62
7
  6
CONTINUOUS
 10
-1227.22633564648
 20
1337.26456604756
  0
VERTEX
  8
1
 62
7
  6
CONTINUOUS
 10
-1232.22279528583
 20
1327.40759224872
  0
VERTEX
  8
1
 62
7
  6
CONTINUOUS
 10
-1237.0045593739
 20
1325.52788177645
  0
VERTEX
  8
1
 62
7
  6
CONTINUOUS
 10
-1248.89967855802
 20
1305.66898943581
  0
VERTEX
  8
1
 62
7
  6
CONTINUOUS
 10
-1270.29936150895
 20
1279.91068353781
  0
VERTEX
  8
1
 62
7
  6
CONTINUOUS
 10
-1280.02984585019
 20
1277.44110195772
  0
VERTEX
  8
1
 62
7
  6
CONTINUOUS
 10
-1283.18753846549
 20
1263.40514084087
  0
VERTEX
  8
1
 62
7
  6
CONTINUOUS
 10
-1321.7496836658
 20
1215.25039382869
  0
VERTEX
  8
1
 62
7
  6
CONTINUOUS
 10
-1330.08374889542
 20
1206.91618746424
  0
VERTEX
  8
1
 62
7
  6
CONTINUOUS
 10
-1336.75338893232
 20
1196.24502002477
  0
VERTEX
  8
1
 62
7
  6
CONTINUOUS
 10
-1392.72282822149
 20
1119.28795897386
  0
SEQEND
  0
ENDSEC
  0
EOF
