  0
SECTION
  2
HEADER
  0
ENDSEC
  0
SECTION
  2
TABLES
  0
ENDSEC
  0
SECTION
  2
BLOCKS
  0
ENDSEC
  0
SECTION
  2
ENTITIES
  0
TEXT
  1
MARK_1
  8
72
 10
-2461.75003697553
 20
2037.25003060018
 11
-2461.75003697553
 21
2037.25003060018
 62
3
 40
50.0000007509247
 50
90
 72
0
 73
1
  0
TEXT
  1
MARK_2
  8
72
 10
-2503.75003760631
 20
1486.25002232499
 11
-2503.75003760631
 21
1486.25002232499
 62
3
 40
50.0000007509247
 50
90
 72
0
 73
1
  0
POLYLINE
  8
51
 62
7
 66
1
 70
1
  0
VERTEX
  8
51
 62
7
  6
CONTINUOUS
 10
-2529.9459519846
 20
751.29370143335
  0
VERTEX
  8
51
 62
7
  6
CONTINUOUS
 10
-2529.9459519846
 20
748.887595855236
  0
VERTEX
  8
51
 62
7
  6
CONTINUOUS
 10
-2525.9459519846
 20
748.887595855236
  0
VERTEX
  8
51
 62
7
  6
CONTINUOUS
 10
-2525.9459519846
 20
750.006141645245
  0
VERTEX
  8
51
 62
7
  6
CONTINUOUS
 10
-1601.10050936929
 20
2037.74331983913
  0
VERTEX
  8
51
 62
7
  6
CONTINUOUS
 10
-1600.72496785233
 20
2038.26621669418
  0
VERTEX
  8
51
 62
7
  6
CONTINUOUS
 10
-1600.72496785233
 20
2040.6723222723
  0
VERTEX
  8
51
 62
7
  6
CONTINUOUS
 10
-1604.72496785233
 20
2040.6723222723
  0
VERTEX
  8
51
 62
7
  6
CONTINUOUS
 10
-1604.72496785233
 20
2039.55377648229
  0
VERTEX
  8
51
 62
7
  6
CONTINUOUS
 10
-2529.57041046764
 20
751.816598288399
  0
SEQEND
  0
POLYLINE
  8
51
 62
7
 66
1
 70
1
  0
VERTEX
  8
51
 62
7
  6
CONTINUOUS
 10
-2307.3059013818
 20
1730.72614453702
  0
VERTEX
  8
51
 62
7
  6
CONTINUOUS
 10
-2307.3059013818
 20
1728.98966276035
  0
VERTEX
  8
51
 62
7
  6
CONTINUOUS
 10
-2306.71198963566
 20
1727.35790364868
  0
VERTEX
  8
51
 62
7
  6
CONTINUOUS
 10
-2305.59580066517
 20
1726.02768143309
  0
VERTEX
  8
51
 62
7
  6
CONTINUOUS
 10
-2304.09196333337
 20
1725.15944054475
  0
VERTEX
  8
51
 62
7
  6
CONTINUOUS
 10
-2302.38186261674
 20
1724.85790364868
  0
VERTEX
  8
51
 62
7
  6
CONTINUOUS
 10
-2300.67176190011
 20
1725.15944054475
  0
VERTEX
  8
51
 62
7
  6
CONTINUOUS
 10
-2299.16792456831
 20
1726.02768143309
  0
VERTEX
  8
51
 62
7
  6
CONTINUOUS
 10
-2298.05173559782
 20
1727.35790364868
  0
VERTEX
  8
51
 62
7
  6
CONTINUOUS
 10
-2297.45782385168
 20
1728.98966276035
  0
VERTEX
  8
51
 62
7
  6
CONTINUOUS
 10
-2297.45782385168
 20
1730.72614453702
  0
VERTEX
  8
51
 62
7
  6
CONTINUOUS
 10
-2298.05173559782
 20
1732.35790364868
  0
VERTEX
  8
51
 62
7
  6
CONTINUOUS
 10
-2299.16792456831
 20
1733.68812586428
  0
VERTEX
  8
51
 62
7
  6
CONTINUOUS
 10
-2300.67176190011
 20
1734.55636675261
  0
VERTEX
  8
51
 62
7
  6
CONTINUOUS
 10
-2302.38186261674
 20
1734.85790364868
  0
VERTEX
  8
51
 62
7
  6
CONTINUOUS
 10
-2304.09196333337
 20
1734.55636675261
  0
VERTEX
  8
51
 62
7
  6
CONTINUOUS
 10
-2305.59580066517
 20
1733.68812586428
  0
VERTEX
  8
51
 62
7
  6
CONTINUOUS
 10
-2306.71198963566
 20
1732.35790364868
  0
SEQEND
  0
POLYLINE
  8
52
 62
7
 66
1
 70
1
  0
VERTEX
  8
52
 62
7
  6
CONTINUOUS
 10
-2627.26558389519
 20
2272.12503411451
  0
VERTEX
  8
52
 62
7
  6
CONTINUOUS
 10
-2627.26558389519
 20
2270.37503411451
  0
VERTEX
  8
52
 62
7
  6
CONTINUOUS
 10
-2625.75003943857
 20
2269.50003411451
  0
VERTEX
  8
52
 62
7
  6
CONTINUOUS
 10
-2624.23449498194
 20
2270.37503411451
  0
VERTEX
  8
52
 62
7
  6
CONTINUOUS
 10
-2624.23449498194
 20
2272.12503411451
  0
VERTEX
  8
52
 62
7
  6
CONTINUOUS
 10
-2625.75003943857
 20
2273.00003411451
  0
SEQEND
  0
POLYLINE
  8
52
 62
7
 66
1
 70
1
  0
VERTEX
  8
52
 62
7
  6
CONTINUOUS
 10
-2884.16425686069
 20
2273.6642476919
  0
VERTEX
  8
52
 62
7
  6
CONTINUOUS
 10
-2881.33582973594
 20
2270.83582056715
  0
VERTEX
  8
52
 62
7
  6
CONTINUOUS
 10
-2874.33582963082
 20
2277.83582067228
  0
VERTEX
  8
52
 62
7
  6
CONTINUOUS
 10
-2877.16425675556
 20
2280.66424779703
  0
SEQEND
  0
POLYLINE
  8
52
 62
7
 66
1
 70
1
  0
VERTEX
  8
52
 62
7
  6
CONTINUOUS
 10
-2801.8925361818
 20
1484.24493966458
  0
VERTEX
  8
52
 62
7
  6
CONTINUOUS
 10
-2801.60754798184
 20
1480.25510486526
  0
VERTEX
  8
52
 62
7
  6
CONTINUOUS
 10
-2787.60754777158
 20
1481.25510488027
  0
VERTEX
  8
52
 62
7
  6
CONTINUOUS
 10
-2787.89253597154
 20
1485.2449396796
  0
SEQEND
  0
POLYLINE
  8
52
 62
7
 66
1
 70
1
  0
VERTEX
  8
52
 62
7
  6
CONTINUOUS
 10
-2773.90343465907
 20
1487.24413128098
  0
VERTEX
  8
52
 62
7
  6
CONTINUOUS
 10
-2773.59664866353
 20
1483.25591333897
  0
VERTEX
  8
52
 62
7
  6
CONTINUOUS
 10
-2760.59664846829
 20
1484.25591335399
  0
VERTEX
  8
52
 62
7
  6
CONTINUOUS
 10
-2760.90343446383
 20
1488.24413129599
  0
SEQEND
  0
POLYLINE
  8
52
 62
7
 66
1
 70
1
  0
VERTEX
  8
52
 62
7
  6
CONTINUOUS
 10
-2753.81802732869
 20
1525.55904513469
  0
VERTEX
  8
52
 62
7
  6
CONTINUOUS
 10
-2734.81802704334
 20
1513.55904495447
  0
VERTEX
  8
52
 62
7
  6
CONTINUOUS
 10
-2732.68205507779
 20
1516.94100056659
  0
VERTEX
  8
52
 62
7
  6
CONTINUOUS
 10
-2751.68205536314
 20
1528.94100074681
  0
SEQEND
  0
POLYLINE
  8
52
 62
7
 66
1
 70
1
  0
VERTEX
  8
52
 62
7
  6
CONTINUOUS
 10
-2740.75004116569
 20
1486.25002229495
  0
VERTEX
  8
52
 62
7
  6
CONTINUOUS
 10
-2740.75004116569
 20
1482.25002229495
  0
VERTEX
  8
52
 62
7
  6
CONTINUOUS
 10
-2723.75004091038
 20
1482.25002229495
  0
VERTEX
  8
52
 62
7
  6
CONTINUOUS
 10
-2723.75004091038
 20
1486.25002229495
  0
SEQEND
  0
POLYLINE
  8
52
 62
7
 66
1
 70
1
  0
VERTEX
  8
52
 62
7
  6
CONTINUOUS
 10
-2731.57764690411
 20
1461.42928902464
  0
VERTEX
  8
52
 62
7
  6
CONTINUOUS
 10
-2720.57764673891
 20
1456.42928894955
  0
VERTEX
  8
52
 62
7
  6
CONTINUOUS
 10
-2718.9224349617
 20
1460.0707548594
  0
VERTEX
  8
52
 62
7
  6
CONTINUOUS
 10
-2729.9224351269
 20
1465.07075493449
  0
SEQEND
  0
POLYLINE
  8
52
 62
7
 66
1
 70
1
  0
VERTEX
  8
52
 62
7
  6
CONTINUOUS
 10
-2605.38249465521
 20
1438.35265503804
  0
VERTEX
  8
52
 62
7
  6
CONTINUOUS
 10
-2587.63658608344
 20
1432.43735218078
  0
VERTEX
  8
52
 62
7
  6
CONTINUOUS
 10
-2581.85943915518
 20
1428.58592089528
  0
VERTEX
  8
52
 62
7
  6
CONTINUOUS
 10
-2579.64063837028
 20
1431.91412207263
  0
VERTEX
  8
52
 62
7
  6
CONTINUOUS
 10
-2585.86349162225
 20
1436.06269090728
  0
VERTEX
  8
52
 62
7
  6
CONTINUOUS
 10
-2604.11758359114
 20
1442.14738823024
  0
SEQEND
  0
POLYLINE
  8
52
 62
7
 66
1
 70
1
  0
VERTEX
  8
52
 62
7
  6
CONTINUOUS
 10
-2577.03288141513
 20
1466.27012306734
  0
VERTEX
  8
52
 62
7
  6
CONTINUOUS
 10
-2570.35417468504
 20
1465.31602210589
  0
VERTEX
  8
52
 62
7
  6
CONTINUOUS
 10
-2558.9347567118
 20
1459.60631311928
  0
VERTEX
  8
52
 62
7
  6
CONTINUOUS
 10
-2556.16425193463
 20
1456.8358083421
  0
VERTEX
  8
52
 62
7
  6
CONTINUOUS
 10
-2553.33582480988
 20
1459.66423546685
  0
VERTEX
  8
52
 62
7
  6
CONTINUOUS
 10
-2556.56532012281
 20
1462.89373077978
  0
VERTEX
  8
52
 62
7
  6
CONTINUOUS
 10
-2569.14590251002
 20
1469.18402197339
  0
VERTEX
  8
52
 62
7
  6
CONTINUOUS
 10
-2576.46719599018
 20
1470.22992104198
  0
SEQEND
  0
POLYLINE
  8
52
 62
7
 66
1
 70
1
  0
VERTEX
  8
52
 62
7
  6
CONTINUOUS
 10
-2571.75003862757
 20
1428.25002142388
  0
VERTEX
  8
52
 62
7
  6
CONTINUOUS
 10
-2571.75003862757
 20
1424.25002142388
  0
VERTEX
  8
52
 62
7
  6
CONTINUOUS
 10
-2569.29465516717
 20
1424.25002142388
  0
VERTEX
  8
52
 62
7
  6
CONTINUOUS
 10
-2552.76407858032
 20
1414.52615284338
  0
VERTEX
  8
52
 62
7
  6
CONTINUOUS
 10
-2550.73599807407
 20
1417.97388970401
  0
VERTEX
  8
52
 62
7
  6
CONTINUOUS
 10
-2568.20542199785
 20
1428.25002142388
  0
SEQEND
  0
POLYLINE
  8
52
 62
7
 66
1
 70
1
  0
VERTEX
  8
52
 62
7
  6
CONTINUOUS
 10
-2474.71119849212
 20
1418.64225357401
  0
VERTEX
  8
52
 62
7
  6
CONTINUOUS
 10
-2470.78887578935
 20
1417.85778903346
  0
VERTEX
  8
52
 62
7
  6
CONTINUOUS
 10
-2467.84140273829
 20
1432.5951542888
  0
VERTEX
  8
52
 62
7
  6
CONTINUOUS
 10
-2464.96118266862
 20
1438.35559442812
  0
VERTEX
  8
52
 62
7
  6
CONTINUOUS
 10
-2468.53889143262
 20
1440.14444881012
  0
VERTEX
  8
52
 62
7
  6
CONTINUOUS
 10
-2471.65867145308
 20
1433.90488876922
  0
SEQEND
  0
POLYLINE
  8
52
 62
7
 66
1
 70
1
  0
VERTEX
  8
52
 62
7
  6
CONTINUOUS
 10
-2616.45228617156
 20
1480.37736390978
  0
VERTEX
  8
52
 62
7
  6
CONTINUOUS
 10
-2592.45228581111
 20
1471.37736377461
  0
VERTEX
  8
52
 62
7
  6
CONTINUOUS
 10
-2591.04779204476
 20
1475.12268048489
  0
VERTEX
  8
52
 62
7
  6
CONTINUOUS
 10
-2615.0477924052
 20
1484.12268062006
  0
SEQEND
  0
POLYLINE
  8
52
 62
7
 66
1
 70
1
  0
VERTEX
  8
52
 62
7
  6
CONTINUOUS
 10
-2356.75003539859
 20
2125.25003192181
  0
VERTEX
  8
52
 62
7
  6
CONTINUOUS
 10
-2351.7500353235
 20
2111.25003171155
  0
VERTEX
  8
52
 62
7
  6
CONTINUOUS
 10
-2339.75003514327
 20
2097.25003150129
  0
VERTEX
  8
52
 62
7
  6
CONTINUOUS
 10
-2329.75003499309
 20
2090.25003139616
  0
VERTEX
  8
52
 62
7
  6
CONTINUOUS
 10
-2312.75003473778
 20
2083.25003129103
  0
VERTEX
  8
52
 62
7
  6
CONTINUOUS
 10
-2291.75003442239
 20
2079.25003123096
  0
VERTEX
  8
52
 62
7
  6
CONTINUOUS
 10
-2279.75003424217
 20
2075.25003117088
  0
VERTEX
  8
52
 62
7
  6
CONTINUOUS
 10
-2268.75003407696
 20
2068.25003106576
  0
VERTEX
  8
52
 62
7
  6
CONTINUOUS
 10
-2265.75003403191
 20
2068.25003106576
  0
VERTEX
  8
52
 62
7
  6
CONTINUOUS
 10
-2263.75003400187
 20
2063.25003099066
  0
VERTEX
  8
52
 62
7
  6
CONTINUOUS
 10
-2260.75003395682
 20
2063.25003099066
  0
VERTEX
  8
52
 62
7
  6
CONTINUOUS
 10
-2248.75003377659
 20
2054.2500308555
  0
VERTEX
  8
52
 62
7
  6
CONTINUOUS
 10
-2235.75003358135
 20
2049.2500307804
  0
VERTEX
  8
52
 62
7
  6
CONTINUOUS
 10
-2221.75003337109
 20
2049.2500307804
  0
VERTEX
  8
52
 62
7
  6
CONTINUOUS
 10
-2211.75003322091
 20
2051.25003081044
  0
VERTEX
  8
52
 62
7
  6
CONTINUOUS
 10
-2188.75003287548
 20
2062.25003097564
  0
VERTEX
  8
52
 62
7
  6
CONTINUOUS
 10
-2174.75003266522
 20
2075.25003117088
  0
VERTEX
  8
52
 62
7
  6
CONTINUOUS
 10
-2165.75003253006
 20
2091.25003141118
  0
VERTEX
  8
52
 62
7
  6
CONTINUOUS
 10
-2160.75003245497
 20
2110.25003169653
  0
VERTEX
  8
52
 62
7
  6
CONTINUOUS
 10
-2160.75003245497
 20
2125.25003192181
  0
VERTEX
  8
52
 62
7
  6
CONTINUOUS
 10
-2162.750032485
 20
2139.25003213207
  0
VERTEX
  8
52
 62
7
  6
CONTINUOUS
 10
-2171.75003262017
 20
2162.25003247749
  0
VERTEX
  8
52
 62
7
  6
CONTINUOUS
 10
-2179.75003274032
 20
2173.2500326427
  0
VERTEX
  8
52
 62
7
  6
CONTINUOUS
 10
-2184.75003281541
 20
2177.25003270277
  0
VERTEX
  8
52
 62
7
  6
CONTINUOUS
 10
-2331.75003502313
 20
2214.25003325846
  0
VERTEX
  8
52
 62
7
  6
CONTINUOUS
 10
-2349.75003529346
 20
2201.25003306321
  0
VERTEX
  8
52
 62
7
  6
CONTINUOUS
 10
-2352.75003533852
 20
2193.25003294307
  0
VERTEX
  8
52
 62
7
  6
CONTINUOUS
 10
-2350.75003530848
 20
2175.25003267273
  0
VERTEX
  8
52
 62
7
  6
CONTINUOUS
 10
-2347.75003526342
 20
2164.25003250753
  0
VERTEX
  8
52
 62
7
  6
CONTINUOUS
 10
-2347.75003526342
 20
2150.25003229727
  0
VERTEX
  8
52
 62
7
  6
CONTINUOUS
 10
-2355.75003538357
 20
2134.25003205698
  0
SEQEND
  0
POLYLINE
  8
52
 62
7
 66
1
 70
1
  0
VERTEX
  8
52
 62
7
  6
CONTINUOUS
 10
-2168.58234721488
 20
2235.05167122686
  0
VERTEX
  8
52
 62
7
  6
CONTINUOUS
 10
-2164.91771787527
 20
2233.44839589079
  0
VERTEX
  8
52
 62
7
  6
CONTINUOUS
 10
-2157.91771777014
 20
2249.44839613108
  0
VERTEX
  8
52
 62
7
  6
CONTINUOUS
 10
-2161.58234710975
 20
2251.05167146716
  0
SEQEND
  0
POLYLINE
  8
53
 62
7
 66
1
 70
1
  0
VERTEX
  8
53
 62
7
  6
CONTINUOUS
 10
-2609.81221693465
 20
1032.75001546154
  0
VERTEX
  8
53
 62
7
  6
CONTINUOUS
 10
-2609.81221693465
 20
1025.75001546154
  0
VERTEX
  8
53
 62
7
  6
CONTINUOUS
 10
-2603.75003910816
 20
1022.25001546154
  0
VERTEX
  8
53
 62
7
  6
CONTINUOUS
 10
-2597.68786128167
 20
1025.75001546154
  0
VERTEX
  8
53
 62
7
  6
CONTINUOUS
 10
-2597.68786128167
 20
1032.75001546154
  0
VERTEX
  8
53
 62
7
  6
CONTINUOUS
 10
-2603.75003910816
 20
1036.25001546154
  0
SEQEND
  0
POLYLINE
  8
53
 62
7
 66
1
 70
1
  0
VERTEX
  8
53
 62
7
  6
CONTINUOUS
 10
-2609.81221693465
 20
920.750013779468
  0
VERTEX
  8
53
 62
7
  6
CONTINUOUS
 10
-2609.81221693465
 20
913.750013779468
  0
VERTEX
  8
53
 62
7
  6
CONTINUOUS
 10
-2603.75003910816
 20
910.250013779468
  0
VERTEX
  8
53
 62
7
  6
CONTINUOUS
 10
-2597.68786128167
 20
913.750013779468
  0
VERTEX
  8
53
 62
7
  6
CONTINUOUS
 10
-2597.68786128167
 20
920.750013779468
  0
VERTEX
  8
53
 62
7
  6
CONTINUOUS
 10
-2603.75003910816
 20
924.250013779468
  0
SEQEND
  0
POLYLINE
  8
54
 62
7
 66
1
 70
1
  0
VERTEX
  8
54
 62
7
  6
CONTINUOUS
 10
-2461.75003697553
 20
1471.25002209971
  0
VERTEX
  8
54
 62
7
  6
CONTINUOUS
 10
-2460.75003696051
 20
1468.25002205466
  0
VERTEX
  8
54
 62
7
  6
CONTINUOUS
 10
-2456.75003690044
 20
1468.25002205466
  0
VERTEX
  8
54
 62
7
  6
CONTINUOUS
 10
-2451.75003682535
 20
1471.25002209971
  0
VERTEX
  8
54
 62
7
  6
CONTINUOUS
 10
-2444.75003672022
 20
1487.25002234001
  0
VERTEX
  8
54
 62
7
  6
CONTINUOUS
 10
-2444.75003672022
 20
1490.25002238506
  0
VERTEX
  8
54
 62
7
  6
CONTINUOUS
 10
-2446.75003675025
 20
1492.2500224151
  0
VERTEX
  8
54
 62
7
  6
CONTINUOUS
 10
-2448.75003678029
 20
1492.2500224151
  0
VERTEX
  8
54
 62
7
  6
CONTINUOUS
 10
-2451.75003682535
 20
1489.25002237005
  0
VERTEX
  8
54
 62
7
  6
CONTINUOUS
 10
-2458.75003693048
 20
1479.25002221986
  0
SEQEND
  0
POLYLINE
  8
54
 62
7
 66
1
 70
1
  0
VERTEX
  8
54
 62
7
  6
CONTINUOUS
 10
-2451.56929633338
 20
2756.42303645375
  0
VERTEX
  8
54
 62
7
  6
CONTINUOUS
 10
-2450.12433013118
 20
2741.97337443223
  0
VERTEX
  8
54
 62
7
  6
CONTINUOUS
 10
-2437.78805034275
 20
2734.92407169599
  0
VERTEX
  8
54
 62
7
  6
CONTINUOUS
 10
-2425.45177055432
 20
2734.92407169599
  0
VERTEX
  8
54
 62
7
  6
CONTINUOUS
 10
-2411.35316508183
 20
2731.39942032787
  0
VERTEX
  8
54
 62
7
  6
CONTINUOUS
 10
-2400.77921097746
 20
2724.35011759162
  0
VERTEX
  8
54
 62
7
  6
CONTINUOUS
 10
-2390.20525687309
 20
2720.8254662235
  0
VERTEX
  8
54
 62
7
  6
CONTINUOUS
 10
-2388.66516411277
 20
2720.8254662235
  0
VERTEX
  8
54
 62
7
  6
CONTINUOUS
 10
-2396.72918750293
 20
2746.43119308306
  0
VERTEX
  8
54
 62
7
  6
CONTINUOUS
 10
-2396.5476579791
 20
2746.66910038727
  0
VERTEX
  8
54
 62
7
  6
CONTINUOUS
 10
-2402.13812497138
 20
2754.34531955602
  0
VERTEX
  8
54
 62
7
  6
CONTINUOUS
 10
-2404.61389389628
 20
2752.58191727573
  0
VERTEX
  8
54
 62
7
  6
CONTINUOUS
 10
-2413.5746880979
 20
2754.20820123396
  0
VERTEX
  8
54
 62
7
  6
CONTINUOUS
 10
-2423.88333618159
 20
2759.00828442007
  0
VERTEX
  8
54
 62
7
  6
CONTINUOUS
 10
-2431.22441344862
 20
2751.85276206833
  0
SEQEND
  0
POLYLINE
  8
54
 62
7
 66
1
 70
1
  0
VERTEX
  8
54
 62
7
  6
CONTINUOUS
 10
-2673.17639632243
 20
2662.98783212217
  0
VERTEX
  8
54
 62
7
  6
CONTINUOUS
 10
-2663.36573790262
 20
2657.38174159728
  0
VERTEX
  8
54
 62
7
  6
CONTINUOUS
 10
-2645.74248106201
 20
2648.57011317698
  0
VERTEX
  8
54
 62
7
  6
CONTINUOUS
 10
-2633.40620127358
 20
2646.80778749291
  0
VERTEX
  8
54
 62
7
  6
CONTINUOUS
 10
-2617.54527011702
 20
2645.04546180885
  0
VERTEX
  8
54
 62
7
  6
CONTINUOUS
 10
-2606.97131601266
 20
2645.04546180885
  0
VERTEX
  8
54
 62
7
  6
CONTINUOUS
 10
-2592.87271054016
 20
2650.33243886104
  0
VERTEX
  8
54
 62
7
  6
CONTINUOUS
 10
-2575.24945369955
 20
2666.19337001759
  0
VERTEX
  8
54
 62
7
  6
CONTINUOUS
 10
-2564.67549959518
 20
2676.76732412196
  0
VERTEX
  8
54
 62
7
  6
CONTINUOUS
 10
-2548.81456843863
 20
2687.34127822633
  0
VERTEX
  8
54
 62
7
  6
CONTINUOUS
 10
-2532.95363728207
 20
2699.67755801476
  0
VERTEX
  8
54
 62
7
  6
CONTINUOUS
 10
-2520.61735749364
 20
2704.96453506694
  0
VERTEX
  8
54
 62
7
  6
CONTINUOUS
 10
-2488.89549518054
 20
2715.53848917131
  0
VERTEX
  8
54
 62
7
  6
CONTINUOUS
 10
-2480.08386676023
 20
2722.58779190756
  0
VERTEX
  8
54
 62
7
  6
CONTINUOUS
 10
-2469.50991265586
 20
2731.39942032787
  0
VERTEX
  8
54
 62
7
  6
CONTINUOUS
 10
-2462.46060991961
 20
2756.07197990473
  0
VERTEX
  8
54
 62
7
  6
CONTINUOUS
 10
-2461.22858179691
 20
2760.17874030838
  0
VERTEX
  8
54
 62
7
  6
CONTINUOUS
 10
-2475.7899113514
 20
2770.37772293134
  0
VERTEX
  8
54
 62
7
  6
CONTINUOUS
 10
-2503.1796458326
 20
2772.10678787445
  0
VERTEX
  8
54
 62
7
  6
CONTINUOUS
 10
-2536.74594954839
 20
2762.67590947233
  0
VERTEX
  8
54
 62
7
  6
CONTINUOUS
 10
-2530.87402692366
 20
2744.06983252186
  0
VERTEX
  8
54
 62
7
  6
CONTINUOUS
 10
-2536.22767374639
 20
2744.26939973369
  0
VERTEX
  8
54
 62
7
  6
CONTINUOUS
 10
-2547.56424937131
 20
2763.16532208967
  0
VERTEX
  8
54
 62
7
  6
CONTINUOUS
 10
-2550.46534950048
 20
2756.62292348695
  0
VERTEX
  8
54
 62
7
  6
CONTINUOUS
 10
-2556.20083724063
 20
2756.35155958248
  0
VERTEX
  8
54
 62
7
  6
CONTINUOUS
 10
-2562.12788357739
 20
2732.83637969608
  0
VERTEX
  8
54
 62
7
  6
CONTINUOUS
 10
-2573.40342565557
 20
2721.56271838026
  0
VERTEX
  8
54
 62
7
  6
CONTINUOUS
 10
-2597.15427503228
 20
2708.07646435899
  0
VERTEX
  8
54
 62
7
  6
CONTINUOUS
 10
-2596.18061427809
 20
2713.86314415733
  0
VERTEX
  8
54
 62
7
  6
CONTINUOUS
 10
-2606.40301969261
 20
2714.05369521207
  0
VERTEX
  8
54
 62
7
  6
CONTINUOUS
 10
-2605.59873509782
 20
2706.01473366403
  0
VERTEX
  8
54
 62
7
  6
CONTINUOUS
 10
-2623.81319374761
 20
2702.23962075798
  0
VERTEX
  8
54
 62
7
  6
CONTINUOUS
 10
-2628.57718601315
 20
2701.27903858878
  0
VERTEX
  8
54
 62
7
  6
CONTINUOUS
 10
-2628.22396885514
 20
2693.23828558071
  0
VERTEX
  8
54
 62
7
  6
CONTINUOUS
 10
-2635.75865738555
 20
2692.21921876934
  0
VERTEX
  8
54
 62
7
  6
CONTINUOUS
 10
-2635.73964726863
 20
2699.83484384914
  0
VERTEX
  8
54
 62
7
  6
CONTINUOUS
 10
-2628.57718601315
 20
2701.27903858878
  0
VERTEX
  8
54
 62
7
  6
CONTINUOUS
 10
-2628.7581494934
 20
2705.39855151513
  0
VERTEX
  8
54
 62
7
  6
CONTINUOUS
 10
-2654.82110768703
 20
2705.32110844547
  0
VERTEX
  8
54
 62
7
  6
CONTINUOUS
 10
-2654.73682480078
 20
2687.89153505678
  0
VERTEX
  8
54
 62
7
  6
CONTINUOUS
 10
-2658.53065143907
 20
2685.45658868289
  0
VERTEX
  8
54
 62
7
  6
CONTINUOUS
 10
-2672.38964198791
 20
2676.125341853
  0
VERTEX
  8
54
 62
7
  6
CONTINUOUS
 10
-2664.47362064109
 20
2670.95386119375
  0
VERTEX
  8
54
 62
7
  6
CONTINUOUS
 10
-2652.75678180465
 20
2671.24773227158
  0
VERTEX
  8
54
 62
7
  6
CONTINUOUS
 10
-2643.9465233591
 20
2677.9489442387
  0
VERTEX
  8
54
 62
7
  6
CONTINUOUS
 10
-2641.30176362559
 20
2691.46951351234
  0
VERTEX
  8
54
 62
7
  6
CONTINUOUS
 10
-2644.862968035
 20
2690.98786052728
  0
VERTEX
  8
54
 62
7
  6
CONTINUOUS
 10
-2645.81443117961
 20
2693.39585418377
  0
VERTEX
  8
54
 62
7
  6
CONTINUOUS
 10
-2640.79090843843
 20
2694.0811129175
  0
VERTEX
  8
54
 62
7
  6
CONTINUOUS
 10
-2641.30176362559
 20
2691.46951351234
  0
VERTEX
  8
54
 62
7
  6
CONTINUOUS
 10
-2635.75865738555
 20
2692.21921876934
  0
VERTEX
  8
54
 62
7
  6
CONTINUOUS
 10
-2635.79128761478
 20
2679.14725329251
  0
VERTEX
  8
54
 62
7
  6
CONTINUOUS
 10
-2650.68791206127
 20
2664.27528739167
  0
VERTEX
  8
54
 62
7
  6
CONTINUOUS
 10
-2672.75859295689
 20
2664.24386177602
  0
SEQEND
  0
POLYLINE
  8
54
 62
7
 66
1
 70
1
  0
VERTEX
  8
54
 62
7
  6
CONTINUOUS
 10
-2967.75088280019
 20
2099.26933431004
  0
VERTEX
  8
54
 62
7
  6
CONTINUOUS
 10
-2963.04305381417
 20
2094.33630620001
  0
VERTEX
  8
54
 62
7
  6
CONTINUOUS
 10
-2965.7698358548
 20
2069.24962276625
  0
VERTEX
  8
54
 62
7
  6
CONTINUOUS
 10
-2962.96110419307
 20
2067.00263743669
  0
VERTEX
  8
54
 62
7
  6
CONTINUOUS
 10
-2936.52621893215
 20
2049.37938059607
  0
VERTEX
  8
54
 62
7
  6
CONTINUOUS
 10
-2924.18993914372
 20
2045.85472922795
  0
VERTEX
  8
54
 62
7
  6
CONTINUOUS
 10
-2903.04203093498
 20
2042.33007785983
  0
VERTEX
  8
54
 62
7
  6
CONTINUOUS
 10
-2888.94342546249
 20
2042.33007785983
  0
VERTEX
  8
54
 62
7
  6
CONTINUOUS
 10
-2873.08249430594
 20
2045.85472922795
  0
VERTEX
  8
54
 62
7
  6
CONTINUOUS
 10
-2862.50854020157
 20
2045.85472922795
  0
VERTEX
  8
54
 62
7
  6
CONTINUOUS
 10
-2846.64760904502
 20
2042.33007785983
  0
VERTEX
  8
54
 62
7
  6
CONTINUOUS
 10
-2836.07365494065
 20
2038.8054264917
  0
VERTEX
  8
54
 62
7
  6
CONTINUOUS
 10
-2829.0243522044
 20
2056.42868333232
  0
VERTEX
  8
54
 62
7
  6
CONTINUOUS
 10
-2825.49970083628
 20
2070.52728880481
  0
VERTEX
  8
54
 62
7
  6
CONTINUOUS
 10
-2814.92574673191
 20
2082.86356859324
  0
VERTEX
  8
54
 62
7
  6
CONTINUOUS
 10
-2813.16342104785
 20
2093.43752269761
  0
VERTEX
  8
54
 62
7
  6
CONTINUOUS
 10
-2807.87644399566
 20
2104.01147680198
  0
VERTEX
  8
54
 62
7
  6
CONTINUOUS
 10
-2807.87644399566
 20
2114.58543090635
  0
VERTEX
  8
54
 62
7
  6
CONTINUOUS
 10
-2809.63876967973
 20
2126.92171069478
  0
VERTEX
  8
54
 62
7
  6
CONTINUOUS
 10
-2809.63876967973
 20
2137.49566479915
  0
VERTEX
  8
54
 62
7
  6
CONTINUOUS
 10
-2811.40109536379
 20
2149.83194458758
  0
VERTEX
  8
54
 62
7
  6
CONTINUOUS
 10
-2816.68807241597
 20
2158.64357300789
  0
VERTEX
  8
54
 62
7
  6
CONTINUOUS
 10
-2825.49970083628
 20
2167.45520142819
  0
VERTEX
  8
54
 62
7
  6
CONTINUOUS
 10
-2892.46807683061
 20
2200.93938942536
  0
VERTEX
  8
54
 62
7
  6
CONTINUOUS
 10
-2910.09133367123
 20
2213.27566921379
  0
VERTEX
  8
54
 62
7
  6
CONTINUOUS
 10
-2924.18993914372
 20
2218.56264626598
  0
VERTEX
  8
54
 62
7
  6
CONTINUOUS
 10
-2933.00156756403
 20
2223.84962331816
  0
VERTEX
  8
54
 62
7
  6
CONTINUOUS
 10
-2943.5755216684
 20
2229.13660037034
  0
VERTEX
  8
54
 62
7
  6
CONTINUOUS
 10
-2943.857427518
 20
2229.32453760341
  0
VERTEX
  8
54
 62
7
  6
CONTINUOUS
 10
-2953.75141199293
 20
2172.24251348989
  0
VERTEX
  8
54
 62
7
  6
CONTINUOUS
 10
-2961.74335427169
 20
2130.95686770985
  0
VERTEX
  8
54
 62
7
  6
CONTINUOUS
 10
-2960.51932166466
 20
2126.50461273696
  0
VERTEX
  8
54
 62
7
  6
CONTINUOUS
 10
-2962.828477627
 20
2124.04845173238
  0
VERTEX
  8
54
 62
7
  6
CONTINUOUS
 10
-2962.60049972043
 20
2105.61696243641
  0
SEQEND
  0
POLYLINE
  8
54
 62
7
 66
1
 70
1
  0
VERTEX
  8
54
 62
7
  6
CONTINUOUS
 10
-1758.16423994987
 20
1946.83581570116
  0
VERTEX
  8
54
 62
7
  6
CONTINUOUS
 10
-1756.55595439962
 20
1945.22753015091
  0
VERTEX
  8
54
 62
7
  6
CONTINUOUS
 10
-1751.69031128266
 20
1925.76495768306
  0
VERTEX
  8
54
 62
7
  6
CONTINUOUS
 10
-1747.80974128207
 20
1926.7351001832
  0
VERTEX
  8
54
 62
7
  6
CONTINUOUS
 10
-1752.9440983153
 20
1947.27252831608
  0
VERTEX
  8
54
 62
7
  6
CONTINUOUS
 10
-1755.33581282512
 20
1949.66424282591
  0
SEQEND
  0
POLYLINE
  8
54
 62
7
 66
1
 70
1
  0
VERTEX
  8
54
 62
7
  6
CONTINUOUS
 10
-1776.79315144769
 20
1983.52738262166
  0
VERTEX
  8
54
 62
7
  6
CONTINUOUS
 10
-1775.73779411216
 20
1974.02916660187
  0
VERTEX
  8
54
 62
7
  6
CONTINUOUS
 10
-1771.76225917346
 20
1974.47089270617
  0
VERTEX
  8
54
 62
7
  6
CONTINUOUS
 10
-1772.70690186797
 20
1982.9726769567
  0
VERTEX
  8
54
 62
7
  6
CONTINUOUS
 10
-1768.89307321598
 20
1992.50724858666
  0
VERTEX
  8
54
 62
7
  6
CONTINUOUS
 10
-1772.60697997952
 20
1993.99281129208
  0
SEQEND
  0
POLYLINE
  8
54
 62
7
 66
1
 70
1
  0
VERTEX
  8
54
 62
7
  6
CONTINUOUS
 10
-1849.75002778421
 20
2112.25003172657
  0
VERTEX
  8
54
 62
7
  6
CONTINUOUS
 10
-1849.75002778421
 20
2103.2500315914
  0
VERTEX
  8
54
 62
7
  6
CONTINUOUS
 10
-1845.75002772414
 20
2092.2500314262
  0
VERTEX
  8
54
 62
7
  6
CONTINUOUS
 10
-1836.75002758897
 20
2080.25003124598
  0
VERTEX
  8
54
 62
7
  6
CONTINUOUS
 10
-1818.75002731864
 20
2066.25003103572
  0
VERTEX
  8
54
 62
7
  6
CONTINUOUS
 10
-1815.75002727358
 20
2056.25003088553
  0
VERTEX
  8
54
 62
7
  6
CONTINUOUS
 10
-1814.75002725857
 20
2039.25003063022
  0
VERTEX
  8
54
 62
7
  6
CONTINUOUS
 10
-1811.75002721351
 20
2031.25003051007
  0
VERTEX
  8
54
 62
7
  6
CONTINUOUS
 10
-1803.75002709336
 20
2021.25003035989
  0
VERTEX
  8
54
 62
7
  6
CONTINUOUS
 10
-1790.75002689812
 20
2013.25003023974
  0
VERTEX
  8
54
 62
7
  6
CONTINUOUS
 10
-1728.4148625923
 20
1974.8899291289
  0
VERTEX
  8
54
 62
7
  6
CONTINUOUS
 10
-1747.84923935527
 20
1994.34891301891
  0
VERTEX
  8
54
 62
7
  6
CONTINUOUS
 10
-1802.75214624661
 20
2110.2528630869
  0
VERTEX
  8
54
 62
7
  6
CONTINUOUS
 10
-1830.72771305856
 20
2135.23467185992
  0
VERTEX
  8
54
 62
7
  6
CONTINUOUS
 10
-1838.8804260602
 20
2139.42403603283
  0
VERTEX
  8
54
 62
7
  6
CONTINUOUS
 10
-1845.75002772414
 20
2122.25003187675
  0
SEQEND
  0
POLYLINE
  8
54
 62
7
 66
1
 70
1
  0
VERTEX
  8
54
 62
7
  6
CONTINUOUS
 10
-2819.75004235215
 20
1604.25002409717
  0
VERTEX
  8
54
 62
7
  6
CONTINUOUS
 10
-2819.75004235215
 20
1599.25002402208
  0
VERTEX
  8
54
 62
7
  6
CONTINUOUS
 10
-2817.75004232212
 20
1595.25002396201
  0
VERTEX
  8
54
 62
7
  6
CONTINUOUS
 10
-2810.75004221699
 20
1588.25002385688
  0
VERTEX
  8
54
 62
7
  6
CONTINUOUS
 10
-2799.75004205178
 20
1582.25002376677
  0
VERTEX
  8
54
 62
7
  6
CONTINUOUS
 10
-2794.75004197669
 20
1581.25002375175
  0
VERTEX
  8
54
 62
7
  6
CONTINUOUS
 10
-2786.75004185654
 20
1585.25002381182
  0
VERTEX
  8
54
 62
7
  6
CONTINUOUS
 10
-2786.75004185654
 20
1589.2500238719
  0
VERTEX
  8
54
 62
7
  6
CONTINUOUS
 10
-2794.75004197669
 20
1598.25002400706
  0
VERTEX
  8
54
 62
7
  6
CONTINUOUS
 10
-2806.75004215691
 20
1605.25002411219
  0
SEQEND
  0
POLYLINE
  8
54
 62
7
 66
1
 70
1
  0
VERTEX
  8
54
 62
7
  6
CONTINUOUS
 10
-2793.75004196167
 20
1835.25002756645
  0
VERTEX
  8
54
 62
7
  6
CONTINUOUS
 10
-2792.75004194665
 20
1829.25002747633
  0
VERTEX
  8
54
 62
7
  6
CONTINUOUS
 10
-2788.75004188658
 20
1825.25002741626
  0
VERTEX
  8
54
 62
7
  6
CONTINUOUS
 10
-2783.75004181149
 20
1825.25002741626
  0
VERTEX
  8
54
 62
7
  6
CONTINUOUS
 10
-2777.75004172138
 20
1831.25002750637
  0
VERTEX
  8
54
 62
7
  6
CONTINUOUS
 10
-2778.75004173639
 20
1837.25002759648
  0
VERTEX
  8
54
 62
7
  6
CONTINUOUS
 10
-2784.7500418265
 20
1843.25002768659
  0
VERTEX
  8
54
 62
7
  6
CONTINUOUS
 10
-2788.75004188658
 20
1843.25002768659
  0
SEQEND
  0
POLYLINE
  8
54
 62
7
 66
1
 70
1
  0
VERTEX
  8
54
 62
7
  6
CONTINUOUS
 10
-2829.75004250234
 20
1577.25002369167
  0
VERTEX
  8
54
 62
7
  6
CONTINUOUS
 10
-2829.75004250234
 20
1573.2500236316
  0
VERTEX
  8
54
 62
7
  6
CONTINUOUS
 10
-2823.75004241223
 20
1567.25002354149
  0
VERTEX
  8
54
 62
7
  6
CONTINUOUS
 10
-2798.75004203676
 20
1554.25002334625
  0
VERTEX
  8
54
 62
7
  6
CONTINUOUS
 10
-2773.7500416613
 20
1537.25002309093
  0
VERTEX
  8
54
 62
7
  6
CONTINUOUS
 10
-2768.75004158621
 20
1537.25002309093
  0
VERTEX
  8
54
 62
7
  6
CONTINUOUS
 10
-2767.75004157119
 20
1540.25002313599
  0
VERTEX
  8
54
 62
7
  6
CONTINUOUS
 10
-2773.7500416613
 20
1547.25002324112
  0
VERTEX
  8
54
 62
7
  6
CONTINUOUS
 10
-2796.75004200673
 20
1562.2500234664
  0
VERTEX
  8
54
 62
7
  6
CONTINUOUS
 10
-2810.75004221699
 20
1569.25002357153
  0
VERTEX
  8
54
 62
7
  6
CONTINUOUS
 10
-2816.7500423071
 20
1574.25002364662
  0
VERTEX
  8
54
 62
7
  6
CONTINUOUS
 10
-2824.75004242724
 20
1578.25002370669
  0
SEQEND
  0
POLYLINE
  8
54
 62
7
 66
1
 70
1
  0
VERTEX
  8
54
 62
7
  6
CONTINUOUS
 10
-1939.75002913588
 20
2180.25003274783
  0
VERTEX
  8
54
 62
7
  6
CONTINUOUS
 10
-1937.75002910584
 20
2171.25003261266
  0
VERTEX
  8
54
 62
7
  6
CONTINUOUS
 10
-1931.75002901573
 20
2164.25003250753
  0
VERTEX
  8
54
 62
7
  6
CONTINUOUS
 10
-1925.75002892562
 20
2161.25003246247
  0
VERTEX
  8
54
 62
7
  6
CONTINUOUS
 10
-1919.75002883551
 20
2155.25003237236
  0
VERTEX
  8
54
 62
7
  6
CONTINUOUS
 10
-1913.7500287454
 20
2138.25003211705
  0
VERTEX
  8
54
 62
7
  6
CONTINUOUS
 10
-1907.75002865529
 20
2133.25003204196
  0
VERTEX
  8
54
 62
7
  6
CONTINUOUS
 10
-1892.75002843001
 20
2132.25003202694
  0
VERTEX
  8
54
 62
7
  6
CONTINUOUS
 10
-1886.7500283399
 20
2136.25003208701
  0
VERTEX
  8
54
 62
7
  6
CONTINUOUS
 10
-1885.75002832488
 20
2139.25003213207
  0
VERTEX
  8
54
 62
7
  6
CONTINUOUS
 10
-1865.20118843245
 20
2152.94925872704
  0
VERTEX
  8
54
 62
7
  6
CONTINUOUS
 10
-1881.37838122998
 20
2161.26209298496
  0
VERTEX
  8
54
 62
7
  6
CONTINUOUS
 10
-1894.58068759963
 20
2152.3223826367
  0
VERTEX
  8
54
 62
7
  6
CONTINUOUS
 10
-1891.90569708188
 20
2166.72016596891
  0
VERTEX
  8
54
 62
7
  6
CONTINUOUS
 10
-1901.81832304231
 20
2177.32026600866
  0
VERTEX
  8
54
 62
7
  6
CONTINUOUS
 10
-1926.7339353048
 20
2202.22381299384
  0
VERTEX
  8
54
 62
7
  6
CONTINUOUS
 10
-1931.90170533497
 20
2217.6901165995
  0
VERTEX
  8
54
 62
7
  6
CONTINUOUS
 10
-1933.34949027557
 20
2218.65326590421
  0
VERTEX
  8
54
 62
7
  6
CONTINUOUS
 10
-1937.75002910584
 20
2192.25003292805
  0
SEQEND
  0
POLYLINE
  8
54
 62
7
 66
1
 70
1
  0
VERTEX
  8
54
 62
7
  6
CONTINUOUS
 10
-2859.75004295289
 20
2225.25003342366
  0
VERTEX
  8
54
 62
7
  6
CONTINUOUS
 10
-2859.75004295289
 20
2220.25003334857
  0
VERTEX
  8
54
 62
7
  6
CONTINUOUS
 10
-2853.75004286278
 20
2212.25003322842
  0
VERTEX
  8
54
 62
7
  6
CONTINUOUS
 10
-2846.75004275765
 20
2195.2500329731
  0
VERTEX
  8
54
 62
7
  6
CONTINUOUS
 10
-2831.75004253238
 20
2167.25003255259
  0
VERTEX
  8
54
 62
7
  6
CONTINUOUS
 10
-2823.75004241223
 20
2159.25003243244
  0
VERTEX
  8
54
 62
7
  6
CONTINUOUS
 10
-2817.75004232212
 20
2156.25003238738
  0
VERTEX
  8
54
 62
7
  6
CONTINUOUS
 10
-2810.75004221699
 20
2156.25003238738
  0
VERTEX
  8
54
 62
7
  6
CONTINUOUS
 10
-2800.7500420668
 20
2160.25003244746
  0
VERTEX
  8
54
 62
7
  6
CONTINUOUS
 10
-2786.75004185654
 20
2170.25003259764
  0
VERTEX
  8
54
 62
7
  6
CONTINUOUS
 10
-2749.75004130086
 20
2191.25003291303
  0
VERTEX
  8
54
 62
7
  6
CONTINUOUS
 10
-2739.75004115067
 20
2200.2500330482
  0
VERTEX
  8
54
 62
7
  6
CONTINUOUS
 10
-2741.75004118071
 20
2210.25003319838
  0
VERTEX
  8
54
 62
7
  6
CONTINUOUS
 10
-2755.75004139097
 20
2239.25003363392
  0
VERTEX
  8
54
 62
7
  6
CONTINUOUS
 10
-2774.75004167632
 20
2269.25003408447
  0
VERTEX
  8
54
 62
7
  6
CONTINUOUS
 10
-2800.7500420668
 20
2258.25003391927
  0
VERTEX
  8
54
 62
7
  6
CONTINUOUS
 10
-2823.75004241223
 20
2245.25003372403
  0
VERTEX
  8
54
 62
7
  6
CONTINUOUS
 10
-2846.75004275765
 20
2235.25003357384
  0
SEQEND
  0
POLYLINE
  8
54
 62
7
 66
1
 70
1
  0
VERTEX
  8
54
 62
7
  6
CONTINUOUS
 10
-2817.75004232212
 20
1875.25002816719
  0
VERTEX
  8
54
 62
7
  6
CONTINUOUS
 10
-2811.750042232
 20
1872.25002812213
  0
VERTEX
  8
54
 62
7
  6
CONTINUOUS
 10
-2807.75004217193
 20
1873.25002813715
  0
VERTEX
  8
54
 62
7
  6
CONTINUOUS
 10
-2796.75004200673
 20
1884.25002830235
  0
VERTEX
  8
54
 62
7
  6
CONTINUOUS
 10
-2782.75004179647
 20
1894.25002845254
  0
VERTEX
  8
54
 62
7
  6
CONTINUOUS
 10
-2765.75004154115
 20
1912.25002872287
  0
VERTEX
  8
54
 62
7
  6
CONTINUOUS
 10
-2745.75004124078
 20
1928.25002896317
  0
VERTEX
  8
54
 62
7
  6
CONTINUOUS
 10
-2738.75004113566
 20
1936.25002908331
  0
VERTEX
  8
54
 62
7
  6
CONTINUOUS
 10
-2736.75004110562
 20
1944.25002920346
  0
VERTEX
  8
54
 62
7
  6
CONTINUOUS
 10
-2741.75004118071
 20
1947.25002924852
  0
VERTEX
  8
54
 62
7
  6
CONTINUOUS
 10
-2749.75004130086
 20
1947.25002924852
  0
VERTEX
  8
54
 62
7
  6
CONTINUOUS
 10
-2759.75004145104
 20
1941.25002915841
  0
VERTEX
  8
54
 62
7
  6
CONTINUOUS
 10
-2816.7500423071
 20
1881.2500282573
  0
SEQEND
  0
POLYLINE
  8
54
 62
7
 66
1
 70
1
  0
VERTEX
  8
54
 62
7
  6
CONTINUOUS
 10
-2764.75004152614
 20
1586.25002382684
  0
VERTEX
  8
54
 62
7
  6
CONTINUOUS
 10
-2762.7500414961
 20
1579.25002372171
  0
VERTEX
  8
54
 62
7
  6
CONTINUOUS
 10
-2758.75004143603
 20
1575.25002366164
  0
VERTEX
  8
54
 62
7
  6
CONTINUOUS
 10
-2739.75004115067
 20
1563.25002348141
  0
VERTEX
  8
54
 62
7
  6
CONTINUOUS
 10
-2735.7500410906
 20
1563.25002348141
  0
VERTEX
  8
54
 62
7
  6
CONTINUOUS
 10
-2734.75004107558
 20
1567.25002354149
  0
VERTEX
  8
54
 62
7
  6
CONTINUOUS
 10
-2746.7500412558
 20
1579.25002372171
  0
VERTEX
  8
54
 62
7
  6
CONTINUOUS
 10
-2760.75004146606
 20
1587.25002384186
  0
SEQEND
  0
POLYLINE
  8
54
 62
7
 66
1
 70
1
  0
VERTEX
  8
54
 62
7
  6
CONTINUOUS
 10
-2059.61672212047
 20
2267.53207591083
  0
VERTEX
  8
54
 62
7
  6
CONTINUOUS
 10
-2054.44798244378
 20
2254.09335275144
  0
VERTEX
  8
54
 62
7
  6
CONTINUOUS
 10
-2041.85063879432
 20
2242.54578773944
  0
VERTEX
  8
54
 62
7
  6
CONTINUOUS
 10
-2034.53786914478
 20
2239.41174360392
  0
VERTEX
  8
54
 62
7
  6
CONTINUOUS
 10
-2032.96219195046
 20
2243.08832372399
  0
VERTEX
  8
54
 62
7
  6
CONTINUOUS
 10
-2039.64942251117
 20
2245.95427967858
  0
VERTEX
  8
54
 62
7
  6
CONTINUOUS
 10
-2051.05207922216
 20
2256.40671499699
  0
VERTEX
  8
54
 62
7
  6
CONTINUOUS
 10
-2055.88333969565
 20
2268.96799222807
  0
SEQEND
  0
POLYLINE
  8
54
 62
7
 66
1
 70
1
  0
VERTEX
  8
54
 62
7
  6
CONTINUOUS
 10
-2761.75004148108
 20
1607.25002414223
  0
VERTEX
  8
54
 62
7
  6
CONTINUOUS
 10
-2761.75004148108
 20
1604.25002409717
  0
VERTEX
  8
54
 62
7
  6
CONTINUOUS
 10
-2752.75004134591
 20
1596.25002397703
  0
VERTEX
  8
54
 62
7
  6
CONTINUOUS
 10
-2739.75004115067
 20
1594.25002394699
  0
VERTEX
  8
54
 62
7
  6
CONTINUOUS
 10
-2729.75004100049
 20
1594.25002394699
  0
VERTEX
  8
54
 62
7
  6
CONTINUOUS
 10
-2727.75004097045
 20
1597.25002399204
  0
VERTEX
  8
54
 62
7
  6
CONTINUOUS
 10
-2731.75004103053
 20
1600.2500240371
  0
VERTEX
  8
54
 62
7
  6
CONTINUOUS
 10
-2744.75004122577
 20
1603.25002408216
  0
VERTEX
  8
54
 62
7
  6
CONTINUOUS
 10
-2753.75004136093
 20
1608.25002415725
  0
SEQEND
  0
POLYLINE
  8
54
 62
7
 66
1
 70
1
  0
VERTEX
  8
54
 62
7
  6
CONTINUOUS
 10
-2062.75003098315
 20
1564.25002349643
  0
VERTEX
  8
54
 62
7
  6
CONTINUOUS
 10
-2061.75003096813
 20
1559.25002342134
  0
VERTEX
  8
54
 62
7
  6
CONTINUOUS
 10
-2053.75003084799
 20
1552.25002331621
  0
VERTEX
  8
54
 62
7
  6
CONTINUOUS
 10
-2050.75003080293
 20
1552.25002331621
  0
VERTEX
  8
54
 62
7
  6
CONTINUOUS
 10
-2048.75003077289
 20
1554.25002334625
  0
VERTEX
  8
54
 62
7
  6
CONTINUOUS
 10
-2050.75003080293
 20
1560.25002343636
  0
VERTEX
  8
54
 62
7
  6
CONTINUOUS
 10
-2055.75003087802
 20
1565.25002351145
  0
VERTEX
  8
54
 62
7
  6
CONTINUOUS
 10
-2060.75003095312
 20
1566.25002352647
  0
SEQEND
  0
POLYLINE
  8
54
 62
7
 66
1
 70
1
  0
VERTEX
  8
54
 62
7
  6
CONTINUOUS
 10
-2638.75003963381
 20
1064.25001598719
  0
VERTEX
  8
54
 62
7
  6
CONTINUOUS
 10
-2637.75003961879
 20
1058.25001589708
  0
VERTEX
  8
54
 62
7
  6
CONTINUOUS
 10
-2630.75003951366
 20
1059.25001591209
  0
VERTEX
  8
54
 62
7
  6
CONTINUOUS
 10
-2630.75003951366
 20
1062.25001595715
  0
VERTEX
  8
54
 62
7
  6
CONTINUOUS
 10
-2633.75003955871
 20
1065.25001600221
  0
SEQEND
  0
POLYLINE
  8
54
 62
7
 66
1
 70
1
  0
VERTEX
  8
54
 62
7
  6
CONTINUOUS
 10
-2332.75003503815
 20
1345.25002020738
  0
VERTEX
  8
54
 62
7
  6
CONTINUOUS
 10
-2332.75003503815
 20
1342.25002016233
  0
VERTEX
  8
54
 62
7
  6
CONTINUOUS
 10
-2327.75003496305
 20
1337.25002008724
  0
VERTEX
  8
54
 62
7
  6
CONTINUOUS
 10
-2308.7500346777
 20
1324.25001989199
  0
VERTEX
  8
54
 62
7
  6
CONTINUOUS
 10
-2281.7500342722
 20
1313.25001972679
  0
VERTEX
  8
54
 62
7
  6
CONTINUOUS
 10
-2270.750034107
 20
1312.25001971177
  0
VERTEX
  8
54
 62
7
  6
CONTINUOUS
 10
-2264.75003401689
 20
1313.25001972679
  0
VERTEX
  8
54
 62
7
  6
CONTINUOUS
 10
-2263.75003400187
 20
1316.25001977185
  0
VERTEX
  8
54
 62
7
  6
CONTINUOUS
 10
-2275.75003418209
 20
1326.25001992203
  0
VERTEX
  8
54
 62
7
  6
CONTINUOUS
 10
-2325.75003493302
 20
1346.2500202224
  0
SEQEND
  0
POLYLINE
  8
54
 62
7
 66
1
 70
1
  0
VERTEX
  8
54
 62
7
  6
CONTINUOUS
 10
-2680.79070011606
 20
2397.29069585795
  0
VERTEX
  8
54
 62
7
  6
CONTINUOUS
 10
-2672.75004014443
 20
2389.25003588669
  0
VERTEX
  8
54
 62
7
  6
CONTINUOUS
 10
-2660.75003996421
 20
2377.25003570647
  0
VERTEX
  8
54
 62
7
  6
CONTINUOUS
 10
-2650.75003981403
 20
2373.2500356464
  0
VERTEX
  8
54
 62
7
  6
CONTINUOUS
 10
-2638.75003963381
 20
2373.2500356464
  0
VERTEX
  8
54
 62
7
  6
CONTINUOUS
 10
-2634.75003957373
 20
2371.25003561636
  0
VERTEX
  8
54
 62
7
  6
CONTINUOUS
 10
-2616.7500393034
 20
2357.2500354061
  0
VERTEX
  8
54
 62
7
  6
CONTINUOUS
 10
-2595.75003898801
 20
2344.25003521086
  0
VERTEX
  8
54
 62
7
  6
CONTINUOUS
 10
-2590.75003891292
 20
2342.25003518082
  0
VERTEX
  8
54
 62
7
  6
CONTINUOUS
 10
-2579.75003874771
 20
2342.25003518082
  0
VERTEX
  8
54
 62
7
  6
CONTINUOUS
 10
-2577.75003871768
 20
2344.25003521086
  0
VERTEX
  8
54
 62
7
  6
CONTINUOUS
 10
-2576.75003870266
 20
2356.25003539108
  0
VERTEX
  8
54
 62
7
  6
CONTINUOUS
 10
-2583.75003880779
 20
2371.25003561636
  0
VERTEX
  8
54
 62
7
  6
CONTINUOUS
 10
-2617.75003931842
 20
2411.2500362171
  0
VERTEX
  8
54
 62
7
  6
CONTINUOUS
 10
-2631.75003952868
 20
2431.25003651747
  0
VERTEX
  8
54
 62
7
  6
CONTINUOUS
 10
-2632.75003954369
 20
2435.25003657754
  0
VERTEX
  8
54
 62
7
  6
CONTINUOUS
 10
-2645.39661959687
 20
2453.31657951124
  0
VERTEX
  8
54
 62
7
  6
CONTINUOUS
 10
-2651.95485285554
 20
2431.17958260422
  0
VERTEX
  8
54
 62
7
  6
CONTINUOUS
 10
-2658.73483322431
 20
2423.27743443757
  0
VERTEX
  8
54
 62
7
  6
CONTINUOUS
 10
-2663.45144868345
 20
2407.9421465013
  0
SEQEND
  0
POLYLINE
  8
54
 62
7
 66
1
 70
1
  0
VERTEX
  8
54
 62
7
  6
CONTINUOUS
 10
-2170.90235332319
 20
2283.71842120903
  0
VERTEX
  8
54
 62
7
  6
CONTINUOUS
 10
-2170.30279886231
 20
2274.24812168547
  0
VERTEX
  8
54
 62
7
  6
CONTINUOUS
 10
-2157.30075312251
 20
2272.3568131797
  0
VERTEX
  8
54
 62
7
  6
CONTINUOUS
 10
-2151.93060589699
 20
2275.19478257287
  0
VERTEX
  8
54
 62
7
  6
CONTINUOUS
 10
-2152.57432236222
 20
2276.09812065154
  0
VERTEX
  8
54
 62
7
  6
CONTINUOUS
 10
-2149.48211501672
 20
2276.48874005407
  0
VERTEX
  8
54
 62
7
  6
CONTINUOUS
 10
-2151.93060589699
 20
2275.19478257287
  0
VERTEX
  8
54
 62
7
  6
CONTINUOUS
 10
-2148.52497763597
 20
2270.41560749171
  0
VERTEX
  8
54
 62
7
  6
CONTINUOUS
 10
-2139.18980237153
 20
2287.82485184074
  0
VERTEX
  8
54
 62
7
  6
CONTINUOUS
 10
-2152.82396210241
 20
2290.29278409926
  0
VERTEX
  8
54
 62
7
  6
CONTINUOUS
 10
-2152.78947964634
 20
2284.0363037005
  0
SEQEND
  0
POLYLINE
  8
54
 62
7
 66
1
 70
1
  0
VERTEX
  8
54
 62
7
  6
CONTINUOUS
 10
-2319.75003484291
 20
2206.25003313831
  0
VERTEX
  8
54
 62
7
  6
CONTINUOUS
 10
-2319.75003484291
 20
2188.25003286797
  0
VERTEX
  8
54
 62
7
  6
CONTINUOUS
 10
-2313.75003475279
 20
2173.2500326427
  0
VERTEX
  8
54
 62
7
  6
CONTINUOUS
 10
-2305.75003463265
 20
2164.25003250753
  0
VERTEX
  8
54
 62
7
  6
CONTINUOUS
 10
-2301.75003457257
 20
2156.25003238738
  0
VERTEX
  8
54
 62
7
  6
CONTINUOUS
 10
-2290.75003440737
 20
2144.25003220716
  0
VERTEX
  8
54
 62
7
  6
CONTINUOUS
 10
-2281.7500342722
 20
2138.25003211705
  0
VERTEX
  8
54
 62
7
  6
CONTINUOUS
 10
-2248.88619753504
 20
2132.04804021751
  0
VERTEX
  8
54
 62
7
  6
CONTINUOUS
 10
-2208.16244543179
 20
2159.19720828633
  0
VERTEX
  8
54
 62
7
  6
CONTINUOUS
 10
-2149.0225669658
 20
2269.4876490996
  0
VERTEX
  8
54
 62
7
  6
CONTINUOUS
 10
-2169.94312370281
 20
2263.15593539535
  0
VERTEX
  8
54
 62
7
  6
CONTINUOUS
 10
-2192.43320566347
 20
2248.33302657266
  0
VERTEX
  8
54
 62
7
  6
CONTINUOUS
 10
-2197.72260372761
 20
2248.22239001451
  0
VERTEX
  8
54
 62
7
  6
CONTINUOUS
 10
-2197.62447580315
 20
2250.80913682358
  0
VERTEX
  8
54
 62
7
  6
CONTINUOUS
 10
-2188.70431695688
 20
2257.31957461667
  0
VERTEX
  8
54
 62
7
  6
CONTINUOUS
 10
-2192.27880099151
 20
2264.82112896541
  0
VERTEX
  8
54
 62
7
  6
CONTINUOUS
 10
-2185.07027869844
 20
2270.82048755804
  0
VERTEX
  8
54
 62
7
  6
CONTINUOUS
 10
-2185.18848620665
 20
2271.29973496373
  0
VERTEX
  8
54
 62
7
  6
CONTINUOUS
 10
-2243.26932838702
 20
2305.76502373733
  0
VERTEX
  8
54
 62
7
  6
CONTINUOUS
 10
-2277.7463940105
 20
2340.24590701783
  0
VERTEX
  8
54
 62
7
  6
CONTINUOUS
 10
-2298.74897727463
 20
2367.24786226321
  0
VERTEX
  8
54
 62
7
  6
CONTINUOUS
 10
-2301.02601278223
 20
2376.35310647994
  0
VERTEX
  8
54
 62
7
  6
CONTINUOUS
 10
-2304.75003461763
 20
2364.25003551123
  0
VERTEX
  8
54
 62
7
  6
CONTINUOUS
 10
-2312.75003473778
 20
2338.25003512075
  0
VERTEX
  8
54
 62
7
  6
CONTINUOUS
 10
-2312.75003473778
 20
2322.25003488045
  0
VERTEX
  8
54
 62
7
  6
CONTINUOUS
 10
-2308.7500346777
 20
2304.25003461012
  0
VERTEX
  8
54
 62
7
  6
CONTINUOUS
 10
-2308.7500346777
 20
2290.25003439986
  0
VERTEX
  8
54
 62
7
  6
CONTINUOUS
 10
-2312.75003473778
 20
2245.25003372403
  0
SEQEND
  0
POLYLINE
  8
54
 62
7
 66
1
 70
1
  0
VERTEX
  8
54
 62
7
  6
CONTINUOUS
 10
-2341.75003514327
 20
2529.25003798928
  0
VERTEX
  8
54
 62
7
  6
CONTINUOUS
 10
-2341.75003514327
 20
2520.864873062
  0
VERTEX
  8
54
 62
7
  6
CONTINUOUS
 10
-2339.4545269015
 20
2515.12610245755
  0
VERTEX
  8
54
 62
7
  6
CONTINUOUS
 10
-2333.1642485855
 20
2508.83582414156
  0
VERTEX
  8
54
 62
7
  6
CONTINUOUS
 10
-2330.33582146075
 20
2511.6642512663
  0
VERTEX
  8
54
 62
7
  6
CONTINUOUS
 10
-2336.04554332498
 20
2517.37397313053
  0
VERTEX
  8
54
 62
7
  6
CONTINUOUS
 10
-2337.75003514327
 20
2521.63520267627
  0
VERTEX
  8
54
 62
7
  6
CONTINUOUS
 10
-2337.75003514327
 20
2529.25003798928
  0
SEQEND
  0
POLYLINE
  8
54
 62
7
 66
1
 70
1
  0
VERTEX
  8
54
 62
7
  6
CONTINUOUS
 10
-2611.75003922831
 20
1441.25002164916
  0
VERTEX
  8
54
 62
7
  6
CONTINUOUS
 10
-2609.75003919827
 20
1435.25002155905
  0
VERTEX
  8
54
 62
7
  6
CONTINUOUS
 10
-2602.75003909314
 20
1433.25002152901
  0
VERTEX
  8
54
 62
7
  6
CONTINUOUS
 10
-2599.75003904808
 20
1430.25002148396
  0
VERTEX
  8
54
 62
7
  6
CONTINUOUS
 10
-2555.75003838727
 20
1407.25002113853
  0
VERTEX
  8
54
 62
7
  6
CONTINUOUS
 10
-2544.75003822207
 20
1404.25002109347
  0
VERTEX
  8
54
 62
7
  6
CONTINUOUS
 10
-2538.75003813196
 20
1400.2500210334
  0
VERTEX
  8
54
 62
7
  6
CONTINUOUS
 10
-2534.75003807188
 20
1400.2500210334
  0
VERTEX
  8
54
 62
7
  6
CONTINUOUS
 10
-2530.75003801181
 20
1397.25002098835
  0
VERTEX
  8
54
 62
7
  6
CONTINUOUS
 10
-2518.75003783159
 20
1393.25002092827
  0
VERTEX
  8
54
 62
7
  6
CONTINUOUS
 10
-2514.75003777151
 20
1393.25002092827
  0
VERTEX
  8
54
 62
7
  6
CONTINUOUS
 10
-2510.75003771144
 20
1397.25002098835
  0
SEQEND
  0
POLYLINE
  8
54
 62
7
 66
1
 70
1
  0
VERTEX
  8
54
 62
7
  6
CONTINUOUS
 10
-2399.99942612448
 20
2634.68830197737
  0
VERTEX
  8
54
 62
7
  6
CONTINUOUS
 10
-2394.55845855857
 20
2630.33552792465
  0
VERTEX
  8
54
 62
7
  6
CONTINUOUS
 10
-2385.59307280142
 20
2629.214854705
  0
VERTEX
  8
54
 62
7
  6
CONTINUOUS
 10
-2370.70228160493
 20
2633.46936647543
  0
VERTEX
  8
54
 62
7
  6
CONTINUOUS
 10
-2366.33582200142
 20
2637.83582607894
  0
VERTEX
  8
54
 62
7
  6
CONTINUOUS
 10
-2369.16424912617
 20
2640.66425320369
  0
VERTEX
  8
54
 62
7
  6
CONTINUOUS
 10
-2372.7977896428
 20
2637.03071268705
  0
VERTEX
  8
54
 62
7
  6
CONTINUOUS
 10
-2385.90699886684
 20
2633.28522433733
  0
VERTEX
  8
54
 62
7
  6
CONTINUOUS
 10
-2392.94161334998
 20
2634.16455114772
  0
VERTEX
  8
54
 62
7
  6
CONTINUOUS
 10
-2397.50064593426
 20
2637.81177721514
  0
SEQEND
  0
POLYLINE
  8
54
 62
7
 66
1
 70
1
  0
VERTEX
  8
54
 62
7
  6
CONTINUOUS
 10
-2415.75003625464
 20
2672.72217609192
  0
VERTEX
  8
54
 62
7
  6
CONTINUOUS
 10
-2415.75003625464
 20
2659.92548463637
  0
VERTEX
  8
54
 62
7
  6
CONTINUOUS
 10
-2412.64740280569
 20
2650.6175842895
  0
VERTEX
  8
54
 62
7
  6
CONTINUOUS
 10
-2408.85266961349
 20
2651.88249535357
  0
VERTEX
  8
54
 62
7
  6
CONTINUOUS
 10
-2411.75003625464
 20
2660.57459527704
  0
VERTEX
  8
54
 62
7
  6
CONTINUOUS
 10
-2411.75003625464
 20
2671.77790418192
  0
VERTEX
  8
54
 62
7
  6
CONTINUOUS
 10
-2403.9611817525
 20
2687.35561318622
  0
VERTEX
  8
54
 62
7
  6
CONTINUOUS
 10
-2407.5388905165
 20
2689.14446756822
  0
SEQEND
  0
POLYLINE
  8
54
 62
7
 66
1
 70
1
  0
VERTEX
  8
54
 62
7
  6
CONTINUOUS
 10
-1728.03286866443
 20
1916.22992774023
  0
VERTEX
  8
54
 62
7
  6
CONTINUOUS
 10
-1727.46718323948
 20
1912.27012976558
  0
VERTEX
  8
54
 62
7
  6
CONTINUOUS
 10
-1719.70589564834
 20
1913.37888513575
  0
VERTEX
  8
54
 62
7
  6
CONTINUOUS
 10
-1714.21358321254
 20
1919.96966005871
  0
VERTEX
  8
54
 62
7
  6
CONTINUOUS
 10
-1717.28646833093
 20
1922.53039765737
  0
VERTEX
  8
54
 62
7
  6
CONTINUOUS
 10
-1721.79415604532
 20
1917.1211724001
  0
SEQEND
  0
POLYLINE
  8
11
 62
7
 66
1
 70
1
  0
VERTEX
  8
11
 62
7
  6
CONTINUOUS
 10
-1372.75002062039
 20
771.250011586768
  0
VERTEX
  8
11
 62
7
  6
CONTINUOUS
 10
-1372.75002062039
 20
784.250011782009
  0
VERTEX
  8
11
 62
7
  6
CONTINUOUS
 10
-1365.75002051526
 20
791.250011887138
  0
VERTEX
  8
11
 62
7
  6
CONTINUOUS
 10
-1352.75002032002
 20
791.250011887138
  0
VERTEX
  8
11
 62
7
  6
CONTINUOUS
 10
-1344.75002019987
 20
783.25001176699
  0
VERTEX
  8
11
 62
7
  6
CONTINUOUS
 10
-1344.75002019987
 20
771.250011586768
  0
VERTEX
  8
11
 62
7
  6
CONTINUOUS
 10
-1351.750020305
 20
764.250011481639
  0
VERTEX
  8
11
 62
7
  6
CONTINUOUS
 10
-1365.75002051526
 20
764.250011481639
  0
SEQEND
  0
POLYLINE
  8
11
 62
7
 66
1
 70
1
  0
VERTEX
  8
11
 62
7
  6
CONTINUOUS
 10
-2149.48211501672
 20
2276.48874005407
  0
VERTEX
  8
11
 62
7
  6
CONTINUOUS
 10
-2146.58738420281
 20
2278.01852259193
  0
VERTEX
  8
11
 62
7
  6
CONTINUOUS
 10
-2148.81571376455
 20
2283.41939278035
  0
VERTEX
  8
11
 62
7
  6
CONTINUOUS
 10
-2146.75615889324
 20
2284.08438458677
  0
VERTEX
  8
11
 62
7
  6
CONTINUOUS
 10
-2145.71456604133
 20
2281.5335208258
  0
VERTEX
  8
11
 62
7
  6
CONTINUOUS
 10
-2139.05751365466
 20
2279.30433631953
  0
VERTEX
  8
11
 62
7
  6
CONTINUOUS
 10
-2141.92718988914
 20
2277.4431069544
  0
SEQEND
  0
POLYLINE
  8
11
 62
7
 66
1
 70
1
  0
VERTEX
  8
11
 62
7
  6
CONTINUOUS
 10
-2152.74706457121
 20
2276.34053268169
  0
VERTEX
  8
11
 62
7
  6
CONTINUOUS
 10
-2152.57432236222
 20
2276.09812065154
  0
VERTEX
  8
11
 62
7
  6
CONTINUOUS
 10
-2152.74560926732
 20
2276.07648303767
  0
SEQEND
  0
POLYLINE
  8
11
 62
7
 66
1
 70
1
  0
VERTEX
  8
11
 62
7
  6
CONTINUOUS
 10
-2156.11255345891
 20
2281.06337950916
  0
VERTEX
  8
11
 62
7
  6
CONTINUOUS
 10
-2152.77902662819
 20
2282.13971307026
  0
VERTEX
  8
11
 62
7
  6
CONTINUOUS
 10
-2152.78947964634
 20
2284.0363037005
  0
VERTEX
  8
11
 62
7
  6
CONTINUOUS
 10
-2149.09698043835
 20
2284.1011073793
  0
VERTEX
  8
11
 62
7
  6
CONTINUOUS
 10
-2148.81571376455
 20
2283.41939278035
  0
VERTEX
  8
11
 62
7
  6
CONTINUOUS
 10
-2152.77902662819
 20
2282.13971307026
  0
VERTEX
  8
11
 62
7
  6
CONTINUOUS
 10
-2152.74706457121
 20
2276.34053268169
  0
SEQEND
  0
POLYLINE
  8
11
 62
7
 66
1
 70
1
  0
VERTEX
  8
11
 62
7
  6
CONTINUOUS
 10
-2605.59873509782
 20
2706.01473366403
  0
VERTEX
  8
11
 62
7
  6
CONTINUOUS
 10
-2603.80974952813
 20
2706.38551726198
  0
VERTEX
  8
11
 62
7
  6
CONTINUOUS
 10
-2602.57121715411
 20
2699.67070793541
  0
VERTEX
  8
11
 62
7
  6
CONTINUOUS
 10
-2604.84120221189
 20
2698.44306341088
  0
SEQEND
  0
POLYLINE
  8
11
 62
7
 66
1
 70
1
  0
VERTEX
  8
11
 62
7
  6
CONTINUOUS
 10
-2654.73682480078
 20
2687.89153505678
  0
VERTEX
  8
11
 62
7
  6
CONTINUOUS
 10
-2654.3297400151
 20
2688.1528094157
  0
VERTEX
  8
11
 62
7
  6
CONTINUOUS
 10
-2654.73296325304
 20
2687.09297282579
  0
SEQEND
  0
POLYLINE
  8
1
 62
7
 66
1
 70
1
  0
VERTEX
  8
1
 62
7
  6
CONTINUOUS
 10
-3015.74863284966
 20
1207.22516782196
  0
VERTEX
  8
1
 62
7
  6
CONTINUOUS
 10
-3012.75536004644
 20
1191.2617809331
  0
VERTEX
  8
1
 62
7
  6
CONTINUOUS
 10
-3003.68003626085
 20
1179.71150898172
  0
VERTEX
  8
1
 62
7
  6
CONTINUOUS
 10
-2976.7457507814
 20
1166.24761211258
  0
VERTEX
  8
1
 62
7
  6
CONTINUOUS
 10
-2966.13832019634
 20
1159.62769506189
  0
VERTEX
  8
1
 62
7
  6
CONTINUOUS
 10
-2955.76180285137
 20
1149.25490532747
  0
VERTEX
  8
1
 62
7
  6
CONTINUOUS
 10
-2947.12438616045
 20
1149.23414536648
  0
VERTEX
  8
1
 62
7
  6
CONTINUOUS
 10
-2830.14757170687
 20
1072.44820995221
  0
VERTEX
  8
1
 62
7
  6
CONTINUOUS
 10
-2748.32755086168
 20
1005.97043867731
  0
VERTEX
  8
1
 62
7
  6
CONTINUOUS
 10
-2731.12626822882
 20
984.451752292151
  0
VERTEX
  8
1
 62
7
  6
CONTINUOUS
 10
-2720.9033754918
 20
979.326369674981
  0
VERTEX
  8
1
 62
7
  6
CONTINUOUS
 10
-2717.9828861087
 20
971.607027733392
  0
VERTEX
  8
1
 62
7
  6
CONTINUOUS
 10
-2708.72196672773
 20
964.225988174971
  0
VERTEX
  8
1
 62
7
  6
CONTINUOUS
 10
-2686.6157928147
 20
943.689337639624
  0
VERTEX
  8
1
 62
7
  6
CONTINUOUS
 10
-2681.79564830413
 20
941.28854179274
  0
VERTEX
  8
1
 62
7
  6
CONTINUOUS
 10
-2675.78326781042
 20
933.353427897337
  0
VERTEX
  8
1
 62
7
  6
CONTINUOUS
 10
-2675.75274304068
 20
929.256552299772
  0
VERTEX
  8
1
 62
7
  6
CONTINUOUS
 10
-2667.70428331138
 20
921.187554987073
  0
VERTEX
  8
1
 62
7
  6
CONTINUOUS
 10
-2665.75341873636
 20
917.254707190927
  0
VERTEX
  8
1
 62
7
  6
CONTINUOUS
 10
-2654.45484263505
 20
905.975405827307
  0
VERTEX
  8
1
 62
7
  6
CONTINUOUS
 10
-2648.54370221644
 20
891.198807454092
  0
VERTEX
  8
1
 62
7
  6
CONTINUOUS
 10
-2618.35218484097
 20
881.644293503729
  0
VERTEX
  8
1
 62
7
  6
CONTINUOUS
 10
-2575.37039793769
 20
848.573161640676
  0
VERTEX
  8
1
 62
7
  6
CONTINUOUS
 10
-2531.21407358523
 20
798.894654513343
  0
VERTEX
  8
1
 62
7
  6
CONTINUOUS
 10
-2502.74931483962
 20
779.91580970031
  0
VERTEX
  8
1
 62
7
  6
CONTINUOUS
 10
-2495.75118887574
 20
763.588970688657
  0
VERTEX
  8
1
 62
7
  6
CONTINUOUS
 10
-2495.74886496227
 20
745.586857768406
  0
VERTEX
  8
1
 62
7
  6
CONTINUOUS
 10
-2506.36258823915
 20
731.439501657879
  0
VERTEX
  8
1
 62
7
  6
CONTINUOUS
 10
-2532.19669489074
 20
718.528947327809
  0
VERTEX
  8
1
 62
7
  6
CONTINUOUS
 10
-2563.23111908762
 20
717.617649564272
  0
VERTEX
  8
1
 62
7
  6
CONTINUOUS
 10
-2621.6295809801
 20
706.997036609682
  0
VERTEX
  8
1
 62
7
  6
CONTINUOUS
 10
-2662.17267187009
 20
708.679441988089
  0
VERTEX
  8
1
 62
7
  6
CONTINUOUS
 10
-2681.63173450771
 20
728.138884344196
  0
VERTEX
  8
1
 62
7
  6
CONTINUOUS
 10
-2687.57124711703
 20
781.625303502195
  0
VERTEX
  8
1
 62
7
  6
CONTINUOUS
 10
-2695.74135295077
 20
801.234746662751
  0
VERTEX
  8
1
 62
7
  6
CONTINUOUS
 10
-2707.68342341418
 20
817.197284424888
  0
VERTEX
  8
1
 62
7
  6
CONTINUOUS
 10
-2718.43287323422
 20
821.686333450421
  0
VERTEX
  8
1
 62
7
  6
CONTINUOUS
 10
-2728.83461720303
 20
817.198188920754
  0
VERTEX
  8
1
 62
7
  6
CONTINUOUS
 10
-2745.89481707527
 20
803.533632391366
  0
VERTEX
  8
1
 62
7
  6
CONTINUOUS
 10
-2756.74377781817
 20
787.257636817139
  0
VERTEX
  8
1
 62
7
  6
CONTINUOUS
 10
-2782.42500968679
 20
761.56743190421
  0
VERTEX
  8
1
 62
7
  6
CONTINUOUS
 10
-2783.75991626825
 20
754.227329658262
  0
VERTEX
  8
1
 62
7
  6
CONTINUOUS
 10
-2837.09513231064
 20
683.532213886132
  0
VERTEX
  8
1
 62
7
  6
CONTINUOUS
 10
-2858.76822631122
 20
681.239755466983
  0
VERTEX
  8
1
 62
7
  6
CONTINUOUS
 10
-2871.76818597257
 20
664.195384288453
  0
VERTEX
  8
1
 62
7
  6
CONTINUOUS
 10
-2871.74537110054
 20
651.228233120477
  0
VERTEX
  8
1
 62
7
  6
CONTINUOUS
 10
-2859.76671269158
 20
624.268008261018
  0
VERTEX
  8
1
 62
7
  6
CONTINUOUS
 10
-2822.81426401216
 20
604.54150250988
  0
VERTEX
  8
1
 62
7
  6
CONTINUOUS
 10
-2816.45886739238
 20
579.066975294167
  0
VERTEX
  8
1
 62
7
  6
CONTINUOUS
 10
-2821.75467682678
 20
533.282488664474
  0
VERTEX
  8
1
 62
7
  6
CONTINUOUS
 10
-2815.74993012391
 20
519.249888845818
  0
VERTEX
  8
1
 62
7
  6
CONTINUOUS
 10
-2791.73894105254
 20
507.243278906604
  0
VERTEX
  8
1
 62
7
  6
CONTINUOUS
 10
-2773.35034030557
 20
493.919054008498
  0
VERTEX
  8
1
 62
7
  6
CONTINUOUS
 10
-2757.32116167733
 20
457.993547069583
  0
VERTEX
  8
1
 62
7
  6
CONTINUOUS
 10
-2744.35178354052
 20
470.104502655974
  0
VERTEX
  8
1
 62
7
  6
CONTINUOUS
 10
-2744.80766724092
 20
461.71238046898
  0
VERTEX
  8
1
 62
7
  6
CONTINUOUS
 10
-2749.1210781844
 20
449.300441443082
  0
VERTEX
  8
1
 62
7
  6
CONTINUOUS
 10
-2748.83203593156
 20
446.454148838056
  0
VERTEX
  8
1
 62
7
  6
CONTINUOUS
 10
-2735.3965944959
 20
429.257286854629
  0
VERTEX
  8
1
 62
7
  6
CONTINUOUS
 10
-2699.77117530697
 20
396.606812849018
  0
VERTEX
  8
1
 62
7
  6
CONTINUOUS
 10
-2685.51309667804
 20
377.587931474562
  0
VERTEX
  8
1
 62
7
  6
CONTINUOUS
 10
-2630.63513476939
 20
364.914910538436
  0
VERTEX
  8
1
 62
7
  6
CONTINUOUS
 10
-2614.36604576773
 20
352.71230986959
  0
VERTEX
  8
1
 62
7
  6
CONTINUOUS
 10
-2584.75534242892
 20
289.258208702405
  0
VERTEX
  8
1
 62
7
  6
CONTINUOUS
 10
-2553.06899779238
 20
252.445049777348
  0
VERTEX
  8
1
 62
7
  6
CONTINUOUS
 10
-2543.66648200574
 20
250.639590667885
  0
VERTEX
  8
1
 62
7
  6
CONTINUOUS
 10
-2536.6686397425
 20
264.4046306758
  0
VERTEX
  8
1
 62
7
  6
CONTINUOUS
 10
-2525.90148281505
 20
282.124154944516
  0
VERTEX
  8
1
 62
7
  6
CONTINUOUS
 10
-2525.85928284092
 20
287.144035281693
  0
VERTEX
  8
1
 62
7
  6
CONTINUOUS
 10
-2519.33611803135
 20
287.491399753664
  0
VERTEX
  8
1
 62
7
  6
CONTINUOUS
 10
-2514.68725163722
 20
294.608874067322
  0
VERTEX
  8
1
 62
7
  6
CONTINUOUS
 10
-2514.80181321442
 20
302.957857545175
  0
VERTEX
  8
1
 62
7
  6
CONTINUOUS
 10
-2510.69179544865
 20
316.941949441011
  0
VERTEX
  8
1
 62
7
  6
CONTINUOUS
 10
-2501.89475376105
 20
304.826678351887
  0
VERTEX
  8
1
 62
7
  6
CONTINUOUS
 10
-2502.20630887515
 20
292.418641196762
  0
VERTEX
  8
1
 62
7
  6
CONTINUOUS
 10
-2492.43358559615
 20
304.998187756529
  0
VERTEX
  8
1
 62
7
  6
CONTINUOUS
 10
-2479.02024028051
 20
297.854648502209
  0
VERTEX
  8
1
 62
7
  6
CONTINUOUS
 10
-2439.67186369517
 20
219.21946649571
  0
VERTEX
  8
1
 62
7
  6
CONTINUOUS
 10
-2414.65538671528
 20
228.329261935881
  0
VERTEX
  8
1
 62
7
  6
CONTINUOUS
 10
-2400.74261117909
 20
251.276767581137
  0
VERTEX
  8
1
 62
7
  6
CONTINUOUS
 10
-2400.75396337561
 20
266.269395655735
  0
VERTEX
  8
1
 62
7
  6
CONTINUOUS
 10
-2433.75060927809
 20
345.251763408951
  0
VERTEX
  8
1
 62
7
  6
CONTINUOUS
 10
-2443.7383260772
 20
387.154831926563
  0
VERTEX
  8
1
 62
7
  6
CONTINUOUS
 10
-2444.65537789792
 20
422.417540488974
  0
VERTEX
  8
1
 62
7
  6
CONTINUOUS
 10
-2437.79072539303
 20
422.233361687074
  0
VERTEX
  8
1
 62
7
  6
CONTINUOUS
 10
-2426.81563680907
 20
433.277728046472
  0
VERTEX
  8
1
 62
7
  6
CONTINUOUS
 10
-2426.59970628422
 20
412.921228975808
  0
VERTEX
  8
1
 62
7
  6
CONTINUOUS
 10
-2415.70580188848
 20
402.19894185661
  0
VERTEX
  8
1
 62
7
  6
CONTINUOUS
 10
-2407.75688674158
 20
391.258988226572
  0
VERTEX
  8
1
 62
7
  6
CONTINUOUS
 10
-2350.70094017762
 20
320.233885789753
  0
VERTEX
  8
1
 62
7
  6
CONTINUOUS
 10
-2325.69442314088
 20
320.24606372856
  0
VERTEX
  8
1
 62
7
  6
CONTINUOUS
 10
-2319.74933657346
 20
319.326847474118
  0
VERTEX
  8
1
 62
7
  6
CONTINUOUS
 10
-2259.65915167898
 20
314.704557616099
  0
VERTEX
  8
1
 62
7
  6
CONTINUOUS
 10
-2225.63853867323
 20
297.694195970271
  0
VERTEX
  8
1
 62
7
  6
CONTINUOUS
 10
-2200.68773609136
 20
276.582608843032
  0
VERTEX
  8
1
 62
7
  6
CONTINUOUS
 10
-2179.78111308166
 20
239.418276538362
  0
VERTEX
  8
1
 62
7
  6
CONTINUOUS
 10
-2152.75208477613
 20
216.251904943087
  0
VERTEX
  8
1
 62
7
  6
CONTINUOUS
 10
-2115.7240870884
 20
179.235050083501
  0
VERTEX
  8
1
 62
7
  6
CONTINUOUS
 10
-2104.7290315001
 20
176.242925088682
  0
VERTEX
  8
1
 62
7
  6
CONTINUOUS
 10
-2014.45545091116
 20
139.381088826871
  0
VERTEX
  8
1
 62
7
  6
CONTINUOUS
 10
-2004.64602629161
 20
146.36361322842
  0
VERTEX
  8
1
 62
7
  6
CONTINUOUS
 10
-1983.74811033599
 20
180.253223276429
  0
VERTEX
  8
1
 62
7
  6
CONTINUOUS
 10
-1954.6382209995
 20
230.811612691313
  0
VERTEX
  8
1
 62
7
  6
CONTINUOUS
 10
-1947.59718389644
 20
266.011069370839
  0
VERTEX
  8
1
 62
7
  6
CONTINUOUS
 10
-1932.77434791384
 20
291.216443000921
  0
VERTEX
  8
1
 62
7
  6
CONTINUOUS
 10
-1918.8807840645
 20
307.2511827324
  0
VERTEX
  8
1
 62
7
  6
CONTINUOUS
 10
-1911.85142124371
 20
307.274670252624
  0
VERTEX
  8
1
 62
7
  6
CONTINUOUS
 10
-1887.05999968283
 20
328.579042834793
  0
VERTEX
  8
1
 62
7
  6
CONTINUOUS
 10
-1874.7590042315
 20
334.735536585261
  0
VERTEX
  8
1
 62
7
  6
CONTINUOUS
 10
-1874.73720778282
 20
345.793043955434
  0
VERTEX
  8
1
 62
7
  6
CONTINUOUS
 10
-1871.25540275485
 20
351.162163773098
  0
VERTEX
  8
1
 62
7
  6
CONTINUOUS
 10
-1855.69140025925
 20
351.192334119157
  0
VERTEX
  8
1
 62
7
  6
CONTINUOUS
 10
-1855.66703557868
 20
338.060798563692
  0
VERTEX
  8
1
 62
7
  6
CONTINUOUS
 10
-1840.85860217245
 20
323.356475624374
  0
VERTEX
  8
1
 62
7
  6
CONTINUOUS
 10
-1834.26051012809
 20
292.897690390737
  0
VERTEX
  8
1
 62
7
  6
CONTINUOUS
 10
-1839.77510643771
 20
285.186320070991
  0
VERTEX
  8
1
 62
7
  6
CONTINUOUS
 10
-1850.30573282903
 20
212.310369246569
  0
VERTEX
  8
1
 62
7
  6
CONTINUOUS
 10
-1824.74819103233
 20
150.246303437505
  0
VERTEX
  8
1
 62
7
  6
CONTINUOUS
 10
-1807.75234555601
 20
121.253004971041
  0
VERTEX
  8
1
 62
7
  6
CONTINUOUS
 10
-1796.76158651471
 20
110.258708691837
  0
VERTEX
  8
1
 62
7
  6
CONTINUOUS
 10
-1776.76619590329
 20
99.254183465394
  0
VERTEX
  8
1
 62
7
  6
CONTINUOUS
 10
-1736.84353324701
 20
99.2226813474
  0
VERTEX
  8
1
 62
7
  6
CONTINUOUS
 10
-1730.8227842282
 20
103.146644327284
  0
VERTEX
  8
1
 62
7
  6
CONTINUOUS
 10
-1729.10070700777
 20
111.847204329619
  0
VERTEX
  8
1
 62
7
  6
CONTINUOUS
 10
-1727.00864237768
 20
112.850233659007
  0
VERTEX
  8
1
 62
7
  6
CONTINUOUS
 10
-1728.83753902982
 20
152.187250474156
  0
VERTEX
  8
1
 62
7
  6
CONTINUOUS
 10
-1708.97886058553
 20
172.011395325896
  0
VERTEX
  8
1
 62
7
  6
CONTINUOUS
 10
-1659.81068110651
 20
181.834941779637
  0
VERTEX
  8
1
 62
7
  6
CONTINUOUS
 10
-1641.88659201505
 20
192.921693649272
  0
VERTEX
  8
1
 62
7
  6
CONTINUOUS
 10
-1616.53217658409
 20
256.203962326866
  0
VERTEX
  8
1
 62
7
  6
CONTINUOUS
 10
-1615.80831811074
 20
264.197601256845
  0
VERTEX
  8
1
 62
7
  6
CONTINUOUS
 10
-1611.90727110875
 20
264.382919711729
  0
VERTEX
  8
1
 62
7
  6
CONTINUOUS
 10
-1605.45186183519
 20
284.224884675245
  0
VERTEX
  8
1
 62
7
  6
CONTINUOUS
 10
-1600.60996763222
 20
284.299933253817
  0
VERTEX
  8
1
 62
7
  6
CONTINUOUS
 10
-1597.07755575508
 20
267.391972108753
  0
VERTEX
  8
1
 62
7
  6
CONTINUOUS
 10
-1577.64331834508
 20
270.312718719423
  0
VERTEX
  8
1
 62
7
  6
CONTINUOUS
 10
-1573.52591982475
 20
275.364746974866
  0
VERTEX
  8
1
 62
7
  6
CONTINUOUS
 10
-1571.46239280652
 20
275.267290915815
  0
VERTEX
  8
1
 62
7
  6
CONTINUOUS
 10
-1555.85317161239
 20
276.223404343635
  0
VERTEX
  8
1
 62
7
  6
CONTINUOUS
 10
-1546.28661760799
 20
281.000138140621
  0
VERTEX
  8
1
 62
7
  6
CONTINUOUS
 10
-1530.7344561792
 20
273.246355547656
  0
VERTEX
  8
1
 62
7
  6
CONTINUOUS
 10
-1515.79407977328
 20
273.233804552595
  0
VERTEX
  8
1
 62
7
  6
CONTINUOUS
 10
-1500.74884938525
 20
286.252337475269
  0
VERTEX
  8
1
 62
7
  6
CONTINUOUS
 10
-1495.26614769837
 20
358.619997767169
  0
VERTEX
  8
1
 62
7
  6
CONTINUOUS
 10
-1488.92934300591
 20
378.671362892599
  0
VERTEX
  8
1
 62
7
  6
CONTINUOUS
 10
-1481.32400964915
 20
511.61259033906
  0
VERTEX
  8
1
 62
7
  6
CONTINUOUS
 10
-1382.7415448337
 20
506.251247220523
  0
VERTEX
  8
1
 62
7
  6
CONTINUOUS
 10
-1368.77438008442
 20
511.231890774325
  0
VERTEX
  8
1
 62
7
  6
CONTINUOUS
 10
-1360.74408847595
 20
522.268370137846
  0
VERTEX
  8
1
 62
7
  6
CONTINUOUS
 10
-1360.74656759384
 20
536.235281989469
  0
VERTEX
  8
1
 62
7
  6
CONTINUOUS
 10
-1393.84533145205
 20
602.417037604032
  0
VERTEX
  8
1
 62
7
  6
CONTINUOUS
 10
-1287.06563789716
 20
665.242674681842
  0
VERTEX
  8
1
 62
7
  6
CONTINUOUS
 10
-1276.76642802094
 20
680.198175599314
  0
VERTEX
  8
1
 62
7
  6
CONTINUOUS
 10
-1276.76662926131
 20
698.6710469543
  0
VERTEX
  8
1
 62
7
  6
CONTINUOUS
 10
-1252.90920799417
 20
716.951754475622
  0
VERTEX
  8
1
 62
7
  6
CONTINUOUS
 10
-1253.08264064303
 20
720.482977017675
  0
VERTEX
  8
1
 62
7
  6
CONTINUOUS
 10
-1231.73085485261
 20
725.172792767396
  0
VERTEX
  8
1
 62
7
  6
CONTINUOUS
 10
-1240.99390410317
 20
707.316749717175
  0
VERTEX
  8
1
 62
7
  6
CONTINUOUS
 10
-1229.80383682987
 20
709.978988334591
  0
VERTEX
  8
1
 62
7
  6
CONTINUOUS
 10
-1212.82702791771
 20
736.016524443457
  0
VERTEX
  8
1
 62
7
  6
CONTINUOUS
 10
-1212.87349709884
 20
738.347873417076
  0
VERTEX
  8
1
 62
7
  6
CONTINUOUS
 10
-1158.4070103343
 20
777.134792013279
  0
VERTEX
  8
1
 62
7
  6
CONTINUOUS
 10
-1142.76135739915
 20
778.245861635129
  0
VERTEX
  8
1
 62
7
  6
CONTINUOUS
 10
-1127.75236866854
 20
789.246676851269
  0
VERTEX
  8
1
 62
7
  6
CONTINUOUS
 10
-1098.57123232433
 20
887.231259446916
  0
VERTEX
  8
1
 62
7
  6
CONTINUOUS
 10
-1089.59715319783
 20
909.077560294813
  0
VERTEX
  8
1
 62
7
  6
CONTINUOUS
 10
-1126.45516510811
 20
938.621414598224
  0
VERTEX
  8
1
 62
7
  6
CONTINUOUS
 10
-1159.74929182231
 20
980.248880343524
  0
VERTEX
  8
1
 62
7
  6
CONTINUOUS
 10
-1180.25029458059
 20
1021.25086645088
  0
VERTEX
  8
1
 62
7
  6
CONTINUOUS
 10
-1186.74835771518
 20
1060.22944058317
  0
VERTEX
  8
1
 62
7
  6
CONTINUOUS
 10
-1186.66624174244
 20
1101.03370182514
  0
VERTEX
  8
1
 62
7
  6
CONTINUOUS
 10
-1194.75939508142
 20
1109.55609412705
  0
VERTEX
  8
1
 62
7
  6
CONTINUOUS
 10
-1192.58723639187
 20
1112.15330222265
  0
VERTEX
  8
1
 62
7
  6
CONTINUOUS
 10
-1194.5062696005
 20
1117.58299278002
  0
VERTEX
  8
1
 62
7
  6
CONTINUOUS
 10
-1237.76260969055
 20
1146.25910978888
  0
VERTEX
  8
1
 62
7
  6
CONTINUOUS
 10
-1262.39095845676
 20
1165.61064528326
  0
VERTEX
  8
1
 62
7
  6
CONTINUOUS
 10
-1277.72926913878
 20
1174.23777946066
  0
VERTEX
  8
1
 62
7
  6
CONTINUOUS
 10
-1327.76734297334
 20
1204.83620839292
  0
VERTEX
  8
1
 62
7
  6
CONTINUOUS
 10
-1327.73783811495
 20
1223.31130947518
  0
VERTEX
  8
1
 62
7
  6
CONTINUOUS
 10
-1318.74830632992
 20
1244.2525512239
  0
VERTEX
  8
1
 62
7
  6
CONTINUOUS
 10
-1243.74878873841
 20
1319.2514245188
  0
VERTEX
  8
1
 62
7
  6
CONTINUOUS
 10
-1181.76119718177
 20
1400.23333507383
  0
VERTEX
  8
1
 62
7
  6
CONTINUOUS
 10
-1166.751552603
 20
1426.24298794711
  0
VERTEX
  8
1
 62
7
  6
CONTINUOUS
 10
-1168.75280771309
 20
1447.2580415982
  0
VERTEX
  8
1
 62
7
  6
CONTINUOUS
 10
-1188.66367534127
 20
1478.17371893495
  0
VERTEX
  8
1
 62
7
  6
CONTINUOUS
 10
-1199.75393115133
 20
1483.25608975742
  0
VERTEX
  8
1
 62
7
  6
CONTINUOUS
 10
-1199.80380584354
 20
1491.37503766985
  0
VERTEX
  8
1
 62
7
  6
CONTINUOUS
 10
-1229.10160286481
 20
1520.59533377412
  0
VERTEX
  8
1
 62
7
  6
CONTINUOUS
 10
-1250.73522107711
 20
1529.24102561669
  0
VERTEX
  8
1
 62
7
  6
CONTINUOUS
 10
-1257.70964615949
 20
1535.22929126623
  0
VERTEX
  8
1
 62
7
  6
CONTINUOUS
 10
-1287.70486580873
 20
1542.43082913556
  0
VERTEX
  8
1
 62
7
  6
CONTINUOUS
 10
-1294.54146841783
 20
1537.97705807904
  0
VERTEX
  8
1
 62
7
  6
CONTINUOUS
 10
-1299.63091950728
 20
1547.57801391657
  0
VERTEX
  8
1
 62
7
  6
CONTINUOUS
 10
-1309.91082482468
 20
1549.26191254917
  0
VERTEX
  8
1
 62
7
  6
CONTINUOUS
 10
-1324.69124373472
 20
1549.24577408884
  0
VERTEX
  8
1
 62
7
  6
CONTINUOUS
 10
-1354.74767910776
 20
1553.24799940287
  0
VERTEX
  8
1
 62
7
  6
CONTINUOUS
 10
-1356.92327902409
 20
1560.41324225194
  0
VERTEX
  8
1
 62
7
  6
CONTINUOUS
 10
-1367.7353207595
 20
1563.24803271314
  0
VERTEX
  8
1
 62
7
  6
CONTINUOUS
 10
-1374.63514640405
 20
1563.17684649618
  0
VERTEX
  8
1
 62
7
  6
CONTINUOUS
 10
-1379.70249266631
 20
1573.05303564177
  0
VERTEX
  8
1
 62
7
  6
CONTINUOUS
 10
-1406.77919142115
 20
1579.25813601084
  0
VERTEX
  8
1
 62
7
  6
CONTINUOUS
 10
-1427.72109453552
 20
1586.2473307446
  0
VERTEX
  8
1
 62
7
  6
CONTINUOUS
 10
-1466.47322802118
 20
1580.52466584634
  0
VERTEX
  8
1
 62
7
  6
CONTINUOUS
 10
-1474.59194250335
 20
1586.28657452041
  0
VERTEX
  8
1
 62
7
  6
CONTINUOUS
 10
-1478.88610544493
 20
1578.351384416
  0
VERTEX
  8
1
 62
7
  6
CONTINUOUS
 10
-1512.34595391959
 20
1581.6005387925
  0
VERTEX
  8
1
 62
7
  6
CONTINUOUS
 10
-1522.70915244057
 20
1597.10744672461
  0
VERTEX
  8
1
 62
7
  6
CONTINUOUS
 10
-1522.75825730567
 20
1607.24084689433
  0
VERTEX
  8
1
 62
7
  6
CONTINUOUS
 10
-1507.64360812084
 20
1608.9680696158
  0
VERTEX
  8
1
 62
7
  6
CONTINUOUS
 10
-1485.53285952677
 20
1622.63544122954
  0
VERTEX
  8
1
 62
7
  6
CONTINUOUS
 10
-1459.47294985381
 20
1625.92539889822
  0
VERTEX
  8
1
 62
7
  6
CONTINUOUS
 10
-1454.47138980887
 20
1648.47112688128
  0
VERTEX
  8
1
 62
7
  6
CONTINUOUS
 10
-1437.95912039882
 20
1689.73574141403
  0
VERTEX
  8
1
 62
7
  6
CONTINUOUS
 10
-1440.75148309014
 20
1709.27002270714
  0
VERTEX
  8
1
 62
7
  6
CONTINUOUS
 10
-1440.75003342462
 20
1744.2501451817
  0
VERTEX
  8
1
 62
7
  6
CONTINUOUS
 10
-1451.74685686136
 20
1799.23061052083
  0
VERTEX
  8
1
 62
7
  6
CONTINUOUS
 10
-1456.45190229671
 20
1835.3684606491
  0
VERTEX
  8
1
 62
7
  6
CONTINUOUS
 10
-1475.30707691405
 20
1853.19615347077
  0
VERTEX
  8
1
 62
7
  6
CONTINUOUS
 10
-1486.42492507078
 20
1853.22001409121
  0
VERTEX
  8
1
 62
7
  6
CONTINUOUS
 10
-1490.59334791536
 20
1867.54031675591
  0
VERTEX
  8
1
 62
7
  6
CONTINUOUS
 10
-1552.90808061364
 20
1894.75852733598
  0
VERTEX
  8
1
 62
7
  6
CONTINUOUS
 10
-1616.06499611153
 20
1938.97306806903
  0
VERTEX
  8
1
 62
7
  6
CONTINUOUS
 10
-1666.39577742938
 20
1964.79429326268
  0
VERTEX
  8
1
 62
7
  6
CONTINUOUS
 10
-1685.5866502346
 20
1951.69204414826
  0
VERTEX
  8
1
 62
7
  6
CONTINUOUS
 10
-1685.65717986187
 20
1940.12198830171
  0
VERTEX
  8
1
 62
7
  6
CONTINUOUS
 10
-1703.14713202483
 20
1949.59020544591
  0
VERTEX
  8
1
 62
7
  6
CONTINUOUS
 10
-1747.84923935527
 20
1994.34891301891
  0
VERTEX
  8
1
 62
7
  6
CONTINUOUS
 10
-1802.75214624661
 20
2110.2528630869
  0
VERTEX
  8
1
 62
7
  6
CONTINUOUS
 10
-1830.72771305856
 20
2135.23467185992
  0
VERTEX
  8
1
 62
7
  6
CONTINUOUS
 10
-1881.37838122998
 20
2161.26209298496
  0
VERTEX
  8
1
 62
7
  6
CONTINUOUS
 10
-1894.58068759963
 20
2152.3223826367
  0
VERTEX
  8
1
 62
7
  6
CONTINUOUS
 10
-1891.90569708188
 20
2166.72016596891
  0
VERTEX
  8
1
 62
7
  6
CONTINUOUS
 10
-1901.81832304231
 20
2177.32026600866
  0
VERTEX
  8
1
 62
7
  6
CONTINUOUS
 10
-1926.7339353048
 20
2202.22381299384
  0
VERTEX
  8
1
 62
7
  6
CONTINUOUS
 10
-1931.90170533497
 20
2217.6901165995
  0
VERTEX
  8
1
 62
7
  6
CONTINUOUS
 10
-1947.62799788459
 20
2228.15214539663
  0
VERTEX
  8
1
 62
7
  6
CONTINUOUS
 10
-1967.68205148615
 20
2246.25974606527
  0
VERTEX
  8
1
 62
7
  6
CONTINUOUS
 10
-1973.2149467892
 20
2237.35527508152
  0
VERTEX
  8
1
 62
7
  6
CONTINUOUS
 10
-2004.65533098098
 20
2253.13941421964
  0
VERTEX
  8
1
 62
7
  6
CONTINUOUS
 10
-2020.2482329261
 20
2241.30290220207
  0
VERTEX
  8
1
 62
7
  6
CONTINUOUS
 10
-2027.80502226548
 20
2241.30418312908
  0
VERTEX
  8
1
 62
7
  6
CONTINUOUS
 10
-2027.65860094539
 20
2244.48771004022
  0
VERTEX
  8
1
 62
7
  6
CONTINUOUS
 10
-2014.47984436804
 20
2261.40718552629
  0
VERTEX
  8
1
 62
7
  6
CONTINUOUS
 10
-2018.67532144276
 20
2263.79856653311
  0
VERTEX
  8
1
 62
7
  6
CONTINUOUS
 10
-2038.08507557722
 20
2274.07279796844
  0
VERTEX
  8
1
 62
7
  6
CONTINUOUS
 10
-2031.76713925301
 20
2282.34071509443
  0
VERTEX
  8
1
 62
7
  6
CONTINUOUS
 10
-2035.11228802809
 20
2286.05707952401
  0
VERTEX
  8
1
 62
7
  6
CONTINUOUS
 10
-2044.02315303135
 20
2287.10583599204
  0
VERTEX
  8
1
 62
7
  6
CONTINUOUS
 10
-2046.8746855305
 20
2281.06881066391
  0
VERTEX
  8
1
 62
7
  6
CONTINUOUS
 10
-2054.79679811626
 20
2273.25739635512
  0
VERTEX
  8
1
 62
7
  6
CONTINUOUS
 10
-2058.66469558112
 20
2280.47988675584
  0
VERTEX
  8
1
 62
7
  6
CONTINUOUS
 10
-2066.75456006978
 20
2280.25190763381
  0
VERTEX
  8
1
 62
7
  6
CONTINUOUS
 10
-2071.56401416383
 20
2284.90424794008
  0
VERTEX
  8
1
 62
7
  6
CONTINUOUS
 10
-2077.85728100335
 20
2283.17230702298
  0
VERTEX
  8
1
 62
7
  6
CONTINUOUS
 10
-2082.13112726634
 20
2276.37336993022
  0
VERTEX
  8
1
 62
7
  6
CONTINUOUS
 10
-2096.0418824165
 20
2281.97359924007
  0
VERTEX
  8
1
 62
7
  6
CONTINUOUS
 10
-2100.50111071039
 20
2272.40009528767
  0
VERTEX
  8
1
 62
7
  6
CONTINUOUS
 10
-2090.35999067044
 20
2269.56917178622
  0
VERTEX
  8
1
 62
7
  6
CONTINUOUS
 10
-2100.94201649222
 20
2263.10008455636
  0
VERTEX
  8
1
 62
7
  6
CONTINUOUS
 10
-2109.74956462335
 20
2255.31401356574
  0
VERTEX
  8
1
 62
7
  6
CONTINUOUS
 10
-2112.01492062645
 20
2257.50865585349
  0
VERTEX
  8
1
 62
7
  6
CONTINUOUS
 10
-2107.80497204784
 20
2268.83909172104
  0
VERTEX
  8
1
 62
7
  6
CONTINUOUS
 10
-2139.05751365466
 20
2279.30433631953
  0
VERTEX
  8
1
 62
7
  6
CONTINUOUS
 10
-2128.81569855099
 20
2285.94702541249
  0
VERTEX
  8
1
 62
7
  6
CONTINUOUS
 10
-2152.82396210241
 20
2290.29278409926
  0
VERTEX
  8
1
 62
7
  6
CONTINUOUS
 10
-2152.78947964634
 20
2284.0363037005
  0
VERTEX
  8
1
 62
7
  6
CONTINUOUS
 10
-2170.90235332319
 20
2283.71842120903
  0
VERTEX
  8
1
 62
7
  6
CONTINUOUS
 10
-2170.30279886231
 20
2274.24812168547
  0
VERTEX
  8
1
 62
7
  6
CONTINUOUS
 10
-2157.30075312251
 20
2272.3568131797
  0
VERTEX
  8
1
 62
7
  6
CONTINUOUS
 10
-2151.93060589699
 20
2275.19478257287
  0
VERTEX
  8
1
 62
7
  6
CONTINUOUS
 10
-2152.57432236222
 20
2276.09812065154
  0
VERTEX
  8
1
 62
7
  6
CONTINUOUS
 10
-2149.48211501672
 20
2276.48874005407
  0
VERTEX
  8
1
 62
7
  6
CONTINUOUS
 10
-2151.93060589699
 20
2275.19478257287
  0
VERTEX
  8
1
 62
7
  6
CONTINUOUS
 10
-2148.06930749477
 20
2269.77615796366
  0
VERTEX
  8
1
 62
7
  6
CONTINUOUS
 10
-2169.94312370281
 20
2263.15593539535
  0
VERTEX
  8
1
 62
7
  6
CONTINUOUS
 10
-2192.43320566347
 20
2248.33302657266
  0
VERTEX
  8
1
 62
7
  6
CONTINUOUS
 10
-2197.72260372761
 20
2248.22239001451
  0
VERTEX
  8
1
 62
7
  6
CONTINUOUS
 10
-2197.62447580315
 20
2250.80913682358
  0
VERTEX
  8
1
 62
7
  6
CONTINUOUS
 10
-2188.70431695688
 20
2257.31957461667
  0
VERTEX
  8
1
 62
7
  6
CONTINUOUS
 10
-2192.27880099151
 20
2264.82112896541
  0
VERTEX
  8
1
 62
7
  6
CONTINUOUS
 10
-2185.07027869844
 20
2270.82048755804
  0
VERTEX
  8
1
 62
7
  6
CONTINUOUS
 10
-2185.18848620665
 20
2271.29973496373
  0
VERTEX
  8
1
 62
7
  6
CONTINUOUS
 10
-2243.26932838702
 20
2305.76502373733
  0
VERTEX
  8
1
 62
7
  6
CONTINUOUS
 10
-2277.7463940105
 20
2340.24590701783
  0
VERTEX
  8
1
 62
7
  6
CONTINUOUS
 10
-2298.74897727463
 20
2367.24786226321
  0
VERTEX
  8
1
 62
7
  6
CONTINUOUS
 10
-2308.42381468873
 20
2405.93489948478
  0
VERTEX
  8
1
 62
7
  6
CONTINUOUS
 10
-2309.73259990169
 20
2501.22711809784
  0
VERTEX
  8
1
 62
7
  6
CONTINUOUS
 10
-2325.6865300049
 20
2505.73537535725
  0
VERTEX
  8
1
 62
7
  6
CONTINUOUS
 10
-2325.8032962763
 20
2510.19756689979
  0
VERTEX
  8
1
 62
7
  6
CONTINUOUS
 10
-2310.16490908147
 20
2510.51146768922
  0
VERTEX
  8
1
 62
7
  6
CONTINUOUS
 10
-2309.12902006611
 20
2522.98068068834
  0
VERTEX
  8
1
 62
7
  6
CONTINUOUS
 10
-2322.77394957851
 20
2555.2519555931
  0
VERTEX
  8
1
 62
7
  6
CONTINUOUS
 10
-2335.28573975797
 20
2535.30152868032
  0
VERTEX
  8
1
 62
7
  6
CONTINUOUS
 10
-2341.15072045552
 20
2535.08210299444
  0
VERTEX
  8
1
 62
7
  6
CONTINUOUS
 10
-2328.3207712199
 20
2561.24024858552
  0
VERTEX
  8
1
 62
7
  6
CONTINUOUS
 10
-2347.41016505162
 20
2603.20603840958
  0
VERTEX
  8
1
 62
7
  6
CONTINUOUS
 10
-2373.84565044023
 20
2603.34313530136
  0
VERTEX
  8
1
 62
7
  6
CONTINUOUS
 10
-2373.70489386708
 20
2614.40850075077
  0
VERTEX
  8
1
 62
7
  6
CONTINUOUS
 10
-2359.34420455566
 20
2635.8463342645
  0
VERTEX
  8
1
 62
7
  6
CONTINUOUS
 10
-2388.56029945021
 20
2720.49248902626
  0
VERTEX
  8
1
 62
7
  6
CONTINUOUS
 10
-2396.72918750293
 20
2746.43119308306
  0
VERTEX
  8
1
 62
7
  6
CONTINUOUS
 10
-2396.5476579791
 20
2746.66910038727
  0
VERTEX
  8
1
 62
7
  6
CONTINUOUS
 10
-2402.13812497138
 20
2754.34531955602
  0
VERTEX
  8
1
 62
7
  6
CONTINUOUS
 10
-2404.61389389628
 20
2752.58191727573
  0
VERTEX
  8
1
 62
7
  6
CONTINUOUS
 10
-2413.5746880979
 20
2754.20820123396
  0
VERTEX
  8
1
 62
7
  6
CONTINUOUS
 10
-2423.88333618159
 20
2759.00828442007
  0
VERTEX
  8
1
 62
7
  6
CONTINUOUS
 10
-2431.22441344862
 20
2751.85276206833
  0
VERTEX
  8
1
 62
7
  6
CONTINUOUS
 10
-2457.89540971891
 20
2757.84413453171
  0
VERTEX
  8
1
 62
7
  6
CONTINUOUS
 10
-2475.7899113514
 20
2770.37772293134
  0
VERTEX
  8
1
 62
7
  6
CONTINUOUS
 10
-2503.1796458326
 20
2772.10678787445
  0
VERTEX
  8
1
 62
7
  6
CONTINUOUS
 10
-2536.74594954839
 20
2762.67590947233
  0
VERTEX
  8
1
 62
7
  6
CONTINUOUS
 10
-2530.87402692366
 20
2744.06983252186
  0
VERTEX
  8
1
 62
7
  6
CONTINUOUS
 10
-2536.22767374639
 20
2744.26939973369
  0
VERTEX
  8
1
 62
7
  6
CONTINUOUS
 10
-2547.56424937131
 20
2763.16532208967
  0
VERTEX
  8
1
 62
7
  6
CONTINUOUS
 10
-2550.46534950048
 20
2756.62292348695
  0
VERTEX
  8
1
 62
7
  6
CONTINUOUS
 10
-2556.20083724063
 20
2756.35155958248
  0
VERTEX
  8
1
 62
7
  6
CONTINUOUS
 10
-2562.12788357739
 20
2732.83637969608
  0
VERTEX
  8
1
 62
7
  6
CONTINUOUS
 10
-2573.40342565557
 20
2721.56271838026
  0
VERTEX
  8
1
 62
7
  6
CONTINUOUS
 10
-2597.15427503228
 20
2708.07646435899
  0
VERTEX
  8
1
 62
7
  6
CONTINUOUS
 10
-2596.18061427809
 20
2713.86314415733
  0
VERTEX
  8
1
 62
7
  6
CONTINUOUS
 10
-2606.40301969261
 20
2714.05369521207
  0
VERTEX
  8
1
 62
7
  6
CONTINUOUS
 10
-2605.59873509782
 20
2706.01473366403
  0
VERTEX
  8
1
 62
7
  6
CONTINUOUS
 10
-2623.81319374761
 20
2702.23962075798
  0
VERTEX
  8
1
 62
7
  6
CONTINUOUS
 10
-2628.57718601315
 20
2701.27903858878
  0
VERTEX
  8
1
 62
7
  6
CONTINUOUS
 10
-2628.22396885514
 20
2693.23828558071
  0
VERTEX
  8
1
 62
7
  6
CONTINUOUS
 10
-2635.75865738555
 20
2692.21921876934
  0
VERTEX
  8
1
 62
7
  6
CONTINUOUS
 10
-2635.73964726863
 20
2699.83484384914
  0
VERTEX
  8
1
 62
7
  6
CONTINUOUS
 10
-2628.57718601315
 20
2701.27903858878
  0
VERTEX
  8
1
 62
7
  6
CONTINUOUS
 10
-2628.7581494934
 20
2705.39855151513
  0
VERTEX
  8
1
 62
7
  6
CONTINUOUS
 10
-2654.82110768703
 20
2705.32110844547
  0
VERTEX
  8
1
 62
7
  6
CONTINUOUS
 10
-2654.73682480078
 20
2687.89153505678
  0
VERTEX
  8
1
 62
7
  6
CONTINUOUS
 10
-2658.53065143907
 20
2685.45658868289
  0
VERTEX
  8
1
 62
7
  6
CONTINUOUS
 10
-2672.38964198791
 20
2676.125341853
  0
VERTEX
  8
1
 62
7
  6
CONTINUOUS
 10
-2664.47362064109
 20
2670.95386119375
  0
VERTEX
  8
1
 62
7
  6
CONTINUOUS
 10
-2652.75678180465
 20
2671.24773227158
  0
VERTEX
  8
1
 62
7
  6
CONTINUOUS
 10
-2643.9465233591
 20
2677.9489442387
  0
VERTEX
  8
1
 62
7
  6
CONTINUOUS
 10
-2641.30176362559
 20
2691.46951351234
  0
VERTEX
  8
1
 62
7
  6
CONTINUOUS
 10
-2644.862968035
 20
2690.98786052728
  0
VERTEX
  8
1
 62
7
  6
CONTINUOUS
 10
-2645.81443117961
 20
2693.39585418377
  0
VERTEX
  8
1
 62
7
  6
CONTINUOUS
 10
-2640.79090843843
 20
2694.0811129175
  0
VERTEX
  8
1
 62
7
  6
CONTINUOUS
 10
-2641.30176362559
 20
2691.46951351234
  0
VERTEX
  8
1
 62
7
  6
CONTINUOUS
 10
-2635.75865738555
 20
2692.21921876934
  0
VERTEX
  8
1
 62
7
  6
CONTINUOUS
 10
-2635.79128761478
 20
2679.14725329251
  0
VERTEX
  8
1
 62
7
  6
CONTINUOUS
 10
-2650.68791206127
 20
2664.27528739167
  0
VERTEX
  8
1
 62
7
  6
CONTINUOUS
 10
-2672.75859295689
 20
2664.24386177602
  0
VERTEX
  8
1
 62
7
  6
CONTINUOUS
 10
-2682.75994961769
 20
2634.17708512181
  0
VERTEX
  8
1
 62
7
  6
CONTINUOUS
 10
-2681.90856251065
 20
2611.56427415188
  0
VERTEX
  8
1
 62
7
  6
CONTINUOUS
 10
-2670.01464139711
 20
2587.77847796231
  0
VERTEX
  8
1
 62
7
  6
CONTINUOUS
 10
-2657.17742343318
 20
2552.87173737487
  0
VERTEX
  8
1
 62
7
  6
CONTINUOUS
 10
-2662.18850305125
 20
2547.1244620702
  0
VERTEX
  8
1
 62
7
  6
CONTINUOUS
 10
-2648.89274701707
 20
2534.40130259046
  0
VERTEX
  8
1
 62
7
  6
CONTINUOUS
 10
-2649.45932853713
 20
2528.21638052039
  0
VERTEX
  8
1
 62
7
  6
CONTINUOUS
 10
-2636.36127705845
 20
2514.98563233546
  0
VERTEX
  8
1
 62
7
  6
CONTINUOUS
 10
-2638.02601880942
 20
2531.78728655714
  0
VERTEX
  8
1
 62
7
  6
CONTINUOUS
 10
-2644.78284887544
 20
2535.81065184144
  0
VERTEX
  8
1
 62
7
  6
CONTINUOUS
 10
-2643.62450714382
 20
2529.35994533987
  0
VERTEX
  8
1
 62
7
  6
CONTINUOUS
 10
-2648.89274701707
 20
2534.40130259046
  0
VERTEX
  8
1
 62
7
  6
CONTINUOUS
 10
-2648.55773064156
 20
2538.05841123479
  0
VERTEX
  8
1
 62
7
  6
CONTINUOUS
 10
-2644.78284887544
 20
2535.81065184144
  0
VERTEX
  8
1
 62
7
  6
CONTINUOUS
 10
-2647.43869133512
 20
2550.60081242546
  0
VERTEX
  8
1
 62
7
  6
CONTINUOUS
 10
-2647.64865050505
 20
2551.25106640365
  0
VERTEX
  8
1
 62
7
  6
CONTINUOUS
 10
-2632.53042429399
 20
2535.98046891348
  0
VERTEX
  8
1
 62
7
  6
CONTINUOUS
 10
-2628.19770541338
 20
2505.34103803666
  0
VERTEX
  8
1
 62
7
  6
CONTINUOUS
 10
-2638.5574469745
 20
2484.62734591323
  0
VERTEX
  8
1
 62
7
  6
CONTINUOUS
 10
-2642.01288693848
 20
2464.7382042825
  0
VERTEX
  8
1
 62
7
  6
CONTINUOUS
 10
-2651.95485285554
 20
2431.17958260422
  0
VERTEX
  8
1
 62
7
  6
CONTINUOUS
 10
-2658.73483322431
 20
2423.27743443757
  0
VERTEX
  8
1
 62
7
  6
CONTINUOUS
 10
-2663.45144868345
 20
2407.9421465013
  0
VERTEX
  8
1
 62
7
  6
CONTINUOUS
 10
-2692.15609891024
 20
2390.30896513461
  0
VERTEX
  8
1
 62
7
  6
CONTINUOUS
 10
-2703.83889636878
 20
2390.17545133888
  0
VERTEX
  8
1
 62
7
  6
CONTINUOUS
 10
-2705.0569587903
 20
2384.49493482101
  0
VERTEX
  8
1
 62
7
  6
CONTINUOUS
 10
-2726.37269810281
 20
2373.23683139041
  0
VERTEX
  8
1
 62
7
  6
CONTINUOUS
 10
-2737.58574522084
 20
2373.26751093546
  0
VERTEX
  8
1
 62
7
  6
CONTINUOUS
 10
-2745.2101135085
 20
2371.62751103369
  0
VERTEX
  8
1
 62
7
  6
CONTINUOUS
 10
-2752.05568883689
 20
2360.11668281221
  0
VERTEX
  8
1
 62
7
  6
CONTINUOUS
 10
-2745.08943075817
 20
2357.64169009898
  0
VERTEX
  8
1
 62
7
  6
CONTINUOUS
 10
-2756.54863079591
 20
2352.00997826776
  0
VERTEX
  8
1
 62
7
  6
CONTINUOUS
 10
-2761.29271768923
 20
2353.36251857657
  0
VERTEX
  8
1
 62
7
  6
CONTINUOUS
 10
-2774.36777805495
 20
2347.38952394163
  0
VERTEX
  8
1
 62
7
  6
CONTINUOUS
 10
-2767.24416796339
 20
2346.10998317179
  0
VERTEX
  8
1
 62
7
  6
CONTINUOUS
 10
-2776.00726164483
 20
2340.48193950853
  0
VERTEX
  8
1
 62
7
  6
CONTINUOUS
 10
-2777.5252264725
 20
2342.04241580183
  0
VERTEX
  8
1
 62
7
  6
CONTINUOUS
 10
-2772.89204980737
 20
2344.12918858672
  0
VERTEX
  8
1
 62
7
  6
CONTINUOUS
 10
-2777.24410882606
 20
2346.0755484965
  0
VERTEX
  8
1
 62
7
  6
CONTINUOUS
 10
-2774.36777805495
 20
2347.38952394163
  0
VERTEX
  8
1
 62
7
  6
CONTINUOUS
 10
-2784.49640361744
 20
2349.20882471513
  0
VERTEX
  8
1
 62
7
  6
CONTINUOUS
 10
-2777.5252264725
 20
2342.04241580183
  0
VERTEX
  8
1
 62
7
  6
CONTINUOUS
 10
-2784.49235234036
 20
2338.904437326
  0
VERTEX
  8
1
 62
7
  6
CONTINUOUS
 10
-2803.11439528946
 20
2333.83875118869
  0
VERTEX
  8
1
 62
7
  6
CONTINUOUS
 10
-2802.23415035824
 20
2328.21267339264
  0
VERTEX
  8
1
 62
7
  6
CONTINUOUS
 10
-2808.21847815147
 20
2326.17665479045
  0
VERTEX
  8
1
 62
7
  6
CONTINUOUS
 10
-2810.50320008443
 20
2331.82880168297
  0
VERTEX
  8
1
 62
7
  6
CONTINUOUS
 10
-2803.11439528946
 20
2333.83875118869
  0
VERTEX
  8
1
 62
7
  6
CONTINUOUS
 10
-2803.98259943381
 20
2339.38787040045
  0
VERTEX
  8
1
 62
7
  6
CONTINUOUS
 10
-2804.77129788583
 20
2340.41323554091
  0
VERTEX
  8
1
 62
7
  6
CONTINUOUS
 10
-2801.28940896547
 20
2342.45336117306
  0
VERTEX
  8
1
 62
7
  6
CONTINUOUS
 10
-2797.33936083721
 20
2347.29626893056
  0
VERTEX
  8
1
 62
7
  6
CONTINUOUS
 10
-2810.40631111025
 20
2353.52927933262
  0
VERTEX
  8
1
 62
7
  6
CONTINUOUS
 10
-2812.57948480756
 20
2350.25591148117
  0
VERTEX
  8
1
 62
7
  6
CONTINUOUS
 10
-2806.72546165049
 20
2347.18162135896
  0
VERTEX
  8
1
 62
7
  6
CONTINUOUS
 10
-2809.17605500235
 20
2342.85227946747
  0
VERTEX
  8
1
 62
7
  6
CONTINUOUS
 10
-2811.42099664974
 20
2345.25487231384
  0
VERTEX
  8
1
 62
7
  6
CONTINUOUS
 10
-2814.03669897467
 20
2344.17519588979
  0
VERTEX
  8
1
 62
7
  6
CONTINUOUS
 10
-2813.62562096159
 20
2342.09700033393
  0
VERTEX
  8
1
 62
7
  6
CONTINUOUS
 10
-2816.37141429982
 20
2344.54427411399
  0
VERTEX
  8
1
 62
7
  6
CONTINUOUS
 10
-2812.57948480756
 20
2350.25591148117
  0
VERTEX
  8
1
 62
7
  6
CONTINUOUS
 10
-2815.03977214579
 20
2351.54795233217
  0
VERTEX
  8
1
 62
7
  6
CONTINUOUS
 10
-2820.9121815327
 20
2345.60521995106
  0
VERTEX
  8
1
 62
7
  6
CONTINUOUS
 10
-2819.17297592693
 20
2343.10042263492
  0
VERTEX
  8
1
 62
7
  6
CONTINUOUS
 10
-2823.3101588129
 20
2339.03089588974
  0
VERTEX
  8
1
 62
7
  6
CONTINUOUS
 10
-2817.60387191797
 20
2329.62837709265
  0
VERTEX
  8
1
 62
7
  6
CONTINUOUS
 10
-2827.8907266292
 20
2327.19454769274
  0
VERTEX
  8
1
 62
7
  6
CONTINUOUS
 10
-2875.68419261005
 20
2305.93117585087
  0
VERTEX
  8
1
 62
7
  6
CONTINUOUS
 10
-2871.48697407062
 20
2289.65976495817
  0
VERTEX
  8
1
 62
7
  6
CONTINUOUS
 10
-2874.86639596309
 20
2285.97856721855
  0
VERTEX
  8
1
 62
7
  6
CONTINUOUS
 10
-2883.99638654668
 20
2302.38789169022
  0
VERTEX
  8
1
 62
7
  6
CONTINUOUS
 10
-2897.55687152192
 20
2302.2009897982
  0
VERTEX
  8
1
 62
7
  6
CONTINUOUS
 10
-2910.71503505337
 20
2292.2682016976
  0
VERTEX
  8
1
 62
7
  6
CONTINUOUS
 10
-2934.30661925389
 20
2284.42665232923
  0
VERTEX
  8
1
 62
7
  6
CONTINUOUS
 10
-2953.75141199293
 20
2172.24251348989
  0
VERTEX
  8
1
 62
7
  6
CONTINUOUS
 10
-2961.74335427169
 20
2130.95686770985
  0
VERTEX
  8
1
 62
7
  6
CONTINUOUS
 10
-2960.51932166466
 20
2126.50461273696
  0
VERTEX
  8
1
 62
7
  6
CONTINUOUS
 10
-2962.828477627
 20
2124.04845173238
  0
VERTEX
  8
1
 62
7
  6
CONTINUOUS
 10
-2962.60049972043
 20
2105.61696243641
  0
VERTEX
  8
1
 62
7
  6
CONTINUOUS
 10
-2967.75088280019
 20
2099.26933431004
  0
VERTEX
  8
1
 62
7
  6
CONTINUOUS
 10
-2963.04305381417
 20
2094.33630620001
  0
VERTEX
  8
1
 62
7
  6
CONTINUOUS
 10
-2969.34154212244
 20
2036.38954703851
  0
VERTEX
  8
1
 62
7
  6
CONTINUOUS
 10
-2964.37232268567
 20
2034.00122206212
  0
VERTEX
  8
1
 62
7
  6
CONTINUOUS
 10
-2963.82871150314
 20
2025.79824911227
  0
VERTEX
  8
1
 62
7
  6
CONTINUOUS
 10
-2971.42617815296
 20
2024.02728817078
  0
VERTEX
  8
1
 62
7
  6
CONTINUOUS
 10
-2970.67337397854
 20
2015.6826741089
  0
VERTEX
  8
1
 62
7
  6
CONTINUOUS
 10
-2974.71096379405
 20
1991.13306289668
  0
VERTEX
  8
1
 62
7
  6
CONTINUOUS
 10
-2972.66915995635
 20
1989.06537649142
  0
VERTEX
  8
1
 62
7
  6
CONTINUOUS
 10
-2972.75277063713
 20
1956.72459667865
  0
VERTEX
  8
1
 62
7
  6
CONTINUOUS
 10
-2987.3945440586
 20
1890.85265099814
  0
VERTEX
  8
1
 62
7
  6
CONTINUOUS
 10
-2989.75061651739
 20
1849.25303849792
  0
VERTEX
  8
1
 62
7
  6
CONTINUOUS
 10
-2972.26322131183
 20
1811.36240785265
  0
VERTEX
  8
1
 62
7
  6
CONTINUOUS
 10
-2967.7445784319
 20
1772.23607187764
  0
VERTEX
  8
1
 62
7
  6
CONTINUOUS
 10
-2962.74493558872
 20
1765.38127436912
  0
VERTEX
  8
1
 62
7
  6
CONTINUOUS
 10
-2946.7376319206
 20
1756.24220203345
  0
VERTEX
  8
1
 62
7
  6
CONTINUOUS
 10
-2874.15111190653
 20
1705.65092067102
  0
VERTEX
  8
1
 62
7
  6
CONTINUOUS
 10
-2842.76012471241
 20
1674.26298175032
  0
VERTEX
  8
1
 62
7
  6
CONTINUOUS
 10
-2831.76662253372
 20
1655.97806467425
  0
VERTEX
  8
1
 62
7
  6
CONTINUOUS
 10
-2831.75690874214
 20
1641.48623920122
  0
VERTEX
  8
1
 62
7
  6
CONTINUOUS
 10
-2840.02344686568
 20
1635.31440603568
  0
VERTEX
  8
1
 62
7
  6
CONTINUOUS
 10
-2859.57092900028
 20
1633.15959697642
  0
VERTEX
  8
1
 62
7
  6
CONTINUOUS
 10
-2900.28697799719
 20
1653.54591531984
  0
VERTEX
  8
1
 62
7
  6
CONTINUOUS
 10
-2909.64484925567
 20
1654.28793144668
  0
VERTEX
  8
1
 62
7
  6
CONTINUOUS
 10
-2923.7621291985
 20
1640.22539919925
  0
VERTEX
  8
1
 62
7
  6
CONTINUOUS
 10
-2925.74892944379
 20
1625.24450926918
  0
VERTEX
  8
1
 62
7
  6
CONTINUOUS
 10
-2908.78578357923
 20
1596.38958455445
  0
VERTEX
  8
1
 62
7
  6
CONTINUOUS
 10
-2908.77318657611
 20
1592.30688048379
  0
VERTEX
  8
1
 62
7
  6
CONTINUOUS
 10
-2900.69401822991
 20
1584.18288985395
  0
VERTEX
  8
1
 62
7
  6
CONTINUOUS
 10
-2852.75021075832
 20
1512.25018576773
  0
VERTEX
  8
1
 62
7
  6
CONTINUOUS
 10
-2836.83859978198
 20
1502.28451106893
  0
VERTEX
  8
1
 62
7
  6
CONTINUOUS
 10
-2822.66991692431
 20
1499.92946645991
  0
VERTEX
  8
1
 62
7
  6
CONTINUOUS
 10
-2814.41730469497
 20
1475.25769078482
  0
VERTEX
  8
1
 62
7
  6
CONTINUOUS
 10
-2817.59995960573
 20
1456.08479861295
  0
VERTEX
  8
1
 62
7
  6
CONTINUOUS
 10
-2808.42055760957
 20
1446.89916644049
  0
VERTEX
  8
1
 62
7
  6
CONTINUOUS
 10
-2794.387993283
 20
1392.5553983135
  0
VERTEX
  8
1
 62
7
  6
CONTINUOUS
 10
-2801.23283176382
 20
1386.01500726953
  0
VERTEX
  8
1
 62
7
  6
CONTINUOUS
 10
-2803.47872050166
 20
1379.85718591636
  0
VERTEX
  8
1
 62
7
  6
CONTINUOUS
 10
-2790.6785749973
 20
1372.63775362411
  0
VERTEX
  8
1
 62
7
  6
CONTINUOUS
 10
-2790.7106311093
 20
1361.15751627356
  0
VERTEX
  8
1
 62
7
  6
CONTINUOUS
 10
-2787.2934514276
 20
1357.77851998729
  0
VERTEX
  8
1
 62
7
  6
CONTINUOUS
 10
-2784.94803641265
 20
1312.94681903674
  0
VERTEX
  8
1
 62
7
  6
CONTINUOUS
 10
-2788.04243627839
 20
1307.50181440183
  0
VERTEX
  8
1
 62
7
  6
CONTINUOUS
 10
-2781.82923793346
 20
1302.17424247927
  0
VERTEX
  8
1
 62
7
  6
CONTINUOUS
 10
-2786.61913874867
 20
1293.35696987363
  0
VERTEX
  8
1
 62
7
  6
CONTINUOUS
 10
-2789.39622128329
 20
1292.51424450432
  0
VERTEX
  8
1
 62
7
  6
CONTINUOUS
 10
-2787.15075867255
 20
1296.50259790669
  0
VERTEX
  8
1
 62
7
  6
CONTINUOUS
 10
-2791.75611244963
 20
1300.96711144089
  0
VERTEX
  8
1
 62
7
  6
CONTINUOUS
 10
-2788.04243627839
 20
1307.50181440183
  0
VERTEX
  8
1
 62
7
  6
CONTINUOUS
 10
-2790.64605270766
 20
1309.73431254782
  0
VERTEX
  8
1
 62
7
  6
CONTINUOUS
 10
-2801.7800931324
 20
1294.06032240693
  0
VERTEX
  8
1
 62
7
  6
CONTINUOUS
 10
-2794.99114209583
 20
1290.81642614668
  0
VERTEX
  8
1
 62
7
  6
CONTINUOUS
 10
-2789.39622128329
 20
1292.51424450432
  0
VERTEX
  8
1
 62
7
  6
CONTINUOUS
 10
-2798.57663233083
 20
1276.20815084621
  0
VERTEX
  8
1
 62
7
  6
CONTINUOUS
 10
-2835.45594576429
 20
1255.7472556984
  0
VERTEX
  8
1
 62
7
  6
CONTINUOUS
 10
-2859.47160186389
 20
1246.45845333103
  0
VERTEX
  8
1
 62
7
  6
CONTINUOUS
 10
-2874.00497687553
 20
1245.02901589446
  0
VERTEX
  8
1
 62
7
  6
CONTINUOUS
 10
-2873.99743109796
 20
1240.6650394783
  0
VERTEX
  8
1
 62
7
  6
CONTINUOUS
 10
-2890.59599854927
 20
1228.36591086064
  0
VERTEX
  8
1
 62
7
  6
CONTINUOUS
 10
-2899.34747098781
 20
1233.83491991156
  0
VERTEX
  8
1
 62
7
  6
CONTINUOUS
 10
-2902.37390320349
 20
1225.07017933699
  0
VERTEX
  8
1
 62
7
  6
CONTINUOUS
 10
-2931.41118044551
 20
1218.50880991057
  0
VERTEX
  8
1
 62
7
  6
CONTINUOUS
 10
-2941.32090440336
 20
1214.0926539764
  0
VERTEX
  8
1
 62
7
  6
CONTINUOUS
 10
-2960.22583979524
 20
1221.64191195481
  0
VERTEX
  8
1
 62
7
  6
CONTINUOUS
 10
-2986.84454144462
 20
1238.59393954337
  0
VERTEX
  8
1
 62
7
  6
CONTINUOUS
 10
-3001.76155451921
 20
1236.24336943246
  0
VERTEX
  8
1
 62
7
  6
CONTINUOUS
 10
-3014.77096618267
 20
1220.1966838837
  0
SEQEND
  0
ENDSEC
  0
EOF
