  0
SECTION
  2
HEADER
  0
ENDSEC
  0
SECTION
  2
TABLES
  0
ENDSEC
  0
SECTION
  2
BLOCKS
  0
ENDSEC
  0
SECTION
  2
ENTITIES
  0
TEXT
  1
MARK_1
  8
72
 10
-313.250004708298
 20
1623.25002438252
 11
-313.250004708298
 21
1623.25002438252
 62
3
 40
50.0000007509247
 50
90
 72
0
 73
1
  0
TEXT
  1
MARK_2
  8
72
 10
-386.250005804648
 20
2182.25003277786
 11
-386.250005804648
 21
2182.25003277786
 62
3
 40
50.0000007509247
 50
90
 72
0
 73
1
  0
POLYLINE
  8
52
 62
7
 66
1
 70
1
  0
VERTEX
  8
52
 62
7
  6
CONTINUOUS
 10
-214.157168521698
 20
2218.8522960544
  0
VERTEX
  8
52
 62
7
  6
CONTINUOUS
 10
-210.342837861162
 20
2217.64777058265
  0
VERTEX
  8
52
 62
7
  6
CONTINUOUS
 10
-198.34283768094
 20
2255.64777115336
  0
VERTEX
  8
52
 62
7
  6
CONTINUOUS
 10
-202.157168341476
 20
2256.85229662511
  0
SEQEND
  0
POLYLINE
  8
52
 62
7
 66
1
 70
1
  0
VERTEX
  8
52
 62
7
  6
CONTINUOUS
 10
-644.211171000764
 20
1703.64225785428
  0
VERTEX
  8
52
 62
7
  6
CONTINUOUS
 10
-640.288848298001
 20
1702.85779331373
  0
VERTEX
  8
52
 62
7
  6
CONTINUOUS
 10
-637.250009604327
 20
1718.0519867821
  0
VERTEX
  8
52
 62
7
  6
CONTINUOUS
 10
-637.250009604327
 20
1730.2500259895
  0
VERTEX
  8
52
 62
7
  6
CONTINUOUS
 10
-641.250009604327
 20
1730.2500259895
  0
VERTEX
  8
52
 62
7
  6
CONTINUOUS
 10
-641.250009604327
 20
1718.44806483647
  0
SEQEND
  0
POLYLINE
  8
52
 62
7
 66
1
 70
1
  0
VERTEX
  8
52
 62
7
  6
CONTINUOUS
 10
-571.147375149133
 20
1816.88248281313
  0
VERTEX
  8
52
 62
7
  6
CONTINUOUS
 10
-567.352641956931
 20
1815.61757174906
  0
VERTEX
  8
52
 62
7
  6
CONTINUOUS
 10
-562.25000847794
 20
1830.92547218603
  0
VERTEX
  8
52
 62
7
  6
CONTINUOUS
 10
-562.25000847794
 20
1835.25002756645
  0
VERTEX
  8
52
 62
7
  6
CONTINUOUS
 10
-566.25000847794
 20
1835.25002756645
  0
VERTEX
  8
52
 62
7
  6
CONTINUOUS
 10
-566.25000847794
 20
1831.57458282671
  0
SEQEND
  0
POLYLINE
  8
52
 62
7
 66
1
 70
1
  0
VERTEX
  8
52
 62
7
  6
CONTINUOUS
 10
-496.106960808416
 20
1699.50724418624
  0
VERTEX
  8
52
 62
7
  6
CONTINUOUS
 10
-488.181732333286
 20
1679.69417299842
  0
VERTEX
  8
52
 62
7
  6
CONTINUOUS
 10
-486.21774709666
 20
1668.89225419698
  0
VERTEX
  8
52
 62
7
  6
CONTINUOUS
 10
-482.28226745626
 20
1669.60779594978
  0
VERTEX
  8
52
 62
7
  6
CONTINUOUS
 10
-484.318282279709
 20
1680.80587747874
  0
VERTEX
  8
52
 62
7
  6
CONTINUOUS
 10
-492.393054044875
 20
1700.99280689166
  0
SEQEND
  0
POLYLINE
  8
52
 62
7
 66
1
 70
1
  0
VERTEX
  8
52
 62
7
  6
CONTINUOUS
 10
-475.179534753732
 20
1662.72379017168
  0
VERTEX
  8
52
 62
7
  6
CONTINUOUS
 10
-472.102060476445
 20
1651.43971782163
  0
VERTEX
  8
52
 62
7
  6
CONTINUOUS
 10
-466.946003599119
 20
1643.19002681791
  0
VERTEX
  8
52
 62
7
  6
CONTINUOUS
 10
-463.554010383099
 20
1645.31002257792
  0
VERTEX
  8
52
 62
7
  6
CONTINUOUS
 10
-468.397953655957
 20
1653.06033181449
  0
VERTEX
  8
52
 62
7
  6
CONTINUOUS
 10
-471.320479468781
 20
1663.77625979485
  0
SEQEND
  0
POLYLINE
  8
52
 62
7
 66
1
 70
1
  0
VERTEX
  8
52
 62
7
  6
CONTINUOUS
 10
-459.888470727018
 20
1746.39695090351
  0
VERTEX
  8
52
 62
7
  6
CONTINUOUS
 10
-456.611543044941
 20
1744.10310152605
  0
VERTEX
  8
52
 62
7
  6
CONTINUOUS
 10
-449.25000678085
 20
1754.61958190333
  0
VERTEX
  8
52
 62
7
  6
CONTINUOUS
 10
-449.25000678085
 20
1758.25002641002
  0
VERTEX
  8
52
 62
7
  6
CONTINUOUS
 10
-453.25000678085
 20
1758.25002641002
  0
VERTEX
  8
52
 62
7
  6
CONTINUOUS
 10
-453.25000678085
 20
1755.8804708266
  0
SEQEND
  0
POLYLINE
  8
52
 62
7
 66
1
 70
1
  0
VERTEX
  8
52
 62
7
  6
CONTINUOUS
 10
-430.038860817425
 20
1797.14445417172
  0
VERTEX
  8
52
 62
7
  6
CONTINUOUS
 10
-426.461152053425
 20
1795.35559978972
  0
VERTEX
  8
52
 62
7
  6
CONTINUOUS
 10
-422.606297545097
 20
1803.06530880638
  0
VERTEX
  8
52
 62
7
  6
CONTINUOUS
 10
-418.835792752904
 20
1806.83581359857
  0
VERTEX
  8
52
 62
7
  6
CONTINUOUS
 10
-421.66421987765
 20
1809.66424072332
  0
VERTEX
  8
52
 62
7
  6
CONTINUOUS
 10
-425.893715205604
 20
1805.43474539536
  0
SEQEND
  0
POLYLINE
  8
52
 62
7
 66
1
 70
1
  0
VERTEX
  8
52
 62
7
  6
CONTINUOUS
 10
-404.664219622335
 20
1837.66424114384
  0
VERTEX
  8
52
 62
7
  6
CONTINUOUS
 10
-401.835792497589
 20
1834.83581401909
  0
VERTEX
  8
52
 62
7
  6
CONTINUOUS
 10
-394.83579239246
 20
1841.83581412422
  0
VERTEX
  8
52
 62
7
  6
CONTINUOUS
 10
-397.664219517206
 20
1844.66424124897
  0
SEQEND
  0
POLYLINE
  8
52
 62
7
 66
1
 70
1
  0
VERTEX
  8
52
 62
7
  6
CONTINUOUS
 10
-396.202380045164
 20
1517.6838837062
  0
VERTEX
  8
52
 62
7
  6
CONTINUOUS
 10
-392.297631804428
 20
1516.81616187493
  0
VERTEX
  8
52
 62
7
  6
CONTINUOUS
 10
-386.297631714317
 20
1543.81616228043
  0
VERTEX
  8
52
 62
7
  6
CONTINUOUS
 10
-390.202379955053
 20
1544.6838841117
  0
SEQEND
  0
POLYLINE
  8
52
 62
7
 66
1
 70
1
  0
VERTEX
  8
52
 62
7
  6
CONTINUOUS
 10
-374.250005594389
 20
1604.0784512069
  0
VERTEX
  8
52
 62
7
  6
CONTINUOUS
 10
-374.250005594389
 20
1600.2500240371
  0
VERTEX
  8
52
 62
7
  6
CONTINUOUS
 10
-370.250005594389
 20
1600.2500240371
  0
VERTEX
  8
52
 62
7
  6
CONTINUOUS
 10
-370.250005594389
 20
1602.42159695741
  0
VERTEX
  8
52
 62
7
  6
CONTINUOUS
 10
-367.444077507172
 20
1605.22752504463
  0
VERTEX
  8
52
 62
7
  6
CONTINUOUS
 10
-366.274415535814
 20
1609.90617293005
  0
VERTEX
  8
52
 62
7
  6
CONTINUOUS
 10
-364.259931123858
 20
1630.05101704961
  0
VERTEX
  8
52
 62
7
  6
CONTINUOUS
 10
-368.240079884698
 20
1630.4490319257
  0
VERTEX
  8
52
 62
7
  6
CONTINUOUS
 10
-370.225595532816
 20
1610.59387544452
  0
VERTEX
  8
52
 62
7
  6
CONTINUOUS
 10
-371.055933591497
 20
1607.27252320979
  0
SEQEND
  0
POLYLINE
  8
52
 62
7
 66
1
 70
1
  0
VERTEX
  8
52
 62
7
  6
CONTINUOUS
 10
-555.120381421965
 20
1639.48891400949
  0
VERTEX
  8
52
 62
7
  6
CONTINUOUS
 10
-551.792180244614
 20
1637.27011322459
  0
VERTEX
  8
52
 62
7
  6
CONTINUOUS
 10
-546.199167624545
 20
1645.6596321547
  0
VERTEX
  8
52
 62
7
  6
CONTINUOUS
 10
-538.590260193363
 20
1652.5768207285
  0
VERTEX
  8
52
 62
7
  6
CONTINUOUS
 10
-528.731345169138
 20
1659.61890288866
  0
VERTEX
  8
52
 62
7
  6
CONTINUOUS
 10
-516.122195299759
 20
1667.03604987065
  0
VERTEX
  8
52
 62
7
  6
CONTINUOUS
 10
-515.141315386094
 20
1668.99780969798
  0
VERTEX
  8
52
 62
7
  6
CONTINUOUS
 10
-518.719024150093
 20
1670.78666407998
  0
VERTEX
  8
52
 62
7
  6
CONTINUOUS
 10
-519.170540748789
 20
1669.88363088259
  0
VERTEX
  8
52
 62
7
  6
CONTINUOUS
 10
-530.912131589541
 20
1662.97681274097
  0
VERTEX
  8
52
 62
7
  6
CONTINUOUS
 10
-541.106767738365
 20
1655.69492977752
  0
VERTEX
  8
52
 62
7
  6
CONTINUOUS
 10
-549.254221943149
 20
1648.28815322772
  0
SEQEND
  0
POLYLINE
  8
52
 62
7
 66
1
 70
1
  0
VERTEX
  8
52
 62
7
  6
CONTINUOUS
 10
-354.218860445036
 20
1683.6016065606
  0
VERTEX
  8
52
 62
7
  6
CONTINUOUS
 10
-350.281150143002
 20
1682.89844400667
  0
VERTEX
  8
52
 62
7
  6
CONTINUOUS
 10
-345.250005218927
 20
1711.07285558149
  0
VERTEX
  8
52
 62
7
  6
CONTINUOUS
 10
-345.250005218927
 20
1723.25002588437
  0
VERTEX
  8
52
 62
7
  6
CONTINUOUS
 10
-349.250005218927
 20
1723.25002588437
  0
VERTEX
  8
52
 62
7
  6
CONTINUOUS
 10
-349.250005218927
 20
1711.42719582681
  0
SEQEND
  0
POLYLINE
  8
52
 62
7
 66
1
 70
1
  0
VERTEX
  8
52
 62
7
  6
CONTINUOUS
 10
-304.038858925094
 20
1913.14445591387
  0
VERTEX
  8
52
 62
7
  6
CONTINUOUS
 10
-300.461150161095
 20
1911.35560153187
  0
VERTEX
  8
52
 62
7
  6
CONTINUOUS
 10
-298.301628181446
 20
1915.67464549117
  0
VERTEX
  8
52
 62
7
  6
CONTINUOUS
 10
-297.262237028692
 20
1925.02916586596
  0
VERTEX
  8
52
 62
7
  6
CONTINUOUS
 10
-301.237771967386
 20
1925.47089197026
  0
VERTEX
  8
52
 62
7
  6
CONTINUOUS
 10
-302.198380844668
 20
1916.82541207472
  0
SEQEND
  0
POLYLINE
  8
52
 62
7
 66
1
 70
1
  0
VERTEX
  8
52
 62
7
  6
CONTINUOUS
 10
-298.229903440306
 20
1931.5328717207
  0
VERTEX
  8
52
 62
7
  6
CONTINUOUS
 10
-294.270105465661
 20
1930.96718629575
  0
VERTEX
  8
52
 62
7
  6
CONTINUOUS
 10
-292.270105435624
 20
1944.96718650601
  0
VERTEX
  8
52
 62
7
  6
CONTINUOUS
 10
-296.229903410269
 20
1945.53287193095
  0
SEQEND
  0
POLYLINE
  8
52
 62
7
 66
1
 70
1
  0
VERTEX
  8
52
 62
7
  6
CONTINUOUS
 10
-268.220427512068
 20
2063.59271334016
  0
VERTEX
  8
52
 62
7
  6
CONTINUOUS
 10
-264.279580492789
 20
2062.90734864116
  0
VERTEX
  8
52
 62
7
  6
CONTINUOUS
 10
-260.279580432715
 20
2085.90734898658
  0
VERTEX
  8
52
 62
7
  6
CONTINUOUS
 10
-264.220427451994
 20
2086.59271368559
  0
SEQEND
  0
POLYLINE
  8
52
 62
7
 66
1
 70
1
  0
VERTEX
  8
52
 62
7
  6
CONTINUOUS
 10
-262.195616341688
 20
2058.71327197018
  0
VERTEX
  8
52
 62
7
  6
CONTINUOUS
 10
-258.304391482947
 20
2057.78678986096
  0
VERTEX
  8
52
 62
7
  6
CONTINUOUS
 10
-253.357877790421
 20
2078.56214736957
  0
VERTEX
  8
52
 62
7
  6
CONTINUOUS
 10
-250.46114941017
 20
2084.35560413007
  0
VERTEX
  8
52
 62
7
  6
CONTINUOUS
 10
-254.03885817417
 20
2086.14445851207
  0
VERTEX
  8
52
 62
7
  6
CONTINUOUS
 10
-257.14212988403
 20
2079.93791509235
  0
SEQEND
  0
POLYLINE
  8
52
 62
7
 66
1
 70
1
  0
VERTEX
  8
52
 62
7
  6
CONTINUOUS
 10
-249.222791564742
 20
2130.57882997151
  0
VERTEX
  8
52
 62
7
  6
CONTINUOUS
 10
-245.277215869413
 20
2129.92123402229
  0
VERTEX
  8
52
 62
7
  6
CONTINUOUS
 10
-242.277215824358
 20
2147.92123429262
  0
VERTEX
  8
52
 62
7
  6
CONTINUOUS
 10
-246.222791519686
 20
2148.57883024184
  0
SEQEND
  0
POLYLINE
  8
52
 62
7
 66
1
 70
1
  0
VERTEX
  8
52
 62
7
  6
CONTINUOUS
 10
-237.161561554299
 20
2193.83820464074
  0
VERTEX
  8
52
 62
7
  6
CONTINUOUS
 10
-233.338445519411
 20
2192.66186124539
  0
VERTEX
  8
52
 62
7
  6
CONTINUOUS
 10
-229.287102373154
 20
2205.82872647073
  0
VERTEX
  8
52
 62
7
  6
CONTINUOUS
 10
-227.265447693317
 20
2222.00196390942
  0
VERTEX
  8
52
 62
7
  6
CONTINUOUS
 10
-231.234559200172
 20
2222.49810284778
  0
VERTEX
  8
52
 62
7
  6
CONTINUOUS
 10
-233.212904580409
 20
2206.67133980589
  0
SEQEND
  0
POLYLINE
  8
52
 62
7
 66
1
 70
1
  0
VERTEX
  8
52
 62
7
  6
CONTINUOUS
 10
-238.177988788286
 20
2138.7818901133
  0
VERTEX
  8
52
 62
7
  6
CONTINUOUS
 10
-234.322018315462
 20
2137.7181741208
  0
VERTEX
  8
52
 62
7
  6
CONTINUOUS
 10
-226.322018195314
 20
2166.71817455633
  0
VERTEX
  8
52
 62
7
  6
CONTINUOUS
 10
-230.177988668138
 20
2167.78189054884
  0
SEQEND
  0
POLYLINE
  8
52
 62
7
 66
1
 70
1
  0
VERTEX
  8
52
 62
7
  6
CONTINUOUS
 10
-221.229902283882
 20
2262.53287669182
  0
VERTEX
  8
52
 62
7
  6
CONTINUOUS
 10
-217.270104309237
 20
2261.96719126687
  0
VERTEX
  8
52
 62
7
  6
CONTINUOUS
 10
-215.2701042792
 20
2275.96719147713
  0
VERTEX
  8
52
 62
7
  6
CONTINUOUS
 10
-219.229902253845
 20
2276.53287690208
  0
SEQEND
  0
POLYLINE
  8
52
 62
7
 66
1
 70
1
  0
VERTEX
  8
52
 62
7
  6
CONTINUOUS
 10
-210.205607959511
 20
2310.66909287769
  0
VERTEX
  8
52
 62
7
  6
CONTINUOUS
 10
-206.294398303201
 20
2309.83097652277
  0
VERTEX
  8
52
 62
7
  6
CONTINUOUS
 10
-203.294398258146
 20
2323.83097673303
  0
VERTEX
  8
52
 62
7
  6
CONTINUOUS
 10
-207.205607914455
 20
2324.66909308795
  0
SEQEND
  0
POLYLINE
  8
52
 62
7
 66
1
 70
1
  0
VERTEX
  8
52
 62
7
  6
CONTINUOUS
 10
-339.664218646133
 20
1561.83580991904
  0
VERTEX
  8
52
 62
7
  6
CONTINUOUS
 10
-337.07843217847
 20
1559.25002345138
  0
VERTEX
  8
52
 62
7
  6
CONTINUOUS
 10
-328.496216184811
 20
1559.25002345138
  0
VERTEX
  8
52
 62
7
  6
CONTINUOUS
 10
-316.735076003426
 20
1556.30973840603
  0
VERTEX
  8
52
 62
7
  6
CONTINUOUS
 10
-315.764933503281
 20
1560.19030840661
  0
VERTEX
  8
52
 62
7
  6
CONTINUOUS
 10
-328.003793682339
 20
1563.25002345138
  0
VERTEX
  8
52
 62
7
  6
CONTINUOUS
 10
-335.421577928977
 20
1563.25002345138
  0
VERTEX
  8
52
 62
7
  6
CONTINUOUS
 10
-336.835791521387
 20
1564.66423704379
  0
SEQEND
  0
POLYLINE
  8
54
 62
7
 66
1
 70
1
  0
VERTEX
  8
54
 62
7
  6
CONTINUOUS
 10
-282.250004242725
 20
1996.25002998442
  0
VERTEX
  8
54
 62
7
  6
CONTINUOUS
 10
-282.250004242725
 20
1993.25002993937
  0
VERTEX
  8
54
 62
7
  6
CONTINUOUS
 10
-277.250004167632
 20
1989.25002987929
  0
VERTEX
  8
54
 62
7
  6
CONTINUOUS
 10
-275.250004137595
 20
1996.25002998442
  0
VERTEX
  8
54
 62
7
  6
CONTINUOUS
 10
-279.250004197669
 20
2000.2500300445
  0
SEQEND
  0
POLYLINE
  8
54
 62
7
 66
1
 70
1
  0
VERTEX
  8
54
 62
7
  6
CONTINUOUS
 10
-613.250009213846
 20
1532.25002301584
  0
VERTEX
  8
54
 62
7
  6
CONTINUOUS
 10
-612.250009198828
 20
1528.25002295577
  0
VERTEX
  8
54
 62
7
  6
CONTINUOUS
 10
-609.250009153772
 20
1528.25002295577
  0
VERTEX
  8
54
 62
7
  6
CONTINUOUS
 10
-584.25000877831
 20
1515.25002276053
  0
VERTEX
  8
54
 62
7
  6
CONTINUOUS
 10
-573.250008613106
 20
1504.25002259532
  0
VERTEX
  8
54
 62
7
  6
CONTINUOUS
 10
-572.250008598088
 20
1497.2500224902
  0
VERTEX
  8
54
 62
7
  6
CONTINUOUS
 10
-579.250008703217
 20
1480.25002223488
  0
VERTEX
  8
54
 62
7
  6
CONTINUOUS
 10
-581.271117991662
 20
1475.34161396381
  0
VERTEX
  8
54
 62
7
  6
CONTINUOUS
 10
-579.37864074884
 20
1475.43731897056
  0
VERTEX
  8
54
 62
7
  6
CONTINUOUS
 10
-584.84964310825
 20
1458.06186493033
  0
VERTEX
  8
54
 62
7
  6
CONTINUOUS
 10
-572.208416286579
 20
1456.03488818139
  0
VERTEX
  8
54
 62
7
  6
CONTINUOUS
 10
-572.227898644206
 20
1452.3517939283
  0
VERTEX
  8
54
 62
7
  6
CONTINUOUS
 10
-565.250008492958
 20
1451.25002179934
  0
VERTEX
  8
54
 62
7
  6
CONTINUOUS
 10
-546.250008207607
 20
1448.25002175429
  0
VERTEX
  8
54
 62
7
  6
CONTINUOUS
 10
-526.250007907237
 20
1448.25002175429
  0
VERTEX
  8
54
 62
7
  6
CONTINUOUS
 10
-515.250007742034
 20
1452.25002181436
  0
VERTEX
  8
54
 62
7
  6
CONTINUOUS
 10
-510.250007666941
 20
1458.25002190447
  0
VERTEX
  8
54
 62
7
  6
CONTINUOUS
 10
-511.25000768196
 20
1473.25002212975
  0
VERTEX
  8
54
 62
7
  6
CONTINUOUS
 10
-506.250007606867
 20
1496.25002247518
  0
VERTEX
  8
54
 62
7
  6
CONTINUOUS
 10
-506.250007606867
 20
1505.25002261034
  0
VERTEX
  8
54
 62
7
  6
CONTINUOUS
 10
-512.250007696978
 20
1511.25002270045
  0
VERTEX
  8
54
 62
7
  6
CONTINUOUS
 10
-519.250007802108
 20
1514.25002274551
  0
VERTEX
  8
54
 62
7
  6
CONTINUOUS
 10
-548.250008237644
 20
1521.25002285064
  0
VERTEX
  8
54
 62
7
  6
CONTINUOUS
 10
-569.250008553032
 20
1524.25002289569
  0
VERTEX
  8
54
 62
7
  6
CONTINUOUS
 10
-590.250008868421
 20
1533.25002303086
  0
VERTEX
  8
54
 62
7
  6
CONTINUOUS
 10
-600.250009018606
 20
1535.2500230609
  0
VERTEX
  8
54
 62
7
  6
CONTINUOUS
 10
-611.250009183809
 20
1534.25002304588
  0
SEQEND
  0
POLYLINE
  8
54
 62
7
 66
1
 70
1
  0
VERTEX
  8
54
 62
7
  6
CONTINUOUS
 10
-544.145703502946
 20
1583.88904402681
  0
VERTEX
  8
54
 62
7
  6
CONTINUOUS
 10
-544.145703502946
 20
1577.54867616898
  0
VERTEX
  8
54
 62
7
  6
CONTINUOUS
 10
-542.466602355382
 20
1571.59067927991
  0
VERTEX
  8
54
 62
7
  6
CONTINUOUS
 10
-539.310924439545
 20
1566.73367571509
  0
VERTEX
  8
54
 62
7
  6
CONTINUOUS
 10
-535.05929108493
 20
1563.56349178618
  0
VERTEX
  8
54
 62
7
  6
CONTINUOUS
 10
-530.22451202153
 20
1562.46249846193
  0
VERTEX
  8
54
 62
7
  6
CONTINUOUS
 10
-525.38973295813
 20
1563.56349178618
  0
VERTEX
  8
54
 62
7
  6
CONTINUOUS
 10
-521.138099603515
 20
1566.73367571509
  0
VERTEX
  8
54
 62
7
  6
CONTINUOUS
 10
-517.982421687678
 20
1571.59067927991
  0
VERTEX
  8
54
 62
7
  6
CONTINUOUS
 10
-516.303320540114
 20
1577.54867616898
  0
VERTEX
  8
54
 62
7
  6
CONTINUOUS
 10
-516.303320540114
 20
1583.88904402681
  0
VERTEX
  8
54
 62
7
  6
CONTINUOUS
 10
-517.982421687678
 20
1589.84704091588
  0
VERTEX
  8
54
 62
7
  6
CONTINUOUS
 10
-521.138099603515
 20
1594.7040444807
  0
VERTEX
  8
54
 62
7
  6
CONTINUOUS
 10
-525.38973295813
 20
1597.87422840961
  0
VERTEX
  8
54
 62
7
  6
CONTINUOUS
 10
-530.22451202153
 20
1598.97522173386
  0
VERTEX
  8
54
 62
7
  6
CONTINUOUS
 10
-535.05929108493
 20
1597.87422840961
  0
VERTEX
  8
54
 62
7
  6
CONTINUOUS
 10
-539.310924439545
 20
1594.7040444807
  0
VERTEX
  8
54
 62
7
  6
CONTINUOUS
 10
-542.466602355382
 20
1589.84704091588
  0
SEQEND
  0
POLYLINE
  8
11
 62
7
 66
1
 70
1
  0
VERTEX
  8
11
 62
7
  6
CONTINUOUS
 10
-615.0211346545
 20
1461.33350066076
  0
VERTEX
  8
11
 62
7
  6
CONTINUOUS
 10
-614.422011815149
 20
1466.15627402845
  0
VERTEX
  8
11
 62
7
  6
CONTINUOUS
 10
-610.898782431052
 20
1460.7506376095
  0
VERTEX
  8
11
 62
7
  6
CONTINUOUS
 10
-611.094326046036
 20
1456.7261886404
  0
SEQEND
  0
POLYLINE
  8
1
 62
7
 66
1
 70
1
  0
VERTEX
  8
1
 62
7
  6
CONTINUOUS
 10
-690.250147763731
 20
1603.25440121482
  0
VERTEX
  8
1
 62
7
  6
CONTINUOUS
 10
-685.268784981169
 20
1570.3061481019
  0
VERTEX
  8
1
 62
7
  6
CONTINUOUS
 10
-676.883824791839
 20
1555.16622481207
  0
VERTEX
  8
1
 62
7
  6
CONTINUOUS
 10
-654.365488112696
 20
1549.29144576642
  0
VERTEX
  8
1
 62
7
  6
CONTINUOUS
 10
-648.249997636391
 20
1543.26102458446
  0
VERTEX
  8
1
 62
7
  6
CONTINUOUS
 10
-650.498221291382
 20
1540.93068963448
  0
VERTEX
  8
1
 62
7
  6
CONTINUOUS
 10
-671.445394044335
 20
1544.93056902307
  0
VERTEX
  8
1
 62
7
  6
CONTINUOUS
 10
-661.876140563645
 20
1531.84896585048
  0
VERTEX
  8
1
 62
7
  6
CONTINUOUS
 10
-660.28123729092
 20
1530.3162325004
  0
VERTEX
  8
1
 62
7
  6
CONTINUOUS
 10
-659.737686674908
 20
1525.81721548979
  0
VERTEX
  8
1
 62
7
  6
CONTINUOUS
 10
-640.907061233526
 20
1492.90414173523
  0
VERTEX
  8
1
 62
7
  6
CONTINUOUS
 10
-637.239813561771
 20
1489.23780445136
  0
VERTEX
  8
1
 62
7
  6
CONTINUOUS
 10
-630.726400381573
 20
1479.76043886478
  0
VERTEX
  8
1
 62
7
  6
CONTINUOUS
 10
-615.0211346545
 20
1461.33350066076
  0
VERTEX
  8
1
 62
7
  6
CONTINUOUS
 10
-616.246309789928
 20
1451.47117923717
  0
VERTEX
  8
1
 62
7
  6
CONTINUOUS
 10
-605.498985560036
 20
1448.04945218861
  0
VERTEX
  8
1
 62
7
  6
CONTINUOUS
 10
-609.113141830854
 20
1453.78441315057
  0
VERTEX
  8
1
 62
7
  6
CONTINUOUS
 10
-605.706434061576
 20
1452.78409771501
  0
VERTEX
  8
1
 62
7
  6
CONTINUOUS
 10
-610.898782431052
 20
1460.7506376095
  0
VERTEX
  8
1
 62
7
  6
CONTINUOUS
 10
-610.598616023221
 20
1466.92830999553
  0
VERTEX
  8
1
 62
7
  6
CONTINUOUS
 10
-592.416127698329
 20
1459.52391154245
  0
VERTEX
  8
1
 62
7
  6
CONTINUOUS
 10
-584.905398758847
 20
1475.15782371259
  0
VERTEX
  8
1
 62
7
  6
CONTINUOUS
 10
-579.37864074884
 20
1475.43731897056
  0
VERTEX
  8
1
 62
7
  6
CONTINUOUS
 10
-584.84964310825
 20
1458.06186493033
  0
VERTEX
  8
1
 62
7
  6
CONTINUOUS
 10
-572.208416286579
 20
1456.03488818139
  0
VERTEX
  8
1
 62
7
  6
CONTINUOUS
 10
-572.244275723308
 20
1449.25574536326
  0
VERTEX
  8
1
 62
7
  6
CONTINUOUS
 10
-589.540566659346
 20
1449.15659318868
  0
VERTEX
  8
1
 62
7
  6
CONTINUOUS
 10
-593.185268337824
 20
1428.32420605739
  0
VERTEX
  8
1
 62
7
  6
CONTINUOUS
 10
-561.314242373149
 20
1394.3507639696
  0
VERTEX
  8
1
 62
7
  6
CONTINUOUS
 10
-561.24134353994
 20
1388.2360521579
  0
VERTEX
  8
1
 62
7
  6
CONTINUOUS
 10
-553.079592426984
 20
1384.11678390952
  0
VERTEX
  8
1
 62
7
  6
CONTINUOUS
 10
-535.371562420639
 20
1361.37146759208
  0
VERTEX
  8
1
 62
7
  6
CONTINUOUS
 10
-524.506076930095
 20
1353.33773679615
  0
VERTEX
  8
1
 62
7
  6
CONTINUOUS
 10
-454.273130771635
 20
1391.23627858458
  0
VERTEX
  8
1
 62
7
  6
CONTINUOUS
 10
-416.215929685281
 20
1416.33638248399
  0
VERTEX
  8
1
 62
7
  6
CONTINUOUS
 10
-419.426044370924
 20
1430.61090808283
  0
VERTEX
  8
1
 62
7
  6
CONTINUOUS
 10
-413.446398866224
 20
1455.10427163663
  0
VERTEX
  8
1
 62
7
  6
CONTINUOUS
 10
-406.410625950915
 20
1455.27371602625
  0
VERTEX
  8
1
 62
7
  6
CONTINUOUS
 10
-413.331559030215
 20
1432.03253512762
  0
VERTEX
  8
1
 62
7
  6
CONTINUOUS
 10
-408.030880917594
 20
1423.31354694852
  0
VERTEX
  8
1
 62
7
  6
CONTINUOUS
 10
-385.146287483467
 20
1452.34225694996
  0
VERTEX
  8
1
 62
7
  6
CONTINUOUS
 10
-320.00833894695
 20
1488.24788344373
  0
VERTEX
  8
1
 62
7
  6
CONTINUOUS
 10
-261.099044733727
 20
1488.25495415405
  0
VERTEX
  8
1
 62
7
  6
CONTINUOUS
 10
-233.471162857975
 20
1512.54046697401
  0
VERTEX
  8
1
 62
7
  6
CONTINUOUS
 10
-213.141917625946
 20
1541.0065439683
  0
VERTEX
  8
1
 62
7
  6
CONTINUOUS
 10
-188.237177098736
 20
1546.25699513972
  0
VERTEX
  8
1
 62
7
  6
CONTINUOUS
 10
-180.258585043576
 20
1554.23439386382
  0
VERTEX
  8
1
 62
7
  6
CONTINUOUS
 10
-173.255556953101
 20
1586.27671453493
  0
VERTEX
  8
1
 62
7
  6
CONTINUOUS
 10
-183.310529556962
 20
1600.2990496595
  0
VERTEX
  8
1
 62
7
  6
CONTINUOUS
 10
-194.093943807933
 20
1605.1536098687
  0
VERTEX
  8
1
 62
7
  6
CONTINUOUS
 10
-210.130343365805
 20
1617.2665417192
  0
VERTEX
  8
1
 62
7
  6
CONTINUOUS
 10
-218.927464153452
 20
1605.41464450277
  0
VERTEX
  8
1
 62
7
  6
CONTINUOUS
 10
-229.338485924449
 20
1609.03569277282
  0
VERTEX
  8
1
 62
7
  6
CONTINUOUS
 10
-229.306304812276
 20
1618.3893885684
  0
VERTEX
  8
1
 62
7
  6
CONTINUOUS
 10
-241.086644096757
 20
1631.27375942409
  0
VERTEX
  8
1
 62
7
  6
CONTINUOUS
 10
-242.255433772472
 20
1659.26358915924
  0
VERTEX
  8
1
 62
7
  6
CONTINUOUS
 10
-276.257082069629
 20
1698.25969553944
  0
VERTEX
  8
1
 62
7
  6
CONTINUOUS
 10
-297.691855628171
 20
1733.68477077147
  0
VERTEX
  8
1
 62
7
  6
CONTINUOUS
 10
-312.212289704188
 20
1748.15630735597
  0
VERTEX
  8
1
 62
7
  6
CONTINUOUS
 10
-312.117144168285
 20
1756.98291222097
  0
VERTEX
  8
1
 62
7
  6
CONTINUOUS
 10
-323.376073379981
 20
1765.78127331872
  0
VERTEX
  8
1
 62
7
  6
CONTINUOUS
 10
-323.365938390873
 20
1768.86352627373
  0
VERTEX
  8
1
 62
7
  6
CONTINUOUS
 10
-329.04782707823
 20
1767.65107753604
  0
VERTEX
  8
1
 62
7
  6
CONTINUOUS
 10
-326.557970017536
 20
1773.98654738217
  0
VERTEX
  8
1
 62
7
  6
CONTINUOUS
 10
-336.135507981007
 20
1768.39332275323
  0
VERTEX
  8
1
 62
7
  6
CONTINUOUS
 10
-334.941795390906
 20
1765.31070942692
  0
VERTEX
  8
1
 62
7
  6
CONTINUOUS
 10
-331.985046388534
 20
1765.03094149872
  0
VERTEX
  8
1
 62
7
  6
CONTINUOUS
 10
-332.871846722287
 20
1762.64594372915
  0
VERTEX
  8
1
 62
7
  6
CONTINUOUS
 10
-337.236751158236
 20
1767.75020335399
  0
VERTEX
  8
1
 62
7
  6
CONTINUOUS
 10
-336.135507981007
 20
1768.39332275323
  0
VERTEX
  8
1
 62
7
  6
CONTINUOUS
 10
-338.027587842918
 20
1773.27938213231
  0
VERTEX
  8
1
 62
7
  6
CONTINUOUS
 10
-331.55713418791
 20
1799.06305692413
  0
VERTEX
  8
1
 62
7
  6
CONTINUOUS
 10
-324.229732084309
 20
1803.27816337235
  0
VERTEX
  8
1
 62
7
  6
CONTINUOUS
 10
-319.245495798668
 20
1827.46285514094
  0
VERTEX
  8
1
 62
7
  6
CONTINUOUS
 10
-319.261878084315
 20
1846.15281258347
  0
VERTEX
  8
1
 62
7
  6
CONTINUOUS
 10
-314.089238092757
 20
1869.19785523333
  0
VERTEX
  8
1
 62
7
  6
CONTINUOUS
 10
-305.168955849312
 20
1869.3141676723
  0
VERTEX
  8
1
 62
7
  6
CONTINUOUS
 10
-297.250816471425
 20
1900.24656650772
  0
VERTEX
  8
1
 62
7
  6
CONTINUOUS
 10
-291.830363561572
 20
1926.206795271
  0
VERTEX
  8
1
 62
7
  6
CONTINUOUS
 10
-283.116719374999
 20
1926.38775780182
  0
VERTEX
  8
1
 62
7
  6
CONTINUOUS
 10
-279.186335723102
 20
1941.43477755254
  0
VERTEX
  8
1
 62
7
  6
CONTINUOUS
 10
-231.249738734984
 20
2043.25069212477
  0
VERTEX
  8
1
 62
7
  6
CONTINUOUS
 10
-223.249944849142
 20
2067.2501857974
  0
VERTEX
  8
1
 62
7
  6
CONTINUOUS
 10
-199.577126679962
 20
2123.0504618462
  0
VERTEX
  8
1
 62
7
  6
CONTINUOUS
 10
-190.249849080409
 20
2157.25056255578
  0
VERTEX
  8
1
 62
7
  6
CONTINUOUS
 10
-186.305560476663
 20
2170.06459850777
  0
VERTEX
  8
1
 62
7
  6
CONTINUOUS
 10
-179.116490348373
 20
2198.07092427543
  0
VERTEX
  8
1
 62
7
  6
CONTINUOUS
 10
-201.931584553582
 20
2198.36690794782
  0
VERTEX
  8
1
 62
7
  6
CONTINUOUS
 10
-193.894714106904
 20
2217.99315913479
  0
VERTEX
  8
1
 62
7
  6
CONTINUOUS
 10
-167.873478907316
 20
2230.94852768035
  0
VERTEX
  8
1
 62
7
  6
CONTINUOUS
 10
-160.247259112453
 20
2266.27091091918
  0
VERTEX
  8
1
 62
7
  6
CONTINUOUS
 10
-159.242527066152
 20
2285.20349025162
  0
VERTEX
  8
1
 62
7
  6
CONTINUOUS
 10
-164.340747421412
 20
2297.97161105902
  0
VERTEX
  8
1
 62
7
  6
CONTINUOUS
 10
-160.332332815995
 20
2310.12126464604
  0
VERTEX
  8
1
 62
7
  6
CONTINUOUS
 10
-146.655671322869
 20
2323.86365805485
  0
VERTEX
  8
1
 62
7
  6
CONTINUOUS
 10
-160.355478722402
 20
2339.34670256821
  0
VERTEX
  8
1
 62
7
  6
CONTINUOUS
 10
-220.288750773007
 20
2386.24307351164
  0
VERTEX
  8
1
 62
7
  6
CONTINUOUS
 10
-231.771389492904
 20
2367.92216211457
  0
VERTEX
  8
1
 62
7
  6
CONTINUOUS
 10
-538.66968177018
 20
2423.81043491713
  0
VERTEX
  8
1
 62
7
  6
CONTINUOUS
 10
-544.153092217772
 20
2422.31776580579
  0
VERTEX
  8
1
 62
7
  6
CONTINUOUS
 10
-562.109675628566
 20
2396.44917538362
  0
VERTEX
  8
1
 62
7
  6
CONTINUOUS
 10
-581.248390002952
 20
2356.25334909271
  0
VERTEX
  8
1
 62
7
  6
CONTINUOUS
 10
-614.232064356227
 20
2290.32355715521
  0
VERTEX
  8
1
 62
7
  6
CONTINUOUS
 10
-614.242792686027
 20
2273.46273661728
  0
VERTEX
  8
1
 62
7
  6
CONTINUOUS
 10
-630.961245856654
 20
2263.40624940603
  0
VERTEX
  8
1
 62
7
  6
CONTINUOUS
 10
-654.25428166862
 20
2219.22504665848
  0
VERTEX
  8
1
 62
7
  6
CONTINUOUS
 10
-652.2361566436
 20
2205.21303435024
  0
VERTEX
  8
1
 62
7
  6
CONTINUOUS
 10
-645.258943518663
 20
2194.26012595827
  0
VERTEX
  8
1
 62
7
  6
CONTINUOUS
 10
-627.786432702241
 20
2179.95572356772
  0
VERTEX
  8
1
 62
7
  6
CONTINUOUS
 10
-625.361586189733
 20
2167.89048117279
  0
VERTEX
  8
1
 62
7
  6
CONTINUOUS
 10
-622.269361447049
 20
2163.27378632738
  0
VERTEX
  8
1
 62
7
  6
CONTINUOUS
 10
-619.279239233998
 20
2160.30143016885
  0
VERTEX
  8
1
 62
7
  6
CONTINUOUS
 10
-612.014401501295
 20
2133.1131915987
  0
VERTEX
  8
1
 62
7
  6
CONTINUOUS
 10
-600.281377207927
 20
2046.2820327757
  0
VERTEX
  8
1
 62
7
  6
CONTINUOUS
 10
-592.251684389361
 20
2001.55498384569
  0
VERTEX
  8
1
 62
7
  6
CONTINUOUS
 10
-592.251076806233
 20
1985.25456298975
  0
VERTEX
  8
1
 62
7
  6
CONTINUOUS
 10
-583.699447341332
 20
1968.15148968973
  0
VERTEX
  8
1
 62
7
  6
CONTINUOUS
 10
-574.433443507454
 20
1957.41190001825
  0
VERTEX
  8
1
 62
7
  6
CONTINUOUS
 10
-567.057215493118
 20
1952.99842561262
  0
VERTEX
  8
1
 62
7
  6
CONTINUOUS
 10
-571.782897000881
 20
1938.61908378129
  0
VERTEX
  8
1
 62
7
  6
CONTINUOUS
 10
-579.263921446363
 20
1901.0665241083
  0
VERTEX
  8
1
 62
7
  6
CONTINUOUS
 10
-584.926730533684
 20
1896.14899771224
  0
VERTEX
  8
1
 62
7
  6
CONTINUOUS
 10
-598.541611673114
 20
1898.8633417277
  0
VERTEX
  8
1
 62
7
  6
CONTINUOUS
 10
-592.538965940009
 20
1887.81337621938
  0
VERTEX
  8
1
 62
7
  6
CONTINUOUS
 10
-585.276519187047
 20
1887.28030354361
  0
VERTEX
  8
1
 62
7
  6
CONTINUOUS
 10
-585.265705412169
 20
1868.19569777665
  0
VERTEX
  8
1
 62
7
  6
CONTINUOUS
 10
-602.885531555337
 20
1803.21211036893
  0
VERTEX
  8
1
 62
7
  6
CONTINUOUS
 10
-615.223819957778
 20
1780.29056835427
  0
VERTEX
  8
1
 62
7
  6
CONTINUOUS
 10
-623.211901231464
 20
1769.69339619544
  0
VERTEX
  8
1
 62
7
  6
CONTINUOUS
 10
-623.224177580504
 20
1765.31123653715
  0
VERTEX
  8
1
 62
7
  6
CONTINUOUS
 10
-631.257739664819
 20
1757.2312564095
  0
VERTEX
  8
1
 62
7
  6
CONTINUOUS
 10
-631.262631060491
 20
1753.41778310982
  0
VERTEX
  8
1
 62
7
  6
CONTINUOUS
 10
-664.26135996005
 20
1718.23292489456
  0
VERTEX
  8
1
 62
7
  6
CONTINUOUS
 10
-673.252048198552
 20
1698.24427275876
  0
VERTEX
  8
1
 62
7
  6
CONTINUOUS
 10
-686.249836568849
 20
1649.25101822294
  0
SEQEND
  0
ENDSEC
  0
EOF
