  0
SECTION
  2
HEADER
  0
ENDSEC
  0
SECTION
  2
TABLES
  0
ENDSEC
  0
SECTION
  2
BLOCKS
  0
ENDSEC
  0
SECTION
  2
ENTITIES
  0
TEXT
  1
MARK_1
  8
72
 10
-1495.52
 20
1845.12
 11
-1495.52
 21
1845.12
 62
3
 40
40
 50
90
 72
0
 73
1
  0
TEXT
  1
MARK_2
  8
72
 10
-1541.12
 20
2274.72
 11
-1541.12
 21
2274.72
 62
3
 40
40
 50
90
 72
0
 73
1
  0
POLYLINE
  8
52
 62
7
 66
1
 70
1
  0
VERTEX
  8
52
 62
7
  6
CONTINUOUS
 10
-1653.57807866745
 20
843.066834336667
  0
VERTEX
  8
52
 62
7
  6
CONTINUOUS
 10
-1652.66192133255
 20
839.173165663333
  0
VERTEX
  8
52
 62
7
  6
CONTINUOUS
 10
-1639.36398962961
 20
842.302090769908
  0
VERTEX
  8
52
 62
7
  6
CONTINUOUS
 10
-1629.27339299777
 20
841.525891028997
  0
VERTEX
  8
52
 62
7
  6
CONTINUOUS
 10
-1628.96660700223
 20
845.514108971003
  0
VERTEX
  8
52
 62
7
  6
CONTINUOUS
 10
-1639.67601037039
 20
846.337909230094
  0
SEQEND
  0
POLYLINE
  8
52
 62
7
 66
1
 70
1
  0
VERTEX
  8
52
 62
7
  6
CONTINUOUS
 10
-572.61668090586
 20
2180.74212729426
  0
VERTEX
  8
52
 62
7
  6
CONTINUOUS
 10
-556.744837776057
 20
2178.36135082479
  0
VERTEX
  8
52
 62
7
  6
CONTINUOUS
 10
-551.767754018932
 20
2176.93932689419
  0
VERTEX
  8
52
 62
7
  6
CONTINUOUS
 10
-550.534213562373
 20
2175.70578643763
  0
VERTEX
  8
52
 62
7
  6
CONTINUOUS
 10
-547.705786437627
 20
2178.53421356237
  0
VERTEX
  8
52
 62
7
  6
CONTINUOUS
 10
-549.672245981068
 20
2180.50067310581
  0
VERTEX
  8
52
 62
7
  6
CONTINUOUS
 10
-555.895162223946
 20
2182.27864917521
  0
VERTEX
  8
52
 62
7
  6
CONTINUOUS
 10
-572.02331909414
 20
2184.69787270574
  0
SEQEND
  0
POLYLINE
  8
52
 62
7
 66
1
 70
1
  0
VERTEX
  8
52
 62
7
  6
CONTINUOUS
 10
-1748.508854382
 20
2162.014427191
  0
VERTEX
  8
52
 62
7
  6
CONTINUOUS
 10
-1744.931145618
 20
2160.225572809
  0
VERTEX
  8
52
 62
7
  6
CONTINUOUS
 10
-1742.24240412239
 20
2165.60305580022
  0
VERTEX
  8
52
 62
7
  6
CONTINUOUS
 10
-1742.44924604706
 20
2166.87767317181
  0
VERTEX
  8
52
 62
7
  6
CONTINUOUS
 10
-1743.7050723248
 20
2168.13349944955
  0
VERTEX
  8
52
 62
7
  6
CONTINUOUS
 10
-1743.33162406462
 20
2169.62729249027
  0
VERTEX
  8
52
 62
7
  6
CONTINUOUS
 10
-1737.40299078426
 20
2174.81484661059
  0
VERTEX
  8
52
 62
7
  6
CONTINUOUS
 10
-1740.03700921574
 20
2177.82515338941
  0
VERTEX
  8
52
 62
7
  6
CONTINUOUS
 10
-1746.90837593538
 20
2171.81270750973
  0
VERTEX
  8
52
 62
7
  6
CONTINUOUS
 10
-1747.98807563338
 20
2167.4939087177
  0
VERTEX
  8
52
 62
7
  6
CONTINUOUS
 10
-1747.70678407946
 20
2166.47835695471
  0
VERTEX
  8
52
 62
7
  6
CONTINUOUS
 10
-1746.75352102658
 20
2165.52509390184
  0
SEQEND
  0
POLYLINE
  8
52
 62
7
 66
1
 70
1
  0
VERTEX
  8
52
 62
7
  6
CONTINUOUS
 10
-1768.78928106621
 20
2236.77583558285
  0
VERTEX
  8
52
 62
7
  6
CONTINUOUS
 10
-1745.44691983689
 20
2231.1414725275
  0
VERTEX
  8
52
 62
7
  6
CONTINUOUS
 10
-1736.50107149208
 20
2230.32821358706
  0
VERTEX
  8
52
 62
7
  6
CONTINUOUS
 10
-1736.13892850791
 20
2234.31178641294
  0
VERTEX
  8
52
 62
7
  6
CONTINUOUS
 10
-1744.79308016311
 20
2235.0985274725
  0
VERTEX
  8
52
 62
7
  6
CONTINUOUS
 10
-1767.85071893379
 20
2240.66416441715
  0
SEQEND
  0
POLYLINE
  8
52
 62
7
 66
1
 70
1
  0
VERTEX
  8
52
 62
7
  6
CONTINUOUS
 10
-1573.15811635492
 20
1145.335918769
  0
VERTEX
  8
52
 62
7
  6
CONTINUOUS
 10
-1571.48188364508
 20
1141.704081231
  0
VERTEX
  8
52
 62
7
  6
CONTINUOUS
 10
-1550.68188364508
 20
1151.304081231
  0
VERTEX
  8
52
 62
7
  6
CONTINUOUS
 10
-1552.35811635492
 20
1154.935918769
  0
SEQEND
  0
POLYLINE
  8
52
 62
7
 66
1
 70
1
  0
VERTEX
  8
52
 62
7
  6
CONTINUOUS
 10
-1038.31793708042
 20
1477.82918467816
  0
VERTEX
  8
52
 62
7
  6
CONTINUOUS
 10
-1037.51793708042
 20
1460.22918467816
  0
VERTEX
  8
52
 62
7
  6
CONTINUOUS
 10
-1033.52206291958
 20
1460.41081532184
  0
VERTEX
  8
52
 62
7
  6
CONTINUOUS
 10
-1034.32206291958
 20
1478.01081532184
  0
SEQEND
  0
POLYLINE
  8
52
 62
7
 66
1
 70
1
  0
VERTEX
  8
52
 62
7
  6
CONTINUOUS
 10
-1038.31453550891
 20
1330.57225662897
  0
VERTEX
  8
52
 62
7
  6
CONTINUOUS
 10
-1036.71453550891
 20
1308.97225662897
  0
VERTEX
  8
52
 62
7
  6
CONTINUOUS
 10
-1032.72546449109
 20
1309.26774337103
  0
VERTEX
  8
52
 62
7
  6
CONTINUOUS
 10
-1034.32546449109
 20
1330.86774337103
  0
SEQEND
  0
POLYLINE
  8
52
 62
7
 66
1
 70
1
  0
VERTEX
  8
52
 62
7
  6
CONTINUOUS
 10
-1689.10783859716
 20
1158.95829006004
  0
VERTEX
  8
52
 62
7
  6
CONTINUOUS
 10
-1687.53216140284
 20
1155.28170993996
  0
VERTEX
  8
52
 62
7
  6
CONTINUOUS
 10
-1676.4554606253
 20
1160.02886741605
  0
VERTEX
  8
52
 62
7
  6
CONTINUOUS
 10
-1662.18471227243
 20
1163.99296418074
  0
VERTEX
  8
52
 62
7
  6
CONTINUOUS
 10
-1663.25528772757
 20
1167.84703581926
  0
VERTEX
  8
52
 62
7
  6
CONTINUOUS
 10
-1677.7845393747
 20
1163.81113258395
  0
SEQEND
  0
POLYLINE
  8
52
 62
7
 66
1
 70
1
  0
VERTEX
  8
52
 62
7
  6
CONTINUOUS
 10
-1758.73747216861
 20
2169.49634339535
  0
VERTEX
  8
52
 62
7
  6
CONTINUOUS
 10
-1755.50252783139
 20
2167.14365660465
  0
VERTEX
  8
52
 62
7
  6
CONTINUOUS
 10
-1748.72
 20
2176.46963237282
  0
VERTEX
  8
52
 62
7
  6
CONTINUOUS
 10
-1748.72
 20
2179.992135955
  0
VERTEX
  8
52
 62
7
  6
CONTINUOUS
 10
-1749.142291236
 20
2180.836718427
  0
VERTEX
  8
52
 62
7
  6
CONTINUOUS
 10
-1750.87518450014
 20
2182.13638837511
  0
VERTEX
  8
52
 62
7
  6
CONTINUOUS
 10
-1746.90578643763
 20
2186.10578643763
  0
VERTEX
  8
52
 62
7
  6
CONTINUOUS
 10
-1749.73421356237
 20
2188.93421356237
  0
VERTEX
  8
52
 62
7
  6
CONTINUOUS
 10
-1755.97967761803
 20
2182.68874950672
  0
VERTEX
  8
52
 62
7
  6
CONTINUOUS
 10
-1755.85025921722
 20
2180.86769441292
  0
VERTEX
  8
52
 62
7
  6
CONTINUOUS
 10
-1752.72
 20
2178.52
  0
VERTEX
  8
52
 62
7
  6
CONTINUOUS
 10
-1752.72
 20
2177.77036762718
  0
SEQEND
  0
POLYLINE
  8
52
 62
7
 66
1
 70
1
  0
VERTEX
  8
52
 62
7
  6
CONTINUOUS
 10
-780.592658355138
 20
1125.02224688318
  0
VERTEX
  8
52
 62
7
  6
CONTINUOUS
 10
-776.847341644862
 20
1123.61775311682
  0
VERTEX
  8
52
 62
7
  6
CONTINUOUS
 10
-774.52500978385
 20
1129.81063807952
  0
VERTEX
  8
52
 62
7
  6
CONTINUOUS
 10
-761.046060772053
 20
1150.42550127403
  0
VERTEX
  8
52
 62
7
  6
CONTINUOUS
 10
-764.393939227947
 20
1152.61449872597
  0
VERTEX
  8
52
 62
7
  6
CONTINUOUS
 10
-778.114990216151
 20
1131.62936192048
  0
SEQEND
  0
POLYLINE
  8
52
 62
7
 66
1
 70
1
  0
VERTEX
  8
52
 62
7
  6
CONTINUOUS
 10
-1332.48609095971
 20
1405.51309151649
  0
VERTEX
  8
52
 62
7
  6
CONTINUOUS
 10
-1332.15390904029
 20
1401.52690848351
  0
VERTEX
  8
52
 62
7
  6
CONTINUOUS
 10
-1322.55390904029
 20
1402.32690848351
  0
VERTEX
  8
52
 62
7
  6
CONTINUOUS
 10
-1322.88609095971
 20
1406.31309151649
  0
SEQEND
  0
POLYLINE
  8
52
 62
7
 66
1
 70
1
  0
VERTEX
  8
52
 62
7
  6
CONTINUOUS
 10
-1627.43795815862
 20
2133.38669121241
  0
VERTEX
  8
52
 62
7
  6
CONTINUOUS
 10
-1626.00204184138
 20
2129.65330878759
  0
VERTEX
  8
52
 62
7
  6
CONTINUOUS
 10
-1605.20204184138
 20
2137.65330878759
  0
VERTEX
  8
52
 62
7
  6
CONTINUOUS
 10
-1606.63795815862
 20
2141.38669121241
  0
SEQEND
  0
POLYLINE
  8
52
 62
7
 66
1
 70
1
  0
VERTEX
  8
52
 62
7
  6
CONTINUOUS
 10
-812.535918769001
 20
1048.35811635492
  0
VERTEX
  8
52
 62
7
  6
CONTINUOUS
 10
-808.904081230999
 20
1046.68188364508
  0
VERTEX
  8
52
 62
7
  6
CONTINUOUS
 10
-799.304081230999
 20
1067.48188364508
  0
VERTEX
  8
52
 62
7
  6
CONTINUOUS
 10
-802.935918769001
 20
1069.15811635492
  0
SEQEND
  0
POLYLINE
  8
52
 62
7
 66
1
 70
1
  0
VERTEX
  8
52
 62
7
  6
CONTINUOUS
 10
-1624.88433264798
 20
1176.63873100314
  0
VERTEX
  8
52
 62
7
  6
CONTINUOUS
 10
-1623.75566735202
 20
1172.80126899686
  0
VERTEX
  8
52
 62
7
  6
CONTINUOUS
 10
-1610.30034790045
 20
1176.75871589438
  0
VERTEX
  8
52
 62
7
  6
CONTINUOUS
 10
-1592.84977359053
 20
1179.13833966391
  0
VERTEX
  8
52
 62
7
  6
CONTINUOUS
 10
-1593.39022640947
 20
1183.10166033609
  0
VERTEX
  8
52
 62
7
  6
CONTINUOUS
 10
-1611.13965209955
 20
1180.68128410562
  0
SEQEND
  0
POLYLINE
  8
52
 62
7
 66
1
 70
1
  0
VERTEX
  8
52
 62
7
  6
CONTINUOUS
 10
-1035.92
 20
1420.32
  0
VERTEX
  8
52
 62
7
  6
CONTINUOUS
 10
-1035.92
 20
1395.52
  0
VERTEX
  8
52
 62
7
  6
CONTINUOUS
 10
-1031.92
 20
1395.52
  0
VERTEX
  8
52
 62
7
  6
CONTINUOUS
 10
-1031.92
 20
1420.32
  0
SEQEND
  0
POLYLINE
  8
52
 62
7
 66
1
 70
1
  0
VERTEX
  8
52
 62
7
  6
CONTINUOUS
 10
-1038.24879797461
 20
2190.29278784766
  0
VERTEX
  8
52
 62
7
  6
CONTINUOUS
 10
-1037.59120202539
 20
2186.34721215234
  0
VERTEX
  8
52
 62
7
  6
CONTINUOUS
 10
-1023.19120202539
 20
2188.74721215234
  0
VERTEX
  8
52
 62
7
  6
CONTINUOUS
 10
-1023.84879797461
 20
2192.69278784766
  0
SEQEND
  0
POLYLINE
  8
52
 62
7
 66
1
 70
1
  0
VERTEX
  8
52
 62
7
  6
CONTINUOUS
 10
-1590.79522119368
 20
1735.81253556109
  0
VERTEX
  8
52
 62
7
  6
CONTINUOUS
 10
-1587.44477880632
 20
1733.62746443891
  0
VERTEX
  8
52
 62
7
  6
CONTINUOUS
 10
-1575.44477880632
 20
1752.02746443891
  0
VERTEX
  8
52
 62
7
  6
CONTINUOUS
 10
-1578.79522119368
 20
1754.21253556109
  0
SEQEND
  0
POLYLINE
  8
52
 62
7
 66
1
 70
1
  0
VERTEX
  8
52
 62
7
  6
CONTINUOUS
 10
-1680.47339299777
 20
804.714108971003
  0
VERTEX
  8
52
 62
7
  6
CONTINUOUS
 10
-1680.16660700223
 20
800.725891028997
  0
VERTEX
  8
52
 62
7
  6
CONTINUOUS
 10
-1670.0089983191
 20
801.507245543084
  0
VERTEX
  8
52
 62
7
  6
CONTINUOUS
 10
-1666.08100753758
 20
800.85258041283
  0
VERTEX
  8
52
 62
7
  6
CONTINUOUS
 10
-1664.80437985154
 20
799.575952726798
  0
VERTEX
  8
52
 62
7
  6
CONTINUOUS
 10
-1665.43903601306
 20
793.229391111691
  0
VERTEX
  8
52
 62
7
  6
CONTINUOUS
 10
-1670.53421356237
 20
788.134213562373
  0
VERTEX
  8
52
 62
7
  6
CONTINUOUS
 10
-1667.70578643763
 20
785.305786437627
  0
VERTEX
  8
52
 62
7
  6
CONTINUOUS
 10
-1661.60096398694
 20
791.410608888309
  0
VERTEX
  8
52
 62
7
  6
CONTINUOUS
 10
-1660.68515892716
 20
800.568659486184
  0
VERTEX
  8
52
 62
7
  6
CONTINUOUS
 10
-1660.9876593154
 20
801.416086440144
  0
VERTEX
  8
52
 62
7
  6
CONTINUOUS
 10
-1664.15899246242
 20
804.587419587172
  0
VERTEX
  8
52
 62
7
  6
CONTINUOUS
 10
-1669.8310016809
 20
805.532754456916
  0
SEQEND
  0
POLYLINE
  8
52
 62
7
 66
1
 70
1
  0
VERTEX
  8
52
 62
7
  6
CONTINUOUS
 10
-1544.46774337103
 20
1280.72546449109
  0
VERTEX
  8
52
 62
7
  6
CONTINUOUS
 10
-1523.06012422447
 20
1279.13971492467
  0
VERTEX
  8
52
 62
7
  6
CONTINUOUS
 10
-1514.44623481158
 20
1276.79047235752
  0
VERTEX
  8
52
 62
7
  6
CONTINUOUS
 10
-1513.39376518842
 20
1280.64952764248
  0
VERTEX
  8
52
 62
7
  6
CONTINUOUS
 10
-1522.37987577553
 20
1283.10028507533
  0
VERTEX
  8
52
 62
7
  6
CONTINUOUS
 10
-1544.17225662897
 20
1284.71453550891
  0
SEQEND
  0
POLYLINE
  8
52
 62
7
 66
1
 70
1
  0
VERTEX
  8
52
 62
7
  6
CONTINUOUS
 10
-1135.78432744018
 20
2183.10245580137
  0
VERTEX
  8
52
 62
7
  6
CONTINUOUS
 10
-1135.25567255982
 20
2179.13754419863
  0
VERTEX
  8
52
 62
7
  6
CONTINUOUS
 10
-1111.25567255982
 20
2182.33754419863
  0
VERTEX
  8
52
 62
7
  6
CONTINUOUS
 10
-1111.78432744018
 20
2186.30245580137
  0
SEQEND
  0
POLYLINE
  8
52
 62
7
 66
1
 70
1
  0
VERTEX
  8
52
 62
7
  6
CONTINUOUS
 10
-1229.84489252231
 20
2166.18400934308
  0
VERTEX
  8
52
 62
7
  6
CONTINUOUS
 10
-1228.39510747769
 20
2162.45599065692
  0
VERTEX
  8
52
 62
7
  6
CONTINUOUS
 10
-1214.27122147073
 20
2167.94861299296
  0
VERTEX
  8
52
 62
7
  6
CONTINUOUS
 10
-1203.73080183789
 20
2168.75941450318
  0
VERTEX
  8
52
 62
7
  6
CONTINUOUS
 10
-1196.45057923112
 20
2172.80398261805
  0
VERTEX
  8
52
 62
7
  6
CONTINUOUS
 10
-1191.99120202539
 20
2173.54721215234
  0
VERTEX
  8
52
 62
7
  6
CONTINUOUS
 10
-1192.64879797461
 20
2177.49278784766
  0
VERTEX
  8
52
 62
7
  6
CONTINUOUS
 10
-1197.78942076888
 20
2176.63601738195
  0
VERTEX
  8
52
 62
7
  6
CONTINUOUS
 10
-1204.90919816211
 20
2172.68058549682
  0
VERTEX
  8
52
 62
7
  6
CONTINUOUS
 10
-1215.16877852927
 20
2171.89138700704
  0
SEQEND
  0
POLYLINE
  8
52
 62
7
 66
1
 70
1
  0
VERTEX
  8
52
 62
7
  6
CONTINUOUS
 10
-1396.13421356237
 20
1564.93421356237
  0
VERTEX
  8
52
 62
7
  6
CONTINUOUS
 10
-1393.30578643763
 20
1562.10578643763
  0
VERTEX
  8
52
 62
7
  6
CONTINUOUS
 10
-1389.89157287525
 20
1565.52
  0
VERTEX
  8
52
 62
7
  6
CONTINUOUS
 10
-1387.71444872454
 20
1565.52
  0
VERTEX
  8
52
 62
7
  6
CONTINUOUS
 10
-1382.80344046787
 20
1568.79400550444
  0
VERTEX
  8
52
 62
7
  6
CONTINUOUS
 10
-1370.79397959496
 20
1570.29518811356
  0
VERTEX
  8
52
 62
7
  6
CONTINUOUS
 10
-1367.11223227028
 20
1569.55883864862
  0
VERTEX
  8
52
 62
7
  6
CONTINUOUS
 10
-1366.32776772972
 20
1573.48116135138
  0
VERTEX
  8
52
 62
7
  6
CONTINUOUS
 10
-1370.64602040504
 20
1574.34481188645
  0
VERTEX
  8
52
 62
7
  6
CONTINUOUS
 10
-1384.23655953212
 20
1572.64599449556
  0
VERTEX
  8
52
 62
7
  6
CONTINUOUS
 10
-1388.92555127546
 20
1569.52
  0
VERTEX
  8
52
 62
7
  6
CONTINUOUS
 10
-1391.54842712475
 20
1569.52
  0
SEQEND
  0
POLYLINE
  8
52
 62
7
 66
1
 70
1
  0
VERTEX
  8
52
 62
7
  6
CONTINUOUS
 10
-1661.92
 20
1684.32
  0
VERTEX
  8
52
 62
7
  6
CONTINUOUS
 10
-1660.32
 20
1675.52
  0
VERTEX
  8
52
 62
7
  6
CONTINUOUS
 10
-1657.12
 20
1671.52
  0
VERTEX
  8
52
 62
7
  6
CONTINUOUS
 10
-1649.92
 20
1667.52
  0
VERTEX
  8
52
 62
7
  6
CONTINUOUS
 10
-1622.72
 20
1662.72
  0
VERTEX
  8
52
 62
7
  6
CONTINUOUS
 10
-1609.12
 20
1662.72
  0
VERTEX
  8
52
 62
7
  6
CONTINUOUS
 10
-1584.32
 20
1667.52
  0
VERTEX
  8
52
 62
7
  6
CONTINUOUS
 10
-1557.92
 20
1667.52
  0
VERTEX
  8
52
 62
7
  6
CONTINUOUS
 10
-1541.92
 20
1669.92
  0
VERTEX
  8
52
 62
7
  6
CONTINUOUS
 10
-1540.32
 20
1671.52
  0
VERTEX
  8
52
 62
7
  6
CONTINUOUS
 10
-1531.52
 20
1673.12
  0
VERTEX
  8
52
 62
7
  6
CONTINUOUS
 10
-1523.52
 20
1673.12
  0
VERTEX
  8
52
 62
7
  6
CONTINUOUS
 10
-1509.12
 20
1670.72
  0
VERTEX
  8
52
 62
7
  6
CONTINUOUS
 10
-1500.32
 20
1671.52
  0
VERTEX
  8
52
 62
7
  6
CONTINUOUS
 10
-1464.32
 20
1685.12
  0
VERTEX
  8
52
 62
7
  6
CONTINUOUS
 10
-1430.72
 20
1693.12
  0
VERTEX
  8
52
 62
7
  6
CONTINUOUS
 10
-1409.92
 20
1695.52
  0
VERTEX
  8
52
 62
7
  6
CONTINUOUS
 10
-1390.72
 20
1700.32
  0
VERTEX
  8
52
 62
7
  6
CONTINUOUS
 10
-1376.32
 20
1706.72
  0
VERTEX
  8
52
 62
7
  6
CONTINUOUS
 10
-1370.72
 20
1712.32
  0
VERTEX
  8
52
 62
7
  6
CONTINUOUS
 10
-1368.32
 20
1717.92
  0
VERTEX
  8
52
 62
7
  6
CONTINUOUS
 10
-1368.32
 20
1722.72
  0
VERTEX
  8
52
 62
7
  6
CONTINUOUS
 10
-1369.92
 20
1727.52
  0
VERTEX
  8
52
 62
7
  6
CONTINUOUS
 10
-1373.92
 20
1733.12
  0
VERTEX
  8
52
 62
7
  6
CONTINUOUS
 10
-1383.52
 20
1741.12
  0
VERTEX
  8
52
 62
7
  6
CONTINUOUS
 10
-1402.72
 20
1746.72
  0
VERTEX
  8
52
 62
7
  6
CONTINUOUS
 10
-1413.12
 20
1746.72
  0
VERTEX
  8
52
 62
7
  6
CONTINUOUS
 10
-1427.52
 20
1743.52
  0
VERTEX
  8
52
 62
7
  6
CONTINUOUS
 10
-1451.52
 20
1734.72
  0
VERTEX
  8
52
 62
7
  6
CONTINUOUS
 10
-1454.72
 20
1732.32
  0
VERTEX
  8
52
 62
7
  6
CONTINUOUS
 10
-1465.12
 20
1728.32
  0
VERTEX
  8
52
 62
7
  6
CONTINUOUS
 10
-1484.32
 20
1723.52
  0
VERTEX
  8
52
 62
7
  6
CONTINUOUS
 10
-1503.52
 20
1720.32
  0
VERTEX
  8
52
 62
7
  6
CONTINUOUS
 10
-1532.32
 20
1717.92
  0
VERTEX
  8
52
 62
7
  6
CONTINUOUS
 10
-1546.72
 20
1714.72
  0
VERTEX
  8
52
 62
7
  6
CONTINUOUS
 10
-1571.52
 20
1711.52
  0
VERTEX
  8
52
 62
7
  6
CONTINUOUS
 10
-1635.52
 20
1705.92
  0
VERTEX
  8
52
 62
7
  6
CONTINUOUS
 10
-1640.32
 20
1705.12
  0
VERTEX
  8
52
 62
7
  6
CONTINUOUS
 10
-1646.72
 20
1701.92
  0
VERTEX
  8
52
 62
7
  6
CONTINUOUS
 10
-1657.12
 20
1693.12
  0
SEQEND
  0
POLYLINE
  8
52
 62
7
 66
1
 70
1
  0
VERTEX
  8
52
 62
7
  6
CONTINUOUS
 10
-55.8998989873223
 20
1815.23715728753
  0
VERTEX
  8
52
 62
7
  6
CONTINUOUS
 10
-51.0998989873223
 20
1781.63715728753
  0
VERTEX
  8
52
 62
7
  6
CONTINUOUS
 10
-47.1401010126777
 20
1782.20284271247
  0
VERTEX
  8
52
 62
7
  6
CONTINUOUS
 10
-51.9401010126777
 20
1815.80284271247
  0
SEQEND
  0
POLYLINE
  8
52
 62
7
 66
1
 70
1
  0
VERTEX
  8
52
 62
7
  6
CONTINUOUS
 10
-253.12
 20
2289.12
  0
VERTEX
  8
52
 62
7
  6
CONTINUOUS
 10
-253.12
 20
2283.52
  0
VERTEX
  8
52
 62
7
  6
CONTINUOUS
 10
-247.52
 20
2279.52
  0
VERTEX
  8
52
 62
7
  6
CONTINUOUS
 10
-233.92
 20
2278.72
  0
VERTEX
  8
52
 62
7
  6
CONTINUOUS
 10
-197.92
 20
2285.92
  0
VERTEX
  8
52
 62
7
  6
CONTINUOUS
 10
-186.72
 20
2286.72
  0
VERTEX
  8
52
 62
7
  6
CONTINUOUS
 10
-168.32
 20
2291.52
  0
VERTEX
  8
52
 62
7
  6
CONTINUOUS
 10
-157.92
 20
2296.32
  0
VERTEX
  8
52
 62
7
  6
CONTINUOUS
 10
-139.52
 20
2298.72
  0
VERTEX
  8
52
 62
7
  6
CONTINUOUS
 10
-135.52
 20
2297.92
  0
VERTEX
  8
52
 62
7
  6
CONTINUOUS
 10
-120.32
 20
2285.12
  0
VERTEX
  8
52
 62
7
  6
CONTINUOUS
 10
-109.92
 20
2279.52
  0
VERTEX
  8
52
 62
7
  6
CONTINUOUS
 10
-101.12
 20
2277.92
  0
VERTEX
  8
52
 62
7
  6
CONTINUOUS
 10
-88.32
 20
2278.72
  0
VERTEX
  8
52
 62
7
  6
CONTINUOUS
 10
-75.52
 20
2283.52
  0
VERTEX
  8
52
 62
7
  6
CONTINUOUS
 10
-68.32
 20
2288.32
  0
VERTEX
  8
52
 62
7
  6
CONTINUOUS
 10
-61.12
 20
2295.52
  0
VERTEX
  8
52
 62
7
  6
CONTINUOUS
 10
-53.92
 20
2306.72
  0
VERTEX
  8
52
 62
7
  6
CONTINUOUS
 10
-52.32
 20
2312.32
  0
VERTEX
  8
52
 62
7
  6
CONTINUOUS
 10
-52.32
 20
2320.32
  0
VERTEX
  8
52
 62
7
  6
CONTINUOUS
 10
-55.52
 20
2327.52
  0
VERTEX
  8
52
 62
7
  6
CONTINUOUS
 10
-61.92
 20
2333.92
  0
VERTEX
  8
52
 62
7
  6
CONTINUOUS
 10
-65.92
 20
2336.32
  0
VERTEX
  8
52
 62
7
  6
CONTINUOUS
 10
-72.32
 20
2337.92
  0
VERTEX
  8
52
 62
7
  6
CONTINUOUS
 10
-82.72
 20
2337.92
  0
VERTEX
  8
52
 62
7
  6
CONTINUOUS
 10
-106.72
 20
2330.72
  0
VERTEX
  8
52
 62
7
  6
CONTINUOUS
 10
-122.72
 20
2328.32
  0
VERTEX
  8
52
 62
7
  6
CONTINUOUS
 10
-139.52
 20
2329.92
  0
VERTEX
  8
52
 62
7
  6
CONTINUOUS
 10
-162.72
 20
2329.92
  0
VERTEX
  8
52
 62
7
  6
CONTINUOUS
 10
-179.52
 20
2328.32
  0
VERTEX
  8
52
 62
7
  6
CONTINUOUS
 10
-193.92
 20
2324.32
  0
VERTEX
  8
52
 62
7
  6
CONTINUOUS
 10
-211.52
 20
2308.32
  0
VERTEX
  8
52
 62
7
  6
CONTINUOUS
 10
-222.72
 20
2301.92
  0
VERTEX
  8
52
 62
7
  6
CONTINUOUS
 10
-233.12
 20
2298.72
  0
VERTEX
  8
52
 62
7
  6
CONTINUOUS
 10
-237.12
 20
2298.72
  0
VERTEX
  8
52
 62
7
  6
CONTINUOUS
 10
-246.72
 20
2294.72
  0
SEQEND
  0
POLYLINE
  8
52
 62
7
 66
1
 70
1
  0
VERTEX
  8
52
 62
7
  6
CONTINUOUS
 10
-77.7770412498825
 20
1446.43100640659
  0
VERTEX
  8
52
 62
7
  6
CONTINUOUS
 10
-59.6175368513053
 20
1440.11465705056
  0
VERTEX
  8
52
 62
7
  6
CONTINUOUS
 10
-58.0003662014403
 20
1439.03654328398
  0
VERTEX
  8
52
 62
7
  6
CONTINUOUS
 10
-57.417366596101
 20
1437.28754446797
  0
VERTEX
  8
52
 62
7
  6
CONTINUOUS
 10
-53.622633403899
 20
1438.55245553203
  0
VERTEX
  8
52
 62
7
  6
CONTINUOUS
 10
-54.6396337985603
 20
1441.60345671601
  0
VERTEX
  8
52
 62
7
  6
CONTINUOUS
 10
-57.8224631486946
 20
1443.72534294944
  0
VERTEX
  8
52
 62
7
  6
CONTINUOUS
 10
-76.4629587501175
 20
1450.20899359341
  0
SEQEND
  0
POLYLINE
  8
52
 62
7
 66
1
 70
1
  0
VERTEX
  8
52
 62
7
  6
CONTINUOUS
 10
-1422.31223227028
 20
2232.75883864862
  0
VERTEX
  8
52
 62
7
  6
CONTINUOUS
 10
-1410.49229058708
 20
2230.39485031198
  0
VERTEX
  8
52
 62
7
  6
CONTINUOUS
 10
-1402.66278135271
 20
2227.26304661823
  0
VERTEX
  8
52
 62
7
  6
CONTINUOUS
 10
-1401.17721864729
 20
2230.97695338177
  0
VERTEX
  8
52
 62
7
  6
CONTINUOUS
 10
-1409.34770941292
 20
2234.24514968802
  0
VERTEX
  8
52
 62
7
  6
CONTINUOUS
 10
-1421.52776772972
 20
2236.68116135138
  0
SEQEND
  0
POLYLINE
  8
52
 62
7
 66
1
 70
1
  0
VERTEX
  8
52
 62
7
  6
CONTINUOUS
 10
-73.5141089710032
 20
1838.87339299777
  0
VERTEX
  8
52
 62
7
  6
CONTINUOUS
 10
-69.5258910289969
 20
1838.56660700223
  0
VERTEX
  8
52
 62
7
  6
CONTINUOUS
 10
-67.9258910289968
 20
1859.36660700223
  0
VERTEX
  8
52
 62
7
  6
CONTINUOUS
 10
-71.9141089710032
 20
1859.67339299777
  0
SEQEND
  0
POLYLINE
  8
52
 62
7
 66
1
 70
1
  0
VERTEX
  8
52
 62
7
  6
CONTINUOUS
 10
-110.290423509639
 20
1798.3773176505
  0
VERTEX
  8
52
 62
7
  6
CONTINUOUS
 10
-107.12
 20
1780.14738247007
  0
VERTEX
  8
52
 62
7
  6
CONTINUOUS
 10
-107.12
 20
1773.92
  0
VERTEX
  8
52
 62
7
  6
CONTINUOUS
 10
-103.12
 20
1773.92
  0
VERTEX
  8
52
 62
7
  6
CONTINUOUS
 10
-103.12
 20
1780.49261752993
  0
VERTEX
  8
52
 62
7
  6
CONTINUOUS
 10
-106.349576490361
 20
1799.0626823495
  0
SEQEND
  0
POLYLINE
  8
52
 62
7
 66
1
 70
1
  0
VERTEX
  8
52
 62
7
  6
CONTINUOUS
 10
-1030.38964262276
 20
960.523325014687
  0
VERTEX
  8
52
 62
7
  6
CONTINUOUS
 10
-1024.04810335965
 20
952.369917390699
  0
VERTEX
  8
52
 62
7
  6
CONTINUOUS
 10
-1016.49128586236
 20
948.171685447757
  0
VERTEX
  8
52
 62
7
  6
CONTINUOUS
 10
-1014.54871413764
 20
951.668314552243
  0
VERTEX
  8
52
 62
7
  6
CONTINUOUS
 10
-1021.39189664035
 20
955.470082609301
  0
VERTEX
  8
52
 62
7
  6
CONTINUOUS
 10
-1026.25035737724
 20
961.716674985312
  0
VERTEX
  8
52
 62
7
  6
CONTINUOUS
 10
-1025.59246380115
 20
968.295610746223
  0
VERTEX
  8
52
 62
7
  6
CONTINUOUS
 10
-1021.20148679527
 20
973.418417253088
  0
VERTEX
  8
52
 62
7
  6
CONTINUOUS
 10
-1024.23851320473
 20
976.021582746912
  0
VERTEX
  8
52
 62
7
  6
CONTINUOUS
 10
-1029.44753619885
 20
969.944389253777
  0
SEQEND
  0
POLYLINE
  8
52
 62
7
 66
1
 70
1
  0
VERTEX
  8
52
 62
7
  6
CONTINUOUS
 10
-122.199586846977
 20
1856.43651387383
  0
VERTEX
  8
52
 62
7
  6
CONTINUOUS
 10
-115.92
 20
1839.16765004464
  0
VERTEX
  8
52
 62
7
  6
CONTINUOUS
 10
-115.92
 20
1828.32
  0
VERTEX
  8
52
 62
7
  6
CONTINUOUS
 10
-111.92
 20
1828.32
  0
VERTEX
  8
52
 62
7
  6
CONTINUOUS
 10
-111.92
 20
1839.87234995536
  0
VERTEX
  8
52
 62
7
  6
CONTINUOUS
 10
-118.440413153023
 20
1857.80348612617
  0
SEQEND
  0
POLYLINE
  8
52
 62
7
 66
1
 70
1
  0
VERTEX
  8
52
 62
7
  6
CONTINUOUS
 10
-142.494695771133
 20
1449.43565257044
  0
VERTEX
  8
52
 62
7
  6
CONTINUOUS
 10
-141.345304228867
 20
1445.60434742956
  0
VERTEX
  8
52
 62
7
  6
CONTINUOUS
 10
-133.529569112211
 20
1447.94906796455
  0
VERTEX
  8
52
 62
7
  6
CONTINUOUS
 10
-117.720992561958
 20
1449.52992561958
  0
VERTEX
  8
52
 62
7
  6
CONTINUOUS
 10
-118.119007438042
 20
1453.51007438042
  0
VERTEX
  8
52
 62
7
  6
CONTINUOUS
 10
-134.310430887791
 20
1451.89093203545
  0
SEQEND
  0
POLYLINE
  8
52
 62
7
 66
1
 70
1
  0
VERTEX
  8
52
 62
7
  6
CONTINUOUS
 10
-138.72
 20
1826.32
  0
VERTEX
  8
52
 62
7
  6
CONTINUOUS
 10
-135.52
 20
1823.92
  0
VERTEX
  8
52
 62
7
  6
CONTINUOUS
 10
-132.697659869814
 20
1827.68312017358
  0
VERTEX
  8
52
 62
7
  6
CONTINUOUS
 10
-133.521110186042
 20
1852.38662966047
  0
VERTEX
  8
52
 62
7
  6
CONTINUOUS
 10
-137.518889813958
 20
1852.25337033953
  0
VERTEX
  8
52
 62
7
  6
CONTINUOUS
 10
-136.742340130188
 20
1828.95687982642
  0
SEQEND
  0
POLYLINE
  8
52
 62
7
 66
1
 70
1
  0
VERTEX
  8
52
 62
7
  6
CONTINUOUS
 10
-1459.06028500029
 20
1350.23492874993
  0
VERTEX
  8
52
 62
7
  6
CONTINUOUS
 10
-1458.09334737479
 20
1346.36717824794
  0
VERTEX
  8
52
 62
7
  6
CONTINUOUS
 10
-1457.00830146282
 20
1345.52
  0
VERTEX
  8
52
 62
7
  6
CONTINUOUS
 10
-1452.647864045
 20
1345.52
  0
VERTEX
  8
52
 62
7
  6
CONTINUOUS
 10
-1447.64142686429
 20
1348.02321859036
  0
VERTEX
  8
52
 62
7
  6
CONTINUOUS
 10
-1430.27675779282
 20
1351.96973428842
  0
VERTEX
  8
52
 62
7
  6
CONTINUOUS
 10
-1431.16324220718
 20
1355.87026571158
  0
VERTEX
  8
52
 62
7
  6
CONTINUOUS
 10
-1448.99857313571
 20
1351.81678140964
  0
VERTEX
  8
52
 62
7
  6
CONTINUOUS
 10
-1453.592135955
 20
1349.52
  0
VERTEX
  8
52
 62
7
  6
CONTINUOUS
 10
-1454.75844718719
 20
1349.52
  0
VERTEX
  8
52
 62
7
  6
CONTINUOUS
 10
-1455.17971499971
 20
1351.20507125007
  0
SEQEND
  0
POLYLINE
  8
52
 62
7
 66
1
 70
1
  0
VERTEX
  8
52
 62
7
  6
CONTINUOUS
 10
-1528.63192514695
 20
915.944474069342
  0
VERTEX
  8
52
 62
7
  6
CONTINUOUS
 10
-1513.51927732573
 20
913.558266518623
  0
VERTEX
  8
52
 62
7
  6
CONTINUOUS
 10
-1491.20507125007
 20
907.979714999709
  0
VERTEX
  8
52
 62
7
  6
CONTINUOUS
 10
-1490.23492874993
 20
911.860285000291
  0
VERTEX
  8
52
 62
7
  6
CONTINUOUS
 10
-1512.72072267427
 20
917.481733481377
  0
VERTEX
  8
52
 62
7
  6
CONTINUOUS
 10
-1528.00807485305
 20
919.895525930658
  0
SEQEND
  0
POLYLINE
  8
52
 62
7
 66
1
 70
1
  0
VERTEX
  8
52
 62
7
  6
CONTINUOUS
 10
-271.114398619777
 20
1703.37042010352
  0
VERTEX
  8
52
 62
7
  6
CONTINUOUS
 10
-268.714398619777
 20
1671.37042010352
  0
VERTEX
  8
52
 62
7
  6
CONTINUOUS
 10
-264.725601380223
 20
1671.66957989648
  0
VERTEX
  8
52
 62
7
  6
CONTINUOUS
 10
-267.125601380223
 20
1703.66957989648
  0
SEQEND
  0
POLYLINE
  8
52
 62
7
 66
1
 70
1
  0
VERTEX
  8
52
 62
7
  6
CONTINUOUS
 10
-279.860285000291
 20
1790.23492874993
  0
VERTEX
  8
52
 62
7
  6
CONTINUOUS
 10
-278.327956026523
 20
1784.10561285486
  0
VERTEX
  8
52
 62
7
  6
CONTINUOUS
 10
-279.118960228679
 20
1759.58448258802
  0
VERTEX
  8
52
 62
7
  6
CONTINUOUS
 10
-275.121039771321
 20
1759.45551741198
  0
VERTEX
  8
52
 62
7
  6
CONTINUOUS
 10
-274.312043973477
 20
1784.53438714514
  0
VERTEX
  8
52
 62
7
  6
CONTINUOUS
 10
-275.979714999709
 20
1791.20507125007
  0
SEQEND
  0
POLYLINE
  8
52
 62
7
 66
1
 70
1
  0
VERTEX
  8
52
 62
7
  6
CONTINUOUS
 10
-330.127212168519
 20
2854.33076318222
  0
VERTEX
  8
52
 62
7
  6
CONTINUOUS
 10
-291.727212168519
 20
2850.33076318222
  0
VERTEX
  8
52
 62
7
  6
CONTINUOUS
 10
-291.312787831481
 20
2854.30923681778
  0
VERTEX
  8
52
 62
7
  6
CONTINUOUS
 10
-329.712787831481
 20
2858.30923681778
  0
SEQEND
  0
POLYLINE
  8
52
 62
7
 66
1
 70
1
  0
VERTEX
  8
52
 62
7
  6
CONTINUOUS
 10
-1106.72
 20
1669.92
  0
VERTEX
  8
52
 62
7
  6
CONTINUOUS
 10
-1105.12
 20
1661.12
  0
VERTEX
  8
52
 62
7
  6
CONTINUOUS
 10
-1102.72
 20
1657.92
  0
VERTEX
  8
52
 62
7
  6
CONTINUOUS
 10
-1097.92
 20
1653.92
  0
VERTEX
  8
52
 62
7
  6
CONTINUOUS
 10
-1088.32
 20
1649.92
  0
VERTEX
  8
52
 62
7
  6
CONTINUOUS
 10
-1069.92
 20
1648.32
  0
VERTEX
  8
52
 62
7
  6
CONTINUOUS
 10
-1053.92
 20
1650.72
  0
VERTEX
  8
52
 62
7
  6
CONTINUOUS
 10
-1025.12
 20
1657.92
  0
VERTEX
  8
52
 62
7
  6
CONTINUOUS
 10
-1023.52
 20
1659.52
  0
VERTEX
  8
52
 62
7
  6
CONTINUOUS
 10
-1018.72
 20
1659.52
  0
VERTEX
  8
52
 62
7
  6
CONTINUOUS
 10
-978.72
 20
1672.32
  0
VERTEX
  8
52
 62
7
  6
CONTINUOUS
 10
-975.52
 20
1674.72
  0
VERTEX
  8
52
 62
7
  6
CONTINUOUS
 10
-968.32
 20
1676.32
  0
VERTEX
  8
52
 62
7
  6
CONTINUOUS
 10
-953.12
 20
1682.72
  0
VERTEX
  8
52
 62
7
  6
CONTINUOUS
 10
-942.72
 20
1688.32
  0
VERTEX
  8
52
 62
7
  6
CONTINUOUS
 10
-929.12
 20
1700.32
  0
VERTEX
  8
52
 62
7
  6
CONTINUOUS
 10
-926.72
 20
1705.92
  0
VERTEX
  8
52
 62
7
  6
CONTINUOUS
 10
-926.72
 20
1710.72
  0
VERTEX
  8
52
 62
7
  6
CONTINUOUS
 10
-930.72
 20
1717.12
  0
VERTEX
  8
52
 62
7
  6
CONTINUOUS
 10
-936.32
 20
1719.52
  0
VERTEX
  8
52
 62
7
  6
CONTINUOUS
 10
-945.92
 20
1721.12
  0
VERTEX
  8
52
 62
7
  6
CONTINUOUS
 10
-961.92
 20
1720.32
  0
VERTEX
  8
52
 62
7
  6
CONTINUOUS
 10
-964.32
 20
1718.72
  0
VERTEX
  8
52
 62
7
  6
CONTINUOUS
 10
-969.12
 20
1718.72
  0
VERTEX
  8
52
 62
7
  6
CONTINUOUS
 10
-981.12
 20
1715.52
  0
VERTEX
  8
52
 62
7
  6
CONTINUOUS
 10
-1005.92
 20
1707.52
  0
VERTEX
  8
52
 62
7
  6
CONTINUOUS
 10
-1007.52
 20
1705.92
  0
VERTEX
  8
52
 62
7
  6
CONTINUOUS
 10
-1022.72
 20
1701.12
  0
VERTEX
  8
52
 62
7
  6
CONTINUOUS
 10
-1032.32
 20
1695.52
  0
VERTEX
  8
52
 62
7
  6
CONTINUOUS
 10
-1043.52
 20
1694.72
  0
VERTEX
  8
52
 62
7
  6
CONTINUOUS
 10
-1057.92
 20
1694.72
  0
VERTEX
  8
52
 62
7
  6
CONTINUOUS
 10
-1079.52
 20
1692.32
  0
VERTEX
  8
52
 62
7
  6
CONTINUOUS
 10
-1089.92
 20
1688.32
  0
VERTEX
  8
52
 62
7
  6
CONTINUOUS
 10
-1097.12
 20
1683.52
  0
VERTEX
  8
52
 62
7
  6
CONTINUOUS
 10
-1103.52
 20
1677.12
  0
SEQEND
  0
POLYLINE
  8
53
 62
7
 66
1
 70
1
  0
VERTEX
  8
53
 62
7
  6
CONTINUOUS
 10
-1631.98217782649
 20
2067.02
  0
VERTEX
  8
53
 62
7
  6
CONTINUOUS
 10
-1631.98217782649
 20
2060.02
  0
VERTEX
  8
53
 62
7
  6
CONTINUOUS
 10
-1625.92
 20
2056.52
  0
VERTEX
  8
53
 62
7
  6
CONTINUOUS
 10
-1619.85782217351
 20
2060.02
  0
VERTEX
  8
53
 62
7
  6
CONTINUOUS
 10
-1619.85782217351
 20
2067.02
  0
VERTEX
  8
53
 62
7
  6
CONTINUOUS
 10
-1625.92
 20
2070.52
  0
SEQEND
  0
POLYLINE
  8
53
 62
7
 66
1
 70
1
  0
VERTEX
  8
53
 62
7
  6
CONTINUOUS
 10
-1647.98217782649
 20
1174.22
  0
VERTEX
  8
53
 62
7
  6
CONTINUOUS
 10
-1647.98217782649
 20
1167.22
  0
VERTEX
  8
53
 62
7
  6
CONTINUOUS
 10
-1641.92
 20
1163.72
  0
VERTEX
  8
53
 62
7
  6
CONTINUOUS
 10
-1635.85782217351
 20
1167.22
  0
VERTEX
  8
53
 62
7
  6
CONTINUOUS
 10
-1635.85782217351
 20
1174.22
  0
VERTEX
  8
53
 62
7
  6
CONTINUOUS
 10
-1641.92
 20
1177.72
  0
SEQEND
  0
POLYLINE
  8
53
 62
7
 66
1
 70
1
  0
VERTEX
  8
53
 62
7
  6
CONTINUOUS
 10
-100.782177826488
 20
1457.42
  0
VERTEX
  8
53
 62
7
  6
CONTINUOUS
 10
-100.782177826488
 20
1450.42
  0
VERTEX
  8
53
 62
7
  6
CONTINUOUS
 10
-94.72
 20
1446.92
  0
VERTEX
  8
53
 62
7
  6
CONTINUOUS
 10
-88.657822173512
 20
1450.42
  0
VERTEX
  8
53
 62
7
  6
CONTINUOUS
 10
-88.657822173512
 20
1457.42
  0
VERTEX
  8
53
 62
7
  6
CONTINUOUS
 10
-94.72
 20
1460.92
  0
SEQEND
  0
POLYLINE
  8
53
 62
7
 66
1
 70
1
  0
VERTEX
  8
53
 62
7
  6
CONTINUOUS
 10
-1583.98217782649
 20
1190.22
  0
VERTEX
  8
53
 62
7
  6
CONTINUOUS
 10
-1583.98217782649
 20
1183.22
  0
VERTEX
  8
53
 62
7
  6
CONTINUOUS
 10
-1577.92
 20
1179.72
  0
VERTEX
  8
53
 62
7
  6
CONTINUOUS
 10
-1571.85782217351
 20
1183.22
  0
VERTEX
  8
53
 62
7
  6
CONTINUOUS
 10
-1571.85782217351
 20
1190.22
  0
VERTEX
  8
53
 62
7
  6
CONTINUOUS
 10
-1577.92
 20
1193.72
  0
SEQEND
  0
POLYLINE
  8
53
 62
7
 66
1
 70
1
  0
VERTEX
  8
53
 62
7
  6
CONTINUOUS
 10
-1419.98217782649
 20
1358.22
  0
VERTEX
  8
53
 62
7
  6
CONTINUOUS
 10
-1419.98217782649
 20
1351.22
  0
VERTEX
  8
53
 62
7
  6
CONTINUOUS
 10
-1413.92
 20
1347.72
  0
VERTEX
  8
53
 62
7
  6
CONTINUOUS
 10
-1407.85782217351
 20
1351.22
  0
VERTEX
  8
53
 62
7
  6
CONTINUOUS
 10
-1407.85782217351
 20
1358.22
  0
VERTEX
  8
53
 62
7
  6
CONTINUOUS
 10
-1413.92
 20
1361.72
  0
SEQEND
  0
POLYLINE
  8
53
 62
7
 66
1
 70
1
  0
VERTEX
  8
53
 62
7
  6
CONTINUOUS
 10
-1297.58217782649
 20
1648.62
  0
VERTEX
  8
53
 62
7
  6
CONTINUOUS
 10
-1297.58217782649
 20
1641.62
  0
VERTEX
  8
53
 62
7
  6
CONTINUOUS
 10
-1291.52
 20
1638.12
  0
VERTEX
  8
53
 62
7
  6
CONTINUOUS
 10
-1285.45782217351
 20
1641.62
  0
VERTEX
  8
53
 62
7
  6
CONTINUOUS
 10
-1285.45782217351
 20
1648.62
  0
VERTEX
  8
53
 62
7
  6
CONTINUOUS
 10
-1291.52
 20
1652.12
  0
SEQEND
  0
POLYLINE
  8
53
 62
7
 66
1
 70
1
  0
VERTEX
  8
53
 62
7
  6
CONTINUOUS
 10
-1000.78217782649
 20
2199.82
  0
VERTEX
  8
53
 62
7
  6
CONTINUOUS
 10
-1000.78217782649
 20
2192.82
  0
VERTEX
  8
53
 62
7
  6
CONTINUOUS
 10
-994.72
 20
2189.32
  0
VERTEX
  8
53
 62
7
  6
CONTINUOUS
 10
-988.657822173512
 20
2192.82
  0
VERTEX
  8
53
 62
7
  6
CONTINUOUS
 10
-988.657822173512
 20
2199.82
  0
VERTEX
  8
53
 62
7
  6
CONTINUOUS
 10
-994.72
 20
2203.32
  0
SEQEND
  0
POLYLINE
  8
53
 62
7
 66
1
 70
1
  0
VERTEX
  8
53
 62
7
  6
CONTINUOUS
 10
-888.782177826488
 20
1467.02
  0
VERTEX
  8
53
 62
7
  6
CONTINUOUS
 10
-888.782177826488
 20
1460.02
  0
VERTEX
  8
53
 62
7
  6
CONTINUOUS
 10
-882.72
 20
1456.52
  0
VERTEX
  8
53
 62
7
  6
CONTINUOUS
 10
-876.657822173512
 20
1460.02
  0
VERTEX
  8
53
 62
7
  6
CONTINUOUS
 10
-876.657822173512
 20
1467.02
  0
VERTEX
  8
53
 62
7
  6
CONTINUOUS
 10
-882.72
 20
1470.52
  0
SEQEND
  0
POLYLINE
  8
53
 62
7
 66
1
 70
1
  0
VERTEX
  8
53
 62
7
  6
CONTINUOUS
 10
-796.782177826488
 20
1099.82
  0
VERTEX
  8
53
 62
7
  6
CONTINUOUS
 10
-796.782177826488
 20
1092.82
  0
VERTEX
  8
53
 62
7
  6
CONTINUOUS
 10
-790.72
 20
1089.32
  0
VERTEX
  8
53
 62
7
  6
CONTINUOUS
 10
-784.657822173512
 20
1092.82
  0
VERTEX
  8
53
 62
7
  6
CONTINUOUS
 10
-784.657822173512
 20
1099.82
  0
VERTEX
  8
53
 62
7
  6
CONTINUOUS
 10
-790.72
 20
1103.32
  0
SEQEND
  0
POLYLINE
  8
53
 62
7
 66
1
 70
1
  0
VERTEX
  8
53
 62
7
  6
CONTINUOUS
 10
-1606.72
 20
1577.92
  0
VERTEX
  8
53
 62
7
  6
CONTINUOUS
 10
-1606.72
 20
1565.12
  0
VERTEX
  8
53
 62
7
  6
CONTINUOUS
 10
-1602.72
 20
1544.32
  0
VERTEX
  8
53
 62
7
  6
CONTINUOUS
 10
-1599.52
 20
1508.32
  0
VERTEX
  8
53
 62
7
  6
CONTINUOUS
 10
-1596.32
 20
1489.12
  0
VERTEX
  8
53
 62
7
  6
CONTINUOUS
 10
-1594.72
 20
1486.72
  0
VERTEX
  8
53
 62
7
  6
CONTINUOUS
 10
-1592.32
 20
1465.92
  0
VERTEX
  8
53
 62
7
  6
CONTINUOUS
 10
-1589.92
 20
1461.12
  0
VERTEX
  8
53
 62
7
  6
CONTINUOUS
 10
-1590.72
 20
1460.32
  0
VERTEX
  8
53
 62
7
  6
CONTINUOUS
 10
-1587.52
 20
1450.72
  0
VERTEX
  8
53
 62
7
  6
CONTINUOUS
 10
-1576.32
 20
1401.12
  0
VERTEX
  8
53
 62
7
  6
CONTINUOUS
 10
-1571.52
 20
1386.72
  0
VERTEX
  8
53
 62
7
  6
CONTINUOUS
 10
-1567.52
 20
1381.12
  0
VERTEX
  8
53
 62
7
  6
CONTINUOUS
 10
-1565.12
 20
1381.12
  0
VERTEX
  8
53
 62
7
  6
CONTINUOUS
 10
-1561.92
 20
1385.92
  0
VERTEX
  8
53
 62
7
  6
CONTINUOUS
 10
-1561.92
 20
1394.72
  0
VERTEX
  8
53
 62
7
  6
CONTINUOUS
 10
-1563.52
 20
1402.72
  0
VERTEX
  8
53
 62
7
  6
CONTINUOUS
 10
-1577.92
 20
1468.32
  0
VERTEX
  8
53
 62
7
  6
CONTINUOUS
 10
-1580.32
 20
1476.32
  0
VERTEX
  8
53
 62
7
  6
CONTINUOUS
 10
-1582.72
 20
1494.72
  0
VERTEX
  8
53
 62
7
  6
CONTINUOUS
 10
-1585.92
 20
1504.32
  0
VERTEX
  8
53
 62
7
  6
CONTINUOUS
 10
-1587.52
 20
1515.52
  0
VERTEX
  8
53
 62
7
  6
CONTINUOUS
 10
-1589.12
 20
1517.92
  0
VERTEX
  8
53
 62
7
  6
CONTINUOUS
 10
-1589.92
 20
1525.92
  0
VERTEX
  8
53
 62
7
  6
CONTINUOUS
 10
-1592.32
 20
1531.52
  0
VERTEX
  8
53
 62
7
  6
CONTINUOUS
 10
-1593.92
 20
1543.52
  0
VERTEX
  8
53
 62
7
  6
CONTINUOUS
 10
-1595.52
 20
1545.92
  0
VERTEX
  8
53
 62
7
  6
CONTINUOUS
 10
-1599.52
 20
1569.92
  0
VERTEX
  8
53
 62
7
  6
CONTINUOUS
 10
-1601.92
 20
1577.92
  0
VERTEX
  8
53
 62
7
  6
CONTINUOUS
 10
-1605.12
 20
1579.52
  0
SEQEND
  0
POLYLINE
  8
54
 62
7
 66
1
 70
1
  0
VERTEX
  8
54
 62
7
  6
CONTINUOUS
 10
-1377.92
 20
2234.72
  0
VERTEX
  8
54
 62
7
  6
CONTINUOUS
 10
-1377.92
 20
2223.52
  0
VERTEX
  8
54
 62
7
  6
CONTINUOUS
 10
-1376.32
 20
2216.32
  0
VERTEX
  8
54
 62
7
  6
CONTINUOUS
 10
-1370.72
 20
2208.32
  0
VERTEX
  8
54
 62
7
  6
CONTINUOUS
 10
-1366.72
 20
2208.32
  0
VERTEX
  8
54
 62
7
  6
CONTINUOUS
 10
-1364.32
 20
2210.72
  0
VERTEX
  8
54
 62
7
  6
CONTINUOUS
 10
-1361.92
 20
2217.12
  0
VERTEX
  8
54
 62
7
  6
CONTINUOUS
 10
-1361.92
 20
2224.32
  0
VERTEX
  8
54
 62
7
  6
CONTINUOUS
 10
-1363.52
 20
2231.52
  0
VERTEX
  8
54
 62
7
  6
CONTINUOUS
 10
-1365.92
 20
2235.52
  0
VERTEX
  8
54
 62
7
  6
CONTINUOUS
 10
-1369.12
 20
2238.72
  0
VERTEX
  8
54
 62
7
  6
CONTINUOUS
 10
-1373.12
 20
2239.52
  0
SEQEND
  0
POLYLINE
  8
54
 62
7
 66
1
 70
1
  0
VERTEX
  8
54
 62
7
  6
CONTINUOUS
 10
-1399.52
 20
1656.32
  0
VERTEX
  8
54
 62
7
  6
CONTINUOUS
 10
-1399.52
 20
1649.92
  0
VERTEX
  8
54
 62
7
  6
CONTINUOUS
 10
-1397.92
 20
1647.52
  0
VERTEX
  8
54
 62
7
  6
CONTINUOUS
 10
-1394.72
 20
1647.52
  0
VERTEX
  8
54
 62
7
  6
CONTINUOUS
 10
-1393.12
 20
1649.12
  0
VERTEX
  8
54
 62
7
  6
CONTINUOUS
 10
-1393.12
 20
1654.72
  0
VERTEX
  8
54
 62
7
  6
CONTINUOUS
 10
-1396.32
 20
1657.92
  0
SEQEND
  0
POLYLINE
  8
54
 62
7
 66
1
 70
1
  0
VERTEX
  8
54
 62
7
  6
CONTINUOUS
 10
-1452.32
 20
2432.32
  0
VERTEX
  8
54
 62
7
  6
CONTINUOUS
 10
-1450.72
 20
2428.32
  0
VERTEX
  8
54
 62
7
  6
CONTINUOUS
 10
-1441.12
 20
2422.72
  0
VERTEX
  8
54
 62
7
  6
CONTINUOUS
 10
-1435.52
 20
2421.92
  0
VERTEX
  8
54
 62
7
  6
CONTINUOUS
 10
-1433.92
 20
2422.72
  0
VERTEX
  8
54
 62
7
  6
CONTINUOUS
 10
-1434.72
 20
2426.72
  0
VERTEX
  8
54
 62
7
  6
CONTINUOUS
 10
-1437.92
 20
2429.12
  0
VERTEX
  8
54
 62
7
  6
CONTINUOUS
 10
-1449.12
 20
2433.12
  0
SEQEND
  0
POLYLINE
  8
54
 62
7
 66
1
 70
1
  0
VERTEX
  8
54
 62
7
  6
CONTINUOUS
 10
-1585.12
 20
2052.32
  0
VERTEX
  8
54
 62
7
  6
CONTINUOUS
 10
-1584.32
 20
2045.12
  0
VERTEX
  8
54
 62
7
  6
CONTINUOUS
 10
-1579.52
 20
2041.12
  0
VERTEX
  8
54
 62
7
  6
CONTINUOUS
 10
-1573.92
 20
2040.32
  0
VERTEX
  8
54
 62
7
  6
CONTINUOUS
 10
-1568.32
 20
2041.12
  0
VERTEX
  8
54
 62
7
  6
CONTINUOUS
 10
-1566.72
 20
2042.72
  0
VERTEX
  8
54
 62
7
  6
CONTINUOUS
 10
-1567.52
 20
2053.12
  0
VERTEX
  8
54
 62
7
  6
CONTINUOUS
 10
-1573.12
 20
2058.72
  0
VERTEX
  8
54
 62
7
  6
CONTINUOUS
 10
-1581.12
 20
2058.72
  0
SEQEND
  0
POLYLINE
  8
54
 62
7
 66
1
 70
1
  0
VERTEX
  8
54
 62
7
  6
CONTINUOUS
 10
-1967.51897938018
 20
2329.08940929923
  0
VERTEX
  8
54
 62
7
  6
CONTINUOUS
 10
-1959.5149927264
 20
2305.90902117175
  0
VERTEX
  8
54
 62
7
  6
CONTINUOUS
 10
-1929.73078733329
 20
2253.97876046995
  0
VERTEX
  8
54
 62
7
  6
CONTINUOUS
 10
-1909.00066227065
 20
2238.43062719229
  0
VERTEX
  8
54
 62
7
  6
CONTINUOUS
 10
-1900.32
 20
2237.92
  0
VERTEX
  8
54
 62
7
  6
CONTINUOUS
 10
-1886.72
 20
2237.12
  0
VERTEX
  8
54
 62
7
  6
CONTINUOUS
 10
-1873.92
 20
2241.92
  0
VERTEX
  8
54
 62
7
  6
CONTINUOUS
 10
-1865.12
 20
2248.32
  0
VERTEX
  8
54
 62
7
  6
CONTINUOUS
 10
-1850.72
 20
2262.72
  0
VERTEX
  8
54
 62
7
  6
CONTINUOUS
 10
-1837.12
 20
2280.32
  0
VERTEX
  8
54
 62
7
  6
CONTINUOUS
 10
-1827.52
 20
2296.32
  0
VERTEX
  8
54
 62
7
  6
CONTINUOUS
 10
-1820.32
 20
2311.52
  0
VERTEX
  8
54
 62
7
  6
CONTINUOUS
 10
-1815.52
 20
2326.72
  0
VERTEX
  8
54
 62
7
  6
CONTINUOUS
 10
-1813.92
 20
2338.72
  0
VERTEX
  8
54
 62
7
  6
CONTINUOUS
 10
-1814.72
 20
2359.52
  0
VERTEX
  8
54
 62
7
  6
CONTINUOUS
 10
-1818.72
 20
2378.72
  0
VERTEX
  8
54
 62
7
  6
CONTINUOUS
 10
-1824.32
 20
2397.12
  0
VERTEX
  8
54
 62
7
  6
CONTINUOUS
 10
-1824.32
 20
2408.32
  0
VERTEX
  8
54
 62
7
  6
CONTINUOUS
 10
-1822.72
 20
2416.32
  0
VERTEX
  8
54
 62
7
  6
CONTINUOUS
 10
-1809.92
 20
2440.32
  0
VERTEX
  8
54
 62
7
  6
CONTINUOUS
 10
-1805.92
 20
2452.32
  0
VERTEX
  8
54
 62
7
  6
CONTINUOUS
 10
-1805.92
 20
2464.32
  0
VERTEX
  8
54
 62
7
  6
CONTINUOUS
 10
-1811.52
 20
2481.92
  0
VERTEX
  8
54
 62
7
  6
CONTINUOUS
 10
-1819.52
 20
2496.32
  0
VERTEX
  8
54
 62
7
  6
CONTINUOUS
 10
-1834.72
 20
2513.92
  0
VERTEX
  8
54
 62
7
  6
CONTINUOUS
 10
-1841.92
 20
2517.92
  0
VERTEX
  8
54
 62
7
  6
CONTINUOUS
 10
-1859.23106408417
 20
2527.53725782628
  0
VERTEX
  8
54
 62
7
  6
CONTINUOUS
 10
-1841.9195708142
 20
2499.83850461401
  0
VERTEX
  8
54
 62
7
  6
CONTINUOUS
 10
-1841.92135023526
 20
2465.83938264461
  0
VERTEX
  8
54
 62
7
  6
CONTINUOUS
 10
-1855.51641080274
 20
2427.52875637777
  0
VERTEX
  8
54
 62
7
  6
CONTINUOUS
 10
-1865.8978715474
 20
2405.14505025074
  0
VERTEX
  8
54
 62
7
  6
CONTINUOUS
 10
-1874.65208362186
 20
2399.60948762094
  0
VERTEX
  8
54
 62
7
  6
CONTINUOUS
 10
-1877.17838815864
 20
2390.6704786934
  0
VERTEX
  8
54
 62
7
  6
CONTINUOUS
 10
-1883.42056855964
 20
2390.15963822471
  0
VERTEX
  8
54
 62
7
  6
CONTINUOUS
 10
-1961.92663911103
 20
2349.11178804881
  0
SEQEND
  0
POLYLINE
  8
54
 62
7
 66
1
 70
1
  0
VERTEX
  8
54
 62
7
  6
CONTINUOUS
 10
-1917.73186668007
 20
2640.37548497837
  0
VERTEX
  8
54
 62
7
  6
CONTINUOUS
 10
-1911.0175095985
 20
2613.51389549583
  0
VERTEX
  8
54
 62
7
  6
CONTINUOUS
 10
-1883.72123566358
 20
2566.72204726919
  0
VERTEX
  8
54
 62
7
  6
CONTINUOUS
 10
-1863.25939937759
 20
2533.982678994
  0
VERTEX
  8
54
 62
7
  6
CONTINUOUS
 10
-1853.92
 20
2534.72
  0
VERTEX
  8
54
 62
7
  6
CONTINUOUS
 10
-1823.52
 20
2537.12
  0
VERTEX
  8
54
 62
7
  6
CONTINUOUS
 10
-1809.92
 20
2541.92
  0
VERTEX
  8
54
 62
7
  6
CONTINUOUS
 10
-1802.72
 20
2546.72
  0
VERTEX
  8
54
 62
7
  6
CONTINUOUS
 10
-1796.32
 20
2554.72
  0
VERTEX
  8
54
 62
7
  6
CONTINUOUS
 10
-1793.92
 20
2562.72
  0
VERTEX
  8
54
 62
7
  6
CONTINUOUS
 10
-1793.92
 20
2568.32
  0
VERTEX
  8
54
 62
7
  6
CONTINUOUS
 10
-1797.12
 20
2578.72
  0
VERTEX
  8
54
 62
7
  6
CONTINUOUS
 10
-1802.72
 20
2588.32
  0
VERTEX
  8
54
 62
7
  6
CONTINUOUS
 10
-1815.52
 20
2601.12
  0
VERTEX
  8
54
 62
7
  6
CONTINUOUS
 10
-1842.72
 20
2618.72
  0
VERTEX
  8
54
 62
7
  6
CONTINUOUS
 10
-1877.12
 20
2636.32
  0
VERTEX
  8
54
 62
7
  6
CONTINUOUS
 10
-1889.12
 20
2644.32
  0
VERTEX
  8
54
 62
7
  6
CONTINUOUS
 10
-1892.32
 20
2648.32
  0
VERTEX
  8
54
 62
7
  6
CONTINUOUS
 10
-1899.52
 20
2653.12
  0
VERTEX
  8
54
 62
7
  6
CONTINUOUS
 10
-1905.12
 20
2658.72
  0
VERTEX
  8
54
 62
7
  6
CONTINUOUS
 10
-1910.20396825738
 20
2663.80396825834
  0
VERTEX
  8
54
 62
7
  6
CONTINUOUS
 10
-1914.71617776499
 20
2653.93133550479
  0
SEQEND
  0
POLYLINE
  8
54
 62
7
 66
1
 70
1
  0
VERTEX
  8
54
 62
7
  6
CONTINUOUS
 10
-1550.72
 20
2359.52
  0
VERTEX
  8
54
 62
7
  6
CONTINUOUS
 10
-1550.72
 20
2353.12
  0
VERTEX
  8
54
 62
7
  6
CONTINUOUS
 10
-1547.52
 20
2349.12
  0
VERTEX
  8
54
 62
7
  6
CONTINUOUS
 10
-1541.92
 20
2349.12
  0
VERTEX
  8
54
 62
7
  6
CONTINUOUS
 10
-1537.92
 20
2354.72
  0
VERTEX
  8
54
 62
7
  6
CONTINUOUS
 10
-1537.12
 20
2369.12
  0
VERTEX
  8
54
 62
7
  6
CONTINUOUS
 10
-1537.92
 20
2371.52
  0
VERTEX
  8
54
 62
7
  6
CONTINUOUS
 10
-1540.32
 20
2373.12
  0
VERTEX
  8
54
 62
7
  6
CONTINUOUS
 10
-1542.72
 20
2373.12
  0
VERTEX
  8
54
 62
7
  6
CONTINUOUS
 10
-1547.52
 20
2368.32
  0
VERTEX
  8
54
 62
7
  6
CONTINUOUS
 10
-1548.32
 20
2362.72
  0
SEQEND
  0
POLYLINE
  8
54
 62
7
 66
1
 70
1
  0
VERTEX
  8
54
 62
7
  6
CONTINUOUS
 10
-1738.72
 20
2159.52
  0
VERTEX
  8
54
 62
7
  6
CONTINUOUS
 10
-1738.72
 20
2156.32
  0
VERTEX
  8
54
 62
7
  6
CONTINUOUS
 10
-1736.32
 20
2154.72
  0
VERTEX
  8
54
 62
7
  6
CONTINUOUS
 10
-1732.32
 20
2148.32
  0
VERTEX
  8
54
 62
7
  6
CONTINUOUS
 10
-1729.92
 20
2149.92
  0
VERTEX
  8
54
 62
7
  6
CONTINUOUS
 10
-1729.12
 20
2152.32
  0
VERTEX
  8
54
 62
7
  6
CONTINUOUS
 10
-1729.12
 20
2154.72
  0
VERTEX
  8
54
 62
7
  6
CONTINUOUS
 10
-1730.72
 20
2156.32
  0
VERTEX
  8
54
 62
7
  6
CONTINUOUS
 10
-1729.12
 20
2157.92
  0
VERTEX
  8
54
 62
7
  6
CONTINUOUS
 10
-1729.92
 20
2160.32
  0
VERTEX
  8
54
 62
7
  6
CONTINUOUS
 10
-1731.52
 20
2161.92
  0
VERTEX
  8
54
 62
7
  6
CONTINUOUS
 10
-1737.12
 20
2161.92
  0
SEQEND
  0
POLYLINE
  8
54
 62
7
 66
1
 70
1
  0
VERTEX
  8
54
 62
7
  6
CONTINUOUS
 10
-1801.92
 20
2119.52
  0
VERTEX
  8
54
 62
7
  6
CONTINUOUS
 10
-1797.12
 20
2085.12
  0
VERTEX
  8
54
 62
7
  6
CONTINUOUS
 10
-1794.72
 20
2079.52
  0
VERTEX
  8
54
 62
7
  6
CONTINUOUS
 10
-1789.12
 20
2075.52
  0
VERTEX
  8
54
 62
7
  6
CONTINUOUS
 10
-1781.92
 20
2075.52
  0
VERTEX
  8
54
 62
7
  6
CONTINUOUS
 10
-1773.12
 20
2077.92
  0
VERTEX
  8
54
 62
7
  6
CONTINUOUS
 10
-1753.92
 20
2080.32
  0
VERTEX
  8
54
 62
7
  6
CONTINUOUS
 10
-1738.72
 20
2084.32
  0
VERTEX
  8
54
 62
7
  6
CONTINUOUS
 10
-1718.72
 20
2093.12
  0
VERTEX
  8
54
 62
7
  6
CONTINUOUS
 10
-1711.52
 20
2098.72
  0
VERTEX
  8
54
 62
7
  6
CONTINUOUS
 10
-1709.12
 20
2118.72
  0
VERTEX
  8
54
 62
7
  6
CONTINUOUS
 10
-1709.12
 20
2136.32
  0
VERTEX
  8
54
 62
7
  6
CONTINUOUS
 10
-1714.72
 20
2177.92
  0
VERTEX
  8
54
 62
7
  6
CONTINUOUS
 10
-1715.52
 20
2193.12
  0
VERTEX
  8
54
 62
7
  6
CONTINUOUS
 10
-1717.92
 20
2203.52
  0
VERTEX
  8
54
 62
7
  6
CONTINUOUS
 10
-1746.72
 20
2207.52
  0
VERTEX
  8
54
 62
7
  6
CONTINUOUS
 10
-1793.12
 20
2206.72
  0
VERTEX
  8
54
 62
7
  6
CONTINUOUS
 10
-1795.52
 20
2204.32
  0
VERTEX
  8
54
 62
7
  6
CONTINUOUS
 10
-1801.12
 20
2163.52
  0
SEQEND
  0
POLYLINE
  8
54
 62
7
 66
1
 70
1
  0
VERTEX
  8
54
 62
7
  6
CONTINUOUS
 10
-1842.72
 20
2693.92
  0
VERTEX
  8
54
 62
7
  6
CONTINUOUS
 10
-1840.32
 20
2677.92
  0
VERTEX
  8
54
 62
7
  6
CONTINUOUS
 10
-1835.52
 20
2666.72
  0
VERTEX
  8
54
 62
7
  6
CONTINUOUS
 10
-1829.12
 20
2659.52
  0
VERTEX
  8
54
 62
7
  6
CONTINUOUS
 10
-1813.12
 20
2649.92
  0
VERTEX
  8
54
 62
7
  6
CONTINUOUS
 10
-1801.92
 20
2646.72
  0
VERTEX
  8
54
 62
7
  6
CONTINUOUS
 10
-1786.72
 20
2646.72
  0
VERTEX
  8
54
 62
7
  6
CONTINUOUS
 10
-1760.32
 20
2652.32
  0
VERTEX
  8
54
 62
7
  6
CONTINUOUS
 10
-1726.72
 20
2656.32
  0
VERTEX
  8
54
 62
7
  6
CONTINUOUS
 10
-1716.32
 20
2660.32
  0
VERTEX
  8
54
 62
7
  6
CONTINUOUS
 10
-1709.12
 20
2665.12
  0
VERTEX
  8
54
 62
7
  6
CONTINUOUS
 10
-1701.12
 20
2673.92
  0
VERTEX
  8
54
 62
7
  6
CONTINUOUS
 10
-1695.52
 20
2685.92
  0
VERTEX
  8
54
 62
7
  6
CONTINUOUS
 10
-1693.12
 20
2697.12
  0
VERTEX
  8
54
 62
7
  6
CONTINUOUS
 10
-1693.12
 20
2713.12
  0
VERTEX
  8
54
 62
7
  6
CONTINUOUS
 10
-1694.72
 20
2720.32
  0
VERTEX
  8
54
 62
7
  6
CONTINUOUS
 10
-1695.69374743361
 20
2724.70186345007
  0
VERTEX
  8
54
 62
7
  6
CONTINUOUS
 10
-1834.61765834513
 20
2722.12468331094
  0
VERTEX
  8
54
 62
7
  6
CONTINUOUS
 10
-1837.12
 20
2717.12
  0
VERTEX
  8
54
 62
7
  6
CONTINUOUS
 10
-1841.92
 20
2707.52
  0
SEQEND
  0
POLYLINE
  8
54
 62
7
 66
1
 70
1
  0
VERTEX
  8
54
 62
7
  6
CONTINUOUS
 10
-1601.92
 20
1986.72
  0
VERTEX
  8
54
 62
7
  6
CONTINUOUS
 10
-1599.52
 20
1982.72
  0
VERTEX
  8
54
 62
7
  6
CONTINUOUS
 10
-1595.52
 20
1982.72
  0
VERTEX
  8
54
 62
7
  6
CONTINUOUS
 10
-1592.32
 20
1985.12
  0
VERTEX
  8
54
 62
7
  6
CONTINUOUS
 10
-1586.72
 20
1998.72
  0
VERTEX
  8
54
 62
7
  6
CONTINUOUS
 10
-1585.92
 20
2005.92
  0
VERTEX
  8
54
 62
7
  6
CONTINUOUS
 10
-1584.32
 20
2007.52
  0
VERTEX
  8
54
 62
7
  6
CONTINUOUS
 10
-1584.32
 20
2014.72
  0
VERTEX
  8
54
 62
7
  6
CONTINUOUS
 10
-1585.12
 20
2017.12
  0
VERTEX
  8
54
 62
7
  6
CONTINUOUS
 10
-1587.52
 20
2018.72
  0
VERTEX
  8
54
 62
7
  6
CONTINUOUS
 10
-1589.92
 20
2017.92
  0
VERTEX
  8
54
 62
7
  6
CONTINUOUS
 10
-1594.72
 20
2013.12
  0
VERTEX
  8
54
 62
7
  6
CONTINUOUS
 10
-1601.12
 20
2001.12
  0
SEQEND
  0
POLYLINE
  8
54
 62
7
 66
1
 70
1
  0
VERTEX
  8
54
 62
7
  6
CONTINUOUS
 10
-1585.12
 20
2089.92
  0
VERTEX
  8
54
 62
7
  6
CONTINUOUS
 10
-1582.72
 20
2087.52
  0
VERTEX
  8
54
 62
7
  6
CONTINUOUS
 10
-1579.52
 20
2087.52
  0
VERTEX
  8
54
 62
7
  6
CONTINUOUS
 10
-1577.92
 20
2089.92
  0
VERTEX
  8
54
 62
7
  6
CONTINUOUS
 10
-1577.92
 20
2093.12
  0
VERTEX
  8
54
 62
7
  6
CONTINUOUS
 10
-1579.52
 20
2094.72
  0
VERTEX
  8
54
 62
7
  6
CONTINUOUS
 10
-1584.32
 20
2093.92
  0
SEQEND
  0
POLYLINE
  8
54
 62
7
 66
1
 70
1
  0
VERTEX
  8
54
 62
7
  6
CONTINUOUS
 10
-1509.92
 20
1467.52
  0
VERTEX
  8
54
 62
7
  6
CONTINUOUS
 10
-1508.32
 20
1465.92
  0
VERTEX
  8
54
 62
7
  6
CONTINUOUS
 10
-1503.52
 20
1467.52
  0
VERTEX
  8
54
 62
7
  6
CONTINUOUS
 10
-1503.52
 20
1473.12
  0
VERTEX
  8
54
 62
7
  6
CONTINUOUS
 10
-1505.12
 20
1473.92
  0
VERTEX
  8
54
 62
7
  6
CONTINUOUS
 10
-1509.12
 20
1471.52
  0
SEQEND
  0
POLYLINE
  8
54
 62
7
 66
1
 70
1
  0
VERTEX
  8
54
 62
7
  6
CONTINUOUS
 10
-1360.32
 20
2273.12
  0
VERTEX
  8
54
 62
7
  6
CONTINUOUS
 10
-1359.52
 20
2263.52
  0
VERTEX
  8
54
 62
7
  6
CONTINUOUS
 10
-1355.52
 20
2255.52
  0
VERTEX
  8
54
 62
7
  6
CONTINUOUS
 10
-1349.92
 20
2248.32
  0
VERTEX
  8
54
 62
7
  6
CONTINUOUS
 10
-1342.72
 20
2243.52
  0
VERTEX
  8
54
 62
7
  6
CONTINUOUS
 10
-1337.92
 20
2243.52
  0
VERTEX
  8
54
 62
7
  6
CONTINUOUS
 10
-1336.32
 20
2245.12
  0
VERTEX
  8
54
 62
7
  6
CONTINUOUS
 10
-1336.32
 20
2259.52
  0
VERTEX
  8
54
 62
7
  6
CONTINUOUS
 10
-1344.32
 20
2276.32
  0
VERTEX
  8
54
 62
7
  6
CONTINUOUS
 10
-1347.52
 20
2279.52
  0
VERTEX
  8
54
 62
7
  6
CONTINUOUS
 10
-1354.72
 20
2280.32
  0
VERTEX
  8
54
 62
7
  6
CONTINUOUS
 10
-1358.72
 20
2277.12
  0
SEQEND
  0
POLYLINE
  8
54
 62
7
 66
1
 70
1
  0
VERTEX
  8
54
 62
7
  6
CONTINUOUS
 10
-1169.12
 20
2729.12
  0
VERTEX
  8
54
 62
7
  6
CONTINUOUS
 10
-1169.12
 20
2723.52
  0
VERTEX
  8
54
 62
7
  6
CONTINUOUS
 10
-1165.92
 20
2719.52
  0
VERTEX
  8
54
 62
7
  6
CONTINUOUS
 10
-1160.32
 20
2719.52
  0
VERTEX
  8
54
 62
7
  6
CONTINUOUS
 10
-1157.12
 20
2721.12
  0
VERTEX
  8
54
 62
7
  6
CONTINUOUS
 10
-1153.92
 20
2725.12
  0
VERTEX
  8
54
 62
7
  6
CONTINUOUS
 10
-1152.32
 20
2728.32
  0
VERTEX
  8
54
 62
7
  6
CONTINUOUS
 10
-1152.32
 20
2734.72
  0
VERTEX
  8
54
 62
7
  6
CONTINUOUS
 10
-1154.72
 20
2737.12
  0
VERTEX
  8
54
 62
7
  6
CONTINUOUS
 10
-1157.92
 20
2737.12
  0
VERTEX
  8
54
 62
7
  6
CONTINUOUS
 10
-1163.52
 20
2734.72
  0
SEQEND
  0
POLYLINE
  8
54
 62
7
 66
1
 70
1
  0
VERTEX
  8
54
 62
7
  6
CONTINUOUS
 10
-1370.72
 20
1353.92
  0
VERTEX
  8
54
 62
7
  6
CONTINUOUS
 10
-1369.12
 20
1342.72
  0
VERTEX
  8
54
 62
7
  6
CONTINUOUS
 10
-1366.72
 20
1340.32
  0
VERTEX
  8
54
 62
7
  6
CONTINUOUS
 10
-1360.32
 20
1340.32
  0
VERTEX
  8
54
 62
7
  6
CONTINUOUS
 10
-1342.72
 20
1350.72
  0
VERTEX
  8
54
 62
7
  6
CONTINUOUS
 10
-1328.32
 20
1350.72
  0
VERTEX
  8
54
 62
7
  6
CONTINUOUS
 10
-1322.72
 20
1352.32
  0
VERTEX
  8
54
 62
7
  6
CONTINUOUS
 10
-1314.72
 20
1358.72
  0
VERTEX
  8
54
 62
7
  6
CONTINUOUS
 10
-1314.72
 20
1361.12
  0
SEQEND
  0
POLYLINE
  8
54
 62
7
 66
1
 70
1
  0
VERTEX
  8
54
 62
7
  6
CONTINUOUS
 10
-727.52
 20
1385.92
  0
VERTEX
  8
54
 62
7
  6
CONTINUOUS
 10
-727.52
 20
1382.72
  0
VERTEX
  8
54
 62
7
  6
CONTINUOUS
 10
-725.12
 20
1380.32
  0
VERTEX
  8
54
 62
7
  6
CONTINUOUS
 10
-721.92
 20
1381.12
  0
VERTEX
  8
54
 62
7
  6
CONTINUOUS
 10
-720.32
 20
1383.52
  0
VERTEX
  8
54
 62
7
  6
CONTINUOUS
 10
-720.32
 20
1385.92
  0
VERTEX
  8
54
 62
7
  6
CONTINUOUS
 10
-722.72
 20
1388.32
  0
SEQEND
  0
POLYLINE
  8
54
 62
7
 66
1
 70
1
  0
VERTEX
  8
54
 62
7
  6
CONTINUOUS
 10
-835.8284606978
 20
2805.18269104671
  0
VERTEX
  8
54
 62
7
  6
CONTINUOUS
 10
-823.52
 20
2786.72
  0
VERTEX
  8
54
 62
7
  6
CONTINUOUS
 10
-818.72
 20
2781.92
  0
VERTEX
  8
54
 62
7
  6
CONTINUOUS
 10
-813.12
 20
2778.72
  0
VERTEX
  8
54
 62
7
  6
CONTINUOUS
 10
-790.72
 20
2780.32
  0
VERTEX
  8
54
 62
7
  6
CONTINUOUS
 10
-764.32
 20
2777.92
  0
VERTEX
  8
54
 62
7
  6
CONTINUOUS
 10
-757.92
 20
2776.32
  0
VERTEX
  8
54
 62
7
  6
CONTINUOUS
 10
-743.52
 20
2768.32
  0
VERTEX
  8
54
 62
7
  6
CONTINUOUS
 10
-739.52
 20
2767.52
  0
VERTEX
  8
54
 62
7
  6
CONTINUOUS
 10
-729.92
 20
2767.52
  0
VERTEX
  8
54
 62
7
  6
CONTINUOUS
 10
-723.52
 20
2769.12
  0
VERTEX
  8
54
 62
7
  6
CONTINUOUS
 10
-714.72
 20
2775.52
  0
VERTEX
  8
54
 62
7
  6
CONTINUOUS
 10
-711.52
 20
2782.72
  0
VERTEX
  8
54
 62
7
  6
CONTINUOUS
 10
-707.137333078119
 20
2792.58100057059
  0
VERTEX
  8
54
 62
7
  6
CONTINUOUS
 10
-711.765871489074
 20
2793.06061281515
  0
VERTEX
  8
54
 62
7
  6
CONTINUOUS
 10
-722.204788362863
 20
2790.44862089243
  0
VERTEX
  8
54
 62
7
  6
CONTINUOUS
 10
-820.722790109414
 20
2804.13183520806
  0
SEQEND
  0
POLYLINE
  8
54
 62
7
 66
1
 70
1
  0
VERTEX
  8
54
 62
7
  6
CONTINUOUS
 10
-733.92
 20
2253.12
  0
VERTEX
  8
54
 62
7
  6
CONTINUOUS
 10
-733.92
 20
2248.32
  0
VERTEX
  8
54
 62
7
  6
CONTINUOUS
 10
-726.72
 20
2240.32
  0
VERTEX
  8
54
 62
7
  6
CONTINUOUS
 10
-723.52
 20
2239.52
  0
VERTEX
  8
54
 62
7
  6
CONTINUOUS
 10
-713.12
 20
2239.52
  0
VERTEX
  8
54
 62
7
  6
CONTINUOUS
 10
-711.52
 20
2241.12
  0
VERTEX
  8
54
 62
7
  6
CONTINUOUS
 10
-711.52
 20
2245.12
  0
VERTEX
  8
54
 62
7
  6
CONTINUOUS
 10
-721.12
 20
2254.72
  0
VERTEX
  8
54
 62
7
  6
CONTINUOUS
 10
-727.52
 20
2256.32
  0
VERTEX
  8
54
 62
7
  6
CONTINUOUS
 10
-731.52
 20
2255.52
  0
SEQEND
  0
POLYLINE
  8
54
 62
7
 66
1
 70
1
  0
VERTEX
  8
54
 62
7
  6
CONTINUOUS
 10
-655.52
 20
2232.32
  0
VERTEX
  8
54
 62
7
  6
CONTINUOUS
 10
-653.12
 20
2229.12
  0
VERTEX
  8
54
 62
7
  6
CONTINUOUS
 10
-647.52
 20
2225.92
  0
VERTEX
  8
54
 62
7
  6
CONTINUOUS
 10
-641.12
 20
2224.32
  0
VERTEX
  8
54
 62
7
  6
CONTINUOUS
 10
-633.12
 20
2225.12
  0
VERTEX
  8
54
 62
7
  6
CONTINUOUS
 10
-632.32
 20
2229.12
  0
VERTEX
  8
54
 62
7
  6
CONTINUOUS
 10
-635.52
 20
2231.52
  0
VERTEX
  8
54
 62
7
  6
CONTINUOUS
 10
-647.52
 20
2235.52
  0
VERTEX
  8
54
 62
7
  6
CONTINUOUS
 10
-654.72
 20
2234.72
  0
SEQEND
  0
POLYLINE
  8
54
 62
7
 66
1
 70
1
  0
VERTEX
  8
54
 62
7
  6
CONTINUOUS
 10
-683.52
 20
2291.52
  0
VERTEX
  8
54
 62
7
  6
CONTINUOUS
 10
-683.52
 20
2286.72
  0
VERTEX
  8
54
 62
7
  6
CONTINUOUS
 10
-681.92
 20
2285.12
  0
VERTEX
  8
54
 62
7
  6
CONTINUOUS
 10
-666.72
 20
2280.32
  0
VERTEX
  8
54
 62
7
  6
CONTINUOUS
 10
-658.72
 20
2278.72
  0
VERTEX
  8
54
 62
7
  6
CONTINUOUS
 10
-623.52
 20
2277.12
  0
VERTEX
  8
54
 62
7
  6
CONTINUOUS
 10
-612.32
 20
2277.92
  0
VERTEX
  8
54
 62
7
  6
CONTINUOUS
 10
-610.72
 20
2279.52
  0
VERTEX
  8
54
 62
7
  6
CONTINUOUS
 10
-610.72
 20
2283.52
  0
VERTEX
  8
54
 62
7
  6
CONTINUOUS
 10
-613.92
 20
2285.92
  0
VERTEX
  8
54
 62
7
  6
CONTINUOUS
 10
-622.72
 20
2289.12
  0
VERTEX
  8
54
 62
7
  6
CONTINUOUS
 10
-653.12
 20
2297.92
  0
VERTEX
  8
54
 62
7
  6
CONTINUOUS
 10
-675.52
 20
2297.12
  0
VERTEX
  8
54
 62
7
  6
CONTINUOUS
 10
-681.12
 20
2294.72
  0
SEQEND
  0
POLYLINE
  8
54
 62
7
 66
1
 70
1
  0
VERTEX
  8
54
 62
7
  6
CONTINUOUS
 10
-625.92
 20
2479.52
  0
VERTEX
  8
54
 62
7
  6
CONTINUOUS
 10
-625.92
 20
2476.32
  0
VERTEX
  8
54
 62
7
  6
CONTINUOUS
 10
-622.72
 20
2469.92
  0
VERTEX
  8
54
 62
7
  6
CONTINUOUS
 10
-618.72
 20
2465.12
  0
VERTEX
  8
54
 62
7
  6
CONTINUOUS
 10
-609.12
 20
2460.32
  0
VERTEX
  8
54
 62
7
  6
CONTINUOUS
 10
-604.32
 20
2461.12
  0
VERTEX
  8
54
 62
7
  6
CONTINUOUS
 10
-602.72
 20
2462.72
  0
VERTEX
  8
54
 62
7
  6
CONTINUOUS
 10
-601.12
 20
2466.72
  0
VERTEX
  8
54
 62
7
  6
CONTINUOUS
 10
-602.72
 20
2471.52
  0
VERTEX
  8
54
 62
7
  6
CONTINUOUS
 10
-606.72
 20
2476.32
  0
VERTEX
  8
54
 62
7
  6
CONTINUOUS
 10
-608.32
 20
2476.32
  0
VERTEX
  8
54
 62
7
  6
CONTINUOUS
 10
-612.32
 20
2480.32
  0
VERTEX
  8
54
 62
7
  6
CONTINUOUS
 10
-618.72
 20
2482.72
  0
VERTEX
  8
54
 62
7
  6
CONTINUOUS
 10
-622.72
 20
2482.72
  0
SEQEND
  0
POLYLINE
  8
54
 62
7
 66
1
 70
1
  0
VERTEX
  8
54
 62
7
  6
CONTINUOUS
 10
-622.72
 20
2709.12
  0
VERTEX
  8
54
 62
7
  6
CONTINUOUS
 10
-622.72
 20
2689.92
  0
VERTEX
  8
54
 62
7
  6
CONTINUOUS
 10
-618.72
 20
2679.52
  0
VERTEX
  8
54
 62
7
  6
CONTINUOUS
 10
-613.12
 20
2673.92
  0
VERTEX
  8
54
 62
7
  6
CONTINUOUS
 10
-607.52
 20
2670.72
  0
VERTEX
  8
54
 62
7
  6
CONTINUOUS
 10
-601.12
 20
2669.12
  0
VERTEX
  8
54
 62
7
  6
CONTINUOUS
 10
-585.12
 20
2669.92
  0
VERTEX
  8
54
 62
7
  6
CONTINUOUS
 10
-570.72
 20
2677.12
  0
VERTEX
  8
54
 62
7
  6
CONTINUOUS
 10
-563.52
 20
2684.32
  0
VERTEX
  8
54
 62
7
  6
CONTINUOUS
 10
-551.52
 20
2704.32
  0
VERTEX
  8
54
 62
7
  6
CONTINUOUS
 10
-547.52
 20
2714.72
  0
VERTEX
  8
54
 62
7
  6
CONTINUOUS
 10
-544.32
 20
2734.72
  0
VERTEX
  8
54
 62
7
  6
CONTINUOUS
 10
-544.32
 20
2770.32271645892
  0
VERTEX
  8
54
 62
7
  6
CONTINUOUS
 10
-549.126710512611
 20
2761.90910322371
  0
VERTEX
  8
54
 62
7
  6
CONTINUOUS
 10
-561.727122865913
 20
2743.03909153314
  0
VERTEX
  8
54
 62
7
  6
CONTINUOUS
 10
-565.181913513811
 20
2726.80703767076
  0
VERTEX
  8
54
 62
7
  6
CONTINUOUS
 10
-570.753028607417
 20
2726.75264734638
  0
VERTEX
  8
54
 62
7
  6
CONTINUOUS
 10
-570.769413943494
 20
2740.81559133481
  0
VERTEX
  8
54
 62
7
  6
CONTINUOUS
 10
-594.315289521356
 20
2758.39660993464
  0
VERTEX
  8
54
 62
7
  6
CONTINUOUS
 10
-597.57091131753
 20
2781.22765475268
  0
VERTEX
  8
54
 62
7
  6
CONTINUOUS
 10
-606.542143588104
 20
2782.15725983423
  0
VERTEX
  8
54
 62
7
  6
CONTINUOUS
 10
-608.32
 20
2777.12
  0
VERTEX
  8
54
 62
7
  6
CONTINUOUS
 10
-613.12
 20
2763.52
  0
VERTEX
  8
54
 62
7
  6
CONTINUOUS
 10
-613.12
 20
2758.72
  0
VERTEX
  8
54
 62
7
  6
CONTINUOUS
 10
-614.72
 20
2755.52
  0
SEQEND
  0
POLYLINE
  8
54
 62
7
 66
1
 70
1
  0
VERTEX
  8
54
 62
7
  6
CONTINUOUS
 10
-822.72
 20
2258.72
  0
VERTEX
  8
54
 62
7
  6
CONTINUOUS
 10
-819.52
 20
2253.92
  0
VERTEX
  8
54
 62
7
  6
CONTINUOUS
 10
-812.32
 20
2249.92
  0
VERTEX
  8
54
 62
7
  6
CONTINUOUS
 10
-801.12
 20
2249.92
  0
VERTEX
  8
54
 62
7
  6
CONTINUOUS
 10
-786.72
 20
2254.72
  0
VERTEX
  8
54
 62
7
  6
CONTINUOUS
 10
-776.32
 20
2261.92
  0
VERTEX
  8
54
 62
7
  6
CONTINUOUS
 10
-776.32
 20
2265.92
  0
VERTEX
  8
54
 62
7
  6
CONTINUOUS
 10
-783.52
 20
2269.92
  0
VERTEX
  8
54
 62
7
  6
CONTINUOUS
 10
-794.72
 20
2269.92
  0
VERTEX
  8
54
 62
7
  6
CONTINUOUS
 10
-809.92
 20
2267.52
  0
VERTEX
  8
54
 62
7
  6
CONTINUOUS
 10
-817.12
 20
2265.12
  0
VERTEX
  8
54
 62
7
  6
CONTINUOUS
 10
-821.12
 20
2261.92
  0
SEQEND
  0
POLYLINE
  8
54
 62
7
 66
1
 70
1
  0
VERTEX
  8
54
 62
7
  6
CONTINUOUS
 10
-515.52
 20
2354.72
  0
VERTEX
  8
54
 62
7
  6
CONTINUOUS
 10
-515.52
 20
2348.32
  0
VERTEX
  8
54
 62
7
  6
CONTINUOUS
 10
-513.92
 20
2345.92
  0
VERTEX
  8
54
 62
7
  6
CONTINUOUS
 10
-511.52
 20
2345.12
  0
VERTEX
  8
54
 62
7
  6
CONTINUOUS
 10
-506.72
 20
2345.92
  0
VERTEX
  8
54
 62
7
  6
CONTINUOUS
 10
-504.32
 20
2350.72
  0
VERTEX
  8
54
 62
7
  6
CONTINUOUS
 10
-505.12
 20
2355.52
  0
VERTEX
  8
54
 62
7
  6
CONTINUOUS
 10
-507.52
 20
2357.92
  0
VERTEX
  8
54
 62
7
  6
CONTINUOUS
 10
-512.32
 20
2357.92
  0
SEQEND
  0
POLYLINE
  8
54
 62
7
 66
1
 70
1
  0
VERTEX
  8
54
 62
7
  6
CONTINUOUS
 10
-334.72
 20
913.12
  0
VERTEX
  8
54
 62
7
  6
CONTINUOUS
 10
-331.52
 20
891.52
  0
VERTEX
  8
54
 62
7
  6
CONTINUOUS
 10
-329.445519672692
 20
877.51725779046
  0
VERTEX
  8
54
 62
7
  6
CONTINUOUS
 10
-305.504016453216
 20
873.933758944412
  0
VERTEX
  8
54
 62
7
  6
CONTINUOUS
 10
-309.92
 20
885.92
  0
VERTEX
  8
54
 62
7
  6
CONTINUOUS
 10
-321.12
 20
916.32
  0
VERTEX
  8
54
 62
7
  6
CONTINUOUS
 10
-327.52
 20
925.12
  0
VERTEX
  8
54
 62
7
  6
CONTINUOUS
 10
-330.72
 20
925.12
  0
VERTEX
  8
54
 62
7
  6
CONTINUOUS
 10
-332.32
 20
923.52
  0
SEQEND
  0
POLYLINE
  8
54
 62
7
 66
1
 70
1
  0
VERTEX
  8
54
 62
7
  6
CONTINUOUS
 10
-364.32
 20
2034.72
  0
VERTEX
  8
54
 62
7
  6
CONTINUOUS
 10
-364.32
 20
2023.52
  0
VERTEX
  8
54
 62
7
  6
CONTINUOUS
 10
-358.72
 20
2010.72
  0
VERTEX
  8
54
 62
7
  6
CONTINUOUS
 10
-350.72
 20
2002.72
  0
VERTEX
  8
54
 62
7
  6
CONTINUOUS
 10
-337.12
 20
1992.32
  0
VERTEX
  8
54
 62
7
  6
CONTINUOUS
 10
-323.52
 20
1985.12
  0
VERTEX
  8
54
 62
7
  6
CONTINUOUS
 10
-315.52
 20
1982.72
  0
VERTEX
  8
54
 62
7
  6
CONTINUOUS
 10
-304.32
 20
1982.72
  0
VERTEX
  8
54
 62
7
  6
CONTINUOUS
 10
-290.72
 20
1989.92
  0
VERTEX
  8
54
 62
7
  6
CONTINUOUS
 10
-281.12
 20
1997.92
  0
VERTEX
  8
54
 62
7
  6
CONTINUOUS
 10
-273.12
 20
2002.72
  0
VERTEX
  8
54
 62
7
  6
CONTINUOUS
 10
-253.12
 20
2006.72
  0
VERTEX
  8
54
 62
7
  6
CONTINUOUS
 10
-245.92
 20
2012.32
  0
VERTEX
  8
54
 62
7
  6
CONTINUOUS
 10
-244.32
 20
2017.12
  0
VERTEX
  8
54
 62
7
  6
CONTINUOUS
 10
-244.32
 20
2021.92
  0
VERTEX
  8
54
 62
7
  6
CONTINUOUS
 10
-253.92
 20
2037.12
  0
VERTEX
  8
54
 62
7
  6
CONTINUOUS
 10
-259.52
 20
2049.12
  0
VERTEX
  8
54
 62
7
  6
CONTINUOUS
 10
-260.32
 20
2059.52
  0
VERTEX
  8
54
 62
7
  6
CONTINUOUS
 10
-256.32
 20
2073.92
  0
VERTEX
  8
54
 62
7
  6
CONTINUOUS
 10
-256.32
 20
2082.72
  0
VERTEX
  8
54
 62
7
  6
CONTINUOUS
 10
-259.52
 20
2090.72
  0
VERTEX
  8
54
 62
7
  6
CONTINUOUS
 10
-268.32
 20
2101.12
  0
VERTEX
  8
54
 62
7
  6
CONTINUOUS
 10
-273.92
 20
2105.12
  0
VERTEX
  8
54
 62
7
  6
CONTINUOUS
 10
-287.52
 20
2111.52
  0
VERTEX
  8
54
 62
7
  6
CONTINUOUS
 10
-297.92
 20
2113.92
  0
VERTEX
  8
54
 62
7
  6
CONTINUOUS
 10
-306.72
 20
2113.92
  0
VERTEX
  8
54
 62
7
  6
CONTINUOUS
 10
-317.12
 20
2111.52
  0
VERTEX
  8
54
 62
7
  6
CONTINUOUS
 10
-324.32
 20
2107.52
  0
VERTEX
  8
54
 62
7
  6
CONTINUOUS
 10
-328.32
 20
2103.52
  0
VERTEX
  8
54
 62
7
  6
CONTINUOUS
 10
-333.12
 20
2092.32
  0
VERTEX
  8
54
 62
7
  6
CONTINUOUS
 10
-332.32
 20
2076.32
  0
VERTEX
  8
54
 62
7
  6
CONTINUOUS
 10
-333.12
 20
2068.32
  0
VERTEX
  8
54
 62
7
  6
CONTINUOUS
 10
-335.52
 20
2061.12
  0
VERTEX
  8
54
 62
7
  6
CONTINUOUS
 10
-339.52
 20
2056.32
  0
VERTEX
  8
54
 62
7
  6
CONTINUOUS
 10
-355.52
 20
2048.32
  0
VERTEX
  8
54
 62
7
  6
CONTINUOUS
 10
-361.12
 20
2042.72
  0
SEQEND
  0
POLYLINE
  8
54
 62
7
 66
1
 70
1
  0
VERTEX
  8
54
 62
7
  6
CONTINUOUS
 10
-257.495004973821
 20
868.302135040688
  0
VERTEX
  8
54
 62
7
  6
CONTINUOUS
 10
-251.494161095292
 20
858.683568594082
  0
VERTEX
  8
54
 62
7
  6
CONTINUOUS
 10
-251.321736329109
 20
858.463244671404
  0
VERTEX
  8
54
 62
7
  6
CONTINUOUS
 10
-246.72
 20
864.32
  0
VERTEX
  8
54
 62
7
  6
CONTINUOUS
 10
-237.92
 20
875.52
  0
VERTEX
  8
54
 62
7
  6
CONTINUOUS
 10
-234.72
 20
882.72
  0
VERTEX
  8
54
 62
7
  6
CONTINUOUS
 10
-233.12
 20
890.72
  0
VERTEX
  8
54
 62
7
  6
CONTINUOUS
 10
-234.72
 20
892.32
  0
VERTEX
  8
54
 62
7
  6
CONTINUOUS
 10
-237.92
 20
891.52
  0
VERTEX
  8
54
 62
7
  6
CONTINUOUS
 10
-243.52
 20
887.52
  0
VERTEX
  8
54
 62
7
  6
CONTINUOUS
 10
-248.32
 20
882.72
  0
VERTEX
  8
54
 62
7
  6
CONTINUOUS
 10
-253.92
 20
873.92
  0
SEQEND
  0
POLYLINE
  8
54
 62
7
 66
1
 70
1
  0
VERTEX
  8
54
 62
7
  6
CONTINUOUS
 10
-505.92
 20
2482.72
  0
VERTEX
  8
54
 62
7
  6
CONTINUOUS
 10
-504.32
 20
2468.32
  0
VERTEX
  8
54
 62
7
  6
CONTINUOUS
 10
-500.32
 20
2455.52
  0
VERTEX
  8
54
 62
7
  6
CONTINUOUS
 10
-494.72
 20
2443.52
  0
VERTEX
  8
54
 62
7
  6
CONTINUOUS
 10
-489.12
 20
2423.52
  0
VERTEX
  8
54
 62
7
  6
CONTINUOUS
 10
-489.12
 20
2411.52
  0
VERTEX
  8
54
 62
7
  6
CONTINUOUS
 10
-493.12
 20
2400.32
  0
VERTEX
  8
54
 62
7
  6
CONTINUOUS
 10
-493.12
 20
2389.12
  0
VERTEX
  8
54
 62
7
  6
CONTINUOUS
 10
-487.52
 20
2377.92
  0
VERTEX
  8
54
 62
7
  6
CONTINUOUS
 10
-476.32
 20
2366.72
  0
VERTEX
  8
54
 62
7
  6
CONTINUOUS
 10
-463.52
 20
2357.92
  0
VERTEX
  8
54
 62
7
  6
CONTINUOUS
 10
-452.32
 20
2352.32
  0
VERTEX
  8
54
 62
7
  6
CONTINUOUS
 10
-434.72
 20
2347.52
  0
VERTEX
  8
54
 62
7
  6
CONTINUOUS
 10
-417.12
 20
2347.52
  0
VERTEX
  8
54
 62
7
  6
CONTINUOUS
 10
-403.52
 20
2349.92
  0
VERTEX
  8
54
 62
7
  6
CONTINUOUS
 10
-385.92
 20
2358.72
  0
VERTEX
  8
54
 62
7
  6
CONTINUOUS
 10
-375.52
 20
2368.32
  0
VERTEX
  8
54
 62
7
  6
CONTINUOUS
 10
-367.52
 20
2378.72
  0
VERTEX
  8
54
 62
7
  6
CONTINUOUS
 10
-351.52
 20
2405.12
  0
VERTEX
  8
54
 62
7
  6
CONTINUOUS
 10
-336.32
 20
2425.12
  0
VERTEX
  8
54
 62
7
  6
CONTINUOUS
 10
-325.12
 20
2445.92
  0
VERTEX
  8
54
 62
7
  6
CONTINUOUS
 10
-308.32
 20
2485.12
  0
VERTEX
  8
54
 62
7
  6
CONTINUOUS
 10
-299.52
 20
2497.92
  0
VERTEX
  8
54
 62
7
  6
CONTINUOUS
 10
-291.52
 20
2505.92
  0
VERTEX
  8
54
 62
7
  6
CONTINUOUS
 10
-273.92
 20
2517.92
  0
VERTEX
  8
54
 62
7
  6
CONTINUOUS
 10
-248.32
 20
2529.12
  0
VERTEX
  8
54
 62
7
  6
CONTINUOUS
 10
-219.52
 20
2536.32
  0
VERTEX
  8
54
 62
7
  6
CONTINUOUS
 10
-204.32
 20
2537.92
  0
VERTEX
  8
54
 62
7
  6
CONTINUOUS
 10
-186.72
 20
2543.52
  0
VERTEX
  8
54
 62
7
  6
CONTINUOUS
 10
-175.52
 20
2550.72
  0
VERTEX
  8
54
 62
7
  6
CONTINUOUS
 10
-165.92
 20
2560.32
  0
VERTEX
  8
54
 62
7
  6
CONTINUOUS
 10
-158.72
 20
2569.92
  0
VERTEX
  8
54
 62
7
  6
CONTINUOUS
 10
-149.92
 20
2585.92
  0
VERTEX
  8
54
 62
7
  6
CONTINUOUS
 10
-141.92
 20
2608.32
  0
VERTEX
  8
54
 62
7
  6
CONTINUOUS
 10
-139.52
 20
2611.52
  0
VERTEX
  8
54
 62
7
  6
CONTINUOUS
 10
-138.72
 20
2616.32
  0
VERTEX
  8
54
 62
7
  6
CONTINUOUS
 10
-135.52
 20
2621.12
  0
VERTEX
  8
54
 62
7
  6
CONTINUOUS
 10
-133.12
 20
2629.12
  0
VERTEX
  8
54
 62
7
  6
CONTINUOUS
 10
-117.92
 20
2660.32
  0
VERTEX
  8
54
 62
7
  6
CONTINUOUS
 10
-108.32
 20
2689.12
  0
VERTEX
  8
54
 62
7
  6
CONTINUOUS
 10
-105.477977328896
 20
2697.6460680164
  0
VERTEX
  8
54
 62
7
  6
CONTINUOUS
 10
-106.450550904963
 20
2699.59730231198
  0
VERTEX
  8
54
 62
7
  6
CONTINUOUS
 10
-113.581986914417
 20
2699.44920618915
  0
VERTEX
  8
54
 62
7
  6
CONTINUOUS
 10
-137.937434945569
 20
2681.0925049245
  0
VERTEX
  8
54
 62
7
  6
CONTINUOUS
 10
-140.300698095537
 20
2669.96680061044
  0
VERTEX
  8
54
 62
7
  6
CONTINUOUS
 10
-144.162293039526
 20
2663.6028726627
  0
VERTEX
  8
54
 62
7
  6
CONTINUOUS
 10
-148.316149601811
 20
2663.52256371744
  0
VERTEX
  8
54
 62
7
  6
CONTINUOUS
 10
-153.282640180819
 20
2651.54601333811
  0
VERTEX
  8
54
 62
7
  6
CONTINUOUS
 10
-166.649022912526
 20
2642.09847789813
  0
VERTEX
  8
54
 62
7
  6
CONTINUOUS
 10
-167.683021697327
 20
2650.1152101276
  0
VERTEX
  8
54
 62
7
  6
CONTINUOUS
 10
-174.778313437879
 20
2652.854108683
  0
VERTEX
  8
54
 62
7
  6
CONTINUOUS
 10
-182.651923747523
 20
2645.58368544919
  0
VERTEX
  8
54
 62
7
  6
CONTINUOUS
 10
-183.602618662161
 20
2648.54514187419
  0
VERTEX
  8
54
 62
7
  6
CONTINUOUS
 10
-192.451600651037
 20
2648.29766624994
  0
VERTEX
  8
54
 62
7
  6
CONTINUOUS
 10
-188.947211030363
 20
2666.9405318163
  0
VERTEX
  8
54
 62
7
  6
CONTINUOUS
 10
-174.965492890172
 20
2680.88276621761
  0
VERTEX
  8
54
 62
7
  6
CONTINUOUS
 10
-171.516556750124
 20
2699.53520260221
  0
VERTEX
  8
54
 62
7
  6
CONTINUOUS
 10
-162.923689144575
 20
2731.0393447345
  0
VERTEX
  8
54
 62
7
  6
CONTINUOUS
 10
-167.153744094394
 20
2770.92300643764
  0
VERTEX
  8
54
 62
7
  6
CONTINUOUS
 10
-177.11987492433
 20
2830.71848523934
  0
VERTEX
  8
54
 62
7
  6
CONTINUOUS
 10
-177.116175022232
 20
2872.32063749513
  0
VERTEX
  8
54
 62
7
  6
CONTINUOUS
 10
-181.92
 20
2871.52
  0
VERTEX
  8
54
 62
7
  6
CONTINUOUS
 10
-196.32
 20
2869.12
  0
VERTEX
  8
54
 62
7
  6
CONTINUOUS
 10
-217.12
 20
2857.92
  0
VERTEX
  8
54
 62
7
  6
CONTINUOUS
 10
-241.92
 20
2840.32
  0
VERTEX
  8
54
 62
7
  6
CONTINUOUS
 10
-251.52
 20
2835.52
  0
VERTEX
  8
54
 62
7
  6
CONTINUOUS
 10
-255.52
 20
2831.52
  0
VERTEX
  8
54
 62
7
  6
CONTINUOUS
 10
-259.52
 20
2829.92
  0
VERTEX
  8
54
 62
7
  6
CONTINUOUS
 10
-270.72
 20
2819.52
  0
VERTEX
  8
54
 62
7
  6
CONTINUOUS
 10
-274.72
 20
2817.92
  0
VERTEX
  8
54
 62
7
  6
CONTINUOUS
 10
-277.12
 20
2814.72
  0
VERTEX
  8
54
 62
7
  6
CONTINUOUS
 10
-280.32
 20
2813.92
  0
VERTEX
  8
54
 62
7
  6
CONTINUOUS
 10
-285.92
 20
2807.52
  0
VERTEX
  8
54
 62
7
  6
CONTINUOUS
 10
-295.52
 20
2800.32
  0
VERTEX
  8
54
 62
7
  6
CONTINUOUS
 10
-311.52
 20
2784.32
  0
VERTEX
  8
54
 62
7
  6
CONTINUOUS
 10
-325.12
 20
2773.12
  0
VERTEX
  8
54
 62
7
  6
CONTINUOUS
 10
-335.52
 20
2761.92
  0
VERTEX
  8
54
 62
7
  6
CONTINUOUS
 10
-337.92
 20
2761.12
  0
VERTEX
  8
54
 62
7
  6
CONTINUOUS
 10
-362.72
 20
2736.32
  0
VERTEX
  8
54
 62
7
  6
CONTINUOUS
 10
-365.12
 20
2735.52
  0
VERTEX
  8
54
 62
7
  6
CONTINUOUS
 10
-370.72
 20
2728.32
  0
VERTEX
  8
54
 62
7
  6
CONTINUOUS
 10
-401.12
 20
2697.12
  0
VERTEX
  8
54
 62
7
  6
CONTINUOUS
 10
-424.32
 20
2668.32
  0
VERTEX
  8
54
 62
7
  6
CONTINUOUS
 10
-427.52
 20
2665.12
  0
VERTEX
  8
54
 62
7
  6
CONTINUOUS
 10
-430.72
 20
2666.72
  0
VERTEX
  8
54
 62
7
  6
CONTINUOUS
 10
-433.12
 20
2664.32
  0
VERTEX
  8
54
 62
7
  6
CONTINUOUS
 10
-445.12
 20
2646.72
  0
VERTEX
  8
54
 62
7
  6
CONTINUOUS
 10
-468.32
 20
2603.52
  0
VERTEX
  8
54
 62
7
  6
CONTINUOUS
 10
-481.92
 20
2571.52
  0
VERTEX
  8
54
 62
7
  6
CONTINUOUS
 10
-489.12
 20
2551.52
  0
VERTEX
  8
54
 62
7
  6
CONTINUOUS
 10
-492.32
 20
2538.72
  0
VERTEX
  8
54
 62
7
  6
CONTINUOUS
 10
-496.32
 20
2529.92
  0
VERTEX
  8
54
 62
7
  6
CONTINUOUS
 10
-496.32
 20
2526.72
  0
VERTEX
  8
54
 62
7
  6
CONTINUOUS
 10
-499.52
 20
2519.52
  0
VERTEX
  8
54
 62
7
  6
CONTINUOUS
 10
-505.12
 20
2496.32
  0
SEQEND
  0
POLYLINE
  8
54
 62
7
 66
1
 70
1
  0
VERTEX
  8
54
 62
7
  6
CONTINUOUS
 10
-104.32
 20
2605.92
  0
VERTEX
  8
54
 62
7
  6
CONTINUOUS
 10
-103.52
 20
2594.72
  0
VERTEX
  8
54
 62
7
  6
CONTINUOUS
 10
-101.92
 20
2591.52
  0
VERTEX
  8
54
 62
7
  6
CONTINUOUS
 10
-97.92
 20
2588.32
  0
VERTEX
  8
54
 62
7
  6
CONTINUOUS
 10
-92.32
 20
2588.32
  0
VERTEX
  8
54
 62
7
  6
CONTINUOUS
 10
-84.32
 20
2592.32
  0
VERTEX
  8
54
 62
7
  6
CONTINUOUS
 10
-73.12
 20
2601.12
  0
VERTEX
  8
54
 62
7
  6
CONTINUOUS
 10
-68.32
 20
2607.52
  0
VERTEX
  8
54
 62
7
  6
CONTINUOUS
 10
-66.72
 20
2614.72
  0
VERTEX
  8
54
 62
7
  6
CONTINUOUS
 10
-69.12
 20
2620.32
  0
VERTEX
  8
54
 62
7
  6
CONTINUOUS
 10
-73.92
 20
2625.12
  0
VERTEX
  8
54
 62
7
  6
CONTINUOUS
 10
-77.92
 20
2625.92
  0
VERTEX
  8
54
 62
7
  6
CONTINUOUS
 10
-89.12
 20
2622.72
  0
VERTEX
  8
54
 62
7
  6
CONTINUOUS
 10
-97.12
 20
2617.12
  0
VERTEX
  8
54
 62
7
  6
CONTINUOUS
 10
-102.72
 20
2610.72
  0
SEQEND
  0
POLYLINE
  8
54
 62
7
 66
1
 70
1
  0
VERTEX
  8
54
 62
7
  6
CONTINUOUS
 10
-126.72
 20
2016.32
  0
VERTEX
  8
54
 62
7
  6
CONTINUOUS
 10
-126.72
 20
2005.92
  0
VERTEX
  8
54
 62
7
  6
CONTINUOUS
 10
-124.32
 20
2000.32
  0
VERTEX
  8
54
 62
7
  6
CONTINUOUS
 10
-121.12
 20
1997.92
  0
VERTEX
  8
54
 62
7
  6
CONTINUOUS
 10
-117.12
 20
1998.72
  0
VERTEX
  8
54
 62
7
  6
CONTINUOUS
 10
-114.72
 20
2001.92
  0
VERTEX
  8
54
 62
7
  6
CONTINUOUS
 10
-109.92
 20
2018.72
  0
VERTEX
  8
54
 62
7
  6
CONTINUOUS
 10
-107.52
 20
2022.72
  0
VERTEX
  8
54
 62
7
  6
CONTINUOUS
 10
-105.92
 20
2029.92
  0
VERTEX
  8
54
 62
7
  6
CONTINUOUS
 10
-93.12
 20
2063.52
  0
VERTEX
  8
54
 62
7
  6
CONTINUOUS
 10
-89.92
 20
2084.32
  0
VERTEX
  8
54
 62
7
  6
CONTINUOUS
 10
-66.72
 20
2116.32
  0
VERTEX
  8
54
 62
7
  6
CONTINUOUS
 10
-59.52
 20
2129.92
  0
VERTEX
  8
54
 62
7
  6
CONTINUOUS
 10
-58.72
 20
2134.72
  0
VERTEX
  8
54
 62
7
  6
CONTINUOUS
 10
-57.12
 20
2136.32
  0
VERTEX
  8
54
 62
7
  6
CONTINUOUS
 10
-53.12
 20
2148.32
  0
VERTEX
  8
54
 62
7
  6
CONTINUOUS
 10
-52.32
 20
2154.72
  0
VERTEX
  8
54
 62
7
  6
CONTINUOUS
 10
-50.72
 20
2157.12
  0
VERTEX
  8
54
 62
7
  6
CONTINUOUS
 10
-47.52
 20
2169.92
  0
VERTEX
  8
54
 62
7
  6
CONTINUOUS
 10
-47.52
 20
2177.92
  0
VERTEX
  8
54
 62
7
  6
CONTINUOUS
 10
-51.52
 20
2181.92
  0
VERTEX
  8
54
 62
7
  6
CONTINUOUS
 10
-57.92
 20
2180.32
  0
VERTEX
  8
54
 62
7
  6
CONTINUOUS
 10
-63.52
 20
2174.72
  0
VERTEX
  8
54
 62
7
  6
CONTINUOUS
 10
-79.52
 20
2149.92
  0
VERTEX
  8
54
 62
7
  6
CONTINUOUS
 10
-93.92
 20
2119.52
  0
VERTEX
  8
54
 62
7
  6
CONTINUOUS
 10
-100.32
 20
2099.52
  0
VERTEX
  8
54
 62
7
  6
CONTINUOUS
 10
-113.12
 20
2069.12
  0
VERTEX
  8
54
 62
7
  6
CONTINUOUS
 10
-121.12
 20
2031.52
  0
VERTEX
  8
54
 62
7
  6
CONTINUOUS
 10
-125.12
 20
2023.52
  0
SEQEND
  0
POLYLINE
  8
54
 62
7
 66
1
 70
1
  0
VERTEX
  8
54
 62
7
  6
CONTINUOUS
 10
-61.92
 20
1073.12
  0
VERTEX
  8
54
 62
7
  6
CONTINUOUS
 10
-61.92
 20
1064.32
  0
VERTEX
  8
54
 62
7
  6
CONTINUOUS
 10
-59.52
 20
1058.72
  0
VERTEX
  8
54
 62
7
  6
CONTINUOUS
 10
-55.52
 20
1053.92
  0
VERTEX
  8
54
 62
7
  6
CONTINUOUS
 10
-45.92
 20
1048.32
  0
VERTEX
  8
54
 62
7
  6
CONTINUOUS
 10
-36.32
 20
1046.72
  0
VERTEX
  8
54
 62
7
  6
CONTINUOUS
 10
-31.5608802557622
 20
1045.92681337554
  0
VERTEX
  8
54
 62
7
  6
CONTINUOUS
 10
-31.5609281932404
 20
1088.93767464606
  0
VERTEX
  8
54
 62
7
  6
CONTINUOUS
 10
-37.12
 20
1088.32
  0
VERTEX
  8
54
 62
7
  6
CONTINUOUS
 10
-44.32
 20
1087.52
  0
VERTEX
  8
54
 62
7
  6
CONTINUOUS
 10
-56.32
 20
1081.12
  0
SEQEND
  0
POLYLINE
  8
54
 62
7
 66
1
 70
1
  0
VERTEX
  8
54
 62
7
  6
CONTINUOUS
 10
-437.12
 20
906.72
  0
VERTEX
  8
54
 62
7
  6
CONTINUOUS
 10
-436.32
 20
894.72
  0
VERTEX
  8
54
 62
7
  6
CONTINUOUS
 10
-435.914874739519
 20
888.643121088221
  0
VERTEX
  8
54
 62
7
  6
CONTINUOUS
 10
-434.465226126838
 20
889.115214090043
  0
VERTEX
  8
54
 62
7
  6
CONTINUOUS
 10
-410.72
 20
889.115548148978
  0
VERTEX
  8
54
 62
7
  6
CONTINUOUS
 10
-410.72
 20
895.52
  0
VERTEX
  8
54
 62
7
  6
CONTINUOUS
 10
-409.92
 20
893.12
  0
VERTEX
  8
54
 62
7
  6
CONTINUOUS
 10
-406.72
 20
893.92
  0
VERTEX
  8
54
 62
7
  6
CONTINUOUS
 10
-406.72
 20
903.52
  0
VERTEX
  8
54
 62
7
  6
CONTINUOUS
 10
-408.32
 20
909.92
  0
VERTEX
  8
54
 62
7
  6
CONTINUOUS
 10
-412.32
 20
917.12
  0
VERTEX
  8
54
 62
7
  6
CONTINUOUS
 10
-418.72
 20
923.52
  0
VERTEX
  8
54
 62
7
  6
CONTINUOUS
 10
-428.32
 20
925.12
  0
VERTEX
  8
54
 62
7
  6
CONTINUOUS
 10
-433.92
 20
921.12
  0
VERTEX
  8
54
 62
7
  6
CONTINUOUS
 10
-435.52
 20
916.32
  0
SEQEND
  0
POLYLINE
  8
54
 62
7
 66
1
 70
1
  0
VERTEX
  8
54
 62
7
  6
CONTINUOUS
 10
-1347.52
 20
2192.32
  0
VERTEX
  8
54
 62
7
  6
CONTINUOUS
 10
-1344.32
 20
2177.92
  0
VERTEX
  8
54
 62
7
  6
CONTINUOUS
 10
-1341.12
 20
2170.72
  0
VERTEX
  8
54
 62
7
  6
CONTINUOUS
 10
-1337.12
 20
2165.92
  0
VERTEX
  8
54
 62
7
  6
CONTINUOUS
 10
-1333.92
 20
2165.92
  0
VERTEX
  8
54
 62
7
  6
CONTINUOUS
 10
-1331.52
 20
2170.72
  0
VERTEX
  8
54
 62
7
  6
CONTINUOUS
 10
-1332.32
 20
2193.92
  0
VERTEX
  8
54
 62
7
  6
CONTINUOUS
 10
-1333.92
 20
2201.92
  0
VERTEX
  8
54
 62
7
  6
CONTINUOUS
 10
-1335.52
 20
2204.32
  0
VERTEX
  8
54
 62
7
  6
CONTINUOUS
 10
-1337.92
 20
2206.72
  0
VERTEX
  8
54
 62
7
  6
CONTINUOUS
 10
-1341.92
 20
2206.72
  0
VERTEX
  8
54
 62
7
  6
CONTINUOUS
 10
-1345.12
 20
2201.92
  0
SEQEND
  0
POLYLINE
  8
54
 62
7
 66
1
 70
1
  0
VERTEX
  8
54
 62
7
  6
CONTINUOUS
 10
-839.52
 20
954.72
  0
VERTEX
  8
54
 62
7
  6
CONTINUOUS
 10
-821.12
 20
953.92
  0
VERTEX
  8
54
 62
7
  6
CONTINUOUS
 10
-807.52
 20
957.92
  0
VERTEX
  8
54
 62
7
  6
CONTINUOUS
 10
-800.32
 20
961.92
  0
VERTEX
  8
54
 62
7
  6
CONTINUOUS
 10
-794.72
 20
967.52
  0
VERTEX
  8
54
 62
7
  6
CONTINUOUS
 10
-790.72
 20
973.92
  0
VERTEX
  8
54
 62
7
  6
CONTINUOUS
 10
-789.92
 20
977.92
  0
VERTEX
  8
54
 62
7
  6
CONTINUOUS
 10
-793.12
 20
984.32
  0
VERTEX
  8
54
 62
7
  6
CONTINUOUS
 10
-799.52
 20
987.52
  0
VERTEX
  8
54
 62
7
  6
CONTINUOUS
 10
-817.92
 20
991.52
  0
VERTEX
  8
54
 62
7
  6
CONTINUOUS
 10
-821.92
 20
995.52
  0
VERTEX
  8
54
 62
7
  6
CONTINUOUS
 10
-825.12
 20
1005.12
  0
VERTEX
  8
54
 62
7
  6
CONTINUOUS
 10
-836.32
 20
1015.52
  0
SEQEND
  0
POLYLINE
  8
54
 62
7
 66
1
 70
1
  0
VERTEX
  8
54
 62
7
  6
CONTINUOUS
 10
-933.468571473336
 20
2791.26666677097
  0
VERTEX
  8
54
 62
7
  6
CONTINUOUS
 10
-931.52
 20
2786.72
  0
VERTEX
  8
54
 62
7
  6
CONTINUOUS
 10
-932.32
 20
2781.92
  0
VERTEX
  8
54
 62
7
  6
CONTINUOUS
 10
-929.92
 20
2776.32
  0
VERTEX
  8
54
 62
7
  6
CONTINUOUS
 10
-920.32
 20
2767.52
  0
VERTEX
  8
54
 62
7
  6
CONTINUOUS
 10
-906.72
 20
2761.12
  0
VERTEX
  8
54
 62
7
  6
CONTINUOUS
 10
-894.72
 20
2757.92
  0
VERTEX
  8
54
 62
7
  6
CONTINUOUS
 10
-875.52
 20
2757.12
  0
VERTEX
  8
54
 62
7
  6
CONTINUOUS
 10
-862.72
 20
2761.12
  0
VERTEX
  8
54
 62
7
  6
CONTINUOUS
 10
-853.12
 20
2769.12
  0
VERTEX
  8
54
 62
7
  6
CONTINUOUS
 10
-849.92
 20
2773.92
  0
VERTEX
  8
54
 62
7
  6
CONTINUOUS
 10
-846.72
 20
2783.52
  0
VERTEX
  8
54
 62
7
  6
CONTINUOUS
 10
-844.32
 20
2800.32
  0
VERTEX
  8
54
 62
7
  6
CONTINUOUS
 10
-843.548605968885
 20
2805.71975821419
  0
VERTEX
  8
54
 62
7
  6
CONTINUOUS
 10
-869.174734510084
 20
2807.50249051057
  0
VERTEX
  8
54
 62
7
  6
CONTINUOUS
 10
-873.377128669968
 20
2804.13383257846
  0
SEQEND
  0
POLYLINE
  8
54
 62
7
 66
1
 70
1
  0
VERTEX
  8
54
 62
7
  6
CONTINUOUS
 10
-1341.92
 20
1694.72
  0
VERTEX
  8
54
 62
7
  6
CONTINUOUS
 10
-1341.12
 20
1691.52
  0
VERTEX
  8
54
 62
7
  6
CONTINUOUS
 10
-1332.32
 20
1693.12
  0
VERTEX
  8
54
 62
7
  6
CONTINUOUS
 10
-1309.92
 20
1701.92
  0
VERTEX
  8
54
 62
7
  6
CONTINUOUS
 10
-1301.12
 20
1703.52
  0
VERTEX
  8
54
 62
7
  6
CONTINUOUS
 10
-1279.52
 20
1710.72
  0
VERTEX
  8
54
 62
7
  6
CONTINUOUS
 10
-1271.52
 20
1713.92
  0
VERTEX
  8
54
 62
7
  6
CONTINUOUS
 10
-1269.92
 20
1715.52
  0
VERTEX
  8
54
 62
7
  6
CONTINUOUS
 10
-1269.92
 20
1717.92
  0
VERTEX
  8
54
 62
7
  6
CONTINUOUS
 10
-1272.32
 20
1719.52
  0
VERTEX
  8
54
 62
7
  6
CONTINUOUS
 10
-1281.12
 20
1718.72
  0
VERTEX
  8
54
 62
7
  6
CONTINUOUS
 10
-1300.32
 20
1710.72
  0
VERTEX
  8
54
 62
7
  6
CONTINUOUS
 10
-1311.52
 20
1708.32
  0
VERTEX
  8
54
 62
7
  6
CONTINUOUS
 10
-1337.12
 20
1699.52
  0
SEQEND
  0
POLYLINE
  8
54
 62
7
 66
1
 70
1
  0
VERTEX
  8
54
 62
7
  6
CONTINUOUS
 10
-1277.12
 20
1649.12
  0
VERTEX
  8
54
 62
7
  6
CONTINUOUS
 10
-1277.12
 20
1645.92
  0
VERTEX
  8
54
 62
7
  6
CONTINUOUS
 10
-1275.52
 20
1644.32
  0
VERTEX
  8
54
 62
7
  6
CONTINUOUS
 10
-1270.72
 20
1644.32
  0
VERTEX
  8
54
 62
7
  6
CONTINUOUS
 10
-1265.92
 20
1646.72
  0
VERTEX
  8
54
 62
7
  6
CONTINUOUS
 10
-1263.52
 20
1649.12
  0
VERTEX
  8
54
 62
7
  6
CONTINUOUS
 10
-1263.52
 20
1653.92
  0
VERTEX
  8
54
 62
7
  6
CONTINUOUS
 10
-1267.52
 20
1655.52
  0
VERTEX
  8
54
 62
7
  6
CONTINUOUS
 10
-1275.52
 20
1650.72
  0
SEQEND
  0
POLYLINE
  8
54
 62
7
 66
1
 70
1
  0
VERTEX
  8
54
 62
7
  6
CONTINUOUS
 10
-1283.52
 20
1767.52
  0
VERTEX
  8
54
 62
7
  6
CONTINUOUS
 10
-1283.52
 20
1759.52
  0
VERTEX
  8
54
 62
7
  6
CONTINUOUS
 10
-1281.92
 20
1756.32
  0
VERTEX
  8
54
 62
7
  6
CONTINUOUS
 10
-1279.52
 20
1753.92
  0
VERTEX
  8
54
 62
7
  6
CONTINUOUS
 10
-1274.72
 20
1752.32
  0
VERTEX
  8
54
 62
7
  6
CONTINUOUS
 10
-1271.52
 20
1752.32
  0
VERTEX
  8
54
 62
7
  6
CONTINUOUS
 10
-1265.92
 20
1754.72
  0
VERTEX
  8
54
 62
7
  6
CONTINUOUS
 10
-1260.32
 20
1760.32
  0
VERTEX
  8
54
 62
7
  6
CONTINUOUS
 10
-1257.92
 20
1765.92
  0
VERTEX
  8
54
 62
7
  6
CONTINUOUS
 10
-1258.72
 20
1775.52
  0
VERTEX
  8
54
 62
7
  6
CONTINUOUS
 10
-1261.92
 20
1779.52
  0
VERTEX
  8
54
 62
7
  6
CONTINUOUS
 10
-1266.72
 20
1781.92
  0
VERTEX
  8
54
 62
7
  6
CONTINUOUS
 10
-1269.12
 20
1781.92
  0
VERTEX
  8
54
 62
7
  6
CONTINUOUS
 10
-1273.12
 20
1779.52
  0
VERTEX
  8
54
 62
7
  6
CONTINUOUS
 10
-1281.12
 20
1772.32
  0
SEQEND
  0
POLYLINE
  8
54
 62
7
 66
1
 70
1
  0
VERTEX
  8
54
 62
7
  6
CONTINUOUS
 10
-1269.92
 20
1632.32
  0
VERTEX
  8
54
 62
7
  6
CONTINUOUS
 10
-1269.92
 20
1628.32
  0
VERTEX
  8
54
 62
7
  6
CONTINUOUS
 10
-1267.52
 20
1626.72
  0
VERTEX
  8
54
 62
7
  6
CONTINUOUS
 10
-1257.92
 20
1629.12
  0
VERTEX
  8
54
 62
7
  6
CONTINUOUS
 10
-1253.12
 20
1635.52
  0
VERTEX
  8
54
 62
7
  6
CONTINUOUS
 10
-1253.92
 20
1638.72
  0
VERTEX
  8
54
 62
7
  6
CONTINUOUS
 10
-1256.32
 20
1640.32
  0
VERTEX
  8
54
 62
7
  6
CONTINUOUS
 10
-1260.32
 20
1640.32
  0
VERTEX
  8
54
 62
7
  6
CONTINUOUS
 10
-1267.52
 20
1635.52
  0
SEQEND
  0
POLYLINE
  8
54
 62
7
 66
1
 70
1
  0
VERTEX
  8
54
 62
7
  6
CONTINUOUS
 10
-1193.12
 20
1837.12
  0
VERTEX
  8
54
 62
7
  6
CONTINUOUS
 10
-1193.12
 20
1830.72
  0
VERTEX
  8
54
 62
7
  6
CONTINUOUS
 10
-1189.12
 20
1826.72
  0
VERTEX
  8
54
 62
7
  6
CONTINUOUS
 10
-1185.12
 20
1825.12
  0
VERTEX
  8
54
 62
7
  6
CONTINUOUS
 10
-1175.52
 20
1825.12
  0
VERTEX
  8
54
 62
7
  6
CONTINUOUS
 10
-1172.32
 20
1826.72
  0
VERTEX
  8
54
 62
7
  6
CONTINUOUS
 10
-1169.12
 20
1829.12
  0
VERTEX
  8
54
 62
7
  6
CONTINUOUS
 10
-1167.52
 20
1832.32
  0
VERTEX
  8
54
 62
7
  6
CONTINUOUS
 10
-1168.32
 20
1835.52
  0
VERTEX
  8
54
 62
7
  6
CONTINUOUS
 10
-1172.32
 20
1839.52
  0
VERTEX
  8
54
 62
7
  6
CONTINUOUS
 10
-1177.12
 20
1841.92
  0
VERTEX
  8
54
 62
7
  6
CONTINUOUS
 10
-1185.92
 20
1841.92
  0
VERTEX
  8
54
 62
7
  6
CONTINUOUS
 10
-1190.72
 20
1839.52
  0
SEQEND
  0
POLYLINE
  8
54
 62
7
 66
1
 70
1
  0
VERTEX
  8
54
 62
7
  6
CONTINUOUS
 10
-1173.12
 20
2180.32
  0
VERTEX
  8
54
 62
7
  6
CONTINUOUS
 10
-1173.12
 20
2177.12
  0
VERTEX
  8
54
 62
7
  6
CONTINUOUS
 10
-1170.72
 20
2175.52
  0
VERTEX
  8
54
 62
7
  6
CONTINUOUS
 10
-1166.72
 20
2177.92
  0
VERTEX
  8
54
 62
7
  6
CONTINUOUS
 10
-1165.92
 20
2180.32
  0
VERTEX
  8
54
 62
7
  6
CONTINUOUS
 10
-1168.32
 20
2183.52
  0
VERTEX
  8
54
 62
7
  6
CONTINUOUS
 10
-1171.52
 20
2182.72
  0
SEQEND
  0
POLYLINE
  8
54
 62
7
 66
1
 70
1
  0
VERTEX
  8
54
 62
7
  6
CONTINUOUS
 10
-1661.49762426331
 20
2720.68483812802
  0
VERTEX
  8
54
 62
7
  6
CONTINUOUS
 10
-1653.12
 20
2707.52
  0
VERTEX
  8
54
 62
7
  6
CONTINUOUS
 10
-1653.12
 20
2704.32
  0
VERTEX
  8
54
 62
7
  6
CONTINUOUS
 10
-1647.52
 20
2695.52
  0
VERTEX
  8
54
 62
7
  6
CONTINUOUS
 10
-1638.72
 20
2685.12
  0
VERTEX
  8
54
 62
7
  6
CONTINUOUS
 10
-1633.92
 20
2677.12
  0
VERTEX
  8
54
 62
7
  6
CONTINUOUS
 10
-1608.32
 20
2650.72
  0
VERTEX
  8
54
 62
7
  6
CONTINUOUS
 10
-1592.32
 20
2625.12
  0
VERTEX
  8
54
 62
7
  6
CONTINUOUS
 10
-1589.92
 20
2623.52
  0
VERTEX
  8
54
 62
7
  6
CONTINUOUS
 10
-1589.92
 20
2621.92
  0
VERTEX
  8
54
 62
7
  6
CONTINUOUS
 10
-1577.92
 20
2608.32
  0
VERTEX
  8
54
 62
7
  6
CONTINUOUS
 10
-1554.72
 20
2589.92
  0
VERTEX
  8
54
 62
7
  6
CONTINUOUS
 10
-1545.92
 20
2584.32
  0
VERTEX
  8
54
 62
7
  6
CONTINUOUS
 10
-1524.32
 20
2573.92
  0
VERTEX
  8
54
 62
7
  6
CONTINUOUS
 10
-1468.32
 20
2561.12
  0
VERTEX
  8
54
 62
7
  6
CONTINUOUS
 10
-1447.52
 20
2552.32
  0
VERTEX
  8
54
 62
7
  6
CONTINUOUS
 10
-1435.52
 20
2542.72
  0
VERTEX
  8
54
 62
7
  6
CONTINUOUS
 10
-1414.72
 20
2521.12
  0
VERTEX
  8
54
 62
7
  6
CONTINUOUS
 10
-1399.52
 20
2510.72
  0
VERTEX
  8
54
 62
7
  6
CONTINUOUS
 10
-1385.92
 20
2504.32
  0
VERTEX
  8
54
 62
7
  6
CONTINUOUS
 10
-1369.92
 20
2498.72
  0
VERTEX
  8
54
 62
7
  6
CONTINUOUS
 10
-1353.12
 20
2494.72
  0
VERTEX
  8
54
 62
7
  6
CONTINUOUS
 10
-1335.52
 20
2494.72
  0
VERTEX
  8
54
 62
7
  6
CONTINUOUS
 10
-1328.32
 20
2496.32
  0
VERTEX
  8
54
 62
7
  6
CONTINUOUS
 10
-1317.92
 20
2502.72
  0
VERTEX
  8
54
 62
7
  6
CONTINUOUS
 10
-1312.32
 20
2511.52
  0
VERTEX
  8
54
 62
7
  6
CONTINUOUS
 10
-1310.72
 20
2519.52
  0
VERTEX
  8
54
 62
7
  6
CONTINUOUS
 10
-1305.12
 20
2530.72
  0
VERTEX
  8
54
 62
7
  6
CONTINUOUS
 10
-1300.32
 20
2534.72
  0
VERTEX
  8
54
 62
7
  6
CONTINUOUS
 10
-1296.32
 20
2535.52
  0
VERTEX
  8
54
 62
7
  6
CONTINUOUS
 10
-1294.72
 20
2537.12
  0
VERTEX
  8
54
 62
7
  6
CONTINUOUS
 10
-1288.32
 20
2537.12
  0
VERTEX
  8
54
 62
7
  6
CONTINUOUS
 10
-1269.12
 20
2528.32
  0
VERTEX
  8
54
 62
7
  6
CONTINUOUS
 10
-1255.52
 20
2527.52
  0
VERTEX
  8
54
 62
7
  6
CONTINUOUS
 10
-1247.52
 20
2529.12
  0
VERTEX
  8
54
 62
7
  6
CONTINUOUS
 10
-1221.12
 20
2545.92
  0
VERTEX
  8
54
 62
7
  6
CONTINUOUS
 10
-1206.72
 20
2552.32
  0
VERTEX
  8
54
 62
7
  6
CONTINUOUS
 10
-1185.12
 20
2564.32
  0
VERTEX
  8
54
 62
7
  6
CONTINUOUS
 10
-1172.32
 20
2575.52
  0
VERTEX
  8
54
 62
7
  6
CONTINUOUS
 10
-1167.52
 20
2581.92
  0
VERTEX
  8
54
 62
7
  6
CONTINUOUS
 10
-1164.32
 20
2589.92
  0
VERTEX
  8
54
 62
7
  6
CONTINUOUS
 10
-1162.72
 20
2597.92
  0
VERTEX
  8
54
 62
7
  6
CONTINUOUS
 10
-1162.72
 20
2609.12
  0
VERTEX
  8
54
 62
7
  6
CONTINUOUS
 10
-1165.12
 20
2618.72
  0
VERTEX
  8
54
 62
7
  6
CONTINUOUS
 10
-1170.72
 20
2631.52
  0
VERTEX
  8
54
 62
7
  6
CONTINUOUS
 10
-1180.32
 20
2645.12
  0
VERTEX
  8
54
 62
7
  6
CONTINUOUS
 10
-1185.12
 20
2655.52
  0
VERTEX
  8
54
 62
7
  6
CONTINUOUS
 10
-1189.12
 20
2667.52
  0
VERTEX
  8
54
 62
7
  6
CONTINUOUS
 10
-1193.92
 20
2689.12
  0
VERTEX
  8
54
 62
7
  6
CONTINUOUS
 10
-1197.12
 20
2697.12
  0
VERTEX
  8
54
 62
7
  6
CONTINUOUS
 10
-1205.12
 20
2709.92
  0
VERTEX
  8
54
 62
7
  6
CONTINUOUS
 10
-1217.12
 20
2721.92
  0
VERTEX
  8
54
 62
7
  6
CONTINUOUS
 10
-1238.72
 20
2740.32
  0
VERTEX
  8
54
 62
7
  6
CONTINUOUS
 10
-1259.52
 20
2761.12
  0
VERTEX
  8
54
 62
7
  6
CONTINUOUS
 10
-1274.21234843998
 20
2775.8123484419
  0
VERTEX
  8
54
 62
7
  6
CONTINUOUS
 10
-1307.78682309697
 20
2730.88017741313
  0
VERTEX
  8
54
 62
7
  6
CONTINUOUS
 10
-1332.00401478711
 20
2709.13230478422
  0
VERTEX
  8
54
 62
7
  6
CONTINUOUS
 10
-1337.04880902888
 20
2699.24855889203
  0
VERTEX
  8
54
 62
7
  6
CONTINUOUS
 10
-1331.24539079515
 20
2695.38073368685
  0
VERTEX
  8
54
 62
7
  6
CONTINUOUS
 10
-1328.27832884815
 20
2695.50869955586
  0
VERTEX
  8
54
 62
7
  6
CONTINUOUS
 10
-1317.20876274945
 20
2688.85321306285
  0
VERTEX
  8
54
 62
7
  6
CONTINUOUS
 10
-1305.10711882613
 20
2670.67827878841
  0
VERTEX
  8
54
 62
7
  6
CONTINUOUS
 10
-1305.11608070431
 20
2665.06939418201
  0
VERTEX
  8
54
 62
7
  6
CONTINUOUS
 10
-1303.52037738891
 20
2653.92416256418
  0
VERTEX
  8
54
 62
7
  6
CONTINUOUS
 10
-1302.58815727965
 20
2631.17515065049
  0
VERTEX
  8
54
 62
7
  6
CONTINUOUS
 10
-1310.21483102348
 20
2608.43828161923
  0
VERTEX
  8
54
 62
7
  6
CONTINUOUS
 10
-1315.57659660218
 20
2612.15547282796
  0
VERTEX
  8
54
 62
7
  6
CONTINUOUS
 10
-1315.99505013155
 20
2617.41019479146
  0
VERTEX
  8
54
 62
7
  6
CONTINUOUS
 10
-1313.87927289056
 20
2617.98853495943
  0
VERTEX
  8
54
 62
7
  6
CONTINUOUS
 10
-1320.36126594575
 20
2637.26207193044
  0
VERTEX
  8
54
 62
7
  6
CONTINUOUS
 10
-1324.4742851517
 20
2659.29529039964
  0
VERTEX
  8
54
 62
7
  6
CONTINUOUS
 10
-1339.35041791174
 20
2688.18205440387
  0
VERTEX
  8
54
 62
7
  6
CONTINUOUS
 10
-1346.60380022179
 20
2689.9652734095
  0
VERTEX
  8
54
 62
7
  6
CONTINUOUS
 10
-1358.73143166744
 20
2671.49848246009
  0
VERTEX
  8
54
 62
7
  6
CONTINUOUS
 10
-1368.51358493481
 20
2648.41377650547
  0
VERTEX
  8
54
 62
7
  6
CONTINUOUS
 10
-1375.79619435838
 20
2648.26560396685
  0
VERTEX
  8
54
 62
7
  6
CONTINUOUS
 10
-1372.44618218515
 20
2665.94020737184
  0
VERTEX
  8
54
 62
7
  6
CONTINUOUS
 10
-1386.84138138217
 20
2671.58123967617
  0
VERTEX
  8
54
 62
7
  6
CONTINUOUS
 10
-1406.10359517019
 20
2684.44251217089
  0
VERTEX
  8
54
 62
7
  6
CONTINUOUS
 10
-1428.95553427898
 20
2694.72141757162
  0
VERTEX
  8
54
 62
7
  6
CONTINUOUS
 10
-1457.76692987959
 20
2718.69899403882
  0
VERTEX
  8
54
 62
7
  6
CONTINUOUS
 10
-1469.95319288726
 20
2714.11335620936
  0
VERTEX
  8
54
 62
7
  6
CONTINUOUS
 10
-1498.19278337938
 20
2718.32620666277
  0
VERTEX
  8
54
 62
7
  6
CONTINUOUS
 10
-1502.60363726007
 20
2709.27351206503
  0
VERTEX
  8
54
 62
7
  6
CONTINUOUS
 10
-1508.94158407247
 20
2702.64094525979
  0
VERTEX
  8
54
 62
7
  6
CONTINUOUS
 10
-1509.32166550135
 20
2723.29640140352
  0
VERTEX
  8
54
 62
7
  6
CONTINUOUS
 10
-1518.88494865956
 20
2726.74707494497
  0
VERTEX
  8
54
 62
7
  6
CONTINUOUS
 10
-1540.29859916563
 20
2726.72561998185
  0
VERTEX
  8
54
 62
7
  6
CONTINUOUS
 10
-1546.13884329611
 20
2723.39146991626
  0
VERTEX
  8
54
 62
7
  6
CONTINUOUS
 10
-1581.11718486041
 20
2726.72033293144
  0
VERTEX
  8
54
 62
7
  6
CONTINUOUS
 10
-1608.29828977208
 20
2717.37844690823
  0
VERTEX
  8
54
 62
7
  6
CONTINUOUS
 10
-1621.69309367962
 20
2721.83950285711
  0
VERTEX
  8
54
 62
7
  6
CONTINUOUS
 10
-1642.63730738504
 20
2717.78267925607
  0
SEQEND
  0
POLYLINE
  8
54
 62
7
 66
1
 70
1
  0
VERTEX
  8
54
 62
7
  6
CONTINUOUS
 10
-814.72
 20
2311.52
  0
VERTEX
  8
54
 62
7
  6
CONTINUOUS
 10
-814.72
 20
2307.52
  0
VERTEX
  8
54
 62
7
  6
CONTINUOUS
 10
-810.72
 20
2303.52
  0
VERTEX
  8
54
 62
7
  6
CONTINUOUS
 10
-802.72
 20
2300.32
  0
VERTEX
  8
54
 62
7
  6
CONTINUOUS
 10
-793.92
 20
2301.12
  0
VERTEX
  8
54
 62
7
  6
CONTINUOUS
 10
-792.32
 20
2302.72
  0
VERTEX
  8
54
 62
7
  6
CONTINUOUS
 10
-793.12
 20
2307.52
  0
VERTEX
  8
54
 62
7
  6
CONTINUOUS
 10
-795.52
 20
2309.92
  0
VERTEX
  8
54
 62
7
  6
CONTINUOUS
 10
-803.52
 20
2313.12
  0
VERTEX
  8
54
 62
7
  6
CONTINUOUS
 10
-813.12
 20
2313.12
  0
SEQEND
  0
POLYLINE
  8
54
 62
7
 66
1
 70
1
  0
VERTEX
  8
54
 62
7
  6
CONTINUOUS
 10
-1137.92
 20
1431.52
  0
VERTEX
  8
54
 62
7
  6
CONTINUOUS
 10
-1128.32
 20
1391.52
  0
VERTEX
  8
54
 62
7
  6
CONTINUOUS
 10
-1124.32
 20
1391.52
  0
VERTEX
  8
54
 62
7
  6
CONTINUOUS
 10
-1119.52
 20
1397.92
  0
VERTEX
  8
54
 62
7
  6
CONTINUOUS
 10
-1121.12
 20
1414.72
  0
VERTEX
  8
54
 62
7
  6
CONTINUOUS
 10
-1124.32
 20
1421.12
  0
VERTEX
  8
54
 62
7
  6
CONTINUOUS
 10
-1124.32
 20
1430.72
  0
VERTEX
  8
54
 62
7
  6
CONTINUOUS
 10
-1128.32
 20
1433.92
  0
SEQEND
  0
POLYLINE
  8
54
 62
7
 66
1
 70
1
  0
VERTEX
  8
54
 62
7
  6
CONTINUOUS
 10
-1071.52
 20
2189.12
  0
VERTEX
  8
54
 62
7
  6
CONTINUOUS
 10
-1071.52
 20
2184.32
  0
VERTEX
  8
54
 62
7
  6
CONTINUOUS
 10
-1069.12
 20
2182.72
  0
VERTEX
  8
54
 62
7
  6
CONTINUOUS
 10
-1065.12
 20
2185.12
  0
VERTEX
  8
54
 62
7
  6
CONTINUOUS
 10
-1065.12
 20
2189.12
  0
VERTEX
  8
54
 62
7
  6
CONTINUOUS
 10
-1066.72
 20
2190.72
  0
SEQEND
  0
POLYLINE
  8
54
 62
7
 66
1
 70
1
  0
VERTEX
  8
54
 62
7
  6
CONTINUOUS
 10
-1110.72
 20
2750.72
  0
VERTEX
  8
54
 62
7
  6
CONTINUOUS
 10
-1110.72
 20
2744.32
  0
VERTEX
  8
54
 62
7
  6
CONTINUOUS
 10
-1105.92
 20
2741.12
  0
VERTEX
  8
54
 62
7
  6
CONTINUOUS
 10
-1082.72
 20
2737.92
  0
VERTEX
  8
54
 62
7
  6
CONTINUOUS
 10
-1072.32
 20
2740.32
  0
VERTEX
  8
54
 62
7
  6
CONTINUOUS
 10
-1064.32
 20
2745.92
  0
VERTEX
  8
54
 62
7
  6
CONTINUOUS
 10
-1061.12
 20
2753.12
  0
VERTEX
  8
54
 62
7
  6
CONTINUOUS
 10
-1061.12
 20
2756.32
  0
VERTEX
  8
54
 62
7
  6
CONTINUOUS
 10
-1056.4722864272
 20
2766.77735553452
  0
VERTEX
  8
54
 62
7
  6
CONTINUOUS
 10
-1073.42792821623
 20
2764.97252783364
  0
VERTEX
  8
54
 62
7
  6
CONTINUOUS
 10
-1082.67616673375
 20
2768.2962301059
  0
VERTEX
  8
54
 62
7
  6
CONTINUOUS
 10
-1095.99684452466
 20
2754.83784715015
  0
VERTEX
  8
54
 62
7
  6
CONTINUOUS
 10
-1100.398725787
 20
2754.44063118544
  0
VERTEX
  8
54
 62
7
  6
CONTINUOUS
 10
-1088.53679391589
 20
2773.69866182707
  0
VERTEX
  8
54
 62
7
  6
CONTINUOUS
 10
-1094.9107970569
 20
2776.88150367649
  0
VERTEX
  8
54
 62
7
  6
CONTINUOUS
 10
-1101.12
 20
2769.12
  0
VERTEX
  8
54
 62
7
  6
CONTINUOUS
 10
-1101.12
 20
2766.72
  0
VERTEX
  8
54
 62
7
  6
CONTINUOUS
 10
-1107.52
 20
2758.72
  0
SEQEND
  0
POLYLINE
  8
54
 62
7
 66
1
 70
1
  0
VERTEX
  8
54
 62
7
  6
CONTINUOUS
 10
-1013.12
 20
1884.32
  0
VERTEX
  8
54
 62
7
  6
CONTINUOUS
 10
-1013.12
 20
1881.92
  0
VERTEX
  8
54
 62
7
  6
CONTINUOUS
 10
-1006.72
 20
1876.32
  0
VERTEX
  8
54
 62
7
  6
CONTINUOUS
 10
-997.12
 20
1877.12
  0
VERTEX
  8
54
 62
7
  6
CONTINUOUS
 10
-996.32
 20
1881.92
  0
VERTEX
  8
54
 62
7
  6
CONTINUOUS
 10
-1004.32
 20
1887.52
  0
VERTEX
  8
54
 62
7
  6
CONTINUOUS
 10
-1010.72
 20
1886.72
  0
SEQEND
  0
POLYLINE
  8
54
 62
7
 66
1
 70
1
  0
VERTEX
  8
54
 62
7
  6
CONTINUOUS
 10
-1685.7995616155
 20
671.328876093657
  0
VERTEX
  8
54
 62
7
  6
CONTINUOUS
 10
-1684.32079756983
 20
639.524295902471
  0
VERTEX
  8
54
 62
7
  6
CONTINUOUS
 10
-1679.52063810395
 20
625.121178440615
  0
VERTEX
  8
54
 62
7
  6
CONTINUOUS
 10
-1657.92579301381
 20
597.925760976676
  0
VERTEX
  8
54
 62
7
  6
CONTINUOUS
 10
-1613.91293058744
 20
563.518025920535
  0
VERTEX
  8
54
 62
7
  6
CONTINUOUS
 10
-1586.70048433622
 20
566.726517745064
  0
VERTEX
  8
54
 62
7
  6
CONTINUOUS
 10
-1546.22835147294
 20
590.033558022187
  0
VERTEX
  8
54
 62
7
  6
CONTINUOUS
 10
-1460.06225487131
 20
658.615457441126
  0
VERTEX
  8
54
 62
7
  6
CONTINUOUS
 10
-1445.11768478222
 20
683.523151971823
  0
VERTEX
  8
54
 62
7
  6
CONTINUOUS
 10
-1410.92022399261
 20
721.919746286793
  0
VERTEX
  8
54
 62
7
  6
CONTINUOUS
 10
-1374.26731578117
 20
763.808861748191
  0
VERTEX
  8
54
 62
7
  6
CONTINUOUS
 10
-1325.49188956601
 20
798.133265665793
  0
VERTEX
  8
54
 62
7
  6
CONTINUOUS
 10
-1288.18413128497
 20
816.733748920608
  0
VERTEX
  8
54
 62
7
  6
CONTINUOUS
 10
-1280.33003647736
 20
833.151826863926
  0
VERTEX
  8
54
 62
7
  6
CONTINUOUS
 10
-1273.37487273623
 20
826.212992914545
  0
VERTEX
  8
54
 62
7
  6
CONTINUOUS
 10
-1273.46012957481
 20
822.480920264027
  0
VERTEX
  8
54
 62
7
  6
CONTINUOUS
 10
-1262.85526853932
 20
823.51241737048
  0
VERTEX
  8
54
 62
7
  6
CONTINUOUS
 10
-1265.71735829187
 20
828.52869421962
  0
VERTEX
  8
54
 62
7
  6
CONTINUOUS
 10
-1261.28132709302
 20
844.182819558351
  0
VERTEX
  8
54
 62
7
  6
CONTINUOUS
 10
-1255.74980059455
 20
845.195412446124
  0
VERTEX
  8
54
 62
7
  6
CONTINUOUS
 10
-1260.85316977182
 20
870.921386186728
  0
VERTEX
  8
54
 62
7
  6
CONTINUOUS
 10
-1256.83567880188
 20
870.614668777372
  0
VERTEX
  8
54
 62
7
  6
CONTINUOUS
 10
-1245.92617205159
 20
859.528587172088
  0
VERTEX
  8
54
 62
7
  6
CONTINUOUS
 10
-1237.63221823189
 20
843.02077343163
  0
VERTEX
  8
54
 62
7
  6
CONTINUOUS
 10
-1247.74595335651
 20
824.509581082977
  0
VERTEX
  8
54
 62
7
  6
CONTINUOUS
 10
-1231.46903260933
 20
808.264734554634
  0
VERTEX
  8
54
 62
7
  6
CONTINUOUS
 10
-1214.12960515049
 20
787.064784254805
  0
VERTEX
  8
54
 62
7
  6
CONTINUOUS
 10
-1186.75160691711
 20
765.939172639046
  0
VERTEX
  8
54
 62
7
  6
CONTINUOUS
 10
-1161.78772677084
 20
754.731960027934
  0
VERTEX
  8
54
 62
7
  6
CONTINUOUS
 10
-1155.68048983087
 20
758.752342395273
  0
VERTEX
  8
54
 62
7
  6
CONTINUOUS
 10
-1145.79282732591
 20
774.636805664322
  0
VERTEX
  8
54
 62
7
  6
CONTINUOUS
 10
-1137.8653247379
 20
770.634002727875
  0
VERTEX
  8
54
 62
7
  6
CONTINUOUS
 10
-1137.94443939826
 20
750.793542744004
  0
VERTEX
  8
54
 62
7
  6
CONTINUOUS
 10
-1132.41161873172
 20
743.557935252115
  0
VERTEX
  8
54
 62
7
  6
CONTINUOUS
 10
-1057.91551086624
 20
754.720810485528
  0
VERTEX
  8
54
 62
7
  6
CONTINUOUS
 10
-1008.62792897317
 20
764.942645162271
  0
VERTEX
  8
54
 62
7
  6
CONTINUOUS
 10
-1002.20439456292
 20
773.263871801079
  0
VERTEX
  8
54
 62
7
  6
CONTINUOUS
 10
-1000.78929681063
 20
766.51754694255
  0
VERTEX
  8
54
 62
7
  6
CONTINUOUS
 10
-967.970952976041
 20
770.1531002952
  0
VERTEX
  8
54
 62
7
  6
CONTINUOUS
 10
-968.32
 20
773.12
  0
VERTEX
  8
54
 62
7
  6
CONTINUOUS
 10
-969.92
 20
786.72
  0
VERTEX
  8
54
 62
7
  6
CONTINUOUS
 10
-974.72
 20
796.32
  0
VERTEX
  8
54
 62
7
  6
CONTINUOUS
 10
-989.12
 20
811.52
  0
VERTEX
  8
54
 62
7
  6
CONTINUOUS
 10
-1004.32
 20
822.72
  0
VERTEX
  8
54
 62
7
  6
CONTINUOUS
 10
-1013.12
 20
831.52
  0
VERTEX
  8
54
 62
7
  6
CONTINUOUS
 10
-1021.12
 20
847.52
  0
VERTEX
  8
54
 62
7
  6
CONTINUOUS
 10
-1021.12
 20
869.12
  0
VERTEX
  8
54
 62
7
  6
CONTINUOUS
 10
-1017.12
 20
881.12
  0
VERTEX
  8
54
 62
7
  6
CONTINUOUS
 10
-1009.12
 20
897.92
  0
VERTEX
  8
54
 62
7
  6
CONTINUOUS
 10
-1007.52
 20
909.92
  0
VERTEX
  8
54
 62
7
  6
CONTINUOUS
 10
-1009.92
 20
917.92
  0
VERTEX
  8
54
 62
7
  6
CONTINUOUS
 10
-1015.52
 20
927.52
  0
VERTEX
  8
54
 62
7
  6
CONTINUOUS
 10
-1021.12
 20
934.72
  0
VERTEX
  8
54
 62
7
  6
CONTINUOUS
 10
-1037.12
 20
949.92
  0
VERTEX
  8
54
 62
7
  6
CONTINUOUS
 10
-1041.12
 20
956.32
  0
VERTEX
  8
54
 62
7
  6
CONTINUOUS
 10
-1042.72
 20
969.12
  0
VERTEX
  8
54
 62
7
  6
CONTINUOUS
 10
-1041.12
 20
981.12
  0
VERTEX
  8
54
 62
7
  6
CONTINUOUS
 10
-1037.92
 20
991.52
  0
VERTEX
  8
54
 62
7
  6
CONTINUOUS
 10
-1037.92
 20
1001.92
  0
VERTEX
  8
54
 62
7
  6
CONTINUOUS
 10
-1046.72
 20
1026.72
  0
VERTEX
  8
54
 62
7
  6
CONTINUOUS
 10
-1056.32
 20
1037.12
  0
VERTEX
  8
54
 62
7
  6
CONTINUOUS
 10
-1067.52
 20
1042.72
  0
VERTEX
  8
54
 62
7
  6
CONTINUOUS
 10
-1085.92
 20
1046.72
  0
VERTEX
  8
54
 62
7
  6
CONTINUOUS
 10
-1105.92
 20
1047.52
  0
VERTEX
  8
54
 62
7
  6
CONTINUOUS
 10
-1127.52
 20
1044.32
  0
VERTEX
  8
54
 62
7
  6
CONTINUOUS
 10
-1140.32
 20
1040.32
  0
VERTEX
  8
54
 62
7
  6
CONTINUOUS
 10
-1150.72
 20
1035.52
  0
VERTEX
  8
54
 62
7
  6
CONTINUOUS
 10
-1177.12
 20
1017.12
  0
VERTEX
  8
54
 62
7
  6
CONTINUOUS
 10
-1205.12
 20
1002.72
  0
VERTEX
  8
54
 62
7
  6
CONTINUOUS
 10
-1232.32
 20
1000.32
  0
VERTEX
  8
54
 62
7
  6
CONTINUOUS
 10
-1251.52
 20
995.52
  0
VERTEX
  8
54
 62
7
  6
CONTINUOUS
 10
-1254.72
 20
993.12
  0
VERTEX
  8
54
 62
7
  6
CONTINUOUS
 10
-1257.12
 20
993.12
  0
VERTEX
  8
54
 62
7
  6
CONTINUOUS
 10
-1263.52
 20
989.92
  0
VERTEX
  8
54
 62
7
  6
CONTINUOUS
 10
-1286.72
 20
975.52
  0
VERTEX
  8
54
 62
7
  6
CONTINUOUS
 10
-1300.32
 20
965.12
  0
VERTEX
  8
54
 62
7
  6
CONTINUOUS
 10
-1313.12
 20
953.12
  0
VERTEX
  8
54
 62
7
  6
CONTINUOUS
 10
-1328.32
 20
932.32
  0
VERTEX
  8
54
 62
7
  6
CONTINUOUS
 10
-1337.92
 20
914.72
  0
VERTEX
  8
54
 62
7
  6
CONTINUOUS
 10
-1353.12
 20
897.92
  0
VERTEX
  8
54
 62
7
  6
CONTINUOUS
 10
-1373.92
 20
882.72
  0
VERTEX
  8
54
 62
7
  6
CONTINUOUS
 10
-1397.92
 20
868.32
  0
VERTEX
  8
54
 62
7
  6
CONTINUOUS
 10
-1441.12
 20
833.12
  0
VERTEX
  8
54
 62
7
  6
CONTINUOUS
 10
-1460.32
 20
820.32
  0
VERTEX
  8
54
 62
7
  6
CONTINUOUS
 10
-1469.12
 20
816.32
  0
VERTEX
  8
54
 62
7
  6
CONTINUOUS
 10
-1491.52
 20
801.12
  0
VERTEX
  8
54
 62
7
  6
CONTINUOUS
 10
-1508.32
 20
785.92
  0
VERTEX
  8
54
 62
7
  6
CONTINUOUS
 10
-1519.52
 20
773.92
  0
VERTEX
  8
54
 62
7
  6
CONTINUOUS
 10
-1541.12
 20
746.72
  0
VERTEX
  8
54
 62
7
  6
CONTINUOUS
 10
-1552.32
 20
735.52
  0
VERTEX
  8
54
 62
7
  6
CONTINUOUS
 10
-1566.72
 20
724.32
  0
VERTEX
  8
54
 62
7
  6
CONTINUOUS
 10
-1581.92
 20
717.12
  0
VERTEX
  8
54
 62
7
  6
CONTINUOUS
 10
-1601.12
 20
713.12
  0
VERTEX
  8
54
 62
7
  6
CONTINUOUS
 10
-1624.32
 20
713.12
  0
VERTEX
  8
54
 62
7
  6
CONTINUOUS
 10
-1635.52
 20
714.72
  0
VERTEX
  8
54
 62
7
  6
CONTINUOUS
 10
-1657.12
 20
720.32
  0
VERTEX
  8
54
 62
7
  6
CONTINUOUS
 10
-1662.72
 20
723.52
  0
VERTEX
  8
54
 62
7
  6
CONTINUOUS
 10
-1676.09707535254
 20
731.164043058743
  0
SEQEND
  0
POLYLINE
  8
54
 62
7
 66
1
 70
1
  0
VERTEX
  8
54
 62
7
  6
CONTINUOUS
 10
-1196.32
 20
1732.32
  0
VERTEX
  8
54
 62
7
  6
CONTINUOUS
 10
-1193.92
 20
1725.92
  0
VERTEX
  8
54
 62
7
  6
CONTINUOUS
 10
-1185.12
 20
1720.32
  0
VERTEX
  8
54
 62
7
  6
CONTINUOUS
 10
-1164.32
 20
1721.12
  0
VERTEX
  8
54
 62
7
  6
CONTINUOUS
 10
-1154.72
 20
1722.72
  0
VERTEX
  8
54
 62
7
  6
CONTINUOUS
 10
-1152.32
 20
1724.32
  0
VERTEX
  8
54
 62
7
  6
CONTINUOUS
 10
-1146.72
 20
1724.32
  0
VERTEX
  8
54
 62
7
  6
CONTINUOUS
 10
-1133.92
 20
1728.32
  0
VERTEX
  8
54
 62
7
  6
CONTINUOUS
 10
-1125.92
 20
1729.12
  0
VERTEX
  8
54
 62
7
  6
CONTINUOUS
 10
-1090.72
 20
1729.12
  0
VERTEX
  8
54
 62
7
  6
CONTINUOUS
 10
-1054.72
 20
1733.92
  0
VERTEX
  8
54
 62
7
  6
CONTINUOUS
 10
-1009.92
 20
1734.72
  0
VERTEX
  8
54
 62
7
  6
CONTINUOUS
 10
-989.92
 20
1737.12
  0
VERTEX
  8
54
 62
7
  6
CONTINUOUS
 10
-980.32
 20
1739.52
  0
VERTEX
  8
54
 62
7
  6
CONTINUOUS
 10
-930.72
 20
1741.92
  0
VERTEX
  8
54
 62
7
  6
CONTINUOUS
 10
-921.12
 20
1743.52
  0
VERTEX
  8
54
 62
7
  6
CONTINUOUS
 10
-909.92
 20
1748.32
  0
VERTEX
  8
54
 62
7
  6
CONTINUOUS
 10
-905.92
 20
1752.32
  0
VERTEX
  8
54
 62
7
  6
CONTINUOUS
 10
-903.52
 20
1760.32
  0
VERTEX
  8
54
 62
7
  6
CONTINUOUS
 10
-905.12
 20
1765.12
  0
VERTEX
  8
54
 62
7
  6
CONTINUOUS
 10
-914.72
 20
1773.12
  0
VERTEX
  8
54
 62
7
  6
CONTINUOUS
 10
-927.52
 20
1776.32
  0
VERTEX
  8
54
 62
7
  6
CONTINUOUS
 10
-933.12
 20
1776.32
  0
VERTEX
  8
54
 62
7
  6
CONTINUOUS
 10
-936.32
 20
1777.92
  0
VERTEX
  8
54
 62
7
  6
CONTINUOUS
 10
-973.12
 20
1777.12
  0
VERTEX
  8
54
 62
7
  6
CONTINUOUS
 10
-981.92
 20
1779.52
  0
VERTEX
  8
54
 62
7
  6
CONTINUOUS
 10
-1004.32
 20
1781.92
  0
VERTEX
  8
54
 62
7
  6
CONTINUOUS
 10
-1024.32
 20
1780.32
  0
VERTEX
  8
54
 62
7
  6
CONTINUOUS
 10
-1037.12
 20
1777.12
  0
VERTEX
  8
54
 62
7
  6
CONTINUOUS
 10
-1045.92
 20
1773.12
  0
VERTEX
  8
54
 62
7
  6
CONTINUOUS
 10
-1055.52
 20
1764.32
  0
VERTEX
  8
54
 62
7
  6
CONTINUOUS
 10
-1067.52
 20
1756.32
  0
VERTEX
  8
54
 62
7
  6
CONTINUOUS
 10
-1079.52
 20
1752.32
  0
VERTEX
  8
54
 62
7
  6
CONTINUOUS
 10
-1130.72
 20
1743.52
  0
VERTEX
  8
54
 62
7
  6
CONTINUOUS
 10
-1159.52
 20
1743.52
  0
VERTEX
  8
54
 62
7
  6
CONTINUOUS
 10
-1182.72
 20
1741.12
  0
VERTEX
  8
54
 62
7
  6
CONTINUOUS
 10
-1184.32
 20
1739.52
  0
VERTEX
  8
54
 62
7
  6
CONTINUOUS
 10
-1189.12
 20
1738.72
  0
SEQEND
  0
POLYLINE
  8
54
 62
7
 66
1
 70
1
  0
VERTEX
  8
54
 62
7
  6
CONTINUOUS
 10
-908.32
 20
1422.72
  0
VERTEX
  8
54
 62
7
  6
CONTINUOUS
 10
-908.32
 20
1417.92
  0
VERTEX
  8
54
 62
7
  6
CONTINUOUS
 10
-902.72
 20
1417.92
  0
VERTEX
  8
54
 62
7
  6
CONTINUOUS
 10
-895.52
 20
1421.12
  0
VERTEX
  8
54
 62
7
  6
CONTINUOUS
 10
-890.72
 20
1425.12
  0
VERTEX
  8
54
 62
7
  6
CONTINUOUS
 10
-889.12
 20
1429.12
  0
VERTEX
  8
54
 62
7
  6
CONTINUOUS
 10
-890.72
 20
1430.72
  0
VERTEX
  8
54
 62
7
  6
CONTINUOUS
 10
-893.92
 20
1430.72
  0
VERTEX
  8
54
 62
7
  6
CONTINUOUS
 10
-900.32
 20
1428.32
  0
SEQEND
  0
POLYLINE
  8
54
 62
7
 66
1
 70
1
  0
VERTEX
  8
54
 62
7
  6
CONTINUOUS
 10
-871.52
 20
1445.92
  0
VERTEX
  8
54
 62
7
  6
CONTINUOUS
 10
-869.92
 20
1444.32
  0
VERTEX
  8
54
 62
7
  6
CONTINUOUS
 10
-857.92
 20
1445.92
  0
VERTEX
  8
54
 62
7
  6
CONTINUOUS
 10
-855.52
 20
1448.32
  0
VERTEX
  8
54
 62
7
  6
CONTINUOUS
 10
-855.52
 20
1450.72
  0
VERTEX
  8
54
 62
7
  6
CONTINUOUS
 10
-858.72
 20
1453.12
  0
VERTEX
  8
54
 62
7
  6
CONTINUOUS
 10
-864.32
 20
1453.12
  0
VERTEX
  8
54
 62
7
  6
CONTINUOUS
 10
-870.72
 20
1449.12
  0
SEQEND
  0
POLYLINE
  8
54
 62
7
 66
1
 70
1
  0
VERTEX
  8
54
 62
7
  6
CONTINUOUS
 10
-1123.52
 20
1809.92
  0
VERTEX
  8
54
 62
7
  6
CONTINUOUS
 10
-1118.72
 20
1803.52
  0
VERTEX
  8
54
 62
7
  6
CONTINUOUS
 10
-1115.52
 20
1801.92
  0
VERTEX
  8
54
 62
7
  6
CONTINUOUS
 10
-1105.92
 20
1801.92
  0
VERTEX
  8
54
 62
7
  6
CONTINUOUS
 10
-1100.32
 20
1804.32
  0
VERTEX
  8
54
 62
7
  6
CONTINUOUS
 10
-1095.52
 20
1809.92
  0
VERTEX
  8
54
 62
7
  6
CONTINUOUS
 10
-1096.32
 20
1815.52
  0
VERTEX
  8
54
 62
7
  6
CONTINUOUS
 10
-1101.12
 20
1819.52
  0
VERTEX
  8
54
 62
7
  6
CONTINUOUS
 10
-1110.72
 20
1821.92
  0
VERTEX
  8
54
 62
7
  6
CONTINUOUS
 10
-1118.72
 20
1819.52
  0
VERTEX
  8
54
 62
7
  6
CONTINUOUS
 10
-1122.72
 20
1815.52
  0
SEQEND
  0
POLYLINE
  8
54
 62
7
 66
1
 70
1
  0
VERTEX
  8
54
 62
7
  6
CONTINUOUS
 10
-388.32
 20
1157.12
  0
VERTEX
  8
54
 62
7
  6
CONTINUOUS
 10
-386.72
 20
1155.52
  0
VERTEX
  8
54
 62
7
  6
CONTINUOUS
 10
-386.72
 20
1148.32
  0
VERTEX
  8
54
 62
7
  6
CONTINUOUS
 10
-379.52
 20
1127.52
  0
VERTEX
  8
54
 62
7
  6
CONTINUOUS
 10
-373.92
 20
1118.72
  0
VERTEX
  8
54
 62
7
  6
CONTINUOUS
 10
-357.12
 20
1100.32
  0
VERTEX
  8
54
 62
7
  6
CONTINUOUS
 10
-338.72
 20
1086.72
  0
VERTEX
  8
54
 62
7
  6
CONTINUOUS
 10
-321.92
 20
1070.72
  0
VERTEX
  8
54
 62
7
  6
CONTINUOUS
 10
-305.92
 20
1045.92
  0
VERTEX
  8
54
 62
7
  6
CONTINUOUS
 10
-292.32
 20
1012.32
  0
VERTEX
  8
54
 62
7
  6
CONTINUOUS
 10
-281.92
 20
992.32
  0
VERTEX
  8
54
 62
7
  6
CONTINUOUS
 10
-273.12
 20
980.32
  0
VERTEX
  8
54
 62
7
  6
CONTINUOUS
 10
-261.92
 20
969.92
  0
VERTEX
  8
54
 62
7
  6
CONTINUOUS
 10
-256.32
 20
965.92
  0
VERTEX
  8
54
 62
7
  6
CONTINUOUS
 10
-238.72
 20
957.92
  0
VERTEX
  8
54
 62
7
  6
CONTINUOUS
 10
-213.12
 20
952.32
  0
VERTEX
  8
54
 62
7
  6
CONTINUOUS
 10
-179.52
 20
947.52
  0
VERTEX
  8
54
 62
7
  6
CONTINUOUS
 10
-154.72
 20
940.32
  0
VERTEX
  8
54
 62
7
  6
CONTINUOUS
 10
-140.32
 20
932.32
  0
VERTEX
  8
54
 62
7
  6
CONTINUOUS
 10
-59.716890911157
 20
887.540494951628
  0
VERTEX
  8
54
 62
7
  6
CONTINUOUS
 10
-56.0042906824777
 20
906.5795534702
  0
VERTEX
  8
54
 62
7
  6
CONTINUOUS
 10
-115.527928286531
 20
971.532559597089
  0
VERTEX
  8
54
 62
7
  6
CONTINUOUS
 10
-119.596843857623
 20
981.709327667591
  0
VERTEX
  8
54
 62
7
  6
CONTINUOUS
 10
-132.314607639022
 20
999.511444930673
  0
VERTEX
  8
54
 62
7
  6
CONTINUOUS
 10
-153.270969353214
 20
1037.13225591216
  0
VERTEX
  8
54
 62
7
  6
CONTINUOUS
 10
-150.111692289536
 20
1049.97766290698
  0
VERTEX
  8
54
 62
7
  6
CONTINUOUS
 10
-138.515203221599
 20
1046.06401387855
  0
VERTEX
  8
54
 62
7
  6
CONTINUOUS
 10
-135.482847009617
 20
1037.88109722392
  0
VERTEX
  8
54
 62
7
  6
CONTINUOUS
 10
-128.280317819742
 20
1034.68598319172
  0
VERTEX
  8
54
 62
7
  6
CONTINUOUS
 10
-117.456015296669
 20
1017.33843145857
  0
VERTEX
  8
54
 62
7
  6
CONTINUOUS
 10
-111.548001747813
 20
1009.16972583362
  0
VERTEX
  8
54
 62
7
  6
CONTINUOUS
 10
-101.313996239438
 20
985.921303434571
  0
VERTEX
  8
54
 62
7
  6
CONTINUOUS
 10
-84.2649341018882
 20
985.900516966473
  0
VERTEX
  8
54
 62
7
  6
CONTINUOUS
 10
-74.7643238331269
 20
977.938236619802
  0
VERTEX
  8
54
 62
7
  6
CONTINUOUS
 10
-31.5608008510939
 20
974.682631836284
  0
VERTEX
  8
54
 62
7
  6
CONTINUOUS
 10
-31.5608078933712
 20
981.0011669571
  0
VERTEX
  8
54
 62
7
  6
CONTINUOUS
 10
-35.52
 20
986.72
  0
VERTEX
  8
54
 62
7
  6
CONTINUOUS
 10
-35.52
 20
989.12
  0
VERTEX
  8
54
 62
7
  6
CONTINUOUS
 10
-42.72
 20
999.52
  0
VERTEX
  8
54
 62
7
  6
CONTINUOUS
 10
-52.32
 20
1008.32
  0
VERTEX
  8
54
 62
7
  6
CONTINUOUS
 10
-63.52
 20
1013.12
  0
VERTEX
  8
54
 62
7
  6
CONTINUOUS
 10
-78.72
 20
1016.32
  0
VERTEX
  8
54
 62
7
  6
CONTINUOUS
 10
-85.92
 20
1020.32
  0
VERTEX
  8
54
 62
7
  6
CONTINUOUS
 10
-122.72
 20
1053.92
  0
VERTEX
  8
54
 62
7
  6
CONTINUOUS
 10
-145.12
 20
1066.72
  0
VERTEX
  8
54
 62
7
  6
CONTINUOUS
 10
-150.72
 20
1072.32
  0
VERTEX
  8
54
 62
7
  6
CONTINUOUS
 10
-169.92
 20
1084.32
  0
VERTEX
  8
54
 62
7
  6
CONTINUOUS
 10
-179.52
 20
1091.52
  0
VERTEX
  8
54
 62
7
  6
CONTINUOUS
 10
-190.72
 20
1102.72
  0
VERTEX
  8
54
 62
7
  6
CONTINUOUS
 10
-200.32
 20
1120.32
  0
VERTEX
  8
54
 62
7
  6
CONTINUOUS
 10
-204.32
 20
1137.12
  0
VERTEX
  8
54
 62
7
  6
CONTINUOUS
 10
-206.72
 20
1162.72
  0
VERTEX
  8
54
 62
7
  6
CONTINUOUS
 10
-206.72
 20
1189.12
  0
VERTEX
  8
54
 62
7
  6
CONTINUOUS
 10
-208.32
 20
1201.12
  0
VERTEX
  8
54
 62
7
  6
CONTINUOUS
 10
-216.32
 20
1215.52
  0
VERTEX
  8
54
 62
7
  6
CONTINUOUS
 10
-224.32
 20
1222.72
  0
VERTEX
  8
54
 62
7
  6
CONTINUOUS
 10
-235.52
 20
1226.72
  0
VERTEX
  8
54
 62
7
  6
CONTINUOUS
 10
-244.32
 20
1226.72
  0
VERTEX
  8
54
 62
7
  6
CONTINUOUS
 10
-257.12
 20
1222.72
  0
VERTEX
  8
54
 62
7
  6
CONTINUOUS
 10
-261.92
 20
1219.52
  0
VERTEX
  8
54
 62
7
  6
CONTINUOUS
 10
-273.12
 20
1215.52
  0
VERTEX
  8
54
 62
7
  6
CONTINUOUS
 10
-281.12
 20
1215.52
  0
VERTEX
  8
54
 62
7
  6
CONTINUOUS
 10
-287.52
 20
1219.52
  0
VERTEX
  8
54
 62
7
  6
CONTINUOUS
 10
-293.12
 20
1226.72
  0
VERTEX
  8
54
 62
7
  6
CONTINUOUS
 10
-302.72
 20
1235.52
  0
VERTEX
  8
54
 62
7
  6
CONTINUOUS
 10
-313.92
 20
1240.32
  0
VERTEX
  8
54
 62
7
  6
CONTINUOUS
 10
-325.12
 20
1241.92
  0
VERTEX
  8
54
 62
7
  6
CONTINUOUS
 10
-340.32
 20
1239.52
  0
VERTEX
  8
54
 62
7
  6
CONTINUOUS
 10
-357.12
 20
1231.52
  0
VERTEX
  8
54
 62
7
  6
CONTINUOUS
 10
-367.52
 20
1222.72
  0
VERTEX
  8
54
 62
7
  6
CONTINUOUS
 10
-377.92
 20
1209.12
  0
VERTEX
  8
54
 62
7
  6
CONTINUOUS
 10
-384.32
 20
1195.52
  0
VERTEX
  8
54
 62
7
  6
CONTINUOUS
 10
-387.52
 20
1183.52
  0
SEQEND
  0
POLYLINE
  8
11
 62
7
 66
1
 70
1
  0
VERTEX
  8
11
 62
7
  6
CONTINUOUS
 10
-1019.21254823158
 20
964.013261273539
  0
VERTEX
  8
11
 62
7
  6
CONTINUOUS
 10
-1008.99320111202
 20
998.055382143561
  0
VERTEX
  8
11
 62
7
  6
CONTINUOUS
 10
-980.637745390469
 20
1026.40145284255
  0
VERTEX
  8
11
 62
7
  6
CONTINUOUS
 10
-941.386125193978
 20
1041.1200982262
  0
VERTEX
  8
11
 62
7
  6
CONTINUOUS
 10
-890.450336317715
 20
1041.11938603373
  0
VERTEX
  8
11
 62
7
  6
CONTINUOUS
 10
-862.719663133669
 20
1029.23409616805
  0
VERTEX
  8
11
 62
7
  6
CONTINUOUS
 10
-843.019012952693
 20
1015.16475759069
  0
VERTEX
  8
11
 62
7
  6
CONTINUOUS
 10
-829.924387038118
 20
995.534589520328
  0
VERTEX
  8
11
 62
7
  6
CONTINUOUS
 10
-829.921399150453
 20
978.556129256319
  0
VERTEX
  8
11
 62
7
  6
CONTINUOUS
 10
-851.626395338996
 20
952.514240825377
  0
VERTEX
  8
11
 62
7
  6
CONTINUOUS
 10
-883.254632489343
 20
931.430597100754
  0
VERTEX
  8
11
 62
7
  6
CONTINUOUS
 10
-921.121751321486
 20
925.119854668852
  0
VERTEX
  8
11
 62
7
  6
CONTINUOUS
 10
-957.115112707063
 20
925.119203796497
  0
VERTEX
  8
11
 62
7
  6
CONTINUOUS
 10
-991.898795801323
 20
936.706803424157
  0
SEQEND
  0
POLYLINE
  8
11
 62
7
 66
1
 70
1
  0
VERTEX
  8
11
 62
7
  6
CONTINUOUS
 10
-1327.51147644686
 20
1364.33194325733
  0
VERTEX
  8
11
 62
7
  6
CONTINUOUS
 10
-1327.49896062581
 20
1398.33987588778
  0
VERTEX
  8
11
 62
7
  6
CONTINUOUS
 10
-1178.90133901741
 20
1424.07699427657
  0
VERTEX
  8
11
 62
7
  6
CONTINUOUS
 10
-1132.53777369214
 20
1427.42055544985
  0
VERTEX
  8
11
 62
7
  6
CONTINUOUS
 10
-1128.59526310241
 20
1396.0227436096
  0
VERTEX
  8
11
 62
7
  6
CONTINUOUS
 10
-1247.25661117441
 20
1374.12814948526
  0
SEQEND
  0
POLYLINE
  8
11
 62
7
 66
1
 70
1
  0
VERTEX
  8
11
 62
7
  6
CONTINUOUS
 10
-1392.00361470712
 20
1559.05877298336
  0
VERTEX
  8
11
 62
7
  6
CONTINUOUS
 10
-1365.88853639527
 20
1567.77542947676
  0
VERTEX
  8
11
 62
7
  6
CONTINUOUS
 10
-1355.95904885097
 20
1524.2322440282
  0
VERTEX
  8
11
 62
7
  6
CONTINUOUS
 10
-1337.12333259744
 20
1391.53565215671
  0
VERTEX
  8
11
 62
7
  6
CONTINUOUS
 10
-1337.07675258715
 20
1358.09897256737
  0
VERTEX
  8
11
 62
7
  6
CONTINUOUS
 10
-1365.8502244272
 20
1353.41718450133
  0
VERTEX
  8
11
 62
7
  6
CONTINUOUS
 10
-1385.46197989668
 20
1490.71256775701
  0
SEQEND
  0
POLYLINE
  8
1
 62
7
 66
1
 70
1
  0
VERTEX
  8
1
 62
7
  6
CONTINUOUS
 10
-1967.51897938018
 20
2329.08940929923
  0
VERTEX
  8
1
 62
7
  6
CONTINUOUS
 10
-1959.5149927264
 20
2305.90902117175
  0
VERTEX
  8
1
 62
7
  6
CONTINUOUS
 10
-1929.73078733329
 20
2253.97876046995
  0
VERTEX
  8
1
 62
7
  6
CONTINUOUS
 10
-1883.96319213295
 20
2219.65187301409
  0
VERTEX
  8
1
 62
7
  6
CONTINUOUS
 10
-1858.71914652831
 20
2172.31778488105
  0
VERTEX
  8
1
 62
7
  6
CONTINUOUS
 10
-1851.52004756501
 20
2143.52038653077
  0
VERTEX
  8
1
 62
7
  6
CONTINUOUS
 10
-1851.51722621411
 20
2099.93945687573
  0
VERTEX
  8
1
 62
7
  6
CONTINUOUS
 10
-1865.3280468856
 20
2051.60817649049
  0
VERTEX
  8
1
 62
7
  6
CONTINUOUS
 10
-1796.31386926575
 20
1976.31263090265
  0
VERTEX
  8
1
 62
7
  6
CONTINUOUS
 10
-1755.77268207248
 20
1922.25692602508
  0
VERTEX
  8
1
 62
7
  6
CONTINUOUS
 10
-1724.20573087494
 20
1855.17718429599
  0
VERTEX
  8
1
 62
7
  6
CONTINUOUS
 10
-1706.42532547043
 20
1801.83606172653
  0
VERTEX
  8
1
 62
7
  6
CONTINUOUS
 10
-1695.8188228407
 20
1719.63624819617
  0
VERTEX
  8
1
 62
7
  6
CONTINUOUS
 10
-1701.63291616567
 20
1547.53588925952
  0
VERTEX
  8
1
 62
7
  6
CONTINUOUS
 10
-1721.04838623489
 20
1504.3911131412
  0
VERTEX
  8
1
 62
7
  6
CONTINUOUS
 10
-1744.50308323494
 20
1480.93649770598
  0
VERTEX
  8
1
 62
7
  6
CONTINUOUS
 10
-1785.37037247972
 20
1406.76914899292
  0
VERTEX
  8
1
 62
7
  6
CONTINUOUS
 10
-1790.24026773332
 20
1392.15937416229
  0
VERTEX
  8
1
 62
7
  6
CONTINUOUS
 10
-1815.94415465041
 20
1343.60766761914
  0
VERTEX
  8
1
 62
7
  6
CONTINUOUS
 10
-1848.31979897812
 20
1263.52055332112
  0
VERTEX
  8
1
 62
7
  6
CONTINUOUS
 10
-1873.91999556204
 20
1184.32002293415
  0
VERTEX
  8
1
 62
7
  6
CONTINUOUS
 10
-1878.64255869421
 20
1116.6337621818
  0
VERTEX
  8
1
 62
7
  6
CONTINUOUS
 10
-1876.45552209411
 20
1080.08623298965
  0
VERTEX
  8
1
 62
7
  6
CONTINUOUS
 10
-1866.20460616043
 20
1060.84341288946
  0
VERTEX
  8
1
 62
7
  6
CONTINUOUS
 10
-1815.01696373561
 20
1045.08650404667
  0
VERTEX
  8
1
 62
7
  6
CONTINUOUS
 10
-1774.8700580093
 20
1013.85913675744
  0
VERTEX
  8
1
 62
7
  6
CONTINUOUS
 10
-1750.50077692172
 20
1005.15580406762
  0
VERTEX
  8
1
 62
7
  6
CONTINUOUS
 10
-1709.35000020755
 20
974.29060194069
  0
VERTEX
  8
1
 62
7
  6
CONTINUOUS
 10
-1686.80050594665
 20
964.270940357701
  0
VERTEX
  8
1
 62
7
  6
CONTINUOUS
 10
-1660.3180600918
 20
915.983046818764
  0
VERTEX
  8
1
 62
7
  6
CONTINUOUS
 10
-1660.32050525558
 20
893.217249025122
  0
VERTEX
  8
1
 62
7
  6
CONTINUOUS
 10
-1688.83764711185
 20
818.355148386768
  0
VERTEX
  8
1
 62
7
  6
CONTINUOUS
 10
-1683.51876968141
 20
789.11473956773
  0
VERTEX
  8
1
 62
7
  6
CONTINUOUS
 10
-1672.78912691075
 20
751.56413866854
  0
VERTEX
  8
1
 62
7
  6
CONTINUOUS
 10
-1685.7995616155
 20
671.328876093657
  0
VERTEX
  8
1
 62
7
  6
CONTINUOUS
 10
-1684.32079756983
 20
639.524295902471
  0
VERTEX
  8
1
 62
7
  6
CONTINUOUS
 10
-1679.52063810395
 20
625.121178440615
  0
VERTEX
  8
1
 62
7
  6
CONTINUOUS
 10
-1657.92579301381
 20
597.925760976676
  0
VERTEX
  8
1
 62
7
  6
CONTINUOUS
 10
-1613.91293058744
 20
563.518025920535
  0
VERTEX
  8
1
 62
7
  6
CONTINUOUS
 10
-1586.70048433622
 20
566.726517745064
  0
VERTEX
  8
1
 62
7
  6
CONTINUOUS
 10
-1546.22835147294
 20
590.033558022187
  0
VERTEX
  8
1
 62
7
  6
CONTINUOUS
 10
-1460.06225487131
 20
658.615457441126
  0
VERTEX
  8
1
 62
7
  6
CONTINUOUS
 10
-1445.11768478222
 20
683.523151971823
  0
VERTEX
  8
1
 62
7
  6
CONTINUOUS
 10
-1410.92022399261
 20
721.919746286793
  0
VERTEX
  8
1
 62
7
  6
CONTINUOUS
 10
-1374.26731578117
 20
763.808861748191
  0
VERTEX
  8
1
 62
7
  6
CONTINUOUS
 10
-1325.49188956601
 20
798.133265665793
  0
VERTEX
  8
1
 62
7
  6
CONTINUOUS
 10
-1288.18413128497
 20
816.733748920608
  0
VERTEX
  8
1
 62
7
  6
CONTINUOUS
 10
-1280.33003647736
 20
833.151826863926
  0
VERTEX
  8
1
 62
7
  6
CONTINUOUS
 10
-1273.37487273623
 20
826.212992914545
  0
VERTEX
  8
1
 62
7
  6
CONTINUOUS
 10
-1273.46012957481
 20
822.480920264027
  0
VERTEX
  8
1
 62
7
  6
CONTINUOUS
 10
-1262.85526853932
 20
823.51241737048
  0
VERTEX
  8
1
 62
7
  6
CONTINUOUS
 10
-1265.71735829187
 20
828.52869421962
  0
VERTEX
  8
1
 62
7
  6
CONTINUOUS
 10
-1261.28132709302
 20
844.182819558351
  0
VERTEX
  8
1
 62
7
  6
CONTINUOUS
 10
-1255.74980059455
 20
845.195412446124
  0
VERTEX
  8
1
 62
7
  6
CONTINUOUS
 10
-1260.85316977182
 20
870.921386186728
  0
VERTEX
  8
1
 62
7
  6
CONTINUOUS
 10
-1256.83567880188
 20
870.614668777372
  0
VERTEX
  8
1
 62
7
  6
CONTINUOUS
 10
-1245.92617205159
 20
859.528587172088
  0
VERTEX
  8
1
 62
7
  6
CONTINUOUS
 10
-1237.63221823189
 20
843.02077343163
  0
VERTEX
  8
1
 62
7
  6
CONTINUOUS
 10
-1247.74595335651
 20
824.509581082977
  0
VERTEX
  8
1
 62
7
  6
CONTINUOUS
 10
-1231.46903260933
 20
808.264734554634
  0
VERTEX
  8
1
 62
7
  6
CONTINUOUS
 10
-1214.12960515049
 20
787.064784254805
  0
VERTEX
  8
1
 62
7
  6
CONTINUOUS
 10
-1186.75160691711
 20
765.939172639046
  0
VERTEX
  8
1
 62
7
  6
CONTINUOUS
 10
-1161.78772677084
 20
754.731960027934
  0
VERTEX
  8
1
 62
7
  6
CONTINUOUS
 10
-1155.68048983087
 20
758.752342395273
  0
VERTEX
  8
1
 62
7
  6
CONTINUOUS
 10
-1145.79282732591
 20
774.636805664322
  0
VERTEX
  8
1
 62
7
  6
CONTINUOUS
 10
-1137.8653247379
 20
770.634002727875
  0
VERTEX
  8
1
 62
7
  6
CONTINUOUS
 10
-1137.94443939826
 20
750.793542744004
  0
VERTEX
  8
1
 62
7
  6
CONTINUOUS
 10
-1132.41161873172
 20
743.557935252115
  0
VERTEX
  8
1
 62
7
  6
CONTINUOUS
 10
-1057.91551086624
 20
754.720810485528
  0
VERTEX
  8
1
 62
7
  6
CONTINUOUS
 10
-1008.62792897317
 20
764.942645162271
  0
VERTEX
  8
1
 62
7
  6
CONTINUOUS
 10
-1002.20439456292
 20
773.263871801079
  0
VERTEX
  8
1
 62
7
  6
CONTINUOUS
 10
-1000.78929681063
 20
766.51754694255
  0
VERTEX
  8
1
 62
7
  6
CONTINUOUS
 10
-962.666165855841
 20
770.740754464832
  0
VERTEX
  8
1
 62
7
  6
CONTINUOUS
 10
-925.694436662197
 20
797.062398507119
  0
VERTEX
  8
1
 62
7
  6
CONTINUOUS
 10
-896.836940081689
 20
840.328822538053
  0
VERTEX
  8
1
 62
7
  6
CONTINUOUS
 10
-875.104865228203
 20
840.317363587744
  0
VERTEX
  8
1
 62
7
  6
CONTINUOUS
 10
-848.279758216173
 20
830.554679037784
  0
VERTEX
  8
1
 62
7
  6
CONTINUOUS
 10
-750.998350384478
 20
878.031893564843
  0
VERTEX
  8
1
 62
7
  6
CONTINUOUS
 10
-640.318270559692
 20
939.520520159758
  0
VERTEX
  8
1
 62
7
  6
CONTINUOUS
 10
-607.971269557071
 20
942.009306879044
  0
VERTEX
  8
1
 62
7
  6
CONTINUOUS
 10
-583.519646089453
 20
937.119810615666
  0
VERTEX
  8
1
 62
7
  6
CONTINUOUS
 10
-562.713763286322
 20
916.312826247547
  0
VERTEX
  8
1
 62
7
  6
CONTINUOUS
 10
-536.577228885038
 20
881.461609272936
  0
VERTEX
  8
1
 62
7
  6
CONTINUOUS
 10
-512.424832191264
 20
861.970940948417
  0
VERTEX
  8
1
 62
7
  6
CONTINUOUS
 10
-508.413287348328
 20
861.108620994092
  0
VERTEX
  8
1
 62
7
  6
CONTINUOUS
 10
-485.692317665977
 20
872.432584071593
  0
VERTEX
  8
1
 62
7
  6
CONTINUOUS
 10
-434.465226126838
 20
889.115214090043
  0
VERTEX
  8
1
 62
7
  6
CONTINUOUS
 10
-396.326891196625
 20
889.115750637957
  0
VERTEX
  8
1
 62
7
  6
CONTINUOUS
 10
-389.100480720541
 20
903.687048566906
  0
VERTEX
  8
1
 62
7
  6
CONTINUOUS
 10
-373.353806460299
 20
906.505964500363
  0
VERTEX
  8
1
 62
7
  6
CONTINUOUS
 10
-377.126994894922
 20
895.431441145403
  0
VERTEX
  8
1
 62
7
  6
CONTINUOUS
 10
-375.624579242312
 20
884.429213365598
  0
VERTEX
  8
1
 62
7
  6
CONTINUOUS
 10
-294.725704386125
 20
872.320490617582
  0
VERTEX
  8
1
 62
7
  6
CONTINUOUS
 10
-259.493106045928
 20
871.504829248271
  0
VERTEX
  8
1
 62
7
  6
CONTINUOUS
 10
-251.494161095292
 20
858.683568594082
  0
VERTEX
  8
1
 62
7
  6
CONTINUOUS
 10
-237.127060338048
 20
840.325324229297
  0
VERTEX
  8
1
 62
7
  6
CONTINUOUS
 10
-187.515595372243
 20
820.319059803585
  0
VERTEX
  8
1
 62
7
  6
CONTINUOUS
 10
-169.288496746793
 20
819.619139022317
  0
VERTEX
  8
1
 62
7
  6
CONTINUOUS
 10
-93.7209597918863
 20
840.226372571052
  0
VERTEX
  8
1
 62
7
  6
CONTINUOUS
 10
-83.5378254320179
 20
845.104276652845
  0
VERTEX
  8
1
 62
7
  6
CONTINUOUS
 10
-61.1294710471533
 20
880.296462677218
  0
VERTEX
  8
1
 62
7
  6
CONTINUOUS
 10
-56.0042906824777
 20
906.5795534702
  0
VERTEX
  8
1
 62
7
  6
CONTINUOUS
 10
-115.527928286531
 20
971.532559597089
  0
VERTEX
  8
1
 62
7
  6
CONTINUOUS
 10
-119.596843857623
 20
981.709327667591
  0
VERTEX
  8
1
 62
7
  6
CONTINUOUS
 10
-132.314607639022
 20
999.511444930673
  0
VERTEX
  8
1
 62
7
  6
CONTINUOUS
 10
-153.270969353214
 20
1037.13225591216
  0
VERTEX
  8
1
 62
7
  6
CONTINUOUS
 10
-150.111692289536
 20
1049.97766290698
  0
VERTEX
  8
1
 62
7
  6
CONTINUOUS
 10
-138.515203221599
 20
1046.06401387855
  0
VERTEX
  8
1
 62
7
  6
CONTINUOUS
 10
-135.482847009617
 20
1037.88109722392
  0
VERTEX
  8
1
 62
7
  6
CONTINUOUS
 10
-128.280317819742
 20
1034.68598319172
  0
VERTEX
  8
1
 62
7
  6
CONTINUOUS
 10
-117.456015296669
 20
1017.33843145857
  0
VERTEX
  8
1
 62
7
  6
CONTINUOUS
 10
-111.548001747813
 20
1009.16972583362
  0
VERTEX
  8
1
 62
7
  6
CONTINUOUS
 10
-101.313996239438
 20
985.921303434571
  0
VERTEX
  8
1
 62
7
  6
CONTINUOUS
 10
-84.2649341018882
 20
985.900516966473
  0
VERTEX
  8
1
 62
7
  6
CONTINUOUS
 10
-74.7643238331269
 20
977.938236619802
  0
VERTEX
  8
1
 62
7
  6
CONTINUOUS
 10
-31.5608008510939
 20
974.682631836284
  0
VERTEX
  8
1
 62
7
  6
CONTINUOUS
 10
-31.5627374249707
 20
2712.23285159213
  0
VERTEX
  8
1
 62
7
  6
CONTINUOUS
 10
-71.567913106325
 20
2713.11533347341
  0
VERTEX
  8
1
 62
7
  6
CONTINUOUS
 10
-90.5857488673073
 20
2709.18492741236
  0
VERTEX
  8
1
 62
7
  6
CONTINUOUS
 10
-98.7209131250345
 20
2701.91653496431
  0
VERTEX
  8
1
 62
7
  6
CONTINUOUS
 10
-95.5441329836341
 20
2692.49234847392
  0
VERTEX
  8
1
 62
7
  6
CONTINUOUS
 10
-95.5452276712379
 20
2684.70427860028
  0
VERTEX
  8
1
 62
7
  6
CONTINUOUS
 10
-100.261556880969
 20
2687.18057857229
  0
VERTEX
  8
1
 62
7
  6
CONTINUOUS
 10
-106.450550904963
 20
2699.59730231198
  0
VERTEX
  8
1
 62
7
  6
CONTINUOUS
 10
-113.581986914417
 20
2699.44920618915
  0
VERTEX
  8
1
 62
7
  6
CONTINUOUS
 10
-137.937434945569
 20
2681.0925049245
  0
VERTEX
  8
1
 62
7
  6
CONTINUOUS
 10
-140.300698095537
 20
2669.96680061044
  0
VERTEX
  8
1
 62
7
  6
CONTINUOUS
 10
-144.162293039526
 20
2663.6028726627
  0
VERTEX
  8
1
 62
7
  6
CONTINUOUS
 10
-148.316149601811
 20
2663.52256371744
  0
VERTEX
  8
1
 62
7
  6
CONTINUOUS
 10
-153.282640180819
 20
2651.54601333811
  0
VERTEX
  8
1
 62
7
  6
CONTINUOUS
 10
-166.649022912526
 20
2642.09847789813
  0
VERTEX
  8
1
 62
7
  6
CONTINUOUS
 10
-167.683021697327
 20
2650.1152101276
  0
VERTEX
  8
1
 62
7
  6
CONTINUOUS
 10
-174.778313437879
 20
2652.854108683
  0
VERTEX
  8
1
 62
7
  6
CONTINUOUS
 10
-182.651923747523
 20
2645.58368544919
  0
VERTEX
  8
1
 62
7
  6
CONTINUOUS
 10
-183.602618662161
 20
2648.54514187419
  0
VERTEX
  8
1
 62
7
  6
CONTINUOUS
 10
-192.451600651037
 20
2648.29766624994
  0
VERTEX
  8
1
 62
7
  6
CONTINUOUS
 10
-188.947211030363
 20
2666.9405318163
  0
VERTEX
  8
1
 62
7
  6
CONTINUOUS
 10
-174.965492890172
 20
2680.88276621761
  0
VERTEX
  8
1
 62
7
  6
CONTINUOUS
 10
-171.516556750124
 20
2699.53520260221
  0
VERTEX
  8
1
 62
7
  6
CONTINUOUS
 10
-162.923689144575
 20
2731.0393447345
  0
VERTEX
  8
1
 62
7
  6
CONTINUOUS
 10
-167.153744094394
 20
2770.92300643764
  0
VERTEX
  8
1
 62
7
  6
CONTINUOUS
 10
-177.11987492433
 20
2830.71848523934
  0
VERTEX
  8
1
 62
7
  6
CONTINUOUS
 10
-177.11509146133
 20
2884.50433000388
  0
VERTEX
  8
1
 62
7
  6
CONTINUOUS
 10
-185.125076981576
 20
2910.72513494446
  0
VERTEX
  8
1
 62
7
  6
CONTINUOUS
 10
-205.163101362669
 20
2917.12411172014
  0
VERTEX
  8
1
 62
7
  6
CONTINUOUS
 10
-249.123359717878
 20
2912.31926408258
  0
VERTEX
  8
1
 62
7
  6
CONTINUOUS
 10
-304.319040576034
 20
2893.92039726053
  0
VERTEX
  8
1
 62
7
  6
CONTINUOUS
 10
-421.106643955723
 20
2835.5231287662
  0
VERTEX
  8
1
 62
7
  6
CONTINUOUS
 10
-431.91246196006
 20
2835.52227423816
  0
VERTEX
  8
1
 62
7
  6
CONTINUOUS
 10
-475.355596277967
 20
2806.56194490629
  0
VERTEX
  8
1
 62
7
  6
CONTINUOUS
 10
-531.661047135836
 20
2792.48080837696
  0
VERTEX
  8
1
 62
7
  6
CONTINUOUS
 10
-549.126710512611
 20
2761.90910322371
  0
VERTEX
  8
1
 62
7
  6
CONTINUOUS
 10
-561.727122865913
 20
2743.03909153314
  0
VERTEX
  8
1
 62
7
  6
CONTINUOUS
 10
-565.181913513811
 20
2726.80703767076
  0
VERTEX
  8
1
 62
7
  6
CONTINUOUS
 10
-570.753028607417
 20
2726.75264734638
  0
VERTEX
  8
1
 62
7
  6
CONTINUOUS
 10
-570.769413943494
 20
2740.81559133481
  0
VERTEX
  8
1
 62
7
  6
CONTINUOUS
 10
-594.315289521356
 20
2758.39660993464
  0
VERTEX
  8
1
 62
7
  6
CONTINUOUS
 10
-597.57091131753
 20
2781.22765475268
  0
VERTEX
  8
1
 62
7
  6
CONTINUOUS
 10
-711.765871489074
 20
2793.06061281515
  0
VERTEX
  8
1
 62
7
  6
CONTINUOUS
 10
-722.204788362863
 20
2790.44862089243
  0
VERTEX
  8
1
 62
7
  6
CONTINUOUS
 10
-820.722790109414
 20
2804.13183520806
  0
VERTEX
  8
1
 62
7
  6
CONTINUOUS
 10
-869.174734510084
 20
2807.50249051057
  0
VERTEX
  8
1
 62
7
  6
CONTINUOUS
 10
-873.377128669968
 20
2804.13383257846
  0
VERTEX
  8
1
 62
7
  6
CONTINUOUS
 10
-1007.04173184102
 20
2775.5127089831
  0
VERTEX
  8
1
 62
7
  6
CONTINUOUS
 10
-1014.71440589537
 20
2769.12215329549
  0
VERTEX
  8
1
 62
7
  6
CONTINUOUS
 10
-1047.16664724338
 20
2767.76788574536
  0
VERTEX
  8
1
 62
7
  6
CONTINUOUS
 10
-1073.42792821623
 20
2764.97252783364
  0
VERTEX
  8
1
 62
7
  6
CONTINUOUS
 10
-1082.67616673375
 20
2768.2962301059
  0
VERTEX
  8
1
 62
7
  6
CONTINUOUS
 10
-1095.99684452466
 20
2754.83784715015
  0
VERTEX
  8
1
 62
7
  6
CONTINUOUS
 10
-1100.398725787
 20
2754.44063118544
  0
VERTEX
  8
1
 62
7
  6
CONTINUOUS
 10
-1088.53679391589
 20
2773.69866182707
  0
VERTEX
  8
1
 62
7
  6
CONTINUOUS
 10
-1200.9087076665
 20
2829.81128399192
  0
VERTEX
  8
1
 62
7
  6
CONTINUOUS
 10
-1224.32286582632
 20
2829.11893357264
  0
VERTEX
  8
1
 62
7
  6
CONTINUOUS
 10
-1249.92817477642
 20
2808.31146138884
  0
VERTEX
  8
1
 62
7
  6
CONTINUOUS
 10
-1307.78682309697
 20
2730.88017741313
  0
VERTEX
  8
1
 62
7
  6
CONTINUOUS
 10
-1332.00401478711
 20
2709.13230478422
  0
VERTEX
  8
1
 62
7
  6
CONTINUOUS
 10
-1337.04880902888
 20
2699.24855889203
  0
VERTEX
  8
1
 62
7
  6
CONTINUOUS
 10
-1331.24539079515
 20
2695.38073368685
  0
VERTEX
  8
1
 62
7
  6
CONTINUOUS
 10
-1328.27832884815
 20
2695.50869955586
  0
VERTEX
  8
1
 62
7
  6
CONTINUOUS
 10
-1317.20876274945
 20
2688.85321306285
  0
VERTEX
  8
1
 62
7
  6
CONTINUOUS
 10
-1305.10711882613
 20
2670.67827878841
  0
VERTEX
  8
1
 62
7
  6
CONTINUOUS
 10
-1305.11608070431
 20
2665.06939418201
  0
VERTEX
  8
1
 62
7
  6
CONTINUOUS
 10
-1303.52037738891
 20
2653.92416256418
  0
VERTEX
  8
1
 62
7
  6
CONTINUOUS
 10
-1302.58815727965
 20
2631.17515065049
  0
VERTEX
  8
1
 62
7
  6
CONTINUOUS
 10
-1310.21483102348
 20
2608.43828161923
  0
VERTEX
  8
1
 62
7
  6
CONTINUOUS
 10
-1315.57659660218
 20
2612.15547282796
  0
VERTEX
  8
1
 62
7
  6
CONTINUOUS
 10
-1315.99505013155
 20
2617.41019479146
  0
VERTEX
  8
1
 62
7
  6
CONTINUOUS
 10
-1313.87927289056
 20
2617.98853495943
  0
VERTEX
  8
1
 62
7
  6
CONTINUOUS
 10
-1320.36126594575
 20
2637.26207193044
  0
VERTEX
  8
1
 62
7
  6
CONTINUOUS
 10
-1324.4742851517
 20
2659.29529039964
  0
VERTEX
  8
1
 62
7
  6
CONTINUOUS
 10
-1339.35041791174
 20
2688.18205440387
  0
VERTEX
  8
1
 62
7
  6
CONTINUOUS
 10
-1346.60380022179
 20
2689.9652734095
  0
VERTEX
  8
1
 62
7
  6
CONTINUOUS
 10
-1358.73143166744
 20
2671.49848246009
  0
VERTEX
  8
1
 62
7
  6
CONTINUOUS
 10
-1368.51358493481
 20
2648.41377650547
  0
VERTEX
  8
1
 62
7
  6
CONTINUOUS
 10
-1375.79619435838
 20
2648.26560396685
  0
VERTEX
  8
1
 62
7
  6
CONTINUOUS
 10
-1372.44618218515
 20
2665.94020737184
  0
VERTEX
  8
1
 62
7
  6
CONTINUOUS
 10
-1386.84138138217
 20
2671.58123967617
  0
VERTEX
  8
1
 62
7
  6
CONTINUOUS
 10
-1406.10359517019
 20
2684.44251217089
  0
VERTEX
  8
1
 62
7
  6
CONTINUOUS
 10
-1428.95553427898
 20
2694.72141757162
  0
VERTEX
  8
1
 62
7
  6
CONTINUOUS
 10
-1457.76692987959
 20
2718.69899403882
  0
VERTEX
  8
1
 62
7
  6
CONTINUOUS
 10
-1469.95319288726
 20
2714.11335620936
  0
VERTEX
  8
1
 62
7
  6
CONTINUOUS
 10
-1498.19278337938
 20
2718.32620666277
  0
VERTEX
  8
1
 62
7
  6
CONTINUOUS
 10
-1502.60363726007
 20
2709.27351206503
  0
VERTEX
  8
1
 62
7
  6
CONTINUOUS
 10
-1508.94158407247
 20
2702.64094525979
  0
VERTEX
  8
1
 62
7
  6
CONTINUOUS
 10
-1509.32166550135
 20
2723.29640140352
  0
VERTEX
  8
1
 62
7
  6
CONTINUOUS
 10
-1518.88494865956
 20
2726.74707494497
  0
VERTEX
  8
1
 62
7
  6
CONTINUOUS
 10
-1540.29859916563
 20
2726.72561998185
  0
VERTEX
  8
1
 62
7
  6
CONTINUOUS
 10
-1546.13884329611
 20
2723.39146991626
  0
VERTEX
  8
1
 62
7
  6
CONTINUOUS
 10
-1581.11718486041
 20
2726.72033293144
  0
VERTEX
  8
1
 62
7
  6
CONTINUOUS
 10
-1608.29828977208
 20
2717.37844690823
  0
VERTEX
  8
1
 62
7
  6
CONTINUOUS
 10
-1621.69309367962
 20
2721.83950285711
  0
VERTEX
  8
1
 62
7
  6
CONTINUOUS
 10
-1642.63730738504
 20
2717.78267925607
  0
VERTEX
  8
1
 62
7
  6
CONTINUOUS
 10
-1688.47359218501
 20
2724.83580468806
  0
VERTEX
  8
1
 62
7
  6
CONTINUOUS
 10
-1835.98878448104
 20
2722.09924752315
  0
VERTEX
  8
1
 62
7
  6
CONTINUOUS
 10
-1867.45937808006
 20
2730.83530057698
  0
VERTEX
  8
1
 62
7
  6
CONTINUOUS
 10
-1889.14009852247
 20
2709.89133403484
  0
VERTEX
  8
1
 62
7
  6
CONTINUOUS
 10
-1914.71617776499
 20
2653.93133550479
  0
VERTEX
  8
1
 62
7
  6
CONTINUOUS
 10
-1917.73186668007
 20
2640.37548497837
  0
VERTEX
  8
1
 62
7
  6
CONTINUOUS
 10
-1911.0175095985
 20
2613.51389549583
  0
VERTEX
  8
1
 62
7
  6
CONTINUOUS
 10
-1883.72123566358
 20
2566.72204726919
  0
VERTEX
  8
1
 62
7
  6
CONTINUOUS
 10
-1841.9195708142
 20
2499.83850461401
  0
VERTEX
  8
1
 62
7
  6
CONTINUOUS
 10
-1841.92135023526
 20
2465.83938264461
  0
VERTEX
  8
1
 62
7
  6
CONTINUOUS
 10
-1855.51641080274
 20
2427.52875637777
  0
VERTEX
  8
1
 62
7
  6
CONTINUOUS
 10
-1865.8978715474
 20
2405.14505025074
  0
VERTEX
  8
1
 62
7
  6
CONTINUOUS
 10
-1874.65208362186
 20
2399.60948762094
  0
VERTEX
  8
1
 62
7
  6
CONTINUOUS
 10
-1877.17838815864
 20
2390.6704786934
  0
VERTEX
  8
1
 62
7
  6
CONTINUOUS
 10
-1883.42056855964
 20
2390.15963822471
  0
VERTEX
  8
1
 62
7
  6
CONTINUOUS
 10
-1961.92663911103
 20
2349.11178804881
  0
SEQEND
  0
ENDSEC
  0
EOF
