  0
SECTION
  2
HEADER
  0
ENDSEC
  0
SECTION
  2
TABLES
  0
ENDSEC
  0
SECTION
  2
BLOCKS
  0
ENDSEC
  0
SECTION
  2
ENTITIES
  0
TEXT
  1
MARK_1
  8
72
 10
-2066.72
 20
2136.32
 11
-2066.72
 21
2136.32
 62
3
 40
40
 50
90
 72
0
 73
1
  0
TEXT
  1
MARK_2
  8
72
 10
-2075.52
 20
1277.92
 11
-2075.52
 21
1277.92
 62
3
 40
40
 50
90
 72
0
 73
1
  0
POLYLINE
  8
52
 62
7
 66
1
 70
1
  0
VERTEX
  8
52
 62
7
  6
CONTINUOUS
 10
-1784.32
 20
2535.52
  0
VERTEX
  8
52
 62
7
  6
CONTINUOUS
 10
-1783.52
 20
2521.92
  0
VERTEX
  8
52
 62
7
  6
CONTINUOUS
 10
-1775.52
 20
2501.92
  0
VERTEX
  8
52
 62
7
  6
CONTINUOUS
 10
-1757.92
 20
2477.12
  0
VERTEX
  8
52
 62
7
  6
CONTINUOUS
 10
-1743.52
 20
2462.72
  0
VERTEX
  8
52
 62
7
  6
CONTINUOUS
 10
-1730.72
 20
2452.32
  0
VERTEX
  8
52
 62
7
  6
CONTINUOUS
 10
-1721.12
 20
2445.92
  0
VERTEX
  8
52
 62
7
  6
CONTINUOUS
 10
-1705.92
 20
2441.12
  0
VERTEX
  8
52
 62
7
  6
CONTINUOUS
 10
-1699.52
 20
2441.12
  0
VERTEX
  8
52
 62
7
  6
CONTINUOUS
 10
-1688.32
 20
2445.12
  0
VERTEX
  8
52
 62
7
  6
CONTINUOUS
 10
-1659.52
 20
2466.72
  0
VERTEX
  8
52
 62
7
  6
CONTINUOUS
 10
-1646.72
 20
2473.12
  0
VERTEX
  8
52
 62
7
  6
CONTINUOUS
 10
-1637.12
 20
2476.32
  0
VERTEX
  8
52
 62
7
  6
CONTINUOUS
 10
-1629.92
 20
2477.92
  0
VERTEX
  8
52
 62
7
  6
CONTINUOUS
 10
-1611.52
 20
2477.92
  0
VERTEX
  8
52
 62
7
  6
CONTINUOUS
 10
-1601.92
 20
2476.32
  0
VERTEX
  8
52
 62
7
  6
CONTINUOUS
 10
-1599.52
 20
2474.72
  0
VERTEX
  8
52
 62
7
  6
CONTINUOUS
 10
-1573.92
 20
2470.72
  0
VERTEX
  8
52
 62
7
  6
CONTINUOUS
 10
-1561.12
 20
2473.12
  0
VERTEX
  8
52
 62
7
  6
CONTINUOUS
 10
-1556.32
 20
2475.52
  0
VERTEX
  8
52
 62
7
  6
CONTINUOUS
 10
-1551.52
 20
2480.32
  0
VERTEX
  8
52
 62
7
  6
CONTINUOUS
 10
-1549.12
 20
2488.32
  0
VERTEX
  8
52
 62
7
  6
CONTINUOUS
 10
-1549.12
 20
2493.12
  0
VERTEX
  8
52
 62
7
  6
CONTINUOUS
 10
-1552.32
 20
2503.52
  0
VERTEX
  8
52
 62
7
  6
CONTINUOUS
 10
-1561.92
 20
2515.52
  0
VERTEX
  8
52
 62
7
  6
CONTINUOUS
 10
-1577.12
 20
2526.72
  0
VERTEX
  8
52
 62
7
  6
CONTINUOUS
 10
-1593.92
 20
2535.52
  0
VERTEX
  8
52
 62
7
  6
CONTINUOUS
 10
-1612.32
 20
2541.12
  0
VERTEX
  8
52
 62
7
  6
CONTINUOUS
 10
-1624.32
 20
2543.52
  0
VERTEX
  8
52
 62
7
  6
CONTINUOUS
 10
-1647.52
 20
2543.52
  0
VERTEX
  8
52
 62
7
  6
CONTINUOUS
 10
-1668.32
 20
2545.92
  0
VERTEX
  8
52
 62
7
  6
CONTINUOUS
 10
-1670.72
 20
2549.12
  0
VERTEX
  8
52
 62
7
  6
CONTINUOUS
 10
-1675.52
 20
2550.72
  0
VERTEX
  8
52
 62
7
  6
CONTINUOUS
 10
-1696.32
 20
2554.72
  0
VERTEX
  8
52
 62
7
  6
CONTINUOUS
 10
-1766.72
 20
2554.72
  0
VERTEX
  8
52
 62
7
  6
CONTINUOUS
 10
-1777.12
 20
2549.92
  0
VERTEX
  8
52
 62
7
  6
CONTINUOUS
 10
-1781.92
 20
2544.32
  0
SEQEND
  0
POLYLINE
  8
52
 62
7
 66
1
 70
1
  0
VERTEX
  8
52
 62
7
  6
CONTINUOUS
 10
-769.734213562373
 20
2204.93421356237
  0
VERTEX
  8
52
 62
7
  6
CONTINUOUS
 10
-766.905786437627
 20
2202.10578643763
  0
VERTEX
  8
52
 62
7
  6
CONTINUOUS
 10
-755.705786437627
 20
2213.30578643763
  0
VERTEX
  8
52
 62
7
  6
CONTINUOUS
 10
-758.534213562373
 20
2216.13421356237
  0
SEQEND
  0
POLYLINE
  8
52
 62
7
 66
1
 70
1
  0
VERTEX
  8
52
 62
7
  6
CONTINUOUS
 10
-808.087882257763
 20
2168.97907440828
  0
VERTEX
  8
52
 62
7
  6
CONTINUOUS
 10
-805.352117742237
 20
2166.06092559172
  0
VERTEX
  8
52
 62
7
  6
CONTINUOUS
 10
-792.552117742237
 20
2178.06092559172
  0
VERTEX
  8
52
 62
7
  6
CONTINUOUS
 10
-795.287882257763
 20
2180.97907440828
  0
SEQEND
  0
POLYLINE
  8
52
 62
7
 66
1
 70
1
  0
VERTEX
  8
52
 62
7
  6
CONTINUOUS
 10
-1020.32
 20
1342.72
  0
VERTEX
  8
52
 62
7
  6
CONTINUOUS
 10
-1020.32
 20
1320.32
  0
VERTEX
  8
52
 62
7
  6
CONTINUOUS
 10
-1017.12
 20
1309.92
  0
VERTEX
  8
52
 62
7
  6
CONTINUOUS
 10
-1012.32
 20
1304.32
  0
VERTEX
  8
52
 62
7
  6
CONTINUOUS
 10
-1005.92
 20
1301.12
  0
VERTEX
  8
52
 62
7
  6
CONTINUOUS
 10
-997.12
 20
1301.92
  0
VERTEX
  8
52
 62
7
  6
CONTINUOUS
 10
-993.12
 20
1305.12
  0
VERTEX
  8
52
 62
7
  6
CONTINUOUS
 10
-989.92
 20
1309.92
  0
VERTEX
  8
52
 62
7
  6
CONTINUOUS
 10
-980.32
 20
1345.12
  0
VERTEX
  8
52
 62
7
  6
CONTINUOUS
 10
-978.72
 20
1355.52
  0
VERTEX
  8
52
 62
7
  6
CONTINUOUS
 10
-973.92
 20
1366.72
  0
VERTEX
  8
52
 62
7
  6
CONTINUOUS
 10
-968.32
 20
1374.72
  0
VERTEX
  8
52
 62
7
  6
CONTINUOUS
 10
-956.32
 20
1384.32
  0
VERTEX
  8
52
 62
7
  6
CONTINUOUS
 10
-940.32
 20
1391.52
  0
VERTEX
  8
52
 62
7
  6
CONTINUOUS
 10
-935.52
 20
1391.52
  0
VERTEX
  8
52
 62
7
  6
CONTINUOUS
 10
-933.12
 20
1393.92
  0
VERTEX
  8
52
 62
7
  6
CONTINUOUS
 10
-929.92
 20
1394.72
  0
VERTEX
  8
52
 62
7
  6
CONTINUOUS
 10
-917.92
 20
1397.12
  0
VERTEX
  8
52
 62
7
  6
CONTINUOUS
 10
-910.72
 20
1398.72
  0
VERTEX
  8
52
 62
7
  6
CONTINUOUS
 10
-895.52
 20
1398.72
  0
VERTEX
  8
52
 62
7
  6
CONTINUOUS
 10
-869.92
 20
1393.12
  0
VERTEX
  8
52
 62
7
  6
CONTINUOUS
 10
-859.52
 20
1389.12
  0
VERTEX
  8
52
 62
7
  6
CONTINUOUS
 10
-845.92
 20
1386.72
  0
VERTEX
  8
52
 62
7
  6
CONTINUOUS
 10
-838.72
 20
1386.72
  0
VERTEX
  8
52
 62
7
  6
CONTINUOUS
 10
-833.92
 20
1393.92
  0
VERTEX
  8
52
 62
7
  6
CONTINUOUS
 10
-831.52
 20
1401.12
  0
VERTEX
  8
52
 62
7
  6
CONTINUOUS
 10
-830.72
 20
1412.32
  0
VERTEX
  8
52
 62
7
  6
CONTINUOUS
 10
-833.12
 20
1421.92
  0
VERTEX
  8
52
 62
7
  6
CONTINUOUS
 10
-837.12
 20
1429.92
  0
VERTEX
  8
52
 62
7
  6
CONTINUOUS
 10
-849.12
 20
1442.72
  0
VERTEX
  8
52
 62
7
  6
CONTINUOUS
 10
-856.32
 20
1447.52
  0
VERTEX
  8
52
 62
7
  6
CONTINUOUS
 10
-872.32
 20
1453.12
  0
VERTEX
  8
52
 62
7
  6
CONTINUOUS
 10
-895.52
 20
1453.12
  0
VERTEX
  8
52
 62
7
  6
CONTINUOUS
 10
-904.32
 20
1451.52
  0
VERTEX
  8
52
 62
7
  6
CONTINUOUS
 10
-909.12
 20
1449.12
  0
VERTEX
  8
52
 62
7
  6
CONTINUOUS
 10
-913.12
 20
1449.12
  0
VERTEX
  8
52
 62
7
  6
CONTINUOUS
 10
-915.52
 20
1446.72
  0
VERTEX
  8
52
 62
7
  6
CONTINUOUS
 10
-920.32
 20
1446.72
  0
VERTEX
  8
52
 62
7
  6
CONTINUOUS
 10
-930.72
 20
1442.72
  0
VERTEX
  8
52
 62
7
  6
CONTINUOUS
 10
-961.12
 20
1425.92
  0
VERTEX
  8
52
 62
7
  6
CONTINUOUS
 10
-990.72
 20
1406.72
  0
VERTEX
  8
52
 62
7
  6
CONTINUOUS
 10
-1002.72
 20
1393.92
  0
VERTEX
  8
52
 62
7
  6
CONTINUOUS
 10
-1012.32
 20
1375.52
  0
VERTEX
  8
52
 62
7
  6
CONTINUOUS
 10
-1018.72
 20
1354.72
  0
SEQEND
  0
POLYLINE
  8
52
 62
7
 66
1
 70
1
  0
VERTEX
  8
52
 62
7
  6
CONTINUOUS
 10
-2503.86028500029
 20
2080.80507125007
  0
VERTEX
  8
52
 62
7
  6
CONTINUOUS
 10
-2499.97971499971
 20
2079.83492874993
  0
VERTEX
  8
52
 62
7
  6
CONTINUOUS
 10
-2498.51407195784
 20
2085.69750091742
  0
VERTEX
  8
52
 62
7
  6
CONTINUOUS
 10
-2496.50578643763
 20
2087.70578643763
  0
VERTEX
  8
52
 62
7
  6
CONTINUOUS
 10
-2499.33421356237
 20
2090.53421356237
  0
VERTEX
  8
52
 62
7
  6
CONTINUOUS
 10
-2502.12592804216
 20
2087.74249908258
  0
SEQEND
  0
POLYLINE
  8
52
 62
7
 66
1
 70
1
  0
VERTEX
  8
52
 62
7
  6
CONTINUOUS
 10
-1197.92
 20
2518.72
  0
VERTEX
  8
52
 62
7
  6
CONTINUOUS
 10
-1197.12
 20
2500.32
  0
VERTEX
  8
52
 62
7
  6
CONTINUOUS
 10
-1185.12
 20
2455.52
  0
VERTEX
  8
52
 62
7
  6
CONTINUOUS
 10
-1185.12
 20
2451.52
  0
VERTEX
  8
52
 62
7
  6
CONTINUOUS
 10
-1182.72
 20
2449.12
  0
VERTEX
  8
52
 62
7
  6
CONTINUOUS
 10
-1182.72
 20
2444.32
  0
VERTEX
  8
52
 62
7
  6
CONTINUOUS
 10
-1175.52
 20
2421.92
  0
VERTEX
  8
52
 62
7
  6
CONTINUOUS
 10
-1165.92
 20
2399.52
  0
VERTEX
  8
52
 62
7
  6
CONTINUOUS
 10
-1155.52
 20
2384.32
  0
VERTEX
  8
52
 62
7
  6
CONTINUOUS
 10
-1145.92
 20
2376.32
  0
VERTEX
  8
52
 62
7
  6
CONTINUOUS
 10
-1137.92
 20
2375.52
  0
VERTEX
  8
52
 62
7
  6
CONTINUOUS
 10
-1133.92
 20
2378.72
  0
VERTEX
  8
52
 62
7
  6
CONTINUOUS
 10
-1133.12
 20
2381.12
  0
VERTEX
  8
52
 62
7
  6
CONTINUOUS
 10
-1133.12
 20
2386.72
  0
VERTEX
  8
52
 62
7
  6
CONTINUOUS
 10
-1136.32
 20
2401.12
  0
VERTEX
  8
52
 62
7
  6
CONTINUOUS
 10
-1142.72
 20
2419.52
  0
VERTEX
  8
52
 62
7
  6
CONTINUOUS
 10
-1153.12
 20
2441.12
  0
VERTEX
  8
52
 62
7
  6
CONTINUOUS
 10
-1161.12
 20
2462.72
  0
VERTEX
  8
52
 62
7
  6
CONTINUOUS
 10
-1168.32
 20
2477.12
  0
VERTEX
  8
52
 62
7
  6
CONTINUOUS
 10
-1169.92
 20
2483.52
  0
VERTEX
  8
52
 62
7
  6
CONTINUOUS
 10
-1173.12
 20
2495.52
  0
VERTEX
  8
52
 62
7
  6
CONTINUOUS
 10
-1174.72
 20
2506.72
  0
VERTEX
  8
52
 62
7
  6
CONTINUOUS
 10
-1180.32
 20
2517.92
  0
VERTEX
  8
52
 62
7
  6
CONTINUOUS
 10
-1187.52
 20
2525.12
  0
VERTEX
  8
52
 62
7
  6
CONTINUOUS
 10
-1193.92
 20
2525.92
  0
VERTEX
  8
52
 62
7
  6
CONTINUOUS
 10
-1196.32
 20
2523.52
  0
SEQEND
  0
POLYLINE
  8
52
 62
7
 66
1
 70
1
  0
VERTEX
  8
52
 62
7
  6
CONTINUOUS
 10
-2497.44879797461
 20
2124.74721215234
  0
VERTEX
  8
52
 62
7
  6
CONTINUOUS
 10
-2493.34554205349
 20
2124.06333616548
  0
VERTEX
  8
52
 62
7
  6
CONTINUOUS
 10
-2487.41481863737
 20
2117.39127232234
  0
VERTEX
  8
52
 62
7
  6
CONTINUOUS
 10
-2484.42518136263
 20
2120.04872767766
  0
VERTEX
  8
52
 62
7
  6
CONTINUOUS
 10
-2491.29445794651
 20
2127.77666383452
  0
VERTEX
  8
52
 62
7
  6
CONTINUOUS
 10
-2496.79120202539
 20
2128.69278784766
  0
SEQEND
  0
POLYLINE
  8
52
 62
7
 66
1
 70
1
  0
VERTEX
  8
52
 62
7
  6
CONTINUOUS
 10
-1252.32
 20
2548.32
  0
VERTEX
  8
52
 62
7
  6
CONTINUOUS
 10
-1251.52
 20
2526.72
  0
VERTEX
  8
52
 62
7
  6
CONTINUOUS
 10
-1245.92
 20
2509.92
  0
VERTEX
  8
52
 62
7
  6
CONTINUOUS
 10
-1237.92
 20
2496.32
  0
VERTEX
  8
52
 62
7
  6
CONTINUOUS
 10
-1230.72
 20
2489.12
  0
VERTEX
  8
52
 62
7
  6
CONTINUOUS
 10
-1224.32
 20
2485.12
  0
VERTEX
  8
52
 62
7
  6
CONTINUOUS
 10
-1219.52
 20
2485.92
  0
VERTEX
  8
52
 62
7
  6
CONTINUOUS
 10
-1216.32
 20
2488.32
  0
VERTEX
  8
52
 62
7
  6
CONTINUOUS
 10
-1212.32
 20
2496.32
  0
VERTEX
  8
52
 62
7
  6
CONTINUOUS
 10
-1207.52
 20
2521.12
  0
VERTEX
  8
52
 62
7
  6
CONTINUOUS
 10
-1201.92
 20
2532.32
  0
VERTEX
  8
52
 62
7
  6
CONTINUOUS
 10
-1196.32
 20
2537.12
  0
VERTEX
  8
52
 62
7
  6
CONTINUOUS
 10
-1189.12
 20
2537.12
  0
VERTEX
  8
52
 62
7
  6
CONTINUOUS
 10
-1184.32
 20
2535.52
  0
VERTEX
  8
52
 62
7
  6
CONTINUOUS
 10
-1173.12
 20
2536.32
  0
VERTEX
  8
52
 62
7
  6
CONTINUOUS
 10
-1168.32
 20
2542.72
  0
VERTEX
  8
52
 62
7
  6
CONTINUOUS
 10
-1166.72
 20
2549.92
  0
VERTEX
  8
52
 62
7
  6
CONTINUOUS
 10
-1158.72
 20
2558.72
  0
VERTEX
  8
52
 62
7
  6
CONTINUOUS
 10
-1156.32
 20
2565.92
  0
VERTEX
  8
52
 62
7
  6
CONTINUOUS
 10
-1157.12
 20
2584.32
  0
VERTEX
  8
52
 62
7
  6
CONTINUOUS
 10
-1153.12
 20
2598.72
  0
VERTEX
  8
52
 62
7
  6
CONTINUOUS
 10
-1153.12
 20
2605.12
  0
VERTEX
  8
52
 62
7
  6
CONTINUOUS
 10
-1157.12
 20
2614.72
  0
VERTEX
  8
52
 62
7
  6
CONTINUOUS
 10
-1157.12
 20
2625.12
  0
VERTEX
  8
52
 62
7
  6
CONTINUOUS
 10
-1155.52
 20
2631.52
  0
VERTEX
  8
52
 62
7
  6
CONTINUOUS
 10
-1156.32
 20
2639.52
  0
VERTEX
  8
52
 62
7
  6
CONTINUOUS
 10
-1159.52
 20
2645.92
  0
VERTEX
  8
52
 62
7
  6
CONTINUOUS
 10
-1162.72
 20
2649.12
  0
VERTEX
  8
52
 62
7
  6
CONTINUOUS
 10
-1168.32
 20
2651.52
  0
VERTEX
  8
52
 62
7
  6
CONTINUOUS
 10
-1179.52
 20
2652.32
  0
VERTEX
  8
52
 62
7
  6
CONTINUOUS
 10
-1192.32
 20
2649.12
  0
VERTEX
  8
52
 62
7
  6
CONTINUOUS
 10
-1197.12
 20
2646.72
  0
VERTEX
  8
52
 62
7
  6
CONTINUOUS
 10
-1202.72
 20
2641.12
  0
VERTEX
  8
52
 62
7
  6
CONTINUOUS
 10
-1205.92
 20
2635.52
  0
VERTEX
  8
52
 62
7
  6
CONTINUOUS
 10
-1210.72
 20
2616.32
  0
VERTEX
  8
52
 62
7
  6
CONTINUOUS
 10
-1213.12
 20
2612.32
  0
VERTEX
  8
52
 62
7
  6
CONTINUOUS
 10
-1211.52
 20
2609.12
  0
VERTEX
  8
52
 62
7
  6
CONTINUOUS
 10
-1216.32
 20
2596.32
  0
VERTEX
  8
52
 62
7
  6
CONTINUOUS
 10
-1224.32
 20
2587.52
  0
VERTEX
  8
52
 62
7
  6
CONTINUOUS
 10
-1237.92
 20
2577.12
  0
VERTEX
  8
52
 62
7
  6
CONTINUOUS
 10
-1247.52
 20
2564.32
  0
VERTEX
  8
52
 62
7
  6
CONTINUOUS
 10
-1250.72
 20
2557.12
  0
SEQEND
  0
POLYLINE
  8
52
 62
7
 66
1
 70
1
  0
VERTEX
  8
52
 62
7
  6
CONTINUOUS
 10
-1273.08173761889
 20
957.569390095109
  0
VERTEX
  8
52
 62
7
  6
CONTINUOUS
 10
-1269.95826238111
 20
955.070609904891
  0
VERTEX
  8
52
 62
7
  6
CONTINUOUS
 10
-1263.71687576257
 20
962.872343178075
  0
VERTEX
  8
52
 62
7
  6
CONTINUOUS
 10
-1257.6941821376
 20
967.389363396803
  0
VERTEX
  8
52
 62
7
  6
CONTINUOUS
 10
-1240.2923941114
 20
975.299267045075
  0
VERTEX
  8
52
 62
7
  6
CONTINUOUS
 10
-1241.9476058886
 20
978.940732954925
  0
VERTEX
  8
52
 62
7
  6
CONTINUOUS
 10
-1259.7458178624
 20
970.850636603198
  0
VERTEX
  8
52
 62
7
  6
CONTINUOUS
 10
-1266.52312423743
 20
965.767656821926
  0
SEQEND
  0
POLYLINE
  8
52
 62
7
 66
1
 70
1
  0
VERTEX
  8
52
 62
7
  6
CONTINUOUS
 10
-1319.10455575343
 20
1652.87193053082
  0
VERTEX
  8
52
 62
7
  6
CONTINUOUS
 10
-1318.27732461494
 20
1646.25408142289
  0
VERTEX
  8
52
 62
7
  6
CONTINUOUS
 10
-1314.20348382319
 20
1634.847327206
  0
VERTEX
  8
52
 62
7
  6
CONTINUOUS
 10
-1310.43651617681
 20
1636.192672794
  0
VERTEX
  8
52
 62
7
  6
CONTINUOUS
 10
-1314.36267538506
 20
1647.18591857711
  0
VERTEX
  8
52
 62
7
  6
CONTINUOUS
 10
-1315.13544424657
 20
1653.36806946918
  0
SEQEND
  0
POLYLINE
  8
52
 62
7
 66
1
 70
1
  0
VERTEX
  8
52
 62
7
  6
CONTINUOUS
 10
-1431.708854382
 20
1682.625572809
  0
VERTEX
  8
52
 62
7
  6
CONTINUOUS
 10
-1428.63281329484
 20
1676.47349063467
  0
VERTEX
  8
52
 62
7
  6
CONTINUOUS
 10
-1425.48467713285
 20
1659.94577578422
  0
VERTEX
  8
52
 62
7
  6
CONTINUOUS
 10
-1421.55532286715
 20
1660.69422421578
  0
VERTEX
  8
52
 62
7
  6
CONTINUOUS
 10
-1424.80718670516
 20
1677.76650936533
  0
VERTEX
  8
52
 62
7
  6
CONTINUOUS
 10
-1428.131145618
 20
1684.414427191
  0
SEQEND
  0
POLYLINE
  8
52
 62
7
 66
1
 70
1
  0
VERTEX
  8
52
 62
7
  6
CONTINUOUS
 10
-2445.4173665961
 20
2016.48754446797
  0
VERTEX
  8
52
 62
7
  6
CONTINUOUS
 10
-2442.32
 20
2007.19544467966
  0
VERTEX
  8
52
 62
7
  6
CONTINUOUS
 10
-2442.32
 20
1994.72
  0
VERTEX
  8
52
 62
7
  6
CONTINUOUS
 10
-2438.32
 20
1994.72
  0
VERTEX
  8
52
 62
7
  6
CONTINUOUS
 10
-2438.32
 20
2007.84455532034
  0
VERTEX
  8
52
 62
7
  6
CONTINUOUS
 10
-2441.6226334039
 20
2017.75245553203
  0
SEQEND
  0
POLYLINE
  8
52
 62
7
 66
1
 70
1
  0
VERTEX
  8
52
 62
7
  6
CONTINUOUS
 10
-2439.91453550891
 20
1973.77225662897
  0
VERTEX
  8
52
 62
7
  6
CONTINUOUS
 10
-2438.31453550891
 20
1952.17225662897
  0
VERTEX
  8
52
 62
7
  6
CONTINUOUS
 10
-2434.32546449109
 20
1952.46774337103
  0
VERTEX
  8
52
 62
7
  6
CONTINUOUS
 10
-2435.92546449109
 20
1974.06774337103
  0
SEQEND
  0
POLYLINE
  8
52
 62
7
 66
1
 70
1
  0
VERTEX
  8
52
 62
7
  6
CONTINUOUS
 10
-1495.89989898732
 20
1729.63715728753
  0
VERTEX
  8
52
 62
7
  6
CONTINUOUS
 10
-1494.2659935148
 20
1718.19981897986
  0
VERTEX
  8
52
 62
7
  6
CONTINUOUS
 10
-1486.17695338177
 20
1697.97721864729
  0
VERTEX
  8
52
 62
7
  6
CONTINUOUS
 10
-1482.46304661823
 20
1699.46278135271
  0
VERTEX
  8
52
 62
7
  6
CONTINUOUS
 10
-1490.3740064852
 20
1719.24018102014
  0
VERTEX
  8
52
 62
7
  6
CONTINUOUS
 10
-1491.94010101268
 20
1730.20284271247
  0
SEQEND
  0
POLYLINE
  8
52
 62
7
 66
1
 70
1
  0
VERTEX
  8
52
 62
7
  6
CONTINUOUS
 10
-2304.76420341832
 20
2169.72122031304
  0
VERTEX
  8
52
 62
7
  6
CONTINUOUS
 10
-2304.46457773976
 20
2168.83615061502
  0
VERTEX
  8
52
 62
7
  6
CONTINUOUS
 10
-2302.53421356237
 20
2166.90578643763
  0
VERTEX
  8
52
 62
7
  6
CONTINUOUS
 10
-2299.70578643763
 20
2169.73421356237
  0
VERTEX
  8
52
 62
7
  6
CONTINUOUS
 10
-2300.60692081469
 20
2170.63534793943
  0
VERTEX
  8
52
 62
7
  6
CONTINUOUS
 10
-2299.13754419863
 20
2181.65567255982
  0
VERTEX
  8
52
 62
7
  6
CONTINUOUS
 10
-2303.10245580137
 20
2182.18432744018
  0
SEQEND
  0
POLYLINE
  8
52
 62
7
 66
1
 70
1
  0
VERTEX
  8
52
 62
7
  6
CONTINUOUS
 10
-1552.55829006004
 20
2707.50783859716
  0
VERTEX
  8
52
 62
7
  6
CONTINUOUS
 10
-1548.88170993996
 20
2705.93216140284
  0
VERTEX
  8
52
 62
7
  6
CONTINUOUS
 10
-1544.08170993996
 20
2717.13216140284
  0
VERTEX
  8
52
 62
7
  6
CONTINUOUS
 10
-1547.75829006004
 20
2718.70783859716
  0
SEQEND
  0
POLYLINE
  8
52
 62
7
 66
1
 70
1
  0
VERTEX
  8
52
 62
7
  6
CONTINUOUS
 10
-1628.59375098439
 20
884.407322975464
  0
VERTEX
  8
52
 62
7
  6
CONTINUOUS
 10
-1626.44624901561
 20
881.032677024536
  0
VERTEX
  8
52
 62
7
  6
CONTINUOUS
 10
-1618.1375986256
 20
886.32
  0
VERTEX
  8
52
 62
7
  6
CONTINUOUS
 10
-1609.40010988928
 20
886.32
  0
VERTEX
  8
52
 62
7
  6
CONTINUOUS
 10
-1604.06944225579
 20
884.796952104718
  0
VERTEX
  8
52
 62
7
  6
CONTINUOUS
 10
-1602.97055774421
 20
888.643047895282
  0
VERTEX
  8
52
 62
7
  6
CONTINUOUS
 10
-1608.83989011072
 20
890.32
  0
VERTEX
  8
52
 62
7
  6
CONTINUOUS
 10
-1619.3024013744
 20
890.32
  0
SEQEND
  0
POLYLINE
  8
52
 62
7
 66
1
 70
1
  0
VERTEX
  8
52
 62
7
  6
CONTINUOUS
 10
-1611.84
 20
2276.56
  0
VERTEX
  8
52
 62
7
  6
CONTINUOUS
 10
-1606.24
 20
2257.36
  0
VERTEX
  8
52
 62
7
  6
CONTINUOUS
 10
-1602.4
 20
2258.48
  0
VERTEX
  8
52
 62
7
  6
CONTINUOUS
 10
-1608
 20
2277.68
  0
SEQEND
  0
POLYLINE
  8
52
 62
7
 66
1
 70
1
  0
VERTEX
  8
52
 62
7
  6
CONTINUOUS
 10
-1685.88173761889
 20
2339.16939009511
  0
VERTEX
  8
52
 62
7
  6
CONTINUOUS
 10
-1682.75826238111
 20
2336.67060990489
  0
VERTEX
  8
52
 62
7
  6
CONTINUOUS
 10
-1669.8532910224
 20
2352.80182410328
  0
VERTEX
  8
52
 62
7
  6
CONTINUOUS
 10
-1665.77168544776
 20
2360.14871413764
  0
VERTEX
  8
52
 62
7
  6
CONTINUOUS
 10
-1669.26831455224
 20
2362.09128586236
  0
VERTEX
  8
52
 62
7
  6
CONTINUOUS
 10
-1673.1867089776
 20
2355.03817589672
  0
SEQEND
  0
POLYLINE
  8
52
 62
7
 66
1
 70
1
  0
VERTEX
  8
52
 62
7
  6
CONTINUOUS
 10
-2043.35245553203
 20
738.217366596101
  0
VERTEX
  8
52
 62
7
  6
CONTINUOUS
 10
-2042.08754446797
 20
734.422633403899
  0
VERTEX
  8
52
 62
7
  6
CONTINUOUS
 10
-2032.79544467966
 20
737.52
  0
VERTEX
  8
52
 62
7
  6
CONTINUOUS
 10
-2028.34842712475
 20
737.52
  0
VERTEX
  8
52
 62
7
  6
CONTINUOUS
 10
-2027.12
 20
736.291572875254
  0
VERTEX
  8
52
 62
7
  6
CONTINUOUS
 10
-2027.12
 20
734.392135954999
  0
VERTEX
  8
52
 62
7
  6
CONTINUOUS
 10
-2030.108854382
 20
728.414427191
  0
VERTEX
  8
52
 62
7
  6
CONTINUOUS
 10
-2026.531145618
 20
726.625572809
  0
VERTEX
  8
52
 62
7
  6
CONTINUOUS
 10
-2023.12
 20
733.447864045001
  0
VERTEX
  8
52
 62
7
  6
CONTINUOUS
 10
-2023.12
 20
737.948427124746
  0
VERTEX
  8
52
 62
7
  6
CONTINUOUS
 10
-2026.69157287525
 20
741.52
  0
VERTEX
  8
52
 62
7
  6
CONTINUOUS
 10
-2033.44455532034
 20
741.52
  0
SEQEND
  0
POLYLINE
  8
52
 62
7
 66
1
 70
1
  0
VERTEX
  8
52
 62
7
  6
CONTINUOUS
 10
-570.558802921235
 20
1297.7091890274
  0
VERTEX
  8
52
 62
7
  6
CONTINUOUS
 10
-567.681197078765
 20
1294.9308109726
  0
VERTEX
  8
52
 62
7
  6
CONTINUOUS
 10
-545.281197078765
 20
1318.1308109726
  0
VERTEX
  8
52
 62
7
  6
CONTINUOUS
 10
-548.158802921235
 20
1320.9091890274
  0
SEQEND
  0
POLYLINE
  8
52
 62
7
 66
1
 70
1
  0
VERTEX
  8
52
 62
7
  6
CONTINUOUS
 10
-558.603071558248
 20
1362.46182664794
  0
VERTEX
  8
52
 62
7
  6
CONTINUOUS
 10
-555.636928441753
 20
1359.77817335206
  0
VERTEX
  8
52
 62
7
  6
CONTINUOUS
 10
-540.155351609658
 20
1376.8893898507
  0
VERTEX
  8
52
 62
7
  6
CONTINUOUS
 10
-539.222633403899
 20
1379.68754446797
  0
VERTEX
  8
52
 62
7
  6
CONTINUOUS
 10
-543.017366596101
 20
1380.95245553203
  0
VERTEX
  8
52
 62
7
  6
CONTINUOUS
 10
-543.684648390344
 20
1378.95061014931
  0
SEQEND
  0
POLYLINE
  8
52
 62
7
 66
1
 70
1
  0
VERTEX
  8
52
 62
7
  6
CONTINUOUS
 10
-714.908854382
 20
2318.625572809
  0
VERTEX
  8
52
 62
7
  6
CONTINUOUS
 10
-713.901845626351
 20
2316.6115552977
  0
VERTEX
  8
52
 62
7
  6
CONTINUOUS
 10
-713.166128993299
 20
2316.04961799322
  0
VERTEX
  8
52
 62
7
  6
CONTINUOUS
 10
-709.850338398179
 20
2315.3864598742
  0
VERTEX
  8
52
 62
7
  6
CONTINUOUS
 10
-709.417366596101
 20
2314.08754446797
  0
VERTEX
  8
52
 62
7
  6
CONTINUOUS
 10
-705.622633403899
 20
2315.35245553203
  0
VERTEX
  8
52
 62
7
  6
CONTINUOUS
 10
-706.592854152885
 20
2318.26311777899
  0
VERTEX
  8
52
 62
7
  6
CONTINUOUS
 10
-707.399935594172
 20
2318.97559492427
  0
VERTEX
  8
52
 62
7
  6
CONTINUOUS
 10
-710.968595472465
 20
2319.68932689993
  0
VERTEX
  8
52
 62
7
  6
CONTINUOUS
 10
-711.331145618
 20
2320.414427191
  0
SEQEND
  0
POLYLINE
  8
52
 62
7
 66
1
 70
1
  0
VERTEX
  8
52
 62
7
  6
CONTINUOUS
 10
-437.42940039245
 20
2229.85589941132
  0
VERTEX
  8
52
 62
7
  6
CONTINUOUS
 10
-432.62940039245
 20
2226.65589941132
  0
VERTEX
  8
52
 62
7
  6
CONTINUOUS
 10
-430.41059960755
 20
2229.98410058868
  0
VERTEX
  8
52
 62
7
  6
CONTINUOUS
 10
-435.21059960755
 20
2233.18410058868
  0
SEQEND
  0
POLYLINE
  8
52
 62
7
 66
1
 70
1
  0
VERTEX
  8
52
 62
7
  6
CONTINUOUS
 10
-2035.19415054194
 20
1390.56718216784
  0
VERTEX
  8
52
 62
7
  6
CONTINUOUS
 10
-2035.19415054194
 20
1386.56718216784
  0
VERTEX
  8
52
 62
7
  6
CONTINUOUS
 10
-2025.88310281668
 20
1386.56718216784
  0
VERTEX
  8
52
 62
7
  6
CONTINUOUS
 10
-1993.31352034797
 20
1406.30632305797
  0
VERTEX
  8
52
 62
7
  6
CONTINUOUS
 10
-1995.38672721234
 20
1409.72711438419
  0
VERTEX
  8
52
 62
7
  6
CONTINUOUS
 10
-2027.0006153693
 20
1390.56718216784
  0
SEQEND
  0
POLYLINE
  8
52
 62
7
 66
1
 70
1
  0
VERTEX
  8
52
 62
7
  6
CONTINUOUS
 10
-149.52
 20
2078.72
  0
VERTEX
  8
52
 62
7
  6
CONTINUOUS
 10
-149.52
 20
2074.10664311688
  0
VERTEX
  8
52
 62
7
  6
CONTINUOUS
 10
-148.832268921877
 20
2073.0908416459
  0
VERTEX
  8
52
 62
7
  6
CONTINUOUS
 10
-143.905164807135
 20
2071.12
  0
VERTEX
  8
52
 62
7
  6
CONTINUOUS
 10
-136.32
 20
2071.12
  0
VERTEX
  8
52
 62
7
  6
CONTINUOUS
 10
-136.32
 20
2075.12
  0
VERTEX
  8
52
 62
7
  6
CONTINUOUS
 10
-143.134835192866
 20
2075.12
  0
VERTEX
  8
52
 62
7
  6
CONTINUOUS
 10
-145.52
 20
2076.07406592285
  0
VERTEX
  8
52
 62
7
  6
CONTINUOUS
 10
-145.52
 20
2077.89157287525
  0
VERTEX
  8
52
 62
7
  6
CONTINUOUS
 10
-144.958992462424
 20
2078.45258041283
  0
VERTEX
  8
52
 62
7
  6
CONTINUOUS
 10
-140.791202025389
 20
2079.14721215234
  0
VERTEX
  8
52
 62
7
  6
CONTINUOUS
 10
-141.448797974611
 20
2083.09278784766
  0
VERTEX
  8
52
 62
7
  6
CONTINUOUS
 10
-146.881007537577
 20
2082.18741958717
  0
VERTEX
  8
52
 62
7
  6
CONTINUOUS
 10
-149.52
 20
2079.54842712475
  0
SEQEND
  0
POLYLINE
  8
52
 62
7
 66
1
 70
1
  0
VERTEX
  8
52
 62
7
  6
CONTINUOUS
 10
-391.12
 20
2585.12
  0
VERTEX
  8
52
 62
7
  6
CONTINUOUS
 10
-391.12
 20
2577.12
  0
VERTEX
  8
52
 62
7
  6
CONTINUOUS
 10
-387.12
 20
2577.12
  0
VERTEX
  8
52
 62
7
  6
CONTINUOUS
 10
-387.12
 20
2585.12
  0
SEQEND
  0
POLYLINE
  8
52
 62
7
 66
1
 70
1
  0
VERTEX
  8
52
 62
7
  6
CONTINUOUS
 10
-514.707838597158
 20
1310.95829006004
  0
VERTEX
  8
52
 62
7
  6
CONTINUOUS
 10
-513.132161402842
 20
1307.28170993996
  0
VERTEX
  8
52
 62
7
  6
CONTINUOUS
 10
-507.244120345834
 20
1309.80515610725
  0
VERTEX
  8
52
 62
7
  6
CONTINUOUS
 10
-488.60764257015
 20
1326.01078895567
  0
VERTEX
  8
52
 62
7
  6
CONTINUOUS
 10
-491.23235742985
 20
1329.02921104433
  0
VERTEX
  8
52
 62
7
  6
CONTINUOUS
 10
-509.395879654167
 20
1313.23484389275
  0
SEQEND
  0
POLYLINE
  8
52
 62
7
 66
1
 70
1
  0
VERTEX
  8
52
 62
7
  6
CONTINUOUS
 10
-517.12
 20
1343.92
  0
VERTEX
  8
52
 62
7
  6
CONTINUOUS
 10
-517.12
 20
1339.92
  0
VERTEX
  8
52
 62
7
  6
CONTINUOUS
 10
-513.570964330851
 20
1339.92
  0
VERTEX
  8
52
 62
7
  6
CONTINUOUS
 10
-493.242561063455
 20
1347.23822517626
  0
VERTEX
  8
52
 62
7
  6
CONTINUOUS
 10
-494.597438936545
 20
1351.00177482374
  0
VERTEX
  8
52
 62
7
  6
CONTINUOUS
 10
-514.26903566915
 20
1343.92
  0
SEQEND
  0
POLYLINE
  8
52
 62
7
 66
1
 70
1
  0
VERTEX
  8
52
 62
7
  6
CONTINUOUS
 10
-522.339058177462
 20
1395.07560482815
  0
VERTEX
  8
52
 62
7
  6
CONTINUOUS
 10
-521.500941822538
 20
1391.16439517185
  0
VERTEX
  8
52
 62
7
  6
CONTINUOUS
 10
-510.15627956353
 20
1393.59539422735
  0
VERTEX
  8
52
 62
7
  6
CONTINUOUS
 10
-497.217753116823
 20
1398.44734164486
  0
VERTEX
  8
52
 62
7
  6
CONTINUOUS
 10
-498.622246883177
 20
1402.19265835514
  0
VERTEX
  8
52
 62
7
  6
CONTINUOUS
 10
-511.283720436472
 20
1397.44460577265
  0
SEQEND
  0
POLYLINE
  8
52
 62
7
 66
1
 70
1
  0
VERTEX
  8
52
 62
7
  6
CONTINUOUS
 10
-25.6490400231762
 20
2230.78256474919
  0
VERTEX
  8
52
 62
7
  6
CONTINUOUS
 10
-24.617366596101
 20
2227.68754446797
  0
VERTEX
  8
52
 62
7
  6
CONTINUOUS
 10
-20.822633403899
 20
2228.95245553203
  0
VERTEX
  8
52
 62
7
  6
CONTINUOUS
 10
-21.3909599768234
 20
2230.65743525081
  0
VERTEX
  8
52
 62
7
  6
CONTINUOUS
 10
-20.0630466182295
 20
2233.97721864729
  0
VERTEX
  8
52
 62
7
  6
CONTINUOUS
 10
-23.7769533817705
 20
2235.46278135271
  0
SEQEND
  0
POLYLINE
  8
52
 62
7
 66
1
 70
1
  0
VERTEX
  8
52
 62
7
  6
CONTINUOUS
 10
-59.12
 20
1985.94842712475
  0
VERTEX
  8
52
 62
7
  6
CONTINUOUS
 10
-59.12
 20
1980.29157287525
  0
VERTEX
  8
52
 62
7
  6
CONTINUOUS
 10
-54.3047182944927
 20
1975.47629116975
  0
VERTEX
  8
52
 62
7
  6
CONTINUOUS
 10
-42.3921359549987
 20
1969.52
  0
VERTEX
  8
52
 62
7
  6
CONTINUOUS
 10
-36.32
 20
1969.52
  0
VERTEX
  8
52
 62
7
  6
CONTINUOUS
 10
-36.32
 20
1973.52
  0
VERTEX
  8
52
 62
7
  6
CONTINUOUS
 10
-41.4478640450006
 20
1973.52
  0
VERTEX
  8
52
 62
7
  6
CONTINUOUS
 10
-51.9352817055069
 20
1978.76370883025
  0
VERTEX
  8
52
 62
7
  6
CONTINUOUS
 10
-55.12
 20
1981.94842712475
  0
VERTEX
  8
52
 62
7
  6
CONTINUOUS
 10
-55.12
 20
1984.29157287525
  0
VERTEX
  8
52
 62
7
  6
CONTINUOUS
 10
-52.5057864376269
 20
1986.90578643763
  0
VERTEX
  8
52
 62
7
  6
CONTINUOUS
 10
-55.3342135623731
 20
1989.73421356237
  0
SEQEND
  0
POLYLINE
  8
52
 62
7
 66
1
 70
1
  0
VERTEX
  8
52
 62
7
  6
CONTINUOUS
 10
-542.585586983253
 20
2206.48090219873
  0
VERTEX
  8
52
 62
7
  6
CONTINUOUS
 10
-539.654413016747
 20
2203.75909780127
  0
VERTEX
  8
52
 62
7
  6
CONTINUOUS
 10
-518.854413016747
 20
2226.15909780127
  0
VERTEX
  8
52
 62
7
  6
CONTINUOUS
 10
-521.785586983253
 20
2228.88090219873
  0
SEQEND
  0
POLYLINE
  8
53
 62
7
 66
1
 70
1
  0
VERTEX
  8
53
 62
7
  6
CONTINUOUS
 10
-859.182177826488
 20
2391.02
  0
VERTEX
  8
53
 62
7
  6
CONTINUOUS
 10
-859.182177826488
 20
2384.02
  0
VERTEX
  8
53
 62
7
  6
CONTINUOUS
 10
-853.12
 20
2380.52
  0
VERTEX
  8
53
 62
7
  6
CONTINUOUS
 10
-847.057822173512
 20
2384.02
  0
VERTEX
  8
53
 62
7
  6
CONTINUOUS
 10
-847.057822173512
 20
2391.02
  0
VERTEX
  8
53
 62
7
  6
CONTINUOUS
 10
-853.12
 20
2394.52
  0
SEQEND
  0
POLYLINE
  8
53
 62
7
 66
1
 70
1
  0
VERTEX
  8
53
 62
7
  6
CONTINUOUS
 10
-2354.38217782649
 20
2143.82
  0
VERTEX
  8
53
 62
7
  6
CONTINUOUS
 10
-2354.38217782649
 20
2136.82
  0
VERTEX
  8
53
 62
7
  6
CONTINUOUS
 10
-2348.32
 20
2133.32
  0
VERTEX
  8
53
 62
7
  6
CONTINUOUS
 10
-2342.25782217351
 20
2136.82
  0
VERTEX
  8
53
 62
7
  6
CONTINUOUS
 10
-2342.25782217351
 20
2143.82
  0
VERTEX
  8
53
 62
7
  6
CONTINUOUS
 10
-2348.32
 20
2147.32
  0
SEQEND
  0
POLYLINE
  8
53
 62
7
 66
1
 70
1
  0
VERTEX
  8
53
 62
7
  6
CONTINUOUS
 10
-2192.78217782649
 20
1358.22
  0
VERTEX
  8
53
 62
7
  6
CONTINUOUS
 10
-2192.78217782649
 20
1351.22
  0
VERTEX
  8
53
 62
7
  6
CONTINUOUS
 10
-2186.72
 20
1347.72
  0
VERTEX
  8
53
 62
7
  6
CONTINUOUS
 10
-2180.65782217351
 20
1351.22
  0
VERTEX
  8
53
 62
7
  6
CONTINUOUS
 10
-2180.65782217351
 20
1358.22
  0
VERTEX
  8
53
 62
7
  6
CONTINUOUS
 10
-2186.72
 20
1361.72
  0
SEQEND
  0
POLYLINE
  8
53
 62
7
 66
1
 70
1
  0
VERTEX
  8
53
 62
7
  6
CONTINUOUS
 10
-1951.98217782649
 20
1551.82
  0
VERTEX
  8
53
 62
7
  6
CONTINUOUS
 10
-1951.98217782649
 20
1544.82
  0
VERTEX
  8
53
 62
7
  6
CONTINUOUS
 10
-1945.92
 20
1541.32
  0
VERTEX
  8
53
 62
7
  6
CONTINUOUS
 10
-1939.85782217351
 20
1544.82
  0
VERTEX
  8
53
 62
7
  6
CONTINUOUS
 10
-1939.85782217351
 20
1551.82
  0
VERTEX
  8
53
 62
7
  6
CONTINUOUS
 10
-1945.92
 20
1555.32
  0
SEQEND
  0
POLYLINE
  8
53
 62
7
 66
1
 70
1
  0
VERTEX
  8
53
 62
7
  6
CONTINUOUS
 10
-1498.38217782649
 20
1847.02
  0
VERTEX
  8
53
 62
7
  6
CONTINUOUS
 10
-1498.38217782649
 20
1840.02
  0
VERTEX
  8
53
 62
7
  6
CONTINUOUS
 10
-1492.32
 20
1836.52
  0
VERTEX
  8
53
 62
7
  6
CONTINUOUS
 10
-1486.25782217351
 20
1840.02
  0
VERTEX
  8
53
 62
7
  6
CONTINUOUS
 10
-1486.25782217351
 20
1847.02
  0
VERTEX
  8
53
 62
7
  6
CONTINUOUS
 10
-1492.32
 20
1850.52
  0
SEQEND
  0
POLYLINE
  8
53
 62
7
 66
1
 70
1
  0
VERTEX
  8
53
 62
7
  6
CONTINUOUS
 10
-1911.18217782649
 20
1455.02
  0
VERTEX
  8
53
 62
7
  6
CONTINUOUS
 10
-1911.18217782649
 20
1448.02
  0
VERTEX
  8
53
 62
7
  6
CONTINUOUS
 10
-1905.12
 20
1444.52
  0
VERTEX
  8
53
 62
7
  6
CONTINUOUS
 10
-1899.05782217351
 20
1448.02
  0
VERTEX
  8
53
 62
7
  6
CONTINUOUS
 10
-1899.05782217351
 20
1455.02
  0
VERTEX
  8
53
 62
7
  6
CONTINUOUS
 10
-1905.12
 20
1458.52
  0
SEQEND
  0
POLYLINE
  8
53
 62
7
 66
1
 70
1
  0
VERTEX
  8
53
 62
7
  6
CONTINUOUS
 10
-1681.58217782649
 20
1474.22
  0
VERTEX
  8
53
 62
7
  6
CONTINUOUS
 10
-1681.58217782649
 20
1467.22
  0
VERTEX
  8
53
 62
7
  6
CONTINUOUS
 10
-1675.52
 20
1463.72
  0
VERTEX
  8
53
 62
7
  6
CONTINUOUS
 10
-1669.45782217351
 20
1467.22
  0
VERTEX
  8
53
 62
7
  6
CONTINUOUS
 10
-1669.45782217351
 20
1474.22
  0
VERTEX
  8
53
 62
7
  6
CONTINUOUS
 10
-1675.52
 20
1477.72
  0
SEQEND
  0
POLYLINE
  8
53
 62
7
 66
1
 70
1
  0
VERTEX
  8
53
 62
7
  6
CONTINUOUS
 10
-537.582177826488
 20
1334.22
  0
VERTEX
  8
53
 62
7
  6
CONTINUOUS
 10
-537.582177826488
 20
1327.22
  0
VERTEX
  8
53
 62
7
  6
CONTINUOUS
 10
-531.52
 20
1323.72
  0
VERTEX
  8
53
 62
7
  6
CONTINUOUS
 10
-525.457822173512
 20
1327.22
  0
VERTEX
  8
53
 62
7
  6
CONTINUOUS
 10
-525.457822173512
 20
1334.22
  0
VERTEX
  8
53
 62
7
  6
CONTINUOUS
 10
-531.52
 20
1337.72
  0
SEQEND
  0
POLYLINE
  8
53
 62
7
 66
1
 70
1
  0
VERTEX
  8
53
 62
7
  6
CONTINUOUS
 10
-1261.58217782649
 20
2651.02
  0
VERTEX
  8
53
 62
7
  6
CONTINUOUS
 10
-1261.58217782649
 20
2644.02
  0
VERTEX
  8
53
 62
7
  6
CONTINUOUS
 10
-1255.52
 20
2640.52
  0
VERTEX
  8
53
 62
7
  6
CONTINUOUS
 10
-1249.45782217351
 20
2644.02
  0
VERTEX
  8
53
 62
7
  6
CONTINUOUS
 10
-1249.45782217351
 20
2651.02
  0
VERTEX
  8
53
 62
7
  6
CONTINUOUS
 10
-1255.52
 20
2654.52
  0
SEQEND
  0
POLYLINE
  8
53
 62
7
 66
1
 70
1
  0
VERTEX
  8
53
 62
7
  6
CONTINUOUS
 10
-1493.58217782649
 20
1271.82
  0
VERTEX
  8
53
 62
7
  6
CONTINUOUS
 10
-1493.58217782649
 20
1264.82
  0
VERTEX
  8
53
 62
7
  6
CONTINUOUS
 10
-1487.52
 20
1261.32
  0
VERTEX
  8
53
 62
7
  6
CONTINUOUS
 10
-1481.45782217351
 20
1264.82
  0
VERTEX
  8
53
 62
7
  6
CONTINUOUS
 10
-1481.45782217351
 20
1271.82
  0
VERTEX
  8
53
 62
7
  6
CONTINUOUS
 10
-1487.52
 20
1275.32
  0
SEQEND
  0
POLYLINE
  8
53
 62
7
 66
1
 70
1
  0
VERTEX
  8
53
 62
7
  6
CONTINUOUS
 10
-1611.98217782649
 20
1365.42
  0
VERTEX
  8
53
 62
7
  6
CONTINUOUS
 10
-1611.98217782649
 20
1358.42
  0
VERTEX
  8
53
 62
7
  6
CONTINUOUS
 10
-1605.92
 20
1354.92
  0
VERTEX
  8
53
 62
7
  6
CONTINUOUS
 10
-1599.85782217351
 20
1358.42
  0
VERTEX
  8
53
 62
7
  6
CONTINUOUS
 10
-1599.85782217351
 20
1365.42
  0
VERTEX
  8
53
 62
7
  6
CONTINUOUS
 10
-1605.92
 20
1368.92
  0
SEQEND
  0
POLYLINE
  8
53
 62
7
 66
1
 70
1
  0
VERTEX
  8
53
 62
7
  6
CONTINUOUS
 10
-1107.98217782649
 20
1123.02
  0
VERTEX
  8
53
 62
7
  6
CONTINUOUS
 10
-1107.98217782649
 20
1116.02
  0
VERTEX
  8
53
 62
7
  6
CONTINUOUS
 10
-1101.92
 20
1112.52
  0
VERTEX
  8
53
 62
7
  6
CONTINUOUS
 10
-1095.85782217351
 20
1116.02
  0
VERTEX
  8
53
 62
7
  6
CONTINUOUS
 10
-1095.85782217351
 20
1123.02
  0
VERTEX
  8
53
 62
7
  6
CONTINUOUS
 10
-1101.92
 20
1126.52
  0
SEQEND
  0
POLYLINE
  8
53
 62
7
 66
1
 70
1
  0
VERTEX
  8
53
 62
7
  6
CONTINUOUS
 10
-314.382177826488
 20
2038.22
  0
VERTEX
  8
53
 62
7
  6
CONTINUOUS
 10
-314.382177826488
 20
2031.22
  0
VERTEX
  8
53
 62
7
  6
CONTINUOUS
 10
-308.32
 20
2027.72
  0
VERTEX
  8
53
 62
7
  6
CONTINUOUS
 10
-302.257822173512
 20
2031.22
  0
VERTEX
  8
53
 62
7
  6
CONTINUOUS
 10
-302.257822173512
 20
2038.22
  0
VERTEX
  8
53
 62
7
  6
CONTINUOUS
 10
-308.32
 20
2041.72
  0
SEQEND
  0
POLYLINE
  8
53
 62
7
 66
1
 70
1
  0
VERTEX
  8
53
 62
7
  6
CONTINUOUS
 10
-1100.78217782649
 20
1726.22
  0
VERTEX
  8
53
 62
7
  6
CONTINUOUS
 10
-1100.78217782649
 20
1719.22
  0
VERTEX
  8
53
 62
7
  6
CONTINUOUS
 10
-1094.72
 20
1715.72
  0
VERTEX
  8
53
 62
7
  6
CONTINUOUS
 10
-1088.65782217351
 20
1719.22
  0
VERTEX
  8
53
 62
7
  6
CONTINUOUS
 10
-1088.65782217351
 20
1726.22
  0
VERTEX
  8
53
 62
7
  6
CONTINUOUS
 10
-1094.72
 20
1729.72
  0
SEQEND
  0
POLYLINE
  8
53
 62
7
 66
1
 70
1
  0
VERTEX
  8
53
 62
7
  6
CONTINUOUS
 10
-1609.58217782649
 20
1523.02
  0
VERTEX
  8
53
 62
7
  6
CONTINUOUS
 10
-1609.58217782649
 20
1516.02
  0
VERTEX
  8
53
 62
7
  6
CONTINUOUS
 10
-1603.52
 20
1512.52
  0
VERTEX
  8
53
 62
7
  6
CONTINUOUS
 10
-1597.45782217351
 20
1516.02
  0
VERTEX
  8
53
 62
7
  6
CONTINUOUS
 10
-1597.45782217351
 20
1523.02
  0
VERTEX
  8
53
 62
7
  6
CONTINUOUS
 10
-1603.52
 20
1526.52
  0
SEQEND
  0
POLYLINE
  8
53
 62
7
 66
1
 70
1
  0
VERTEX
  8
53
 62
7
  6
CONTINUOUS
 10
-515.182177826488
 20
2094.22
  0
VERTEX
  8
53
 62
7
  6
CONTINUOUS
 10
-515.182177826488
 20
2087.22
  0
VERTEX
  8
53
 62
7
  6
CONTINUOUS
 10
-509.12
 20
2083.72
  0
VERTEX
  8
53
 62
7
  6
CONTINUOUS
 10
-503.057822173512
 20
2087.22
  0
VERTEX
  8
53
 62
7
  6
CONTINUOUS
 10
-503.057822173512
 20
2094.22
  0
VERTEX
  8
53
 62
7
  6
CONTINUOUS
 10
-509.12
 20
2097.72
  0
SEQEND
  0
POLYLINE
  8
53
 62
7
 66
1
 70
1
  0
VERTEX
  8
53
 62
7
  6
CONTINUOUS
 10
-993.582177826488
 20
1954.22
  0
VERTEX
  8
53
 62
7
  6
CONTINUOUS
 10
-993.582177826488
 20
1947.22
  0
VERTEX
  8
53
 62
7
  6
CONTINUOUS
 10
-987.52
 20
1943.72
  0
VERTEX
  8
53
 62
7
  6
CONTINUOUS
 10
-981.457822173512
 20
1947.22
  0
VERTEX
  8
53
 62
7
  6
CONTINUOUS
 10
-981.457822173512
 20
1954.22
  0
VERTEX
  8
53
 62
7
  6
CONTINUOUS
 10
-987.52
 20
1957.72
  0
SEQEND
  0
POLYLINE
  8
53
 62
7
 66
1
 70
1
  0
VERTEX
  8
53
 62
7
  6
CONTINUOUS
 10
-1642.38217782649
 20
1500.62
  0
VERTEX
  8
53
 62
7
  6
CONTINUOUS
 10
-1642.38217782649
 20
1493.62
  0
VERTEX
  8
53
 62
7
  6
CONTINUOUS
 10
-1636.32
 20
1490.12
  0
VERTEX
  8
53
 62
7
  6
CONTINUOUS
 10
-1630.25782217351
 20
1493.62
  0
VERTEX
  8
53
 62
7
  6
CONTINUOUS
 10
-1630.25782217351
 20
1500.62
  0
VERTEX
  8
53
 62
7
  6
CONTINUOUS
 10
-1636.32
 20
1504.12
  0
SEQEND
  0
POLYLINE
  8
53
 62
7
 66
1
 70
1
  0
VERTEX
  8
53
 62
7
  6
CONTINUOUS
 10
-1351.18217782649
 20
2180.62
  0
VERTEX
  8
53
 62
7
  6
CONTINUOUS
 10
-1351.18217782649
 20
2173.62
  0
VERTEX
  8
53
 62
7
  6
CONTINUOUS
 10
-1345.12
 20
2170.12
  0
VERTEX
  8
53
 62
7
  6
CONTINUOUS
 10
-1339.05782217351
 20
2173.62
  0
VERTEX
  8
53
 62
7
  6
CONTINUOUS
 10
-1339.05782217351
 20
2180.62
  0
VERTEX
  8
53
 62
7
  6
CONTINUOUS
 10
-1345.12
 20
2184.12
  0
SEQEND
  0
POLYLINE
  8
54
 62
7
 66
1
 70
1
  0
VERTEX
  8
54
 62
7
  6
CONTINUOUS
 10
-2379.33383732975
 20
1297.40120148652
  0
VERTEX
  8
54
 62
7
  6
CONTINUOUS
 10
-2353.92
 20
1311.52
  0
VERTEX
  8
54
 62
7
  6
CONTINUOUS
 10
-2346.72
 20
1315.52
  0
VERTEX
  8
54
 62
7
  6
CONTINUOUS
 10
-2326.72
 20
1334.72
  0
VERTEX
  8
54
 62
7
  6
CONTINUOUS
 10
-2308.32
 20
1364.32
  0
VERTEX
  8
54
 62
7
  6
CONTINUOUS
 10
-2301.12
 20
1379.52
  0
VERTEX
  8
54
 62
7
  6
CONTINUOUS
 10
-2295.52
 20
1388.32
  0
VERTEX
  8
54
 62
7
  6
CONTINUOUS
 10
-2287.52
 20
1406.72
  0
VERTEX
  8
54
 62
7
  6
CONTINUOUS
 10
-2277.12
 20
1422.72
  0
VERTEX
  8
54
 62
7
  6
CONTINUOUS
 10
-2258.72
 20
1457.12
  0
VERTEX
  8
54
 62
7
  6
CONTINUOUS
 10
-2241.12
 20
1494.72
  0
VERTEX
  8
54
 62
7
  6
CONTINUOUS
 10
-2235.52
 20
1509.92
  0
VERTEX
  8
54
 62
7
  6
CONTINUOUS
 10
-2229.12
 20
1521.92
  0
VERTEX
  8
54
 62
7
  6
CONTINUOUS
 10
-2222.72
 20
1541.92
  0
VERTEX
  8
54
 62
7
  6
CONTINUOUS
 10
-2213.92
 20
1561.92
  0
VERTEX
  8
54
 62
7
  6
CONTINUOUS
 10
-2213.12
 20
1566.72
  0
VERTEX
  8
54
 62
7
  6
CONTINUOUS
 10
-2199.52
 20
1593.12
  0
VERTEX
  8
54
 62
7
  6
CONTINUOUS
 10
-2193.92
 20
1600.32
  0
VERTEX
  8
54
 62
7
  6
CONTINUOUS
 10
-2181.12
 20
1612.32
  0
VERTEX
  8
54
 62
7
  6
CONTINUOUS
 10
-2171.52
 20
1618.72
  0
VERTEX
  8
54
 62
7
  6
CONTINUOUS
 10
-2153.92
 20
1625.92
  0
VERTEX
  8
54
 62
7
  6
CONTINUOUS
 10
-2151.52
 20
1625.92
  0
VERTEX
  8
54
 62
7
  6
CONTINUOUS
 10
-2140.32
 20
1631.52
  0
VERTEX
  8
54
 62
7
  6
CONTINUOUS
 10
-2133.92
 20
1637.12
  0
VERTEX
  8
54
 62
7
  6
CONTINUOUS
 10
-2129.12
 20
1643.52
  0
VERTEX
  8
54
 62
7
  6
CONTINUOUS
 10
-2128.32
 20
1660.32
  0
VERTEX
  8
54
 62
7
  6
CONTINUOUS
 10
-2130.72
 20
1666.72
  0
VERTEX
  8
54
 62
7
  6
CONTINUOUS
 10
-2138.72
 20
1673.92
  0
VERTEX
  8
54
 62
7
  6
CONTINUOUS
 10
-2148.32
 20
1677.12
  0
VERTEX
  8
54
 62
7
  6
CONTINUOUS
 10
-2158.72
 20
1678.72
  0
VERTEX
  8
54
 62
7
  6
CONTINUOUS
 10
-2169.92
 20
1677.12
  0
VERTEX
  8
54
 62
7
  6
CONTINUOUS
 10
-2197.12
 20
1677.92
  0
VERTEX
  8
54
 62
7
  6
CONTINUOUS
 10
-2232.32
 20
1673.12
  0
VERTEX
  8
54
 62
7
  6
CONTINUOUS
 10
-2271.73174378017
 20
1673.12
  0
VERTEX
  8
54
 62
7
  6
CONTINUOUS
 10
-2267.46500092151
 20
1655.99609665278
  0
VERTEX
  8
54
 62
7
  6
CONTINUOUS
 10
-2258.41066390278
 20
1643.40989078986
  0
VERTEX
  8
54
 62
7
  6
CONTINUOUS
 10
-2264.99301441333
 20
1639.58523786382
  0
VERTEX
  8
54
 62
7
  6
CONTINUOUS
 10
-2271.83394781242
 20
1587.58178859961
  0
VERTEX
  8
54
 62
7
  6
CONTINUOUS
 10
-2284.48038906075
 20
1558.07884450878
  0
VERTEX
  8
54
 62
7
  6
CONTINUOUS
 10
-2297.3104391816
 20
1506.75819804049
  0
VERTEX
  8
54
 62
7
  6
CONTINUOUS
 10
-2345.9200755833
 20
1405.11980708517
  0
SEQEND
  0
POLYLINE
  8
54
 62
7
 66
1
 70
1
  0
VERTEX
  8
54
 62
7
  6
CONTINUOUS
 10
-2098.72
 20
1641.92
  0
VERTEX
  8
54
 62
7
  6
CONTINUOUS
 10
-2098.72
 20
1635.52
  0
VERTEX
  8
54
 62
7
  6
CONTINUOUS
 10
-2096.32
 20
1632.32
  0
VERTEX
  8
54
 62
7
  6
CONTINUOUS
 10
-2090.72
 20
1633.12
  0
VERTEX
  8
54
 62
7
  6
CONTINUOUS
 10
-2089.12
 20
1636.32
  0
VERTEX
  8
54
 62
7
  6
CONTINUOUS
 10
-2089.92
 20
1642.72
  0
VERTEX
  8
54
 62
7
  6
CONTINUOUS
 10
-2093.92
 20
1646.72
  0
VERTEX
  8
54
 62
7
  6
CONTINUOUS
 10
-2095.52
 20
1646.72
  0
VERTEX
  8
54
 62
7
  6
CONTINUOUS
 10
-2097.92
 20
1644.32
  0
SEQEND
  0
POLYLINE
  8
54
 62
7
 66
1
 70
1
  0
VERTEX
  8
54
 62
7
  6
CONTINUOUS
 10
-2108.32
 20
1517.12
  0
VERTEX
  8
54
 62
7
  6
CONTINUOUS
 10
-2108.32
 20
1509.92
  0
VERTEX
  8
54
 62
7
  6
CONTINUOUS
 10
-2106.72
 20
1508.32
  0
VERTEX
  8
54
 62
7
  6
CONTINUOUS
 10
-2104.32
 20
1509.12
  0
VERTEX
  8
54
 62
7
  6
CONTINUOUS
 10
-2101.12
 20
1513.12
  0
VERTEX
  8
54
 62
7
  6
CONTINUOUS
 10
-2100.32
 20
1521.92
  0
VERTEX
  8
54
 62
7
  6
CONTINUOUS
 10
-2101.92
 20
1523.52
  0
VERTEX
  8
54
 62
7
  6
CONTINUOUS
 10
-2105.92
 20
1521.92
  0
SEQEND
  0
POLYLINE
  8
54
 62
7
 66
1
 70
1
  0
VERTEX
  8
54
 62
7
  6
CONTINUOUS
 10
-2145.05339810312
 20
804.577243023873
  0
VERTEX
  8
54
 62
7
  6
CONTINUOUS
 10
-2142.09107810944
 20
792.657734627955
  0
VERTEX
  8
54
 62
7
  6
CONTINUOUS
 10
-2128.53989950765
 20
793.359966197899
  0
VERTEX
  8
54
 62
7
  6
CONTINUOUS
 10
-2129.35848016715
 20
792.370949894813
  0
VERTEX
  8
54
 62
7
  6
CONTINUOUS
 10
-2124.32
 20
795.52
  0
VERTEX
  8
54
 62
7
  6
CONTINUOUS
 10
-2117.92
 20
799.52
  0
VERTEX
  8
54
 62
7
  6
CONTINUOUS
 10
-2109.12
 20
807.52
  0
VERTEX
  8
54
 62
7
  6
CONTINUOUS
 10
-2105.92
 20
813.92
  0
VERTEX
  8
54
 62
7
  6
CONTINUOUS
 10
-2105.92
 20
819.52
  0
VERTEX
  8
54
 62
7
  6
CONTINUOUS
 10
-2110.72
 20
829.12
  0
VERTEX
  8
54
 62
7
  6
CONTINUOUS
 10
-2115.52
 20
833.92
  0
VERTEX
  8
54
 62
7
  6
CONTINUOUS
 10
-2139.65087345696
 20
843.974530607067
  0
VERTEX
  8
54
 62
7
  6
CONTINUOUS
 10
-2139.68537598594
 20
843.321513658602
  0
VERTEX
  8
54
 62
7
  6
CONTINUOUS
 10
-2129.92147636392
 20
837.938762645206
  0
VERTEX
  8
54
 62
7
  6
CONTINUOUS
 10
-2140.40494458247
 20
829.698151663202
  0
VERTEX
  8
54
 62
7
  6
CONTINUOUS
 10
-2138.72748645599
 20
817.074735977885
  0
SEQEND
  0
POLYLINE
  8
54
 62
7
 66
1
 70
1
  0
VERTEX
  8
54
 62
7
  6
CONTINUOUS
 10
-2536.32
 20
2036.32
  0
VERTEX
  8
54
 62
7
  6
CONTINUOUS
 10
-2536.32
 20
1991.52
  0
VERTEX
  8
54
 62
7
  6
CONTINUOUS
 10
-2533.92
 20
1971.52
  0
VERTEX
  8
54
 62
7
  6
CONTINUOUS
 10
-2534.72
 20
1957.92
  0
VERTEX
  8
54
 62
7
  6
CONTINUOUS
 10
-2509.12
 20
1950.72
  0
VERTEX
  8
54
 62
7
  6
CONTINUOUS
 10
-2477.12
 20
1945.92
  0
VERTEX
  8
54
 62
7
  6
CONTINUOUS
 10
-2472.32
 20
1947.52
  0
VERTEX
  8
54
 62
7
  6
CONTINUOUS
 10
-2470.72
 20
1951.52
  0
VERTEX
  8
54
 62
7
  6
CONTINUOUS
 10
-2470.72
 20
1956.32
  0
VERTEX
  8
54
 62
7
  6
CONTINUOUS
 10
-2476.32
 20
1999.52
  0
VERTEX
  8
54
 62
7
  6
CONTINUOUS
 10
-2478.72
 20
2053.92
  0
VERTEX
  8
54
 62
7
  6
CONTINUOUS
 10
-2480.32
 20
2056.32
  0
VERTEX
  8
54
 62
7
  6
CONTINUOUS
 10
-2483.52
 20
2057.12
  0
VERTEX
  8
54
 62
7
  6
CONTINUOUS
 10
-2509.12
 20
2057.92
  0
VERTEX
  8
54
 62
7
  6
CONTINUOUS
 10
-2513.12
 20
2059.52
  0
VERTEX
  8
54
 62
7
  6
CONTINUOUS
 10
-2518.72
 20
2059.52
  0
VERTEX
  8
54
 62
7
  6
CONTINUOUS
 10
-2529.12
 20
2057.12
  0
VERTEX
  8
54
 62
7
  6
CONTINUOUS
 10
-2534.72
 20
2045.92
  0
SEQEND
  0
POLYLINE
  8
54
 62
7
 66
1
 70
1
  0
VERTEX
  8
54
 62
7
  6
CONTINUOUS
 10
-2333.60439751921
 20
1738.20625130627
  0
VERTEX
  8
54
 62
7
  6
CONTINUOUS
 10
-2284.32
 20
1784.32
  0
VERTEX
  8
54
 62
7
  6
CONTINUOUS
 10
-2270.72
 20
1809.92
  0
VERTEX
  8
54
 62
7
  6
CONTINUOUS
 10
-2265.92
 20
1824.32
  0
VERTEX
  8
54
 62
7
  6
CONTINUOUS
 10
-2245.12
 20
1870.72
  0
VERTEX
  8
54
 62
7
  6
CONTINUOUS
 10
-2245.12
 20
1885.92
  0
VERTEX
  8
54
 62
7
  6
CONTINUOUS
 10
-2248.32
 20
1889.92
  0
VERTEX
  8
54
 62
7
  6
CONTINUOUS
 10
-2252.32
 20
1891.52
  0
VERTEX
  8
54
 62
7
  6
CONTINUOUS
 10
-2257.12
 20
1892.32
  0
VERTEX
  8
54
 62
7
  6
CONTINUOUS
 10
-2265.92
 20
1889.92
  0
VERTEX
  8
54
 62
7
  6
CONTINUOUS
 10
-2273.92
 20
1881.92
  0
VERTEX
  8
54
 62
7
  6
CONTINUOUS
 10
-2279.52
 20
1873.12
  0
VERTEX
  8
54
 62
7
  6
CONTINUOUS
 10
-2282.72
 20
1862.72
  0
VERTEX
  8
54
 62
7
  6
CONTINUOUS
 10
-2288.32
 20
1850.72
  0
VERTEX
  8
54
 62
7
  6
CONTINUOUS
 10
-2288.32
 20
1844.32
  0
VERTEX
  8
54
 62
7
  6
CONTINUOUS
 10
-2290.72
 20
1836.32
  0
VERTEX
  8
54
 62
7
  6
CONTINUOUS
 10
-2305.92
 20
1802.72
  0
SEQEND
  0
POLYLINE
  8
54
 62
7
 66
1
 70
1
  0
VERTEX
  8
54
 62
7
  6
CONTINUOUS
 10
-820.352174092821
 20
1370.21928094158
  0
VERTEX
  8
54
 62
7
  6
CONTINUOUS
 10
-820.352174092821
 20
1368.48279916491
  0
VERTEX
  8
54
 62
7
  6
CONTINUOUS
 10
-819.758262346682
 20
1366.85104005325
  0
VERTEX
  8
54
 62
7
  6
CONTINUOUS
 10
-818.642073376193
 20
1365.52081783765
  0
VERTEX
  8
54
 62
7
  6
CONTINUOUS
 10
-817.138236044388
 20
1364.65257694932
  0
VERTEX
  8
54
 62
7
  6
CONTINUOUS
 10
-815.42813532776
 20
1364.35104005325
  0
VERTEX
  8
54
 62
7
  6
CONTINUOUS
 10
-813.718034611132
 20
1364.65257694932
  0
VERTEX
  8
54
 62
7
  6
CONTINUOUS
 10
-812.214197279327
 20
1365.52081783765
  0
VERTEX
  8
54
 62
7
  6
CONTINUOUS
 10
-811.098008308838
 20
1366.85104005325
  0
VERTEX
  8
54
 62
7
  6
CONTINUOUS
 10
-810.504096562699
 20
1368.48279916491
  0
VERTEX
  8
54
 62
7
  6
CONTINUOUS
 10
-810.504096562699
 20
1370.21928094158
  0
VERTEX
  8
54
 62
7
  6
CONTINUOUS
 10
-811.098008308838
 20
1371.85104005325
  0
VERTEX
  8
54
 62
7
  6
CONTINUOUS
 10
-812.214197279327
 20
1373.18126226884
  0
VERTEX
  8
54
 62
7
  6
CONTINUOUS
 10
-813.718034611132
 20
1374.04950315718
  0
VERTEX
  8
54
 62
7
  6
CONTINUOUS
 10
-815.42813532776
 20
1374.35104005325
  0
VERTEX
  8
54
 62
7
  6
CONTINUOUS
 10
-817.138236044388
 20
1374.04950315718
  0
VERTEX
  8
54
 62
7
  6
CONTINUOUS
 10
-818.642073376193
 20
1373.18126226884
  0
VERTEX
  8
54
 62
7
  6
CONTINUOUS
 10
-819.758262346682
 20
1371.85104005325
  0
SEQEND
  0
POLYLINE
  8
54
 62
7
 66
1
 70
1
  0
VERTEX
  8
54
 62
7
  6
CONTINUOUS
 10
-1528.96161313435
 20
860.784558259266
  0
VERTEX
  8
54
 62
7
  6
CONTINUOUS
 10
-1456.14254827904
 20
829.976492358942
  0
VERTEX
  8
54
 62
7
  6
CONTINUOUS
 10
-1460.34364817454
 20
839.779058781773
  0
VERTEX
  8
54
 62
7
  6
CONTINUOUS
 10
-1464.54474807004
 20
867.786391418431
  0
VERTEX
  8
54
 62
7
  6
CONTINUOUS
 10
-1470.14621459737
 20
876.188591209428
  0
VERTEX
  8
54
 62
7
  6
CONTINUOUS
 10
-1478.54841438837
 20
881.79005773676
  0
VERTEX
  8
54
 62
7
  6
CONTINUOUS
 10
-1496.75318060219
 20
891.59262415959
  0
VERTEX
  8
54
 62
7
  6
CONTINUOUS
 10
-1514.95794681602
 20
887.391524264091
  0
VERTEX
  8
54
 62
7
  6
CONTINUOUS
 10
-1523.36014660702
 20
877.588957841261
  0
SEQEND
  0
POLYLINE
  8
54
 62
7
 66
1
 70
1
  0
VERTEX
  8
54
 62
7
  6
CONTINUOUS
 10
-2317.92
 20
2182.72
  0
VERTEX
  8
54
 62
7
  6
CONTINUOUS
 10
-2317.92
 20
2174.72
  0
VERTEX
  8
54
 62
7
  6
CONTINUOUS
 10
-2313.12
 20
2164.32
  0
VERTEX
  8
54
 62
7
  6
CONTINUOUS
 10
-2298.72
 20
2150.72
  0
VERTEX
  8
54
 62
7
  6
CONTINUOUS
 10
-2288.32
 20
2145.92
  0
VERTEX
  8
54
 62
7
  6
CONTINUOUS
 10
-2279.52
 20
2145.92
  0
VERTEX
  8
54
 62
7
  6
CONTINUOUS
 10
-2276.32
 20
2149.12
  0
VERTEX
  8
54
 62
7
  6
CONTINUOUS
 10
-2276.32
 20
2155.52
  0
VERTEX
  8
54
 62
7
  6
CONTINUOUS
 10
-2288.32
 20
2182.72
  0
VERTEX
  8
54
 62
7
  6
CONTINUOUS
 10
-2293.12
 20
2187.52
  0
VERTEX
  8
54
 62
7
  6
CONTINUOUS
 10
-2301.12
 20
2191.52
  0
VERTEX
  8
54
 62
7
  6
CONTINUOUS
 10
-2306.72
 20
2192.32
  0
VERTEX
  8
54
 62
7
  6
CONTINUOUS
 10
-2313.12
 20
2189.92
  0
SEQEND
  0
POLYLINE
  8
54
 62
7
 66
1
 70
1
  0
VERTEX
  8
54
 62
7
  6
CONTINUOUS
 10
-2577.12
 20
2116.32
  0
VERTEX
  8
54
 62
7
  6
CONTINUOUS
 10
-2576.32
 20
2085.92
  0
VERTEX
  8
54
 62
7
  6
CONTINUOUS
 10
-2571.52
 20
2082.72
  0
VERTEX
  8
54
 62
7
  6
CONTINUOUS
 10
-2538.72
 20
2070.72
  0
VERTEX
  8
54
 62
7
  6
CONTINUOUS
 10
-2521.92
 20
2068.32
  0
VERTEX
  8
54
 62
7
  6
CONTINUOUS
 10
-2464.32
 20
2068.32
  0
VERTEX
  8
54
 62
7
  6
CONTINUOUS
 10
-2462.72
 20
2069.92
  0
VERTEX
  8
54
 62
7
  6
CONTINUOUS
 10
-2466.72
 20
2093.12
  0
VERTEX
  8
54
 62
7
  6
CONTINUOUS
 10
-2464.32
 20
2116.32
  0
VERTEX
  8
54
 62
7
  6
CONTINUOUS
 10
-2465.12
 20
2160.32
  0
VERTEX
  8
54
 62
7
  6
CONTINUOUS
 10
-2462.72
 20
2169.12
  0
VERTEX
  8
54
 62
7
  6
CONTINUOUS
 10
-2464.32
 20
2170.72
  0
VERTEX
  8
54
 62
7
  6
CONTINUOUS
 10
-2473.92
 20
2173.12
  0
VERTEX
  8
54
 62
7
  6
CONTINUOUS
 10
-2513.92
 20
2176.32
  0
VERTEX
  8
54
 62
7
  6
CONTINUOUS
 10
-2549.92
 20
2176.32
  0
VERTEX
  8
54
 62
7
  6
CONTINUOUS
 10
-2563.52
 20
2177.92
  0
VERTEX
  8
54
 62
7
  6
CONTINUOUS
 10
-2565.12
 20
2176.32
  0
VERTEX
  8
54
 62
7
  6
CONTINUOUS
 10
-2569.92
 20
2164.32
  0
VERTEX
  8
54
 62
7
  6
CONTINUOUS
 10
-2575.52
 20
2136.32
  0
SEQEND
  0
POLYLINE
  8
54
 62
7
 66
1
 70
1
  0
VERTEX
  8
54
 62
7
  6
CONTINUOUS
 10
-2276.70853656544
 20
2649.82395119145
  0
VERTEX
  8
54
 62
7
  6
CONTINUOUS
 10
-2261.92
 20
2629.12
  0
VERTEX
  8
54
 62
7
  6
CONTINUOUS
 10
-2253.92
 20
2617.92
  0
VERTEX
  8
54
 62
7
  6
CONTINUOUS
 10
-2234.72
 20
2583.52
  0
VERTEX
  8
54
 62
7
  6
CONTINUOUS
 10
-2227.52
 20
2573.92
  0
VERTEX
  8
54
 62
7
  6
CONTINUOUS
 10
-2227.52
 20
2572.32
  0
VERTEX
  8
54
 62
7
  6
CONTINUOUS
 10
-2217.12
 20
2560.32
  0
VERTEX
  8
54
 62
7
  6
CONTINUOUS
 10
-2201.92
 20
2549.12
  0
VERTEX
  8
54
 62
7
  6
CONTINUOUS
 10
-2180.32
 20
2536.32
  0
VERTEX
  8
54
 62
7
  6
CONTINUOUS
 10
-2177.12
 20
2535.52
  0
VERTEX
  8
54
 62
7
  6
CONTINUOUS
 10
-2163.52
 20
2525.92
  0
VERTEX
  8
54
 62
7
  6
CONTINUOUS
 10
-2111.52
 20
2470.72
  0
VERTEX
  8
54
 62
7
  6
CONTINUOUS
 10
-2099.52
 20
2461.12
  0
VERTEX
  8
54
 62
7
  6
CONTINUOUS
 10
-2081.12
 20
2451.52
  0
VERTEX
  8
54
 62
7
  6
CONTINUOUS
 10
-2068.32
 20
2447.52
  0
VERTEX
  8
54
 62
7
  6
CONTINUOUS
 10
-2050.72
 20
2444.32
  0
VERTEX
  8
54
 62
7
  6
CONTINUOUS
 10
-2014.72
 20
2445.12
  0
VERTEX
  8
54
 62
7
  6
CONTINUOUS
 10
-1995.52
 20
2448.32
  0
VERTEX
  8
54
 62
7
  6
CONTINUOUS
 10
-1984.32
 20
2453.12
  0
VERTEX
  8
54
 62
7
  6
CONTINUOUS
 10
-1974.72
 20
2461.12
  0
VERTEX
  8
54
 62
7
  6
CONTINUOUS
 10
-1969.12
 20
2469.12
  0
VERTEX
  8
54
 62
7
  6
CONTINUOUS
 10
-1963.52
 20
2480.32
  0
VERTEX
  8
54
 62
7
  6
CONTINUOUS
 10
-1958.72
 20
2485.12
  0
VERTEX
  8
54
 62
7
  6
CONTINUOUS
 10
-1942.72
 20
2493.92
  0
VERTEX
  8
54
 62
7
  6
CONTINUOUS
 10
-1935.52
 20
2501.12
  0
VERTEX
  8
54
 62
7
  6
CONTINUOUS
 10
-1929.92
 20
2513.12
  0
VERTEX
  8
54
 62
7
  6
CONTINUOUS
 10
-1929.12
 20
2525.12
  0
VERTEX
  8
54
 62
7
  6
CONTINUOUS
 10
-1932.32
 20
2537.12
  0
VERTEX
  8
54
 62
7
  6
CONTINUOUS
 10
-1941.12
 20
2556.32
  0
VERTEX
  8
54
 62
7
  6
CONTINUOUS
 10
-1953.92
 20
2573.92
  0
VERTEX
  8
54
 62
7
  6
CONTINUOUS
 10
-1962.72
 20
2581.92
  0
VERTEX
  8
54
 62
7
  6
CONTINUOUS
 10
-1969.92
 20
2585.92
  0
VERTEX
  8
54
 62
7
  6
CONTINUOUS
 10
-1997.12
 20
2590.72
  0
VERTEX
  8
54
 62
7
  6
CONTINUOUS
 10
-2010.72
 20
2597.12
  0
VERTEX
  8
54
 62
7
  6
CONTINUOUS
 10
-2033.36835253519
 20
2607.77804825205
  0
VERTEX
  8
54
 62
7
  6
CONTINUOUS
 10
-2045.21443953544
 20
2591.25948481186
  0
VERTEX
  8
54
 62
7
  6
CONTINUOUS
 10
-2077.79183701919
 20
2573.87939985739
  0
VERTEX
  8
54
 62
7
  6
CONTINUOUS
 10
-2089.66336308226
 20
2577.83947313653
  0
VERTEX
  8
54
 62
7
  6
CONTINUOUS
 10
-2115.70441301842
 20
2625.58568053871
  0
VERTEX
  8
54
 62
7
  6
CONTINUOUS
 10
-2137.9249827397
 20
2642.72378401758
  0
VERTEX
  8
54
 62
7
  6
CONTINUOUS
 10
-2150.70768251845
 20
2652.31094751834
  0
VERTEX
  8
54
 62
7
  6
CONTINUOUS
 10
-2156.3039036238
 20
2656.30365612622
  0
VERTEX
  8
54
 62
7
  6
CONTINUOUS
 10
-2161.91631371128
 20
2664.31661335395
  0
VERTEX
  8
54
 62
7
  6
CONTINUOUS
 10
-2177.11919932039
 20
2673.11972265513
  0
VERTEX
  8
54
 62
7
  6
CONTINUOUS
 10
-2205.12271183265
 20
2677.11971755733
  0
VERTEX
  8
54
 62
7
  6
CONTINUOUS
 10
-2240.32443036591
 20
2664.31809119199
  0
VERTEX
  8
54
 62
7
  6
CONTINUOUS
 10
-2261.91756390497
 20
2653.52090027123
  0
SEQEND
  0
POLYLINE
  8
54
 62
7
 66
1
 70
1
  0
VERTEX
  8
54
 62
7
  6
CONTINUOUS
 10
-2164.32
 20
1593.12
  0
VERTEX
  8
54
 62
7
  6
CONTINUOUS
 10
-2164.32
 20
1586.72
  0
VERTEX
  8
54
 62
7
  6
CONTINUOUS
 10
-2161.92
 20
1584.32
  0
VERTEX
  8
54
 62
7
  6
CONTINUOUS
 10
-2157.12
 20
1584.32
  0
VERTEX
  8
54
 62
7
  6
CONTINUOUS
 10
-2153.12
 20
1587.52
  0
VERTEX
  8
54
 62
7
  6
CONTINUOUS
 10
-2153.12
 20
1593.92
  0
VERTEX
  8
54
 62
7
  6
CONTINUOUS
 10
-2154.72
 20
1596.32
  0
VERTEX
  8
54
 62
7
  6
CONTINUOUS
 10
-2157.92
 20
1597.92
  0
VERTEX
  8
54
 62
7
  6
CONTINUOUS
 10
-2161.12
 20
1597.92
  0
SEQEND
  0
POLYLINE
  8
54
 62
7
 66
1
 70
1
  0
VERTEX
  8
54
 62
7
  6
CONTINUOUS
 10
-1920.32
 20
1577.12
  0
VERTEX
  8
54
 62
7
  6
CONTINUOUS
 10
-1919.52
 20
1573.92
  0
VERTEX
  8
54
 62
7
  6
CONTINUOUS
 10
-1916.32
 20
1570.72
  0
VERTEX
  8
54
 62
7
  6
CONTINUOUS
 10
-1911.52
 20
1571.52
  0
VERTEX
  8
54
 62
7
  6
CONTINUOUS
 10
-1911.52
 20
1576.32
  0
VERTEX
  8
54
 62
7
  6
CONTINUOUS
 10
-1913.92
 20
1579.52
  0
VERTEX
  8
54
 62
7
  6
CONTINUOUS
 10
-1918.72
 20
1580.32
  0
SEQEND
  0
POLYLINE
  8
54
 62
7
 66
1
 70
1
  0
VERTEX
  8
54
 62
7
  6
CONTINUOUS
 10
-62.72
 20
1916.32
  0
VERTEX
  8
54
 62
7
  6
CONTINUOUS
 10
-62.72
 20
1913.12
  0
VERTEX
  8
54
 62
7
  6
CONTINUOUS
 10
-49.12
 20
1913.12
  0
VERTEX
  8
54
 62
7
  6
CONTINUOUS
 10
-32.32
 20
1919.52
  0
VERTEX
  8
54
 62
7
  6
CONTINUOUS
 10
-29.12
 20
1919.52
  0
VERTEX
  8
54
 62
7
  6
CONTINUOUS
 10
-12.32
 20
1925.12
  0
VERTEX
  8
54
 62
7
  6
CONTINUOUS
 10
-6.52715580526933
 20
1927.05094806689
  0
VERTEX
  8
54
 62
7
  6
CONTINUOUS
 10
-6.55313136569426
 20
1937.72964541135
  0
VERTEX
  8
54
 62
7
  6
CONTINUOUS
 10
-15.5073284430417
 20
1938.51031085169
  0
VERTEX
  8
54
 62
7
  6
CONTINUOUS
 10
-21.12
 20
1936.32
  0
VERTEX
  8
54
 62
7
  6
CONTINUOUS
 10
-53.92
 20
1923.52
  0
SEQEND
  0
POLYLINE
  8
54
 62
7
 66
1
 70
1
  0
VERTEX
  8
54
 62
7
  6
CONTINUOUS
 10
-1968.60846404959
 20
2690.54197945592
  0
VERTEX
  8
54
 62
7
  6
CONTINUOUS
 10
-1961.92
 20
2686.72
  0
VERTEX
  8
54
 62
7
  6
CONTINUOUS
 10
-1950.72
 20
2680.32
  0
VERTEX
  8
54
 62
7
  6
CONTINUOUS
 10
-1936.32
 20
2677.12
  0
VERTEX
  8
54
 62
7
  6
CONTINUOUS
 10
-1927.52
 20
2677.12
  0
VERTEX
  8
54
 62
7
  6
CONTINUOUS
 10
-1910.72
 20
2680.32
  0
VERTEX
  8
54
 62
7
  6
CONTINUOUS
 10
-1889.12
 20
2689.92
  0
VERTEX
  8
54
 62
7
  6
CONTINUOUS
 10
-1875.52
 20
2698.72
  0
VERTEX
  8
54
 62
7
  6
CONTINUOUS
 10
-1857.12
 20
2712.32
  0
VERTEX
  8
54
 62
7
  6
CONTINUOUS
 10
-1847.52
 20
2722.72
  0
VERTEX
  8
54
 62
7
  6
CONTINUOUS
 10
-1842.44444808163
 20
2728.21851457442
  0
VERTEX
  8
54
 62
7
  6
CONTINUOUS
 10
-1845.75728601734
 20
2727.37911892194
  0
VERTEX
  8
54
 62
7
  6
CONTINUOUS
 10
-1846.00848999025
 20
2741.23343230115
  0
VERTEX
  8
54
 62
7
  6
CONTINUOUS
 10
-1876.36725466114
 20
2749.92414444087
  0
VERTEX
  8
54
 62
7
  6
CONTINUOUS
 10
-1909.92158135332
 20
2746.71941566244
  0
VERTEX
  8
54
 62
7
  6
CONTINUOUS
 10
-1939.52461390468
 20
2725.91571563025
  0
SEQEND
  0
POLYLINE
  8
54
 62
7
 66
1
 70
1
  0
VERTEX
  8
54
 62
7
  6
CONTINUOUS
 10
-669.651913625409
 20
2641.37104987627
  0
VERTEX
  8
54
 62
7
  6
CONTINUOUS
 10
-669.12
 20
2635.52
  0
VERTEX
  8
54
 62
7
  6
CONTINUOUS
 10
-667.52
 20
2617.92
  0
VERTEX
  8
54
 62
7
  6
CONTINUOUS
 10
-665.92
 20
2613.12
  0
VERTEX
  8
54
 62
7
  6
CONTINUOUS
 10
-664.32
 20
2609.92
  0
VERTEX
  8
54
 62
7
  6
CONTINUOUS
 10
-657.12
 20
2603.52
  0
VERTEX
  8
54
 62
7
  6
CONTINUOUS
 10
-651.52
 20
2601.92
  0
VERTEX
  8
54
 62
7
  6
CONTINUOUS
 10
-643.52
 20
2601.92
  0
VERTEX
  8
54
 62
7
  6
CONTINUOUS
 10
-629.92
 20
2607.52
  0
VERTEX
  8
54
 62
7
  6
CONTINUOUS
 10
-621.12
 20
2613.12
  0
VERTEX
  8
54
 62
7
  6
CONTINUOUS
 10
-615.258945232736
 20
2616.84976212356
  0
VERTEX
  8
54
 62
7
  6
CONTINUOUS
 10
-633.143369323463
 20
2634.73214653699
  0
VERTEX
  8
54
 62
7
  6
CONTINUOUS
 10
-644.665470697485
 20
2636.81816705824
  0
VERTEX
  8
54
 62
7
  6
CONTINUOUS
 10
-656.66658097668
 20
2644.69172947026
  0
VERTEX
  8
54
 62
7
  6
CONTINUOUS
 10
-659.664784849071
 20
2644.27225018234
  0
VERTEX
  8
54
 62
7
  6
CONTINUOUS
 10
-668.277805060516
 20
2639.51035323585
  0
SEQEND
  0
POLYLINE
  8
54
 62
7
 66
1
 70
1
  0
VERTEX
  8
54
 62
7
  6
CONTINUOUS
 10
-669.92
 20
2447.52
  0
VERTEX
  8
54
 62
7
  6
CONTINUOUS
 10
-669.12
 20
2441.92
  0
VERTEX
  8
54
 62
7
  6
CONTINUOUS
 10
-665.12
 20
2443.52
  0
VERTEX
  8
54
 62
7
  6
CONTINUOUS
 10
-657.12
 20
2451.52
  0
VERTEX
  8
54
 62
7
  6
CONTINUOUS
 10
-638.72
 20
2480.32
  0
VERTEX
  8
54
 62
7
  6
CONTINUOUS
 10
-624.32
 20
2510.72
  0
VERTEX
  8
54
 62
7
  6
CONTINUOUS
 10
-605.92
 20
2544.32
  0
VERTEX
  8
54
 62
7
  6
CONTINUOUS
 10
-602.72
 20
2553.12
  0
VERTEX
  8
54
 62
7
  6
CONTINUOUS
 10
-604.32
 20
2556.32
  0
VERTEX
  8
54
 62
7
  6
CONTINUOUS
 10
-607.52
 20
2556.32
  0
VERTEX
  8
54
 62
7
  6
CONTINUOUS
 10
-610.72
 20
2553.92
  0
VERTEX
  8
54
 62
7
  6
CONTINUOUS
 10
-620.32
 20
2540.32
  0
VERTEX
  8
54
 62
7
  6
CONTINUOUS
 10
-638.72
 20
2504.32
  0
VERTEX
  8
54
 62
7
  6
CONTINUOUS
 10
-649.12
 20
2488.32
  0
VERTEX
  8
54
 62
7
  6
CONTINUOUS
 10
-665.12
 20
2459.52
  0
SEQEND
  0
POLYLINE
  8
54
 62
7
 66
1
 70
1
  0
VERTEX
  8
54
 62
7
  6
CONTINUOUS
 10
-535.52
 20
1389.92
  0
VERTEX
  8
54
 62
7
  6
CONTINUOUS
 10
-535.52
 20
1387.52
  0
VERTEX
  8
54
 62
7
  6
CONTINUOUS
 10
-533.92
 20
1385.12
  0
VERTEX
  8
54
 62
7
  6
CONTINUOUS
 10
-530.72
 20
1384.32
  0
VERTEX
  8
54
 62
7
  6
CONTINUOUS
 10
-529.12
 20
1385.92
  0
VERTEX
  8
54
 62
7
  6
CONTINUOUS
 10
-529.12
 20
1390.72
  0
VERTEX
  8
54
 62
7
  6
CONTINUOUS
 10
-531.52
 20
1392.32
  0
SEQEND
  0
POLYLINE
  8
54
 62
7
 66
1
 70
1
  0
VERTEX
  8
54
 62
7
  6
CONTINUOUS
 10
-652.003927941308
 20
1271.46404803914
  0
VERTEX
  8
54
 62
7
  6
CONTINUOUS
 10
-646.7718845864
 20
1270.76285477644
  0
VERTEX
  8
54
 62
7
  6
CONTINUOUS
 10
-640.033479991992
 20
1252.97370329851
  0
VERTEX
  8
54
 62
7
  6
CONTINUOUS
 10
-632.202349367725
 20
1254.77799110566
  0
VERTEX
  8
54
 62
7
  6
CONTINUOUS
 10
-623.499546190205
 20
1261.9141405891
  0
VERTEX
  8
54
 62
7
  6
CONTINUOUS
 10
-621.339821211878
 20
1255.23072892219
  0
VERTEX
  8
54
 62
7
  6
CONTINUOUS
 10
-626.30693827709
 20
1243.0881383471
  0
VERTEX
  8
54
 62
7
  6
CONTINUOUS
 10
-577.889439909847
 20
1212.30746418655
  0
VERTEX
  8
54
 62
7
  6
CONTINUOUS
 10
-545.918204286843
 20
1205.11986325546
  0
VERTEX
  8
54
 62
7
  6
CONTINUOUS
 10
-525.049321286047
 20
1206.55959747662
  0
VERTEX
  8
54
 62
7
  6
CONTINUOUS
 10
-509.404750402566
 20
1211.97520950423
  0
VERTEX
  8
54
 62
7
  6
CONTINUOUS
 10
-525.92
 20
1225.12
  0
VERTEX
  8
54
 62
7
  6
CONTINUOUS
 10
-565.12
 20
1256.32
  0
VERTEX
  8
54
 62
7
  6
CONTINUOUS
 10
-590.72
 20
1271.52
  0
VERTEX
  8
54
 62
7
  6
CONTINUOUS
 10
-607.52
 20
1277.92
  0
VERTEX
  8
54
 62
7
  6
CONTINUOUS
 10
-617.92
 20
1280.32
  0
VERTEX
  8
54
 62
7
  6
CONTINUOUS
 10
-636.32
 20
1280.32
  0
VERTEX
  8
54
 62
7
  6
CONTINUOUS
 10
-643.52
 20
1275.52
  0
VERTEX
  8
54
 62
7
  6
CONTINUOUS
 10
-645.92
 20
1275.52
  0
SEQEND
  0
POLYLINE
  8
54
 62
7
 66
1
 70
1
  0
VERTEX
  8
54
 62
7
  6
CONTINUOUS
 10
-981.12
 20
1297.12
  0
VERTEX
  8
54
 62
7
  6
CONTINUOUS
 10
-979.52
 20
1281.12
  0
VERTEX
  8
54
 62
7
  6
CONTINUOUS
 10
-974.72
 20
1261.92
  0
VERTEX
  8
54
 62
7
  6
CONTINUOUS
 10
-965.92
 20
1245.12
  0
VERTEX
  8
54
 62
7
  6
CONTINUOUS
 10
-953.92
 20
1229.12
  0
VERTEX
  8
54
 62
7
  6
CONTINUOUS
 10
-941.92
 20
1217.12
  0
VERTEX
  8
54
 62
7
  6
CONTINUOUS
 10
-925.92
 20
1204.32
  0
VERTEX
  8
54
 62
7
  6
CONTINUOUS
 10
-898.72
 20
1186.72
  0
VERTEX
  8
54
 62
7
  6
CONTINUOUS
 10
-877.92
 20
1175.52
  0
VERTEX
  8
54
 62
7
  6
CONTINUOUS
 10
-848.32
 20
1157.12
  0
VERTEX
  8
54
 62
7
  6
CONTINUOUS
 10
-816.32
 20
1141.92
  0
VERTEX
  8
54
 62
7
  6
CONTINUOUS
 10
-790.72
 20
1131.52
  0
VERTEX
  8
54
 62
7
  6
CONTINUOUS
 10
-772.32
 20
1125.12
  0
VERTEX
  8
54
 62
7
  6
CONTINUOUS
 10
-737.92
 20
1116.32
  0
VERTEX
  8
54
 62
7
  6
CONTINUOUS
 10
-689.12
 20
1105.92
  0
VERTEX
  8
54
 62
7
  6
CONTINUOUS
 10
-684.32
 20
1105.92
  0
VERTEX
  8
54
 62
7
  6
CONTINUOUS
 10
-665.12
 20
1100.32
  0
VERTEX
  8
54
 62
7
  6
CONTINUOUS
 10
-649.12
 20
1097.92
  0
VERTEX
  8
54
 62
7
  6
CONTINUOUS
 10
-637.12
 20
1093.92
  0
VERTEX
  8
54
 62
7
  6
CONTINUOUS
 10
-627.52
 20
1092.32
  0
VERTEX
  8
54
 62
7
  6
CONTINUOUS
 10
-625.12
 20
1090.72
  0
VERTEX
  8
54
 62
7
  6
CONTINUOUS
 10
-618.72
 20
1089.92
  0
VERTEX
  8
54
 62
7
  6
CONTINUOUS
 10
-596.32
 20
1081.92
  0
VERTEX
  8
54
 62
7
  6
CONTINUOUS
 10
-579.52
 20
1073.92
  0
VERTEX
  8
54
 62
7
  6
CONTINUOUS
 10
-540.32
 20
1048.32
  0
VERTEX
  8
54
 62
7
  6
CONTINUOUS
 10
-525.12
 20
1035.52
  0
VERTEX
  8
54
 62
7
  6
CONTINUOUS
 10
-517.92
 20
1025.12
  0
VERTEX
  8
54
 62
7
  6
CONTINUOUS
 10
-512.32
 20
999.52
  0
VERTEX
  8
54
 62
7
  6
CONTINUOUS
 10
-511.52
 20
986.72
  0
VERTEX
  8
54
 62
7
  6
CONTINUOUS
 10
-511.212090631975
 20
981.793450110153
  0
VERTEX
  8
54
 62
7
  6
CONTINUOUS
 10
-509.545739047901
 20
982.434387698715
  0
VERTEX
  8
54
 62
7
  6
CONTINUOUS
 10
-473.371629389933
 20
980.710295436206
  0
VERTEX
  8
54
 62
7
  6
CONTINUOUS
 10
-445.125158882748
 20
996.31408870604
  0
VERTEX
  8
54
 62
7
  6
CONTINUOUS
 10
-433.120023095731
 20
1027.52805840951
  0
VERTEX
  8
54
 62
7
  6
CONTINUOUS
 10
-449.923426410717
 20
1070.72582770025
  0
VERTEX
  8
54
 62
7
  6
CONTINUOUS
 10
-485.614976264251
 20
1113.91517785262
  0
VERTEX
  8
54
 62
7
  6
CONTINUOUS
 10
-489.954594944364
 20
1115.53970312638
  0
VERTEX
  8
54
 62
7
  6
CONTINUOUS
 10
-538.697369484641
 20
1155.50375417404
  0
VERTEX
  8
54
 62
7
  6
CONTINUOUS
 10
-549.028475916978
 20
1161.80720508425
  0
VERTEX
  8
54
 62
7
  6
CONTINUOUS
 10
-551.735912491924
 20
1168.5047379579
  0
VERTEX
  8
54
 62
7
  6
CONTINUOUS
 10
-564.801596785728
 20
1169.98952508449
  0
VERTEX
  8
54
 62
7
  6
CONTINUOUS
 10
-607.776942575131
 20
1193.88535095134
  0
VERTEX
  8
54
 62
7
  6
CONTINUOUS
 10
-646.709893257924
 20
1229.11011357598
  0
VERTEX
  8
54
 62
7
  6
CONTINUOUS
 10
-662.970973801041
 20
1246.16487003196
  0
VERTEX
  8
54
 62
7
  6
CONTINUOUS
 10
-664.71082025924
 20
1258.15557429257
  0
VERTEX
  8
54
 62
7
  6
CONTINUOUS
 10
-664.123131526937
 20
1258.79041362324
  0
VERTEX
  8
54
 62
7
  6
CONTINUOUS
 10
-671.52
 20
1262.72
  0
VERTEX
  8
54
 62
7
  6
CONTINUOUS
 10
-697.12
 20
1276.32
  0
VERTEX
  8
54
 62
7
  6
CONTINUOUS
 10
-739.52
 20
1293.92
  0
VERTEX
  8
54
 62
7
  6
CONTINUOUS
 10
-756.32
 20
1303.52
  0
VERTEX
  8
54
 62
7
  6
CONTINUOUS
 10
-772.32
 20
1318.72
  0
VERTEX
  8
54
 62
7
  6
CONTINUOUS
 10
-785.92
 20
1335.52
  0
VERTEX
  8
54
 62
7
  6
CONTINUOUS
 10
-792.32
 20
1345.92
  0
VERTEX
  8
54
 62
7
  6
CONTINUOUS
 10
-802.72
 20
1356.32
  0
VERTEX
  8
54
 62
7
  6
CONTINUOUS
 10
-813.92
 20
1362.72
  0
VERTEX
  8
54
 62
7
  6
CONTINUOUS
 10
-817.92
 20
1366.72
  0
VERTEX
  8
54
 62
7
  6
CONTINUOUS
 10
-821.92
 20
1366.72
  0
VERTEX
  8
54
 62
7
  6
CONTINUOUS
 10
-834.72
 20
1371.52
  0
VERTEX
  8
54
 62
7
  6
CONTINUOUS
 10
-877.92
 20
1372.32
  0
VERTEX
  8
54
 62
7
  6
CONTINUOUS
 10
-888.32
 20
1374.72
  0
VERTEX
  8
54
 62
7
  6
CONTINUOUS
 10
-901.92
 20
1380.32
  0
VERTEX
  8
54
 62
7
  6
CONTINUOUS
 10
-915.52
 20
1383.52
  0
VERTEX
  8
54
 62
7
  6
CONTINUOUS
 10
-927.52
 20
1383.52
  0
VERTEX
  8
54
 62
7
  6
CONTINUOUS
 10
-938.72
 20
1381.12
  0
VERTEX
  8
54
 62
7
  6
CONTINUOUS
 10
-953.92
 20
1373.12
  0
VERTEX
  8
54
 62
7
  6
CONTINUOUS
 10
-962.72
 20
1365.12
  0
VERTEX
  8
54
 62
7
  6
CONTINUOUS
 10
-972.32
 20
1349.92
  0
VERTEX
  8
54
 62
7
  6
CONTINUOUS
 10
-977.92
 20
1332.32
  0
VERTEX
  8
54
 62
7
  6
CONTINUOUS
 10
-980.32
 20
1317.12
  0
SEQEND
  0
POLYLINE
  8
54
 62
7
 66
1
 70
1
  0
VERTEX
  8
54
 62
7
  6
CONTINUOUS
 10
-727.52
 20
1996.32
  0
VERTEX
  8
54
 62
7
  6
CONTINUOUS
 10
-722.72
 20
1981.92
  0
VERTEX
  8
54
 62
7
  6
CONTINUOUS
 10
-713.12
 20
1970.72
  0
VERTEX
  8
54
 62
7
  6
CONTINUOUS
 10
-704.32
 20
1965.92
  0
VERTEX
  8
54
 62
7
  6
CONTINUOUS
 10
-690.72
 20
1965.92
  0
VERTEX
  8
54
 62
7
  6
CONTINUOUS
 10
-681.12
 20
1967.52
  0
VERTEX
  8
54
 62
7
  6
CONTINUOUS
 10
-646.72
 20
1975.52
  0
VERTEX
  8
54
 62
7
  6
CONTINUOUS
 10
-623.52
 20
1975.52
  0
VERTEX
  8
54
 62
7
  6
CONTINUOUS
 10
-606.72
 20
1978.72
  0
VERTEX
  8
54
 62
7
  6
CONTINUOUS
 10
-579.52
 20
1979.52
  0
VERTEX
  8
54
 62
7
  6
CONTINUOUS
 10
-561.92
 20
1989.12
  0
VERTEX
  8
54
 62
7
  6
CONTINUOUS
 10
-546.72
 20
1994.72
  0
VERTEX
  8
54
 62
7
  6
CONTINUOUS
 10
-525.92
 20
2005.92
  0
VERTEX
  8
54
 62
7
  6
CONTINUOUS
 10
-500.32
 20
2015.52
  0
VERTEX
  8
54
 62
7
  6
CONTINUOUS
 10
-495.52
 20
2019.52
  0
VERTEX
  8
54
 62
7
  6
CONTINUOUS
 10
-494.72
 20
2024.32
  0
VERTEX
  8
54
 62
7
  6
CONTINUOUS
 10
-497.92
 20
2030.72
  0
VERTEX
  8
54
 62
7
  6
CONTINUOUS
 10
-503.52
 20
2037.12
  0
VERTEX
  8
54
 62
7
  6
CONTINUOUS
 10
-509.92
 20
2041.12
  0
VERTEX
  8
54
 62
7
  6
CONTINUOUS
 10
-518.72
 20
2043.52
  0
VERTEX
  8
54
 62
7
  6
CONTINUOUS
 10
-533.12
 20
2042.72
  0
VERTEX
  8
54
 62
7
  6
CONTINUOUS
 10
-546.72
 20
2037.92
  0
VERTEX
  8
54
 62
7
  6
CONTINUOUS
 10
-555.52
 20
2037.92
  0
VERTEX
  8
54
 62
7
  6
CONTINUOUS
 10
-570.72
 20
2041.92
  0
VERTEX
  8
54
 62
7
  6
CONTINUOUS
 10
-580.32
 20
2042.72
  0
VERTEX
  8
54
 62
7
  6
CONTINUOUS
 10
-585.12
 20
2041.92
  0
VERTEX
  8
54
 62
7
  6
CONTINUOUS
 10
-600.32
 20
2035.52
  0
VERTEX
  8
54
 62
7
  6
CONTINUOUS
 10
-609.12
 20
2034.72
  0
VERTEX
  8
54
 62
7
  6
CONTINUOUS
 10
-625.92
 20
2040.32
  0
VERTEX
  8
54
 62
7
  6
CONTINUOUS
 10
-660.32
 20
2055.52
  0
VERTEX
  8
54
 62
7
  6
CONTINUOUS
 10
-672.32
 20
2055.52
  0
VERTEX
  8
54
 62
7
  6
CONTINUOUS
 10
-678.72
 20
2049.12
  0
VERTEX
  8
54
 62
7
  6
CONTINUOUS
 10
-684.32
 20
2033.92
  0
VERTEX
  8
54
 62
7
  6
CONTINUOUS
 10
-689.92
 20
2026.72
  0
VERTEX
  8
54
 62
7
  6
CONTINUOUS
 10
-698.72
 20
2021.12
  0
VERTEX
  8
54
 62
7
  6
CONTINUOUS
 10
-710.72
 20
2018.72
  0
VERTEX
  8
54
 62
7
  6
CONTINUOUS
 10
-719.52
 20
2015.52
  0
VERTEX
  8
54
 62
7
  6
CONTINUOUS
 10
-724.32
 20
2011.52
  0
VERTEX
  8
54
 62
7
  6
CONTINUOUS
 10
-726.72
 20
2006.72
  0
SEQEND
  0
POLYLINE
  8
54
 62
7
 66
1
 70
1
  0
VERTEX
  8
54
 62
7
  6
CONTINUOUS
 10
-820.32
 20
2168.32
  0
VERTEX
  8
54
 62
7
  6
CONTINUOUS
 10
-819.52
 20
2157.92
  0
VERTEX
  8
54
 62
7
  6
CONTINUOUS
 10
-815.52
 20
2154.72
  0
VERTEX
  8
54
 62
7
  6
CONTINUOUS
 10
-811.52
 20
2154.72
  0
VERTEX
  8
54
 62
7
  6
CONTINUOUS
 10
-801.12
 20
2157.12
  0
VERTEX
  8
54
 62
7
  6
CONTINUOUS
 10
-794.72
 20
2160.32
  0
VERTEX
  8
54
 62
7
  6
CONTINUOUS
 10
-777.92
 20
2171.52
  0
VERTEX
  8
54
 62
7
  6
CONTINUOUS
 10
-737.12
 20
2204.32
  0
VERTEX
  8
54
 62
7
  6
CONTINUOUS
 10
-727.52
 20
2213.92
  0
VERTEX
  8
54
 62
7
  6
CONTINUOUS
 10
-707.52
 20
2229.12
  0
VERTEX
  8
54
 62
7
  6
CONTINUOUS
 10
-689.12
 20
2239.52
  0
VERTEX
  8
54
 62
7
  6
CONTINUOUS
 10
-678.72
 20
2243.52
  0
VERTEX
  8
54
 62
7
  6
CONTINUOUS
 10
-670.72
 20
2242.72
  0
VERTEX
  8
54
 62
7
  6
CONTINUOUS
 10
-661.92
 20
2238.72
  0
VERTEX
  8
54
 62
7
  6
CONTINUOUS
 10
-650.72
 20
2227.52
  0
VERTEX
  8
54
 62
7
  6
CONTINUOUS
 10
-638.72
 20
2218.72
  0
VERTEX
  8
54
 62
7
  6
CONTINUOUS
 10
-614.72
 20
2205.12
  0
VERTEX
  8
54
 62
7
  6
CONTINUOUS
 10
-587.52
 20
2196.32
  0
VERTEX
  8
54
 62
7
  6
CONTINUOUS
 10
-572.32
 20
2193.92
  0
VERTEX
  8
54
 62
7
  6
CONTINUOUS
 10
-561.92
 20
2189.12
  0
VERTEX
  8
54
 62
7
  6
CONTINUOUS
 10
-545.92
 20
2185.12
  0
VERTEX
  8
54
 62
7
  6
CONTINUOUS
 10
-536.32
 20
2180.32
  0
VERTEX
  8
54
 62
7
  6
CONTINUOUS
 10
-515.52
 20
2174.72
  0
VERTEX
  8
54
 62
7
  6
CONTINUOUS
 10
-506.72
 20
2173.92
  0
VERTEX
  8
54
 62
7
  6
CONTINUOUS
 10
-498.72
 20
2171.52
  0
VERTEX
  8
54
 62
7
  6
CONTINUOUS
 10
-464.32
 20
2170.72
  0
VERTEX
  8
54
 62
7
  6
CONTINUOUS
 10
-444.32
 20
2175.52
  0
VERTEX
  8
54
 62
7
  6
CONTINUOUS
 10
-244.474171020887
 20
2120.90276830385
  0
VERTEX
  8
54
 62
7
  6
CONTINUOUS
 10
-256.681849226432
 20
2185.06460309591
  0
VERTEX
  8
54
 62
7
  6
CONTINUOUS
 10
-421.925111782715
 20
2239.6789017374
  0
VERTEX
  8
54
 62
7
  6
CONTINUOUS
 10
-483.541243583362
 20
2277.48880079689
  0
VERTEX
  8
54
 62
7
  6
CONTINUOUS
 10
-580.32
 20
2282.72
  0
VERTEX
  8
54
 62
7
  6
CONTINUOUS
 10
-592.32
 20
2286.72
  0
VERTEX
  8
54
 62
7
  6
CONTINUOUS
 10
-606.72
 20
2293.92
  0
VERTEX
  8
54
 62
7
  6
CONTINUOUS
 10
-633.12
 20
2312.32
  0
VERTEX
  8
54
 62
7
  6
CONTINUOUS
 10
-643.52
 20
2317.92
  0
VERTEX
  8
54
 62
7
  6
CONTINUOUS
 10
-671.52
 20
2340.32
  0
VERTEX
  8
54
 62
7
  6
CONTINUOUS
 10
-684.32
 20
2347.52
  0
VERTEX
  8
54
 62
7
  6
CONTINUOUS
 10
-691.52
 20
2353.12
  0
VERTEX
  8
54
 62
7
  6
CONTINUOUS
 10
-702.72
 20
2358.72
  0
VERTEX
  8
54
 62
7
  6
CONTINUOUS
 10
-711.52
 20
2362.72
  0
VERTEX
  8
54
 62
7
  6
CONTINUOUS
 10
-723.52
 20
2365.92
  0
VERTEX
  8
54
 62
7
  6
CONTINUOUS
 10
-730.72
 20
2365.12
  0
VERTEX
  8
54
 62
7
  6
CONTINUOUS
 10
-742.72
 20
2360.32
  0
VERTEX
  8
54
 62
7
  6
CONTINUOUS
 10
-754.72
 20
2349.12
  0
VERTEX
  8
54
 62
7
  6
CONTINUOUS
 10
-760.32
 20
2332.32
  0
VERTEX
  8
54
 62
7
  6
CONTINUOUS
 10
-759.52
 20
2313.12
  0
VERTEX
  8
54
 62
7
  6
CONTINUOUS
 10
-754.72
 20
2293.92
  0
VERTEX
  8
54
 62
7
  6
CONTINUOUS
 10
-751.52
 20
2272.32
  0
VERTEX
  8
54
 62
7
  6
CONTINUOUS
 10
-751.52
 20
2253.12
  0
VERTEX
  8
54
 62
7
  6
CONTINUOUS
 10
-753.92
 20
2245.12
  0
VERTEX
  8
54
 62
7
  6
CONTINUOUS
 10
-759.52
 20
2234.72
  0
VERTEX
  8
54
 62
7
  6
CONTINUOUS
 10
-771.52
 20
2221.12
  0
VERTEX
  8
54
 62
7
  6
CONTINUOUS
 10
-796.32
 20
2195.52
  0
VERTEX
  8
54
 62
7
  6
CONTINUOUS
 10
-798.72
 20
2194.72
  0
VERTEX
  8
54
 62
7
  6
CONTINUOUS
 10
-809.92
 20
2184.32
  0
SEQEND
  0
POLYLINE
  8
54
 62
7
 66
1
 70
1
  0
VERTEX
  8
54
 62
7
  6
CONTINUOUS
 10
-770.72
 20
1446.72
  0
VERTEX
  8
54
 62
7
  6
CONTINUOUS
 10
-770.72
 20
1441.12
  0
VERTEX
  8
54
 62
7
  6
CONTINUOUS
 10
-768.32
 20
1434.72
  0
VERTEX
  8
54
 62
7
  6
CONTINUOUS
 10
-761.92
 20
1424.32
  0
VERTEX
  8
54
 62
7
  6
CONTINUOUS
 10
-759.52
 20
1416.32
  0
VERTEX
  8
54
 62
7
  6
CONTINUOUS
 10
-753.12
 20
1403.52
  0
VERTEX
  8
54
 62
7
  6
CONTINUOUS
 10
-746.72
 20
1396.32
  0
VERTEX
  8
54
 62
7
  6
CONTINUOUS
 10
-741.92
 20
1393.92
  0
VERTEX
  8
54
 62
7
  6
CONTINUOUS
 10
-717.12
 20
1391.52
  0
VERTEX
  8
54
 62
7
  6
CONTINUOUS
 10
-698.72
 20
1394.72
  0
VERTEX
  8
54
 62
7
  6
CONTINUOUS
 10
-687.52
 20
1394.72
  0
VERTEX
  8
54
 62
7
  6
CONTINUOUS
 10
-681.12
 20
1398.72
  0
VERTEX
  8
54
 62
7
  6
CONTINUOUS
 10
-678.72
 20
1401.92
  0
VERTEX
  8
54
 62
7
  6
CONTINUOUS
 10
-680.32
 20
1414.72
  0
VERTEX
  8
54
 62
7
  6
CONTINUOUS
 10
-677.92
 20
1419.52
  0
VERTEX
  8
54
 62
7
  6
CONTINUOUS
 10
-677.92
 20
1425.92
  0
VERTEX
  8
54
 62
7
  6
CONTINUOUS
 10
-681.12
 20
1432.32
  0
VERTEX
  8
54
 62
7
  6
CONTINUOUS
 10
-689.12
 20
1441.12
  0
VERTEX
  8
54
 62
7
  6
CONTINUOUS
 10
-692.32
 20
1450.72
  0
VERTEX
  8
54
 62
7
  6
CONTINUOUS
 10
-709.92
 20
1466.72
  0
VERTEX
  8
54
 62
7
  6
CONTINUOUS
 10
-718.72
 20
1469.92
  0
VERTEX
  8
54
 62
7
  6
CONTINUOUS
 10
-741.12
 20
1470.72
  0
VERTEX
  8
54
 62
7
  6
CONTINUOUS
 10
-757.92
 20
1465.12
  0
VERTEX
  8
54
 62
7
  6
CONTINUOUS
 10
-767.52
 20
1455.52
  0
SEQEND
  0
POLYLINE
  8
54
 62
7
 66
1
 70
1
  0
VERTEX
  8
54
 62
7
  6
CONTINUOUS
 10
-422.72
 20
2513.12
  0
VERTEX
  8
54
 62
7
  6
CONTINUOUS
 10
-422.72
 20
2508.32
  0
VERTEX
  8
54
 62
7
  6
CONTINUOUS
 10
-420.32
 20
2502.72
  0
VERTEX
  8
54
 62
7
  6
CONTINUOUS
 10
-411.52
 20
2492.32
  0
VERTEX
  8
54
 62
7
  6
CONTINUOUS
 10
-402.72
 20
2484.32
  0
VERTEX
  8
54
 62
7
  6
CONTINUOUS
 10
-397.92
 20
2485.12
  0
VERTEX
  8
54
 62
7
  6
CONTINUOUS
 10
-398.72
 20
2490.72
  0
VERTEX
  8
54
 62
7
  6
CONTINUOUS
 10
-406.72
 20
2504.32
  0
VERTEX
  8
54
 62
7
  6
CONTINUOUS
 10
-407.52
 20
2508.32
  0
VERTEX
  8
54
 62
7
  6
CONTINUOUS
 10
-415.52
 20
2514.72
  0
VERTEX
  8
54
 62
7
  6
CONTINUOUS
 10
-421.12
 20
2514.72
  0
SEQEND
  0
POLYLINE
  8
54
 62
7
 66
1
 70
1
  0
VERTEX
  8
54
 62
7
  6
CONTINUOUS
 10
-417.12
 20
2149.92
  0
VERTEX
  8
54
 62
7
  6
CONTINUOUS
 10
-417.12
 20
2148.32
  0
VERTEX
  8
54
 62
7
  6
CONTINUOUS
 10
-414.72
 20
2146.72
  0
VERTEX
  8
54
 62
7
  6
CONTINUOUS
 10
-406.72
 20
2145.92
  0
VERTEX
  8
54
 62
7
  6
CONTINUOUS
 10
-381.92
 20
2147.52
  0
VERTEX
  8
54
 62
7
  6
CONTINUOUS
 10
-325.12
 20
2147.52
  0
VERTEX
  8
54
 62
7
  6
CONTINUOUS
 10
-297.12
 20
2142.72
  0
VERTEX
  8
54
 62
7
  6
CONTINUOUS
 10
-290.72
 20
2143.52
  0
VERTEX
  8
54
 62
7
  6
CONTINUOUS
 10
-345.92
 20
2185.12
  0
VERTEX
  8
54
 62
7
  6
CONTINUOUS
 10
-363.52
 20
2178.72
  0
VERTEX
  8
54
 62
7
  6
CONTINUOUS
 10
-406.72
 20
2158.72
  0
SEQEND
  0
POLYLINE
  8
54
 62
7
 66
1
 70
1
  0
VERTEX
  8
54
 62
7
  6
CONTINUOUS
 10
-272.32
 20
2479.52
  0
VERTEX
  8
54
 62
7
  6
CONTINUOUS
 10
-270.72
 20
2466.72
  0
VERTEX
  8
54
 62
7
  6
CONTINUOUS
 10
-267.52
 20
2456.32
  0
VERTEX
  8
54
 62
7
  6
CONTINUOUS
 10
-262.72
 20
2446.72
  0
VERTEX
  8
54
 62
7
  6
CONTINUOUS
 10
-257.12
 20
2439.52
  0
VERTEX
  8
54
 62
7
  6
CONTINUOUS
 10
-245.92
 20
2428.32
  0
VERTEX
  8
54
 62
7
  6
CONTINUOUS
 10
-235.52
 20
2421.12
  0
VERTEX
  8
54
 62
7
  6
CONTINUOUS
 10
-224.32
 20
2415.52
  0
VERTEX
  8
54
 62
7
  6
CONTINUOUS
 10
-209.12
 20
2411.52
  0
VERTEX
  8
54
 62
7
  6
CONTINUOUS
 10
-197.92
 20
2409.92
  0
VERTEX
  8
54
 62
7
  6
CONTINUOUS
 10
-181.12
 20
2409.92
  0
VERTEX
  8
54
 62
7
  6
CONTINUOUS
 10
-152.32
 20
2415.52
  0
VERTEX
  8
54
 62
7
  6
CONTINUOUS
 10
-124.32
 20
2426.72
  0
VERTEX
  8
54
 62
7
  6
CONTINUOUS
 10
-115.0113921714
 20
2430.44344313006
  0
VERTEX
  8
54
 62
7
  6
CONTINUOUS
 10
-119.444085286462
 20
2431.29505032318
  0
VERTEX
  8
54
 62
7
  6
CONTINUOUS
 10
-120.883026666094
 20
2442.27909699919
  0
VERTEX
  8
54
 62
7
  6
CONTINUOUS
 10
-184.956991742774
 20
2458.27992973127
  0
VERTEX
  8
54
 62
7
  6
CONTINUOUS
 10
-212.737476866136
 20
2467.94088687231
  0
VERTEX
  8
54
 62
7
  6
CONTINUOUS
 10
-231.300783905278
 20
2486.49654792612
  0
VERTEX
  8
54
 62
7
  6
CONTINUOUS
 10
-232.293455735612
 20
2486.70554116331
  0
VERTEX
  8
54
 62
7
  6
CONTINUOUS
 10
-261.112690860352
 20
2514.71971331657
  0
VERTEX
  8
54
 62
7
  6
CONTINUOUS
 10
-270.751196326876
 20
2506.71821131184
  0
VERTEX
  8
54
 62
7
  6
CONTINUOUS
 10
-271.367818376906
 20
2507.13326707841
  0
VERTEX
  8
54
 62
7
  6
CONTINUOUS
 10
-271.52
 20
2502.72
  0
SEQEND
  0
POLYLINE
  8
54
 62
7
 66
1
 70
1
  0
VERTEX
  8
54
 62
7
  6
CONTINUOUS
 10
-325.12
 20
2131.52
  0
VERTEX
  8
54
 62
7
  6
CONTINUOUS
 10
-325.12
 20
2123.52
  0
VERTEX
  8
54
 62
7
  6
CONTINUOUS
 10
-319.52
 20
2113.12
  0
VERTEX
  8
54
 62
7
  6
CONTINUOUS
 10
-305.92
 20
2098.72
  0
VERTEX
  8
54
 62
7
  6
CONTINUOUS
 10
-293.12
 20
2087.52
  0
VERTEX
  8
54
 62
7
  6
CONTINUOUS
 10
-264.32
 20
2068.32
  0
VERTEX
  8
54
 62
7
  6
CONTINUOUS
 10
-217.12
 20
2045.92
  0
VERTEX
  8
54
 62
7
  6
CONTINUOUS
 10
-183.52
 20
2037.12
  0
VERTEX
  8
54
 62
7
  6
CONTINUOUS
 10
-173.12
 20
2035.52
  0
VERTEX
  8
54
 62
7
  6
CONTINUOUS
 10
-157.92
 20
2035.52
  0
VERTEX
  8
54
 62
7
  6
CONTINUOUS
 10
-137.12
 20
2041.12
  0
VERTEX
  8
54
 62
7
  6
CONTINUOUS
 10
-122.72
 20
2053.12
  0
VERTEX
  8
54
 62
7
  6
CONTINUOUS
 10
-113.92
 20
2058.72
  0
SEQEND
  0
POLYLINE
  8
54
 62
7
 66
1
 70
1
  0
VERTEX
  8
54
 62
7
  6
CONTINUOUS
 10
-109.92
 20
2040.32
  0
VERTEX
  8
54
 62
7
  6
CONTINUOUS
 10
-109.92
 20
2035.52
  0
VERTEX
  8
54
 62
7
  6
CONTINUOUS
 10
-108.32
 20
2033.92
  0
VERTEX
  8
54
 62
7
  6
CONTINUOUS
 10
-108.32
 20
2030.72
  0
VERTEX
  8
54
 62
7
  6
CONTINUOUS
 10
-101.92
 20
2024.32
  0
VERTEX
  8
54
 62
7
  6
CONTINUOUS
 10
-95.52
 20
2024.32
  0
VERTEX
  8
54
 62
7
  6
CONTINUOUS
 10
-90.72
 20
2027.52
  0
VERTEX
  8
54
 62
7
  6
CONTINUOUS
 10
-89.12
 20
2029.92
  0
VERTEX
  8
54
 62
7
  6
CONTINUOUS
 10
-89.12
 20
2035.52
  0
VERTEX
  8
54
 62
7
  6
CONTINUOUS
 10
-95.52
 20
2041.92
  0
VERTEX
  8
54
 62
7
  6
CONTINUOUS
 10
-100.32
 20
2044.32
  0
VERTEX
  8
54
 62
7
  6
CONTINUOUS
 10
-104.32
 20
2044.32
  0
SEQEND
  0
POLYLINE
  8
54
 62
7
 66
1
 70
1
  0
VERTEX
  8
54
 62
7
  6
CONTINUOUS
 10
-119.52
 20
1587.52
  0
VERTEX
  8
54
 62
7
  6
CONTINUOUS
 10
-119.52
 20
1581.92
  0
VERTEX
  8
54
 62
7
  6
CONTINUOUS
 10
-117.92
 20
1577.12
  0
VERTEX
  8
54
 62
7
  6
CONTINUOUS
 10
-113.12
 20
1567.52
  0
VERTEX
  8
54
 62
7
  6
CONTINUOUS
 10
-94.2395857090775
 20
1540.24829046867
  0
VERTEX
  8
54
 62
7
  6
CONTINUOUS
 10
-93.8966183614303
 20
1540.36188010941
  0
VERTEX
  8
54
 62
7
  6
CONTINUOUS
 10
-95.4910038684389
 20
1547.59196934989
  0
VERTEX
  8
54
 62
7
  6
CONTINUOUS
 10
-77.9935902474008
 20
1558.53341019986
  0
VERTEX
  8
54
 62
7
  6
CONTINUOUS
 10
-82.7479552277252
 20
1574.09425502099
  0
VERTEX
  8
54
 62
7
  6
CONTINUOUS
 10
-69.0364965292318
 20
1566.93510332248
  0
VERTEX
  8
54
 62
7
  6
CONTINUOUS
 10
-68.2299960375827
 20
1568.40458118799
  0
VERTEX
  8
54
 62
7
  6
CONTINUOUS
 10
-84.32
 20
1577.12
  0
VERTEX
  8
54
 62
7
  6
CONTINUOUS
 10
-89.12
 20
1577.92
  0
VERTEX
  8
54
 62
7
  6
CONTINUOUS
 10
-108.32
 20
1588.32
  0
VERTEX
  8
54
 62
7
  6
CONTINUOUS
 10
-113.12
 20
1589.92
  0
VERTEX
  8
54
 62
7
  6
CONTINUOUS
 10
-117.92
 20
1589.12
  0
SEQEND
  0
POLYLINE
  8
54
 62
7
 66
1
 70
1
  0
VERTEX
  8
54
 62
7
  6
CONTINUOUS
 10
-129.92
 20
1688.32
  0
VERTEX
  8
54
 62
7
  6
CONTINUOUS
 10
-129.92
 20
1681.92
  0
VERTEX
  8
54
 62
7
  6
CONTINUOUS
 10
-128.32
 20
1677.92
  0
VERTEX
  8
54
 62
7
  6
CONTINUOUS
 10
-115.52
 20
1662.72
  0
VERTEX
  8
54
 62
7
  6
CONTINUOUS
 10
-110.72
 20
1653.92
  0
VERTEX
  8
54
 62
7
  6
CONTINUOUS
 10
-109.12
 20
1647.52
  0
VERTEX
  8
54
 62
7
  6
CONTINUOUS
 10
-108.32
 20
1616.32
  0
VERTEX
  8
54
 62
7
  6
CONTINUOUS
 10
-105.92
 20
1606.72
  0
VERTEX
  8
54
 62
7
  6
CONTINUOUS
 10
-101.12
 20
1601.12
  0
VERTEX
  8
54
 62
7
  6
CONTINUOUS
 10
-88.32
 20
1600.32
  0
VERTEX
  8
54
 62
7
  6
CONTINUOUS
 10
-77.12
 20
1603.52
  0
VERTEX
  8
54
 62
7
  6
CONTINUOUS
 10
-59.52
 20
1613.12
  0
VERTEX
  8
54
 62
7
  6
CONTINUOUS
 10
-45.6706485991425
 20
1620.67419167277
  0
VERTEX
  8
54
 62
7
  6
CONTINUOUS
 10
-41.8035317578171
 20
1633.32685727001
  0
VERTEX
  8
54
 62
7
  6
CONTINUOUS
 10
-81.8677381437914
 20
1667.20710735732
  0
VERTEX
  8
54
 62
7
  6
CONTINUOUS
 10
-96.8652746441912
 20
1685.13094884656
  0
VERTEX
  8
54
 62
7
  6
CONTINUOUS
 10
-81.0715027640407
 20
1683.66822292154
  0
VERTEX
  8
54
 62
7
  6
CONTINUOUS
 10
-97.9807841407209
 20
1694.09143626657
  0
VERTEX
  8
54
 62
7
  6
CONTINUOUS
 10
-96.2585380393559
 20
1697.92
  0
VERTEX
  8
54
 62
7
  6
CONTINUOUS
 10
-118.72
 20
1697.92
  0
VERTEX
  8
54
 62
7
  6
CONTINUOUS
 10
-125.12
 20
1694.72
  0
SEQEND
  0
POLYLINE
  8
54
 62
7
 66
1
 70
1
  0
VERTEX
  8
54
 62
7
  6
CONTINUOUS
 10
-98.72
 20
1860.32
  0
VERTEX
  8
54
 62
7
  6
CONTINUOUS
 10
-93.92
 20
1833.92
  0
VERTEX
  8
54
 62
7
  6
CONTINUOUS
 10
-77.12
 20
1781.12
  0
VERTEX
  8
54
 62
7
  6
CONTINUOUS
 10
-67.52
 20
1765.12
  0
VERTEX
  8
54
 62
7
  6
CONTINUOUS
 10
-53.12
 20
1750.72
  0
VERTEX
  8
54
 62
7
  6
CONTINUOUS
 10
-5.98357919134617
 20
1703.58357919352
  0
VERTEX
  8
54
 62
7
  6
CONTINUOUS
 10
-6.55313136569426
 20
1937.72964541135
  0
VERTEX
  8
54
 62
7
  6
CONTINUOUS
 10
-17.9201946652853
 20
1938.72067491375
  0
VERTEX
  8
54
 62
7
  6
CONTINUOUS
 10
-5.80995123539944
 20
1947.78254792075
  0
VERTEX
  8
54
 62
7
  6
CONTINUOUS
 10
-8.03809014610013
 20
1976.54330164189
  0
VERTEX
  8
54
 62
7
  6
CONTINUOUS
 10
-12.3198577382553
 20
1985.02374427149
  0
VERTEX
  8
54
 62
7
  6
CONTINUOUS
 10
-6.8357457976221
 20
1995.52360053862
  0
VERTEX
  8
54
 62
7
  6
CONTINUOUS
 10
-9.26431729412238
 20
2001.70633054855
  0
VERTEX
  8
54
 62
7
  6
CONTINUOUS
 10
-27.2738758504527
 20
1978.43983358973
  0
VERTEX
  8
54
 62
7
  6
CONTINUOUS
 10
-38.5734290860691
 20
1975.30123872197
  0
VERTEX
  8
54
 62
7
  6
CONTINUOUS
 10
-25.9245663541357
 20
1995.5266211199
  0
VERTEX
  8
54
 62
7
  6
CONTINUOUS
 10
-49.3503885379176
 20
1991.0197021603
  0
VERTEX
  8
54
 62
7
  6
CONTINUOUS
 10
-44.866940792249
 20
1997.39275218877
  0
VERTEX
  8
54
 62
7
  6
CONTINUOUS
 10
-33.2234848663627
 20
2004.29282120498
  0
VERTEX
  8
54
 62
7
  6
CONTINUOUS
 10
-21.1350030712669
 20
2004.30976745066
  0
VERTEX
  8
54
 62
7
  6
CONTINUOUS
 10
-17.5109166359435
 20
2013.79810434999
  0
VERTEX
  8
54
 62
7
  6
CONTINUOUS
 10
-31.1492084453546
 20
2034.14553373766
  0
VERTEX
  8
54
 62
7
  6
CONTINUOUS
 10
-56.296681890794
 20
2046.70742100508
  0
VERTEX
  8
54
 62
7
  6
CONTINUOUS
 10
-58.1525166098563
 20
2047.76995254305
  0
VERTEX
  8
54
 62
7
  6
CONTINUOUS
 10
-68.32
 20
2018.72
  0
VERTEX
  8
54
 62
7
  6
CONTINUOUS
 10
-73.92
 20
2002.72
  0
VERTEX
  8
54
 62
7
  6
CONTINUOUS
 10
-80.32
 20
1989.92
  0
VERTEX
  8
54
 62
7
  6
CONTINUOUS
 10
-82.72
 20
1978.72
  0
VERTEX
  8
54
 62
7
  6
CONTINUOUS
 10
-86.72
 20
1968.32
  0
VERTEX
  8
54
 62
7
  6
CONTINUOUS
 10
-90.72
 20
1945.12
  0
VERTEX
  8
54
 62
7
  6
CONTINUOUS
 10
-93.12
 20
1937.92
  0
VERTEX
  8
54
 62
7
  6
CONTINUOUS
 10
-93.12
 20
1932.32
  0
VERTEX
  8
54
 62
7
  6
CONTINUOUS
 10
-97.92
 20
1905.92
  0
SEQEND
  0
POLYLINE
  8
54
 62
7
 66
1
 70
1
  0
VERTEX
  8
54
 62
7
  6
CONTINUOUS
 10
-363.52
 20
2410.72
  0
VERTEX
  8
54
 62
7
  6
CONTINUOUS
 10
-363.52
 20
2405.12
  0
VERTEX
  8
54
 62
7
  6
CONTINUOUS
 10
-361.92
 20
2402.72
  0
VERTEX
  8
54
 62
7
  6
CONTINUOUS
 10
-352.32
 20
2403.52
  0
VERTEX
  8
54
 62
7
  6
CONTINUOUS
 10
-345.92
 20
2410.72
  0
VERTEX
  8
54
 62
7
  6
CONTINUOUS
 10
-345.92
 20
2416.32
  0
VERTEX
  8
54
 62
7
  6
CONTINUOUS
 10
-349.92
 20
2418.72
  0
VERTEX
  8
54
 62
7
  6
CONTINUOUS
 10
-352.32
 20
2418.72
  0
VERTEX
  8
54
 62
7
  6
CONTINUOUS
 10
-360.32
 20
2414.72
  0
SEQEND
  0
POLYLINE
  8
54
 62
7
 66
1
 70
1
  0
VERTEX
  8
54
 62
7
  6
CONTINUOUS
 10
-744.32
 20
2334.72
  0
VERTEX
  8
54
 62
7
  6
CONTINUOUS
 10
-744.32
 20
2320.32
  0
VERTEX
  8
54
 62
7
  6
CONTINUOUS
 10
-739.52
 20
2309.92
  0
VERTEX
  8
54
 62
7
  6
CONTINUOUS
 10
-731.52
 20
2301.92
  0
VERTEX
  8
54
 62
7
  6
CONTINUOUS
 10
-721.12
 20
2297.12
  0
VERTEX
  8
54
 62
7
  6
CONTINUOUS
 10
-714.72
 20
2295.52
  0
VERTEX
  8
54
 62
7
  6
CONTINUOUS
 10
-705.92
 20
2295.52
  0
VERTEX
  8
54
 62
7
  6
CONTINUOUS
 10
-699.52
 20
2299.52
  0
VERTEX
  8
54
 62
7
  6
CONTINUOUS
 10
-696.32
 20
2304.32
  0
VERTEX
  8
54
 62
7
  6
CONTINUOUS
 10
-684.32
 20
2306.72
  0
VERTEX
  8
54
 62
7
  6
CONTINUOUS
 10
-685.12
 20
2317.92
  0
VERTEX
  8
54
 62
7
  6
CONTINUOUS
 10
-688.32
 20
2329.12
  0
VERTEX
  8
54
 62
7
  6
CONTINUOUS
 10
-694.72
 20
2340.32
  0
VERTEX
  8
54
 62
7
  6
CONTINUOUS
 10
-705.12
 20
2349.92
  0
VERTEX
  8
54
 62
7
  6
CONTINUOUS
 10
-713.92
 20
2353.12
  0
VERTEX
  8
54
 62
7
  6
CONTINUOUS
 10
-725.12
 20
2352.32
  0
VERTEX
  8
54
 62
7
  6
CONTINUOUS
 10
-735.52
 20
2347.52
  0
VERTEX
  8
54
 62
7
  6
CONTINUOUS
 10
-740.32
 20
2342.72
  0
SEQEND
  0
POLYLINE
  8
54
 62
7
 66
1
 70
1
  0
VERTEX
  8
54
 62
7
  6
CONTINUOUS
 10
-705.12
 20
2494.72
  0
VERTEX
  8
54
 62
7
  6
CONTINUOUS
 10
-704.32
 20
2451.52
  0
VERTEX
  8
54
 62
7
  6
CONTINUOUS
 10
-702.72
 20
2444.32
  0
VERTEX
  8
54
 62
7
  6
CONTINUOUS
 10
-699.52
 20
2440.32
  0
VERTEX
  8
54
 62
7
  6
CONTINUOUS
 10
-697.12
 20
2440.32
  0
VERTEX
  8
54
 62
7
  6
CONTINUOUS
 10
-695.52
 20
2441.92
  0
VERTEX
  8
54
 62
7
  6
CONTINUOUS
 10
-692.32
 20
2452.32
  0
VERTEX
  8
54
 62
7
  6
CONTINUOUS
 10
-689.12
 20
2469.92
  0
VERTEX
  8
54
 62
7
  6
CONTINUOUS
 10
-688.32
 20
2485.12
  0
VERTEX
  8
54
 62
7
  6
CONTINUOUS
 10
-688.32
 20
2514.72
  0
VERTEX
  8
54
 62
7
  6
CONTINUOUS
 10
-689.92
 20
2518.72
  0
VERTEX
  8
54
 62
7
  6
CONTINUOUS
 10
-689.12
 20
2559.52
  0
VERTEX
  8
54
 62
7
  6
CONTINUOUS
 10
-691.52
 20
2563.52
  0
VERTEX
  8
54
 62
7
  6
CONTINUOUS
 10
-693.92
 20
2564.32
  0
VERTEX
  8
54
 62
7
  6
CONTINUOUS
 10
-697.92
 20
2561.92
  0
VERTEX
  8
54
 62
7
  6
CONTINUOUS
 10
-701.12
 20
2551.52
  0
SEQEND
  0
POLYLINE
  8
54
 62
7
 66
1
 70
1
  0
VERTEX
  8
54
 62
7
  6
CONTINUOUS
 10
-781.92
 20
2626.72
  0
VERTEX
  8
54
 62
7
  6
CONTINUOUS
 10
-781.92
 20
2619.52
  0
VERTEX
  8
54
 62
7
  6
CONTINUOUS
 10
-778.72
 20
2617.12
  0
VERTEX
  8
54
 62
7
  6
CONTINUOUS
 10
-772.32
 20
2617.12
  0
VERTEX
  8
54
 62
7
  6
CONTINUOUS
 10
-764.32
 20
2620.32
  0
VERTEX
  8
54
 62
7
  6
CONTINUOUS
 10
-761.12
 20
2620.32
  0
VERTEX
  8
54
 62
7
  6
CONTINUOUS
 10
-738.72
 20
2630.72
  0
VERTEX
  8
54
 62
7
  6
CONTINUOUS
 10
-736.32
 20
2630.72
  0
VERTEX
  8
54
 62
7
  6
CONTINUOUS
 10
-711.52
 20
2643.52
  0
VERTEX
  8
54
 62
7
  6
CONTINUOUS
 10
-695.52
 20
2648.32
  0
VERTEX
  8
54
 62
7
  6
CONTINUOUS
 10
-679.559331853846
 20
2653.10820044245
  0
VERTEX
  8
54
 62
7
  6
CONTINUOUS
 10
-699.519890599059
 20
2665.91990591776
  0
VERTEX
  8
54
 62
7
  6
CONTINUOUS
 10
-706.623442158206
 20
2673.99241838135
  0
VERTEX
  8
54
 62
7
  6
CONTINUOUS
 10
-725.92
 20
2659.52
  0
VERTEX
  8
54
 62
7
  6
CONTINUOUS
 10
-752.32
 20
2647.52
  0
VERTEX
  8
54
 62
7
  6
CONTINUOUS
 10
-775.52
 20
2634.72
  0
SEQEND
  0
POLYLINE
  8
54
 62
7
 66
1
 70
1
  0
VERTEX
  8
54
 62
7
  6
CONTINUOUS
 10
-1843.52
 20
2580.32
  0
VERTEX
  8
54
 62
7
  6
CONTINUOUS
 10
-1843.52
 20
2577.12
  0
VERTEX
  8
54
 62
7
  6
CONTINUOUS
 10
-1841.92
 20
2575.52
  0
VERTEX
  8
54
 62
7
  6
CONTINUOUS
 10
-1833.92
 20
2576.32
  0
VERTEX
  8
54
 62
7
  6
CONTINUOUS
 10
-1826.72
 20
2581.92
  0
VERTEX
  8
54
 62
7
  6
CONTINUOUS
 10
-1821.92
 20
2592.32
  0
VERTEX
  8
54
 62
7
  6
CONTINUOUS
 10
-1821.92
 20
2595.52
  0
VERTEX
  8
54
 62
7
  6
CONTINUOUS
 10
-1823.52
 20
2597.12
  0
VERTEX
  8
54
 62
7
  6
CONTINUOUS
 10
-1830.72
 20
2594.72
  0
VERTEX
  8
54
 62
7
  6
CONTINUOUS
 10
-1841.12
 20
2585.12
  0
SEQEND
  0
POLYLINE
  8
54
 62
7
 66
1
 70
1
  0
VERTEX
  8
54
 62
7
  6
CONTINUOUS
 10
-1820.32
 20
2263.52
  0
VERTEX
  8
54
 62
7
  6
CONTINUOUS
 10
-1820.32
 20
2258.72
  0
VERTEX
  8
54
 62
7
  6
CONTINUOUS
 10
-1817.92
 20
2256.32
  0
VERTEX
  8
54
 62
7
  6
CONTINUOUS
 10
-1813.92
 20
2256.32
  0
VERTEX
  8
54
 62
7
  6
CONTINUOUS
 10
-1811.52
 20
2258.72
  0
VERTEX
  8
54
 62
7
  6
CONTINUOUS
 10
-1811.52
 20
2262.72
  0
VERTEX
  8
54
 62
7
  6
CONTINUOUS
 10
-1814.72
 20
2265.92
  0
VERTEX
  8
54
 62
7
  6
CONTINUOUS
 10
-1817.92
 20
2265.92
  0
SEQEND
  0
POLYLINE
  8
54
 62
7
 66
1
 70
1
  0
VERTEX
  8
54
 62
7
  6
CONTINUOUS
 10
-1793.12
 20
2261.92
  0
VERTEX
  8
54
 62
7
  6
CONTINUOUS
 10
-1793.12
 20
2257.12
  0
VERTEX
  8
54
 62
7
  6
CONTINUOUS
 10
-1788.32
 20
2252.32
  0
VERTEX
  8
54
 62
7
  6
CONTINUOUS
 10
-1782.72
 20
2253.12
  0
VERTEX
  8
54
 62
7
  6
CONTINUOUS
 10
-1781.12
 20
2257.12
  0
VERTEX
  8
54
 62
7
  6
CONTINUOUS
 10
-1785.12
 20
2262.72
  0
VERTEX
  8
54
 62
7
  6
CONTINUOUS
 10
-1790.72
 20
2263.52
  0
SEQEND
  0
POLYLINE
  8
54
 62
7
 66
1
 70
1
  0
VERTEX
  8
54
 62
7
  6
CONTINUOUS
 10
-1857.92
 20
1712.32
  0
VERTEX
  8
54
 62
7
  6
CONTINUOUS
 10
-1857.92
 20
1705.92
  0
VERTEX
  8
54
 62
7
  6
CONTINUOUS
 10
-1853.92
 20
1697.12
  0
VERTEX
  8
54
 62
7
  6
CONTINUOUS
 10
-1841.92
 20
1683.52
  0
VERTEX
  8
54
 62
7
  6
CONTINUOUS
 10
-1836.32
 20
1679.52
  0
VERTEX
  8
54
 62
7
  6
CONTINUOUS
 10
-1829.12
 20
1677.12
  0
VERTEX
  8
54
 62
7
  6
CONTINUOUS
 10
-1793.92
 20
1677.12
  0
VERTEX
  8
54
 62
7
  6
CONTINUOUS
 10
-1786.72
 20
1674.72
  0
VERTEX
  8
54
 62
7
  6
CONTINUOUS
 10
-1771.52
 20
1665.92
  0
VERTEX
  8
54
 62
7
  6
CONTINUOUS
 10
-1761.12
 20
1661.92
  0
VERTEX
  8
54
 62
7
  6
CONTINUOUS
 10
-1747.52
 20
1661.92
  0
VERTEX
  8
54
 62
7
  6
CONTINUOUS
 10
-1743.52
 20
1663.52
  0
VERTEX
  8
54
 62
7
  6
CONTINUOUS
 10
-1737.92
 20
1671.52
  0
VERTEX
  8
54
 62
7
  6
CONTINUOUS
 10
-1737.92
 20
1676.32
  0
VERTEX
  8
54
 62
7
  6
CONTINUOUS
 10
-1740.32
 20
1681.92
  0
VERTEX
  8
54
 62
7
  6
CONTINUOUS
 10
-1747.52
 20
1689.12
  0
VERTEX
  8
54
 62
7
  6
CONTINUOUS
 10
-1757.12
 20
1693.92
  0
VERTEX
  8
54
 62
7
  6
CONTINUOUS
 10
-1773.92
 20
1698.72
  0
VERTEX
  8
54
 62
7
  6
CONTINUOUS
 10
-1788.32
 20
1705.92
  0
VERTEX
  8
54
 62
7
  6
CONTINUOUS
 10
-1795.52
 20
1713.92
  0
VERTEX
  8
54
 62
7
  6
CONTINUOUS
 10
-1800.32
 20
1722.72
  0
VERTEX
  8
54
 62
7
  6
CONTINUOUS
 10
-1809.12
 20
1731.52
  0
VERTEX
  8
54
 62
7
  6
CONTINUOUS
 10
-1820.32
 20
1731.52
  0
VERTEX
  8
54
 62
7
  6
CONTINUOUS
 10
-1825.12
 20
1726.72
  0
VERTEX
  8
54
 62
7
  6
CONTINUOUS
 10
-1826.72
 20
1721.92
  0
VERTEX
  8
54
 62
7
  6
CONTINUOUS
 10
-1832.32
 20
1717.12
  0
VERTEX
  8
54
 62
7
  6
CONTINUOUS
 10
-1852.32
 20
1716.32
  0
SEQEND
  0
POLYLINE
  8
54
 62
7
 66
1
 70
1
  0
VERTEX
  8
54
 62
7
  6
CONTINUOUS
 10
-1678.72
 20
2420.32
  0
VERTEX
  8
54
 62
7
  6
CONTINUOUS
 10
-1678.72
 20
2416.32
  0
VERTEX
  8
54
 62
7
  6
CONTINUOUS
 10
-1675.52
 20
2412.32
  0
VERTEX
  8
54
 62
7
  6
CONTINUOUS
 10
-1671.52
 20
2413.12
  0
VERTEX
  8
54
 62
7
  6
CONTINUOUS
 10
-1669.92
 20
2417.92
  0
VERTEX
  8
54
 62
7
  6
CONTINUOUS
 10
-1670.72
 20
2421.12
  0
VERTEX
  8
54
 62
7
  6
CONTINUOUS
 10
-1673.12
 20
2423.52
  0
SEQEND
  0
POLYLINE
  8
54
 62
7
 66
1
 70
1
  0
VERTEX
  8
54
 62
7
  6
CONTINUOUS
 10
-1941.57410734278
 20
579.43303392932
  0
VERTEX
  8
54
 62
7
  6
CONTINUOUS
 10
-1935.52120140843
 20
577.92010763972
  0
VERTEX
  8
54
 62
7
  6
CONTINUOUS
 10
-1923.52317720182
 20
578.71917314796
  0
VERTEX
  8
54
 62
7
  6
CONTINUOUS
 10
-1897.61325323831
 20
591.02616317059
  0
VERTEX
  8
54
 62
7
  6
CONTINUOUS
 10
-1857.11826406904
 20
631.521457251237
  0
VERTEX
  8
54
 62
7
  6
CONTINUOUS
 10
-1841.11898006384
 20
642.720623872518
  0
VERTEX
  8
54
 62
7
  6
CONTINUOUS
 10
-1827.53221529577
 20
649.912822886614
  0
VERTEX
  8
54
 62
7
  6
CONTINUOUS
 10
-1806.72349921543
 20
663.515801168728
  0
VERTEX
  8
54
 62
7
  6
CONTINUOUS
 10
-1791.88672356537
 20
698.954063776968
  0
VERTEX
  8
54
 62
7
  6
CONTINUOUS
 10
-1770.56200645222
 20
738.554829258467
  0
VERTEX
  8
54
 62
7
  6
CONTINUOUS
 10
-1764.65103075698
 20
762.197032145867
  0
VERTEX
  8
54
 62
7
  6
CONTINUOUS
 10
-1734.08258419888
 20
801.757066234649
  0
VERTEX
  8
54
 62
7
  6
CONTINUOUS
 10
-1727.52527968767
 20
808.313003346932
  0
VERTEX
  8
54
 62
7
  6
CONTINUOUS
 10
-1706.73066185213
 20
845.886978672463
  0
VERTEX
  8
54
 62
7
  6
CONTINUOUS
 10
-1705.13883586368
 20
860.287381785203
  0
VERTEX
  8
54
 62
7
  6
CONTINUOUS
 10
-1691.98861578969
 20
870.196302489267
  0
VERTEX
  8
54
 62
7
  6
CONTINUOUS
 10
-1674.00516724569
 20
865.916023925766
  0
VERTEX
  8
54
 62
7
  6
CONTINUOUS
 10
-1667.33196279691
 20
877.169242224135
  0
VERTEX
  8
54
 62
7
  6
CONTINUOUS
 10
-1666.47263330374
 20
876.509466778977
  0
VERTEX
  8
54
 62
7
  6
CONTINUOUS
 10
-1665.12
 20
881.92
  0
VERTEX
  8
54
 62
7
  6
CONTINUOUS
 10
-1657.12
 20
913.92
  0
VERTEX
  8
54
 62
7
  6
CONTINUOUS
 10
-1651.52
 20
929.12
  0
VERTEX
  8
54
 62
7
  6
CONTINUOUS
 10
-1648.32
 20
933.92
  0
VERTEX
  8
54
 62
7
  6
CONTINUOUS
 10
-1644.32
 20
947.52
  0
VERTEX
  8
54
 62
7
  6
CONTINUOUS
 10
-1645.12
 20
957.92
  0
VERTEX
  8
54
 62
7
  6
CONTINUOUS
 10
-1656.32
 20
974.72
  0
VERTEX
  8
54
 62
7
  6
CONTINUOUS
 10
-1658.72
 20
980.32
  0
VERTEX
  8
54
 62
7
  6
CONTINUOUS
 10
-1658.72
 20
995.52
  0
VERTEX
  8
54
 62
7
  6
CONTINUOUS
 10
-1653.92
 20
1010.72
  0
VERTEX
  8
54
 62
7
  6
CONTINUOUS
 10
-1628.32
 20
1059.52
  0
VERTEX
  8
54
 62
7
  6
CONTINUOUS
 10
-1623.52
 20
1071.52
  0
VERTEX
  8
54
 62
7
  6
CONTINUOUS
 10
-1619.52
 20
1085.92
  0
VERTEX
  8
54
 62
7
  6
CONTINUOUS
 10
-1617.92
 20
1098.72
  0
VERTEX
  8
54
 62
7
  6
CONTINUOUS
 10
-1620.32
 20
1115.52
  0
VERTEX
  8
54
 62
7
  6
CONTINUOUS
 10
-1627.52
 20
1127.52
  0
VERTEX
  8
54
 62
7
  6
CONTINUOUS
 10
-1638.72
 20
1137.12
  0
VERTEX
  8
54
 62
7
  6
CONTINUOUS
 10
-1650.72
 20
1141.92
  0
VERTEX
  8
54
 62
7
  6
CONTINUOUS
 10
-1657.12
 20
1142.72
  0
VERTEX
  8
54
 62
7
  6
CONTINUOUS
 10
-1669.92
 20
1141.12
  0
VERTEX
  8
54
 62
7
  6
CONTINUOUS
 10
-1681.92
 20
1134.72
  0
VERTEX
  8
54
 62
7
  6
CONTINUOUS
 10
-1698.72
 20
1118.72
  0
VERTEX
  8
54
 62
7
  6
CONTINUOUS
 10
-1721.12
 20
1089.12
  0
VERTEX
  8
54
 62
7
  6
CONTINUOUS
 10
-1737.12
 20
1072.32
  0
VERTEX
  8
54
 62
7
  6
CONTINUOUS
 10
-1742.72
 20
1068.32
  0
VERTEX
  8
54
 62
7
  6
CONTINUOUS
 10
-1773.12
 20
1053.92
  0
VERTEX
  8
54
 62
7
  6
CONTINUOUS
 10
-1781.92
 20
1048.32
  0
VERTEX
  8
54
 62
7
  6
CONTINUOUS
 10
-1794.72
 20
1035.52
  0
VERTEX
  8
54
 62
7
  6
CONTINUOUS
 10
-1804.32
 20
1021.12
  0
VERTEX
  8
54
 62
7
  6
CONTINUOUS
 10
-1811.52
 20
1005.12
  0
VERTEX
  8
54
 62
7
  6
CONTINUOUS
 10
-1813.12
 20
997.12
  0
VERTEX
  8
54
 62
7
  6
CONTINUOUS
 10
-1812.32
 20
959.52
  0
VERTEX
  8
54
 62
7
  6
CONTINUOUS
 10
-1816.32
 20
946.72
  0
VERTEX
  8
54
 62
7
  6
CONTINUOUS
 10
-1822.72
 20
933.12
  0
VERTEX
  8
54
 62
7
  6
CONTINUOUS
 10
-1835.52
 20
911.52
  0
VERTEX
  8
54
 62
7
  6
CONTINUOUS
 10
-1841.92
 20
903.52
  0
VERTEX
  8
54
 62
7
  6
CONTINUOUS
 10
-1872.32
 20
856.32
  0
VERTEX
  8
54
 62
7
  6
CONTINUOUS
 10
-1872.32
 20
854.72
  0
VERTEX
  8
54
 62
7
  6
CONTINUOUS
 10
-1885.12
 20
837.12
  0
VERTEX
  8
54
 62
7
  6
CONTINUOUS
 10
-1885.12
 20
835.52
  0
VERTEX
  8
54
 62
7
  6
CONTINUOUS
 10
-1892.32
 20
827.52
  0
VERTEX
  8
54
 62
7
  6
CONTINUOUS
 10
-1893.92
 20
823.52
  0
VERTEX
  8
54
 62
7
  6
CONTINUOUS
 10
-1897.12
 20
821.92
  0
VERTEX
  8
54
 62
7
  6
CONTINUOUS
 10
-1897.92
 20
819.52
  0
VERTEX
  8
54
 62
7
  6
CONTINUOUS
 10
-1905.92
 20
811.52
  0
VERTEX
  8
54
 62
7
  6
CONTINUOUS
 10
-1906.72
 20
809.12
  0
VERTEX
  8
54
 62
7
  6
CONTINUOUS
 10
-1918.72
 20
794.72
  0
VERTEX
  8
54
 62
7
  6
CONTINUOUS
 10
-1931.52
 20
770.72
  0
VERTEX
  8
54
 62
7
  6
CONTINUOUS
 10
-1938.72
 20
740.32
  0
VERTEX
  8
54
 62
7
  6
CONTINUOUS
 10
-1938.72
 20
716.32
  0
VERTEX
  8
54
 62
7
  6
CONTINUOUS
 10
-1931.52
 20
677.92
  0
VERTEX
  8
54
 62
7
  6
CONTINUOUS
 10
-1931.52
 20
659.52
  0
VERTEX
  8
54
 62
7
  6
CONTINUOUS
 10
-1933.92
 20
637.92
  0
VERTEX
  8
54
 62
7
  6
CONTINUOUS
 10
-1935.52
 20
633.92
  0
SEQEND
  0
POLYLINE
  8
54
 62
7
 66
1
 70
1
  0
VERTEX
  8
54
 62
7
  6
CONTINUOUS
 10
-1628.32
 20
2322.72
  0
VERTEX
  8
54
 62
7
  6
CONTINUOUS
 10
-1628.32
 20
2316.32
  0
VERTEX
  8
54
 62
7
  6
CONTINUOUS
 10
-1624.32
 20
2312.32
  0
VERTEX
  8
54
 62
7
  6
CONTINUOUS
 10
-1619.52
 20
2312.32
  0
VERTEX
  8
54
 62
7
  6
CONTINUOUS
 10
-1616.32
 20
2317.92
  0
VERTEX
  8
54
 62
7
  6
CONTINUOUS
 10
-1617.12
 20
2322.72
  0
VERTEX
  8
54
 62
7
  6
CONTINUOUS
 10
-1621.12
 20
2326.72
  0
VERTEX
  8
54
 62
7
  6
CONTINUOUS
 10
-1625.12
 20
2326.72
  0
SEQEND
  0
POLYLINE
  8
54
 62
7
 66
1
 70
1
  0
VERTEX
  8
54
 62
7
  6
CONTINUOUS
 10
-722.070359872233
 20
1385.68865075797
  0
VERTEX
  8
54
 62
7
  6
CONTINUOUS
 10
-664.888722405723
 20
1296.99876407522
  0
VERTEX
  8
54
 62
7
  6
CONTINUOUS
 10
-648.551111701006
 20
1254.98776512023
  0
VERTEX
  8
54
 62
7
  6
CONTINUOUS
 10
-592.53644642769
 20
1217.64465493802
  0
VERTEX
  8
54
 62
7
  6
CONTINUOUS
 10
-594.870390814078
 20
1230.48134906315
  0
VERTEX
  8
54
 62
7
  6
CONTINUOUS
 10
-600.705251780048
 20
1244.48501538148
  0
VERTEX
  8
54
 62
7
  6
CONTINUOUS
 10
-613.541945905183
 20
1272.49234801814
  0
VERTEX
  8
54
 62
7
  6
CONTINUOUS
 10
-622.877723450736
 20
1289.99693091605
  0
VERTEX
  8
54
 62
7
  6
CONTINUOUS
 10
-631.046528803095
 20
1307.50151381396
  0
VERTEX
  8
54
 62
7
  6
CONTINUOUS
 10
-641.549278541841
 20
1332.00792987104
  0
VERTEX
  8
54
 62
7
  6
CONTINUOUS
 10
-648.551111701006
 20
1344.84462399617
  0
VERTEX
  8
54
 62
7
  6
CONTINUOUS
 10
-660.220833632947
 20
1363.51617908728
  0
VERTEX
  8
54
 62
7
  6
CONTINUOUS
 10
-670.723583371694
 20
1377.51984540561
  0
VERTEX
  8
54
 62
7
  6
CONTINUOUS
 10
-685.894221883217
 20
1396.19140049671
  0
VERTEX
  8
54
 62
7
  6
CONTINUOUS
 10
-697.563943815157
 20
1404.36020584907
  0
VERTEX
  8
54
 62
7
  6
CONTINUOUS
 10
-709.233665747098
 20
1405.52717804227
  0
VERTEX
  8
54
 62
7
  6
CONTINUOUS
 10
-717.402471099457
 20
1396.19140049671
  0
SEQEND
  0
POLYLINE
  8
54
 62
7
 66
1
 70
1
  0
VERTEX
  8
54
 62
7
  6
CONTINUOUS
 10
-1620.32
 20
2581.92
  0
VERTEX
  8
54
 62
7
  6
CONTINUOUS
 10
-1617.12
 20
2578.72
  0
VERTEX
  8
54
 62
7
  6
CONTINUOUS
 10
-1612.32
 20
2579.52
  0
VERTEX
  8
54
 62
7
  6
CONTINUOUS
 10
-1609.12
 20
2581.92
  0
VERTEX
  8
54
 62
7
  6
CONTINUOUS
 10
-1601.12
 20
2589.92
  0
VERTEX
  8
54
 62
7
  6
CONTINUOUS
 10
-1593.12
 20
2601.12
  0
VERTEX
  8
54
 62
7
  6
CONTINUOUS
 10
-1584.32
 20
2619.52
  0
VERTEX
  8
54
 62
7
  6
CONTINUOUS
 10
-1574.72
 20
2634.72
  0
VERTEX
  8
54
 62
7
  6
CONTINUOUS
 10
-1569.12
 20
2646.72
  0
VERTEX
  8
54
 62
7
  6
CONTINUOUS
 10
-1550.72
 20
2678.72
  0
VERTEX
  8
54
 62
7
  6
CONTINUOUS
 10
-1542.72
 20
2697.12
  0
VERTEX
  8
54
 62
7
  6
CONTINUOUS
 10
-1529.12
 20
2719.52
  0
VERTEX
  8
54
 62
7
  6
CONTINUOUS
 10
-1526.44345260452
 20
2723.92843100803
  0
VERTEX
  8
54
 62
7
  6
CONTINUOUS
 10
-1532.50556503841
 20
2734.94389646065
  0
VERTEX
  8
54
 62
7
  6
CONTINUOUS
 10
-1544.86930135949
 20
2733.55872261744
  0
VERTEX
  8
54
 62
7
  6
CONTINUOUS
 10
-1554.72
 20
2716.32
  0
VERTEX
  8
54
 62
7
  6
CONTINUOUS
 10
-1557.92
 20
2710.72
  0
VERTEX
  8
54
 62
7
  6
CONTINUOUS
 10
-1559.52
 20
2703.52
  0
VERTEX
  8
54
 62
7
  6
CONTINUOUS
 10
-1569.92
 20
2683.52
  0
VERTEX
  8
54
 62
7
  6
CONTINUOUS
 10
-1576.32
 20
2665.92
  0
VERTEX
  8
54
 62
7
  6
CONTINUOUS
 10
-1593.92
 20
2629.12
  0
VERTEX
  8
54
 62
7
  6
CONTINUOUS
 10
-1605.12
 20
2613.12
  0
VERTEX
  8
54
 62
7
  6
CONTINUOUS
 10
-1608.32
 20
2605.92
  0
VERTEX
  8
54
 62
7
  6
CONTINUOUS
 10
-1617.92
 20
2591.52
  0
SEQEND
  0
POLYLINE
  8
54
 62
7
 66
1
 70
1
  0
VERTEX
  8
54
 62
7
  6
CONTINUOUS
 10
-1505.92
 20
1065.12
  0
VERTEX
  8
54
 62
7
  6
CONTINUOUS
 10
-1505.92
 20
1062.72
  0
VERTEX
  8
54
 62
7
  6
CONTINUOUS
 10
-1504.32
 20
1061.12
  0
VERTEX
  8
54
 62
7
  6
CONTINUOUS
 10
-1498.72
 20
1057.92
  0
VERTEX
  8
54
 62
7
  6
CONTINUOUS
 10
-1472.32
 20
1052.32
  0
VERTEX
  8
54
 62
7
  6
CONTINUOUS
 10
-1460.32
 20
1053.12
  0
VERTEX
  8
54
 62
7
  6
CONTINUOUS
 10
-1465.12
 20
1057.92
  0
VERTEX
  8
54
 62
7
  6
CONTINUOUS
 10
-1485.12
 20
1064.32
  0
VERTEX
  8
54
 62
7
  6
CONTINUOUS
 10
-1494.72
 20
1065.92
  0
SEQEND
  0
POLYLINE
  8
54
 62
7
 66
1
 70
1
  0
VERTEX
  8
54
 62
7
  6
CONTINUOUS
 10
-1446.72
 20
969.12
  0
VERTEX
  8
54
 62
7
  6
CONTINUOUS
 10
-1446.72
 20
964.32
  0
VERTEX
  8
54
 62
7
  6
CONTINUOUS
 10
-1441.92
 20
961.12
  0
VERTEX
  8
54
 62
7
  6
CONTINUOUS
 10
-1435.52
 20
961.12
  0
VERTEX
  8
54
 62
7
  6
CONTINUOUS
 10
-1432.32
 20
963.52
  0
VERTEX
  8
54
 62
7
  6
CONTINUOUS
 10
-1433.92
 20
967.52
  0
VERTEX
  8
54
 62
7
  6
CONTINUOUS
 10
-1437.92
 20
971.52
  0
VERTEX
  8
54
 62
7
  6
CONTINUOUS
 10
-1442.72
 20
972.32
  0
SEQEND
  0
POLYLINE
  8
54
 62
7
 66
1
 70
1
  0
VERTEX
  8
54
 62
7
  6
CONTINUOUS
 10
-1456.32
 20
1101.12
  0
VERTEX
  8
54
 62
7
  6
CONTINUOUS
 10
-1456.32
 20
1098.72
  0
VERTEX
  8
54
 62
7
  6
CONTINUOUS
 10
-1454.72
 20
1097.12
  0
VERTEX
  8
54
 62
7
  6
CONTINUOUS
 10
-1447.52
 20
1093.92
  0
VERTEX
  8
54
 62
7
  6
CONTINUOUS
 10
-1426.72
 20
1089.12
  0
VERTEX
  8
54
 62
7
  6
CONTINUOUS
 10
-1405.12
 20
1081.92
  0
VERTEX
  8
54
 62
7
  6
CONTINUOUS
 10
-1392.32
 20
1079.52
  0
VERTEX
  8
54
 62
7
  6
CONTINUOUS
 10
-1379.52
 20
1079.52
  0
VERTEX
  8
54
 62
7
  6
CONTINUOUS
 10
-1377.92
 20
1082.72
  0
VERTEX
  8
54
 62
7
  6
CONTINUOUS
 10
-1385.92
 20
1090.72
  0
VERTEX
  8
54
 62
7
  6
CONTINUOUS
 10
-1391.52
 20
1093.92
  0
VERTEX
  8
54
 62
7
  6
CONTINUOUS
 10
-1399.52
 20
1096.32
  0
VERTEX
  8
54
 62
7
  6
CONTINUOUS
 10
-1409.92
 20
1097.12
  0
VERTEX
  8
54
 62
7
  6
CONTINUOUS
 10
-1418.72
 20
1099.52
  0
VERTEX
  8
54
 62
7
  6
CONTINUOUS
 10
-1426.72
 20
1099.52
  0
VERTEX
  8
54
 62
7
  6
CONTINUOUS
 10
-1443.52
 20
1103.52
  0
VERTEX
  8
54
 62
7
  6
CONTINUOUS
 10
-1451.52
 20
1103.52
  0
SEQEND
  0
POLYLINE
  8
54
 62
7
 66
1
 70
1
  0
VERTEX
  8
54
 62
7
  6
CONTINUOUS
 10
-1403.52
 20
2697.92
  0
VERTEX
  8
54
 62
7
  6
CONTINUOUS
 10
-1401.92
 20
2686.72
  0
VERTEX
  8
54
 62
7
  6
CONTINUOUS
 10
-1397.12
 20
2678.72
  0
VERTEX
  8
54
 62
7
  6
CONTINUOUS
 10
-1385.92
 20
2669.92
  0
VERTEX
  8
54
 62
7
  6
CONTINUOUS
 10
-1377.92
 20
2665.12
  0
VERTEX
  8
54
 62
7
  6
CONTINUOUS
 10
-1350.72
 20
2655.52
  0
VERTEX
  8
54
 62
7
  6
CONTINUOUS
 10
-1334.72
 20
2653.12
  0
VERTEX
  8
54
 62
7
  6
CONTINUOUS
 10
-1319.52
 20
2653.12
  0
VERTEX
  8
54
 62
7
  6
CONTINUOUS
 10
-1308.32
 20
2656.32
  0
VERTEX
  8
54
 62
7
  6
CONTINUOUS
 10
-1301.92
 20
2662.72
  0
VERTEX
  8
54
 62
7
  6
CONTINUOUS
 10
-1297.12
 20
2670.72
  0
VERTEX
  8
54
 62
7
  6
CONTINUOUS
 10
-1290.72
 20
2689.12
  0
VERTEX
  8
54
 62
7
  6
CONTINUOUS
 10
-1290.72
 20
2697.92
  0
VERTEX
  8
54
 62
7
  6
CONTINUOUS
 10
-1288.32
 20
2705.12
  0
VERTEX
  8
54
 62
7
  6
CONTINUOUS
 10
-1287.52
 20
2717.92
  0
VERTEX
  8
54
 62
7
  6
CONTINUOUS
 10
-1285.46738772884
 20
2750.76179634332
  0
VERTEX
  8
54
 62
7
  6
CONTINUOUS
 10
-1312.10211392646
 20
2735.66374539826
  0
VERTEX
  8
54
 62
7
  6
CONTINUOUS
 10
-1377.83539254062
 20
2729.15065434226
  0
VERTEX
  8
54
 62
7
  6
CONTINUOUS
 10
-1380.52018817136
 20
2736.40190723555
  0
VERTEX
  8
54
 62
7
  6
CONTINUOUS
 10
-1387.88282507411
 20
2733.07562743667
  0
VERTEX
  8
54
 62
7
  6
CONTINUOUS
 10
-1393.81569220973
 20
2734.78938505837
  0
VERTEX
  8
54
 62
7
  6
CONTINUOUS
 10
-1399.52
 20
2709.12
  0
VERTEX
  8
54
 62
7
  6
CONTINUOUS
 10
-1401.92
 20
2705.12
  0
SEQEND
  0
POLYLINE
  8
54
 62
7
 66
1
 70
1
  0
VERTEX
  8
54
 62
7
  6
CONTINUOUS
 10
-1159.52
 20
1774.72
  0
VERTEX
  8
54
 62
7
  6
CONTINUOUS
 10
-1157.92
 20
1763.52
  0
VERTEX
  8
54
 62
7
  6
CONTINUOUS
 10
-1157.12
 20
1738.72
  0
VERTEX
  8
54
 62
7
  6
CONTINUOUS
 10
-1153.12
 20
1722.72
  0
VERTEX
  8
54
 62
7
  6
CONTINUOUS
 10
-1150.72
 20
1719.52
  0
VERTEX
  8
54
 62
7
  6
CONTINUOUS
 10
-1147.52
 20
1720.32
  0
VERTEX
  8
54
 62
7
  6
CONTINUOUS
 10
-1146.72
 20
1725.92
  0
VERTEX
  8
54
 62
7
  6
CONTINUOUS
 10
-1146.72
 20
1747.52
  0
VERTEX
  8
54
 62
7
  6
CONTINUOUS
 10
-1149.12
 20
1757.12
  0
VERTEX
  8
54
 62
7
  6
CONTINUOUS
 10
-1149.12
 20
1765.92
  0
VERTEX
  8
54
 62
7
  6
CONTINUOUS
 10
-1146.72
 20
1777.92
  0
VERTEX
  8
54
 62
7
  6
CONTINUOUS
 10
-1146.72
 20
1785.92
  0
VERTEX
  8
54
 62
7
  6
CONTINUOUS
 10
-1148.32
 20
1787.52
  0
VERTEX
  8
54
 62
7
  6
CONTINUOUS
 10
-1152.32
 20
1787.52
  0
VERTEX
  8
54
 62
7
  6
CONTINUOUS
 10
-1157.12
 20
1783.52
  0
SEQEND
  0
POLYLINE
  8
54
 62
7
 66
1
 70
1
  0
VERTEX
  8
54
 62
7
  6
CONTINUOUS
 10
-868.32
 20
1509.12
  0
VERTEX
  8
54
 62
7
  6
CONTINUOUS
 10
-866.72
 20
1501.92
  0
VERTEX
  8
54
 62
7
  6
CONTINUOUS
 10
-861.92
 20
1495.52
  0
VERTEX
  8
54
 62
7
  6
CONTINUOUS
 10
-859.52
 20
1494.72
  0
VERTEX
  8
54
 62
7
  6
CONTINUOUS
 10
-856.32
 20
1495.52
  0
VERTEX
  8
54
 62
7
  6
CONTINUOUS
 10
-854.72
 20
1497.92
  0
VERTEX
  8
54
 62
7
  6
CONTINUOUS
 10
-855.52
 20
1503.52
  0
VERTEX
  8
54
 62
7
  6
CONTINUOUS
 10
-857.92
 20
1508.32
  0
VERTEX
  8
54
 62
7
  6
CONTINUOUS
 10
-861.92
 20
1512.32
  0
VERTEX
  8
54
 62
7
  6
CONTINUOUS
 10
-865.92
 20
1513.12
  0
SEQEND
  0
POLYLINE
  8
54
 62
7
 66
1
 70
1
  0
VERTEX
  8
54
 62
7
  6
CONTINUOUS
 10
-855.52
 20
2416.32
  0
VERTEX
  8
54
 62
7
  6
CONTINUOUS
 10
-855.52
 20
2409.92
  0
VERTEX
  8
54
 62
7
  6
CONTINUOUS
 10
-851.52
 20
2405.92
  0
VERTEX
  8
54
 62
7
  6
CONTINUOUS
 10
-846.72
 20
2406.72
  0
VERTEX
  8
54
 62
7
  6
CONTINUOUS
 10
-845.12
 20
2414.72
  0
VERTEX
  8
54
 62
7
  6
CONTINUOUS
 10
-848.32
 20
2419.52
  0
VERTEX
  8
54
 62
7
  6
CONTINUOUS
 10
-851.52
 20
2420.32
  0
SEQEND
  0
POLYLINE
  8
54
 62
7
 66
1
 70
1
  0
VERTEX
  8
54
 62
7
  6
CONTINUOUS
 10
-1153.92
 20
2701.12
  0
VERTEX
  8
54
 62
7
  6
CONTINUOUS
 10
-1151.52
 20
2669.92
  0
VERTEX
  8
54
 62
7
  6
CONTINUOUS
 10
-1149.92
 20
2665.12
  0
VERTEX
  8
54
 62
7
  6
CONTINUOUS
 10
-1145.12
 20
2626.72
  0
VERTEX
  8
54
 62
7
  6
CONTINUOUS
 10
-1145.12
 20
2604.32
  0
VERTEX
  8
54
 62
7
  6
CONTINUOUS
 10
-1152.32
 20
2545.12
  0
VERTEX
  8
54
 62
7
  6
CONTINUOUS
 10
-1151.52
 20
2517.12
  0
VERTEX
  8
54
 62
7
  6
CONTINUOUS
 10
-1146.72
 20
2498.72
  0
VERTEX
  8
54
 62
7
  6
CONTINUOUS
 10
-1139.52
 20
2483.52
  0
VERTEX
  8
54
 62
7
  6
CONTINUOUS
 10
-1132.32
 20
2473.12
  0
VERTEX
  8
54
 62
7
  6
CONTINUOUS
 10
-1121.92
 20
2461.92
  0
VERTEX
  8
54
 62
7
  6
CONTINUOUS
 10
-1113.92
 20
2455.52
  0
VERTEX
  8
54
 62
7
  6
CONTINUOUS
 10
-1097.92
 20
2446.72
  0
VERTEX
  8
54
 62
7
  6
CONTINUOUS
 10
-1088.32
 20
2443.52
  0
VERTEX
  8
54
 62
7
  6
CONTINUOUS
 10
-1070.72
 20
2443.52
  0
VERTEX
  8
54
 62
7
  6
CONTINUOUS
 10
-1059.52
 20
2448.32
  0
VERTEX
  8
54
 62
7
  6
CONTINUOUS
 10
-1050.72
 20
2457.12
  0
VERTEX
  8
54
 62
7
  6
CONTINUOUS
 10
-1040.32
 20
2471.52
  0
VERTEX
  8
54
 62
7
  6
CONTINUOUS
 10
-1033.12
 20
2478.72
  0
VERTEX
  8
54
 62
7
  6
CONTINUOUS
 10
-1017.12
 20
2490.72
  0
VERTEX
  8
54
 62
7
  6
CONTINUOUS
 10
-1005.92
 20
2504.32
  0
VERTEX
  8
54
 62
7
  6
CONTINUOUS
 10
-1001.92
 20
2515.52
  0
VERTEX
  8
54
 62
7
  6
CONTINUOUS
 10
-1000.32
 20
2532.32
  0
VERTEX
  8
54
 62
7
  6
CONTINUOUS
 10
-1004.32
 20
2549.92
  0
VERTEX
  8
54
 62
7
  6
CONTINUOUS
 10
-1011.52
 20
2563.52
  0
VERTEX
  8
54
 62
7
  6
CONTINUOUS
 10
-1016.32
 20
2576.32
  0
VERTEX
  8
54
 62
7
  6
CONTINUOUS
 10
-1017.12
 20
2594.72
  0
VERTEX
  8
54
 62
7
  6
CONTINUOUS
 10
-1014.72
 20
2611.52
  0
VERTEX
  8
54
 62
7
  6
CONTINUOUS
 10
-1009.12
 20
2629.12
  0
VERTEX
  8
54
 62
7
  6
CONTINUOUS
 10
-1000.32
 20
2645.92
  0
VERTEX
  8
54
 62
7
  6
CONTINUOUS
 10
-992.32
 20
2656.32
  0
VERTEX
  8
54
 62
7
  6
CONTINUOUS
 10
-989.92
 20
2657.12
  0
VERTEX
  8
54
 62
7
  6
CONTINUOUS
 10
-959.52
 20
2681.12
  0
VERTEX
  8
54
 62
7
  6
CONTINUOUS
 10
-910.72
 20
2712.32
  0
VERTEX
  8
54
 62
7
  6
CONTINUOUS
 10
-886.72
 20
2721.92
  0
VERTEX
  8
54
 62
7
  6
CONTINUOUS
 10
-872.32
 20
2725.12
  0
VERTEX
  8
54
 62
7
  6
CONTINUOUS
 10
-856.32
 20
2726.72
  0
VERTEX
  8
54
 62
7
  6
CONTINUOUS
 10
-845.92
 20
2729.92
  0
VERTEX
  8
54
 62
7
  6
CONTINUOUS
 10
-837.92
 20
2733.92
  0
VERTEX
  8
54
 62
7
  6
CONTINUOUS
 10
-822.72
 20
2746.72
  0
VERTEX
  8
54
 62
7
  6
CONTINUOUS
 10
-813.12
 20
2760.32
  0
VERTEX
  8
54
 62
7
  6
CONTINUOUS
 10
-803.52
 20
2778.72
  0
VERTEX
  8
54
 62
7
  6
CONTINUOUS
 10
-795.52
 20
2785.12
  0
VERTEX
  8
54
 62
7
  6
CONTINUOUS
 10
-783.52
 20
2790.72
  0
VERTEX
  8
54
 62
7
  6
CONTINUOUS
 10
-777.586243303198
 20
2793.48908645666
  0
VERTEX
  8
54
 62
7
  6
CONTINUOUS
 10
-777.919178064502
 20
2793.80186204063
  0
VERTEX
  8
54
 62
7
  6
CONTINUOUS
 10
-769.890907205132
 20
2802.82859646455
  0
VERTEX
  8
54
 62
7
  6
CONTINUOUS
 10
-780.662883915868
 20
2813.51559015759
  0
VERTEX
  8
54
 62
7
  6
CONTINUOUS
 10
-783.974714712513
 20
2826.94378165777
  0
VERTEX
  8
54
 62
7
  6
CONTINUOUS
 10
-801.140170134339
 20
2847.53161451226
  0
VERTEX
  8
54
 62
7
  6
CONTINUOUS
 10
-814.754976970037
 20
2849.9212876055
  0
VERTEX
  8
54
 62
7
  6
CONTINUOUS
 10
-857.923683769617
 20
2845.91916411438
  0
VERTEX
  8
54
 62
7
  6
CONTINUOUS
 10
-873.123416524951
 20
2840.31892212679
  0
VERTEX
  8
54
 62
7
  6
CONTINUOUS
 10
-888.318534797691
 20
2836.3204685584
  0
VERTEX
  8
54
 62
7
  6
CONTINUOUS
 10
-941.013677583725
 20
2816.34120627851
  0
VERTEX
  8
54
 62
7
  6
CONTINUOUS
 10
-954.707358603693
 20
2815.52964825864
  0
VERTEX
  8
54
 62
7
  6
CONTINUOUS
 10
-956.431074071112
 20
2810.61074875804
  0
VERTEX
  8
54
 62
7
  6
CONTINUOUS
 10
-967.27265284057
 20
2807.7199178617
  0
VERTEX
  8
54
 62
7
  6
CONTINUOUS
 10
-983.521123079432
 20
2795.51946060222
  0
VERTEX
  8
54
 62
7
  6
CONTINUOUS
 10
-1015.78847300538
 20
2787.21773102071
  0
VERTEX
  8
54
 62
7
  6
CONTINUOUS
 10
-1037.92234622091
 20
2788.321331044
  0
VERTEX
  8
54
 62
7
  6
CONTINUOUS
 10
-1042.3376676418
 20
2794.91766408935
  0
VERTEX
  8
54
 62
7
  6
CONTINUOUS
 10
-1059.18006658741
 20
2798.48802286401
  0
VERTEX
  8
54
 62
7
  6
CONTINUOUS
 10
-1067.42974845259
 20
2808.3444666996
  0
VERTEX
  8
54
 62
7
  6
CONTINUOUS
 10
-1069.49550336519
 20
2795.6237972376
  0
VERTEX
  8
54
 62
7
  6
CONTINUOUS
 10
-1089.7286532847
 20
2788.49149816267
  0
VERTEX
  8
54
 62
7
  6
CONTINUOUS
 10
-1101.33618894727
 20
2796.81010116036
  0
VERTEX
  8
54
 62
7
  6
CONTINUOUS
 10
-1132.51799007147
 20
2805.17930825653
  0
VERTEX
  8
54
 62
7
  6
CONTINUOUS
 10
-1140.53978627693
 20
2799.91304676054
  0
VERTEX
  8
54
 62
7
  6
CONTINUOUS
 10
-1141.12
 20
2795.52
  0
VERTEX
  8
54
 62
7
  6
CONTINUOUS
 10
-1146.72
 20
2753.12
  0
VERTEX
  8
54
 62
7
  6
CONTINUOUS
 10
-1152.32
 20
2727.52
  0
SEQEND
  0
POLYLINE
  8
54
 62
7
 66
1
 70
1
  0
VERTEX
  8
54
 62
7
  6
CONTINUOUS
 10
-1885.92
 20
1657.92
  0
VERTEX
  8
54
 62
7
  6
CONTINUOUS
 10
-1885.92
 20
1650.72
  0
VERTEX
  8
54
 62
7
  6
CONTINUOUS
 10
-1884.32
 20
1649.12
  0
VERTEX
  8
54
 62
7
  6
CONTINUOUS
 10
-1880.32
 20
1649.12
  0
VERTEX
  8
54
 62
7
  6
CONTINUOUS
 10
-1877.92
 20
1652.32
  0
VERTEX
  8
54
 62
7
  6
CONTINUOUS
 10
-1878.72
 20
1657.12
  0
VERTEX
  8
54
 62
7
  6
CONTINUOUS
 10
-1882.72
 20
1660.32
  0
SEQEND
  0
POLYLINE
  8
54
 62
7
 66
1
 70
1
  0
VERTEX
  8
54
 62
7
  6
CONTINUOUS
 10
-626.821505573514
 20
1970.55645600835
  0
VERTEX
  8
54
 62
7
  6
CONTINUOUS
 10
-626.821505573514
 20
1968.81997423168
  0
VERTEX
  8
54
 62
7
  6
CONTINUOUS
 10
-626.227593827375
 20
1967.18821512001
  0
VERTEX
  8
54
 62
7
  6
CONTINUOUS
 10
-625.111404856885
 20
1965.85799290442
  0
VERTEX
  8
54
 62
7
  6
CONTINUOUS
 10
-623.607567525081
 20
1964.98975201608
  0
VERTEX
  8
54
 62
7
  6
CONTINUOUS
 10
-621.897466808453
 20
1964.68821512001
  0
VERTEX
  8
54
 62
7
  6
CONTINUOUS
 10
-620.187366091824
 20
1964.98975201608
  0
VERTEX
  8
54
 62
7
  6
CONTINUOUS
 10
-618.68352876002
 20
1965.85799290442
  0
VERTEX
  8
54
 62
7
  6
CONTINUOUS
 10
-617.56733978953
 20
1967.18821512001
  0
VERTEX
  8
54
 62
7
  6
CONTINUOUS
 10
-616.973428043392
 20
1968.81997423168
  0
VERTEX
  8
54
 62
7
  6
CONTINUOUS
 10
-616.973428043392
 20
1970.55645600835
  0
VERTEX
  8
54
 62
7
  6
CONTINUOUS
 10
-617.56733978953
 20
1972.18821512001
  0
VERTEX
  8
54
 62
7
  6
CONTINUOUS
 10
-618.68352876002
 20
1973.51843733561
  0
VERTEX
  8
54
 62
7
  6
CONTINUOUS
 10
-620.187366091824
 20
1974.38667822394
  0
VERTEX
  8
54
 62
7
  6
CONTINUOUS
 10
-621.897466808453
 20
1974.68821512001
  0
VERTEX
  8
54
 62
7
  6
CONTINUOUS
 10
-623.607567525081
 20
1974.38667822394
  0
VERTEX
  8
54
 62
7
  6
CONTINUOUS
 10
-625.111404856885
 20
1973.51843733561
  0
VERTEX
  8
54
 62
7
  6
CONTINUOUS
 10
-626.227593827375
 20
1972.18821512001
  0
SEQEND
  0
POLYLINE
  8
11
 62
7
 66
1
 70
1
  0
VERTEX
  8
11
 62
7
  6
CONTINUOUS
 10
-2540.72858240523
 20
2104.96670744449
  0
VERTEX
  8
11
 62
7
  6
CONTINUOUS
 10
-2532.94781955572
 20
2119.93695778446
  0
VERTEX
  8
11
 62
7
  6
CONTINUOUS
 10
-2526.56164182263
 20
2113.96740686753
  0
VERTEX
  8
11
 62
7
  6
CONTINUOUS
 10
-2522.6838972257
 20
2129.98517265837
  0
VERTEX
  8
11
 62
7
  6
CONTINUOUS
 10
-2517.97709315393
 20
2134.72040747428
  0
VERTEX
  8
11
 62
7
  6
CONTINUOUS
 10
-2508.29353721122
 20
2125.1048768534
  0
VERTEX
  8
11
 62
7
  6
CONTINUOUS
 10
-2495.21269566002
 20
2121.66964791668
  0
VERTEX
  8
11
 62
7
  6
CONTINUOUS
 10
-2496.15235339526
 20
2106.94083243255
  0
VERTEX
  8
11
 62
7
  6
CONTINUOUS
 10
-2503.46728283125
 20
2103.7316263496
  0
VERTEX
  8
11
 62
7
  6
CONTINUOUS
 10
-2497.93298583448
 20
2096.91318339574
  0
VERTEX
  8
11
 62
7
  6
CONTINUOUS
 10
-2505.40998133095
 20
2091.19887398457
  0
VERTEX
  8
11
 62
7
  6
CONTINUOUS
 10
-2537.05793131277
 20
2100.27640818453
  0
SEQEND
  0
POLYLINE
  8
1
 62
7
 66
1
 70
1
  0
VERTEX
  8
1
 62
7
  6
CONTINUOUS
 10
-2650.59121690314
 20
2117.6232537165
  0
VERTEX
  8
1
 62
7
  6
CONTINUOUS
 10
-2641.91640190531
 20
2041.9090712248
  0
VERTEX
  8
1
 62
7
  6
CONTINUOUS
 10
-2626.87732372324
 20
2015.59627858837
  0
VERTEX
  8
1
 62
7
  6
CONTINUOUS
 10
-2583.36211631116
 20
1966.6426889165
  0
VERTEX
  8
1
 62
7
  6
CONTINUOUS
 10
-2538.37810318221
 20
1901.97841847239
  0
VERTEX
  8
1
 62
7
  6
CONTINUOUS
 10
-2458.71814724624
 20
1868.31928679017
  0
VERTEX
  8
1
 62
7
  6
CONTINUOUS
 10
-2398.05456801361
 20
1847.15769481562
  0
VERTEX
  8
1
 62
7
  6
CONTINUOUS
 10
-2353.11964756763
 20
1811.51966423562
  0
VERTEX
  8
1
 62
7
  6
CONTINUOUS
 10
-2322.85023789223
 20
1776.92546265509
  0
VERTEX
  8
1
 62
7
  6
CONTINUOUS
 10
-2314.04850974575
 20
1758.58788222341
  0
VERTEX
  8
1
 62
7
  6
CONTINUOUS
 10
-2275.12122806763
 20
1686.72316364453
  0
VERTEX
  8
1
 62
7
  6
CONTINUOUS
 10
-2267.46500092151
 20
1655.99609665278
  0
VERTEX
  8
1
 62
7
  6
CONTINUOUS
 10
-2258.41066390278
 20
1643.40989078986
  0
VERTEX
  8
1
 62
7
  6
CONTINUOUS
 10
-2264.99301441333
 20
1639.58523786382
  0
VERTEX
  8
1
 62
7
  6
CONTINUOUS
 10
-2271.83394781242
 20
1587.58178859961
  0
VERTEX
  8
1
 62
7
  6
CONTINUOUS
 10
-2284.48038906075
 20
1558.07884450878
  0
VERTEX
  8
1
 62
7
  6
CONTINUOUS
 10
-2297.3104391816
 20
1506.75819804049
  0
VERTEX
  8
1
 62
7
  6
CONTINUOUS
 10
-2345.9200755833
 20
1405.11980708517
  0
VERTEX
  8
1
 62
7
  6
CONTINUOUS
 10
-2399.51313252691
 20
1232.34759998973
  0
VERTEX
  8
1
 62
7
  6
CONTINUOUS
 10
-2412.21143769124
 20
1162.39419387613
  0
VERTEX
  8
1
 62
7
  6
CONTINUOUS
 10
-2405.04495551047
 20
1159.95258839196
  0
VERTEX
  8
1
 62
7
  6
CONTINUOUS
 10
-2405.09455419017
 20
1145.99672627995
  0
VERTEX
  8
1
 62
7
  6
CONTINUOUS
 10
-2409.11445929664
 20
1140.40451199233
  0
VERTEX
  8
1
 62
7
  6
CONTINUOUS
 10
-2397.88784118798
 20
1120.27059369695
  0
VERTEX
  8
1
 62
7
  6
CONTINUOUS
 10
-2378.72117369862
 20
1093.92130132279
  0
VERTEX
  8
1
 62
7
  6
CONTINUOUS
 10
-2338.72986425258
 20
1058.03133614087
  0
VERTEX
  8
1
 62
7
  6
CONTINUOUS
 10
-2255.35262449213
 20
1019.12248177256
  0
VERTEX
  8
1
 62
7
  6
CONTINUOUS
 10
-2236.31144462714
 20
1004.31584803941
  0
VERTEX
  8
1
 62
7
  6
CONTINUOUS
 10
-2232.95428700078
 20
1003.4752793433
  0
VERTEX
  8
1
 62
7
  6
CONTINUOUS
 10
-2207.93500520397
 20
986.458183346952
  0
VERTEX
  8
1
 62
7
  6
CONTINUOUS
 10
-2171.82921061162
 20
957.953574238777
  0
VERTEX
  8
1
 62
7
  6
CONTINUOUS
 10
-2152.61617010218
 20
922.729597768528
  0
VERTEX
  8
1
 62
7
  6
CONTINUOUS
 10
-2137.65016253874
 20
881.841266474816
  0
VERTEX
  8
1
 62
7
  6
CONTINUOUS
 10
-2139.68537598594
 20
843.321513658602
  0
VERTEX
  8
1
 62
7
  6
CONTINUOUS
 10
-2129.92147636392
 20
837.938762645206
  0
VERTEX
  8
1
 62
7
  6
CONTINUOUS
 10
-2140.40494458247
 20
829.698151663202
  0
VERTEX
  8
1
 62
7
  6
CONTINUOUS
 10
-2138.72748645599
 20
817.074735977885
  0
VERTEX
  8
1
 62
7
  6
CONTINUOUS
 10
-2145.05339810312
 20
804.577243023873
  0
VERTEX
  8
1
 62
7
  6
CONTINUOUS
 10
-2142.09107810944
 20
792.657734627955
  0
VERTEX
  8
1
 62
7
  6
CONTINUOUS
 10
-2128.53989950765
 20
793.359966197899
  0
VERTEX
  8
1
 62
7
  6
CONTINUOUS
 10
-2139.51607160239
 20
780.098459211702
  0
VERTEX
  8
1
 62
7
  6
CONTINUOUS
 10
-2118.67274948322
 20
754.684560569118
  0
VERTEX
  8
1
 62
7
  6
CONTINUOUS
 10
-2073.18829175077
 20
734.756122370572
  0
VERTEX
  8
1
 62
7
  6
CONTINUOUS
 10
-2054.90538810945
 20
723.574124501555
  0
VERTEX
  8
1
 62
7
  6
CONTINUOUS
 10
-2044.4355352975
 20
733.184676504566
  0
VERTEX
  8
1
 62
7
  6
CONTINUOUS
 10
-2046.48503406195
 20
718.524380438064
  0
VERTEX
  8
1
 62
7
  6
CONTINUOUS
 10
-2032.21974545
 20
722.695007582168
  0
VERTEX
  8
1
 62
7
  6
CONTINUOUS
 10
-2029.12349453653
 20
719.56536042553
  0
VERTEX
  8
1
 62
7
  6
CONTINUOUS
 10
-2035.46533685
 20
710.563517578761
  0
VERTEX
  8
1
 62
7
  6
CONTINUOUS
 10
-2010.69081905702
 20
673.467942834662
  0
VERTEX
  8
1
 62
7
  6
CONTINUOUS
 10
-1997.12327892531
 20
629.129167640174
  0
VERTEX
  8
1
 62
7
  6
CONTINUOUS
 10
-1987.5248816791
 20
605.926333496032
  0
VERTEX
  8
1
 62
7
  6
CONTINUOUS
 10
-1957.91427479877
 20
583.51726540212
  0
VERTEX
  8
1
 62
7
  6
CONTINUOUS
 10
-1935.52120140843
 20
577.92010763972
  0
VERTEX
  8
1
 62
7
  6
CONTINUOUS
 10
-1923.52317720182
 20
578.71917314796
  0
VERTEX
  8
1
 62
7
  6
CONTINUOUS
 10
-1897.61325323831
 20
591.02616317059
  0
VERTEX
  8
1
 62
7
  6
CONTINUOUS
 10
-1857.11826406904
 20
631.521457251237
  0
VERTEX
  8
1
 62
7
  6
CONTINUOUS
 10
-1841.11898006384
 20
642.720623872518
  0
VERTEX
  8
1
 62
7
  6
CONTINUOUS
 10
-1827.53221529577
 20
649.912822886614
  0
VERTEX
  8
1
 62
7
  6
CONTINUOUS
 10
-1806.72349921543
 20
663.515801168728
  0
VERTEX
  8
1
 62
7
  6
CONTINUOUS
 10
-1791.88672356537
 20
698.954063776968
  0
VERTEX
  8
1
 62
7
  6
CONTINUOUS
 10
-1770.56200645222
 20
738.554829258467
  0
VERTEX
  8
1
 62
7
  6
CONTINUOUS
 10
-1764.65103075698
 20
762.197032145867
  0
VERTEX
  8
1
 62
7
  6
CONTINUOUS
 10
-1734.08258419888
 20
801.757066234649
  0
VERTEX
  8
1
 62
7
  6
CONTINUOUS
 10
-1727.52527968767
 20
808.313003346932
  0
VERTEX
  8
1
 62
7
  6
CONTINUOUS
 10
-1706.73066185213
 20
845.886978672463
  0
VERTEX
  8
1
 62
7
  6
CONTINUOUS
 10
-1705.13883586368
 20
860.287381785203
  0
VERTEX
  8
1
 62
7
  6
CONTINUOUS
 10
-1691.98861578969
 20
870.196302489267
  0
VERTEX
  8
1
 62
7
  6
CONTINUOUS
 10
-1674.00516724569
 20
865.916023925766
  0
VERTEX
  8
1
 62
7
  6
CONTINUOUS
 10
-1667.33196279691
 20
877.169242224135
  0
VERTEX
  8
1
 62
7
  6
CONTINUOUS
 10
-1665.04488812682
 20
875.413273505162
  0
VERTEX
  8
1
 62
7
  6
CONTINUOUS
 10
-1663.14556482271
 20
865.988720818425
  0
VERTEX
  8
1
 62
7
  6
CONTINUOUS
 10
-1639.53111483775
 20
865.912914150604
  0
VERTEX
  8
1
 62
7
  6
CONTINUOUS
 10
-1633.67655489647
 20
878.49627244363
  0
VERTEX
  8
1
 62
7
  6
CONTINUOUS
 10
-1628.29826411279
 20
877.101164195544
  0
VERTEX
  8
1
 62
7
  6
CONTINUOUS
 10
-1623.58345769047
 20
865.157472074402
  0
VERTEX
  8
1
 62
7
  6
CONTINUOUS
 10
-1601.16723403351
 20
868.269384382064
  0
VERTEX
  8
1
 62
7
  6
CONTINUOUS
 10
-1600.2188348633
 20
882.8010002452
  0
VERTEX
  8
1
 62
7
  6
CONTINUOUS
 10
-1596.17106640148
 20
881.799377880759
  0
VERTEX
  8
1
 62
7
  6
CONTINUOUS
 10
-1593.07188546562
 20
873.244646416472
  0
VERTEX
  8
1
 62
7
  6
CONTINUOUS
 10
-1536.67984495485
 20
862.366787492147
  0
VERTEX
  8
1
 62
7
  6
CONTINUOUS
 10
-1532.39436075066
 20
869.872076503213
  0
VERTEX
  8
1
 62
7
  6
CONTINUOUS
 10
-1526.0168266872
 20
870.808341374525
  0
VERTEX
  8
1
 62
7
  6
CONTINUOUS
 10
-1525.78450751368
 20
856.984550552321
  0
VERTEX
  8
1
 62
7
  6
CONTINUOUS
 10
-1509.01584191271
 20
856.334984797552
  0
VERTEX
  8
1
 62
7
  6
CONTINUOUS
 10
-1476.44582123152
 20
866.545775993332
  0
VERTEX
  8
1
 62
7
  6
CONTINUOUS
 10
-1477.33370424684
 20
882.018597884289
  0
VERTEX
  8
1
 62
7
  6
CONTINUOUS
 10
-1460.96037099273
 20
871.510488036683
  0
VERTEX
  8
1
 62
7
  6
CONTINUOUS
 10
-1412.24106027414
 20
887.514968569021
  0
VERTEX
  8
1
 62
7
  6
CONTINUOUS
 10
-1409.03129841584
 20
885.903951987889
  0
VERTEX
  8
1
 62
7
  6
CONTINUOUS
 10
-1389.90746561922
 20
887.520019638886
  0
VERTEX
  8
1
 62
7
  6
CONTINUOUS
 10
-1382.24318020863
 20
886.879935721542
  0
VERTEX
  8
1
 62
7
  6
CONTINUOUS
 10
-1366.34739452457
 20
888.870093808597
  0
VERTEX
  8
1
 62
7
  6
CONTINUOUS
 10
-1340.52825691683
 20
885.646015676196
  0
VERTEX
  8
1
 62
7
  6
CONTINUOUS
 10
-1319.50936576139
 20
904.328406283642
  0
VERTEX
  8
1
 62
7
  6
CONTINUOUS
 10
-1281.7947925916
 20
930.56024409434
  0
VERTEX
  8
1
 62
7
  6
CONTINUOUS
 10
-1278.92054779727
 20
945.099450269708
  0
VERTEX
  8
1
 62
7
  6
CONTINUOUS
 10
-1270.80722841356
 20
951.526388697403
  0
VERTEX
  8
1
 62
7
  6
CONTINUOUS
 10
-1262.85916227909
 20
943.677991707395
  0
VERTEX
  8
1
 62
7
  6
CONTINUOUS
 10
-1232.29033277344
 20
964.053721427273
  0
VERTEX
  8
1
 62
7
  6
CONTINUOUS
 10
-1236.44984537569
 20
975.969843902466
  0
VERTEX
  8
1
 62
7
  6
CONTINUOUS
 10
-1220.28927212915
 20
983.4489091994
  0
VERTEX
  8
1
 62
7
  6
CONTINUOUS
 10
-1209.8212830422
 20
980.345493735579
  0
VERTEX
  8
1
 62
7
  6
CONTINUOUS
 10
-1176.31472583825
 20
991.521445695307
  0
VERTEX
  8
1
 62
7
  6
CONTINUOUS
 10
-1097.84063542812
 20
1008.4084992713
  0
VERTEX
  8
1
 62
7
  6
CONTINUOUS
 10
-1082.96695527339
 20
1025.13833267594
  0
VERTEX
  8
1
 62
7
  6
CONTINUOUS
 10
-1036.03128250476
 20
1041.78951661657
  0
VERTEX
  8
1
 62
7
  6
CONTINUOUS
 10
-1012.05217997562
 20
1044.18686758237
  0
VERTEX
  8
1
 62
7
  6
CONTINUOUS
 10
-951.694788087645
 20
1059.27639763286
  0
VERTEX
  8
1
 62
7
  6
CONTINUOUS
 10
-915.316972529299
 20
1060.62375349387
  0
VERTEX
  8
1
 62
7
  6
CONTINUOUS
 10
-864.492834860438
 20
1049.57497833545
  0
VERTEX
  8
1
 62
7
  6
CONTINUOUS
 10
-839.388890904846
 20
1041.58712714767
  0
VERTEX
  8
1
 62
7
  6
CONTINUOUS
 10
-757.419996415639
 20
1033.38994175733
  0
VERTEX
  8
1
 62
7
  6
CONTINUOUS
 10
-675.533620140175
 20
993.926027861736
  0
VERTEX
  8
1
 62
7
  6
CONTINUOUS
 10
-619.758185071616
 20
971.845263175563
  0
VERTEX
  8
1
 62
7
  6
CONTINUOUS
 10
-617.170960368028
 20
957.926418420447
  0
VERTEX
  8
1
 62
7
  6
CONTINUOUS
 10
-611.152879906837
 20
970.970695362042
  0
VERTEX
  8
1
 62
7
  6
CONTINUOUS
 10
-600.212747277256
 20
969.918988744154
  0
VERTEX
  8
1
 62
7
  6
CONTINUOUS
 10
-537.923471965583
 20
971.519310781198
  0
VERTEX
  8
1
 62
7
  6
CONTINUOUS
 10
-509.545739047901
 20
982.434387698715
  0
VERTEX
  8
1
 62
7
  6
CONTINUOUS
 10
-473.371629389933
 20
980.710295436206
  0
VERTEX
  8
1
 62
7
  6
CONTINUOUS
 10
-445.125158882748
 20
996.31408870604
  0
VERTEX
  8
1
 62
7
  6
CONTINUOUS
 10
-433.120023095731
 20
1027.52805840951
  0
VERTEX
  8
1
 62
7
  6
CONTINUOUS
 10
-449.923426410717
 20
1070.72582770025
  0
VERTEX
  8
1
 62
7
  6
CONTINUOUS
 10
-485.614976264251
 20
1113.91517785262
  0
VERTEX
  8
1
 62
7
  6
CONTINUOUS
 10
-489.954594944364
 20
1115.53970312638
  0
VERTEX
  8
1
 62
7
  6
CONTINUOUS
 10
-538.697369484641
 20
1155.50375417404
  0
VERTEX
  8
1
 62
7
  6
CONTINUOUS
 10
-549.028475916978
 20
1161.80720508425
  0
VERTEX
  8
1
 62
7
  6
CONTINUOUS
 10
-551.735912491924
 20
1168.5047379579
  0
VERTEX
  8
1
 62
7
  6
CONTINUOUS
 10
-564.801596785728
 20
1169.98952508449
  0
VERTEX
  8
1
 62
7
  6
CONTINUOUS
 10
-607.776942575131
 20
1193.88535095134
  0
VERTEX
  8
1
 62
7
  6
CONTINUOUS
 10
-646.709893257924
 20
1229.11011357598
  0
VERTEX
  8
1
 62
7
  6
CONTINUOUS
 10
-662.970973801041
 20
1246.16487003196
  0
VERTEX
  8
1
 62
7
  6
CONTINUOUS
 10
-664.71082025924
 20
1258.15557429257
  0
VERTEX
  8
1
 62
7
  6
CONTINUOUS
 10
-652.348090901603
 20
1271.51017241782
  0
VERTEX
  8
1
 62
7
  6
CONTINUOUS
 10
-646.7718845864
 20
1270.76285477644
  0
VERTEX
  8
1
 62
7
  6
CONTINUOUS
 10
-640.033479991992
 20
1252.97370329851
  0
VERTEX
  8
1
 62
7
  6
CONTINUOUS
 10
-632.202349367725
 20
1254.77799110566
  0
VERTEX
  8
1
 62
7
  6
CONTINUOUS
 10
-623.499546190205
 20
1261.9141405891
  0
VERTEX
  8
1
 62
7
  6
CONTINUOUS
 10
-621.339821211878
 20
1255.23072892219
  0
VERTEX
  8
1
 62
7
  6
CONTINUOUS
 10
-626.30693827709
 20
1243.0881383471
  0
VERTEX
  8
1
 62
7
  6
CONTINUOUS
 10
-577.889439909847
 20
1212.30746418655
  0
VERTEX
  8
1
 62
7
  6
CONTINUOUS
 10
-545.918204286843
 20
1205.11986325546
  0
VERTEX
  8
1
 62
7
  6
CONTINUOUS
 10
-525.049321286047
 20
1206.55959747662
  0
VERTEX
  8
1
 62
7
  6
CONTINUOUS
 10
-489.92170639971
 20
1218.71956882303
  0
VERTEX
  8
1
 62
7
  6
CONTINUOUS
 10
-402.286334942275
 20
1232.97403963733
  0
VERTEX
  8
1
 62
7
  6
CONTINUOUS
 10
-397.235163894294
 20
1236.76554291264
  0
VERTEX
  8
1
 62
7
  6
CONTINUOUS
 10
-421.123424244734
 20
1304.77596183019
  0
VERTEX
  8
1
 62
7
  6
CONTINUOUS
 10
-421.119704077958
 20
1348.12226320592
  0
VERTEX
  8
1
 62
7
  6
CONTINUOUS
 10
-409.542601631468
 20
1391.53521571009
  0
VERTEX
  8
1
 62
7
  6
CONTINUOUS
 10
-387.321681724264
 20
1448.09771021727
  0
VERTEX
  8
1
 62
7
  6
CONTINUOUS
 10
-370.166714961128
 20
1470.39906738474
  0
VERTEX
  8
1
 62
7
  6
CONTINUOUS
 10
-344.054507240476
 20
1491.01374389803
  0
VERTEX
  8
1
 62
7
  6
CONTINUOUS
 10
-288.31933451308
 20
1517.92024100609
  0
VERTEX
  8
1
 62
7
  6
CONTINUOUS
 10
-268.133853399188
 20
1522.96667907478
  0
VERTEX
  8
1
 62
7
  6
CONTINUOUS
 10
-245.119990942718
 20
1533.12000365724
  0
VERTEX
  8
1
 62
7
  6
CONTINUOUS
 10
-200.564676208282
 20
1549.48837928483
  0
VERTEX
  8
1
 62
7
  6
CONTINUOUS
 10
-178.329861692823
 20
1552.27018394486
  0
VERTEX
  8
1
 62
7
  6
CONTINUOUS
 10
-117.505320741928
 20
1528.43004015955
  0
VERTEX
  8
1
 62
7
  6
CONTINUOUS
 10
-107.719658187073
 20
1527.34807989019
  0
VERTEX
  8
1
 62
7
  6
CONTINUOUS
 10
-107.462217098703
 20
1535.86899908802
  0
VERTEX
  8
1
 62
7
  6
CONTINUOUS
 10
-93.8966183614303
 20
1540.36188010941
  0
VERTEX
  8
1
 62
7
  6
CONTINUOUS
 10
-95.4910038684389
 20
1547.59196934989
  0
VERTEX
  8
1
 62
7
  6
CONTINUOUS
 10
-77.9935902474008
 20
1558.53341019986
  0
VERTEX
  8
1
 62
7
  6
CONTINUOUS
 10
-82.7479552277252
 20
1574.09425502099
  0
VERTEX
  8
1
 62
7
  6
CONTINUOUS
 10
-69.0364965292318
 20
1566.93510332248
  0
VERTEX
  8
1
 62
7
  6
CONTINUOUS
 10
-61.3074084633545
 20
1581.01782731668
  0
VERTEX
  8
1
 62
7
  6
CONTINUOUS
 10
-57.4355276389138
 20
1581.0218460381
  0
VERTEX
  8
1
 62
7
  6
CONTINUOUS
 10
-55.5403375270749
 20
1595.46786617797
  0
VERTEX
  8
1
 62
7
  6
CONTINUOUS
 10
-48.2699835649368
 20
1605.53269217796
  0
VERTEX
  8
1
 62
7
  6
CONTINUOUS
 10
-56.3037630269809
 20
1611.64549411629
  0
VERTEX
  8
1
 62
7
  6
CONTINUOUS
 10
-47.526320349489
 20
1614.60269316985
  0
VERTEX
  8
1
 62
7
  6
CONTINUOUS
 10
-41.8035317578171
 20
1633.32685727001
  0
VERTEX
  8
1
 62
7
  6
CONTINUOUS
 10
-81.8677381437914
 20
1667.20710735732
  0
VERTEX
  8
1
 62
7
  6
CONTINUOUS
 10
-96.8652746441912
 20
1685.13094884656
  0
VERTEX
  8
1
 62
7
  6
CONTINUOUS
 10
-81.0715027640407
 20
1683.66822292154
  0
VERTEX
  8
1
 62
7
  6
CONTINUOUS
 10
-97.9807841407209
 20
1694.09143626657
  0
VERTEX
  8
1
 62
7
  6
CONTINUOUS
 10
-96.2439520104966
 20
1697.95242483235
  0
VERTEX
  8
1
 62
7
  6
CONTINUOUS
 10
-83.1090630279283
 20
1692.29313548351
  0
VERTEX
  8
1
 62
7
  6
CONTINUOUS
 10
-64.7134975972303
 20
1692.31974561618
  0
VERTEX
  8
1
 62
7
  6
CONTINUOUS
 10
-34.7892732107488
 20
1689.91671121112
  0
VERTEX
  8
1
 62
7
  6
CONTINUOUS
 10
-5.96383725314311
 20
1695.46755861216
  0
VERTEX
  8
1
 62
7
  6
CONTINUOUS
 10
-6.55313136569426
 20
1937.72964541135
  0
VERTEX
  8
1
 62
7
  6
CONTINUOUS
 10
-17.9201946652853
 20
1938.72067491375
  0
VERTEX
  8
1
 62
7
  6
CONTINUOUS
 10
-5.80995123539944
 20
1947.78254792075
  0
VERTEX
  8
1
 62
7
  6
CONTINUOUS
 10
-8.03809014610013
 20
1976.54330164189
  0
VERTEX
  8
1
 62
7
  6
CONTINUOUS
 10
-12.3198577382553
 20
1985.02374427149
  0
VERTEX
  8
1
 62
7
  6
CONTINUOUS
 10
-6.8357457976221
 20
1995.52360053862
  0
VERTEX
  8
1
 62
7
  6
CONTINUOUS
 10
-9.26431729412238
 20
2001.70633054855
  0
VERTEX
  8
1
 62
7
  6
CONTINUOUS
 10
-27.2738758504527
 20
1978.43983358973
  0
VERTEX
  8
1
 62
7
  6
CONTINUOUS
 10
-38.5734290860691
 20
1975.30123872197
  0
VERTEX
  8
1
 62
7
  6
CONTINUOUS
 10
-25.9245663541357
 20
1995.5266211199
  0
VERTEX
  8
1
 62
7
  6
CONTINUOUS
 10
-49.3503885379176
 20
1991.0197021603
  0
VERTEX
  8
1
 62
7
  6
CONTINUOUS
 10
-44.866940792249
 20
1997.39275218877
  0
VERTEX
  8
1
 62
7
  6
CONTINUOUS
 10
-33.2234848663627
 20
2004.29282120498
  0
VERTEX
  8
1
 62
7
  6
CONTINUOUS
 10
-21.1350030712669
 20
2004.30976745066
  0
VERTEX
  8
1
 62
7
  6
CONTINUOUS
 10
-17.5109166359435
 20
2013.79810434999
  0
VERTEX
  8
1
 62
7
  6
CONTINUOUS
 10
-31.1492084453546
 20
2034.14553373766
  0
VERTEX
  8
1
 62
7
  6
CONTINUOUS
 10
-56.296681890794
 20
2046.70742100508
  0
VERTEX
  8
1
 62
7
  6
CONTINUOUS
 10
-77.7574940304888
 20
2058.99450104468
  0
VERTEX
  8
1
 62
7
  6
CONTINUOUS
 10
-91.9869326577611
 20
2052.90200059524
  0
VERTEX
  8
1
 62
7
  6
CONTINUOUS
 10
-109.043464948019
 20
2064.85358276224
  0
VERTEX
  8
1
 62
7
  6
CONTINUOUS
 10
-105.753613610334
 20
2075.00264084597
  0
VERTEX
  8
1
 62
7
  6
CONTINUOUS
 10
-124.372522933691
 20
2071.43808275621
  0
VERTEX
  8
1
 62
7
  6
CONTINUOUS
 10
-136.312348716195
 20
2083.50139599127
  0
VERTEX
  8
1
 62
7
  6
CONTINUOUS
 10
-136.32265067137
 20
2093.12494448697
  0
VERTEX
  8
1
 62
7
  6
CONTINUOUS
 10
-153.088113079669
 20
2104.30798171029
  0
VERTEX
  8
1
 62
7
  6
CONTINUOUS
 10
-159.44941855456
 20
2105.13664013934
  0
VERTEX
  8
1
 62
7
  6
CONTINUOUS
 10
-177.336419654542
 20
2092.80512672051
  0
VERTEX
  8
1
 62
7
  6
CONTINUOUS
 10
-180.346113406846
 20
2082.53954171835
  0
VERTEX
  8
1
 62
7
  6
CONTINUOUS
 10
-189.78624601894
 20
2080.16717370272
  0
VERTEX
  8
1
 62
7
  6
CONTINUOUS
 10
-196.414301011088
 20
2086.82304307922
  0
VERTEX
  8
1
 62
7
  6
CONTINUOUS
 10
-195.554751776662
 20
2101.56684952368
  0
VERTEX
  8
1
 62
7
  6
CONTINUOUS
 10
-212.346118474691
 20
2115.54460514393
  0
VERTEX
  8
1
 62
7
  6
CONTINUOUS
 10
-221.922622137319
 20
2125.92208527535
  0
VERTEX
  8
1
 62
7
  6
CONTINUOUS
 10
-227.503708372748
 20
2129.1128271972
  0
VERTEX
  8
1
 62
7
  6
CONTINUOUS
 10
-255.915426168901
 20
2138.1334465056
  0
VERTEX
  8
1
 62
7
  6
CONTINUOUS
 10
-259.572524266846
 20
2135.72182344479
  0
VERTEX
  8
1
 62
7
  6
CONTINUOUS
 10
-278.900321956923
 20
2146.251084758
  0
VERTEX
  8
1
 62
7
  6
CONTINUOUS
 10
-283.481398042677
 20
2155.33755999338
  0
VERTEX
  8
1
 62
7
  6
CONTINUOUS
 10
-283.374379655053
 20
2171.96161737818
  0
VERTEX
  8
1
 62
7
  6
CONTINUOUS
 10
-276.521371761293
 20
2166.99132606296
  0
VERTEX
  8
1
 62
7
  6
CONTINUOUS
 10
-242.700240247344
 20
2172.31913610044
  0
VERTEX
  8
1
 62
7
  6
CONTINUOUS
 10
-222.913327381099
 20
2167.36882015362
  0
VERTEX
  8
1
 62
7
  6
CONTINUOUS
 10
-201.922193622477
 20
2165.1200966435
  0
VERTEX
  8
1
 62
7
  6
CONTINUOUS
 10
-160.333582904442
 20
2165.91746177331
  0
VERTEX
  8
1
 62
7
  6
CONTINUOUS
 10
-59.2825404985053
 20
2203.38139609181
  0
VERTEX
  8
1
 62
7
  6
CONTINUOUS
 10
-48.2092173755267
 20
2191.55984204144
  0
VERTEX
  8
1
 62
7
  6
CONTINUOUS
 10
-47.2752106969671
 20
2202.23508949432
  0
VERTEX
  8
1
 62
7
  6
CONTINUOUS
 10
-16.6755306350688
 20
2209.00468803197
  0
VERTEX
  8
1
 62
7
  6
CONTINUOUS
 10
-5.95122273112503
 20
2214.49580137455
  0
VERTEX
  8
1
 62
7
  6
CONTINUOUS
 10
-18.0099563328474
 20
2225.30433968134
  0
VERTEX
  8
1
 62
7
  6
CONTINUOUS
 10
-17.915428930464
 20
2241.7331038532
  0
VERTEX
  8
1
 62
7
  6
CONTINUOUS
 10
-5.91906100833226
 20
2256.72267990476
  0
VERTEX
  8
1
 62
7
  6
CONTINUOUS
 10
-5.92072624785483
 20
2381.12445941081
  0
VERTEX
  8
1
 62
7
  6
CONTINUOUS
 10
-14.7002745461795
 20
2407.41707077164
  0
VERTEX
  8
1
 62
7
  6
CONTINUOUS
 10
-16.0564560498749
 20
2424.1078048277
  0
VERTEX
  8
1
 62
7
  6
CONTINUOUS
 10
-71.5215842102716
 20
2434.72036989779
  0
VERTEX
  8
1
 62
7
  6
CONTINUOUS
 10
-85.8950411373428
 20
2438.72108372648
  0
VERTEX
  8
1
 62
7
  6
CONTINUOUS
 10
-110.067473837231
 20
2429.49361955922
  0
VERTEX
  8
1
 62
7
  6
CONTINUOUS
 10
-119.444085286462
 20
2431.29505032318
  0
VERTEX
  8
1
 62
7
  6
CONTINUOUS
 10
-120.883026666094
 20
2442.27909699919
  0
VERTEX
  8
1
 62
7
  6
CONTINUOUS
 10
-184.956991742774
 20
2458.27992973127
  0
VERTEX
  8
1
 62
7
  6
CONTINUOUS
 10
-212.737476866136
 20
2467.94088687231
  0
VERTEX
  8
1
 62
7
  6
CONTINUOUS
 10
-231.300783905278
 20
2486.49654792612
  0
VERTEX
  8
1
 62
7
  6
CONTINUOUS
 10
-232.293455735612
 20
2486.70554116331
  0
VERTEX
  8
1
 62
7
  6
CONTINUOUS
 10
-261.112690860352
 20
2514.71971331657
  0
VERTEX
  8
1
 62
7
  6
CONTINUOUS
 10
-270.751196326876
 20
2506.71821131184
  0
VERTEX
  8
1
 62
7
  6
CONTINUOUS
 10
-273.11675232747
 20
2508.31049568527
  0
VERTEX
  8
1
 62
7
  6
CONTINUOUS
 10
-269.173731686896
 20
2520.46361140617
  0
VERTEX
  8
1
 62
7
  6
CONTINUOUS
 10
-280.441567139302
 20
2527.58741453593
  0
VERTEX
  8
1
 62
7
  6
CONTINUOUS
 10
-351.72506378249
 20
2564.29667033662
  0
VERTEX
  8
1
 62
7
  6
CONTINUOUS
 10
-362.736243477979
 20
2554.71199247148
  0
VERTEX
  8
1
 62
7
  6
CONTINUOUS
 10
-371.400688805344
 20
2552.91865545257
  0
VERTEX
  8
1
 62
7
  6
CONTINUOUS
 10
-387.18389378437
 20
2569.98250650126
  0
VERTEX
  8
1
 62
7
  6
CONTINUOUS
 10
-370.745646982742
 20
2581.23167147759
  0
VERTEX
  8
1
 62
7
  6
CONTINUOUS
 10
-385.321434672006
 20
2583.74053348971
  0
VERTEX
  8
1
 62
7
  6
CONTINUOUS
 10
-385.080340325661
 20
2590.57425824285
  0
VERTEX
  8
1
 62
7
  6
CONTINUOUS
 10
-350.078528043262
 20
2609.20458034133
  0
VERTEX
  8
1
 62
7
  6
CONTINUOUS
 10
-341.919113671752
 20
2635.43577885275
  0
VERTEX
  8
1
 62
7
  6
CONTINUOUS
 10
-345.880767533493
 20
2646.68824127294
  0
VERTEX
  8
1
 62
7
  6
CONTINUOUS
 10
-372.367006299177
 20
2649.91433239098
  0
VERTEX
  8
1
 62
7
  6
CONTINUOUS
 10
-406.89660538578
 20
2637.34643566662
  0
VERTEX
  8
1
 62
7
  6
CONTINUOUS
 10
-465.222708147981
 20
2610.42618472236
  0
VERTEX
  8
1
 62
7
  6
CONTINUOUS
 10
-537.227890097509
 20
2591.22305421311
  0
VERTEX
  8
1
 62
7
  6
CONTINUOUS
 10
-587.551470213027
 20
2601.27979302149
  0
VERTEX
  8
1
 62
7
  6
CONTINUOUS
 10
-600.012751113881
 20
2615.51670197987
  0
VERTEX
  8
1
 62
7
  6
CONTINUOUS
 10
-613.935355162216
 20
2615.52632300619
  0
VERTEX
  8
1
 62
7
  6
CONTINUOUS
 10
-633.143369323463
 20
2634.73214653699
  0
VERTEX
  8
1
 62
7
  6
CONTINUOUS
 10
-644.665470697485
 20
2636.81816705824
  0
VERTEX
  8
1
 62
7
  6
CONTINUOUS
 10
-656.66658097668
 20
2644.69172947026
  0
VERTEX
  8
1
 62
7
  6
CONTINUOUS
 10
-659.664784849071
 20
2644.27225018234
  0
VERTEX
  8
1
 62
7
  6
CONTINUOUS
 10
-668.277805060516
 20
2639.51035323585
  0
VERTEX
  8
1
 62
7
  6
CONTINUOUS
 10
-677.202608642111
 20
2651.59553518909
  0
VERTEX
  8
1
 62
7
  6
CONTINUOUS
 10
-699.519890599059
 20
2665.91990591776
  0
VERTEX
  8
1
 62
7
  6
CONTINUOUS
 10
-722.272839085348
 20
2691.77647339807
  0
VERTEX
  8
1
 62
7
  6
CONTINUOUS
 10
-730.720830027773
 20
2717.12284643298
  0
VERTEX
  8
1
 62
7
  6
CONTINUOUS
 10
-734.708919805276
 20
2733.08967175667
  0
VERTEX
  8
1
 62
7
  6
CONTINUOUS
 10
-765.722217490644
 20
2795.05277851123
  0
VERTEX
  8
1
 62
7
  6
CONTINUOUS
 10
-775.480587385337
 20
2791.51092787141
  0
VERTEX
  8
1
 62
7
  6
CONTINUOUS
 10
-777.919178064502
 20
2793.80186204063
  0
VERTEX
  8
1
 62
7
  6
CONTINUOUS
 10
-769.890907205132
 20
2802.82859646455
  0
VERTEX
  8
1
 62
7
  6
CONTINUOUS
 10
-780.662883915868
 20
2813.51559015759
  0
VERTEX
  8
1
 62
7
  6
CONTINUOUS
 10
-783.974714712513
 20
2826.94378165777
  0
VERTEX
  8
1
 62
7
  6
CONTINUOUS
 10
-801.140170134339
 20
2847.53161451226
  0
VERTEX
  8
1
 62
7
  6
CONTINUOUS
 10
-814.754976970037
 20
2849.9212876055
  0
VERTEX
  8
1
 62
7
  6
CONTINUOUS
 10
-857.923683769617
 20
2845.91916411438
  0
VERTEX
  8
1
 62
7
  6
CONTINUOUS
 10
-873.123416524951
 20
2840.31892212679
  0
VERTEX
  8
1
 62
7
  6
CONTINUOUS
 10
-888.318534797691
 20
2836.3204685584
  0
VERTEX
  8
1
 62
7
  6
CONTINUOUS
 10
-941.013677583725
 20
2816.34120627851
  0
VERTEX
  8
1
 62
7
  6
CONTINUOUS
 10
-954.707358603693
 20
2815.52964825864
  0
VERTEX
  8
1
 62
7
  6
CONTINUOUS
 10
-956.431074071112
 20
2810.61074875804
  0
VERTEX
  8
1
 62
7
  6
CONTINUOUS
 10
-967.27265284057
 20
2807.7199178617
  0
VERTEX
  8
1
 62
7
  6
CONTINUOUS
 10
-983.521123079432
 20
2795.51946060222
  0
VERTEX
  8
1
 62
7
  6
CONTINUOUS
 10
-1015.78847300538
 20
2787.21773102071
  0
VERTEX
  8
1
 62
7
  6
CONTINUOUS
 10
-1037.92234622091
 20
2788.321331044
  0
VERTEX
  8
1
 62
7
  6
CONTINUOUS
 10
-1042.3376676418
 20
2794.91766408935
  0
VERTEX
  8
1
 62
7
  6
CONTINUOUS
 10
-1059.18006658741
 20
2798.48802286401
  0
VERTEX
  8
1
 62
7
  6
CONTINUOUS
 10
-1067.42974845259
 20
2808.3444666996
  0
VERTEX
  8
1
 62
7
  6
CONTINUOUS
 10
-1069.49550336519
 20
2795.6237972376
  0
VERTEX
  8
1
 62
7
  6
CONTINUOUS
 10
-1089.7286532847
 20
2788.49149816267
  0
VERTEX
  8
1
 62
7
  6
CONTINUOUS
 10
-1101.33618894727
 20
2796.81010116036
  0
VERTEX
  8
1
 62
7
  6
CONTINUOUS
 10
-1132.51799007147
 20
2805.17930825653
  0
VERTEX
  8
1
 62
7
  6
CONTINUOUS
 10
-1141.13486200906
 20
2799.52238308179
  0
VERTEX
  8
1
 62
7
  6
CONTINUOUS
 10
-1146.91694151672
 20
2806.8189783037
  0
VERTEX
  8
1
 62
7
  6
CONTINUOUS
 10
-1157.19734280428
 20
2807.52222142854
  0
VERTEX
  8
1
 62
7
  6
CONTINUOUS
 10
-1205.09690909248
 20
2807.52246692599
  0
VERTEX
  8
1
 62
7
  6
CONTINUOUS
 10
-1218.48184998895
 20
2804.55381255204
  0
VERTEX
  8
1
 62
7
  6
CONTINUOUS
 10
-1237.70003687284
 20
2785.34104225862
  0
VERTEX
  8
1
 62
7
  6
CONTINUOUS
 10
-1276.82465941971
 20
2755.6609776348
  0
VERTEX
  8
1
 62
7
  6
CONTINUOUS
 10
-1312.10211392646
 20
2735.66374539826
  0
VERTEX
  8
1
 62
7
  6
CONTINUOUS
 10
-1377.83539254062
 20
2729.15065434226
  0
VERTEX
  8
1
 62
7
  6
CONTINUOUS
 10
-1380.52018817136
 20
2736.40190723555
  0
VERTEX
  8
1
 62
7
  6
CONTINUOUS
 10
-1387.88282507411
 20
2733.07562743667
  0
VERTEX
  8
1
 62
7
  6
CONTINUOUS
 10
-1396.34691577367
 20
2735.52054986807
  0
VERTEX
  8
1
 62
7
  6
CONTINUOUS
 10
-1403.49958990316
 20
2733.91967940371
  0
VERTEX
  8
1
 62
7
  6
CONTINUOUS
 10
-1422.57066040698
 20
2738.59408964601
  0
VERTEX
  8
1
 62
7
  6
CONTINUOUS
 10
-1423.15557286451
 20
2739.73908043651
  0
VERTEX
  8
1
 62
7
  6
CONTINUOUS
 10
-1460.34644630266
 20
2745.12051326084
  0
VERTEX
  8
1
 62
7
  6
CONTINUOUS
 10
-1485.09190785408
 20
2742.72385135765
  0
VERTEX
  8
1
 62
7
  6
CONTINUOUS
 10
-1521.31525448543
 20
2736.14679743671
  0
VERTEX
  8
1
 62
7
  6
CONTINUOUS
 10
-1526.06520837348
 20
2723.24112335662
  0
VERTEX
  8
1
 62
7
  6
CONTINUOUS
 10
-1532.50556503841
 20
2734.94389646065
  0
VERTEX
  8
1
 62
7
  6
CONTINUOUS
 10
-1553.67509418235
 20
2732.5721637382
  0
VERTEX
  8
1
 62
7
  6
CONTINUOUS
 10
-1553.89272759309
 20
2721.12713979283
  0
VERTEX
  8
1
 62
7
  6
CONTINUOUS
 10
-1560.62204475971
 20
2732.41846409929
  0
VERTEX
  8
1
 62
7
  6
CONTINUOUS
 10
-1616.00366134153
 20
2712.50316544385
  0
VERTEX
  8
1
 62
7
  6
CONTINUOUS
 10
-1651.87360817975
 20
2706.52701383192
  0
VERTEX
  8
1
 62
7
  6
CONTINUOUS
 10
-1696.32894395378
 20
2711.75572115683
  0
VERTEX
  8
1
 62
7
  6
CONTINUOUS
 10
-1735.08559586696
 20
2739.43977528696
  0
VERTEX
  8
1
 62
7
  6
CONTINUOUS
 10
-1753.10332070197
 20
2742.72158666379
  0
VERTEX
  8
1
 62
7
  6
CONTINUOUS
 10
-1811.80811350334
 20
2719.68271005518
  0
VERTEX
  8
1
 62
7
  6
CONTINUOUS
 10
-1834.85749046108
 20
2735.5052024709
  0
VERTEX
  8
1
 62
7
  6
CONTINUOUS
 10
-1841.79932704401
 20
2728.38197316038
  0
VERTEX
  8
1
 62
7
  6
CONTINUOUS
 10
-1845.75728601734
 20
2727.37911892194
  0
VERTEX
  8
1
 62
7
  6
CONTINUOUS
 10
-1846.00848999025
 20
2741.23343230115
  0
VERTEX
  8
1
 62
7
  6
CONTINUOUS
 10
-1876.36725466114
 20
2749.92414444087
  0
VERTEX
  8
1
 62
7
  6
CONTINUOUS
 10
-1909.92158135332
 20
2746.71941566244
  0
VERTEX
  8
1
 62
7
  6
CONTINUOUS
 10
-1939.52461390468
 20
2725.91571563025
  0
VERTEX
  8
1
 62
7
  6
CONTINUOUS
 10
-1969.11916807644
 20
2689.92082684634
  0
VERTEX
  8
1
 62
7
  6
CONTINUOUS
 10
-1981.9178399154
 20
2679.52229229511
  0
VERTEX
  8
1
 62
7
  6
CONTINUOUS
 10
-2045.21443953544
 20
2591.25948481186
  0
VERTEX
  8
1
 62
7
  6
CONTINUOUS
 10
-2077.79183701919
 20
2573.87939985739
  0
VERTEX
  8
1
 62
7
  6
CONTINUOUS
 10
-2089.66336308226
 20
2577.83947313653
  0
VERTEX
  8
1
 62
7
  6
CONTINUOUS
 10
-2115.70441301842
 20
2625.58568053871
  0
VERTEX
  8
1
 62
7
  6
CONTINUOUS
 10
-2137.9249827397
 20
2642.72378401758
  0
VERTEX
  8
1
 62
7
  6
CONTINUOUS
 10
-2150.70768251845
 20
2652.31094751834
  0
VERTEX
  8
1
 62
7
  6
CONTINUOUS
 10
-2156.3039036238
 20
2656.30365612622
  0
VERTEX
  8
1
 62
7
  6
CONTINUOUS
 10
-2161.91631371128
 20
2664.31661335395
  0
VERTEX
  8
1
 62
7
  6
CONTINUOUS
 10
-2177.11919932039
 20
2673.11972265513
  0
VERTEX
  8
1
 62
7
  6
CONTINUOUS
 10
-2205.12271183265
 20
2677.11971755733
  0
VERTEX
  8
1
 62
7
  6
CONTINUOUS
 10
-2240.32443036591
 20
2664.31809119199
  0
VERTEX
  8
1
 62
7
  6
CONTINUOUS
 10
-2261.91756390497
 20
2653.52090027123
  0
VERTEX
  8
1
 62
7
  6
CONTINUOUS
 10
-2300.05349737989
 20
2643.98896430986
  0
VERTEX
  8
1
 62
7
  6
CONTINUOUS
 10
-2309.91423876971
 20
2637.92584124599
  0
VERTEX
  8
1
 62
7
  6
CONTINUOUS
 10
-2325.1209306752
 20
2612.31780323947
  0
VERTEX
  8
1
 62
7
  6
CONTINUOUS
 10
-2340.71763512853
 20
2555.12406958119
  0
VERTEX
  8
1
 62
7
  6
CONTINUOUS
 10
-2361.6946147064
 20
2534.14980535074
  0
VERTEX
  8
1
 62
7
  6
CONTINUOUS
 10
-2380.33331440456
 20
2529.91848346081
  0
VERTEX
  8
1
 62
7
  6
CONTINUOUS
 10
-2445.11749223708
 20
2529.92011506375
  0
VERTEX
  8
1
 62
7
  6
CONTINUOUS
 10
-2488.12945137803
 20
2525.89633378485
  0
VERTEX
  8
1
 62
7
  6
CONTINUOUS
 10
-2496.01159453611
 20
2528.40795607464
  0
VERTEX
  8
1
 62
7
  6
CONTINUOUS
 10
-2500.68415969529
 20
2521.93995896052
  0
VERTEX
  8
1
 62
7
  6
CONTINUOUS
 10
-2508.42096687121
 20
2528.26314002293
  0
VERTEX
  8
1
 62
7
  6
CONTINUOUS
 10
-2506.89009739614
 20
2517.51756721535
  0
VERTEX
  8
1
 62
7
  6
CONTINUOUS
 10
-2541.15156460659
 20
2498.67521483952
  0
VERTEX
  8
1
 62
7
  6
CONTINUOUS
 10
-2544.31853140141
 20
2481.08081787691
  0
VERTEX
  8
1
 62
7
  6
CONTINUOUS
 10
-2532.35253021748
 20
2433.25416615784
  0
VERTEX
  8
1
 62
7
  6
CONTINUOUS
 10
-2519.52043450391
 20
2414.72076600888
  0
VERTEX
  8
1
 62
7
  6
CONTINUOUS
 10
-2508.31784130694
 20
2390.07009484051
  0
VERTEX
  8
1
 62
7
  6
CONTINUOUS
 10
-2508.31826173479
 20
2381.90467833744
  0
VERTEX
  8
1
 62
7
  6
CONTINUOUS
 10
-2501.9201068866
 20
2353.57810253661
  0
VERTEX
  8
1
 62
7
  6
CONTINUOUS
 10
-2501.91989764993
 20
2325.52073029504
  0
VERTEX
  8
1
 62
7
  6
CONTINUOUS
 10
-2515.87049265774
 20
2276.69329506314
  0
VERTEX
  8
1
 62
7
  6
CONTINUOUS
 10
-2551.50326165833
 20
2216.48637747445
  0
VERTEX
  8
1
 62
7
  6
CONTINUOUS
 10
-2617.91013079701
 20
2153.93006071413
  0
SEQEND
  0
ENDSEC
  0
EOF
