  0
SECTION
  2
HEADER
  9
$ACADVER
  1
AC1009
  9
$DWGCODEPAGE
  3
ANSI_1252
  9
$EXTMIN
 10
1e+20
 20
1e+20
 30
1e+20
  9
$EXTMAX
 10
-1e+20
 20
-1e+20
 30
-1e+20
  9
$LIMMIN
 10
0.0
 20
0.0
  9
$LIMMAX
 10
420.0
 20
297.0
  9
$TDCREATE
 40
2459748.606527778
  9
$TDUPDATE
 40
2459748.606527778
  9
$PEXTMIN
 10
1e+20
 20
1e+20
 30
1e+20
  9
$PEXTMAX
 10
-1e+20
 20
-1e+20
 30
-1e+20
  9
$PLIMMIN
 10
0.0
 20
0.0
  9
$PLIMMAX
 10
420.0
 20
297.0
  0
ENDSEC
  0
SECTION
  2
TABLES
  0
TABLE
  2
VPORT
 70
1
  0
VPORT
  2
*Active
 70
0
 10
0.0
 20
0.0
 11
1.0
 21
1.0
 12
0.0
 22
0.0
 13
0.0
 23
0.0
 14
0.5
 24
0.5
 15
0.5
 25
0.5
 16
0.0
 26
0.0
 36
1.0
 17
0.0
 27
0.0
 37
0.0
 40
1000.0
 41
1.34
 42
50.0
 43
0.0
 44
0.0
 50
0.0
 51
0.0
 71
0
 72
1000
 73
1
 74
3
 75
0
 76
0
 77
0
 78
0
  0
ENDTAB
  0
TABLE
  2
LTYPE
 70
3
  0
LTYPE
  2
ByBlock
 70
0
  3

 72
65
 73
0
 40
0.0
  0
LTYPE
  2
ByLayer
 70
0
  3

 72
65
 73
0
 40
0.0
  0
LTYPE
  2
Continuous
 70
0
  3

 72
65
 73
0
 40
0.0
  0
ENDTAB
  0
TABLE
  2
LAYER
 70
2
  0
LAYER
  2
0
 70
0
 62
7
  6
Continuous
  0
LAYER
  2
Defpoints
 70
0
 62
7
  6
Continuous
  0
ENDTAB
  0
TABLE
  2
STYLE
 70
1
  0
STYLE
  2
Standard
 70
0
 40
0.0
 41
1.0
 50
0.0
 71
0
 42
2.5
  3
txt
  4

  0
ENDTAB
  0
TABLE
  2
VIEW
 70
0
  0
ENDTAB
  0
TABLE
  2
UCS
 70
0
  0
ENDTAB
  0
TABLE
  2
APPID
 70
3
  0
APPID
  2
ACAD
 70
0
  0
APPID
  2
HATCHBACKGROUNDCOLOR
 70
0
  0
APPID
  2
EZDXF
 70
0
  0
ENDTAB
  0
TABLE
  2
DIMSTYLE
 70
1
  0
DIMSTYLE
  2
Standard
 70
0
  3

  4

  5

  6

  7

 40
1.0
 41
2.5
 42
0.625
 43
3.75
 44
1.25
 45
0.0
 46
0.0
 47
0.0
 48
0.0
140
2.5
141
2.5
142
0.0
143
0.03937007874
144
1.0
145
0.0
146
1.0
147
0.625
 71
0
 72
0
 73
0
 74
0
 75
0
 76
0
 77
1
 78
8
170
0
171
3
172
1
173
0
174
0
175
0
176
0
177
0
178
0
  0
ENDTAB
  0
ENDSEC
  0
SECTION
  2
BLOCKS
  0
BLOCK
  8
0
  2
$Model_Space
 70
0
 10
0.0
 20
0.0
 30
0.0
  3
$Model_Space
  1

1001
EZDXF
1000
WRITTEN_BY_EZDXF
1000
0.17.2 @ 2022-06-17T12:33:24.464799+00:00
  0
ENDBLK
  8
0
  0
BLOCK
  8
0
  2
$Paper_Space
 70
0
 10
0.0
 20
0.0
 30
0.0
  3
$Paper_Space
  1

  0
ENDBLK
  8
0
  0
ENDSEC
  0
SECTION
  2
ENTITIES
  0
TEXT
  8
72
 62
3
 10
-313.250004708298
 20
1623.25002438252
 30
0.0
 40
50.0000007509247
  1
MARK_1
 50
90.0
 11
-313.250004708298
 21
1623.25002438252
 31
0.0
 73
1
  0
TEXT
  8
72
 62
3
 10
-386.250005804648
 20
2182.25003277786
 30
0.0
 40
50.0000007509247
  1
MARK_2
 50
90.0
 11
-386.250005804648
 21
2182.25003277786
 31
0.0
 73
1
  0
POLYLINE
  8
52
 62
7
 66
1
 10
0.0
 20
0.0
 30
0.0
 70
1
  0
VERTEX
  8
52
  6
CONTINUOUS
 62
7
 10
-214.157168521698
 20
2218.8522960544
 30
0.0
 70
0
  0
VERTEX
  8
52
  6
CONTINUOUS
 62
7
 10
-210.342837861162
 20
2217.64777058265
 30
0.0
 70
0
  0
VERTEX
  8
52
  6
CONTINUOUS
 62
7
 10
-198.34283768094
 20
2255.64777115336
 30
0.0
 70
0
  0
VERTEX
  8
52
  6
CONTINUOUS
 62
7
 10
-202.157168341476
 20
2256.85229662511
 30
0.0
 70
0
  0
SEQEND
  8
0
  0
POLYLINE
  8
52
 62
7
 66
1
 10
0.0
 20
0.0
 30
0.0
 70
1
  0
VERTEX
  8
52
  6
CONTINUOUS
 62
7
 10
-644.211171000764
 20
1703.64225785428
 30
0.0
 70
0
  0
VERTEX
  8
52
  6
CONTINUOUS
 62
7
 10
-640.288848298001
 20
1702.85779331373
 30
0.0
 70
0
  0
VERTEX
  8
52
  6
CONTINUOUS
 62
7
 10
-637.250009604327
 20
1718.0519867821
 30
0.0
 70
0
  0
VERTEX
  8
52
  6
CONTINUOUS
 62
7
 10
-637.250009604327
 20
1730.2500259895
 30
0.0
 70
0
  0
VERTEX
  8
52
  6
CONTINUOUS
 62
7
 10
-641.250009604327
 20
1730.2500259895
 30
0.0
 70
0
  0
VERTEX
  8
52
  6
CONTINUOUS
 62
7
 10
-641.250009604327
 20
1718.44806483647
 30
0.0
 70
0
  0
SEQEND
  8
0
  0
POLYLINE
  8
52
 62
7
 66
1
 10
0.0
 20
0.0
 30
0.0
 70
1
  0
VERTEX
  8
52
  6
CONTINUOUS
 62
7
 10
-571.147375149133
 20
1816.88248281313
 30
0.0
 70
0
  0
VERTEX
  8
52
  6
CONTINUOUS
 62
7
 10
-567.352641956931
 20
1815.61757174906
 30
0.0
 70
0
  0
VERTEX
  8
52
  6
CONTINUOUS
 62
7
 10
-562.25000847794
 20
1830.92547218603
 30
0.0
 70
0
  0
VERTEX
  8
52
  6
CONTINUOUS
 62
7
 10
-562.25000847794
 20
1835.25002756645
 30
0.0
 70
0
  0
VERTEX
  8
52
  6
CONTINUOUS
 62
7
 10
-566.25000847794
 20
1835.25002756645
 30
0.0
 70
0
  0
VERTEX
  8
52
  6
CONTINUOUS
 62
7
 10
-566.25000847794
 20
1831.57458282671
 30
0.0
 70
0
  0
SEQEND
  8
0
  0
POLYLINE
  8
52
 62
7
 66
1
 10
0.0
 20
0.0
 30
0.0
 70
1
  0
VERTEX
  8
52
  6
CONTINUOUS
 62
7
 10
-496.106960808416
 20
1699.50724418624
 30
0.0
 70
0
  0
VERTEX
  8
52
  6
CONTINUOUS
 62
7
 10
-488.181732333286
 20
1679.69417299842
 30
0.0
 70
0
  0
VERTEX
  8
52
  6
CONTINUOUS
 62
7
 10
-486.21774709666
 20
1668.89225419698
 30
0.0
 70
0
  0
VERTEX
  8
52
  6
CONTINUOUS
 62
7
 10
-482.28226745626
 20
1669.60779594978
 30
0.0
 70
0
  0
VERTEX
  8
52
  6
CONTINUOUS
 62
7
 10
-484.318282279709
 20
1680.80587747874
 30
0.0
 70
0
  0
VERTEX
  8
52
  6
CONTINUOUS
 62
7
 10
-492.393054044875
 20
1700.99280689166
 30
0.0
 70
0
  0
SEQEND
  8
0
  0
POLYLINE
  8
52
 62
7
 66
1
 10
0.0
 20
0.0
 30
0.0
 70
1
  0
VERTEX
  8
52
  6
CONTINUOUS
 62
7
 10
-475.179534753732
 20
1662.72379017168
 30
0.0
 70
0
  0
VERTEX
  8
52
  6
CONTINUOUS
 62
7
 10
-472.102060476445
 20
1651.43971782163
 30
0.0
 70
0
  0
VERTEX
  8
52
  6
CONTINUOUS
 62
7
 10
-466.946003599119
 20
1643.19002681791
 30
0.0
 70
0
  0
VERTEX
  8
52
  6
CONTINUOUS
 62
7
 10
-463.554010383099
 20
1645.31002257792
 30
0.0
 70
0
  0
VERTEX
  8
52
  6
CONTINUOUS
 62
7
 10
-468.397953655957
 20
1653.06033181449
 30
0.0
 70
0
  0
VERTEX
  8
52
  6
CONTINUOUS
 62
7
 10
-471.320479468781
 20
1663.77625979485
 30
0.0
 70
0
  0
SEQEND
  8
0
  0
POLYLINE
  8
52
 62
7
 66
1
 10
0.0
 20
0.0
 30
0.0
 70
1
  0
VERTEX
  8
52
  6
CONTINUOUS
 62
7
 10
-459.888470727018
 20
1746.39695090351
 30
0.0
 70
0
  0
VERTEX
  8
52
  6
CONTINUOUS
 62
7
 10
-456.611543044941
 20
1744.10310152605
 30
0.0
 70
0
  0
VERTEX
  8
52
  6
CONTINUOUS
 62
7
 10
-449.25000678085
 20
1754.61958190333
 30
0.0
 70
0
  0
VERTEX
  8
52
  6
CONTINUOUS
 62
7
 10
-449.25000678085
 20
1758.25002641002
 30
0.0
 70
0
  0
VERTEX
  8
52
  6
CONTINUOUS
 62
7
 10
-453.25000678085
 20
1758.25002641002
 30
0.0
 70
0
  0
VERTEX
  8
52
  6
CONTINUOUS
 62
7
 10
-453.25000678085
 20
1755.8804708266
 30
0.0
 70
0
  0
SEQEND
  8
0
  0
POLYLINE
  8
52
 62
7
 66
1
 10
0.0
 20
0.0
 30
0.0
 70
1
  0
VERTEX
  8
52
  6
CONTINUOUS
 62
7
 10
-430.038860817425
 20
1797.14445417172
 30
0.0
 70
0
  0
VERTEX
  8
52
  6
CONTINUOUS
 62
7
 10
-426.461152053425
 20
1795.35559978972
 30
0.0
 70
0
  0
VERTEX
  8
52
  6
CONTINUOUS
 62
7
 10
-422.606297545097
 20
1803.06530880638
 30
0.0
 70
0
  0
VERTEX
  8
52
  6
CONTINUOUS
 62
7
 10
-418.835792752904
 20
1806.83581359857
 30
0.0
 70
0
  0
VERTEX
  8
52
  6
CONTINUOUS
 62
7
 10
-421.66421987765
 20
1809.66424072332
 30
0.0
 70
0
  0
VERTEX
  8
52
  6
CONTINUOUS
 62
7
 10
-425.893715205604
 20
1805.43474539536
 30
0.0
 70
0
  0
SEQEND
  8
0
  0
POLYLINE
  8
52
 62
7
 66
1
 10
0.0
 20
0.0
 30
0.0
 70
1
  0
VERTEX
  8
52
  6
CONTINUOUS
 62
7
 10
-404.664219622335
 20
1837.66424114384
 30
0.0
 70
0
  0
VERTEX
  8
52
  6
CONTINUOUS
 62
7
 10
-401.835792497589
 20
1834.83581401909
 30
0.0
 70
0
  0
VERTEX
  8
52
  6
CONTINUOUS
 62
7
 10
-394.83579239246
 20
1841.83581412422
 30
0.0
 70
0
  0
VERTEX
  8
52
  6
CONTINUOUS
 62
7
 10
-397.664219517206
 20
1844.66424124897
 30
0.0
 70
0
  0
SEQEND
  8
0
  0
POLYLINE
  8
52
 62
7
 66
1
 10
0.0
 20
0.0
 30
0.0
 70
1
  0
VERTEX
  8
52
  6
CONTINUOUS
 62
7
 10
-396.202380045164
 20
1517.6838837062
 30
0.0
 70
0
  0
VERTEX
  8
52
  6
CONTINUOUS
 62
7
 10
-392.297631804428
 20
1516.81616187493
 30
0.0
 70
0
  0
VERTEX
  8
52
  6
CONTINUOUS
 62
7
 10
-386.297631714317
 20
1543.81616228043
 30
0.0
 70
0
  0
VERTEX
  8
52
  6
CONTINUOUS
 62
7
 10
-390.202379955053
 20
1544.6838841117
 30
0.0
 70
0
  0
SEQEND
  8
0
  0
POLYLINE
  8
52
 62
7
 66
1
 10
0.0
 20
0.0
 30
0.0
 70
1
  0
VERTEX
  8
52
  6
CONTINUOUS
 62
7
 10
-374.250005594389
 20
1604.0784512069
 30
0.0
 70
0
  0
VERTEX
  8
52
  6
CONTINUOUS
 62
7
 10
-374.250005594389
 20
1600.2500240371
 30
0.0
 70
0
  0
VERTEX
  8
52
  6
CONTINUOUS
 62
7
 10
-370.250005594389
 20
1600.2500240371
 30
0.0
 70
0
  0
VERTEX
  8
52
  6
CONTINUOUS
 62
7
 10
-370.250005594389
 20
1602.42159695741
 30
0.0
 70
0
  0
VERTEX
  8
52
  6
CONTINUOUS
 62
7
 10
-367.444077507172
 20
1605.22752504463
 30
0.0
 70
0
  0
VERTEX
  8
52
  6
CONTINUOUS
 62
7
 10
-366.274415535814
 20
1609.90617293005
 30
0.0
 70
0
  0
VERTEX
  8
52
  6
CONTINUOUS
 62
7
 10
-364.259931123858
 20
1630.05101704961
 30
0.0
 70
0
  0
VERTEX
  8
52
  6
CONTINUOUS
 62
7
 10
-368.240079884698
 20
1630.4490319257
 30
0.0
 70
0
  0
VERTEX
  8
52
  6
CONTINUOUS
 62
7
 10
-370.225595532816
 20
1610.59387544452
 30
0.0
 70
0
  0
VERTEX
  8
52
  6
CONTINUOUS
 62
7
 10
-371.055933591497
 20
1607.27252320979
 30
0.0
 70
0
  0
SEQEND
  8
0
  0
POLYLINE
  8
52
 62
7
 66
1
 10
0.0
 20
0.0
 30
0.0
 70
1
  0
VERTEX
  8
52
  6
CONTINUOUS
 62
7
 10
-555.120381421965
 20
1639.48891400949
 30
0.0
 70
0
  0
VERTEX
  8
52
  6
CONTINUOUS
 62
7
 10
-551.792180244614
 20
1637.27011322459
 30
0.0
 70
0
  0
VERTEX
  8
52
  6
CONTINUOUS
 62
7
 10
-546.199167624545
 20
1645.6596321547
 30
0.0
 70
0
  0
VERTEX
  8
52
  6
CONTINUOUS
 62
7
 10
-538.590260193363
 20
1652.5768207285
 30
0.0
 70
0
  0
VERTEX
  8
52
  6
CONTINUOUS
 62
7
 10
-528.731345169138
 20
1659.61890288866
 30
0.0
 70
0
  0
VERTEX
  8
52
  6
CONTINUOUS
 62
7
 10
-516.122195299759
 20
1667.03604987065
 30
0.0
 70
0
  0
VERTEX
  8
52
  6
CONTINUOUS
 62
7
 10
-515.141315386094
 20
1668.99780969798
 30
0.0
 70
0
  0
VERTEX
  8
52
  6
CONTINUOUS
 62
7
 10
-518.719024150093
 20
1670.78666407998
 30
0.0
 70
0
  0
VERTEX
  8
52
  6
CONTINUOUS
 62
7
 10
-519.170540748789
 20
1669.88363088259
 30
0.0
 70
0
  0
VERTEX
  8
52
  6
CONTINUOUS
 62
7
 10
-530.912131589541
 20
1662.97681274097
 30
0.0
 70
0
  0
VERTEX
  8
52
  6
CONTINUOUS
 62
7
 10
-541.106767738365
 20
1655.69492977752
 30
0.0
 70
0
  0
VERTEX
  8
52
  6
CONTINUOUS
 62
7
 10
-549.254221943149
 20
1648.28815322772
 30
0.0
 70
0
  0
SEQEND
  8
0
  0
POLYLINE
  8
52
 62
7
 66
1
 10
0.0
 20
0.0
 30
0.0
 70
1
  0
VERTEX
  8
52
  6
CONTINUOUS
 62
7
 10
-354.218860445036
 20
1683.6016065606
 30
0.0
 70
0
  0
VERTEX
  8
52
  6
CONTINUOUS
 62
7
 10
-350.281150143002
 20
1682.89844400667
 30
0.0
 70
0
  0
VERTEX
  8
52
  6
CONTINUOUS
 62
7
 10
-345.250005218927
 20
1711.07285558149
 30
0.0
 70
0
  0
VERTEX
  8
52
  6
CONTINUOUS
 62
7
 10
-345.250005218927
 20
1723.25002588437
 30
0.0
 70
0
  0
VERTEX
  8
52
  6
CONTINUOUS
 62
7
 10
-349.250005218927
 20
1723.25002588437
 30
0.0
 70
0
  0
VERTEX
  8
52
  6
CONTINUOUS
 62
7
 10
-349.250005218927
 20
1711.42719582681
 30
0.0
 70
0
  0
SEQEND
  8
0
  0
POLYLINE
  8
52
 62
7
 66
1
 10
0.0
 20
0.0
 30
0.0
 70
1
  0
VERTEX
  8
52
  6
CONTINUOUS
 62
7
 10
-304.038858925094
 20
1913.14445591387
 30
0.0
 70
0
  0
VERTEX
  8
52
  6
CONTINUOUS
 62
7
 10
-300.461150161095
 20
1911.35560153187
 30
0.0
 70
0
  0
VERTEX
  8
52
  6
CONTINUOUS
 62
7
 10
-298.301628181446
 20
1915.67464549117
 30
0.0
 70
0
  0
VERTEX
  8
52
  6
CONTINUOUS
 62
7
 10
-297.262237028692
 20
1925.02916586596
 30
0.0
 70
0
  0
VERTEX
  8
52
  6
CONTINUOUS
 62
7
 10
-301.237771967386
 20
1925.47089197026
 30
0.0
 70
0
  0
VERTEX
  8
52
  6
CONTINUOUS
 62
7
 10
-302.198380844668
 20
1916.82541207472
 30
0.0
 70
0
  0
SEQEND
  8
0
  0
POLYLINE
  8
52
 62
7
 66
1
 10
0.0
 20
0.0
 30
0.0
 70
1
  0
VERTEX
  8
52
  6
CONTINUOUS
 62
7
 10
-298.229903440306
 20
1931.5328717207
 30
0.0
 70
0
  0
VERTEX
  8
52
  6
CONTINUOUS
 62
7
 10
-294.270105465661
 20
1930.96718629575
 30
0.0
 70
0
  0
VERTEX
  8
52
  6
CONTINUOUS
 62
7
 10
-292.270105435624
 20
1944.96718650601
 30
0.0
 70
0
  0
VERTEX
  8
52
  6
CONTINUOUS
 62
7
 10
-296.229903410269
 20
1945.53287193095
 30
0.0
 70
0
  0
SEQEND
  8
0
  0
POLYLINE
  8
52
 62
7
 66
1
 10
0.0
 20
0.0
 30
0.0
 70
1
  0
VERTEX
  8
52
  6
CONTINUOUS
 62
7
 10
-268.220427512068
 20
2063.59271334016
 30
0.0
 70
0
  0
VERTEX
  8
52
  6
CONTINUOUS
 62
7
 10
-264.279580492789
 20
2062.90734864116
 30
0.0
 70
0
  0
VERTEX
  8
52
  6
CONTINUOUS
 62
7
 10
-260.279580432715
 20
2085.90734898658
 30
0.0
 70
0
  0
VERTEX
  8
52
  6
CONTINUOUS
 62
7
 10
-264.220427451994
 20
2086.59271368559
 30
0.0
 70
0
  0
SEQEND
  8
0
  0
POLYLINE
  8
52
 62
7
 66
1
 10
0.0
 20
0.0
 30
0.0
 70
1
  0
VERTEX
  8
52
  6
CONTINUOUS
 62
7
 10
-262.195616341688
 20
2058.71327197018
 30
0.0
 70
0
  0
VERTEX
  8
52
  6
CONTINUOUS
 62
7
 10
-258.304391482947
 20
2057.78678986096
 30
0.0
 70
0
  0
VERTEX
  8
52
  6
CONTINUOUS
 62
7
 10
-253.357877790421
 20
2078.56214736957
 30
0.0
 70
0
  0
VERTEX
  8
52
  6
CONTINUOUS
 62
7
 10
-250.46114941017
 20
2084.35560413007
 30
0.0
 70
0
  0
VERTEX
  8
52
  6
CONTINUOUS
 62
7
 10
-254.03885817417
 20
2086.14445851207
 30
0.0
 70
0
  0
VERTEX
  8
52
  6
CONTINUOUS
 62
7
 10
-257.14212988403
 20
2079.93791509235
 30
0.0
 70
0
  0
SEQEND
  8
0
  0
POLYLINE
  8
52
 62
7
 66
1
 10
0.0
 20
0.0
 30
0.0
 70
1
  0
VERTEX
  8
52
  6
CONTINUOUS
 62
7
 10
-249.222791564742
 20
2130.57882997151
 30
0.0
 70
0
  0
VERTEX
  8
52
  6
CONTINUOUS
 62
7
 10
-245.277215869413
 20
2129.92123402229
 30
0.0
 70
0
  0
VERTEX
  8
52
  6
CONTINUOUS
 62
7
 10
-242.277215824358
 20
2147.92123429262
 30
0.0
 70
0
  0
VERTEX
  8
52
  6
CONTINUOUS
 62
7
 10
-246.222791519686
 20
2148.57883024184
 30
0.0
 70
0
  0
SEQEND
  8
0
  0
POLYLINE
  8
52
 62
7
 66
1
 10
0.0
 20
0.0
 30
0.0
 70
1
  0
VERTEX
  8
52
  6
CONTINUOUS
 62
7
 10
-237.161561554299
 20
2193.83820464074
 30
0.0
 70
0
  0
VERTEX
  8
52
  6
CONTINUOUS
 62
7
 10
-233.338445519411
 20
2192.66186124539
 30
0.0
 70
0
  0
VERTEX
  8
52
  6
CONTINUOUS
 62
7
 10
-229.287102373154
 20
2205.82872647073
 30
0.0
 70
0
  0
VERTEX
  8
52
  6
CONTINUOUS
 62
7
 10
-227.265447693317
 20
2222.00196390942
 30
0.0
 70
0
  0
VERTEX
  8
52
  6
CONTINUOUS
 62
7
 10
-231.234559200172
 20
2222.49810284778
 30
0.0
 70
0
  0
VERTEX
  8
52
  6
CONTINUOUS
 62
7
 10
-233.212904580409
 20
2206.67133980589
 30
0.0
 70
0
  0
SEQEND
  8
0
  0
POLYLINE
  8
52
 62
7
 66
1
 10
0.0
 20
0.0
 30
0.0
 70
1
  0
VERTEX
  8
52
  6
CONTINUOUS
 62
7
 10
-238.177988788286
 20
2138.7818901133
 30
0.0
 70
0
  0
VERTEX
  8
52
  6
CONTINUOUS
 62
7
 10
-234.322018315462
 20
2137.7181741208
 30
0.0
 70
0
  0
VERTEX
  8
52
  6
CONTINUOUS
 62
7
 10
-226.322018195314
 20
2166.71817455633
 30
0.0
 70
0
  0
VERTEX
  8
52
  6
CONTINUOUS
 62
7
 10
-230.177988668138
 20
2167.78189054884
 30
0.0
 70
0
  0
SEQEND
  8
0
  0
POLYLINE
  8
52
 62
7
 66
1
 10
0.0
 20
0.0
 30
0.0
 70
1
  0
VERTEX
  8
52
  6
CONTINUOUS
 62
7
 10
-221.229902283882
 20
2262.53287669182
 30
0.0
 70
0
  0
VERTEX
  8
52
  6
CONTINUOUS
 62
7
 10
-217.270104309237
 20
2261.96719126687
 30
0.0
 70
0
  0
VERTEX
  8
52
  6
CONTINUOUS
 62
7
 10
-215.2701042792
 20
2275.96719147713
 30
0.0
 70
0
  0
VERTEX
  8
52
  6
CONTINUOUS
 62
7
 10
-219.229902253845
 20
2276.53287690208
 30
0.0
 70
0
  0
SEQEND
  8
0
  0
POLYLINE
  8
52
 62
7
 66
1
 10
0.0
 20
0.0
 30
0.0
 70
1
  0
VERTEX
  8
52
  6
CONTINUOUS
 62
7
 10
-210.205607959511
 20
2310.66909287769
 30
0.0
 70
0
  0
VERTEX
  8
52
  6
CONTINUOUS
 62
7
 10
-206.294398303201
 20
2309.83097652277
 30
0.0
 70
0
  0
VERTEX
  8
52
  6
CONTINUOUS
 62
7
 10
-203.294398258146
 20
2323.83097673303
 30
0.0
 70
0
  0
VERTEX
  8
52
  6
CONTINUOUS
 62
7
 10
-207.205607914455
 20
2324.66909308795
 30
0.0
 70
0
  0
SEQEND
  8
0
  0
POLYLINE
  8
52
 62
7
 66
1
 10
0.0
 20
0.0
 30
0.0
 70
1
  0
VERTEX
  8
52
  6
CONTINUOUS
 62
7
 10
-339.664218646133
 20
1561.83580991904
 30
0.0
 70
0
  0
VERTEX
  8
52
  6
CONTINUOUS
 62
7
 10
-337.07843217847
 20
1559.25002345138
 30
0.0
 70
0
  0
VERTEX
  8
52
  6
CONTINUOUS
 62
7
 10
-328.496216184811
 20
1559.25002345138
 30
0.0
 70
0
  0
VERTEX
  8
52
  6
CONTINUOUS
 62
7
 10
-316.735076003426
 20
1556.30973840603
 30
0.0
 70
0
  0
VERTEX
  8
52
  6
CONTINUOUS
 62
7
 10
-315.764933503281
 20
1560.19030840661
 30
0.0
 70
0
  0
VERTEX
  8
52
  6
CONTINUOUS
 62
7
 10
-328.003793682339
 20
1563.25002345138
 30
0.0
 70
0
  0
VERTEX
  8
52
  6
CONTINUOUS
 62
7
 10
-335.421577928977
 20
1563.25002345138
 30
0.0
 70
0
  0
VERTEX
  8
52
  6
CONTINUOUS
 62
7
 10
-336.835791521387
 20
1564.66423704379
 30
0.0
 70
0
  0
SEQEND
  8
0
  0
POLYLINE
  8
54
 62
7
 66
1
 10
0.0
 20
0.0
 30
0.0
 70
1
  0
VERTEX
  8
54
  6
CONTINUOUS
 62
7
 10
-282.250004242725
 20
1996.25002998442
 30
0.0
 70
0
  0
VERTEX
  8
54
  6
CONTINUOUS
 62
7
 10
-282.250004242725
 20
1993.25002993937
 30
0.0
 70
0
  0
VERTEX
  8
54
  6
CONTINUOUS
 62
7
 10
-277.250004167632
 20
1989.25002987929
 30
0.0
 70
0
  0
VERTEX
  8
54
  6
CONTINUOUS
 62
7
 10
-275.250004137595
 20
1996.25002998442
 30
0.0
 70
0
  0
VERTEX
  8
54
  6
CONTINUOUS
 62
7
 10
-279.250004197669
 20
2000.2500300445
 30
0.0
 70
0
  0
SEQEND
  8
0
  0
POLYLINE
  8
54
 62
7
 66
1
 10
0.0
 20
0.0
 30
0.0
 70
1
  0
VERTEX
  8
54
  6
CONTINUOUS
 62
7
 10
-613.250009213846
 20
1532.25002301584
 30
0.0
 70
0
  0
VERTEX
  8
54
  6
CONTINUOUS
 62
7
 10
-612.250009198828
 20
1528.25002295577
 30
0.0
 70
0
  0
VERTEX
  8
54
  6
CONTINUOUS
 62
7
 10
-609.250009153772
 20
1528.25002295577
 30
0.0
 70
0
  0
VERTEX
  8
54
  6
CONTINUOUS
 62
7
 10
-584.25000877831
 20
1515.25002276053
 30
0.0
 70
0
  0
VERTEX
  8
54
  6
CONTINUOUS
 62
7
 10
-573.250008613106
 20
1504.25002259532
 30
0.0
 70
0
  0
VERTEX
  8
54
  6
CONTINUOUS
 62
7
 10
-572.250008598088
 20
1497.2500224902
 30
0.0
 70
0
  0
VERTEX
  8
54
  6
CONTINUOUS
 62
7
 10
-579.250008703217
 20
1480.25002223488
 30
0.0
 70
0
  0
VERTEX
  8
54
  6
CONTINUOUS
 62
7
 10
-581.271117991662
 20
1475.34161396381
 30
0.0
 70
0
  0
VERTEX
  8
54
  6
CONTINUOUS
 62
7
 10
-579.37864074884
 20
1475.43731897056
 30
0.0
 70
0
  0
VERTEX
  8
54
  6
CONTINUOUS
 62
7
 10
-584.84964310825
 20
1458.06186493033
 30
0.0
 70
0
  0
VERTEX
  8
54
  6
CONTINUOUS
 62
7
 10
-572.208416286579
 20
1456.03488818139
 30
0.0
 70
0
  0
VERTEX
  8
54
  6
CONTINUOUS
 62
7
 10
-572.227898644206
 20
1452.3517939283
 30
0.0
 70
0
  0
VERTEX
  8
54
  6
CONTINUOUS
 62
7
 10
-565.250008492958
 20
1451.25002179934
 30
0.0
 70
0
  0
VERTEX
  8
54
  6
CONTINUOUS
 62
7
 10
-546.250008207607
 20
1448.25002175429
 30
0.0
 70
0
  0
VERTEX
  8
54
  6
CONTINUOUS
 62
7
 10
-526.250007907237
 20
1448.25002175429
 30
0.0
 70
0
  0
VERTEX
  8
54
  6
CONTINUOUS
 62
7
 10
-515.250007742034
 20
1452.25002181436
 30
0.0
 70
0
  0
VERTEX
  8
54
  6
CONTINUOUS
 62
7
 10
-510.250007666941
 20
1458.25002190447
 30
0.0
 70
0
  0
VERTEX
  8
54
  6
CONTINUOUS
 62
7
 10
-511.25000768196
 20
1473.25002212975
 30
0.0
 70
0
  0
VERTEX
  8
54
  6
CONTINUOUS
 62
7
 10
-506.250007606867
 20
1496.25002247518
 30
0.0
 70
0
  0
VERTEX
  8
54
  6
CONTINUOUS
 62
7
 10
-506.250007606867
 20
1505.25002261034
 30
0.0
 70
0
  0
VERTEX
  8
54
  6
CONTINUOUS
 62
7
 10
-512.250007696978
 20
1511.25002270045
 30
0.0
 70
0
  0
VERTEX
  8
54
  6
CONTINUOUS
 62
7
 10
-519.250007802108
 20
1514.25002274551
 30
0.0
 70
0
  0
VERTEX
  8
54
  6
CONTINUOUS
 62
7
 10
-548.250008237644
 20
1521.25002285064
 30
0.0
 70
0
  0
VERTEX
  8
54
  6
CONTINUOUS
 62
7
 10
-569.250008553032
 20
1524.25002289569
 30
0.0
 70
0
  0
VERTEX
  8
54
  6
CONTINUOUS
 62
7
 10
-590.250008868421
 20
1533.25002303086
 30
0.0
 70
0
  0
VERTEX
  8
54
  6
CONTINUOUS
 62
7
 10
-600.250009018606
 20
1535.2500230609
 30
0.0
 70
0
  0
VERTEX
  8
54
  6
CONTINUOUS
 62
7
 10
-611.250009183809
 20
1534.25002304588
 30
0.0
 70
0
  0
SEQEND
  8
0
  0
POLYLINE
  8
54
 62
7
 66
1
 10
0.0
 20
0.0
 30
0.0
 70
1
  0
VERTEX
  8
54
  6
CONTINUOUS
 62
7
 10
-544.145703502946
 20
1583.88904402681
 30
0.0
 70
0
  0
VERTEX
  8
54
  6
CONTINUOUS
 62
7
 10
-544.145703502946
 20
1577.54867616898
 30
0.0
 70
0
  0
VERTEX
  8
54
  6
CONTINUOUS
 62
7
 10
-542.466602355382
 20
1571.59067927991
 30
0.0
 70
0
  0
VERTEX
  8
54
  6
CONTINUOUS
 62
7
 10
-539.310924439545
 20
1566.73367571509
 30
0.0
 70
0
  0
VERTEX
  8
54
  6
CONTINUOUS
 62
7
 10
-535.05929108493
 20
1563.56349178618
 30
0.0
 70
0
  0
VERTEX
  8
54
  6
CONTINUOUS
 62
7
 10
-530.22451202153
 20
1562.46249846193
 30
0.0
 70
0
  0
VERTEX
  8
54
  6
CONTINUOUS
 62
7
 10
-525.38973295813
 20
1563.56349178618
 30
0.0
 70
0
  0
VERTEX
  8
54
  6
CONTINUOUS
 62
7
 10
-521.138099603515
 20
1566.73367571509
 30
0.0
 70
0
  0
VERTEX
  8
54
  6
CONTINUOUS
 62
7
 10
-517.982421687678
 20
1571.59067927991
 30
0.0
 70
0
  0
VERTEX
  8
54
  6
CONTINUOUS
 62
7
 10
-516.303320540114
 20
1577.54867616898
 30
0.0
 70
0
  0
VERTEX
  8
54
  6
CONTINUOUS
 62
7
 10
-516.303320540114
 20
1583.88904402681
 30
0.0
 70
0
  0
VERTEX
  8
54
  6
CONTINUOUS
 62
7
 10
-517.982421687678
 20
1589.84704091588
 30
0.0
 70
0
  0
VERTEX
  8
54
  6
CONTINUOUS
 62
7
 10
-521.138099603515
 20
1594.7040444807
 30
0.0
 70
0
  0
VERTEX
  8
54
  6
CONTINUOUS
 62
7
 10
-525.38973295813
 20
1597.87422840961
 30
0.0
 70
0
  0
VERTEX
  8
54
  6
CONTINUOUS
 62
7
 10
-530.22451202153
 20
1598.97522173386
 30
0.0
 70
0
  0
VERTEX
  8
54
  6
CONTINUOUS
 62
7
 10
-535.05929108493
 20
1597.87422840961
 30
0.0
 70
0
  0
VERTEX
  8
54
  6
CONTINUOUS
 62
7
 10
-539.310924439545
 20
1594.7040444807
 30
0.0
 70
0
  0
VERTEX
  8
54
  6
CONTINUOUS
 62
7
 10
-542.466602355382
 20
1589.84704091588
 30
0.0
 70
0
  0
SEQEND
  8
0
  0
POLYLINE
  8
11
 62
7
 66
1
 10
0.0
 20
0.0
 30
0.0
 70
1
  0
VERTEX
  8
11
  6
CONTINUOUS
 62
7
 10
-615.0211346545
 20
1461.33350066076
 30
0.0
 70
0
  0
VERTEX
  8
11
  6
CONTINUOUS
 62
7
 10
-614.422011815149
 20
1466.15627402845
 30
0.0
 70
0
  0
VERTEX
  8
11
  6
CONTINUOUS
 62
7
 10
-610.898782431052
 20
1460.7506376095
 30
0.0
 70
0
  0
VERTEX
  8
11
  6
CONTINUOUS
 62
7
 10
-611.094326046036
 20
1456.7261886404
 30
0.0
 70
0
  0
SEQEND
  8
0
  0
POLYLINE
  8
1
 62
7
 66
1
 10
0.0
 20
0.0
 30
0.0
 70
1
  0
VERTEX
  8
1
  6
CONTINUOUS
 62
7
 10
-690.250147763731
 20
1603.25440121482
 30
0.0
 70
0
  0
VERTEX
  8
1
  6
CONTINUOUS
 62
7
 10
-685.268784981169
 20
1570.3061481019
 30
0.0
 70
0
  0
VERTEX
  8
1
  6
CONTINUOUS
 62
7
 10
-676.883824791839
 20
1555.16622481207
 30
0.0
 70
0
  0
VERTEX
  8
1
  6
CONTINUOUS
 62
7
 10
-654.365488112696
 20
1549.29144576642
 30
0.0
 70
0
  0
VERTEX
  8
1
  6
CONTINUOUS
 62
7
 10
-648.249997636391
 20
1543.26102458446
 30
0.0
 70
0
  0
VERTEX
  8
1
  6
CONTINUOUS
 62
7
 10
-650.498221291382
 20
1540.93068963448
 30
0.0
 70
0
  0
VERTEX
  8
1
  6
CONTINUOUS
 62
7
 10
-671.445394044335
 20
1544.93056902307
 30
0.0
 70
0
  0
VERTEX
  8
1
  6
CONTINUOUS
 62
7
 10
-661.876140563645
 20
1531.84896585048
 30
0.0
 70
0
  0
VERTEX
  8
1
  6
CONTINUOUS
 62
7
 10
-660.28123729092
 20
1530.3162325004
 30
0.0
 70
0
  0
VERTEX
  8
1
  6
CONTINUOUS
 62
7
 10
-659.737686674908
 20
1525.81721548979
 30
0.0
 70
0
  0
VERTEX
  8
1
  6
CONTINUOUS
 62
7
 10
-640.907061233526
 20
1492.90414173523
 30
0.0
 70
0
  0
VERTEX
  8
1
  6
CONTINUOUS
 62
7
 10
-637.239813561771
 20
1489.23780445136
 30
0.0
 70
0
  0
VERTEX
  8
1
  6
CONTINUOUS
 62
7
 10
-630.726400381573
 20
1479.76043886478
 30
0.0
 70
0
  0
VERTEX
  8
1
  6
CONTINUOUS
 62
7
 10
-615.0211346545
 20
1461.33350066076
 30
0.0
 70
0
  0
VERTEX
  8
1
  6
CONTINUOUS
 62
7
 10
-616.246309789928
 20
1451.47117923717
 30
0.0
 70
0
  0
VERTEX
  8
1
  6
CONTINUOUS
 62
7
 10
-605.498985560036
 20
1448.04945218861
 30
0.0
 70
0
  0
VERTEX
  8
1
  6
CONTINUOUS
 62
7
 10
-609.113141830854
 20
1453.78441315057
 30
0.0
 70
0
  0
VERTEX
  8
1
  6
CONTINUOUS
 62
7
 10
-605.706434061576
 20
1452.78409771501
 30
0.0
 70
0
  0
VERTEX
  8
1
  6
CONTINUOUS
 62
7
 10
-610.898782431052
 20
1460.7506376095
 30
0.0
 70
0
  0
VERTEX
  8
1
  6
CONTINUOUS
 62
7
 10
-610.598616023221
 20
1466.92830999553
 30
0.0
 70
0
  0
VERTEX
  8
1
  6
CONTINUOUS
 62
7
 10
-592.416127698329
 20
1459.52391154245
 30
0.0
 70
0
  0
VERTEX
  8
1
  6
CONTINUOUS
 62
7
 10
-584.905398758847
 20
1475.15782371259
 30
0.0
 70
0
  0
VERTEX
  8
1
  6
CONTINUOUS
 62
7
 10
-579.37864074884
 20
1475.43731897056
 30
0.0
 70
0
  0
VERTEX
  8
1
  6
CONTINUOUS
 62
7
 10
-584.84964310825
 20
1458.06186493033
 30
0.0
 70
0
  0
VERTEX
  8
1
  6
CONTINUOUS
 62
7
 10
-572.208416286579
 20
1456.03488818139
 30
0.0
 70
0
  0
VERTEX
  8
1
  6
CONTINUOUS
 62
7
 10
-572.244275723308
 20
1449.25574536326
 30
0.0
 70
0
  0
VERTEX
  8
1
  6
CONTINUOUS
 62
7
 10
-589.540566659346
 20
1449.15659318868
 30
0.0
 70
0
  0
VERTEX
  8
1
  6
CONTINUOUS
 62
7
 10
-593.185268337824
 20
1428.32420605739
 30
0.0
 70
0
  0
VERTEX
  8
1
  6
CONTINUOUS
 62
7
 10
-561.314242373149
 20
1394.3507639696
 30
0.0
 70
0
  0
VERTEX
  8
1
  6
CONTINUOUS
 62
7
 10
-561.24134353994
 20
1388.2360521579
 30
0.0
 70
0
  0
VERTEX
  8
1
  6
CONTINUOUS
 62
7
 10
-553.079592426984
 20
1384.11678390952
 30
0.0
 70
0
  0
VERTEX
  8
1
  6
CONTINUOUS
 62
7
 10
-535.371562420639
 20
1361.37146759208
 30
0.0
 70
0
  0
VERTEX
  8
1
  6
CONTINUOUS
 62
7
 10
-524.506076930095
 20
1353.33773679615
 30
0.0
 70
0
  0
VERTEX
  8
1
  6
CONTINUOUS
 62
7
 10
-454.273130771635
 20
1391.23627858458
 30
0.0
 70
0
  0
VERTEX
  8
1
  6
CONTINUOUS
 62
7
 10
-416.215929685281
 20
1416.33638248399
 30
0.0
 70
0
  0
VERTEX
  8
1
  6
CONTINUOUS
 62
7
 10
-419.426044370924
 20
1430.61090808283
 30
0.0
 70
0
  0
VERTEX
  8
1
  6
CONTINUOUS
 62
7
 10
-413.446398866224
 20
1455.10427163663
 30
0.0
 70
0
  0
VERTEX
  8
1
  6
CONTINUOUS
 62
7
 10
-406.410625950915
 20
1455.27371602625
 30
0.0
 70
0
  0
VERTEX
  8
1
  6
CONTINUOUS
 62
7
 10
-413.331559030215
 20
1432.03253512762
 30
0.0
 70
0
  0
VERTEX
  8
1
  6
CONTINUOUS
 62
7
 10
-408.030880917594
 20
1423.31354694852
 30
0.0
 70
0
  0
VERTEX
  8
1
  6
CONTINUOUS
 62
7
 10
-385.146287483467
 20
1452.34225694996
 30
0.0
 70
0
  0
VERTEX
  8
1
  6
CONTINUOUS
 62
7
 10
-320.00833894695
 20
1488.24788344373
 30
0.0
 70
0
  0
VERTEX
  8
1
  6
CONTINUOUS
 62
7
 10
-261.099044733727
 20
1488.25495415405
 30
0.0
 70
0
  0
VERTEX
  8
1
  6
CONTINUOUS
 62
7
 10
-233.471162857975
 20
1512.54046697401
 30
0.0
 70
0
  0
VERTEX
  8
1
  6
CONTINUOUS
 62
7
 10
-213.141917625946
 20
1541.0065439683
 30
0.0
 70
0
  0
VERTEX
  8
1
  6
CONTINUOUS
 62
7
 10
-188.237177098736
 20
1546.25699513972
 30
0.0
 70
0
  0
VERTEX
  8
1
  6
CONTINUOUS
 62
7
 10
-180.258585043576
 20
1554.23439386382
 30
0.0
 70
0
  0
VERTEX
  8
1
  6
CONTINUOUS
 62
7
 10
-173.255556953101
 20
1586.27671453493
 30
0.0
 70
0
  0
VERTEX
  8
1
  6
CONTINUOUS
 62
7
 10
-183.310529556962
 20
1600.2990496595
 30
0.0
 70
0
  0
VERTEX
  8
1
  6
CONTINUOUS
 62
7
 10
-194.093943807933
 20
1605.1536098687
 30
0.0
 70
0
  0
VERTEX
  8
1
  6
CONTINUOUS
 62
7
 10
-210.130343365805
 20
1617.2665417192
 30
0.0
 70
0
  0
VERTEX
  8
1
  6
CONTINUOUS
 62
7
 10
-218.927464153452
 20
1605.41464450277
 30
0.0
 70
0
  0
VERTEX
  8
1
  6
CONTINUOUS
 62
7
 10
-229.338485924449
 20
1609.03569277282
 30
0.0
 70
0
  0
VERTEX
  8
1
  6
CONTINUOUS
 62
7
 10
-229.306304812276
 20
1618.3893885684
 30
0.0
 70
0
  0
VERTEX
  8
1
  6
CONTINUOUS
 62
7
 10
-241.086644096757
 20
1631.27375942409
 30
0.0
 70
0
  0
VERTEX
  8
1
  6
CONTINUOUS
 62
7
 10
-242.255433772472
 20
1659.26358915924
 30
0.0
 70
0
  0
VERTEX
  8
1
  6
CONTINUOUS
 62
7
 10
-276.257082069629
 20
1698.25969553944
 30
0.0
 70
0
  0
VERTEX
  8
1
  6
CONTINUOUS
 62
7
 10
-297.691855628171
 20
1733.68477077147
 30
0.0
 70
0
  0
VERTEX
  8
1
  6
CONTINUOUS
 62
7
 10
-312.212289704188
 20
1748.15630735597
 30
0.0
 70
0
  0
VERTEX
  8
1
  6
CONTINUOUS
 62
7
 10
-312.117144168285
 20
1756.98291222097
 30
0.0
 70
0
  0
VERTEX
  8
1
  6
CONTINUOUS
 62
7
 10
-323.376073379981
 20
1765.78127331872
 30
0.0
 70
0
  0
VERTEX
  8
1
  6
CONTINUOUS
 62
7
 10
-323.365938390873
 20
1768.86352627373
 30
0.0
 70
0
  0
VERTEX
  8
1
  6
CONTINUOUS
 62
7
 10
-329.04782707823
 20
1767.65107753604
 30
0.0
 70
0
  0
VERTEX
  8
1
  6
CONTINUOUS
 62
7
 10
-326.557970017536
 20
1773.98654738217
 30
0.0
 70
0
  0
VERTEX
  8
1
  6
CONTINUOUS
 62
7
 10
-336.135507981007
 20
1768.39332275323
 30
0.0
 70
0
  0
VERTEX
  8
1
  6
CONTINUOUS
 62
7
 10
-334.941795390906
 20
1765.31070942692
 30
0.0
 70
0
  0
VERTEX
  8
1
  6
CONTINUOUS
 62
7
 10
-331.985046388534
 20
1765.03094149872
 30
0.0
 70
0
  0
VERTEX
  8
1
  6
CONTINUOUS
 62
7
 10
-332.871846722287
 20
1762.64594372915
 30
0.0
 70
0
  0
VERTEX
  8
1
  6
CONTINUOUS
 62
7
 10
-337.236751158236
 20
1767.75020335399
 30
0.0
 70
0
  0
VERTEX
  8
1
  6
CONTINUOUS
 62
7
 10
-336.135507981007
 20
1768.39332275323
 30
0.0
 70
0
  0
VERTEX
  8
1
  6
CONTINUOUS
 62
7
 10
-338.027587842918
 20
1773.27938213231
 30
0.0
 70
0
  0
VERTEX
  8
1
  6
CONTINUOUS
 62
7
 10
-331.55713418791
 20
1799.06305692413
 30
0.0
 70
0
  0
VERTEX
  8
1
  6
CONTINUOUS
 62
7
 10
-324.229732084309
 20
1803.27816337235
 30
0.0
 70
0
  0
VERTEX
  8
1
  6
CONTINUOUS
 62
7
 10
-319.245495798668
 20
1827.46285514094
 30
0.0
 70
0
  0
VERTEX
  8
1
  6
CONTINUOUS
 62
7
 10
-319.261878084315
 20
1846.15281258347
 30
0.0
 70
0
  0
VERTEX
  8
1
  6
CONTINUOUS
 62
7
 10
-314.089238092757
 20
1869.19785523333
 30
0.0
 70
0
  0
VERTEX
  8
1
  6
CONTINUOUS
 62
7
 10
-305.168955849312
 20
1869.3141676723
 30
0.0
 70
0
  0
VERTEX
  8
1
  6
CONTINUOUS
 62
7
 10
-297.250816471425
 20
1900.24656650772
 30
0.0
 70
0
  0
VERTEX
  8
1
  6
CONTINUOUS
 62
7
 10
-291.830363561572
 20
1926.206795271
 30
0.0
 70
0
  0
VERTEX
  8
1
  6
CONTINUOUS
 62
7
 10
-283.116719374999
 20
1926.38775780182
 30
0.0
 70
0
  0
VERTEX
  8
1
  6
CONTINUOUS
 62
7
 10
-279.186335723102
 20
1941.43477755254
 30
0.0
 70
0
  0
VERTEX
  8
1
  6
CONTINUOUS
 62
7
 10
-231.249738734984
 20
2043.25069212477
 30
0.0
 70
0
  0
VERTEX
  8
1
  6
CONTINUOUS
 62
7
 10
-223.249944849142
 20
2067.2501857974
 30
0.0
 70
0
  0
VERTEX
  8
1
  6
CONTINUOUS
 62
7
 10
-199.577126679962
 20
2123.0504618462
 30
0.0
 70
0
  0
VERTEX
  8
1
  6
CONTINUOUS
 62
7
 10
-190.249849080409
 20
2157.25056255578
 30
0.0
 70
0
  0
VERTEX
  8
1
  6
CONTINUOUS
 62
7
 10
-186.305560476663
 20
2170.06459850777
 30
0.0
 70
0
  0
VERTEX
  8
1
  6
CONTINUOUS
 62
7
 10
-179.116490348373
 20
2198.07092427543
 30
0.0
 70
0
  0
VERTEX
  8
1
  6
CONTINUOUS
 62
7
 10
-201.931584553582
 20
2198.36690794782
 30
0.0
 70
0
  0
VERTEX
  8
1
  6
CONTINUOUS
 62
7
 10
-193.894714106904
 20
2217.99315913479
 30
0.0
 70
0
  0
VERTEX
  8
1
  6
CONTINUOUS
 62
7
 10
-167.873478907316
 20
2230.94852768035
 30
0.0
 70
0
  0
VERTEX
  8
1
  6
CONTINUOUS
 62
7
 10
-160.247259112453
 20
2266.27091091918
 30
0.0
 70
0
  0
VERTEX
  8
1
  6
CONTINUOUS
 62
7
 10
-159.242527066152
 20
2285.20349025162
 30
0.0
 70
0
  0
VERTEX
  8
1
  6
CONTINUOUS
 62
7
 10
-164.340747421412
 20
2297.97161105902
 30
0.0
 70
0
  0
VERTEX
  8
1
  6
CONTINUOUS
 62
7
 10
-160.332332815995
 20
2310.12126464604
 30
0.0
 70
0
  0
VERTEX
  8
1
  6
CONTINUOUS
 62
7
 10
-146.655671322869
 20
2323.86365805485
 30
0.0
 70
0
  0
VERTEX
  8
1
  6
CONTINUOUS
 62
7
 10
-160.355478722402
 20
2339.34670256821
 30
0.0
 70
0
  0
VERTEX
  8
1
  6
CONTINUOUS
 62
7
 10
-220.288750773007
 20
2386.24307351164
 30
0.0
 70
0
  0
VERTEX
  8
1
  6
CONTINUOUS
 62
7
 10
-231.771389492904
 20
2367.92216211457
 30
0.0
 70
0
  0
VERTEX
  8
1
  6
CONTINUOUS
 62
7
 10
-538.66968177018
 20
2423.81043491713
 30
0.0
 70
0
  0
VERTEX
  8
1
  6
CONTINUOUS
 62
7
 10
-544.153092217772
 20
2422.31776580579
 30
0.0
 70
0
  0
VERTEX
  8
1
  6
CONTINUOUS
 62
7
 10
-562.109675628566
 20
2396.44917538362
 30
0.0
 70
0
  0
VERTEX
  8
1
  6
CONTINUOUS
 62
7
 10
-581.248390002952
 20
2356.25334909271
 30
0.0
 70
0
  0
VERTEX
  8
1
  6
CONTINUOUS
 62
7
 10
-614.232064356227
 20
2290.32355715521
 30
0.0
 70
0
  0
VERTEX
  8
1
  6
CONTINUOUS
 62
7
 10
-614.242792686027
 20
2273.46273661728
 30
0.0
 70
0
  0
VERTEX
  8
1
  6
CONTINUOUS
 62
7
 10
-630.961245856654
 20
2263.40624940603
 30
0.0
 70
0
  0
VERTEX
  8
1
  6
CONTINUOUS
 62
7
 10
-654.25428166862
 20
2219.22504665848
 30
0.0
 70
0
  0
VERTEX
  8
1
  6
CONTINUOUS
 62
7
 10
-652.2361566436
 20
2205.21303435024
 30
0.0
 70
0
  0
VERTEX
  8
1
  6
CONTINUOUS
 62
7
 10
-645.258943518663
 20
2194.26012595827
 30
0.0
 70
0
  0
VERTEX
  8
1
  6
CONTINUOUS
 62
7
 10
-627.786432702241
 20
2179.95572356772
 30
0.0
 70
0
  0
VERTEX
  8
1
  6
CONTINUOUS
 62
7
 10
-625.361586189733
 20
2167.89048117279
 30
0.0
 70
0
  0
VERTEX
  8
1
  6
CONTINUOUS
 62
7
 10
-622.269361447049
 20
2163.27378632738
 30
0.0
 70
0
  0
VERTEX
  8
1
  6
CONTINUOUS
 62
7
 10
-619.279239233998
 20
2160.30143016885
 30
0.0
 70
0
  0
VERTEX
  8
1
  6
CONTINUOUS
 62
7
 10
-612.014401501295
 20
2133.1131915987
 30
0.0
 70
0
  0
VERTEX
  8
1
  6
CONTINUOUS
 62
7
 10
-600.281377207927
 20
2046.2820327757
 30
0.0
 70
0
  0
VERTEX
  8
1
  6
CONTINUOUS
 62
7
 10
-592.251684389361
 20
2001.55498384569
 30
0.0
 70
0
  0
VERTEX
  8
1
  6
CONTINUOUS
 62
7
 10
-592.251076806233
 20
1985.25456298975
 30
0.0
 70
0
  0
VERTEX
  8
1
  6
CONTINUOUS
 62
7
 10
-583.699447341332
 20
1968.15148968973
 30
0.0
 70
0
  0
VERTEX
  8
1
  6
CONTINUOUS
 62
7
 10
-574.433443507454
 20
1957.41190001825
 30
0.0
 70
0
  0
VERTEX
  8
1
  6
CONTINUOUS
 62
7
 10
-567.057215493118
 20
1952.99842561262
 30
0.0
 70
0
  0
VERTEX
  8
1
  6
CONTINUOUS
 62
7
 10
-571.782897000881
 20
1938.61908378129
 30
0.0
 70
0
  0
VERTEX
  8
1
  6
CONTINUOUS
 62
7
 10
-579.263921446363
 20
1901.0665241083
 30
0.0
 70
0
  0
VERTEX
  8
1
  6
CONTINUOUS
 62
7
 10
-584.926730533684
 20
1896.14899771224
 30
0.0
 70
0
  0
VERTEX
  8
1
  6
CONTINUOUS
 62
7
 10
-598.541611673114
 20
1898.8633417277
 30
0.0
 70
0
  0
VERTEX
  8
1
  6
CONTINUOUS
 62
7
 10
-592.538965940009
 20
1887.81337621938
 30
0.0
 70
0
  0
VERTEX
  8
1
  6
CONTINUOUS
 62
7
 10
-585.276519187047
 20
1887.28030354361
 30
0.0
 70
0
  0
VERTEX
  8
1
  6
CONTINUOUS
 62
7
 10
-585.265705412169
 20
1868.19569777665
 30
0.0
 70
0
  0
VERTEX
  8
1
  6
CONTINUOUS
 62
7
 10
-602.885531555337
 20
1803.21211036893
 30
0.0
 70
0
  0
VERTEX
  8
1
  6
CONTINUOUS
 62
7
 10
-615.223819957778
 20
1780.29056835427
 30
0.0
 70
0
  0
VERTEX
  8
1
  6
CONTINUOUS
 62
7
 10
-623.211901231464
 20
1769.69339619544
 30
0.0
 70
0
  0
VERTEX
  8
1
  6
CONTINUOUS
 62
7
 10
-623.224177580504
 20
1765.31123653715
 30
0.0
 70
0
  0
VERTEX
  8
1
  6
CONTINUOUS
 62
7
 10
-631.257739664819
 20
1757.2312564095
 30
0.0
 70
0
  0
VERTEX
  8
1
  6
CONTINUOUS
 62
7
 10
-631.262631060491
 20
1753.41778310982
 30
0.0
 70
0
  0
VERTEX
  8
1
  6
CONTINUOUS
 62
7
 10
-664.26135996005
 20
1718.23292489456
 30
0.0
 70
0
  0
VERTEX
  8
1
  6
CONTINUOUS
 62
7
 10
-673.252048198552
 20
1698.24427275876
 30
0.0
 70
0
  0
VERTEX
  8
1
  6
CONTINUOUS
 62
7
 10
-686.249836568849
 20
1649.25101822294
 30
0.0
 70
0
  0
SEQEND
  8
0
  0
LINE
  8
MyLayer
 10
0.0
 20
0.0
 30
0.0
 11
1.0
 21
0.0
 31
0.0
  0
ENDSEC
  0
EOF
